<svg xmlns="http://www.w3.org/2000/svg" viewBox="0 0 500 500">
  <path fill="#ebebeb" d="M0 382.4h500v.25H0zm416.78 16.09h33.12v.25h-33.12zm-94.25 2.72h8.69v.25h-8.69zm74.06-12h19.19v.25h-19.19zm-344.13 1.68h43.19v.25H52.46zm52.1 0h6.33v.25h-6.33zm26.91 4.22h93.68v.25h-93.68zM237 337.8H43.91a5.71 5.71 0 01-5.7-5.71V60.66a5.71 5.71 0 015.7-5.66H237a5.71 5.71 0 015.71 5.71v271.38a5.71 5.71 0 01-5.71 5.71zM43.91 55.2a5.46 5.46 0 00-5.45 5.46v271.43a5.46 5.46 0 005.45 5.46H237a5.47 5.47 0 005.46-5.46V60.66A5.47 5.47 0 00237 55.2zm409.4 282.6h-193.1a5.72 5.72 0 01-5.71-5.71V60.66a5.72 5.72 0 015.71-5.66h193.1a5.71 5.71 0 015.69 5.66v271.43a5.71 5.71 0 01-5.69 5.71zM260.21 55.2a5.47 5.47 0 00-5.46 5.46v271.43a5.47 5.47 0 005.46 5.46h193.1a5.47 5.47 0 005.46-5.46V60.66a5.47 5.47 0 00-5.46-5.46z"/>
  <path fill="#ebebeb" d="M193.17 71.82l10.92 9.04 3.69-13.47-14.61 4.43zm19.49-5.81l11.55 7.63 1.13-12.62-12.68 4.99zM105.31 78.98l8.23 17.6 9.6-17.36-17.83-.24zm19.16.34l13.19 14.61 7.66-15.8-20.85 1.19zm23.76-1.28l12.09 12.09 4.93-14.14-17.02 2.05zm22.02-2.39l14.94 11.48 3.85-14.28-18.79 2.8z"/>
  <path d="M167.06 76.68c-45.3 5.47-91 2.18-91.72 2.13l.15-2c1.2.09 120.5 8.67 163.86-25.25l1.23 1.58c-16.93 13.24-45.16 20.11-73.52 23.54z" fill="#e0e0e0"/>
  <path fill="#ebebeb" d="M305.75 71.82l-10.93 9.04-3.68-13.47 14.61 4.43zm-19.49-5.81l-11.55 7.63-1.13-12.62 12.68 4.99zm107.35 12.97l-8.24 17.6-9.59-17.36 17.83-.24zm-19.17.34l-13.19 14.61-7.65-15.8 20.84 1.19zm-23.75-1.28L338.6 90.13l-4.93-14.14 17.02 2.05zm-22.03-2.39l-14.93 11.48-3.86-14.28 18.79 2.8z"/>
  <path d="M331.86 76.68c45.3 5.47 91 2.18 91.72 2.13l-.15-2c-1.2.09-120.5 8.67-163.86-25.25l-1.23 1.58c16.93 13.24 45.15 20.11 73.52 23.54zM166.82 381.5l11.87-59.33h8.71l11.86 59.33h-7.91l-7.51-36.39-8.31 36.39h-8.71zm192.44 0l-11.86-59.33h-8.71l-11.87 59.33h7.92l7.51-36.39 8.31 36.39h8.7z" fill="#e0e0e0"/>
  <path d="M370.47 340.44L164.2 361.11a8.32 8.32 0 01-9.09-7.44L146 262.34a8.3 8.3 0 017.44-9.09l206.26-20.66a8.31 8.31 0 019.1 7.43l9.15 91.33a8.31 8.31 0 01-7.48 9.09z" fill="#e0e0e0"/>
  <rect x="211.74" y="188.89" width="100.4" height="215.91" rx="4.31" transform="rotate(84.28 261.931 296.843)" style="isolation:isolate" fill="#ebebeb" opacity=".7"/>
  <path d="M198.82 279.29a.66.66 0 01.06.48 17.55 17.55 0 01-3.47 6.73 8.3 8.3 0 01-5.55 2.74 5.86 5.86 0 01-4.64-1.23 6.46 6.46 0 01-2-4.4 12.93 12.93 0 01.05-2.83c.12-1 .32-2.21.6-3.52a7 7 0 01-4-1.72 5.7 5.7 0 01-1.75-3.69 8.85 8.85 0 01.29-3.16 9.93 9.93 0 011.31-3 .6.6 0 01.46-.26.64.64 0 01.48.14.68.68 0 01.11.88 7.31 7.31 0 00-1.11 2.47 7.82 7.82 0 00-.27 2.73 4.4 4.4 0 001.47 3 6 6 0 003.34 1.35 27 27 0 013.26-7.95c1.44-2.33 3.14-3.58 5.08-3.78a3.55 3.55 0 013 .9 4.56 4.56 0 011.31 3 6.17 6.17 0 01-1.22 4.43 10.73 10.73 0 01-3.95 3.23 14.74 14.74 0 01-5.14 1.5 11.08 11.08 0 01-1.34 0c-.29 1.4-.5 2.58-.62 3.53a11.6 11.6 0 00-.06 2.61 5.09 5.09 0 001.62 3.56 4.7 4.7 0 003.62.92 7.18 7.18 0 004.88-2.44 16.06 16.06 0 003-6.11.59.59 0 01.3-.39.62.62 0 01.48-.06.7.7 0 01.4.34zM186.29 276a13.79 13.79 0 004.57-1.28 9.74 9.74 0 003.56-2.75 5.07 5.07 0 001.13-3.74 3.45 3.45 0 00-.86-2.09 2.22 2.22 0 00-1.93-.63 4.84 4.84 0 00-3.13 1.83 15.9 15.9 0 00-2.51 4 28.08 28.08 0 00-1.62 4.69 5.41 5.41 0 00.79-.03z" fill="#e0e0e0"/>
  <path d="M209 282.18a3.43 3.43 0 01-2.36 1.33 3.54 3.54 0 01-2.39-.59 9.2 9.2 0 01-1.81 2.19 3.73 3.73 0 01-2 1c-1.76.17-2.74-.76-3-2.81a15.62 15.62 0 011.77-8.36 7.88 7.88 0 011.8-2.59 3.69 3.69 0 012.16-1 2.89 2.89 0 012.34.7 3.39 3.39 0 011 2.24 11.84 11.84 0 01-.31 3.52 19.39 19.39 0 01-1.33 4 1.87 1.87 0 001.61.48 2.44 2.44 0 001.69-1.07 9.8 9.8 0 001.34-2.94.6.6 0 01.2-.32.77.77 0 01.34-.14.67.67 0 01.49.15.58.58 0 01.24.42.94.94 0 010 .25 10.73 10.73 0 01-1.78 3.54zm-4.82-3.57a.63.63 0 01.15.56 1.68 1.68 0 00-.05.4 1.53 1.53 0 000 .31 16 16 0 00.82-3 9.45 9.45 0 00.16-2.56 1.93 1.93 0 00-.65-1.39 1.71 1.71 0 00-1.34-.37 2.45 2.45 0 00-1.55.86 7.58 7.58 0 00-1.32 2 14.55 14.55 0 00-1.66 7.62c.13 1.24.63 1.81 1.52 1.72a2.7 2.7 0 001.61-.91 10.11 10.11 0 001.53-2.07 4.34 4.34 0 01-.39-1.44 6.37 6.37 0 010-1.44.55.55 0 01.18-.37.68.68 0 01.95 0z" fill="#e0e0e0"/>
  <path d="M222.91 277.12a.79.79 0 010 .28 22.18 22.18 0 01-2.32 5.22 3.62 3.62 0 01-2.6 1.72 2 2 0 01-1.7-.54 2.86 2.86 0 01-.74-1.8 7.17 7.17 0 01.11-2.09c.14-.75.35-1.66.63-2.71s.51-2 .63-2.64a6.3 6.3 0 00.09-1.82 1.4 1.4 0 00-1.74-1.42c-.83.09-1.67.9-2.53 2.45a20.71 20.71 0 00-1.93 4.75l-1.52 6.23a.65.65 0 01-.28.41.72.72 0 01-.5.09.63.63 0 01-.4-.28.65.65 0 01-.08-.5l1.75-7.07 1.61-6.52a.66.66 0 011.13-.26.57.57 0 01.13.57l-.18.63a4 4 0 012.68-1.77 2.53 2.53 0 013.14 2.57 7.34 7.34 0 01-.11 2c-.13.73-.35 1.71-.65 2.95-.27 1-.47 1.88-.59 2.54a6.22 6.22 0 00-.12 1.77 1.82 1.82 0 00.31.95.83.83 0 00.73.23 2.62 2.62 0 001.86-1.46 24.72 24.72 0 001.95-4.6.64.64 0 01.54-.45.79.79 0 01.28 0 .61.61 0 01.42.57z" fill="#e0e0e0"/>
  <path d="M235.46 275.89a1.1 1.1 0 010 .28 17.1 17.1 0 01-3 5.9 12.16 12.16 0 01-5 3.55 14.66 14.66 0 01-2.06 5 4.1 4.1 0 01-2.9 1.9 2.87 2.87 0 01-2.22-.59 2.91 2.91 0 01-1-2.06q-.3-3 4.74-4.49a23.85 23.85 0 002.35-.73L227 282a4.1 4.1 0 01-2.74 1.75 2.07 2.07 0 01-2-.74 5 5 0 01-.8-2.51 16.32 16.32 0 01.54-4.78 14.57 14.57 0 012-4.63 4.24 4.24 0 013-2.13 2.89 2.89 0 013 1.39l.36-1.29a.52.52 0 01.2-.34.62.62 0 01.34-.15.86.86 0 01.5.12.56.56 0 01.26.42 1.23 1.23 0 010 .28q-.35 1.14-1.68 6.18l-1.16 4.69-.9 3.83a9.87 9.87 0 003.93-3.18 17.09 17.09 0 002.45-5.09.67.67 0 01.54-.46 1.3 1.3 0 01.28 0 .6.6 0 01.34.53zm-10.92 13.94a10.16 10.16 0 001.45-3.69c-.83.27-1.37.43-1.63.5a8.48 8.48 0 00-3 1.29 2.19 2.19 0 00-.88 1.79 1.72 1.72 0 00.58 1.19 1.65 1.65 0 001.26.35 3.08 3.08 0 002.22-1.43zm2.21-9.81a35.68 35.68 0 002-5.76l.5-1.8a2.78 2.78 0 00-.72-1.77 1.73 1.73 0 00-1.44-.5 3.47 3.47 0 00-2.37 2 15.44 15.44 0 00-1.61 4.21 13.29 13.29 0 00-.44 4 4.26 4.26 0 00.33 1.6.93.93 0 001 .45c1.13-.12 2-.93 2.75-2.45z" fill="#e0e0e0"/>
  <path d="M246.63 274.74a.78.78 0 010 .28 20.15 20.15 0 01-2.27 5.19 3.72 3.72 0 01-2.65 1.75 1.92 1.92 0 01-1.66-.54 2.81 2.81 0 01-.75-1.79 7.86 7.86 0 01.1-2c.08-.48.29-1.48.62-3s.56-2.47.67-2.85c-1-.21-1.69-.38-2.18-.51a10.08 10.08 0 01-1.25-.38c0 .21-.36 1.15-.95 2.83l-1.31 3.53a.56.56 0 01-.51.42.92.92 0 01-.31 0 .65.65 0 01-.42-.54 2.05 2.05 0 010-.28l1.91-5.53.27-.94a3.15 3.15 0 01-1.81-2.4 1.93 1.93 0 01.41-1.5 1.78 1.78 0 011.25-.66 1.6 1.6 0 011.34.42 2.15 2.15 0 01.62 1.41 2.47 2.47 0 010 .6 6.86 6.86 0 01-.12.7q-.09.38-.15.69a23 23 0 002.87.79c.48.09.88.18 1.19.25a.74.74 0 01.45.84c-.15.55-.41 1.64-.79 3.29s-.58 2.65-.63 3a8.38 8.38 0 00-.11 1.7c.09.85.44 1.24 1 1.18a2.67 2.67 0 001.94-1.5 23.49 23.49 0 001.88-4.55.65.65 0 01.53-.46 1.23 1.23 0 01.28 0 .58.58 0 01.54.56zm-10.28-7.54a.41.41 0 00-.36-.13.51.51 0 00-.52.63 1.56 1.56 0 00.27.73 2 2 0 00.6.6 4.47 4.47 0 00.2-1.31.81.81 0 00-.19-.52z" fill="#e0e0e0"/>
  <path d="M258.88 273.52a1.3 1.3 0 010 .28v.09c-.44 1.31-.85 2.41-1.22 3.28a8.76 8.76 0 01-1.49 2.38 3.34 3.34 0 01-2.19 1.18 2 2 0 01-1.69-.53 2.92 2.92 0 01-.75-1.8q-1.56 2.73-3.54 2.93a2.16 2.16 0 01-1.95-.72 4.16 4.16 0 01-.87-2.31 14 14 0 01.48-4.8 15.23 15.23 0 012.06-4.77 4.38 4.38 0 013.06-2.19 2.85 2.85 0 012.93 1.33l.38-1.41a.55.55 0 01.2-.32.64.64 0 01.36-.14.62.62 0 01.67.79l-1.17 4.21-.24 1c-.44 1.78-.75 3.14-.94 4.08a7.31 7.31 0 00-.21 2.2 1.63 1.63 0 00.31 1 .79.79 0 00.73.24 2.78 2.78 0 002.08-1.73 31.21 31.21 0 001.71-4.24v-.09a.62.62 0 01.53-.45.78.78 0 01.28 0 .61.61 0 01.48.51zm-9.09 5.16a12 12 0 001.46-2.89q.57-1.64 1.23-3.93l.54-2a2.45 2.45 0 00-.74-1.57 1.78 1.78 0 00-1.43-.45 3.51 3.51 0 00-2.38 2 15.21 15.21 0 00-1.65 4.2 13.28 13.28 0 00-.45 4 4.05 4.05 0 00.44 1.61 1 1 0 001 .49 2.88 2.88 0 001.98-1.46z" fill="#e0e0e0"/>
  <path d="M265.19 272.88a.78.78 0 010 .28 20.65 20.65 0 01-2.42 5.08 4.36 4.36 0 01-3.2 1.93 2 2 0 01-1.72-.55 2.72 2.72 0 01-.78-1.78 10.65 10.65 0 01.23-2.63 37 37 0 01.87-3.8l1.12-4.5-1.92.2a.64.64 0 01-.47-.14.66.66 0 01-.23-.44.68.68 0 01.14-.46.61.61 0 01.44-.24l2.34-.24q.19-.75.57-2.34c.26-1.06.44-1.84.55-2.34a.59.59 0 01.57-.48.64.64 0 01.56.21.6.6 0 01.13.57c-.07.34-.22 1-.44 1.9s-.42 1.72-.58 2.35l2-.21a.62.62 0 01.47.16.64.64 0 01.23.42.6.6 0 01-.14.47.6.6 0 01-.43.23l-2.5.25-.51 2.2c-.05.15-.28 1.07-.71 2.77s-.75 3.16-.9 4a7.4 7.4 0 00-.15 2 1.46 1.46 0 00.35.91.83.83 0 00.74.26 3.41 3.41 0 002.52-1.71 19.48 19.48 0 002-4.44.68.68 0 01.57-.43 1.1 1.1 0 01.28 0 .64.64 0 01.42.54z" fill="#e0e0e0"/>
  <path d="M277.37 271.66a.78.78 0 010 .28 19.94 19.94 0 01-2.26 5.18 3.65 3.65 0 01-2.63 1.76c-1.25.12-2.05-.52-2.4-1.94a5.33 5.33 0 01-1.5 1.73 3.88 3.88 0 01-1.93.79 2.83 2.83 0 01-2.25-.58 3.37 3.37 0 01-1-2.28 8.85 8.85 0 01.29-2.72c.27-1.14.89-3.53 1.88-7.16l.38-1.36a.54.54 0 01.2-.31.69.69 0 01.34-.15.62.62 0 01.57.22.59.59 0 01.12.57l-1 3.85c-.74 2.82-1.19 4.55-1.34 5.21a5.39 5.39 0 00-.15 1.72c.13 1.25.75 1.83 1.86 1.71a2.83 2.83 0 001.78-1 7.1 7.1 0 001.4-2.47 31 31 0 00.95-3c.31-1.12.76-2.85 1.37-5.18l.48-1.89a.54.54 0 01.2-.31.7.7 0 01.93.07.55.55 0 01.13.57c-.28 1.07-.53 2.08-.77 3l-.46 1.76c-.42 1.6-.73 3-.95 4.18a9.93 9.93 0 00-.26 2.42 1.66 1.66 0 00.31.95.78.78 0 00.72.23 2.69 2.69 0 001.92-1.51 23.47 23.47 0 001.9-4.55.51.51 0 01.19-.31.67.67 0 01.34-.14 1.1 1.1 0 01.28 0 .64.64 0 01.36.66z" fill="#e0e0e0"/>
  <path d="M283.63 271a.79.79 0 010 .28 20.74 20.74 0 01-2.42 5.07 4.36 4.36 0 01-3.2 1.93 2 2 0 01-1.73-.55 2.74 2.74 0 01-.77-1.77 6.33 6.33 0 01.07-1.58c.09-.62.27-1.59.55-2.9l1.22-5 .65-2.71 1.11-4.77a.65.65 0 01.3-.39.83.83 0 01.48-.09.63.63 0 01.4.3.58.58 0 01.08.48l-1.12 4.77c-.28 1.22-.51 2.13-.67 2.74l-1.19 5a17.58 17.58 0 00-.61 4.08 1.46 1.46 0 00.36.91.84.84 0 00.74.27 3.43 3.43 0 002.52-1.71 20.26 20.26 0 002-4.45.68.68 0 01.57-.43 1.3 1.3 0 01.28 0 .62.62 0 01.38.52z" fill="#e0e0e0"/>
  <path d="M295.87 269.81a.79.79 0 010 .28v.09c-.44 1.32-.85 2.41-1.22 3.29a8.65 8.65 0 01-1.5 2.37 3.31 3.31 0 01-2.18 1.19 2 2 0 01-1.69-.54 2.81 2.81 0 01-.75-1.8c-1.05 1.83-2.23 2.8-3.54 2.94a2.16 2.16 0 01-1.95-.73 4 4 0 01-.87-2.3 14.12 14.12 0 01.48-4.81 15 15 0 012.06-4.76 4.29 4.29 0 013.06-2.19 2.81 2.81 0 012.92 1.33l.38-1.42a.54.54 0 01.2-.31.81.81 0 01.37-.15.62.62 0 01.66.8l-1.11 4.22-.24 1c-.43 1.79-.75 3.15-.94 4.09a8 8 0 00-.21 2.2 1.82 1.82 0 00.31.95.81.81 0 00.73.23 2.74 2.74 0 002.08-1.73 28.62 28.62 0 001.71-4.23v-.1a.66.66 0 01.54-.45 1.14 1.14 0 01.28 0 .6.6 0 01.42.54zm-9.08 5.19a12.43 12.43 0 001.46-2.89q.57-1.62 1.23-3.93l.53-2a2.4 2.4 0 00-.74-1.56 1.8 1.8 0 00-1.42-.46 3.48 3.48 0 00-2.38 2 15.21 15.21 0 00-1.65 4.2 12.87 12.87 0 00-.45 3.95 4 4 0 00.44 1.62.93.93 0 001 .48 2.82 2.82 0 001.98-1.41z" fill="#e0e0e0"/>
  <path d="M302.19 269.18a.79.79 0 010 .28 20.56 20.56 0 01-2.42 5.07 4.36 4.36 0 01-3.2 1.93 2.07 2.07 0 01-1.73-.54 2.79 2.79 0 01-.77-1.78 11 11 0 01.22-2.63 36 36 0 01.88-3.8l1.11-4.5-1.91.19a.6.6 0 01-.47-.14.6.6 0 01-.23-.43.6.6 0 01.14-.46.59.59 0 01.43-.25l2.34-.23c.14-.51.33-1.29.58-2.34l.55-2.35a.59.59 0 01.56-.48.62.62 0 01.56.22.58.58 0 01.14.57c-.07.33-.22 1-.44 1.9s-.42 1.71-.58 2.34l2-.2a.6.6 0 01.48.15.64.64 0 01.09.9.61.61 0 01-.44.22l-2.49.25-.51 2.2c-.05.15-.29 1.07-.71 2.77s-.75 3.17-.9 4a8 8 0 00-.16 1.95 1.52 1.52 0 00.35.91.86.86 0 00.75.27 3.43 3.43 0 002.52-1.71 20 20 0 002-4.45.68.68 0 01.57-.43 1.3 1.3 0 01.28 0 .64.64 0 01.41.6z" fill="#e0e0e0"/>
  <path d="M307.64 268.28a.64.64 0 01.14.34.79.79 0 010 .28 25.19 25.19 0 01-2.14 5 3.68 3.68 0 01-2.81 2 2 2 0 01-1.67-.53 2.53 2.53 0 01-.76-1.65 15.46 15.46 0 01.54-4.52c.47-2 1.09-4.48 1.89-7.39a.53.53 0 01.19-.34.67.67 0 01.34-.14.75.75 0 01.49.11.5.5 0 01.24.4v.25l-.57 2.3q-1.31 5.34-1.6 6.77a7.77 7.77 0 00-.22 2.28 1.74 1.74 0 00.31.95.79.79 0 00.73.23 2.73 2.73 0 002.07-1.69 31.77 31.77 0 001.77-4.37.68.68 0 01.57-.46h.25a.58.58 0 01.24.18zm-4-8.91a1 1 0 01-.39-.7 1 1 0 01.24-.76 1 1 0 01.72-.38 1 1 0 01.75.23 1 1 0 01.38.7 1 1 0 01-.23.76 1 1 0 01-.7.37 1 1 0 01-.73-.22z" fill="#e0e0e0"/>
  <path d="M317.85 271.28a3.5 3.5 0 01-2.37 1.32 3.54 3.54 0 01-2.39-.59 9.2 9.2 0 01-1.81 2.19 3.7 3.7 0 01-2 1c-1.77.18-2.75-.76-2.95-2.8a15.67 15.67 0 011.77-8.37 8 8 0 011.79-2.59 3.81 3.81 0 012.17-1 3 3 0 012.34.7 3.37 3.37 0 011 2.25 11.46 11.46 0 01-.31 3.51 18.62 18.62 0 01-1.33 4 1.85 1.85 0 001.61.49 2.46 2.46 0 001.69-1.08 9.44 9.44 0 001.35-2.94.5.5 0 01.2-.31.61.61 0 01.33-.14.68.68 0 01.74.57 1.28 1.28 0 010 .25 10.74 10.74 0 01-1.83 3.54zm-4.85-3.57a.58.58 0 01.14.55c0 .13 0 .26-.05.41v.3a16 16 0 00.83-3 9.88 9.88 0 00.15-2.57 2 2 0 00-.64-1.39 1.78 1.78 0 00-1.34-.37 2.47 2.47 0 00-1.56.86 7.4 7.4 0 00-1.31 2 14.46 14.46 0 00-1.66 7.62c.12 1.23.63 1.81 1.52 1.72a2.78 2.78 0 001.61-.92 9.59 9.59 0 001.53-2.07 3.86 3.86 0 01-.39-1.43 5.45 5.45 0 010-1.45.51.51 0 01.17-.37.76.76 0 01.42-.18.61.61 0 01.58.29z" fill="#e0e0e0"/>
  <path d="M331.78 266.21a1.23 1.23 0 010 .28 22.27 22.27 0 01-2.31 5.22 3.58 3.58 0 01-2.61 1.72 2 2 0 01-1.69-.54 2.87 2.87 0 01-.75-1.79 7.6 7.6 0 01.11-2.1c.14-.75.35-1.65.64-2.7s.5-2 .62-2.64a6.72 6.72 0 00.1-1.82 1.41 1.41 0 00-1.74-1.42c-.83.08-1.68.9-2.53 2.44a20.89 20.89 0 00-1.93 4.75l-1.53 6.23a.59.59 0 01-.28.41.76.76 0 01-.5.1.7.7 0 01-.39-.28.58.58 0 01-.08-.5l1.74-7.08 1.62-6.51a.59.59 0 01.56-.49.62.62 0 01.56.22.58.58 0 01.14.57l-.18.63a4.05 4.05 0 012.67-1.77 2.54 2.54 0 013.14 2.57 7.36 7.36 0 01-.1 2c-.14.72-.35 1.71-.66 2.94-.26 1-.46 1.88-.59 2.55a6.11 6.11 0 00-.11 1.76 1.63 1.63 0 00.31.95.77.77 0 00.73.23 2.61 2.61 0 001.86-1.46 26 26 0 001.95-4.59.65.65 0 01.53-.46 1.16 1.16 0 01.28 0 .6.6 0 01.42.58z" fill="#e0e0e0"/>
  <path d="M339.68 269.57a5.2 5.2 0 01-1.81 2.08 5.86 5.86 0 01-2.72 1 4.62 4.62 0 01-2.36-.37 4.53 4.53 0 01-1.83-1.44 4.24 4.24 0 01-.84-2.17 5.38 5.38 0 01.91-3.42 3.71 3.71 0 012.76-1.52 2.67 2.67 0 012.11.69 3.37 3.37 0 011.12 2.09.64.64 0 01-.14.47.66.66 0 01-.44.23.63.63 0 01-.7-.58 1.94 1.94 0 00-.64-1.22 1.5 1.5 0 00-1.1-.41 2.54 2.54 0 00-1.91 1.12 3.85 3.85 0 00-.65 2.42 3 3 0 001.2 2.17 3.37 3.37 0 002.43.66 4.31 4.31 0 002.94-1.43 4.08 4.08 0 00.93-3.13 5.49 5.49 0 00-.61-1.83c-.33-.59-1-1.59-2-3a6.56 6.56 0 00-.54.76.6.6 0 01-.46.29.64.64 0 01-.74-.6.77.77 0 01.11-.41c.33-.46.63-.87.92-1.23a5.14 5.14 0 01-.65-2 3.33 3.33 0 01.45-2.12 1.91 1.91 0 011.47-1 1.31 1.31 0 011.07.34 2 2 0 01.55 1.1 4.08 4.08 0 01-.29 1.85 8.1 8.1 0 01-1.05 1.93l.86 1.26a24.34 24.34 0 011.59 2.52 6 6 0 01.59 2 5.68 5.68 0 01-.53 2.9zM337 258.34a2.68 2.68 0 00.16-1.13c0-.21-.09-.3-.21-.29s-.26.12-.43.32a1.83 1.83 0 00-.32 1.38 3.69 3.69 0 00.25 1 6 6 0 00.55-1.28z" fill="#e0e0e0"/>
  <path d="M355.73 320.34l-181.07 18.14a3 3 0 01-3.25-2.66l-3.07-30.7a3 3 0 012.65-3.25l181.07-18.14a3 3 0 013.25 2.66l3.08 30.7a3 3 0 01-2.66 3.25z" fill="#f0f0f0"/>
  <path d="M201.42 320.57a4 4 0 01-.82 3.26 3.33 3.33 0 01-1.67 1L199 326l-2 .2-.12-1.15a3.43 3.43 0 01-2.34-1.45 5.86 5.86 0 01-1-2.54l2.24-.39a3.41 3.41 0 00.9 1.9 1.2 1.2 0 001 .33 1.46 1.46 0 001.16-.88 1.9 1.9 0 00.13-1.06 2.93 2.93 0 00-1.06-1.84l-2.31-1.77a8.77 8.77 0 01-1.76-1.74 4.58 4.58 0 01-.84-2.27 4.21 4.21 0 01.35-2.26 3.13 3.13 0 011.92-1.78l-.1-1 2-.2.1 1a3.35 3.35 0 011.65.64 4 4 0 011.49 2.56l-2.23.63a2.82 2.82 0 00-.7-1.45 1.11 1.11 0 00-1-.28 1.09 1.09 0 00-.93.67 2.33 2.33 0 00-.16 1.18 3.59 3.59 0 001.15 2.1 9.19 9.19 0 001.13.88 14.19 14.19 0 011.19.85 8.75 8.75 0 011.51 1.58 4.85 4.85 0 011.05 2.11zm5.66 3.48l-1.2-12-2 .2-.16-1.64a3.57 3.57 0 001.55-.81 3.26 3.26 0 001-1.42l1.64-.17 1.57 15.63zm11.54-4.76a3.75 3.75 0 11-7.47.75l-.85-8.53a3.57 3.57 0 01.83-2.75 3.74 3.74 0 016.63 2zm-3.31-8.29a1.36 1.36 0 00-1.49-1.22 1.32 1.32 0 00-.92.49 1.35 1.35 0 00-.29 1l.85 8.54a1.34 1.34 0 00.49.92 1.36 1.36 0 002.22-1.19zm12.8 7.34a3.55 3.55 0 01-.83 2.75 3.74 3.74 0 01-6.63-2l-.86-8.53a3.74 3.74 0 013.37-4.11 3.56 3.56 0 012.75.83 3.61 3.61 0 011.35 2.53zm-3.3-8.33a1.34 1.34 0 00-.49-.92 1.37 1.37 0 00-1.92.19 1.34 1.34 0 00-.29 1l.85 8.54a1.34 1.34 0 00.49.92 1.36 1.36 0 001.91-.19 1.35 1.35 0 00.31-1zm12.8 7.38a3.75 3.75 0 01-7.47.75l-.85-8.53a3.74 3.74 0 013.37-4.11 3.57 3.57 0 012.75.83 3.69 3.69 0 011.35 2.53zm-3.3-8.33a1.37 1.37 0 00-1.5-1.22 1.28 1.28 0 00-.91.49 1.39 1.39 0 00-.3 1l.86 8.54a1.34 1.34 0 00.49.92 1.28 1.28 0 001 .3 1.36 1.36 0 001.22-1.49zm5.04 9.39l2.36-.24.23 2.36-2.35.23zm11.32-2.37a3.55 3.55 0 01-.83 2.75 3.74 3.74 0 01-6.63-2l-.86-8.53a3.74 3.74 0 013.37-4.11 3.56 3.56 0 012.75.83 3.61 3.61 0 011.35 2.53zm-3.3-8.33a1.34 1.34 0 00-.49-.92 1.37 1.37 0 00-1.88.17 1.34 1.34 0 00-.29 1l.85 8.54a1.34 1.34 0 00.49.92 1.36 1.36 0 001.91-.19 1.35 1.35 0 00.31-1zm12.8 7.38a3.75 3.75 0 01-7.47.75l-.85-8.53a3.74 3.74 0 013.37-4.11 3.57 3.57 0 012.75.83 3.69 3.69 0 011.35 2.53zm-3.3-8.33a1.37 1.37 0 00-1.5-1.22 1.28 1.28 0 00-.91.49 1.39 1.39 0 00-.3 1l.86 8.54a1.34 1.34 0 00.49.92 1.28 1.28 0 001 .3 1.36 1.36 0 001.22-1.49zm12.8 7.38a3.75 3.75 0 01-7.47.75l-.85-8.53a3.76 3.76 0 016.12-3.28 3.64 3.64 0 011.34 2.53zm-3.3-8.33a1.39 1.39 0 00-1.5-1.23 1.31 1.31 0 00-.91.5 1.29 1.29 0 00-.3 1l.86 8.54a1.3 1.3 0 00.49.92 1.27 1.27 0 001 .3 1.34 1.34 0 00.92-.49 1.31 1.31 0 00.3-1zm5.04 9.39l2.36-.24.23 2.36-2.35.23zm11.32-2.37a3.55 3.55 0 01-.83 2.75 3.76 3.76 0 01-5.28.52 3.57 3.57 0 01-1.35-2.52l-.86-8.53a3.74 3.74 0 013.37-4.11 3.57 3.57 0 012.75.83 3.69 3.69 0 011.35 2.53zm-3.3-8.33a1.37 1.37 0 00-1.5-1.22 1.28 1.28 0 00-.91.49 1.39 1.39 0 00-.3 1l.86 8.54a1.34 1.34 0 00.49.92 1.28 1.28 0 001 .3 1.36 1.36 0 001.22-1.49zm12.8 7.38a3.75 3.75 0 01-7.47.75l-.85-8.53a3.76 3.76 0 016.12-3.28 3.64 3.64 0 011.34 2.53zm-3.3-8.33a1.39 1.39 0 00-1.5-1.23 1.31 1.31 0 00-.91.5 1.29 1.29 0 00-.3 1l.86 8.54a1.3 1.3 0 00.49.92 1.27 1.27 0 001 .3 1.34 1.34 0 00.92-.49 1.31 1.31 0 00.3-1zm12.8 7.41a3.75 3.75 0 11-7.47.74l-.85-8.52a3.58 3.58 0 01.83-2.76 3.66 3.66 0 012.53-1.36 3.76 3.76 0 014.1 3.37zm-3.31-8.33a1.26 1.26 0 00-.49-.92 1.35 1.35 0 00-1-.31 1.31 1.31 0 00-.91.5 1.29 1.29 0 00-.3 1l.85 8.53a1.38 1.38 0 00.49.93 1.33 1.33 0 001 .3 1.31 1.31 0 00.92-.5 1.29 1.29 0 00.3-1zm5.05 9.33l2.35-.24.24 2.36-2.35.23zm11.32-2.34a3.75 3.75 0 01-7.47.75l-.85-8.53a3.76 3.76 0 016.12-3.28 3.64 3.64 0 011.34 2.53zm-3.3-8.33a1.39 1.39 0 00-1.5-1.23 1.31 1.31 0 00-.91.5 1.29 1.29 0 00-.3 1l.86 8.54a1.3 1.3 0 00.49.92 1.27 1.27 0 001 .3 1.34 1.34 0 00.92-.49 1.31 1.31 0 00.3-1zm12.8 7.38a3.75 3.75 0 11-7.47.74l-.85-8.52a3.58 3.58 0 01.83-2.76 3.66 3.66 0 012.53-1.36 3.76 3.76 0 014.1 3.37zm-3.29-8.33a1.26 1.26 0 00-.49-.92 1.35 1.35 0 00-1-.31 1.31 1.31 0 00-.91.5 1.29 1.29 0 00-.3 1l.85 8.53a1.38 1.38 0 00.49.93 1.33 1.33 0 001 .3 1.31 1.31 0 00.92-.5 1.29 1.29 0 00.3-1zm12.78 7.37a3.58 3.58 0 01-.83 2.76 3.76 3.76 0 01-5.28.52 3.59 3.59 0 01-1.35-2.53l-.86-8.52a3.75 3.75 0 016.12-3.28 3.59 3.59 0 011.35 2.53zm-3.3-8.33a1.34 1.34 0 00-.49-.92 1.36 1.36 0 00-1-.3 1.29 1.29 0 00-.92.5 1.31 1.31 0 00-.29 1l.85 8.54a1.35 1.35 0 002.4.73 1.34 1.34 0 00.31-1zM82.28 156.06c-3.63 0-7.51-1-10.09-4.58-2.71-3.75-2.59-7.31-1.41-9.85a13.61 13.61 0 01-2-2 7.93 7.93 0 01-1.41-8.27 8.86 8.86 0 011-1.79c-4.12-3.07-5.88-7.46-4.77-12.17a9.38 9.38 0 011.59-3.57c-4-8.22.34-22.49.53-23.13l1.92.58c0 .15-4 13.45-.93 21.06a7.35 7.35 0 015.72-1c3.49.67 7.4 3.47 7 5.93-.19 1.27-1.44 2.67-6.29 2.14a9.46 9.46 0 01-6.84-3.7 8.64 8.64 0 00-.79 2.15c-1.19 5.06 1.64 8.35 4.15 10.19a8.5 8.5 0 014.65-2.29 6 6 0 015.81 2.63c1.35 1.86.79 3 .34 3.55-1.58 1.84-6.07 1-9.5-.75-.33-.16-.65-.34-1-.52a7.94 7.94 0 00-.78 1.43 6 6 0 001.1 6.26 12.17 12.17 0 001.51 1.53l.22-.27c2.13-2.39 5.31-3.12 7.75-1.77 1.81 1 2 2.27 1.89 2.93a3.67 3.67 0 01-2.88 2.79 8.55 8.55 0 01-6.36-.86c-.83 2-.77 4.66 1.34 7.56 5 6.92 16.88 2.09 17 2l.77 1.85a26.85 26.85 0 01-9.24 1.94zm-8.76-15a6.49 6.49 0 004.74.64c.91-.27 1.42-.76 1.46-1.09s-.31-.64-.88-1c-1.63-.91-3.75-.36-5.27 1.35zm-2.1-11.84l.47.24c3.51 1.78 6.57 1.81 7.07 1.23.06-.07 0-.43-.44-1.09a4.07 4.07 0 00-4-1.8 6.21 6.21 0 00-3.1 1.4zm-3.78-15a7.45 7.45 0 005.73 3.31c3.26.35 4.08-.28 4.1-.45.11-.74-2.13-3-5.43-3.67a5.3 5.3 0 00-4.4.74zm-16.31 43.95c-5.24-1.69-7.71-7.59-7.79-12.36a12.87 12.87 0 01.59-4.24 11.21 11.21 0 01-1.77-9.19 12.54 12.54 0 011.64-4.12 16.47 16.47 0 01.14-8.8 11.12 11.12 0 011.92-3.87c-.16-8.18 10.67-18 11.21-18.46l1.33 1.49c-.11.11-9.2 8.34-10.42 15.26a5.38 5.38 0 017.49 4.22 4.56 4.56 0 01-2.67 4.75c-1.1.37-3.28.48-5.63-3a7.78 7.78 0 01-.71-1.33 11.2 11.2 0 00-.58 1.55 15.54 15.54 0 00-.44 6.38 5.15 5.15 0 013-1.3 4.39 4.39 0 014.4 2.54 4.23 4.23 0 01-.62 4.62c-1.13 1.17-2.91 1.38-4.9.57a5.47 5.47 0 01-2.52-2.29 11.22 11.22 0 00-.72 2.21 9.47 9.47 0 00.79 6.67 6.57 6.57 0 013.29-2.71c2.22-.8 4.2-.31 5.29 1.3a4.56 4.56 0 01-.32 5.45c-.67.75-2.64 2.31-6.41.36a9.07 9.07 0 01-1.18-.73 11.9 11.9 0 00-.24 2.64c.07 4.08 2.1 9.1 6.4 10.49zm-4.87-17a7.06 7.06 0 001.42 1c1.8.93 3.22 1 4 .09a2.58 2.58 0 00.15-3c-.56-.83-1.61-1-3-.54a4.74 4.74 0 00-2.57 2.41zm-.21-12.51a4.12 4.12 0 002.07 2.34c1.21.49 2.17.45 2.71-.1a2.28 2.28 0 00.24-2.42 2.4 2.4 0 00-2.48-1.36 3.76 3.76 0 00-2.54 1.5zm1.89-12.3a5.74 5.74 0 00.9 2.37c1.16 1.73 2.4 2.58 3.32 2.27a2.7 2.7 0 001.35-2.71 3 3 0 00-2.78-2.77 3.12 3.12 0 00-2.79.8z" fill="#e0e0e0"/>
  <path d="M97.08 97.43C78.34 117.66 51 83.37 63 67.32s53.1 9.57 34.08 30.11z" fill="#e0e0e0"/>
  <path d="M60.5 112c-27.38-3.35-15.61-45.62 4.44-45.3s23.34 48.66-4.44 45.3z" fill="#ebebeb"/>
  <path d="M270.74 71.67c-11.74 12.69-28.92-8.81-21.4-18.87s33.32 6 21.4 18.87z" fill="#e0e0e0"/>
  <path d="M229.72 71.67c11.75 12.69 28.92-8.81 21.4-18.87s-33.32 6-21.4 18.87z" fill="#e0e0e0"/>
  <path d="M253.32 80.12c17.16-2.1 9.78-28.6-2.78-28.39s-14.64 30.52 2.78 28.39z" fill="#ebebeb"/>
  <path d="M415.69 156.06a26.85 26.85 0 01-9.3-1.87l.76-1.85c.12 0 12 4.88 17-2 2.1-2.9 2.17-5.58 1.34-7.56a8.55 8.55 0 01-6.36.86 3.67 3.67 0 01-2.88-2.79c-.07-.66.08-1.92 1.89-2.93 2.44-1.35 5.62-.62 7.75 1.77l.22.27a12.13 12.13 0 001.5-1.53 6 6 0 001.1-6.26 7.32 7.32 0 00-.77-1.43c-.31.18-.63.36-1 .52-3.43 1.74-7.92 2.6-9.5.75-.45-.52-1-1.69.34-3.55a6 6 0 015.81-2.63 8.53 8.53 0 014.65 2.29c2.51-1.84 5.34-5.13 4.14-10.19a8.65 8.65 0 00-.78-2.15 9.48 9.48 0 01-6.84 3.7c-4.86.54-6.1-.87-6.29-2.14-.37-2.46 3.54-5.26 7-5.93a7.35 7.35 0 015.72 1c3.11-7.61-.88-20.91-.93-21.06l1.91-.58c.2.64 4.49 14.91.54 23.13a9.38 9.38 0 011.59 3.57c1.11 4.71-.66 9.1-4.77 12.17a8.86 8.86 0 011 1.79 7.93 7.93 0 01-1.41 8.27 13.17 13.17 0 01-2 2c1.19 2.54 1.31 6.1-1.4 9.85-2.52 3.45-6.41 4.51-10.03 4.51zm5.14-16.86a3.53 3.53 0 00-1.71.43c-.56.32-.9.68-.87 1s.55.82 1.46 1.09a6.49 6.49 0 004.74-.64l-.05-.06a4.88 4.88 0 00-3.57-1.82zm2-11.46a4.07 4.07 0 00-3.39 1.84c-.47.66-.5 1-.44 1.09.49.58 3.56.55 7.07-1.23l.47-.24a6.25 6.25 0 00-3.15-1.42 4.92 4.92 0 00-.55-.04zm4.51-14.55a7.27 7.27 0 00-1.42.15c-3.3.63-5.55 2.93-5.43 3.67 0 .17.83.8 4.1.45a7.45 7.45 0 005.73-3.31 4.73 4.73 0 00-2.97-.96zm19.3 44.98l-.62-1.9c4.31-1.39 6.34-6.41 6.41-10.49a11.9 11.9 0 00-.24-2.64 9.8 9.8 0 01-1.18.73c-3.77 1.95-5.74.39-6.41-.36a4.56 4.56 0 01-.32-5.45c1.09-1.61 3.07-2.1 5.29-1.3a6.57 6.57 0 013.29 2.71 9.52 9.52 0 00.79-6.67 10.61 10.61 0 00-.73-2.21 5.4 5.4 0 01-2.52 2.24c-2 .81-3.77.6-4.9-.57a4.23 4.23 0 01-.62-4.62 4.39 4.39 0 014.4-2.54 5.14 5.14 0 013 1.29 15.33 15.33 0 00-.43-6.37 12.66 12.66 0 00-.58-1.55 7.78 7.78 0 01-.71 1.33c-2.35 3.53-4.53 3.43-5.63 3a4.56 4.56 0 01-2.69-4.75 5.38 5.38 0 017.49-4.22c-1.22-6.92-10.31-15.15-10.43-15.26l1.34-1.49c.54.49 11.36 10.28 11.21 18.46a11.12 11.12 0 011.92 3.87 16.57 16.57 0 01.14 8.8 12.54 12.54 0 011.67 4.12 11.21 11.21 0 01-1.77 9.19 12.87 12.87 0 01.59 4.24c-.05 4.82-2.52 10.72-7.76 12.41zm.92-19.79a1.84 1.84 0 00-1.62.8 2.58 2.58 0 00.15 3c.78.87 2.2.84 4-.09a7.06 7.06 0 001.42-1 4.77 4.77 0 00-2.62-2.49 4.05 4.05 0 00-1.33-.22zm1.44-11.29a2.33 2.33 0 00-2.29 1.37 2.26 2.26 0 00.24 2.42c.54.55 1.5.59 2.7.1a4.05 4.05 0 002.07-2.36 3.72 3.72 0 00-2.53-1.52zm-1.33-11.67a3.34 3.34 0 00-.62.06 3 3 0 00-2.78 2.77 2.7 2.7 0 001.35 2.71c.92.31 2.16-.54 3.32-2.27a5.74 5.74 0 00.9-2.37 3.15 3.15 0 00-2.18-.9z" fill="#e0e0e0"/>
  <path d="M402.38 97.43c18.74 20.23 46.12-14.06 34.13-30.11s-53.15 9.57-34.13 30.11z" fill="#e0e0e0"/>
  <path d="M439 112c27.38-3.35 15.61-45.62-4.44-45.3S411.18 115.36 439 112z" fill="#ebebeb"/>
  <path fill="#f0f0f0" d="M271.38 137.28l-3.97 5.15 7.93 3.57-3.96-8.72zm25.71 107.56l5.1-4.03-6.81-5.4 1.71 9.43zm-64.11-113.79l-.38-6.49-8.33 2.5 8.71 3.99zm24.12 106.59l-3.97 5.15 7.93 3.57-3.96-8.72zm-5.56-69.42l6.35.39-.79 7.14-7.54-1.98 1.98-5.55zm20.8 42.63l-3.01 5.6-6.16-3.7 4.95-6.02 4.22 4.12zm-39.43 42.48l6.35.4-.79 7.14-7.54-1.99 1.98-5.55zm53.14-74.8l4 .79s-5.95 4-3.17 7.15-2 5.95-2 5.95l-3.59-2.42s3.18-2.38 1.59-5.56 3.17-5.91 3.17-5.91zm8.11-51.75l-3.64 5.39 8.14 3.08-4.5-8.47zm29.22-14.25l2.21-6.11-8.64-1 6.43 7.11zm-1.65 24.36l1.17-6.26 6.99 1.66-2.88 7.24-5.28-2.64zm6.77 33.9l-4 .44s4.47-5.58.86-7.76.08-6.27.08-6.27l4.12 1.18s-2.3 3.23.18 5.77-1.24 6.64-1.24 6.64zm-66.32 100.98l4 .79s-5.95 4-3.17 7.14-2 5.95-2 5.95l-3.57-2.38s3.18-2.38 1.59-5.55 3.15-5.95 3.15-5.95zm57.16-13.56l-3.97 5.16 7.94 3.57-3.97-8.73zm14.04-44.75l6.34.4-.79 7.14-7.54-1.98 1.99-5.56zM292 269.53l4 .8s-5.95 4-3.17 7.14-2 5.95-2 5.95l-3.59-2.42s3.17-2.38 1.58-5.56 3.18-5.91 3.18-5.91zm-29.32-150.16l-2.49.59s1.06-5.29-2-7.12-2-5.72-2-5.72l3.1.9a6.34 6.34 0 002.05 5.26c2.4 2.21 1.34 6.09 1.34 6.09zm-27.04 96.31l-3.74 1.52s2.78-6.59-1.28-7.71-1.62-6.06-1.62-6.06h4.29S232 207.19 235 209s.64 6.68.64 6.68zm-16.23-38.54a3 3 0 11-3-3 3 3 0 013 3zm76.08-72.75a3 3 0 11-3-3 3 3 0 013 3zm-94.02 24.81l-4.74 4.46 7.27 4.79-2.53-9.25zm-14.42 109.21l3.15-5.69-8.38-2.35 5.23 8.04zm-39.67 8.81l-1.67 6.28 8.7.23-7.03-6.51zm3.71-30.61l-.61 6.33-7.11-1.03 2.23-7.46 5.49 2.16zm29.7-33.52l4-.8s-3.95 6-.16 7.81.47 6.26.47 6.26l-4.22-.82s2-3.42-.68-5.73.59-6.72.59-6.72zm-31.55-3.92l3.5-5.49-8.22-2.86 4.72 8.35zm23.12-23.83l-6.36.16.16-7.18 7.68 1.31-1.48 5.71zm-5.85-41.99l-4-.44s5.57-4.47 2.53-7.39 1.45-6.1 1.45-6.1l3.77 2s-3 2.65-1.1 5.68-2.65 6.25-2.65 6.25zm33.21 147.89a3 3 0 113.22 2.7 3 3 0 01-3.22-2.7z"/>
  <path d="M64.89 226.23a9.72 9.72 0 01-11.31-5l-5.28-10.45 2.7-1.35 5.28 10.42a6.76 6.76 0 009 3.06l9.12-4.34a6.8 6.8 0 003.38-8.68l-2-5 2.78-1.12 2 5a9.8 9.8 0 01-4.87 12.52l-9.13 4.34a11 11 0 01-1.67.6z" fill="#e6e6e6"/>
  <path fill="#f0f0f0" d="M100.46 195.01l-5.32 2.4-1.92.88-5.88 2.66-1.93.87-5.59 2.53-1.94.88-5.17 2.34-1.96.89-4.96 2.24-1.94.88-4.97 2.24-1.93.88-4.99 2.26-1.91.86-1.38.62-5.55-6.67 4.08-8.17 1.46-2.91 3.91-7.83 1.46-2.91 3.92-7.82 1.45-2.91 3.91-7.84 1.47-2.91 3.15-6.3 1.65 1.67 2.56 2.58 7.73 7.82 2.58 2.59 8.11 8.2 2.6 2.62 7.3 7.36z"/>
  <path fill="#e6e6e6" d="M43.12 211.77l-5.31 2.57 7.6 9.11 3.26-5.01-5.55-6.67zm5.54-11.08l3.3 16.27-1.91.86-2.85-14.22 1.46-2.91zm5.37-10.74l4.85 23.87-1.93.88-4.38-21.84 1.46-2.91zm5.37-10.73l6.39 31.48-1.94.88-5.9-29.45 1.45-2.91zm5.38-10.75l7.93 39.1-1.96.89-7.44-37.08 1.47-2.91zm7.36-2.05l7.68 37.93-1.94.88-8.3-41.39 2.56 2.58zm10.31 10.41l4.89 24.12-1.93.87-5.54-27.58 2.58 2.59zm10.71 10.82l1.98 9.76-1.92.88-2.66-13.26 2.6 2.62zM75.91 157.9l2.7-17.86 3.55.93-6.25 16.93zm12.38 4.64l15.15-23.79 4.52 3.95-19.67 19.84zm10.88 10.11l22.75-14.67 2.1 5.58-24.85 9.09zm2.73 8.82l25.56-2.58.08 6.68-25.64-4.1zM66.89 311a9.71 9.71 0 01-7.43-9.89l.46-11.68 3 .12-.46 11.68a6.77 6.77 0 006.35 7l10.08.65a6.8 6.8 0 007.17-5.88l.66-5.37 3 .37-.72 5.36a9.79 9.79 0 01-10.35 8.57l-10.08-.65a9.78 9.78 0 01-1.68-.28z"/>
  <path fill="#f0f0f0" d="M113.16 301.07l-5.82-.49-2.1-.17-6.43-.54-2.11-.18-6.11-.51-2.13-.17-5.66-.48-2.14-.18-5.42-.46-2.13-.17-5.43-.46-2.11-.17-5.46-.46-2.09-.17-1.51-.13-1.59-8.54 7.54-5.14 2.68-1.84 7.24-4.93 2.69-1.83 7.22-4.92 2.69-1.84 7.24-4.94 2.69-1.84 5.82-3.96.63 2.26.98 3.5 2.95 10.59.99 3.52 3.1 11.11.99 3.56 2.79 9.98z"/>
  <path fill="#e6e6e6" d="M54.91 287.79l-5.88-.34 2.2 11.66 5.28-2.79-1.6-8.53zm10.23-6.98l-5.03 15.82-2.09-.17 4.44-13.81 2.68-1.84zm9.93-6.76l-7.39 23.21-2.11-.17 6.81-21.21 2.69-1.83zm9.91-6.76l-9.74 30.6-2.13-.17 9.18-28.59 2.69-1.84zm9.93-6.78L82.8 298.53l-2.14-.18 11.56-36 2.69-1.84zm7.43 1.8l-11.75 36.87-2.13-.17 12.9-40.2.98 3.5zm3.94 14.11l-7.47 23.45-2.11-.18 8.59-26.79.99 3.52zm4.09 14.67l-3.03 9.49-2.1-.17 4.14-12.88.99 3.56zm-.58-34.38l11.05-14.29 2.64 2.54-13.69 11.75zm8.55 10.07l24.81-13.39 2.03 5.64-26.84 7.75zm4.58 14.14l27.02-1.74-.89 5.89-26.13-4.15zm-1.91 9.03l23.58 10.18-3.18 5.88-20.4-16.06zm308.84-63.72a9.74 9.74 0 0011.32-5l5.28-10.42-2.68-1.35-5.28 10.42a6.75 6.75 0 01-9 3.06l-9.12-4.34a6.79 6.79 0 01-3.38-8.68l2-5-2.78-1.12-2 5a9.79 9.79 0 004.87 12.52l9.12 4.34a11.4 11.4 0 001.65.57z"/>
  <path fill="#f0f0f0" d="M394.29 195.01l5.32 2.4 1.92.88 5.88 2.66 1.93.87 5.58 2.53 1.95.88 5.17 2.34 1.95.89 4.96 2.24 1.95.88 4.97 2.24 1.93.88 4.98 2.26 1.91.86 1.39.62 5.55-6.67-4.09-8.17-1.45-2.91-3.92-7.83-1.46-2.91-3.91-7.82-1.45-2.91-3.92-7.84-1.46-2.91-3.15-6.3-1.66 1.67-2.55 2.58-7.74 7.82-2.57 2.59-8.12 8.2-2.59 2.62-7.3 7.36z"/>
  <path fill="#e6e6e6" d="M451.63 211.77l5.31 2.57-7.6 9.11-3.26-5.01 5.55-6.67zm-5.54-11.08l-3.31 16.27 1.91.86 2.85-14.22-1.45-2.91zm-5.38-10.74l-4.84 23.87 1.93.88 4.37-21.84-1.46-2.91zm-5.36-10.73l-6.4 31.48 1.95.88 5.9-29.45-1.45-2.91zm-5.38-10.75l-7.93 39.1 1.95.89 7.44-37.08-1.46-2.91zm-7.36-2.05l-7.69 37.93 1.95.88 8.29-41.39-2.55 2.58zm-10.31 10.41l-4.89 24.12 1.93.87 5.53-27.58-2.57 2.59zm-10.71 10.82l-1.98 9.76 1.92.88 2.65-13.26-2.59 2.62zm17.24-29.75l-2.7-17.86-3.54.93 6.24 16.93zm-12.37 4.64l-15.15-23.79-4.52 3.95 19.67 19.84zm-10.89 10.11l-22.75-14.67-2.09 5.58 24.84 9.09zm-2.72 8.82l-25.56-2.58-.08 6.68 25.64-4.1zm35 129.53a9.72 9.72 0 007.44-9.89l-.46-11.68-3 .12.46 11.68a6.75 6.75 0 01-6.34 7l-10.09.65a6.79 6.79 0 01-7.17-5.94l-.67-5.37-3 .37.66 5.36a9.78 9.78 0 0010.35 8.57l10.08-.65a9.53 9.53 0 001.74-.22z"/>
  <path fill="#f0f0f0" d="M381.59 301.07l5.82-.49 2.1-.17 6.43-.54 2.11-.18 6.11-.51 2.13-.17 5.65-.48 2.14-.18 5.43-.46 2.12-.17 5.44-.46 2.11-.17 5.45-.46 2.09-.17 1.51-.13 1.6-8.54-7.54-5.14-2.69-1.84-7.23-4.93-2.7-1.83-7.22-4.92-2.69-1.84-7.23-4.94-2.7-1.84-5.81-3.96-.64 2.26-.97 3.5-2.96 10.59-.99 3.52-3.09 11.11-.99 3.56-2.79 9.98z"/>
  <path fill="#e6e6e6" d="M439.83 287.79l5.89-.34-2.2 11.66-5.29-2.79 1.6-8.53zm-10.23-6.98l5.03 15.82 2.09-.17-4.43-13.81-2.69-1.84zm-9.93-6.76l7.4 23.21 2.11-.17-6.81-21.21-2.7-1.83zm-9.91-6.76l9.75 30.6 2.12-.17-9.18-28.59-2.69-1.84zm-9.93-6.78l12.11 38.02 2.14-.18-11.55-36-2.7-1.84zm-7.42 1.8l11.75 36.87 2.13-.17-12.91-40.2-.97 3.5zm-3.95 14.11l7.48 23.45 2.11-.18-8.6-26.79-.99 3.52zm-4.08 14.67l3.03 9.49 2.1-.17-4.14-12.88-.99 3.56zm.58-34.38l-11.06-14.29-2.64 2.54 13.7 11.75zm-8.55 10.07l-24.82-13.39-2.02 5.64 26.84 7.75zm-4.59 14.14l-27.01-1.74.88 5.89 26.13-4.15zm1.92 9.03l-23.59 10.18 3.19 5.88 20.4-16.06z"/>
  <ellipse cx="250" cy="416.24" rx="193.89" ry="11.32" fill="#f5f5f5"/>
  <path fill="#263238" d="M95.68 248.33l5.252-.914 24.502 140.682-5.25.915z"/>
  <path style="isolation:isolate" fill="#fff" opacity=".2" d="M95.68 248.33l5.252-.914 24.502 140.682-5.25.915z"/>
  <circle cx="95.24" cy="231.98" r="29.27" transform="rotate(-64.92 95.241 231.982)" fill="#34a37e"/>
  <circle cx="95.24" cy="231.98" r="29.27" transform="rotate(-64.92 95.241 231.982)" style="isolation:isolate" fill="#fff" opacity=".6"/>
  <circle cx="95.24" cy="231.98" r="27.07" transform="rotate(-53.55 95.242 231.99)" fill="#34a37e"/>
  <path d="M79.43 234.54l7.6-2s.49-5.79-2.37-17.61a14.58 14.58 0 014-.87c1.37.07 5 13.14 5 13.14s13.53-4.21 14.41-3.8c.56.26 1.16 2.28 1.52 3.71a1.76 1.76 0 01-1 2.06l-.45.21 2.48 13.28a2 2 0 01-1.46 2.27l-12.8 3.19a6.47 6.47 0 01-3.82-.22l-1.62-.61-7.77 2.46z" fill="#34a37e"/>
  <path d="M79.43 234.54l7.6-2s.49-5.79-2.37-17.61a14.58 14.58 0 014-.87c1.37.07 5 13.14 5 13.14s13.53-4.21 14.41-3.8c.56.26 1.16 2.28 1.52 3.71a1.76 1.76 0 01-1 2.06l-.45.21 2.48 13.28a2 2 0 01-1.46 2.27l-12.8 3.19a6.47 6.47 0 01-3.82-.22l-1.62-.61-7.77 2.46z" style="isolation:isolate" fill="#fff" opacity=".7"/>
  <path d="M195.53 337.15l-2.27-6c-30.36 1.4-33.76-10-34.08-13.68-.57-6.75 5.53-12.9 13.61-13.71 11.13-1.14 18.55 8.83 22.33 15.4 5.73-6.9 16.82-12.6 25.18-12.6 6.4 0 10.95 3 12.47 9.1 1.22 4.89-.51 7.92-2.18 9.8-7.06 8-27.43 6.42-33.55 5.79zm3.6-12.1c9.22.81 22.63.21 26.4-4 .6-.68 1.22-1.38.68-3.55-.77-3.09-2.6-4.11-5.91-4.11-7.4-.04-17.8 6.26-21.17 11.66zm-24.62-14.59a9.51 9.51 0 00-1 .06c-4.58.46-7.76 3.76-7.54 6.41.26 3 5.85 8.05 24.62 7.58-2.36-4.68-8-14.05-16.08-14.05z" fill="#263238"/>
  <path fill="#34a37e" d="M128.98 327.63h131.79v90.53H128.98z"/>
  <path style="isolation:isolate" fill="#fff" opacity=".2" d="M128.98 327.63h131.79v90.53H128.98z"/>
  <path style="isolation:isolate" opacity=".2" d="M128.98 358.91h131.79v59.25H128.98z"/>
  <path fill="#263238" d="M216.81 327.63h10.71v90.53h-10.71zm-69.33 0h7.86v90.53h-7.86z"/>
  <path style="isolation:isolate" opacity=".2" d="M128.98 327.63h52.36v90.53h-52.36z"/>
  <path d="M115.09 359.38c-4.15.43-17.92 1.48-22.7-3.91a6.82 6.82 0 01-1.47-6.64c1-4.12 4.1-6.17 8.43-6.17 5.66 0 13.16 3.87 17 8.54 2.56-4.45 7.57-11.19 15.1-10.42 5.47.55 9.6 4.71 9.21 9.28-.21 2.46-2.52 10.2-23.06 9.25l-1.53 4.05zm-15.73-12.21c-2.24 0-3.47.73-4 2.82a2.22 2.22 0 00.46 2.42c2.55 2.88 11.62 3.26 17.87 2.71-2.29-3.66-9.33-7.95-14.33-7.95zm20.12 7.63c12.7.32 16.49-3.11 16.66-5.13.15-1.79-2-4-5.1-4.33a5.74 5.74 0 00-.71 0c-5.46-.04-9.28 6.3-10.85 9.46z" fill="#34a37e"/>
  <path fill="#34a37e" d="M161.14 418.16H71.98v-61.25h89.16z"/>
  <path fill="#fff" opacity=".6" d="M161.14 418.16H71.98v-61.25h89.16z"/>
  <path style="isolation:isolate" opacity=".1" d="M161.14 418.16H71.98v-40.09h89.16z"/>
  <path fill="#fff" opacity=".2" d="M161.13 418.16H125.7v-61.25h35.43z"/>
  <path fill="#34a37e" d="M101.71 418.16h-7.24v-61.25h7.24zm46.91 0h-5.32v-61.25h5.32z"/>
  <path d="M386.28 342.82s7-5.84 13 0 7.17 42 7.17 42m.55 7.03s-4.13-42.48 11.42-60.33m-12.94 55.85s3.18-48.37-8.48-59.09" fill="none" stroke="#34a37e" stroke-miterlimit="10"/>
  <path d="M407 387.37s.27-32 8.94-36.92S429 361.68 429 361.68m-25.47 25.69s1.42-24.53-5.3-33.3-13.78 3.76-13.78 3.76m21.43 32.83s-4.35-57.38 2.84-67.1" fill="none" stroke="#34a37e" stroke-miterlimit="10"/>
  <path d="M423.32 355.1s-4.32 1.6-3 5.36 15 10 15 10 5.72-5.25.47-13.78-12.35-4.27-12.47-1.58z" fill="#34a37e"/>
  <path d="M423.32 355.1s-4.32 1.6-3 5.36 15 10 15 10 5.72-5.25.47-13.78-12.35-4.27-12.47-1.58z" style="isolation:isolate" fill="#fff" opacity=".2"/>
  <path d="M404.53 347.94s4.6-.19 4.87 3.78-10 14.94-10 14.94-7.3-2.64-5.73-12.54 9.72-8.62 10.86-6.18z" fill="#34a37e"/>
  <path d="M404.53 347.94s4.6-.19 4.87 3.78-10 14.94-10 14.94-7.3-2.64-5.73-12.54 9.72-8.62 10.86-6.18z" style="isolation:isolate" fill="#fff" opacity=".2"/>
  <path d="M400.63 329s3.07-.33 2.83-2.2-11.93-6.68-18.83 1.1c0 0 4.42 7.58 10.8 7.68s5.2-6.58 5.2-6.58z" fill="#34a37e"/>
  <path d="M400.63 329s3.07-.33 2.83-2.2-11.93-6.68-18.83 1.1c0 0 4.42 7.58 10.8 7.68s5.2-6.58 5.2-6.58z" style="isolation:isolate" fill="#fff" opacity=".2"/>
  <path d="M406.35 324.41s-2.78 1.35-3.55-.37 6.59-12 16.55-9c0 0 .26 8.77-5.1 12.22s-7.9-2.85-7.9-2.85z" fill="#34a37e"/>
  <path d="M406.35 324.41s-2.78 1.35-3.55-.37 6.59-12 16.55-9c0 0 .26 8.77-5.1 12.22s-7.9-2.85-7.9-2.85z" style="isolation:isolate" fill="#fff" opacity=".2"/>
  <path d="M391.82 353.59s2.12-1.71-.16-2.54-13.5-.6-13.62 10.51c0 0 13.06 2.17 14.68-2.06s-.9-5.91-.9-5.91z" fill="#34a37e"/>
  <path d="M391.82 353.59s2.12-1.71-.16-2.54-13.5-.6-13.62 10.51c0 0 13.06 2.17 14.68-2.06s-.9-5.91-.9-5.91z" style="isolation:isolate" fill="#fff" opacity=".2"/>
  <path d="M418.46 328.67s-2.12-1.71.17-2.54 13.5-.6 13.61 10.51c0 0-13.06 2.17-14.67-2.06s.89-5.91.89-5.91z" fill="#34a37e"/>
  <path d="M418.46 328.67s-2.12-1.71.17-2.54 13.5-.6 13.61 10.51c0 0-13.06 2.17-14.67-2.06s.89-5.91.89-5.91z" style="isolation:isolate" fill="#fff" opacity=".2"/>
  <path d="M411.55 337.62s-.18-2.08 1.5-1.26 7.52 7.12 1.46 13.11c0 0-8.16-6.05-6.69-9.19s3.73-2.66 3.73-2.66z" fill="#34a37e"/>
  <path d="M411.55 337.62s-.18-2.08 1.5-1.26 7.52 7.12 1.46 13.11c0 0-8.16-6.05-6.69-9.19s3.73-2.66 3.73-2.66z" style="isolation:isolate" fill="#fff" opacity=".2"/>
  <path d="M389.93 340.59s1.27-1.66-.59-1.87-10.16 2-8.23 10.31c0 0 10.13-.76 10.56-4.21s-1.74-4.23-1.74-4.23z" fill="#34a37e"/>
  <path d="M389.93 340.59s1.27-1.66-.59-1.87-10.16 2-8.23 10.31c0 0 10.13-.76 10.56-4.21s-1.74-4.23-1.74-4.23z" style="isolation:isolate" fill="#fff" opacity=".2"/>
  <path fill="#34a37e" d="M424.13 418.17H389.4l-3.75-38.03h42.23l-3.75 38.03z"/>
  <path style="isolation:isolate" fill="#fff" opacity=".5" d="M424.13 418.17H389.4l-3.75-38.03h42.23l-3.75 38.03z"/>
  <path fill="#34a37e" d="M383.79 375.94h45.94v8.39h-45.94z"/>
  <path style="isolation:isolate" fill="#fff" opacity=".2" d="M383.79 375.94h45.94v8.39h-45.94z"/>
  <path d="M361.29 139.52s-2.58-5.93-10.88-5.93-15.23 4.94-14.84 11.27-4.35 5.74-5.14 11.87 2.17 7.71 2.37 10.29-3.16 1.78-5.34 6.13-4.94 10.48 4.35 18.59 35.61 6.73 41.34 1.78 5.54-14.44 0-17-.39-2.18.2-7.91-4.55-7.91-4.15-12.46 1.8-16.23-7.91-16.63z" fill="#263238"/>
  <path d="M313 222.58l-8.19-4.47s-2.32-6-3.55-6.64S291.13 211 290 211s-.82 8.33-.28 9.72 10.37 1.85 11.33 2l10 7.25z" fill="#b97964"/>
  <path d="M326.77 177.8c-6.17 0-11.18 43.48-11.18 43.48l-8.44-3.17-5.27 7.65s9.49 12.13 18.72 10.55 14-49.12 14-49.12z" fill="#34a37e"/>
  <path d="M334.58 187.19s-.12 1.24-.37 3.34c-1.28 10.84-5.86 44.46-13.61 45.78a9.28 9.28 0 01-2.23.12c-8.47-.41-16.49-10.67-16.49-10.67l5.27-7.64 8.44 3.16s5-43.52 11.18-43.48z" style="isolation:isolate" fill="#fff" opacity=".2"/>
  <path d="M334.21 190.53c-1.28 10.84-5.86 44.46-13.61 45.78a9.28 9.28 0 01-2.23.12c-.2-27.92 8.3-52.6 8.3-52.6z" style="isolation:isolate" opacity=".2"/>
  <path d="M331.29 242.08s-10.84 57.76-13.73 81.48c-3.78 30.94-19.23 76.2-19.23 76.2l6.18 1.6s21.78-38.47 26-73.07c17.3-35.37 18.7-78.93 18.7-78.93z" fill="#b97964"/>
  <path d="M286.83 413.76A8.93 8.93 0 01290 413s3.8-2.24 7.56-10.92h4.24a3.5 3.5 0 013.25 2.33 2 2 0 01.12.59 22.39 22.39 0 01-.33 3.05 84.9 84.9 0 01-2.47 10l-.72-.19 1.31-6.31c.43-2.15-1.83-.08-2.87 2.09s-2.65 4.34-7.33 3.27c-5.44-1.38-7.64-2.17-5.93-3.15z" fill="#263238"/>
  <path d="M342.54 241.16s1.35 58.75 3.42 82.55c2.71 31.06-3 78.54-3 78.54l6.38.28s13.35-42.14 10.35-76.87c9.61-38.19 2-81.09 2-81.09z" fill="#b97964"/>
  <path d="M333 415.7a9 9 0 013.07-1.15s3.53-2.63 6.34-11.67l4.2-.48a3.49 3.49 0 013.49 2 1.9 1.9 0 01.18.57 24.19 24.19 0 010 3.07 84.54 84.54 0 01-1.39 10.16l-.73-.1.61-6.42c.2-2.18-1.81.12-2.62 2.39s-2.16 4.6-6.93 4c-5.55-.67-7.82-1.22-6.22-2.37z" fill="#263238"/>
  <path d="M298.33 399.76S293 410.82 290 413c0 0 4.08 2.43 8.33-3 5.49-7 6.84-5 6.84-5a19.61 19.61 0 00-.66-3.57c-.83-2.33-6.18-1.67-6.18-1.67zm45.23-.09s-1.5 4.09-3.5 8.59a19.58 19.58 0 01-4 6.29s3.47 1.13 5.35-1.05 5.08-10 8.68-9.14a8.21 8.21 0 00-.8-1.83c-.54-.89-5.73-2.86-5.73-2.86z" fill="#b97964"/>
  <path d="M327.58 232.44s-4.29 42.76-10.67 85.63a453.17 453.17 0 01-17.14 72l12.66 1.06s24.26-60.14 31.65-94.95c0 0 2.63 61.71-1.59 96l11.08-.53s27-116.14 6.86-158z" fill="#34a37e"/>
  <path d="M353.57 391.66l-11.08.52c4.22-34.28 1.59-96 1.59-96-1.87 8.79-4.81 19.18-8.16 29.82-9.93 31.51-23.49 65.13-23.49 65.13l-12.66-1.06a452.82 452.82 0 0017.14-72c6.38-42.87 10.67-85.63 10.67-85.63l32.85 1.24c20.17 41.83-6.86 157.98-6.86 157.98z" style="isolation:isolate" fill="#fff" opacity=".4"/>
  <path d="M344.08 296.18c-1.87 8.79-4.81 19.18-8.16 29.82-1.28-20 3.81-55.93 3.81-55.93z" style="isolation:isolate" opacity=".2"/>
  <path fill="#263238" d="M360.36 231.6l.09 4.83-33.05-1.91-.1-5.71 33.06 2.79z"/>
  <path fill="#fff" d="M341.768 235.863l-7.222-.509.386-5.476 7.222.509z"/>
  <path fill="#34a37e" d="M350.599 238.19l-1.64-.054.268-8.345 1.64.052z"/>
  <path style="isolation:isolate" fill="#fff" opacity=".4" d="M350.599 238.19l-1.64-.054.268-8.345 1.64.052z"/>
  <path fill="#34a37e" d="M330.41 236.337l-1.64-.053.268-8.346 1.64.053z"/>
  <path style="isolation:isolate" fill="#fff" opacity=".4" d="M330.41 236.337l-1.64-.053.268-8.346 1.64.053z"/>
  <path d="M327.42 227.49l33 2.85a117.34 117.34 0 013.51-24.24c.79-3.16 1.78-6.69 3.05-10.77.68-2.18 1.43-4.52 2.27-7 .63-1.91 1.31-3.94 2.06-6.08a98 98 0 00-13.7-3.31 105.2 105.2 0 00-14.82-1.56c-6.42-.05-13.8.67-13.8.67s-1.05.25-1.71 7.06c-.59 6.35-1.18 19.13.14 42.38z" fill="#34a37e"/>
  <path d="M327.36 229.42l33 2.18c.52-8.2 1.11-15.72 3.58-25.5.79-3.16 1.78-6.69 3.05-10.77.68-2.18 1.43-4.52 2.27-7 .63-1.91 1.31-3.94 2.06-6.08a98 98 0 00-13.7-3.31 105.2 105.2 0 00-14.82-1.56c-6.42-.05-13.8.67-13.8.67s-1.05.25-1.71 7.06c-.6 6.35-1.29 21.06.07 44.31z" fill="#263238"/>
  <path d="M327.42 227.49l33 2.85a117.34 117.34 0 013.51-24.24c.79-3.16 1.78-6.69 3.05-10.77.68-2.18 1.43-4.52 2.27-7 .63-1.91 1.31-3.94 2.06-6.08a98 98 0 00-13.7-3.31 105.2 105.2 0 00-14.82-1.56c-6.42-.05-13.8.67-13.8.67s-1.05.25-1.71 7.06c-.59 6.35-1.18 19.13.14 42.38z" fill="#fff" opacity=".1"/>
  <path d="M345.52 184.63c8.14-1 10.58-4.52 10.58-4.52-5.16-4.87-.87-13.31-.87-13.31l-9.79 1.83a30.64 30.64 0 01.38 4.12c.07 5.95-2.61 6-2.61 6-1.72 3.25 2.31 5.88 2.31 5.88z" fill="#b97964"/>
  <path d="M345.44 168.63a30.64 30.64 0 01.38 4.12c6.61 0 9.41-5.95 9.41-5.95z" style="isolation:isolate" opacity=".2"/>
  <path d="M350.85 141.25c-8.51-.46-11.5 3.94-12.61 12.68-1.38 10.92.63 18.84 11.4 17.08 14.63-2.39 15.36-29.01 1.21-29.76z" fill="#b97964"/>
  <path d="M343.77 153.76a17.81 17.81 0 01-2.67 3.39 2.35 2.35 0 002.19 1.09z" fill="#a24e3f"/>
  <path d="M349 153.35c0 .69.28 1.29.74 1.33s.89-.5.95-1.2-.28-1.3-.75-1.33-.86.5-.94 1.2z" fill="#263238"/>
  <path d="M350.15 152.2l-1.47-.72s.66 1.34 1.47.72zm-9.8.32c-.05.7.28 1.29.74 1.33s.89-.5 1-1.2-.28-1.29-.75-1.33-.93.5-.99 1.2z" fill="#263238"/>
  <path d="M341.48 151.37l-1.47-.71s.66 1.34 1.47.71z" fill="#263238"/>
  <path d="M349.43 147.47a4.43 4.43 0 013.62 1.49m-9.79-2.19a4 4 0 00-3.43.52" fill="none" stroke="#2e353a" stroke-linecap="round" stroke-linejoin="round" stroke-width=".725"/>
  <path d="M344.35 161.65a21.15 21.15 0 01.83 3 5 5 0 00.55 0c2.49-.11 3.61-1 4.1-1.92a3.19 3.19 0 00.32-1.49 3.27 3.27 0 00-.11-.87 11.73 11.73 0 01-4.84 1.24c-.52.04-.85.04-.85.04z" fill="#263238"/>
  <path d="M345.2 161.6l.27.88c2.34-.11 4-.51 4.68-1.25a3.27 3.27 0 00-.11-.87 11.73 11.73 0 01-4.84 1.24z" fill="#fff"/>
  <path d="M345.73 164.64c2.49-.11 3.61-1 4.1-1.92a8.08 8.08 0 00-2.75.67 3.06 3.06 0 00-1.35 1.25z" fill="#de5753"/>
  <path d="M359.37 156.11s-3.6-7.21-2.7-12.58c0 0-16.49-7.81-18.26 9.26 0 0-.82-15.29 13.83-14.83s13.42 21.87 5.51 27.83c0 0 3.84-5.17 1.62-9.68z" fill="#263238"/>
  <path d="M360.23 140.44s-6.66-5.93-12.72-4.81-5 9.1 3 12.13 9.63 6.93 9.63 6.93l6.92-6.2z" fill="#263238"/>
  <path d="M345.73 138.13s-2.84.19-2.05 4.41 6.79 6.34 12.46 8.32 5.21 4.21 5.21 4.21" fill="none" stroke="#263238" stroke-miterlimit="10" stroke-width=".5"/>
  <path d="M357.88 157.83a3.73 3.73 0 014.2-3.19c2.63.43 3.59 5.91-3.05 6.86-.95.13-1.43-.82-1.15-3.67zm5.76 23.17s-9.55 7.75-18.44 7.63-12-10.13-12-10.13 13.8-4.07 30.44 2.5z" fill="#b97964"/>
  <path d="M357.82 178.29a213.79 213.79 0 00.5 65.41l9.49-1.06 4.49-60.92z" fill="#34a37e"/>
  <path d="M372.3 181.72l-.48 6.46-2.41 32.71-1.6 21.75-9.49 1.06c-.11-.69-.22-1.38-.32-2.06a214 214 0 01-2.43-32.4v-1.11a200.82 200.82 0 012.25-29.84l4.4 1z" style="isolation:isolate" fill="#fff" opacity=".2"/>
  <path d="M339.59 177s-10.59 31.09-12.13 63l-3.46-1s-2.54-34.52 2.74-61.15z" fill="#34a37e"/>
  <path d="M339.59 177a269.18 269.18 0 00-7.45 28.34c-.54 2.59-1.07 5.3-1.56 8.1-.92 5.18-1.72 10.66-2.31 16.27-.36 3.41-.64 6.86-.81 10.33L324 239s-.33-4.43-.5-11.35c-.12-4.75-.17-10.68 0-17.14a201.41 201.41 0 013.23-32.66l8.79-.57zm19.52 13.06l3.36 4.75-6.9 13.32a200.82 200.82 0 012.25-29.84l4.4 1 2.82 6.28z" style="isolation:isolate" fill="#fff" opacity=".2"/>
  <path d="M339.59 177a269.18 269.18 0 00-7.45 28.34l-2.5-13.67 4.94-4.45-3.16-4.94 4.14-5z" style="isolation:isolate" fill="#fff" opacity=".2"/>
  <path d="M371.82 188.18l-2.41 32.71c-2.81 7-6.63 14.81-11.41 20.75a214 214 0 01-2.43-32.4c4.37-7.13 10.6-16.36 16-20.86zm-41.24 25.23c-.92 5.18-1.72 10.66-2.31 16.27-1.57-.67-3.18-1.38-4.74-2.08-.12-4.75-.17-10.68 0-17.14z" style="isolation:isolate" opacity=".2"/>
  <path d="M297.22 216.62s-7.44-3-4.27-10.7c0 0-2.15 2-7.15-.48 0 0 5.21 2.49 4.48 4.11-.61 1.35-7.46 2.08-7.46 2.08s7.71-.53 8.53 1.13c.51 1.05-4.67 7.26-4.67 7.26s5.45-5.27 6.61-4.59-.37 5.07-.37 5.07 1.48-3.79 2.33-3.67.72 2.65.72 2.65.03-2.69 1.25-2.86zm5.98-16.73s-6.2-5.07-11.43 1.45c0 0 .73-2.86-3.88-6 0 0 4.7 3.35 5.77 1.92.88-1.18-1.8-7.53-1.8-7.53s3.27 7 5.12 6.91c1.17-.06 4.09-7.59 4.09-7.59s-2 7.32-.81 8 4.25-2.78 4.25-2.78-2.59 3.13-2.08 3.82 2.67-.65 2.67-.65-2.37 1.26-1.9 2.45z" fill="#34a37e"/>
  <path d="M297.22 216.62s-7.44-3-4.27-10.7c0 0-2.15 2-7.15-.48 0 0 5.21 2.49 4.48 4.11-.61 1.35-7.46 2.08-7.46 2.08s7.71-.53 8.53 1.13c.51 1.05-4.67 7.26-4.67 7.26s5.45-5.27 6.61-4.59-.37 5.07-.37 5.07 1.48-3.79 2.33-3.67.72 2.65.72 2.65.03-2.69 1.25-2.86zm5.98-16.73s-6.2-5.07-11.43 1.45c0 0 .73-2.86-3.88-6 0 0 4.7 3.35 5.77 1.92.88-1.18-1.8-7.53-1.8-7.53s3.27 7 5.12 6.91c1.17-.06 4.09-7.59 4.09-7.59s-2 7.32-.81 8 4.25-2.78 4.25-2.78-2.59 3.13-2.08 3.82 2.67-.65 2.67-.65-2.37 1.26-1.9 2.45z" style="isolation:isolate" fill="#fff" opacity=".7"/>
  <path d="M326.57 214.83l-13.43-9.13s-4.34-12.78-5.38-13-8.22 3.67-8.57 4.81 3.89 10.27 5 11.43 3.91 1.28 3.91 1.28l13.08 10.28z" fill="#b97964"/>
  <path d="M372.3 181.72c-3.83-.25-17.94 37.45-20.05 40.61s-33.89-13.58-33.89-13.58l-4.74 10.48s34.61 20.58 44.17 17.61c6.92-2.15 13.45-24 16.35-33.5 4.63-15.13 1.66-21.4-1.84-21.62z" fill="#34a37e"/>
  <path d="M372.3 181.72c-3.83-.25-17.94 37.45-20.05 40.61s-33.89-13.58-33.89-13.58l-4.74 10.48s34.61 20.58 44.17 17.61c6.92-2.15 13.45-24 16.35-33.5 4.63-15.13 1.66-21.4-1.84-21.62z" style="isolation:isolate" fill="#fff" opacity=".2"/>
  <rect x="236.05" y="91.5" width="21.1" height="21.1" rx="3.69" transform="rotate(9.82 246.582 102.063)" fill="#34a37e"/>
  <path d="M253 98.94c-1.06-2.63-4-2.2-5.79-.6-1.13-2.11-3.77-3.51-5.66-1.38-3.17 3.59 1.29 8.2 3.45 10.08l.61.53.76-.29c2.69-1.05 8.44-3.89 6.63-8.34z" style="isolation:isolate" fill="#fff" opacity=".6"/>
  <path d="M247.31 111.22s-3.81 5.76-10.25 6.65c0 0 3.72-1.36 4.58-7.9z" fill="#34a37e"/>
  <path d="M200.56 408.89h-9.9a.71.71 0 00-.69.56l-1.61 7.25a1.21 1.21 0 00.93 1.43.74.74 0 00.26 0c3.2 0 5.54-.24 9.56-.24 2.48 0 9.95.25 13.37.25s3.87-3.37 2.47-3.69c-6.28-1.36-11-3.26-13-5.06a1.93 1.93 0 00-1.39-.5zm41.98-.26h-9.9a.71.71 0 00-.69.56l-1.61 7.25a1.21 1.21 0 00.93 1.43 1.09 1.09 0 00.26 0c3.21-.06 5.54-.25 9.56-.25 2.48 0 9.95.26 13.37.26s3.87-3.38 2.47-3.69c-6.28-1.37-11-3.27-13-5.07a1.93 1.93 0 00-1.39-.49z" fill="#263238"/>
  <path d="M195.31 225.39h43.25c4.11 22.45 15.87 113.33 6.64 184.13l-14.44 1.58S233 302.3 220.1 267.55c-1.49 18.6-3.26 38.39-4.79 48.91-3.76 25.92-12.24 93.46-12.24 93.46l-14.64.39s3.21-65.51 4.61-91c1.55-27.62 2.21-88.24 2.27-93.92z" fill="#263238"/>
  <path d="M195.31 225.39h43.25c4.11 22.45 15.87 113.33 6.64 184.13l-14.44 1.58S233 302.3 220.1 267.55c-1.49 18.6-3.26 38.39-4.79 48.91-3.76 25.92-12.24 93.46-12.24 93.46l-14.64.39s3.21-65.51 4.61-91c1.55-27.62 2.21-88.24 2.27-93.92z" style="isolation:isolate" fill="#fff" opacity=".2"/>
  <path d="M220.1 267.56a115.72 115.72 0 014.83 18.71c1.21-16.55-3.63-34.1-3.63-34.1z" style="isolation:isolate" opacity=".2"/>
  <path fill="#263238" d="M238.92 225.91h-43.53v5.18l44.09-.54-.56-4.64z"/>
  <path fill="#263238" d="M210.94 232.78h-1.55v-9.2h1.55zm22.02 0h-1.55v-9.2h1.55z"/>
  <path fill="#fff" d="M227.13 230.8h-8.05V225h8.05z"/>
  <path style="isolation:isolate" fill="#fff" opacity=".2" d="M210.94 232.78h-1.55v-9.2h1.55zm22.02 0h-1.55v-9.2h1.55z"/>
  <path d="M284.16 172.9l3.66-3.76s1.46-5.65 2.3-6.69 7.21-4 7.21-4 2.19.11 2.5.52-.73 9.93-1.67 11.18-5.53 2.3-6.16 2.51-7.1 6.79-7.1 6.79z" fill="#ebb376"/>
  <path d="M234.61 150.56c6.83.83 20.28 31.88 25.42 34.65s25.52-14.63 25.52-14.63l5.14 6.33s-23.14 24.72-32.24 22-22-26.11-25.91-33.43 2.07-14.92 2.07-14.92z" fill="#34a37e"/>
  <path d="M290.69 176.91s-23.14 24.72-32.24 22c-4-1.21-8.66-6.34-13-12.34a200 200 0 01-12.9-21.08 12.48 12.48 0 01-.22-10.8 18.15 18.15 0 012.29-4.08c6.83.83 20.28 31.89 25.42 34.66s25.52-14.64 25.52-14.64z" style="isolation:isolate" fill="#fff" opacity=".6"/>
  <path d="M245.44 186.52a200 200 0 01-12.9-21.08 12.48 12.48 0 01-.22-10.8c3.89 4.79 11.8 16.29 13.12 31.88z" style="isolation:isolate" opacity=".2"/>
  <path d="M234.61 150.56s-27.51-1.3-48 3.88c0 0 9 45.55 8.7 71.47h43.61s2.84-48.61-4.31-75.35z" fill="#34a37e"/>
  <path d="M238.92 225.91h-43.6c0-2.82 0-5.86-.2-9.06-.38-7.48-1.23-15.77-2.26-23.79l-.3-2.34c-.7-5.21-1.45-10.25-2.18-14.85-2-12.35-3.77-21.43-3.77-21.43 20.49-5.17 48-3.88 48-3.88 7.14 26.75 4.31 75.35 4.31 75.35z" style="isolation:isolate" fill="#fff" opacity=".6"/>
  <path d="M221.86 198.27s-7.53 17.95-26.74 18.58c-.38-7.48-1.23-15.77-2.26-23.79z" style="isolation:isolate" opacity=".2"/>
  <path d="M202.67 152.37c4 3.59 13.63 2.26 13.63 2.26s6-1.65 4.77-3.54c-3.56-.59-5.28-2.25-6-4.37a10.11 10.11 0 01-.36-4.07 19.44 19.44 0 01.3-2.26l-12-8.86c1.61 5.84 3.53 16.6-.34 20.84z" fill="#ebb376"/>
  <path d="M205.82 137.16c.47 7.18 6.37 9.16 9.26 9.56a10.11 10.11 0 01-.36-4.07z" style="isolation:isolate" opacity=".2"/>
  <path d="M223.3 112.92s3.34 10.8-1.89 15.93-8.31-15.44-8.31-15.44z" fill="#263238"/>
  <path d="M205.7 140.19a10.15 10.15 0 0012.1 2.16 11.31 11.31 0 005.6-6.15c.14-.37.26-.75.37-1.14 1.87-7.19 1-19.14-6.79-22.49a11 11 0 00-15.37 10.68c.31 8.03.11 12.75 4.09 16.94z" fill="#ebb376"/>
  <path d="M213.75 125.74c-.06.65.32 1.19.75 1.2s.78-.52.8-1.17-.33-1.19-.75-1.2-.78.51-.8 1.17zm7.39.15c-.06.65.33 1.19.75 1.2s.78-.52.8-1.17-.33-1.19-.75-1.2-.78.55-.8 1.17z" fill="#263238"/>
  <path d="M218.79 126.16a23 23 0 003 5.66 3.81 3.81 0 01-3.16.52z" fill="#d58745"/>
  <path d="M211.5 123.3a.41.41 0 00.38-.14 3.12 3.12 0 012.48-1.24.38.38 0 00.42-.34.39.39 0 00-.35-.42 3.82 3.82 0 00-3.15 1.52.39.39 0 00.05.54.48.48 0 00.17.08zm12.87.1a.34.34 0 00.22 0 .39.39 0 00.2-.51 3.83 3.83 0 00-2.73-2.21.38.38 0 00-.43.32.41.41 0 00.32.44 3.06 3.06 0 012.13 1.78.35.35 0 00.29.18zm-16.67-10.05l.53 3.53a2.64 2.64 0 00-1.23 3.36c1.22 2.94-.34 7.6-2.57 9.51 0 0-.11-1.29-1.19-.95s-.59 7 1.62 10.18a23.43 23.43 0 01-5.86-10.44c-1.85-6.47-1.66-11.27-.39-13.83z" fill="#263238"/>
  <path d="M198 129.76a7.59 7.59 0 004.3 4c2.52.91 4-1.31 3.44-3.79-.5-2.2-2.39-5.4-5-5.21s-3.74 2.74-2.74 5z" fill="#ebb376"/>
  <path d="M219.24 134.31a19.29 19.29 0 00-.79 2.85h-.52c-2.36-.11-3.42-.94-3.88-1.83a3 3 0 01-.31-1.41 2.9 2.9 0 01.11-.81 11.3 11.3 0 004.58 1.17z" fill="#263238"/>
  <path d="M218.43 134.26l-.25.83c-2.22-.11-3.77-.48-4.44-1.19a2.9 2.9 0 01.11-.81 11.3 11.3 0 004.58 1.17z" fill="#fff"/>
  <path d="M217.93 137.14c-2.36-.11-3.42-.94-3.88-1.83a7.62 7.62 0 012.6.64 2.87 2.87 0 011.28 1.19z" fill="#de5753"/>
  <path d="M210.15 114.56s.53 4.22-4.74 6.4-7.19 4-7.19 4-3.56-10.35 2.9-14.17c0 0 .13-2 5.67-3.89s13.48-1 17.08 5.67c2.7 5 .2 8.57.2 8.57s-.53-2.9-5.67-3.56a20.31 20.31 0 01-8.25-3.02zm10.09 39.49l-1.16 5.69s6.63 27.64 8 42l-2.41 2.42-3.8-2.42s-.34-29.2-3.69-41.46l-6-4.92 4.73-1.53z" fill="#263238"/>
  <path d="M204 147l11.5 5.18.67-4.16 4.22 1.49a3.48 3.48 0 012.31 3.64l-.48 4.56-5.83-3.19-2.91 4.11-13.8-6.65z" fill="#34a37e"/>
  <path d="M204 147l11.5 5.18.67-4.16 4.22 1.49a3.48 3.48 0 012.31 3.64l-.48 4.56-5.83-3.19-2.91 4.11-13.8-6.65z" style="isolation:isolate" fill="#fff" opacity=".7"/>
  <path d="M234.52 191l13.84-2.57s2.57-2.57 3.76-2.57 16.62 4.74 16.62 4.74-4.16 4.16-6.14 4.95-11.07-1.19-11.07-1.19l-13.45 3.56z" fill="#ebb376"/>
  <path d="M186.61 154.44c6.32-2.3 15.66 35.12 17.64 38.09s39.17-4.36 39.17-4.36l3 8.71s-31.45 10.88-44.5 8.71-16-21.17-19.19-32.44-.73-17.05 3.88-18.71z" fill="#34a37e"/>
  <path d="M186.61 154.44c6.32-2.3 15.66 35.12 17.64 38.09s39.17-4.36 39.17-4.36l3 8.71s-31.45 10.88-44.5 8.71-16-21.17-19.19-32.44-.73-17.05 3.88-18.71z" style="isolation:isolate" fill="#fff" opacity=".7"/>
  <path d="M286.52 154.41a4.83 4.83 0 013-2.62 6.14 6.14 0 013.7.07 6 6 0 013 2.18 4.48 4.48 0 01.49.81 4.71 4.71 0 01.34.88l.13.44.06.42.11.84a8.7 8.7 0 01-2 6.3 12.06 12.06 0 01-5.24 3.62 17.16 17.16 0 01-6.07 1 20.53 20.53 0 01-3-.22 14.74 14.74 0 00-2.75-.28 3.71 3.71 0 00-2.28.75 1.67 1.67 0 00-.67 1.84 1.35 1.35 0 001.6.8 1.1 1.1 0 00.25-1.92 1.29 1.29 0 011 1.18 1.76 1.76 0 01-.82 1.59 2 2 0 01-1.87.12 2.47 2.47 0 01-1.35-1.29 3 3 0 01.9-3.38 5.28 5.28 0 013.09-1.25 16.64 16.64 0 013.06.14 17.33 17.33 0 002.79.05 15.49 15.49 0 005.33-1.18 10 10 0 004.16-3.08 6.66 6.66 0 001.28-4.86 3.41 3.41 0 00-3.85-3c-1.88.33-3.25 2-4.08 3.6zm-25.98-8.85a4.81 4.81 0 00-.81-3.93 6.08 6.08 0 00-3-2.2 6 6 0 00-3.71-.11 3.94 3.94 0 00-.88.35 4 4 0 00-.8.48l-.38.27-.31.3-.6.59a8.69 8.69 0 00-2.24 6.22 12.14 12.14 0 001.93 6.07 17.23 17.23 0 004.18 4.53 19.17 19.17 0 002.54 1.67 16.76 16.76 0 012.35 1.46 3.92 3.92 0 011.35 2 1.7 1.7 0 01-.6 1.87 1.35 1.35 0 01-1.75-.34 1.11 1.11 0 011-1.68 1.29 1.29 0 00-1.54.3 1.74 1.74 0 00-.33 1.76 2 2 0 001.41 1.24 2.52 2.52 0 001.86-.19 3 3 0 001.35-3.23 5.23 5.23 0 00-1.68-2.88 17.24 17.24 0 00-2.51-1.76 18.28 18.28 0 01-2.24-1.66 15.55 15.55 0 01-3.5-4.19 9.9 9.9 0 01-1.41-5 6.67 6.67 0 011.94-4.63 3.42 3.42 0 014.9 0c1.28 1.41 1.35 3.57 1 5.34z" fill="#34a37e"/>
  <path d="M286.52 154.41a4.83 4.83 0 013-2.62 6.14 6.14 0 013.7.07 6 6 0 013 2.18 4.48 4.48 0 01.49.81 4.71 4.71 0 01.34.88l.13.44.06.42.11.84a8.7 8.7 0 01-2 6.3 12.06 12.06 0 01-5.24 3.62 17.16 17.16 0 01-6.07 1 20.53 20.53 0 01-3-.22 14.74 14.74 0 00-2.75-.28 3.71 3.71 0 00-2.28.75 1.67 1.67 0 00-.67 1.84 1.35 1.35 0 001.6.8 1.1 1.1 0 00.25-1.92 1.29 1.29 0 011 1.18 1.76 1.76 0 01-.82 1.59 2 2 0 01-1.87.12 2.47 2.47 0 01-1.35-1.29 3 3 0 01.9-3.38 5.28 5.28 0 013.09-1.25 16.64 16.64 0 013.06.14 17.33 17.33 0 002.79.05 15.49 15.49 0 005.33-1.18 10 10 0 004.16-3.08 6.66 6.66 0 001.28-4.86 3.41 3.41 0 00-3.85-3c-1.88.33-3.25 2-4.08 3.6zm-25.98-8.85a4.81 4.81 0 00-.81-3.93 6.08 6.08 0 00-3-2.2 6 6 0 00-3.71-.11 3.94 3.94 0 00-.88.35 4 4 0 00-.8.48l-.38.27-.31.3-.6.59a8.69 8.69 0 00-2.24 6.22 12.14 12.14 0 001.93 6.07 17.23 17.23 0 004.18 4.53 19.17 19.17 0 002.54 1.67 16.76 16.76 0 012.35 1.46 3.92 3.92 0 011.35 2 1.7 1.7 0 01-.6 1.87 1.35 1.35 0 01-1.75-.34 1.11 1.11 0 011-1.68 1.29 1.29 0 00-1.54.3 1.74 1.74 0 00-.33 1.76 2 2 0 001.41 1.24 2.52 2.52 0 001.86-.19 3 3 0 001.35-3.23 5.23 5.23 0 00-1.68-2.88 17.24 17.24 0 00-2.51-1.76 18.28 18.28 0 01-2.24-1.66 15.55 15.55 0 01-3.5-4.19 9.9 9.9 0 01-1.41-5 6.67 6.67 0 011.94-4.63 3.42 3.42 0 014.9 0c1.28 1.41 1.35 3.57 1 5.34z" opacity=".2"/>
  <path d="M272 168.9c6.21-.69 12.39-5.4 15.83-12.64l1.58-3.33-30.29-10.33-.78 3.6c-1.69 7.84.33 15.33 4.82 19.67a4.47 4.47 0 011.11 4.55l-2.14 6.7a3.46 3.46 0 01-3.85 2.38 6.24 6.24 0 00-4.33.84l-1.58 1 18.77 6.4-.63-1.76a6.26 6.26 0 00-2.92-3.31 3.45 3.45 0 01-1.6-4.23l2.4-6.62a4.45 4.45 0 013.61-2.92z" fill="#34a37e"/>
  <path fill="#263238" d="M251.92 179.44l20.74 7.06-1.51 7.01-22.31-7.6 3.08-6.47z"/>
  <path style="isolation:isolate" fill="#fff" opacity=".2" d="M256.65 181.05l11.28 3.84-1.51 7-12.84-4.37 3.07-6.47z"/>
  <path fill="#fff" d="M258.258 183.807l6.74 2.296-.894 2.622-6.74-2.296z"/>
  <path d="M264.25 165.4a5 5 0 01.86 4.87l-2.57 7.57c-.51 1.48-1.13 1.9-2.91 2a6.12 6.12 0 00-3 .72l3.15 1.08a3.88 3.88 0 011.16-.29h.51a1.73 1.73 0 001.52-1.17l4.19-12.3a3 3 0 00-.34-2.64l-.53-.81a15.64 15.64 0 01-2.29-11.5l1.31-7.3-4.55-1.55-1 8.45c-.58 4.05 1.24 9.4 4.49 12.87z" style="isolation:isolate" fill="#fff" opacity=".3"/>
  <path fill="#34a37e" d="M211.56 180.58l-3.52-.97-3.4 1.62-.76-8.04 6.93-.65.75 8.04z"/>
  <path style="isolation:isolate" fill="#fff" opacity=".2" d="M211.56 180.58l-3.52-.97-3.4 1.62-.76-8.04 6.93-.65.75 8.04z"/>
  <path fill="#34a37e" d="M206.74 166.2l.73.39.76-.34.61.56.83-.14.45.69.83.07.27.79.79.27.06.83.7.45-.15.82.56.62-.34.76.39.73-.52.65.19.81-.67.5-.01.83-.77.32-.22.8-.82.11-.41.73-.83-.1-.58.6-.78-.29-.71.43-.68-.48-.79.25-.54-.64-.83.04-.37-.75-.81-.16-.17-.82-.75-.36.04-.84-.63-.54.25-.79-.48-.68.43-.71-.29-.78.6-.58-.09-.82.72-.42.12-.82.8-.22.32-.77.83-.01.5-.66.81.19.65-.52z"/>
  <circle cx="207.29" cy="172.11" r="5.03" transform="rotate(-14.79 207.327 172.163)" style="isolation:isolate" fill="#fff" opacity=".4"/>
  <path d="M207.43 171.73l-.06.9.72-.06v.72l-.74.06-.07 1.13-.71.07.08-1.13-.61.06-.08 1.12-.7.07.07-1.13-.69.07v-.72l.7-.07.07-.9-.7.07v-.72l.7-.07.09-1.29.7-.06-.09 1.28h.61l.09-1.29.71-.07-.09 1.29.73-.07v.72zm-.71.07h-.61l-.06.91.61-.06zm2.89 2.46l-.33-3.61-.6.06-.05-.49a1.07 1.07 0 00.46-.24.85.85 0 00.3-.43h.49l.44 4.68z" fill="#34a37e"/>
</svg>
