<svg xmlns="http://www.w3.org/2000/svg" viewBox="0 0 500 500">
  <path d="M459 131.83C432.43 81.13 382 46 327.71 32.69 275.88 20 213.48 20.62 174.47 62.43c-25.69 27.53-36 65.86-58.65 95.59-11.27 14.78-25.37 21.54-40.14 31.88C39.7 215.11 13.23 255.68 19 301.56c9.7 76.71 79.68 117.91 150 122.54 92.94 6.11 159.22-6.31 215.52-42.29 29.25-18.69 58.41-40.87 76.26-71.56 27-46.41 25.89-104.95 8.43-154.78A178.75 178.75 0 00459 131.83z" fill="#34a37e"/>
  <path d="M459 131.83C432.43 81.13 382 46 327.71 32.69 275.88 20 213.48 20.62 174.47 62.43c-25.69 27.53-36 65.86-58.65 95.59-11.27 14.78-25.37 21.54-40.14 31.88C39.7 215.11 13.23 255.68 19 301.56c9.7 76.71 79.68 117.91 150 122.54 92.94 6.11 159.22-6.31 215.52-42.29 29.25-18.69 58.41-40.87 76.26-71.56 27-46.41 25.89-104.95 8.43-154.78A178.75 178.75 0 00459 131.83z" fill="#fff" opacity=".8"/>
  <g stroke="#263238" stroke-linecap="round" stroke-linejoin="round">
    <path d="M246.1 468.8h-9.55V53.34a4.77 4.77 0 014.77-4.77h0a4.77 4.77 0 014.78 4.77z" fill="#34a37e"/>
    <path fill="#263238" d="M152.59 103.91h83.69v29.47h-83.69zm93.67-31.59h83.69v29.47h-83.69zm0 81.21l46.73 5.94v-41.35l-46.73 5.94v29.47z"/>
    <path fill="#34a37e" d="M283.57 139.58l-10.31-11.37v4.96l-21.54.85v10.8l21.54 1.07v4.96l10.31-11.27zm33.62-54.67l-15.9-9.18v4.02h-41.93v10.32h41.93v4.03l15.9-9.19zm-151.18 33.95l15.9-9.18v4.02h41.93v10.32h-41.93v4.02l-15.9-9.18z"/>
  </g>
  <circle cx="371.34" cy="98.8" r="34.68" fill="none" stroke="#263238" stroke-linecap="round" stroke-linejoin="round"/>
  <path d="M394.15 121.7a32.65 32.65 0 01-7.9 5.78m-4.62 1.97a32.34 32.34 0 1117.49-14.13" fill="none" stroke="#263238" stroke-linecap="round" stroke-linejoin="round"/>
  <circle cx="371.34" cy="98.8" r="2.56" fill="#263238" stroke="#263238" stroke-linecap="round" stroke-linejoin="round"/>
  <path fill="none" stroke="#263238" stroke-linecap="round" stroke-linejoin="round" d="M375.02 113.17l-3.68-14.37 21.48-14.71M143.45 188.78v51.23h-38.16m-31.31-8.04V174.8h69.47v9.46m-43.64 55.75H73.98v-4.17"/>
  <path fill="none" stroke="#263238" stroke-linecap="round" stroke-linejoin="round" d="M78.21 190.85h6.78v6.78h-6.78zm9.04 0h6.78v6.78h-6.78zm9.04 0h6.78v6.78h-6.78zm9.04 0h6.78v6.78h-6.78zm9.04 0h6.78v6.78h-6.78zm9.04 0h6.78v6.78h-6.78zm9.04 0h6.78v6.78h-6.78zm-54.24 10.7h6.78v6.78h-6.78zm9.04 0h6.78v6.78h-6.78zm9.04 0h6.78v6.78h-6.78zm9.04 0h6.78v6.78h-6.78zm9.04 0h6.78v6.78h-6.78zm9.04 0h6.78v6.78h-6.78zm9.04 0h6.78v6.78h-6.78zm-54.24 10.7h6.78v6.78h-6.78zm9.04 0h6.78v6.78h-6.78zm9.04 0h6.78v6.78h-6.78zm9.04 0h6.78v6.78h-6.78zm9.04 0h6.78v6.78h-6.78zm9.04 0h6.78v6.78h-6.78zm9.04 0h6.78v6.78h-6.78zm-54.24 10.7h6.78v6.78h-6.78zm9.04 0h6.78v6.78h-6.78zm9.04 0h6.78v6.78h-6.78zm9.04 0h6.78v6.78h-6.78zm9.04 0h6.78v6.78h-6.78zm9.04 0h6.78v6.78h-6.78zm9.04 0h6.78v6.78h-6.78z"/>
  <path d="M86.27 179.41h-3v-11h3zm12-11h-3v11h3zm12 0h-3v11h3zm12 0h-3v11h3zm12 0h-3v11h3z" fill="#263238" stroke="#263238" stroke-linecap="round" stroke-linejoin="round"/>
  <path d="M108.72 283.85a26.5 26.5 0 1026.49 26.5 26.49 26.49 0 00-26.49-26.5zm0 43.26a16.77 16.77 0 1116.76-16.76 16.77 16.77 0 01-16.76 16.76z" fill="none" stroke="#263238" stroke-linecap="round" stroke-linejoin="round"/>
  <path d="M109.26 283.86v9.75a16.74 16.74 0 0111.38 28.51l7.65 6.08a26.49 26.49 0 00-19-44.34zm-10.28 25.4h18.93m-18.93 4.87h18.93m231.16-122.72h51.55m-72.09 0h5.3m32.41 8.18h34.38m-72.09 0h5.72m48.52 8.18h17.85m-72.09 0h5.3m63.6 8.17h3.19m-72.09 0h5.3m63.6 9.52h3.19m-72.09 0h5.3m63.6 9.52h3.19m-72.09 0h5.3m1.36-49.23h11.95v50.1h-11.95zm16.35 9.43h11.95v40.67h-11.95zm16.36 8.81h11.95v31.86H367.9zm16.36 11.33h11.95v20.54h-11.95zm-258-141.95a29.46 29.46 0 103.94 3.54m-35.31 33.46a19.27 19.27 0 10-2.28-2.83" fill="none" stroke="#263238" stroke-linecap="round" stroke-linejoin="round"/>
  <circle cx="108.72" cy="96.92" r="10.07" fill="none" stroke="#263238" stroke-linecap="round" stroke-linejoin="round"/>
  <path d="M364.89 297.18c3.23.46 4.71 3 4.71 6.54v.73h-2.77v-.92c0-2.35-.95-3.8-3.08-3.8s-3.05 1.45-3.05 3.8c0 6 8.94 6 8.94 13.51 0 3.57-1.52 6.12-4.75 6.58v2h-2.44v-2c-3.31-.46-4.79-3-4.79-6.58v-1.64h2.78v1.83c0 2.39 1 3.76 3.12 3.76s3.11-1.37 3.11-3.76c0-5.94-8.9-6-8.9-13.51 0-3.65 1.49-6 4.68-6.54v-2.13h2.44z" fill="#263238"/>
  <path d="M373.38 332.86a24.27 24.27 0 005.25-3.1M355 287.39a24.54 24.54 0 0013.65 47m13.07-7.46a24.54 24.54 0 00-24.09-40.37" fill="none" stroke="#263238" stroke-linecap="round" stroke-linejoin="round"/>
  <circle cx="363.65" cy="310.34" r="20.11" transform="rotate(-42.81 363.64 310.343)" fill="none" stroke="#263238" stroke-linecap="round" stroke-linejoin="round"/>
  <g stroke-linecap="round" stroke-linejoin="round">
    <path d="M266 221.56l.71-.08c3-.37 14.76-1.95 21.49-4.61 7.76-3.07 25.45-1.45 25.45-1.45l7.76 5.6-8.84 5.78s-12.46-4.16-21.12-3.8-12.81 2.89-18.23 2.53-12.09-4-12.09-4z" fill="#263238" stroke="#263238"/>
    <path fill="#fff" stroke="#263238" d="M232.81 204v11.61h19.14v-13.44L232.81 204zm-5.23-11.27s-4.53-3-3 2.26 3 7.31 5.29 7.06 3.53-1 2.77-3-5.06-6.32-5.06-6.32zm30.29 0s4.53-3 3 2.26-3 7.31-5.29 7.06-3.52-1-2.77-3 5.06-6.32 5.06-6.32z"/>
    <path d="M237.41 168.55s-7.56 2.51-10.08 9.57-.25 15.61 1 19.14 7.31 10.33 7.31 10.33h13.6a39.12 39.12 0 007.81-11.08c2.77-6.3 2.77-15.12 2.77-15.12s2.26.76 2.26-2.27-7-8.81-7-8.81 3.28-1.26 1-3-10.33-1-10.33-1-1.04-5.31-8.34 2.24z" fill="#263238" stroke="#263238"/>
    <path d="M267.21 457.94l2.07 1.29a5.84 5.84 0 013.62 1.29c1.29 1.3.81 7.72.81 7.72s-1 .76-5.95.76-15.76 1.2-16.76-.61.18-9.42.18-9.42z" fill="#858585" stroke="#263238"/>
    <path d="M210.57 295.27S209 306.65 209 309s-.52 22.5-.52 22.5.26 53 .26 54-4.4 15.52-2.84 25.35 4.65 47.58 4.65 47.58-1 8.28-.26 9.05 10.35 1.81 12.42.78.77-11.12.77-11.12a33.29 33.29 0 001.3-7.5v-8.28c0-2.58 1.29-25.6 2.58-34.65s2.07-21.21 2.07-21.21l5.43-55.86 4.14-.26s5.17 60 5.43 64.4-.76 13.22 1.57 23.29 3.62 37.5 3.62 37.5-.52 2.59 0 3.62 1.81 4.14 1.81 4.14a29.74 29.74 0 005.43 0 20.08 20.08 0 008.32-2.26 5.59 5.59 0 001.68-6.42c-1.55-3.79-2.24-4.51-2.24-4.51s2.33-32.58 2.33-40.6-1.29-17.84-1.29-18.62 1.55-59 1.55-64.91-.52-22-3.11-29-44-5.17-48.1-4.91a6.34 6.34 0 00-5.43 4.17z" fill="#263238" stroke="#263238"/>
    <path fill="none" stroke="#757575" d="M225.83 329.27l22.24-1.03"/>
    <path d="M238.76 215.1l-14 3.36s-20.18 9.83-24.57 12.41-21.73 37.5-20.95 39.31 4.14 4.14 7.5 4.66S207.21 256 207.21 256s4.91 24.31 4.91 25.34-2.84 13.45-1.55 15.52 50.95 0 50.95 0 3.62.26 4.14-3.1-1-13.19-1-13.19l5.69-29.74s10.87 16.48 13.31 19.13c4.23 4.61 9.49 2.68 12.29-.77 2.45-3 .26-8.8-.51-10.61s-14.53-32.58-18.66-33.91-21.47-7.5-21.47-7.5z" fill="#fff" stroke="#263238"/>
    <path d="M224.8 218.46s17.09-.35 19.93-.35S258 218 258 218l-2.63-5.6a54.47 54.47 0 00-13.7-1.56 41.32 41.32 0 00-14.48 2.59z" fill="#fff" stroke="#263238"/>
    <path fill="none" stroke="#263238" d="M201.95 242.32l5.26 13.64-9.05-9.05m2.07-9.06l.62 1.63m28.48 39.57a25.8 25.8 0 01-2.72 2M253 239.92s-9.45 25.85-22.11 37.77m45.37-41.65l-5.95 14.75 9.57-10.35"/>
    <path d="M177 276.65a23 23 0 007.5 10.34c5.69 4.4 21 18.88 21 18.88a5.81 5.81 0 000 2.33c.26 1.29 4.4 4.65 4.4 4.65v-2.58l1-2.07 1-2.59a30.24 30.24 0 003.37-1.55 5.44 5.44 0 001.29-1.29 33.93 33.93 0 004.65.51c1.81 0 4.4-1.81 2.85-2.32s-3.1 0-5.17-1-3.11-2.07-5.18-2.07h-5.43L194 274.58z" fill="#fff" stroke="#263238"/>
    <path d="M183.07 260.75s-3 .9-3.79 1.67-4.66 6.73-3.88 9.83 1.81 7.5 8.53 8.79 10.35-1.55 10.87-2.32 1.79-9.93.75-9.93-3.86 3.46-3.86 3.46-7.7-1.74-9.25-3 .63-8.5.63-8.5zm118.65 15.9a23 23 0 01-7.5 10.34c-5.69 4.4-21 18.88-21 18.88a5.81 5.81 0 010 2.33c-.26 1.29-5.95 5.27-5.95 5.27v-3.77l-.4-2.38-.11-1.71a30.24 30.24 0 01-3.37-1.55 5.44 5.44 0 01-1.29-1.29 33.93 33.93 0 01-4.65.51c-1.81 0-4.4-1.81-2.85-2.32s3.1 0 5.17-1 3.11-2.07 5.18-2.07h5.43l14.22-23.27z" fill="#fff" stroke="#263238"/>
    <path d="M296.68 262s1.94-.37 2.71.4 4.66 6.73 3.88 9.83-1.81 7.5-8.53 8.79-10.35-1.55-10.87-2.32-.93-9.58-.25-8.8a10.7 10.7 0 003.36 2.33s8-.41 9.27-4.94a22.83 22.83 0 00.43-5.29z" fill="#fff" stroke="#263238"/>
    <path d="M222.73 468.28c1.63-.82 1.17-7.27.9-9.95a19.06 19.06 0 01-5.82 1.67 10.88 10.88 0 01-7.24-1.55s-.83 8.95-.13 9.79 10.22 1.07 12.29.04z" fill="#858585" stroke="#263238"/>
  </g>
  <g fill="#263238">
    <path d="M401 469.33a.4.4 0 01-.4-.4v-51.58a.4.4 0 11.8 0v51.58a.4.4 0 01-.4.4z"/>
    <path d="M400.6 464.28a22 22 0 00-6.21-5.82c-3.49-1.94-9.3-1.94-9.3-1.94s3.1 11.25 15.51 7.76zm.4 0a22.09 22.09 0 016.2-5.82c3.49-1.94 9.31-1.94 9.31-1.94s-3.11 11.25-15.51 7.76zm-.4-13.96a22 22 0 00-6.21-5.82c-3.49-1.94-9.3-1.94-9.3-1.94s3.1 11.25 15.51 7.76zm.4 0a22.09 22.09 0 016.2-5.82c3.49-1.94 9.31-1.94 9.31-1.94s-3.11 11.25-15.51 7.76zm-.4-13.97a21.92 21.92 0 00-6.21-5.81c-3.49-1.94-9.3-1.94-9.3-1.94s3.1 11.24 15.51 7.75zm.4 0a22 22 0 016.2-5.81c3.49-1.94 9.31-1.94 9.31-1.94s-3.11 11.24-15.51 7.75zm-.4-13.96a22 22 0 00-6.21-5.82c-3.49-1.94-9.3-1.94-9.3-1.94s3.1 11.25 15.51 7.76zm.4 0a22.09 22.09 0 016.2-5.82c3.49-1.94 9.31-1.94 9.31-1.94s-3.11 11.25-15.51 7.76zm0-5.04s-3.11-4.18-3.26-8.17 2.46-9.18 2.46-9.18 9.5 7.85.8 17.35zM59.19 469.33a.43.43 0 01-.43-.43v-55.76a.43.43 0 01.86 0v55.76a.43.43 0 01-.43.43z"/>
    <path d="M58.77 463.87a23.89 23.89 0 00-6.71-6.29c-3.77-2.1-10.06-2.1-10.06-2.1s3.35 12.16 16.77 8.39zm.42 0a23.89 23.89 0 016.71-6.29c3.77-2.1 10.06-2.1 10.06-2.1s-3.36 12.16-16.77 8.39zm-.42-15.09a23.74 23.74 0 00-6.71-6.29c-3.77-2.1-10.06-2.1-10.06-2.1s3.35 12.16 16.77 8.39zm.42 0a23.74 23.74 0 016.71-6.29c3.77-2.1 10.06-2.1 10.06-2.1s-3.36 12.16-16.77 8.39zm-.42-15.1a23.89 23.89 0 00-6.71-6.29C48.29 425.3 42 425.3 42 425.3s3.35 12.16 16.77 8.38zm.42 0a23.89 23.89 0 016.71-6.29c3.77-2.09 10.1-2.09 10.1-2.09s-3.4 12.16-16.81 8.38zm-.42-15.09a23.89 23.89 0 00-6.71-6.29c-3.77-2.09-10.06-2.09-10.06-2.09s3.35 12.15 16.77 8.38zm.42 0a23.89 23.89 0 016.71-6.29c3.77-2.09 10.06-2.09 10.06-2.09s-3.36 12.15-16.77 8.38zm0-5.45s-3.36-4.51-3.53-8.83 2.67-9.92 2.67-9.92 10.28 8.48.86 18.75zm36.03 55.94v-25.36a.43.43 0 10-.86 0v25.36z"/>
    <path d="M94.37 464.26a23.89 23.89 0 00-6.71-6.26c-3.77-2.09-10.06-2.09-10.06-2.09S81 468 94.37 464.26zm.42 0a23.89 23.89 0 016.71-6.26c3.77-2.09 10.06-2.09 10.06-2.09s-3.35 12.09-16.77 8.35zm-.42-15.09a23.89 23.89 0 00-6.71-6.29c-3.77-2.1-10.06-2.1-10.06-2.1s3.4 12.16 16.77 8.39zm.42 0a23.89 23.89 0 016.71-6.29c3.77-2.1 10.06-2.1 10.06-2.1s-3.35 12.16-16.77 8.39zm0-5.45s-3.36-4.51-3.52-8.83 2.66-9.89 2.66-9.89 10.28 8.45.86 18.72zm272.14 25.38v-23.46a.4.4 0 00-.8 0v23.46z"/>
    <path d="M366.14 464.64a22.09 22.09 0 00-6.2-5.82c-3.49-1.94-9.31-1.94-9.31-1.94s3.1 11.25 15.51 7.76zm.39 0a22 22 0 016.21-5.82c3.49-1.94 9.3-1.94 9.3-1.94s-3.1 11.25-15.51 7.76zm-.39-13.96a22.09 22.09 0 00-6.2-5.82c-3.49-1.94-9.31-1.94-9.31-1.94s3.1 11.25 15.51 7.76zm.39 0a22 22 0 016.21-5.82c3.49-1.94 9.3-1.94 9.3-1.94s-3.1 11.25-15.51 7.76zm0-5.04s-3.1-4.18-3.26-8.17 2.47-9.18 2.47-9.18 9.5 7.84.79 17.35zm67.94 23.46v-23.46a.4.4 0 00-.8 0v23.46z"/>
    <path d="M433.68 464.64a22.09 22.09 0 00-6.2-5.82c-3.49-1.94-9.31-1.94-9.31-1.94s3.1 11.25 15.51 7.76zm.39 0a22.2 22.2 0 016.21-5.82c3.49-1.94 9.31-1.94 9.31-1.94s-3.11 11.25-15.52 7.76zm-.39-13.96a22.09 22.09 0 00-6.2-5.82c-3.49-1.94-9.31-1.94-9.31-1.94s3.1 11.25 15.51 7.76zm.39 0a22.2 22.2 0 016.21-5.82c3.49-1.94 9.31-1.94 9.31-1.94s-3.11 11.25-15.52 7.76zm0-5.04s-3.1-4.18-3.26-8.17 2.47-9.18 2.47-9.18 9.5 7.84.79 17.35z"/>
  </g>
  <path d="M475.24 469H482m-364.11 0h348.12M40 469h68.66" fill="none" stroke="#263238" stroke-linecap="round" stroke-linejoin="round"/>
</svg>
