<svg xmlns="http://www.w3.org/2000/svg" viewBox="0 0 750 500">
  <path d="M94.11 326.06l-13.11.27-6.66.12c-2.22 0-4.46 0-6.69.05h-.44v-.44l-.05-11.19v-.51h.5l13.24.06c4.41 0 8.83.11 13.24.16h.28v.27c0 1.89-.08 3.78-.13 5.65zm0 0L94 320.4c0-1.86-.11-3.7-.13-5.53l.27.27c-4.41.05-8.83.16-13.24.16l-13.24.06.5-.49-.06 11.19-.44-.45c2.18 0 4.36 0 6.54.05l6.58.12zm-14.77 14.11l-13.13.27-6.66.12c-2.22 0-4.46 0-6.69.05h-.45v-12.14h.5l13.24.06c4.41 0 8.82.11 13.24.16h.27v.31c0 1.89-.08 3.78-.13 5.65zm0 0l-.14-5.66c0-1.86-.12-3.7-.13-5.53l.27.27c-4.42.05-8.83.16-13.24.16l-13.24.06.5-.49-.06 11.19-.44-.45h6.54l6.58.12zm373.55-158.33l-13.12.27-6.66.12c-2.23 0-4.46 0-6.7.05H426v-.44l-.06-11.19v-.51h.5l13.24.06c4.42 0 8.83.11 13.24.16h.28v.27c0 1.89-.09 3.78-.13 5.65zm0 0l-.14-5.66c0-1.86-.11-3.7-.13-5.53l.27.27c-4.41.05-8.82.16-13.24.16l-13.24.07.5-.5-.05 11.19-.45-.45c2.19 0 4.36 0 6.55.05l6.58.12zM438.12 196l-13.12.27-6.66.12h-7.14V196l-.06-11.19v-.51h.5l13.24.06c4.42 0 8.83.11 13.24.16h.28v.27c0 1.89-.09 3.78-.14 5.65zm0 0l-.14-5.66c0-1.86-.11-3.7-.13-5.53l.27.27c-4.41.05-8.82.16-13.24.16l-13.24.07.5-.5-.05 11.19-.45-.45c2.18 0 4.36 0 6.55.05l6.58.12zm-14.71-14.16l-13.13.27-6.66.12c-2.22 0-4.46 0-6.69.05h-.44v-.44l-.05-11.19v-.51h.5l13.24.06c4.41 0 8.83.11 13.24.16h.27v.27c0 1.89-.08 3.78-.13 5.65zm0 0l-.14-5.66c0-1.86-.11-3.7-.13-5.53l.27.27c-4.41.05-8.83.16-13.24.16l-13.24.07.5-.5-.06 11.19-.44-.45c2.18 0 4.36 0 6.54.05l6.58.12zm273.73 158.33l-13.12.27-6.66.12c-2.23 0-4.47 0-6.7.05h-.44v-.44l-.06-11.17v-.51h.5l13.24.06c4.42 0 8.83.11 13.24.16h.28v.29c0 1.89-.09 3.78-.14 5.65zm0 0l-.14-5.66c0-1.86-.11-3.7-.13-5.53l.27.27c-4.41.05-8.82.16-13.24.16l-13.24.06.5-.49v11.19l-.45-.45h6.55l6.58.12zM682.37 66.49l-13.12.27-6.67.12c-2.22 0-4.46 0-6.69.05h-.44v-.45l-.05-11.19v-.51h.5l13.24.06c4.41 0 8.83.11 13.24.16h.28v.27c0 1.9-.08 3.78-.13 5.65zm0 0l-.14-5.66c-.05-1.86-.11-3.7-.13-5.53l.27.27c-4.41 0-8.83.16-13.24.16l-13.24.07.5-.5v11.19l-.45-.45c2.18 0 4.36 0 6.55.06l6.58.11zm14.77 14.11l-13.14.27-6.66.12c-2.23 0-4.47 0-6.7.05h-.44v-.44l-.06-11.19v-.51h.5l13.26.1c4.42 0 8.83.11 13.24.16h.28v.27c0 1.9-.09 3.78-.14 5.65zm0 0l-.14-5.66c0-1.86-.11-3.7-.13-5.53l.27.27c-4.41 0-8.82.16-13.24.16l-13.24.07.5-.5V80.6l-.45-.45c2.18 0 4.36 0 6.55.06l6.58.11zM94.11 66.49L81 66.76l-6.66.12c-2.22 0-4.46 0-6.69.05h-.44v-.45l-.08-11.18v-.51h.5l13.24.06c4.41 0 8.83.11 13.24.16h.28v.27c0 1.9-.08 3.78-.13 5.65zm0 0L94 60.83c0-1.86-.11-3.7-.13-5.53l.27.27c-4.41 0-8.83.16-13.24.16l-13.24.07.5-.5-.06 11.19-.47-.49c2.18 0 4.36 0 6.54.06l6.58.11z" fill="#ebebeb"/>
  <path fill="#ebebeb" d="M89.41 45.67h152.28v203.96H89.41z"/>
  <path fill="#fff" d="M98.79 53.84h62.75v90.72H98.79zm70.76 0h62.75v90.72h-62.75zm-70.76 96.9h62.75v90.72H98.79zm70.76 0h62.75v90.72h-62.75z"/>
  <path fill="#dbdbdb" d="M89.41 45.67h40.81v291.8H89.41z"/>
  <path fill="#ebebeb" d="M122.47 59.54l.32 31.55.12 31.55.21 63.1-.21 63.1-.12 31.55-.32 31.55-.31-31.55-.11-31.55-.22-63.1.22-63.1.11-31.55.31-31.55zm-18.73 7.32l.31 28.17.18 28.17.16 56.34-.15 56.35-.18 28.17-.32 28.17-.32-28.17-.18-28.17-.15-56.35.15-56.34.18-28.17.32-28.17zm9.37 6.65l.31 32.99.12 32.98.21 65.98-.21 65.97-.12 32.99-.31 32.98-.32-32.98-.11-32.99-.22-65.97.22-65.98.11-32.98.32-32.99zM96.77 61.2l.31 34.53.12 34.52.22 69.05-.22 69.05-.11 34.53-.32 34.52-.32-34.52-.11-34.53-.22-69.05.22-69.05.11-34.52.32-34.53z"/>
  <path fill="#dbdbdb" d="M241.69 337.46h-40.81V45.66h40.81z"/>
  <path fill="#ebebeb" d="M208.62 59.54l.32 31.55.11 31.55.22 63.1-.22 63.1-.11 31.55-.32 31.55-.32-31.55-.11-31.55-.22-63.1.22-63.1.12-31.55.31-31.55zm18.74 7.32l.31 28.17.18 28.17.15 56.34-.14 56.35-.18 28.17-.32 28.17-.32-28.17-.18-28.17-.15-56.35.15-56.34.18-28.17.32-28.17zm-9.37 6.65l.31 32.99.12 32.98.21 65.98-.21 65.97-.11 32.99-.32 32.98-.32-32.98-.11-32.99-.22-65.97.22-65.98.11-32.98.32-32.99zm16.34-12.31l.31 34.53.11 34.52.22 69.05-.21 69.05-.12 34.53-.31 34.52-.32-34.52-.11-34.53-.22-69.05.22-69.05.11-34.52.32-34.53zm106.72-15.53h152.28v203.96H341.05z"/>
  <path fill="#fff" d="M350.44 53.84h62.75v90.72h-62.75zm70.76 0h62.75v90.72H421.2zm-70.76 96.9h62.75v90.72h-62.75zm70.76 0h62.75v90.72H421.2z"/>
  <path fill="#dbdbdb" d="M341.05 45.67h40.81v291.8h-40.81z"/>
  <path fill="#ebebeb" d="M374.12 59.54l.32 31.55.11 31.55.22 63.1-.22 63.1-.11 31.55-.32 31.55-.31-31.55-.12-31.55-.21-63.1.21-63.1.12-31.55.31-31.55zm-18.73 7.32l.31 28.17.18 28.17.15 56.34-.15 56.35-.18 28.17-.31 28.17-.32-28.17-.18-28.17-.15-56.35.15-56.34.18-28.17.32-28.17zm9.36 6.65l.32 32.99.11 32.98.22 65.98-.21 65.97-.12 32.99-.32 32.98-.31-32.98-.12-32.99-.21-65.97.21-65.98.12-32.98.31-32.99zM348.42 61.2l.31 34.53.12 34.52.21 69.05-.21 69.05-.12 34.53-.31 34.52-.32-34.52-.11-34.53-.22-69.05.22-69.05.11-34.52.32-34.53z"/>
  <path fill="#dbdbdb" d="M493.34 337.46h-40.81V45.66h40.81z"/>
  <path fill="#ebebeb" d="M460.27 59.54l.31 31.55.12 31.55.21 63.1-.21 63.1-.12 31.55-.31 31.55-.32-31.55-.11-31.55-.22-63.1.22-63.1.11-31.55.32-31.55zm18.74 7.32l.31 28.17.18 28.17.15 56.34-.15 56.35-.18 28.17-.31 28.17-.32-28.17-.18-28.17-.15-56.35.15-56.34.18-28.17.32-28.17zm-9.37 6.65l.31 32.99.12 32.98.21 65.98-.21 65.97-.12 32.99-.31 32.98-.32-32.98-.11-32.99-.22-65.97.22-65.98.11-32.98.32-32.99zm16.33-12.31l.32 34.53.11 34.52.22 69.05-.22 69.05-.11 34.53-.32 34.52-.31-34.52-.12-34.53-.21-69.05.22-69.05.11-34.52.31-34.53z"/>
  <circle cx="611.33" cy="77.44" r="31.77" transform="rotate(-80.13 611.328 77.445)" fill="#ebebeb"/>
  <circle cx="612.79" cy="78.15" r="30.32" fill="#dbdbdb"/>
  <circle cx="612.79" cy="78.15" r="28.4" fill="#fff"/>
  <path d="M640.55 72.12c-12.94 7.88-34.19 20.69-46.07 27.74a28.28 28.28 0 01-7.76-10.44L626 53a28.42 28.42 0 0114.55 19.12zm.62 7.02a28.06 28.06 0 01-1.88 9.23l-35.42 16.75a28.13 28.13 0 01-4.47-1.92c10.7-6.2 30.25-17.44 41.77-24.06z" fill="#ebebeb" opacity=".5"/>
  <path fill="#c7c7c7" d="M612.51 51.81h.55v4.3h-.55zm-13.146 3.635l.476-.275 2.155 3.732-.476.275zm-9.56 9.74l.275-.476 3.733 2.155-.275.476zM586.45 77.87h4.3v.55h-4.3zm3.412 13.251l3.732-2.155.275.477-3.732 2.155zm9.543 9.717l2.148-3.725.477.274-2.149 3.725zm13.105-.658h.55v4.31h-.55zm11.058-2.812l.476-.275 2.15 3.723-.476.275zm8.48-10.503l.275-.479 3.75 2.155-.275.479zm2.772-8.995h4.3v.55h-4.3zm-3.066-10.933l3.733-2.155.275.476-3.733 2.155zm-8.194-8.011l2.153-3.733.477.274-2.153 3.734z"/>
  <path fill="#c7c7c7" d="M613.2 53.76l.94 26.3-2.7-.03 1.03-26.28.73.01z"/>
  <path fill="#a6a6a6" d="M629.59 68.97l-17.7 11.3-1.29-2.37 18.64-9.57.35.64z"/>
  <path d="M613.71 78.15a.92.92 0 11-.92-.92.92.92 0 01.92.92z" fill="#c7c7c7"/>
  <ellipse cx="375" cy="420.49" rx="313.6" ry="39.85" fill="#ebebeb"/>
  <path fill="#263238" d="M47.76 368.36l81.81-.24 81.81-.09 163.62-.17 163.62.17 81.81.09 81.81.24-81.81.25-81.81.08-163.62.17-163.62-.17-81.81-.08-81.81-.25z"/>
  <path fill="#34a37e" d="M127.12 408.33l49.48-19.08 291.62 19.08 68.34-283.81H165.47l-38.35 283.81z"/>
  <path d="M127.12 408.33l49.48-19.08 291.62 19.08 68.34-283.81H165.47l-38.35 283.81z" opacity=".2"/>
  <path fill="#34a37e" d="M606.04 408.33H234.95L166.6 124.52h371.1l68.34 283.81z"/>
  <path fill="#fff" opacity=".5" d="M606.04 408.33H234.95L166.6 124.52h371.1l68.34 283.81z"/>
  <path fill="#34a37e" d="M234.95 408.33l-58.35-24.46-49.48 24.46 49.48-19.08 58.35 19.08z"/>
  <path fill="#34a37e" d="M176.6 383.87h52.46l5.89 24.46-58.35-24.46z"/>
  <path opacity=".1" d="M176.6 383.87h52.46l5.89 24.46-58.35-24.46z"/>
  <path d="M227.58 124.56a19.16 19.16 0 01.25 9.19 11.68 11.68 0 01-2.45 5 9.27 9.27 0 01-6.81 3.38 5.49 5.49 0 01-.91-.07 2.21 2.21 0 11.61-4.37 4.63 4.63 0 003.75-1.8 6.6 6.6 0 001.21-2.1c.91-2.37.83-5.53-.22-9.19 0-.09-.06-.19-.08-.28-1.66-5.48-5.24-7.92-7.77-7.44-2.25.43-3.44 3.21-3.09 7.26a2.34 2.34 0 010 .46h-4.39v-.09c-.65-7.77 3.19-11.31 6.67-12 4.54-.87 10.4 2.46 12.83 10.49.14.53.27 1.05.4 1.56zm-27.24 0a19.06 19.06 0 01.26 9.19 11.91 11.91 0 01-2.45 5 9.29 9.29 0 01-6.82 3.38 5.58 5.58 0 01-.91-.07 2.21 2.21 0 01.61-4.37 4.63 4.63 0 003.75-1.8 6.6 6.6 0 001.21-2.1c.91-2.37.84-5.53-.22-9.19 0-.09-.06-.19-.08-.28-1.66-5.48-5.25-7.91-7.77-7.44-2.24.43-3.43 3.21-3.08 7.26a2.34 2.34 0 010 .46h-4.4v-.09c-.66-7.77 3.18-11.31 6.67-12 4.53-.87 10.39 2.46 12.82 10.49.15.53.29 1.05.41 1.56zm81.71 0a19.06 19.06 0 01.26 9.19 11.79 11.79 0 01-2.46 5 9.26 9.26 0 01-6.81 3.38 5.49 5.49 0 01-.91-.07 2.21 2.21 0 11.61-4.37 4.62 4.62 0 003.75-1.8 6.6 6.6 0 001.21-2.1c.91-2.37.83-5.53-.22-9.19 0-.09-.06-.19-.08-.28-1.66-5.48-5.24-7.92-7.77-7.44-2.24.43-3.43 3.21-3.09 7.26a1.76 1.76 0 010 .46h-4.39v-.09c-.65-7.77 3.19-11.31 6.68-12 4.53-.87 10.39 2.46 12.82 10.49.14.53.27 1.05.4 1.56zm-27.24 0a19.06 19.06 0 01.26 9.19 11.79 11.79 0 01-2.46 5 9.25 9.25 0 01-6.8 3.38 5.62 5.62 0 01-.92-.07 2.21 2.21 0 01.61-4.37 4.66 4.66 0 003.76-1.8 6.6 6.6 0 001.21-2.1c.91-2.37.83-5.53-.23-9.19 0-.09-.06-.19-.08-.28-1.65-5.48-5.24-7.92-7.77-7.44-2.24.43-3.43 3.21-3.08 7.26a2.34 2.34 0 010 .46h-4.39v-.09c-.66-7.77 3.19-11.31 6.67-12 4.54-.87 10.39 2.46 12.82 10.49.14.53.28 1.05.4 1.56zm54.48 0a19.16 19.16 0 01.25 9.19 11.79 11.79 0 01-2.46 5 9.24 9.24 0 01-6.8 3.38 5.7 5.7 0 01-.92-.07 2.21 2.21 0 11.62-4.37 4.63 4.63 0 003.75-1.8 6.6 6.6 0 001.21-2.1c.91-2.37.83-5.53-.22-9.19l-.09-.28c-1.65-5.48-5.24-7.92-7.76-7.44-2.25.43-3.44 3.21-3.09 7.26a2.34 2.34 0 010 .46h-4.39v-.09c-.65-7.77 3.19-11.31 6.67-12 4.54-.87 10.39 2.46 12.83 10.49.11.53.27 1.05.4 1.56zm27.23 0a19.06 19.06 0 01.26 9.19 11.79 11.79 0 01-2.46 5 9.25 9.25 0 01-6.8 3.38 5.62 5.62 0 01-.92-.07 2.21 2.21 0 11.61-4.37 4.66 4.66 0 003.76-1.8 6.79 6.79 0 001.21-2.1c.9-2.37.82-5.53-.23-9.19l-.09-.28c-1.65-5.48-5.23-7.92-7.76-7.44-2.24.43-3.43 3.21-3.08 7.26v.46h-4.39v-.09c-.66-7.77 3.18-11.31 6.67-12 4.53-.87 10.39 2.46 12.82 10.49.14.53.27 1.05.4 1.56zm27.24 0a19.06 19.06 0 01.26 9.19 11.79 11.79 0 01-2.46 5 9.29 9.29 0 01-6.81 3.38 5.49 5.49 0 01-.91-.07 2.21 2.21 0 11.61-4.37 4.63 4.63 0 003.75-1.8 6.6 6.6 0 001.21-2.1c.91-2.37.83-5.53-.22-9.19l-.09-.28c-1.65-5.48-5.24-7.92-7.76-7.44-2.24.43-3.43 3.21-3.09 7.26a2.34 2.34 0 010 .46h-4.39v-.09c-.65-7.77 3.19-11.31 6.67-12 4.53-.87 10.4 2.46 12.82 10.49.15.53.28 1.05.41 1.56zm54.47 0a19.06 19.06 0 01.26 9.19 11.79 11.79 0 01-2.46 5 9.27 9.27 0 01-6.81 3.38 5.58 5.58 0 01-.91-.07 2.21 2.21 0 11.61-4.37 4.65 4.65 0 003.76-1.8 6.79 6.79 0 001.21-2.1c.89-2.37.82-5.53-.24-9.19 0-.09 0-.19-.08-.28-1.65-5.48-5.24-7.92-7.76-7.44-2.24.43-3.43 3.21-3.09 7.26a3.53 3.53 0 010 .46h-4.4v-.09c-.65-7.77 3.19-11.31 6.67-12 4.53-.87 10.4 2.46 12.82 10.49.19.53.29 1.05.42 1.56zm-27.23 0a19.06 19.06 0 01.26 9.19 11.79 11.79 0 01-2.46 5 9.25 9.25 0 01-6.8 3.38 5.62 5.62 0 01-.92-.07 2.21 2.21 0 01.61-4.37 4.65 4.65 0 003.76-1.8 6.79 6.79 0 001.21-2.1c.9-2.37.83-5.53-.23-9.19l-.09-.28c-1.64-5.48-5.23-7.92-7.75-7.44-2.25.43-3.44 3.21-3.09 7.26v.46h-4.39v-.09c-.65-7.77 3.19-11.31 6.67-12 4.52-.87 10.39 2.46 12.82 10.49.13.53.26 1.05.4 1.56zm54.47 0a19.06 19.06 0 01.26 9.19 11.79 11.79 0 01-2.46 5 9.29 9.29 0 01-6.81 3.38 5.49 5.49 0 01-.91-.07 2.21 2.21 0 11.61-4.37 4.63 4.63 0 003.75-1.8 6.79 6.79 0 001.21-2.1c.9-2.37.83-5.53-.23-9.19 0-.09-.05-.19-.08-.28-1.65-5.48-5.24-7.92-7.76-7.44-2.25.43-3.44 3.21-3.1 7.26a2.36 2.36 0 010 .46h-4.39v-.09c-.65-7.77 3.18-11.31 6.67-12 4.53-.87 10.4 2.46 12.82 10.49.16.53.29 1.05.42 1.56zm54.47 0a19.06 19.06 0 01.26 9.19 11.79 11.79 0 01-2.46 5 9.28 9.28 0 01-6.82 3.38 5.54 5.54 0 01-.9-.07 2.21 2.21 0 11.61-4.37 4.63 4.63 0 003.75-1.8 6.79 6.79 0 001.21-2.1c.9-2.37.83-5.53-.23-9.19 0-.09-.05-.19-.08-.28-1.65-5.48-5.22-7.92-7.76-7.44-2.25.43-3.43 3.21-3.1 7.26a2.36 2.36 0 010 .46H480v-.09c-.65-7.77 3.18-11.31 6.67-12 4.54-.87 10.4 2.46 12.82 10.49.19.53.32 1.05.45 1.56zM525 138.71a9.29 9.29 0 01-6.82 3.38 5.46 5.46 0 01-.9-.07 2.21 2.21 0 11.61-4.37 4.65 4.65 0 003.75-1.8c2.09-2.45 2.41-6.57.9-11.57-1.65-5.48-5.24-7.91-7.76-7.44-2.26.43-3.44 3.21-3.1 7.26a2.34 2.34 0 010 .46h-4.38v-.09c-.65-7.77 3.18-11.31 6.66-12 4.54-.87 10.4 2.46 12.83 10.49 2.6 8.82-.02 13.66-1.79 15.75zm-52.3-14.15a19.06 19.06 0 01.26 9.19 11.79 11.79 0 01-2.46 5 9.26 9.26 0 01-6.81 3.38 5.58 5.58 0 01-.91-.07 2.21 2.21 0 01.61-4.37 4.64 4.64 0 003.76-1.8 6.79 6.79 0 001.21-2.1c.9-2.37.83-5.53-.24-9.19 0-.09-.05-.19-.08-.28-1.64-5.48-5.22-7.92-7.75-7.44-2.25.43-3.44 3.21-3.1 7.26a3.53 3.53 0 010 .46h-4.39v-.09c-.65-7.77 3.18-11.31 6.66-12 4.54-.87 10.4 2.46 12.82 10.49.16.53.29 1.05.42 1.56zm-212.57 84.72h-38.44l-9.21-38.44h38.44l9.21 38.44z" fill="#455a64"/>
  <path fill="#fff" d="M304.57 209.28h-38.43l-9.21-38.44h38.44l9.2 38.44zm44.49 0h-38.43l-9.21-38.44h38.44l9.2 38.44zm44.47 0H355.1l-9.21-38.44h38.43l9.21 38.44zm44.47 0h-38.43l-9.21-38.44h38.43l9.21 38.44zm44.47 0h-38.43l-9.21-38.44h38.43l9.21 38.44zm44.47 0H488.5l-9.2-38.44h38.43l9.21 38.44z"/>
  <path fill="#455a64" d="M270.54 252.75h-38.43l-9.21-38.44h38.43l9.21 38.44z"/>
  <path fill="#fff" d="M315.01 252.75h-38.44l-9.2-38.44h38.43l9.21 38.44zm44.47 0h-38.44l-9.21-38.44h38.44l9.21 38.44zm44.47 0h-38.44l-9.21-38.44h38.44l9.21 38.44zm44.47 0h-38.44l-9.21-38.44h38.44l9.21 38.44zm44.47 0h-38.44l-9.21-38.44h38.44l9.21 38.44zm44.47 0h-38.44l-9.21-38.44h38.44l9.21 38.44z"/>
  <path fill="#455a64" d="M280.96 296.22h-38.44l-9.21-38.44h38.44l9.21 38.44z"/>
  <path fill="#fff" d="M325.43 296.22h-38.44l-9.21-38.44h38.44l9.21 38.44zm44.46 0h-38.43l-9.21-38.44h38.44l9.2 38.44zm44.47 0h-38.43l-9.21-38.44h38.43l9.21 38.44zm44.47 0H420.4l-9.21-38.44h38.43l9.21 38.44zm44.47 0h-38.43l-9.21-38.44h38.43l9.21 38.44zm44.47 0h-38.44l-9.2-38.44h38.43l9.21 38.44z"/>
  <path fill="#455a64" d="M291.37 339.69h-38.43l-9.21-38.44h38.43l9.21 38.44z"/>
  <path fill="#fff" d="M335.84 339.69h-38.43l-9.21-38.44h38.43l9.21 38.44zm44.47 0h-38.44l-9.2-38.44h38.43l9.21 38.44zm44.47 0h-38.44l-9.21-38.44h38.44l9.21 38.44zm44.47 0h-38.44l-9.21-38.44h38.44l9.21 38.44zm44.47 0h-38.44l-9.21-38.44h38.44l9.21 38.44zm44.46 0h-38.43l-9.21-38.44h38.44l9.2 38.44z"/>
  <path fill="#455a64" d="M301.79 383.16h-38.44l-9.21-38.43h38.44l9.21 38.43z"/>
  <path fill="#fff" d="M346.26 383.16h-38.44l-9.21-38.43h38.44l9.21 38.43zm44.47 0h-38.44l-9.21-38.43h38.44l9.21 38.43zm44.46 0h-38.43l-9.21-38.43h38.44l9.2 38.43zm44.47 0h-38.43l-9.21-38.43h38.43l9.21 38.43zm44.47 0H485.7l-9.21-38.43h38.43l9.21 38.43zm44.47 0h-38.43l-9.21-38.43h38.43l9.21 38.43z"/>
  <path d="M224.84 161.27a2.42 2.42 0 00-.75-.45 2.78 2.78 0 00-1-.17 1.45 1.45 0 00-1 .29.77.77 0 00-.16.78 1.07 1.07 0 00.2.43 1 1 0 00.35.28 2.17 2.17 0 00.55.22l.76.17c.32.07.62.14.88.22a2.65 2.65 0 01.7.31 1.59 1.59 0 01.8 1.09 1.31 1.31 0 010 .68.94.94 0 01-.31.49 1.42 1.42 0 01-.59.29 3.35 3.35 0 01-.81.09 4.29 4.29 0 01-2.51-.83l.17-.46a3.2 3.2 0 00.45.3 2.9 2.9 0 00.53.26 4.24 4.24 0 00.61.17 3.39 3.39 0 00.64.06 1.67 1.67 0 001-.25.66.66 0 00.21-.75 1.18 1.18 0 00-.22-.45 1.34 1.34 0 00-.41-.31 2.5 2.5 0 00-.59-.23l-.8-.2a8.61 8.61 0 01-.85-.22 2.77 2.77 0 01-.65-.28 1.61 1.61 0 01-.45-.41 1.67 1.67 0 01-.25-.59 1.44 1.44 0 010-.71 1.05 1.05 0 01.3-.52 1.56 1.56 0 01.57-.31 2.76 2.76 0 01.8-.11 3.38 3.38 0 011.07.17 3.77 3.77 0 01.93.49zm4.9 4.2a1.57 1.57 0 00.85-.2 1.15 1.15 0 00.45-.55 1.84 1.84 0 00.12-.76 5.23 5.23 0 00-.13-.87l-.69-2.9h.57l.69 2.9a5 5 0 01.14 1.11 2.22 2.22 0 01-.2.92 1.51 1.51 0 01-.6.63 2.1 2.1 0 01-1.07.23 2.9 2.9 0 01-1.21-.24 2.84 2.84 0 01-.9-.66 3.49 3.49 0 01-.63-.92 5.67 5.67 0 01-.38-1.07l-.69-2.9h.56l.69 2.9a6.51 6.51 0 00.3.88 3.06 3.06 0 00.49.77 2.28 2.28 0 00.7.53 2 2 0 00.94.2zm3.34-4.23l1.13 4.7h-.57l-1.38-5.75h.44l5 4.79-1.14-4.78h.56l1.38 5.74h-.5zm38.01 4.7l-1.09-4.72-1.23 3.65h-.33l-3-3.65 1.13 4.72H266l-1.38-5.75h.59l3.18 3.94 1.32-3.94h.58l1.38 5.75zm4.34.06a2.9 2.9 0 01-1.16-.24 4 4 0 01-1-.66 3.72 3.72 0 01-.78-.94 3.94 3.94 0 01-.45-1.07A3 3 0 01272 162a2.22 2.22 0 01.35-.93 2 2 0 01.7-.64 2.08 2.08 0 011-.24 2.74 2.74 0 011.15.25 4.09 4.09 0 011 .67 4.65 4.65 0 01.77.94 3.88 3.88 0 01.45 1.06 2.8 2.8 0 01.05 1.11 2.12 2.12 0 01-.34.92 2 2 0 01-.7.65 2.18 2.18 0 01-1 .21zm-2.83-2.91a2.91 2.91 0 00.37.9 3.09 3.09 0 00.62.77 3 3 0 00.8.53 2 2 0 00.91.2 1.61 1.61 0 00.84-.21 1.5 1.5 0 00.54-.55 1.93 1.93 0 00.24-.77 2.58 2.58 0 00-.06-.87 3.14 3.14 0 00-.38-.91 3.27 3.27 0 00-.62-.76 3 3 0 00-.8-.53 2 2 0 00-.91-.2 1.67 1.67 0 00-.83.2 1.5 1.5 0 00-.54.55 2.12 2.12 0 00-.25.77 2.41 2.41 0 00.07.86zm6.03-1.85l1.12 4.7h-.56l-1.38-5.75h.43l5 4.79-1.14-4.78h.56l1.38 5.74h-.5zm36.37-.55h-2l1.26 5.25h-.57l-1.26-5.25h-2.05l-.12-.5h4.67zm4.35 4.78a1.63 1.63 0 00.86-.2 1.19 1.19 0 00.44-.55 1.84 1.84 0 00.12-.76 4.36 4.36 0 00-.13-.87l-.69-2.9h.57l.69 2.9a5 5 0 01.14 1.11 2.22 2.22 0 01-.2.92 1.51 1.51 0 01-.6.63 2.1 2.1 0 01-1.07.23 2.94 2.94 0 01-1.21-.24 2.84 2.84 0 01-.9-.66 3.75 3.75 0 01-.63-.92 5.67 5.67 0 01-.38-1.07l-.69-2.9h.56l.69 2.9a5.4 5.4 0 00.31.88 3 3 0 00.48.77 2.28 2.28 0 00.7.53 2 2 0 00.94.2zm7.65-.03l.12.5h-3.86l-1.38-5.75h3.79l.12.5h-3.22l.5 2.08h2.81l.11.47h-2.81l.53 2.2zm28.85-5.21h.53l1.3 2 .33-2h.54l-.41 2.46 1.72 2.6.86-5.1h.62l-1.06 5.75h-.5l-1.89-2.84-.54 2.84h-.49l-3.81-5.75h.61l3.31 5.1.47-2.6zm11.42 5.21l.12.5h-3.86l-1.38-5.75h3.79l.12.5h-3.22l.5 2.08h2.81l.11.47h-2.81l.53 2.2zm1.19.5l-1.37-5.75h2a3.4 3.4 0 011.26.23 3.27 3.27 0 011 .61 3.6 3.6 0 01.74.91 4 4 0 01.44 1.12 3.11 3.11 0 01.09 1.19 1.88 1.88 0 01-.34.9 1.82 1.82 0 01-.72.59 2.79 2.79 0 01-1.09.2zm3.45-2.88a3.3 3.3 0 00-.37-.95 3.19 3.19 0 00-.6-.75 2.7 2.7 0 00-1.78-.67h-1.39l1.14 4.75h1.39a2.06 2.06 0 00.9-.18 1.36 1.36 0 00.56-.5 1.7 1.7 0 00.24-.76 2.85 2.85 0 00-.09-.94zm31.52-2.37h-2.05l1.25 5.25h-.56l-1.26-5.25h-2.05l-.12-.5h4.67zm5.27-.5l1.38 5.75h-.56l-.64-2.69h-3.41l.64 2.69h-.57l-1.37-5.75h.56l.62 2.56h3.41l-.62-2.56zm5.05 5.28a1.59 1.59 0 00.85-.2 1.15 1.15 0 00.45-.55 1.84 1.84 0 00.11-.76 4.34 4.34 0 00-.12-.87l-.69-2.9h.56l.7 2.9a4.41 4.41 0 01.13 1.11 2.22 2.22 0 01-.19.92 1.51 1.51 0 01-.6.63 2.1 2.1 0 01-1.07.23 2.87 2.87 0 01-1.21-.24 2.84 2.84 0 01-.9-.66 3.27 3.27 0 01-.63-.92 5.67 5.67 0 01-.38-1.07l-.69-2.9h.55l.7 2.9a4.57 4.57 0 00.3.88 3.06 3.06 0 00.49.77 2.16 2.16 0 00.7.53 2 2 0 00.94.2zm33.8.47l-1.37-5.75H450l.12.5h-3.21l.51 2.12h2.71l.11.47h-2.71l.64 2.66zm4.78 0l-1.33-5.75h2.43a1.64 1.64 0 01.72.16 2.26 2.26 0 01.64.41 2.48 2.48 0 01.49.58 2.08 2.08 0 01.28.66 1.8 1.8 0 01.06.6 1.43 1.43 0 01-.14.52 1.16 1.16 0 01-.31.39 1.06 1.06 0 01-.47.21l1.94 2.22H456l-1.86-2.12h-1.7l.51 2.12zm-.06-2.62h1.88a.86.86 0 00.43-.11.74.74 0 00.28-.3 1.09 1.09 0 00.13-.42 1.65 1.65 0 000-.49 1.39 1.39 0 00-.22-.5 1.73 1.73 0 00-.79-.7 1.19 1.19 0 00-.47-.11h-1.83zm5.35 2.62l-1.38-5.75h.57l1.38 5.75zm35.46-4.67a2.47 2.47 0 00-.76-.45 2.73 2.73 0 00-1-.17 1.44 1.44 0 00-1 .29.77.77 0 00-.16.78 1.06 1.06 0 00.19.43 1.15 1.15 0 00.36.28 2.17 2.17 0 00.55.22l.76.17c.32.07.62.14.88.22a2.65 2.65 0 01.7.31 1.64 1.64 0 01.5.44 1.7 1.7 0 01.3.65 1.43 1.43 0 010 .68 1 1 0 01-.32.49 1.38 1.38 0 01-.58.29 3.35 3.35 0 01-.81.09 4.26 4.26 0 01-2.51-.83l.17-.46a3.07 3.07 0 00.44.3 3.36 3.36 0 00.54.26 3.78 3.78 0 00.6.17 3.49 3.49 0 00.65.06 1.67 1.67 0 001-.25.67.67 0 00.2-.75 1 1 0 00-.22-.45 1.29 1.29 0 00-.4-.31 2.78 2.78 0 00-.6-.23c-.23-.07-.5-.13-.8-.2s-.6-.14-.85-.22a2.88 2.88 0 01-.64-.28 1.61 1.61 0 01-.45-.41 1.68 1.68 0 01-.26-.59 1.56 1.56 0 010-.71 1.05 1.05 0 01.3-.52 1.6 1.6 0 01.58-.31 2.71 2.71 0 01.8-.11 3.27 3.27 0 011.06.17 4 4 0 01.94.49zm2.98-1.08h.48l3.77 5.75h-.6l-1.18-1.8H496l-.31 1.8H495zm2.24 3.51l-1.84-2.85-.5 2.85zm5.1-3.01h-2l1.25 5.25H502l-1.26-5.25h-2l-.12-.5h4.67z" fill="#37474f"/>
  <path d="M331 295.35c-.06 0 .15.2.18.24.01-.13-.26-.28-.18-.24zm.27-1.24l.07.09-.09-.31.02.22zm.73-.78c-.4-.23-.2.33-.44.36h-.1l.21.31c.09-.25.11-.64.33-.67zm1.1.25c-.16-.09 0-.19-.13.06zm-.1.07c-.06.09.16.05 0 0zm.29-.44v.21c.1.05.2 0 .23.06.05-.17-.04-.22-.23-.27zm-.16-.33v.1s.07.02 0-.1zm0 .31V293c-.07 0-.18-.13 0 .09-.13-.09-.03-.01 0 .1zm-.13.02c-.13 0-.25 0-.27-.18-.12.25.15.43.27.18zm-1.33-.21h-.18l.05.17c-.02-.12.24-.1.13-.17zm2.41-.31a3.16 3.16 0 00-.33-.21v.15c.1.01.25-.03.33.06zm-.33-.21v-.23c-.13.09-.09.16 0 .23zm-.98.04l.09.43-.06-.47-.03.04zm1.73-.28l.11.22-.15-.35.04.13zm.25-.33c.09.18.3.15.33.28a.71.71 0 00-.05-.44c-.03.12-.03.17-.28.16zm.25-.41a1.09 1.09 0 00.06.25.69.69 0 00-.06-.25zm-1 .58a.48.48 0 00.29.09L334 292zm0-.08l.1-.09zm-.06.09s-.02-.03 0 0zm-.7.28c-.05-.17 0-.43-.34-.44.1.17.26.18.34.44zm.4-.46l-.17.09c.06.05.16.09.18.18zm-.01-.12v.12l.06-.03-.06-.09zm.95-.25a.32.32 0 01.05-.28.76.76 0 00-.26.16c.06.07.14.21.21.12zm-.3.22s-.04-.03 0 0zm.96-1.16h-.05z" fill="#34a37e"/>
  <path d="M334.32 291.4c-.09 0-.07.1 0 .19a.53.53 0 01.08-.17s-.07-.04-.08-.02zm.68-.17h-.2c.13.02.28.05.2 0zm-.65.54c.06.04.04.02 0 0zm0 0a1.89 1.89 0 00-.06-.18.77.77 0 000 .15zm-.24-2.56c.18.18.23.48-.09.42 0 .25.73.74 1.17.94a.42.42 0 01-.15-.37c-.14-.05-.5.06-.57-.2s.19-.08.36-.07c-.29-.14-.15-.52-.53-.79v.25c-.06-.04-.1-.17-.19-.18zm.89 1.58v.08a.77.77 0 01.42.05.47.47 0 00-.12-.31l-.26.23z" fill="#34a37e"/>
  <path d="M334.72 291.1c-.17-.23-.14-.43-.43-.55-.13.16.07.26.08.43.17-.29.05.17.33.1a.42.42 0 01-.07.18h.21s-.05 0 0 0l-.07-.08c.11 0 .07 0 .07.08l.11-.34c-.09-.03-.15.08-.23.18zm-2.15.3h.06s-.02-.03-.06 0zm.22.01s.08.13 0 .17-.1-.09-.17-.15 0 .26.23.24a1 1 0 01.55.11 3.25 3.25 0 00-.61-.37zm.92-.21l.08-.3h-.27l.11.09c-.14.01.01.12.08.21zm1.65-.53l.2.22-.2-.4v.18zm.22-.29l.18.18-.05-.18h-.13zm11.23-17.07zm-.4.43l.08.09c-.03-.07-.06-.11-.08-.09zm-4.94 10.11c.26.07.62.22.4 0l-.24-.16c-.01.14-.08.16-.16.16zm2.81-5.57h-.09l.15.24zm-.8-.83h.23a.45.45 0 00-.23 0zm5.27-6.7l-.15-.26c-.1.11.05.15.15.26zM338 287.59a.47.47 0 00.29-.07c-.23-.02-.47-.1-.29.07zm10.86-12.12a.21.21 0 00-.08-.17.19.19 0 00.08.17z" fill="#34a37e"/>
  <path d="M338.46 287.3h-.08a.35.35 0 01-.12.22c.15.01.28-.02.2-.22zm18.26-24.99s.01-.01 0 0zm4.37-.61a.59.59 0 01-.08.11s.06-.04.08-.11zm-24.45 27.69c0 .07 0 0 0 0zm-1.07-.46a.35.35 0 00-.08-.12.49.49 0 01.08.12zm2.11-3.35c-.05-.03-.04-.02 0 0zm-1.21 3.81h.12a.28.28 0 00-.12 0zm.1.08h-.06s.06.08.06 0zm.13-.17a.28.28 0 01-.11.08h.05zm16.4-21.89c-.01-.12-.02-.09 0 0zm-12.46 13.04zm.03-.34c.18.32.11.34 0 .35l.66.47z" fill="#34a37e"/>
  <path d="M347.7 272.22h-.32c-.15-.44.07-.47-.31-.57.63.6-.44.61.19 1.21h-.22v-.08c-.48-.1.35.56 0 .71a.22.22 0 01-.3-.12v.33c-.06 0-.16-.07-.1-.11l-.2.32a2.7 2.7 0 01.17.47c-.16 0 0-.1-.13-.16v.3c-.22-.09-.27-.36-.15-.45-.78-.44.05.28-.61.24l.05-.21c-.46-.24-.42 0-.8 0 .15.07.87.19.88.5-.09 0-.17 0-.12.25-.23-.2-.25-.06-.34.06l-.3-.29c0 .2.15.33.22.53-.15.1-.41-.08-.64-.23-.24.17.51.19.34.5-.27.07-.26.3-.27.68-.22 0-.17-.19-.3-.22l.15.32s-.1-.05-.13-.09c0 .18.3.28.25.5.3.35-.76-.14-.54.38-.13 0-.17-.19-.3-.28a2.19 2.19 0 00.14.88h-.36c.35.08.47.49.57.83l.35.12v.37c-.07 0-.16-.13-.25-.28v.1c-.18 0-.32-.22-.44-.43l.26.09a2.24 2.24 0 00-.48-.61.19.19 0 010 .15.29.29 0 00-.11-.13s0 .06.06.17l-.39-.26.12.14-.48.1c.15.52.49 1.16.33 1.62-.18-.31-.4-.39-.69-.66.4.19.1-.38.33-.49-.12.06-.24-.09-.27-.16v.57c-.23-.23-.24-.1-.41-.11.53.37.11.52.14.78-.17-.14-.31-.32-.13-.43-.51-.16.37.72-.09.61 0 0 .07 0 0-.12.07.21-.24.32-.34.15-.28.2-.69.75-.32 1.16-.05-.05-.46-.48-.53-.57l1 1.68c-.31-.35-1.28-.95-1.29-1.34-.11 0-.23 0-.22.28.08 0 .59.35.58.43a3.26 3.26 0 00-.81-.19c.13 0 .62.57.51.65-.07-.09-.55-.48-.57-.57l.32.73c0-.15-.45-.42-.65-.51.13.07-.19.2-.2.31h.22c-.33.2.51.95.24 1.19-.08-.13-.61-.69-.8-.62a6.37 6.37 0 011.07 1.9l-.2-.1v.35a16.33 16.33 0 01-1.07-2.07c-.22 0-.21-.14-.34 0a.23.23 0 01-.11-.33l-.42.26c.34.28.08.56.36.79v-.68c.34.27.71 1 .43 1.24-.18-.05-.53-.56-.64-.66.08.14 0 .43-.1.38l-.08-.26c-.25 0 .22.61-.24.5-.07 0-.57-.2-.39 0a8.93 8.93 0 011.83 1.56 4 4 0 01-.87-.12c-.37-.16-.56-.76-.88-.9a.71.71 0 01.16.29c-.13 0-.25-.27-.33-.1.31.31-.27.24.22.31 0 .21-.19.07-.31.24a1.66 1.66 0 01.57 1 1.14 1.14 0 00-.27-.18c-.27.24-.55.24-.77.49-.1-.05-.31 0-.4-.2 0 .09.1.22 0 .31-.41-.11.11-.21-.33-.41.18.18.09.44.11.65.32.23.28-.2.26-.41a1.76 1.76 0 01.61 1.35c-.09.3-.34-.14-.32-.06-.42.32.41 1-.17 1-.37-.1-.52-.45-.73-.59.06-.26.4-.11.49-.23h-.25c0-.13 0-.3.13-.3-.33-.1-.63.61-1.12.72 0 .13 0 .3.19.35l.05-.13c.29.1.13.44.33.4 0 .26.14.61-.14.68l-.33-.23c.09.07.28 0 .24-.09.06.19-.64-.09-.33.34l.31.06c0 .26.21.69 0 .77.36.19 0-.07.44.13-.51-.29.38-.39-.2-.63.5.24.34-.05.82.1-.1-.08-.24-.11-.07-.2a.6.6 0 01-.06-.11.58.58 0 01-.21-.07c-.16-.26 0-.47 0-.64.11 0 .08.13.22.18l-.08-.26c.23.19.55.12.51.41l.16-.15c.21 0 .38-.08.36-.25s-.06-.41.05-.19l.1-.38h.06c.26-.23.12-.85.78-.79a.4.4 0 01.23-.38l.21.14c0-.17.49-.16.33-.38.61.33.6-.44.87-.56l-.24-.22a1 1 0 00.24-.57l-.23-.18c0-.3.49-.23.68-.48.06.09 0 .13-.1.12.73.17.17-.88.75-.81 0-.13 0-.15.13-.15h.19-.18a.53.53 0 00.09-.27l.25.18c.15 0-.06-.15-.26-.27a.9.9 0 00-.06-.22c.42.28 0-.3.51 0-.15-.22.18-.48-.2-.89.06.05.1.05.07.09.12 0 .24-.07.18-.24l.33.23-.24-.53a.63.63 0 01.55.41c-.12-.56.05-.31-.1-.84l.18.19c.06-.09-.08-.44.11-.34.52.15.81-.79 1.54-.93-.63-.41.44 0 0-.38.16.09.28.1.34.27.07-.34.51-.14.28-.62.16.09.15.22.25.27s-.05-.18.05-.13.08.13.11.22c.18-.25-.21-.64-.57-1 .28 0 .31 0 .14-.34.16.08.35.13.26.31.09-.06.63-.32.33-.6.1 0 .12-.09.1-.15.18-.16.23-.15.36-.35h-.1c-.3-.4.05-.22.14-.4.56-.08 0-.25.59-.3l-.24-.19c-.47-.47.54 0 .52-.37l-.19-.05c-.08-.25.93.32 1.08.28s0 .09 0 .15c.53 0-.27-.3-.16-.56.2.11.37.41.52.31.19.05-.17-.86.3-.76-.16-.08-.32-.15-.33-.32s.82 0 .54-.44a.23.23 0 01.12.06c0-.2.15-.5 0-.76.88.62.22-1 1-.35l.26-.37.06.08c.24-.17.14-.4 0-.63.09 0 .13.09.16.13.43-.18.43-.24.3-.82l.26.18c-.07-.19.78-.11.78-.66a.32.32 0 01.07.13c0-.59 1.4-.23.65-1.13v-.42c-.33.24-.33-.38-.58-.39.05-.16.53-.06.44.12h-.06c.4.45.49-.22.79.06.5-.59 1.25-.92 1.76-1.44l-.41-.26.19-.17c.13 0 .34.19.2.31.26.1 0-.38 0-.45.37-.13.31.47.39.4l.07-.14h.09c-.06-.21-.21-.36 0-.5s.26.14.31.11.05 0 .07-.05l.24-.21-.36-.15c0-.23.21-.21-.2-.39.63.28 1-.72 1.21-.68a.56.56 0 01.26-.63c-.1 0-.44-.26-.26-.38.59.63.54 0 1.11.26-.41-.16.32-.51-.27-.72.17-.09.25.2.49.24 0-.53.77-.53 1-1-.07-.08-.26-.14-.31-.33l.6.18c0-.11-.42-.51 0-.38-.09 0-.22-.11-.2-.19 1.09-.37 1-1.82 2.5-1.88-.26 0-.21-.12-.15-.21s-.2-.19-.33-.28h.61c-.27-.34.28-.36 0-.66v.15c-.23-.46-1-.53-1.4-1 .27.51-1-.15-.6.62-.14 0-.1-.18-.24-.25.14.24.12.35-.1.41v-.06c-.31.43-.65.42-1.18.75l.26.17a.45.45 0 01-.3 0c.24.42.26-.24.54.2-.57-.3-.6.65-1.2.26-.14.15.3.2.16.34l-.17-.09.15.2c-.12.07-.34 0-.47-.15v-.13c-.28 0-.26.4-.35.39l.22-.06c-.23.52-.85.83-.91 1.47l.13.07c-.07.47-.33.13-.53.53a.33.33 0 01-.07.37c-.05-.19-.38-.06-.42-.29-.08.5 0 .3.23.87l-.22-.11c.1.21.18.29.08.49 0-.26-.37-.14-.43-.46-.7 0-.06.85-.77.49.35.59.53 0 .56.13.23.08.25.46.11.52s-.8-.38-1-.1v-.09c-.22 0 0 .35-.33.29.24.34-.16.15.2.51l.14-.33c0 .23.29.76-.13.8a.89.89 0 01-.11-.35c-.18 0-.05.2-.23.17-.36-.36.19-.38 0-.79-.22-.07 0 .53-.32.09.42.58-.31.2-.08.75l-.21-.22c0 .06.06.22 0 .26l-.2-.36c.11.38-.48.09-.47.35.26-.3.33.18.61.21 0 .64-.78-.33-1.05.18 0-.08.33-.08.36.1a.8.8 0 01-.46 0c-.2.31.27.17.3.41-.36-.16 0 .23 0 .43l-.23-.21c-.43.18.41.52 0 .64l-.22-.41-.05.22-.23-.27c.05.34 0 .34-.26.43.2.11.4.39.28.54-.22 0-.17-.25-.31 0-.1-.17-.24-.38.05-.28-.07-.07-.11-.17-.18-.25-.24 0-.26.22-.32.3a.16.16 0 01.12 0l.07.57a.32.32 0 01-.21-.23v.32c-.17-.19-.36-.36-.35-.56v.45c-.1-.05-.35-.06-.39-.16-.24.05 0 .69-.29.76a.21.21 0 010 .16c-.21.15-.59.1-.53.56l-.45-.18c-.08.24.58.21.45.61s-.36-.18-.52-.2c.08.26.27.74-.18.68-.09-.29 0-.29.03-.37zm-1.78 2.25c0-.08-.08-.3.08-.21.22.29.06.21-.08.21zm-2.37 3.72c-.05-.1 0-.11.17-.08-.02.05-.06.09-.17.08zM337 288.61c.18-.03.11-.03 0 0zm-.27.1a.12.12 0 00.08.09c0-.06 0-.11.05-.14s-.12-.06-.12.05zm18.45-20.5h-.09c.02-.16.06-.08.1 0z" fill="#34a37e"/>
  <path d="M343.57 277.54l.14.1a.17.17 0 00-.14-.1zm5.2-6.75zM337.46 284a.36.36 0 01.18 0 .13.13 0 00-.18 0zm-1.25 6.07l.05-.18c0 .07-.11.05-.17 0s.15.11.12.18zm-2.39-.23v.08l.11.09c.07-.08.01-.21-.11-.17zm1.52-.35c-.2-.17-.2 0-.24.09.26.25.25.08.24-.09zm-.26.11a.15.15 0 01-.06.09c.1.1.05-.01.06-.09zm1.57-.54c-.09 0 .22.25.12.2.23.27-.05-.53-.12-.2zm-2.01-.08l.27.19-.15-.22-.12.03zm.79-.51l-.19.07a.15.15 0 01.05.11c.08-.07.21-.12.14-.18zm-.14.18a.13.13 0 00-.06.15.26.26 0 00.06-.15zm-.55.08l.09.01.1-.08-.19.07zm2.07-1.73l.06-.21c-.06-.09-.15-.09-.17 0s.01.21.11.21zm-1.07-.1a.68.68 0 01.24.1l-.29-.27zm.33-.49c-.07-.09 0-.43-.2-.23.07.09 0 .3.2.23zm2.41-1.91l-.03.05.49.43-.46-.48zm.63-3.02c-.28.07.26.31 0 .34.08.15.24 0 .3.11-.06-.22.06-.21-.3-.45zm.27.45a.74.74 0 000 .12.33.33 0 000-.12zm22.35-20.41l.2-.03-.23-.07.03.1zm-.16-.52l.33.26-.22-.32s-.03.06-.11.06zM345 274.22l.07.08c.09.06.12 0 .19 0zm1.64-1.32l-.03.02.33.2-.3-.22zm.81-1.62c-.06.05-.05.16-.11.21.05-.16.48.1.11-.21zm22.18 23.64c.05.07.16-.11.2-.14-.14-.05-.23.22-.2.14zm-1.36-.51l.07-.05-.29.03.22.02zm-.99-.83c-.13.36.4.25.49.5v.09l.23-.17c-.23-.13-.63-.22-.72-.42zm-.03-1.05c-.06.14-.19 0 .09.14v-.05zm.09.09c.11.08 0-.15 0 0zm-.53-.34h.22c0-.09-.09-.21 0-.22-.19-.06-.21.05-.22.22zm-.29.1h.1s0-.05-.1 0zm.32.05h-.22c0 .06-.09.15.1 0-.08.06.01.01.12 0zm.05.12c0 .12.1.25-.12.23.3.22.42-.05.12-.23zm.11 1.28v.17h.17c-.05 0-.11-.26-.17-.17zm-.92-2.41c-.06.05-.09.2-.14.28h.16c-.02-.07-.1-.19-.02-.28zm-.14.28h-.23c.12.1.19.08.23 0zm.3.97l.42-.01-.47-.03.05.04zm-.74-1.74l.2-.07-.32.08.12-.01zm-.4-.3c.16-.06.07-.27.19-.28a.66.66 0 00-.44 0c.15 0 .21.09.25.28zm-.49-.29a1 1 0 00.24 0 .4.4 0 00-.24 0zm.86 1.09a.33.33 0 000-.27l-.07.22z" fill="#34a37e"/>
  <path d="M365.41 291.39l-.13-.12a.84.84 0 01.13.12zm.08.06s-.03.01 0 0zm.51.73c-.17 0-.44 0-.37.26.12-.06.09-.23.37-.26zm-.61-.46l.13.17c0-.05.06-.14.14-.14zm-.12-.02l.12.02-.05-.07-.07.05zm-.51-.97a.39.39 0 01-.3-.1.91.91 0 00.23.28c.06-.04.18-.1.07-.18zm.31.33s-.02.03 0 0zm-1.46-1.14zm1.07 1.08c.05.09.12.08.2.06a.93.93 0 01-.19-.11s-.04-.01-.01.05zm-.37-.78a1.46 1.46 0 00.05.2c.01-.09 0-.23-.05-.2zm.75.78c.02-.06.01 0 0 0zm0 0h-.18a.53.53 0 00.16 0 .25.25 0 01.02 0zm-2.58-.22a.26.26 0 01.46.17c.25 0 .56-.59.66-1-.06.06-.11.13-.34.09 0 .13.19.49-.06.52s-.13-.2-.16-.37c-.07.27-.5.06-.69.38l.27.06c-.03.06-.16.07-.14.15zm1.41-.55h.08a.79.79 0 01-.05-.4.38.38 0 00-.29.07l.3.3zm.38.28c-.19.13-.41.07-.46.33.2.15.25 0 .42 0-.34-.22.17 0 0-.31a.59.59 0 01.21.1 1 1 0 01-.1-.21l-.06.05c-.06-.11 0-.06.06-.05l-.39-.17a.81.81 0 00.32.26zm.87 2.16a.08.08 0 010-.05s-.04.01 0 .05z" fill="#34a37e"/>
  <path d="M365.09 292.46s.12-.06.18 0-.07.08-.11.14.25 0 .18-.19a.77.77 0 010-.51 1.81 1.81 0 00-.25.56zm-.46-.94l-.32-.13v.25l.07-.09c.12.16.18.02.25-.03zm-.98-1.71l.18-.15-.35.13.17.02zm-.35-.26l.14-.15-.17.02.03.13zm-20.53-13.96h-.11a.23.23 0 00.11 0zm.54.47l.07-.06c-.06 0-.09 0-.07.06zm11.69 6.59c0-.24.07-.57-.06-.38l-.11.2a.22.22 0 01.17.18zm-6.45-3.72v.07l.21-.1zm-.65.64l-.06-.23a.78.78 0 00.06.23zm-8.28-6.32l-.23.1c.14.12.15-.02.23-.1zm20.18 13.48a.74.74 0 00-.15-.31c.04.2.01.42.15.31zM344.45 274a.15.15 0 00-.15.05c.07-.05.13-.05.15-.05zm14.92 12.19a.29.29 0 010 .09.6.6 0 01.26.14c-.01-.14-.07-.27-.26-.23zM328.83 264s-.01 0 0 0zm-1.77-4.41l.14.1a.35.35 0 00-.14-.1zM362 288.34c.08.05 0 0 0 0zm-.2.97a.12.12 0 00-.09.06s.07-.06.09-.06zm.25-.8a.5.5 0 00-.05-.13.36.36 0 00.05.13zm.05-.09v.06s.09-.04 0-.06zm-.2-.15a.52.52 0 01.1.11zM335 268.41c-.09-.01 0 0 0 0zm16.74 14.46zm-.36-.09c.28-.12.32 0 .37.07l.31-.56z" fill="#34a37e"/>
  <path d="M341.41 274.54l.06.3c-.43.07-.51-.15-.52.21.46-.51.74.53 1.2 0v.21h-.09c0 .45.48-.25.72.08.07.13.08.27 0 .27l.34.06a.06.06 0 11-.1.08l.39.25a1.91 1.91 0 01.44-.09c0 .15-.09 0-.12.11h.3c0 .2-.3.2-.42.07-.25.69.27 0 .41.64l-.24-.08c-.13.4.1.41.16.77 0-.14 0-.82.29-.78 0 .09.09.18.29.16-.15.2 0 .24.14.35l-.21.24c.21.06.3-.08.48-.12.15.16 0 .39-.07.59.24.26.07-.47.43-.25.14.28.38.31.77.38.09.22-.15.13-.15.25l.3-.08s0 .08-.06.11c.18 0 .21-.24.45-.16.28-.23.05.72.53.6 0 .12-.15.13-.21.24a2 2 0 00.87 0l.08.35c0-.32.38-.37.71-.41a2.67 2.67 0 000-.32l.4.1c0 .07-.1.13-.23.2h.1c0 .18-.14.28-.33.36a1.94 1.94 0 010-.24 1.28 1.28 0 00-.5.37.26.26 0 01.15 0c-.05 0-.1.05-.11.09s.07 0 .16 0l-.16.34.11-.1.23.49a2.86 2.86 0 011.59 0c-.28.12-.3.32-.5.56.09-.36-.42-.17-.6-.4.1.12 0 .21-.09.23l.59.1c-.17.19 0 .22 0 .38.24-.46.5 0 .76 0-.1.14-.25.24-.42.05 0 .48.66-.23.67.2-.06 0-.06-.08-.14 0 .21 0 .41.3.25.36.28.31 1 .81 1.28.52a6 6 0 01-.44.42l1.47-.66c-.28.25-.64 1.1-1 1a.37.37 0 00.34.26c0-.08.21-.52.3-.49-.07.48 0 .28 0 .75 0-.12.43-.5.54-.38-.08.05-.35.45-.44.46l.66-.19c-.14 0-.31.36-.35.55 0-.12.26.22.38.25l-.05-.21c.29.35.84-.34 1.16 0-.11.05-.55.47-.43.67.27-.16 1.24-.79 1.68-.72l-.05.18h.35a9.85 9.85 0 01-1.85.69c.05.21-.09.19.11.34 0 .17-.25.09-.31.05l.38.46c.2-.29.56 0 .72-.22l-.71-.13c.2-.28.89-.52 1.17-.21 0 .18-.44.43-.51.52.12-.06.44.08.42.17h-.25c.1.24.57-.12.58.31.06.08-.06.53.08.38a4.67 4.67 0 011.13-1.51 4.28 4.28 0 01.11.83c-.07.33-.64.41-.7.7a.49.49 0 01.25-.11c0 .13-.21.2 0 .3.24-.24.32.31.26-.16.23.06.13.2.33.35a1 1 0 01.88-.38.57.57 0 00-.12.23c.32.31.4.58.71.84 0 .09.06.3-.1.36.09 0 .2-.07.3 0 0 .38-.24-.15-.33.25.14-.15.43 0 .64 0 .16-.28-.28-.31-.49-.33a1.24 1.24 0 011.24-.36c.32.13-.06.31 0 .3.44.46.88-.23 1.09.34 0 .35-.33.43-.42.61-.27-.09-.21-.4-.36-.51l.09.24c-.12 0-.31-.05-.33-.17 0 .3.79.72 1 1.21.13 0 .3 0 .31-.12l-.14-.07c0-.26.42 0 .33-.25.26 0 .59 0 .73.26l-.15.27c.05-.07 0-.26-.15-.24.18 0 .08.61.44.38v-.3c.26 0 .67-.08.8.17.11-.32-.06 0 0-.41-.16.45-.5-.44-.59.09.11-.45-.14-.35-.11-.79-.06.09-.06.21-.19 0h-.09a.39.39 0 010 .19c-.23.12-.49-.11-.66-.09s.12-.06.13-.19h-.25c.13-.19 0-.51.29-.42l-.2-.19a.45.45 0 00-.35-.39c-.06-.13-.4 0-.21-.08l-.41-.17v-.05c-.31-.29-.91-.26-1-.89a.73.73 0 01-.44-.3l.08-.18c-.18-.06-.29-.5-.48-.4.18-.53-.61-.66-.8-.94l-.17.2a1.53 1.53 0 00-.65-.33l-.13.18c-.29 0-.36-.51-.66-.74.07 0 .13 0 .15.11 0-.68-1-.31-1-.87a.17.17 0 01-.19-.16v-.18a.81.81 0 000 .17.79.79 0 00-.29-.13l.11-.22c0-.14-.15 0-.21.22a.49.49 0 00-.21 0c.17-.36-.32-.09-.15-.5-.19.11-.55-.25-.87 0 0 0 0-.09.08-.05-.07-.12-.14-.24-.31-.22l.16-.28-.48.14c0-.25 0-.38.28-.46-.55 0-.34-.11-.84-.05l.14-.14c-.1-.08-.42 0-.38-.18 0-.47-1-.93-1.36-1.66-.26.54-.08-.43-.39-.09.05-.13 0-.26.19-.28-.37-.13-.28-.53-.72-.39.06-.13.19-.11.21-.19s-.16 0-.14-.07.11-.06.2-.07c-.31-.22-.61.09-.88.38 0-.27-.12-.31-.39-.19 0-.14 0-.32.25-.21-.09-.1-.5-.67-.71-.42 0-.09-.12-.14-.17-.13a2.94 2.94 0 00-.46-.41v.1c-.34.23-.24-.09-.45-.2-.23-.56-.26 0-.46-.63l-.13.21c-.37.37-.17-.54-.53-.58v.17c-.24 0 .09-.85 0-1s.09 0 .15 0c-.14-.52-.24.21-.54.06.06-.17.34-.29.19-.46s-.84 0-.86-.42c0 .14-.07.29-.25.27s-.17-.8-.59-.61a.15.15 0 010-.1c-.2 0-.55-.24-.78-.13.41-.76-1.1-.39-.61-1l-.45-.32.06-.05a.53.53 0 00-.66-.14c0-.09.07-.11.1-.14-.3-.45-.36-.45-.93-.43l.13-.22c-.18 0-.32-.78-.89-.88a.16.16 0 01.11 0c-.62-.13-.59-1.41-1.33-.83l-.43-.07c.33.37-.3.27-.24.51-.18-.08-.21-.53 0-.41v.06c.37-.32-.35-.52-.14-.76-.74-.59-1.28-1.39-1.95-2l-.15.35-.23-.21c0-.12.1-.3.26-.14 0-.24-.39-.1-.45-.05-.24-.39.4-.22.31-.32l-.16-.09v.06c-.21 0-.32.14-.52 0s.08-.24 0-.29 0 0-.07-.07l-.28-.28-.06.33c-.23 0-.28-.25-.35.12.12-.56-1-1.07-1-1.3a.9.9 0 01-.71-.36c0 .1-.16.38-.33.19.5-.47-.17-.53 0-1.05-.06.37-.61-.4-.68.14-.12-.18.15-.2.13-.43-.55-.12-.75-.85-1.29-1.19-.06.07-.06.24-.25.26v-.56c-.13-.05-.42.32-.39-.06 0 .08-.06.2-.14.17-.67-1.13-2.15-1.34-2.59-2.78 0 .25-.08.19-.18.11 0 .09-.14.17-.21.27l-.18-.59c-.29.2-.45-.34-.69-.13l.16.06c-.41.15-.29.85-.62 1.21.46-.18.09.91.79.69 0 .14-.15.08-.19.19.21-.09.33-.05.45.17.52.37.61.71 1.07 1.28l.11-.22a.49.49 0 01.1.3c.36-.17-.32-.3.05-.51-.15.51.84.71.6 1.23.18.16.12-.26.3-.1l-.05.16.17-.12a.39.39 0 010 .43s-.11 0-.15-.06c.05.27.48.32.5.41l-.12-.22c.59.31 1.08 1 1.75 1.14v-.12c.5.15.21.35.68.61a.48.48 0 01.4.13c-.19 0 0 .36-.2.37.54.16.31 0 .84-.08l-.06.19c.2-.05.26-.12.5 0-.27 0-.05.33-.37.34.16.67.89.2.7.83.53-.24-.18-.53 0-.52 0-.21.4-.17.5 0s-.18.71.16 1h-.09c.05.21.36.07.39.37.28-.17.19.18.47-.11l-.38-.19c.25.07.71-.16.86.26a.61.61 0 01-.33.05c0 .17.22.08.23.25-.28.29-.44-.25-.82-.17 0 .21.54.07.17.33.49-.31.3.34.79.2l-.16.18h.27l-.32.15c.35-.05.21.48.49.52-.39-.31.09-.3 0-.57.67.14-.12.71.47 1.06-.09 0-.18-.33 0-.33a.87.87 0 01.13.45c.37.25.1-.23.34-.23-.07.33.24.05.45.1l-.15.2c.29.45.42-.31.66.13l-.37.14.24.08-.21.19c.33 0 .36.1.51.32a.33.33 0 01.48-.18c0 .21-.21.13.05.3-.15.08-.33.18-.29-.09a1.59 1.59 0 00-.22.13c0 .23.3.29.39.37a.22.22 0 01-.06-.13h.57c0 .12-.09.14-.18.15.09 0 .21 0 .33.07-.16.13-.28.3-.49.25l.48.11c0 .08 0 .33-.06.35.11.25.7.09.85.42a.21.21 0 01.16 0c.21.23.26.6.71.62l-.07.41c.27.12.07-.53.52-.33s-.1.32-.07.47c.24 0 .7-.13.75.29-.16.06-.19-.03-.28-.07zm2.79 2.12c-.09 0-.29 0-.24-.11.24-.17.2-.02.24.11zm4.45 3c-.09 0-.12-.05-.13-.18a.24.24 0 01.13.15zm12.45 8.21c-.1-.2-.05-.13 0-.03zm.17.28a.08.08 0 00.08-.06c-.06 0-.11 0-.16-.08s-.02.1.08.11zm-25.95-21.65v.09c-.15-.04-.08-.06 0-.09z" fill="#34a37e"/>
  <path d="M348 279.5a.34.34 0 01.06-.12c-.06.01-.06.05-.06.12zm-8.34-6.27zm16.57 13.38a.38.38 0 010-.18s-.06.1 0 .18zm6.58 2.26l-.19-.08c.08.06.07.12.09.18s.05-.13.1-.1zm.39 2.3h.09l.07-.1c-.1-.07-.23-.02-.16.1zm-.76-1.55c-.11.17 0 .2.16.26.19-.21.02-.23-.16-.26zm.19.28a.2.2 0 01.1.08c.09-.08-.02-.05-.1-.08zm-.97-1.62c0 .08.2-.18.18-.09.22-.19-.54-.04-.18.09zm.45 1.95l.12-.23-.19.1.07.13zm-.74-.87l.13.2h.1c.04 0-.19-.26-.23-.2z" fill="#34a37e"/>
  <path d="M361.6 289.53a.19.19 0 00.16.09.76.76 0 00-.16-.09zm.22.56l-.02-.09-.11-.12.13.21zm-2.28-2.32l-.23-.1c-.08.05-.06.13 0 .16s.21.03.23-.06zm.13 1.02a.57.57 0 010-.22l-.2.24zm-.59-.41c-.08.06-.43 0-.18.15.1-.05.31.05.18-.15zm-2.59-2.69l.05.04.31-.41-.36.37zm-3.29-1.14c.15.28.26-.2.36.09.13-.05-.09-.24 0-.28-.18-.01-.21-.12-.36.19zm.39-.19zm-26.89-25.42l-.07-.21-.02.21h.09zm-.51.06l.17-.28-.27.16s.12.04.1.12zm17.99 18.51l.06-.05c0-.08 0-.12-.06-.18zm-1.8-1.82l.03.03.13-.28-.16.25zm-1.87-1.08c.06.07.18.08.24.15-.18-.08-.03-.45-.24-.15zm102.41-66.35c-.06 0 .15.19.18.23.04-.12-.23-.28-.18-.23zm.3-1.25l.07.09-.09-.3.02.21zm.71-.77c-.4-.24-.2.33-.44.36h-.1l.22.31c.11-.26.12-.64.32-.67zm1.12.25c-.16-.1 0-.2-.13.06h.08a.3.3 0 01.05-.06zm-.05.07c-.06.09.16.05 0 0zm.24-.45v.22h.23c.05-.12-.04-.16-.23-.22zm-.16-.32v.1s.07.01 0-.1zm0 .31v-.21c-.07 0-.18-.14 0 .09-.08-.11-.03.02 0 .12zm-.08.02c-.13 0-.25 0-.27-.18-.17.25.1.43.27.18zm-1.38-.24h-.18l.06.17c-.03-.05.23-.05.12-.17zm2.38-.28c-.07-.07-.23-.14-.33-.22v.16a.43.43 0 01.33.06zm-.3-.22v-.23c-.13.1-.09.17 0 .23zm-.98.05l.09.43-.06-.48-.03.05zm1.73-.28l.11.22-.15-.35.04.13zm.25-.33c.09.18.3.14.33.27a.71.71 0 000-.44c-.03.12-.13.18-.33.17zm.22-.42a.9.9 0 00.06.25.79.79 0 00-.06-.25zm-1.01.6a.42.42 0 00.29.09l-.25-.13zm.03-.07l.11-.09zm-.05.07s-.02 0 0 0zm-.7.28c-.05-.17 0-.43-.34-.45.09.17.27.17.34.45zm.4-.46l-.17.09c.06 0 .16.09.18.18zm-.01-.12l.01.12.06-.03-.07-.09zm.95-.25a.31.31 0 01.05-.28.63.63 0 00-.26.16c.06.07.14.2.21.12zm-.3.22s-.04-.03 0 0zm.96-1.17h-.05z" fill="#34a37e"/>
  <path d="M446.27 204.31c-.09 0-.07.1 0 .18a.48.48 0 01.08-.16s-.07-.05-.08-.02zm.73-.18h-.2c.08.03.2.06.2 0zm-.7.55c.06.04.04.02 0 0zm0 0c0-.06 0-.12-.06-.19a.42.42 0 000 .16zm-.24-2.56c.18.18.23.48-.09.42 0 .25.73.73 1.17.94a.43.43 0 01-.15-.37c-.14-.05-.49.06-.57-.2s.19-.08.36-.07c-.29-.14-.15-.52-.53-.8v.26c-.06-.05-.1-.18-.19-.18zm.85 1.58v.07a.81.81 0 01.42.06.53.53 0 00-.12-.32l-.26.23zm-.24.3c-.17-.23-.14-.43-.43-.56-.13.17.07.26.08.43.17-.29.05.18.33.11a.42.42 0 01-.07.18.78.78 0 01.21 0l-.07-.08c.11 0 .07 0 .07.08l.11-.35c-.09-.01-.15.06-.23.19zm-2.15.3h.06c.06 0-.02-.02-.06 0zm.22.01c0 .05.08.14 0 .18s-.1-.09-.17-.15 0 .25.24.23a1.05 1.05 0 01.55.11 4 4 0 00-.62-.37zm.92-.2l.08-.3-.27-.06.11.1c-.14.07.01.15.08.26zm1.65-.54l.2.22-.2-.39v.17zm.22-.29l.18.18-.05-.17-.13-.01zm11.23-17.06zm-.4.42l.08.1c-.03-.07-.06-.11-.08-.1zm-4.94 10.12c.26.07.62.22.4 0l-.24-.16c-.01.13-.08.16-.16.16zm2.81-5.57h-.09l.15.23zm-.8-.84h.23a.58.58 0 00-.23 0zm5.27-6.7l-.15-.26c-.1.11.05.16.15.26zm-10.78 16.85a.47.47 0 00.29-.07c-.21-.02-.44-.11-.29.07zm10.89-12.13a.19.19 0 00-.08-.16.16.16 0 00.08.16zm-10.4 11.84h-.08a.35.35 0 01-.12.23c.15 0 .28-.03.2-.23zm18.26-24.99h.05s-.04-.02-.05 0zm4.33-.62a.28.28 0 01-.08.12s.08-.04.08-.12zm-24.41 27.7c0 .07 0 0 0 0zm-1.07-.47a.33.33 0 00-.08-.11zm.9.47h.12a.35.35 0 00-.12 0zm.11.07h-.07s.06.09.07 0zm.12-.16a.19.19 0 01-.11.07zm16.4-21.89c-.05-.13-.05-.09 0 0zm-12.46 13.03zm.03-.35c.18.32.11.34 0 .36l.66.47z" fill="#34a37e"/>
  <path d="M459.65 185.13h-.32c-.15-.45.07-.47-.31-.58.63.61-.44.61.19 1.22h-.22v-.08c-.48-.1.35.56 0 .71-.12 0-.27 0-.3-.12v.33c-.06 0-.16-.08-.1-.12l-.2.33a3 3 0 01.17.46c-.16 0 0-.09-.13-.15v.3c-.22-.09-.27-.37-.15-.45-.78-.44.05.27-.61.24V187c-.46-.24-.42 0-.8 0 .15.07.87.2.88.51-.09 0-.17 0-.12.25-.23-.21-.25-.07-.34.05l-.3-.28c0 .2.15.33.22.52-.15.11-.41-.08-.64-.23-.24.17.51.2.34.5-.27.07-.26.31-.27.69-.22 0-.17-.19-.3-.23l.15.33s-.1 0-.13-.09c0 .17.3.28.25.5.3.34-.76-.15-.54.38-.13 0-.17-.19-.3-.29a2.21 2.21 0 00.14.89h-.36c.35.08.47.48.57.83l.35.12v.37c-.07 0-.16-.13-.25-.29v.11c-.18 0-.32-.22-.44-.43a1.34 1.34 0 01.26.09 2.14 2.14 0 00-.48-.62.27.27 0 010 .15.38.38 0 00-.12-.13s0 .07.06.17l-.39-.25.12.13-.48.1c.15.53.49 1.16.33 1.63-.18-.31-.4-.39-.69-.66.4.19.1-.38.33-.5-.12.06-.24-.08-.27-.15v.57c-.23-.23-.24-.1-.41-.11.53.37.11.52.14.78-.17-.14-.31-.32-.13-.44-.51-.15.37.73-.09.62 0 0 .07 0 0-.13a.19.19 0 01-.34.15c-.28.2-.69.76-.32 1.16a7.28 7.28 0 01-.52-.56l1 1.68c-.31-.36-1.28-1-1.29-1.34-.11 0-.23 0-.22.27.08 0 .6.36.58.44a2.87 2.87 0 00-.81-.19c.13 0 .62.56.51.65-.07-.09-.55-.48-.57-.57l.32.72a1.56 1.56 0 00-.65-.5c.13.07-.19.2-.2.31h.22c-.33.2.51 1 .24 1.19-.08-.13-.61-.7-.8-.62a6.37 6.37 0 011.07 1.9l-.2-.1v.34a15.69 15.69 0 01-1.07-2.07c-.22 0-.21-.14-.34 0a.24.24 0 01-.11-.34l-.42.27c.34.27.08.56.36.79v-.69c.34.28.71 1 .43 1.24-.18 0-.53-.56-.64-.65.08.13 0 .43-.1.38l-.08-.26c-.25 0 .22.61-.24.5-.07 0-.57-.2-.39 0a9.22 9.22 0 011.83 1.55 3.32 3.32 0 01-.87-.11c-.37-.16-.56-.76-.88-.9a.63.63 0 01.16.28c-.13 0-.25-.27-.33-.1.31.32-.27.24.22.31 0 .21-.19.08-.31.24a1.66 1.66 0 01.57 1 1.23 1.23 0 00-.27-.19c-.27.24-.55.25-.77.49-.1-.05-.31 0-.4-.19 0 .09.11.22 0 .3-.41-.1.11-.21-.33-.4.18.18.09.43.11.65.32.23.28-.2.26-.42a1.79 1.79 0 01.61 1.36c-.09.29-.34-.15-.32-.06-.42.32.41 1-.17 1-.37-.11-.52-.46-.73-.6.06-.25.4-.1.49-.23H448c0-.13 0-.3.13-.29-.33-.1-.63.61-1.11.71 0 .13 0 .3.18.35l.05-.12c.29.1.13.43.33.4 0 .26.14.6-.14.68l-.33-.24c.09.08.28.05.24-.08.06.19-.64-.09-.33.34l.31.06c0 .25.21.69 0 .76.36.19 0-.06.44.13-.51-.28.38-.38-.2-.63.5.24.35 0 .82.11-.1-.08-.24-.12-.07-.2 0 0 0-.08-.06-.11a.42.42 0 01-.21-.06c-.16-.27 0-.47 0-.64.11 0 .08.13.22.18l-.07-.26c.22.18.54.11.5.41l.16-.16c.21 0 .38-.08.36-.24s-.06-.41.05-.19l.1-.38h.06c.26-.23.12-.84.78-.79a.39.39 0 01.23-.37l.21.14c0-.17.49-.17.34-.39.6.33.59-.44.86-.55l-.24-.23a.94.94 0 00.24-.56l-.22-.19c-.05-.3.48-.23.67-.47.06.09 0 .12-.1.12.73.17.17-.89.75-.82 0-.13 0-.15.13-.14h.19a.47.47 0 00-.18 0 .57.57 0 00.09-.27l.25.18c.15 0-.06-.16-.26-.28a1 1 0 00-.06-.22c.42.28 0-.29.51 0-.15-.22.18-.49-.2-.89.06.05.1.05.07.09.12 0 .24-.07.18-.25l.33.23-.24-.52a.62.62 0 01.55.41c-.12-.56 0-.32-.1-.84l.18.18c.06-.08-.08-.43.11-.33.52.15.81-.8 1.54-.93-.63-.42.44 0 0-.38.16.09.29.1.34.27.07-.34.51-.15.28-.63.16.1.15.23.25.27s0-.17.05-.12.08.13.11.22c.18-.25-.2-.64-.57-1 .28.05.31 0 .14-.34.16.07.35.12.26.3.09-.06.63-.31.33-.6.1.05.12-.09.11-.14.18-.16.22-.15.35-.35h-.1c-.3-.4.05-.22.14-.4.56-.08 0-.26.59-.3l-.24-.19c-.47-.47.54 0 .52-.37l-.19-.06c-.08-.25.93.33 1.08.28s0 .1 0 .16c.53 0-.27-.31-.16-.57.2.11.37.42.52.31.19.06-.17-.85.3-.76-.16-.07-.32-.14-.33-.32s.82 0 .54-.43a.23.23 0 01.12.06c0-.2.15-.5 0-.76.88.61.22-1 .95-.36l.26-.36.06.07c.24-.16.14-.4 0-.63.09 0 .13.1.16.13.43-.17.43-.23.3-.82l.26.19c-.07-.2.78-.11.78-.67a.4.4 0 01.07.13c0-.59 1.4-.22.65-1.12v-.42c-.34.23-.34-.38-.59-.39 0-.16.53-.06.44.12h-.06c.4.46.49-.21.79.07.5-.59 1.25-.93 1.76-1.45l-.41-.25.19-.17c.13 0 .34.18.2.3.26.11 0-.37 0-.44.37-.14.31.47.39.39l.07-.13h-.06c-.06-.22-.21-.36 0-.51s.26.14.31.12.05 0 .07-.06l.24-.2-.36-.16c0-.23.21-.21-.2-.38.63.27 1-.72 1.21-.69a.56.56 0 01.26-.62c-.1 0-.44-.26-.26-.38.59.63.54 0 1.11.26-.41-.17.33-.51-.27-.73.17-.08.25.21.49.25 0-.53.77-.53 1-1-.07-.08-.26-.13-.31-.32l.6.18c0-.12-.42-.51 0-.38-.08-.05-.22-.12-.2-.19 1.09-.37 1-1.82 2.5-1.88-.26 0-.21-.13-.15-.21s-.2-.19-.33-.28h.61c-.27-.34.28-.36 0-.67v.15c-.23-.45-1-.52-1.4-1 .27.52-1-.15-.6.62-.14 0-.1-.18-.24-.24.14.23.12.35-.1.41v-.06c-.31.43-.65.42-1.18.74l.26.17a.4.4 0 01-.3 0c.24.42.26-.25.55.19-.58-.29-.61.66-1.21.27-.14.14.3.19.16.34l-.17-.09.15.2c-.12.06-.34-.05-.46-.15v-.13c-.28 0-.25.4-.35.39l.22-.06c-.23.51-.85.83-.91 1.47l.13.07c-.06.46-.33.12-.53.52a.34.34 0 01-.07.37c0-.19-.38-.07-.42-.3-.08.51 0 .31.23.87l-.22-.11c.1.22.18.3.08.5 0-.27-.37-.14-.43-.47-.7 0-.06.85-.77.49.35.6.53 0 .56.14.23.07.25.46.11.52s-.8-.39-1-.11v-.08c-.22 0 0 .35-.33.29.24.33-.16.14.2.5l.14-.32c0 .23.29.76-.13.79a.8.8 0 01-.11-.34c-.18 0-.05.2-.23.16-.36-.36.19-.37 0-.78-.22-.07 0 .53-.32.09.42.57-.31.2-.08.74l-.21-.21c0 .06.06.21 0 .26l-.21-.36c.12.37-.48.09-.47.35.26-.3.33.18.61.2 0 .64-.78-.32-1.05.19 0-.09.33-.09.36.09a.72.72 0 01-.46 0c-.2.32.27.17.3.41-.36-.15 0 .24 0 .44l-.23-.21c-.43.18.41.51 0 .63l-.22-.4v.22l-.23-.27c.05.33 0 .34-.26.42.2.11.4.4.29.54-.23 0-.18-.25-.32 0-.1-.18-.24-.39.05-.28-.07-.08-.11-.17-.17-.25-.25 0-.27.22-.33.29a.12.12 0 01.12 0l.07.56c-.13 0-.17-.13-.21-.22 0 .08.05.21 0 .31-.17-.19-.36-.36-.35-.55v.45c-.1 0-.35-.06-.39-.16-.24.05 0 .69-.29.76a.2.2 0 010 .16c-.21.14-.59.1-.53.55l-.45-.18c-.08.24.58.22.45.62s-.36-.19-.52-.2c.08.25.27.74-.18.68.12-.26.21-.26.24-.34zm-1.78 2.25c0-.09-.08-.3.08-.21.22.29.05.21-.08.21zm-2.37 3.72c-.05-.1 0-.11.17-.09-.02.06-.06.09-.17.09zm-6.5 10.41c.13-.02.06-.02 0 0zm-.27.1a.14.14 0 00.08.1c0-.07 0-.11.05-.15s-.17-.05-.17.05zm18.45-20.49h-.09c-.03-.12.01-.12.05 0z" fill="#34a37e"/>
  <path d="M455.52 190.45a1.1 1.1 0 01.14.09.15.15 0 00-.14-.09zm5.2-6.75zm-11.31 13.21a.28.28 0 01.18 0 .13.13 0 00-.18 0zm-1.25 6.09v-.17c0 .07-.11 0-.17 0s.2.1.17.17zm-2.38-.26v.09l.11.09c.04-.08 0-.21-.11-.18zm1.51-.34c-.2-.17-.2 0-.24.08.26.26.25.09.24-.08zm-.29.11s0 .07-.07.08.07-.01.07-.08zm1.6-.51c-.09 0 .22.25.12.2.21.24-.05-.57-.12-.2zm-2.01-.11l.27.18-.15-.22-.12.04zm.79-.52l-.19.08a.13.13 0 01.05.11c.08-.08.21-.13.14-.19z" fill="#34a37e"/>
  <path d="M447.24 201.56a.13.13 0 00-.06.15.3.3 0 00.06-.15zm-.55.08h.09l.1-.08-.19.08zm2.07-1.64l.06-.21c-.06-.09-.15-.09-.17 0s.01.11.11.21zm-1.07-.19c.09 0 .14.05.24.1l-.29-.27zm.31-.5c-.07-.09 0-.43-.2-.22.09.09.03.3.2.22zm2.43-1.9l-.03.04.49.43-.46-.47zm.63-3.02c-.28.07.26.31 0 .34.08.14.24 0 .3.11-.06-.22.06-.21-.3-.45zm.27.45a.74.74 0 000 .12.29.29 0 000-.12zm22.35-20.42l.2-.02-.23-.07.03.09zm-.16-.54l.33.25-.22-.32s-.03.11-.11.07zM457 187.13l.07.08h.19zm1.59-1.33l-.03.02.32.21-.29-.23zm.81-1.61c-.06 0 0 .16-.11.2.05-.16.48.1.11-.2zm22.18 23.64c.05.07.16-.12.2-.14-.14-.05-.23.18-.2.14zm-1.36-.51l.07-.05-.29.03.22.02zm-.99-.83c-.13.36.4.25.49.5v.09l.26-.16c-.26-.15-.66-.23-.75-.43zm-.03-1.05c-.06.13-.19 0 .09.13zm.09.09c.12.08 0-.15 0 0zm-.53-.34h.24c0-.08-.09-.2 0-.21-.21-.05-.23.02-.24.21zm-.29.09h.1s0-.04-.1 0zm.32.06h-.22c0 .06-.09.16.1 0-.08.06.01.01.12 0zm.05.11c0 .13.1.25-.12.23.28.19.42-.04.12-.23zm.16 1.29v.16h.17c-.1-.01-.17-.26-.17-.16zm-1-2.41c-.06 0-.09.19-.14.28h.16c-.02-.07-.02-.19-.02-.28zm-.11.28h-.23c.12.1.19.07.23 0zm.3.96h.42l-.47-.03.05.03zm-.74-1.74l.2-.06-.32.08.12-.02zm-.4-.3c.16-.06.07-.26.19-.28a.8.8 0 00-.44 0c.13 0 .2.09.25.28zm-.49-.28a1.06 1.06 0 00.24 0 .53.53 0 00-.24 0zm.86 1.09a.34.34 0 000-.27l-.07.22zm-.06-.05l-.13-.12zm.08.06s-.03.02 0 0zm.48.74c-.17 0-.44 0-.37.26.15-.06.12-.23.37-.26zm-.58-.47l.13.18c0-.05.06-.14.14-.15zm-.12-.01l.12.01-.05-.06-.07.05zm-.51-.97a.44.44 0 01-.3-.11 1.09 1.09 0 00.23.29c.06-.04.18-.11.07-.18zm.29.36zm-1.44-1.18v.05zm1.07 1.04a.15.15 0 00.2.07.93.93 0 01-.19-.11s-.04.03-.01.04zm-.37-.73a1.33 1.33 0 00.05.19c.01-.08 0-.22-.05-.19zm.74.77c0-.05 0-.03 0 0zm0 0a.57.57 0 00-.18 0h.16a.19.19 0 01.02 0zm-2.57-.21a.26.26 0 01.46.16c.25 0 .56-.58.66-1-.06.06-.11.12-.34.08 0 .13.19.5-.06.53s-.13-.2-.16-.37c-.07.26-.5.06-.69.38h.27c-.03.12-.16.14-.14.22zm1.41-.55h.08a.84.84 0 01-.05-.4.31.31 0 00-.29.07l.3.29zm.38.28c-.19.12-.41.06-.46.33.2.15.25 0 .42 0-.34-.22.17 0 0-.3a.83.83 0 01.21.09.68.68 0 01-.1-.21l-.06.06c-.06-.11 0-.06.06-.06l-.39-.17a1 1 0 00.32.26zm.87 2.16a.06.06 0 010-.05s-.04.01 0 .05z" fill="#34a37e"/>
  <path d="M477 205.37s.12-.06.18 0-.07.08-.11.14.25 0 .18-.19a.76.76 0 010-.51 1.81 1.81 0 00-.25.56zm-.42-.94l-.32-.14v.26l.07-.09c.13.16.18.02.25-.03zm-.98-1.71l.18-.16-.35.13.17.03zm-.35-.27l.14-.14-.17.02.03.12zm-20.53-13.95h-.11zm.54.5l.08-.07c-.06-.01-.1.07-.08.07zm11.74 6.55c0-.23.07-.56-.06-.38l-.11.2a.25.25 0 01.17.18zm-6.5-3.71a.25.25 0 010 .08l.21-.1zm-.65.64l-.06-.23a.87.87 0 00.06.23zm-8.28-6.32l-.23.1c.14.11.15-.02.23-.1zm20.18 13.47a.7.7 0 00-.15-.3c.04.19.01.42.15.3zm-15.35-12.77a.15.15 0 00-.15 0c.08.06.13.05.15 0zm14.92 12.24a.24.24 0 010 .08.63.63 0 01.26.15c-.01-.14-.07-.27-.26-.23zm-30.53-22.21s-.02-.01 0 0zM439 172.5l.14.1a.23.23 0 00-.14-.1zm35 28.75c.08.05 0 0 0 0zm-.25.96a.16.16 0 00-.09.06zm-4-2.64c-.01.04-.01.03 0 0zm4.25 1.84a.61.61 0 00-.05-.12.42.42 0 00.05.12zm.05-.09l.05.07s.04-.05-.05-.07zm-.2-.15a.4.4 0 01.1.12zM447 181.32c-.14-.02-.1 0 0 0zm16.69 14.46zm-.36-.09c.28-.12.32 0 .37.07l.31-.56z" fill="#34a37e"/>
  <path d="M453.36 187.44l.06.31c-.43.07-.51-.15-.52.21.46-.52.75.53 1.2 0v.21h-.09c0 .45.48-.24.72.09.07.12.08.26 0 .27l.34.06c.05.06 0 .14-.1.08l.39.25a2.31 2.31 0 01.43-.08c0 .15-.09 0-.12.1h.3c0 .2-.3.2-.42.07-.25.68.27 0 .41.64l-.24-.09c-.13.41.11.42.16.78 0-.14 0-.83.29-.78 0 .09.09.17.29.16-.15.19 0 .24.14.35l-.21.24c.21 0 .3-.09.48-.12.15.16 0 .39-.07.58.24.27.07-.47.43-.25.14.29.38.32.77.39.09.22-.15.13-.15.25l.3-.09s0 .09-.06.12c.18 0 .21-.25.45-.16.28-.24.05.72.53.6 0 .11-.15.13-.21.24a2.31 2.31 0 00.87 0l.08.35c0-.33.38-.38.71-.41a2.63 2.63 0 000-.33l.4.11c0 .07-.1.13-.23.2h.1c0 .18-.14.28-.33.36a1.94 1.94 0 010-.24 1.19 1.19 0 00-.5.37.2.2 0 01.15 0c-.05 0-.1 0-.11.08s.07 0 .16 0l-.16.34.11-.1.23.49a2.86 2.86 0 011.59 0c-.28.12-.3.32-.5.56.09-.36-.42-.17-.6-.41a.15.15 0 01-.09.24l.59.09c-.17.19 0 .22 0 .39.24-.46.5 0 .76 0-.1.14-.25.24-.42 0 0 .48.66-.23.67.2-.05 0-.06-.07-.14 0 .21 0 .41.29.25.36h-.05c.28.31 1 .81 1.28.51a4.47 4.47 0 01-.44.42l1.47-.65c-.28.25-.64 1.09-1 1a.39.39 0 00.34.27c0-.09.21-.53.3-.49-.07.48 0 .28 0 .75 0-.13.43-.5.54-.39-.08.05-.35.46-.44.47l.67-.19c-.14 0-.32.36-.36.54 0-.11.26.23.38.25l-.05-.21c.29.36.84-.34 1.16 0-.11.06-.55.48-.43.68.27-.16 1.24-.8 1.68-.72l-.05.18h.35a9.89 9.89 0 01-1.85.7c.05.21-.09.18.12.33 0 .18-.26.1-.32.06l.38.45c.2-.28.56 0 .72-.21l-.71-.13c.2-.29.89-.52 1.17-.21 0 .17-.44.42-.51.52.12-.06.45.07.42.16h-.25c.1.25.57-.11.58.32.06.08-.06.53.08.38a4.72 4.72 0 011.13-1.52 3.61 3.61 0 01.11.83c-.07.34-.64.42-.7.7a.47.47 0 01.25-.1c0 .12-.21.19 0 .3.25-.24.32.31.26-.16.23.06.13.2.33.35a1 1 0 01.88-.39.54.54 0 00-.12.24c.32.3.4.58.71.84 0 .09.06.29-.1.35.09 0 .2-.06.3 0 0 .39-.24-.14-.33.26.14-.15.43 0 .64 0 .16-.28-.28-.31-.49-.33a1.24 1.24 0 011.24-.36c.32.13-.06.31 0 .3.44.46.88-.24 1.09.34 0 .35-.33.43-.42.61-.27-.1-.21-.41-.36-.52l.09.25c-.12 0-.31-.05-.33-.17 0 .3.79.72 1 1.21.13 0 .3 0 .31-.12l-.14-.07c0-.26.42-.05.33-.26.26 0 .59 0 .73.26l-.15.28c0-.08 0-.27-.15-.25.18 0 .08.62.44.39v-.3c.26 0 .67-.08.8.16.11-.31-.06 0 0-.41-.16.45-.49-.44-.59.09.11-.44-.14-.34-.11-.78-.06.09-.06.21-.19 0H474a.4.4 0 010 .19c-.23.11-.49-.11-.66-.1s.12-.05.13-.18h-.25c.13-.19 0-.52.29-.43l-.2-.18a.48.48 0 00-.34-.4c-.07-.12-.41 0-.21-.08l-.42-.16c-.31-.29-.91-.27-1-.9a.75.75 0 01-.44-.29l.08-.18c-.18-.07-.29-.51-.48-.4.18-.54-.61-.66-.8-.94l-.17.19a1.8 1.8 0 00-.65-.33l-.13.19c-.29 0-.36-.52-.66-.74.07-.05.13 0 .15.11 0-.69-1-.32-1-.87a.17.17 0 01-.19-.16 1.48 1.48 0 000-.19.92.92 0 000 .18.78.78 0 00-.29-.14l.11-.22c0-.14-.14 0-.21.21a.71.71 0 00-.21 0c.17-.37-.32-.09-.15-.5-.19.11-.55-.26-.87 0 0 0 0-.09.08 0-.07-.12-.14-.24-.31-.23l.16-.27-.48.14c0-.26 0-.39.28-.46-.55 0-.34-.11-.84 0l.14-.15c-.1-.07-.42 0-.38-.17 0-.48-1-.93-1.36-1.67-.26.55-.08-.42-.39-.08.05-.14 0-.26.19-.28-.37-.13-.28-.53-.72-.39.06-.14.19-.11.21-.2s-.16 0-.14-.07.11 0 .2-.07c-.3-.22-.6.09-.88.39 0-.27-.11-.31-.39-.19 0-.15 0-.33.25-.21-.09-.1-.5-.67-.71-.43 0-.09-.12-.13-.17-.13a2.87 2.87 0 00-.46-.4v.09c-.33.23-.24-.08-.45-.2-.23-.57-.26-.05-.46-.63l-.13.2c-.37.38-.17-.54-.53-.58v.18c-.24 0 .09-.85 0-1s.09 0 .15 0c-.14-.53-.24.21-.54.06.07-.18.34-.29.19-.46s-.84 0-.86-.43c0 .15-.07.29-.25.27s-.17-.79-.59-.6a.18.18 0 010-.11c-.2 0-.55-.23-.78-.12.41-.76-1.1-.4-.61-1l-.45-.32.06-.05a.53.53 0 00-.66-.13c0-.09.07-.11.1-.14-.3-.45-.36-.46-.93-.43l.13-.23c-.18 0-.32-.78-.89-.87a.16.16 0 01.11-.05c-.62-.14-.59-1.41-1.33-.83l-.43-.07c.33.37-.3.26-.24.51-.18-.08-.21-.53 0-.42v.06c.37-.31-.35-.51-.14-.76-.74-.59-1.28-1.39-1.95-2l-.15.35-.23-.21c0-.12.1-.3.26-.15.05-.23-.39-.1-.45 0-.24-.39.4-.23.31-.32l-.16-.09v.06c-.21 0-.32.14-.51-.05s.07-.23 0-.28 0-.05-.07-.08L447 179l-.06.32c-.23 0-.27-.24-.35.13.12-.57-1-1.08-1-1.3a.9.9 0 01-.71-.36c0 .09-.16.38-.33.18.5-.47-.17-.53 0-1-.06.37-.61-.4-.68.14-.12-.18.15-.21.13-.43-.55-.13-.75-.86-1.28-1.19-.07.06-.07.24-.26.25v-.56c-.13 0-.41.33-.39-.05 0 .07-.06.19-.14.16-.67-1.13-2.15-1.33-2.59-2.77 0 .24-.08.18-.18.11 0 .08-.14.17-.21.27l-.18-.6c-.29.2-.45-.34-.69-.12l.16.06c-.41.15-.29.85-.62 1.21.46-.18.09.91.79.69 0 .13-.15.07-.19.19.21-.1.33-.05.45.17h-.05c.52.38.61.71 1.07 1.29l.11-.23a.53.53 0 01.1.3c.36-.17-.32-.29.05-.5-.15.51.84.71.6 1.23.18.15.12-.26.3-.11v.16l.17-.11a.38.38 0 010 .42s-.11 0-.14-.05c0 .26.47.32.49.41l-.12-.22c.59.31 1.08 1 1.75 1.14v-.12c.5.15.21.35.68.61a.45.45 0 01.4.13c-.19 0 0 .36-.2.36.54.16.31 0 .84-.08l-.06.2c.2-.06.26-.12.5 0-.27 0-.05.33-.37.34.16.68.89.21.7.84.53-.24-.18-.53 0-.53 0-.21.4-.16.5 0s-.18.71.16 1h-.09c0 .21.36.07.39.36.28-.17.19.19.47-.1l-.38-.19c.25.06.71-.16.86.26a.88.88 0 01-.33 0c0 .16.22.08.23.25-.28.29-.44-.25-.82-.18 0 .21.54.08.18.34.48-.32.29.33.78.2l-.16.17h.27l-.32.14c.36-.05.21.48.49.52-.38-.31.09-.29.05-.56.66.14-.13.71.46 1-.09 0-.18-.33 0-.32a.87.87 0 01.13.45c.37.25.1-.24.34-.23-.07.33.24.05.45.1l-.15.19c.29.45.42-.31.66.14l-.37.13.24.09-.21.19c.33 0 .36.1.51.32a.33.33 0 01.48-.18c0 .21-.21.12 0 .3-.15.07-.33.17-.29-.09-.07.05-.16.07-.22.12 0 .24.3.3.39.37a.2.2 0 01-.06-.12h.57c0 .12-.09.14-.18.16.09 0 .21 0 .33.07-.16.13-.28.29-.49.24l.48.11c0 .09 0 .34-.06.36.11.24.7.08.85.41a.22.22 0 01.16 0c.21.23.26.59.71.62l-.07.4c.27.12.07-.52.52-.32s-.09.31-.07.47c.24 0 .7-.14.75.29-.15.11-.18.02-.27-.02zm2.79 2.13c-.09 0-.29 0-.24-.11.24-.17.2-.03.24.11zm4.45 3c-.09 0-.12-.06-.13-.18a.22.22 0 01.13.15zm12.45 8.21c-.05-.2-.05-.14 0-.03zm.17.28a.09.09 0 00.08-.07c-.06 0-.11 0-.16-.07s-.02.08.08.08zm-26-21.63v.09c-.1-.06-.03-.09.05-.12z" fill="#34a37e"/>
  <path d="M459.93 192.41a.23.23 0 01.06-.12c-.05.01-.08.05-.06.12zm-8.32-6.27zm16.57 13.37a.37.37 0 010-.18.13.13 0 000 .18zm6.58 2.27l-.19-.08c.08.05.07.12.09.18s.05-.14.1-.1zm.39 2.3h.09l.07-.09c-.1-.05-.23.01-.16.09zm-.76-1.55c-.11.17 0 .2.16.26.19-.21.02-.24-.16-.26zm.19.27a.27.27 0 01.1.08c.09-.07-.02-.05-.1-.08zm-.96-1.62c0 .09.19-.18.17-.09.21-.15-.54-.04-.17.09zm.44 1.95l.12-.23-.19.11.07.12zm-.74-.86l.13.2h.1c.04 0-.19-.26-.23-.2zm.23.17a.26.26 0 00.16.09.35.35 0 00-.16-.09zm.22.55l-.02-.08-.11-.12.13.2zm-2.28-2.32l-.23-.1c-.08.05-.06.14 0 .17s.21.02.23-.07zm.13 1.02a.6.6 0 010-.22l-.2.24zm-.62-.4c-.08.05-.43 0-.18.15.1-.05.34.05.18-.15zm-2.56-2.69l.05.03.31-.4-.36.37zm-3.29-1.14c.15.28.26-.21.36.08.13 0-.09-.23 0-.27-.18-.01-.21-.13-.36.19zm.4-.19h.11a.19.19 0 00-.11 0zm-26.9-25.43l-.07-.2-.02.21.09-.01zm-.51.07l.17-.29-.27.16s.12.05.1.13zm17.99 18.51h.06c0-.09 0-.12-.06-.19zm-1.8-1.83l.03.04.13-.29-.16.25zm-1.87-1.07c.06.06.18.08.24.14-.18-.08-.03-.45-.24-.14z" fill="#34a37e"/>
  <path fill="#c7c7c7" d="M290.78 180.36h-24.7l-.46-1.92h24.7l.46 1.92zm-9.72 4.21h-13.98l-.45-1.91h13.97l.46 1.91zm95.45 169.58h-24.7l-.46-1.92h24.7l.46 1.92zm-9.71 4.21h-13.98l-.46-1.92h13.98l.46 1.92zm87.86-48.44h-24.7l-.46-1.92h24.7l.46 1.92zm-9.75 8.42h-12.94l-.46-1.92h12.94l.46 1.92zm3.87-4.21h-17.82l-.46-1.92h17.82l.46 1.92z"/>
  <path d="M492.77 336.47a28.59 28.59 0 01-16.36-4.71 17.61 17.61 0 01-7-9.42c-1.27-4.28-.94-7.89 1-10.73 2.7-4 8.53-6.32 16.86-6.65a1.34 1.34 0 011.29 1 .78.78 0 01-.72 1.05c-7.79.3-13.18 2.37-15.61 6-1.62 2.42-1.89 5.54-.79 9.26a14.79 14.79 0 005.89 8c4.79 3.37 11.62 4.83 18.78 4 10.76-1.23 15.22-6.34 12.54-14.38a10.38 10.38 0 00-4.36-5.27c-4.76-3.18-12.59-4.67-19.47-3.7a1.36 1.36 0 01-1.35-.87.79.79 0 01.6-1.14c7.37-1 15.86.62 21.1 4.12a13.29 13.29 0 015.46 6.67c3.05 9.19-2 15.24-13.82 16.59a37.07 37.07 0 01-4.04.18z" fill="#34a37e"/>
  <path d="M407.64 248.91h-32.29a21.83 21.83 0 01-3.09-6.43l-6-25.86h32.29s4.54 19.65 6.05 26.2a22.77 22.77 0 003.04 6.09z" fill="#37474f"/>
  <path d="M373.61 224.25c3.72-.31 7.5-.38 11.3-.4s7.61.09 11.48.4c-3.72.32-7.5.39-11.3.4s-7.61-.09-11.48-.4zm.98 4.26c3.34-.31 6.74-.38 10.15-.4s6.85.09 10.34.4c-3.34.31-6.74.39-10.15.4s-6.85-.09-10.34-.4zm.98 4.26a84.18 84.18 0 018.87-.4 89.46 89.46 0 019.06.4c-2.92.31-5.89.38-8.87.4s-6-.09-9.06-.4zm.99 4.23c3.72-.31 7.5-.38 11.29-.4s7.62.09 11.49.4c-3.73.32-7.51.39-11.3.4s-7.62-.07-11.48-.4z" fill="#fff"/>
  <path d="M527.86 379.72h-32.29a21.68 21.68 0 01-3.08-6.42l-6-25.87h32.29l6 26.2a23.09 23.09 0 003.08 6.09z" fill="#a6a6a6"/>
  <path d="M493.83 355.06c3.73-.31 7.51-.38 11.3-.4s7.61.09 11.48.4c-3.72.32-7.5.39-11.3.4s-7.61-.09-11.48-.4zm.98 4.26c3.35-.31 6.75-.38 10.16-.4s6.85.09 10.34.4c-3.35.31-6.75.39-10.16.4s-6.85-.09-10.34-.4zm.99 4.26a86.7 86.7 0 018.87-.4 89.27 89.27 0 019.05.4c-2.91.31-5.88.38-8.87.4s-5.99-.09-9.05-.4zm.98 4.25c3.72-.31 7.51-.38 11.3-.4s7.61.09 11.48.4c-3.72.32-7.5.39-11.3.4s-7.61-.08-11.48-.4z" fill="#fff"/>
  <path d="M331.92 339.64h-25.67a50.52 50.52 0 01-2-6.42c-1.49-6.47-6-25.87-6-25.87h32.29s4.53 19.65 6.05 26.2c.59 2.62-4.67 6.09-4.67 6.09z" fill="#34a37e"/>
  <path d="M336.57 333.55c.59 2.54-4.34 5.87-4.64 6.08.79-.64-.53-5.7-.53-5.7s5.01-.67 5.17-.38z" opacity=".2"/>
  <path d="M304.75 315c3.73-.32 7.51-.39 11.3-.4s7.62.08 11.49.4c-3.73.31-7.51.38-11.3.4s-7.62-.1-11.49-.4zm.99 4.24c2.91-.31 5.88-.38 8.87-.4s6 .09 9.05.4a84.06 84.06 0 01-8.87.4c-2.99-.01-5.99-.09-9.05-.4zm.98 4.26c2.91-.31 5.88-.38 8.87-.4s6 .09 9.05.4c-2.91.31-5.88.38-8.87.4s-5.99-.09-9.05-.4z" fill="#fff"/>
  <path d="M631.39 191.93a37.39 37.39 0 01-6.73 4.45c3.34-6 1.62-18.9 1.31-17-1.47 9-6.89 19.14-9.24 19.81a30.72 30.72 0 01-17.37-1.82c4.39-6.86 3-20 2.76-19.16-2.88 8.86-9.94 14.47-11.24 14.56-5.18-3.68-8.09-7.54-7.43-8 4.73-3.4 8.3-11.47 11.42-19.95 3.09-8.36 4.29-20.54 9-28.16 4.31-7 13.95-9 19.77-6.07 15.22 7.6 10.66 58.96 7.75 61.34z" fill="#263238"/>
  <path d="M622.56 130.07a9.88 9.88 0 013.41 2.07 20.91 20.91 0 012.63 2.86 33.25 33.25 0 013.7 6.63c2 4.61 3.06 13.89 3.61 18.8a77.24 77.24 0 01-.06 14.82c-.1 1.23-.29 2.45-.43 3.68l-.56 3.67-.72 3.66-.83 3.63.59-3.67.5-3.66.43-3.68c.1-1.22.24-2.45.3-3.67a83.79 83.79 0 00-.14-14.69c-.46-4.88-1.54-14.07-3.34-18.68a33.54 33.54 0 00-3.41-6.63 20.5 20.5 0 00-2.44-2.93 12 12 0 00-1.5-1.25 6.88 6.88 0 00-1.74-.96zm-39.86 53.36a62.51 62.51 0 003.81-5.48c1.19-1.86 2.3-3.76 3.31-5.7s1.95-3.91 2.75-5.92 1.53-4.06 2.3-6.09c1.59-4.05 3.12-12.48 5-16.46.94-2 1.91-3.95 3-5.87a31.42 31.42 0 011.87-2.78 8.48 8.48 0 012.5-2.34 8.91 8.91 0 00-2.29 2.46 28.91 28.91 0 00-1.67 2.84c-1 1.93-1.93 3.92-2.78 5.92-1.71 4-3.24 12.42-4.76 16.49-.8 2-1.54 4.05-2.38 6.08a52.47 52.47 0 01-2.91 5.93 61.43 61.43 0 01-7.75 10.92z" fill="#263238"/>
  <path d="M613.68 174.89c-3 12.61-15.63 42-22.94 43.24-6.81 1.12-35.06-10.51-38.22-16.67-1.69-3.3-6.76-32.51-3.37-30.45 4.28 2.6 35.57 22.61 37 22.41 2.93-.43 9.66-11.14 15.13-17 11.88-12.65 13.81-7.42 12.4-1.53z" fill="#d3766a"/>
  <path d="M602.83 208.38l-15.31-17.81s11.87-14.22 18.52-19.41c6.36-5 12-4.39 7.37 9.44a293.86 293.86 0 01-10.58 27.78z" fill="#dbdbdb"/>
  <path d="M603.51 201.89a34.61 34.61 0 00-2.77-3.7q-1.44-1.8-2.91-3.56c-1-1.19-2-2.38-3-3.54s-2.15-2.33-3.22-3.49c-.06-.07-.18 0-.12.11.93 1.22 1.82 2.48 2.78 3.69s1.93 2.38 2.91 3.56 2 2.37 3 3.54a37.9 37.9 0 003.23 3.47c.05.03.14.03.1-.08z" fill="#263238"/>
  <path d="M567.44 317s.7 27 19 25 13.31-28.46 13.31-28.46z" fill="#ff9cbd"/>
  <path fill="#34a37e" d="M547.388 129.49l32.345-3.461 20.184 188.552-32.345 3.463z"/>
  <path fill="#a6a6a6" d="M564.162 311.861l37.774-4.043.803 7.497-37.774 4.043zm-.887-8.288l37.774-4.044.803 7.498-37.775 4.043z"/>
  <path d="M579.75 126.06l-14.67-22-4.8-7.27L557 105l-9.68 24.57 3.78 4.35s2.63-5 2.7-5l3.77 4.35s2.64-5 2.7-5l3.71 4.35s2.71-5 2.77-5.05l3.71 4.36s2.71-5 2.77-5.05l3.7 4.36s2.75-5.1 2.82-5.18z" fill="#ebebeb"/>
  <path fill="#263238" d="M565.08 104.08l-4.81-7.25-3.23 8.12 8.04-.87z"/>
  <path d="M572.18 288.4c-1.06-12-2.24-24-3.44-35.93l-3.74-35.9-4-35.88-2-17.93-2.18-17.91 1.66 18 1.77 18 3.72 35.9 4 35.87c1.33 11.88 2.71 23.84 4.21 35.78zm8.54-.22c-1.06-12-2.24-24-3.44-35.93l-3.72-35.9-4-35.88-2.07-17.92-2.17-17.92 1.66 18 1.77 18 3.72 35.9 4 35.87c1.37 11.89 2.75 23.84 4.25 35.78zm8.54-.18c-1.07-12-2.25-24-3.44-35.93l-3.72-35.9-4-35.87-2.07-17.93-2.18-17.92 1.67 18 1.77 18 3.72 35.9 4 35.88c1.37 11.84 2.75 23.77 4.25 35.77z" opacity=".1"/>
  <path d="M549.74 167.37c-2.37 3.29-7.51 7-8.4 9.85a3.45 3.45 0 001.23 3.94s-3.21.92-3.59 3.67c-.2 1.41 1.88 3 1.88 3a4.14 4.14 0 00-2.72 3.32c-.15 2 2 3.23 2 3.23s-2.05 1.95-1.57 4c1 4.15 17.61 7.21 21.3 1.56 1.72-2.63-2.38-3.16-2.38-3.16s6.08-.66 6.8-4.07-4.65-3.77-4.65-3.77 5.88-.7 6.27-4.31-5-3.2-5-3.2 4.15-1.82 3.82-4.65c-.56-4.68-8.58-.41-12.07-2l-.9-6.39z" fill="#d3766a"/>
  <path d="M545.45 172c2-3.31-1.62-8.51-.19-11.94 2-4.65 6.52 1.1 6.44 8.35l-1.06 5.59z" fill="#d3766a"/>
  <path d="M540.4 194.58v.09a29.24 29.24 0 0017.3 2.13c.19 0 .21-.35 0-.35a59.82 59.82 0 01-17.3-1.87zm.38-6.77a.06.06 0 000 .12 27.44 27.44 0 0019 1.15c.22-.07.34-.35.08-.29-4.33 1.09-13.86.47-19.08-.98zm20.48-6.72c-6.15 1.8-12.26 1.44-18.48.18-.08 0-.09.1 0 .13 2.87 1.45 6.92 1.84 10.1 1.88a16.92 16.92 0 008.47-2c.08-.03.04-.23-.09-.19z" fill="#263238"/>
  <path d="M556.06 439.73c1.94.62 57.42 0 59.52-1.32.8-.51 1.18-8.6 1.37-18.38 0-2.11.07-4.29.09-6.51.13-14.38-.07-29.65-.07-29.65l-37.11.29L581 413.8l.24 6.51s-21.19 9.69-23.34 11.46-3.79 7.33-1.84 7.96z" fill="#d3766a"/>
  <path d="M556.06 439.72c1.94.64 57.41 0 59.52-1.31.8-.52 1.19-8.6 1.37-18.38 0-2.11.08-4.29.09-6.5s0-4.59 0-6.85h-36.35l.26 7.12.24 6.5s-21.14 9.7-23.29 11.47-3.78 7.32-1.84 7.95z" fill="#ebebeb"/>
  <path d="M555.89 439.81c2 .63 57.74 0 59.85-1.33 1-.63 1.35-12.5 1.47-25l-36.29.28.24 6.54s-21.26 9.78-23.41 11.52-3.81 7.36-1.86 7.99z" fill="#34a37e"/>
  <path d="M556.67 437.57c9.35-.33 47.08-.77 56.35-.39.07 0 .07.06 0 .06-9.26.53-47 .67-56.35.48-.2 0-.2-.15 0-.15zm23.15-19.36c3.67-.72 8.18-.2 11 2.39.11.1 0 .25-.16.22a51.26 51.26 0 00-10.84-2.14.24.24 0 010-.47zm-2.64 1.63c3.67-.72 8.18-.2 11 2.39.11.1 0 .25-.16.22a51.26 51.26 0 00-10.84-2.14.24.24 0 010-.47zm-2.64 1.63c3.67-.72 8.18-.21 11 2.39.11.1 0 .25-.15.21a52.1 52.1 0 00-10.85-2.13.24.24 0 010-.47zm-2.64 1.63c3.67-.72 8.18-.21 11 2.38.11.11 0 .26-.15.22a52 52 0 00-10.85-2.13.24.24 0 010-.47z" fill="#263238"/>
  <path d="M574.64 415c2.62 2 6 2.79 9.07 3.88.31.11.56-.19.57-.47a.1.1 0 00.09-.13 19.75 19.75 0 00-5.76-8.37c-1.55-1.27-4.25-2.14-5.68-.13s.18 4.05 1.71 5.22zm-1-2.95c-.69-4 3.67-2 4.77-1a20.37 20.37 0 012 2.08c1.29 1.52 2.34 3.19 3.47 4.82-1.46-.63-3-1.13-4.46-1.7-1.77-.66-5.37-1.98-5.75-4.2z" fill="#263238"/>
  <path d="M596.59 412.54c-.91-2.28-3.74-2.07-5.55-1.2a19.7 19.7 0 00-7.56 6.79.11.11 0 000 .15c0 .27.12.62.45.58 3.22-.34 6.71-.31 9.73-1.64 1.81-.77 3.8-2.51 2.93-4.68zm-7.83 4.8c-1.58.21-3.16.34-4.74.61a59.35 59.35 0 014.51-3.87 19 19 0 012.4-1.56c1.31-.7 6-1.7 4.41 2.06-.89 2.07-4.7 2.51-6.58 2.76z" fill="#263238"/>
  <path d="M628.14 225.05s-10.83 91.13-11.06 92.36c0 .16 3.08 83.95 3.08 83.95h-40.47s-1.09-71.77.41-86.17c1.91-18.38 14-90.14 14-90.14z" fill="#37474f"/>
  <path d="M617.83 393c-6.22-.13-4.43-.18-10.65-.24-3 0-23-.2-25.88.27-.06 0-.06.12 0 .13 2.85.47 22.84.29 25.88.26 6.22-.06 4.43-.11 10.65-.24a.09.09 0 000-.18zm-6.09-83.06c.57-5.15 1.31-10.28 2-15.41q2-15.52 4.12-31c1.58-11.73 3.26-23.43 4.93-35.14 0-.14.24-.14.22 0q-1.87 15.69-3.8 31.36c-1.28 10.35-2.65 20.69-4 31s-3.11 20.54-3.06 30.9c0 5.22.25 10.43.4 15.64s.29 10.44.43 15.65c.31 11.81.76 23.63.65 35.44a.12.12 0 01-.24 0c-.71-10.53-.94-21.09-1.29-31.63s-.71-20.86-.94-31.29a118.26 118.26 0 01.58-15.52z" fill="#263238"/>
  <path d="M653.44 437.86c2-.57 47.56-32.16 48.54-34.47.37-.87-3.84-7.78-9.17-16-1.15-1.78-2.35-3.6-3.58-5.44-8-12-16.68-24.51-16.68-24.51L642 378.5l17.53 23.93 3.84 5.26s-12.07 19.91-12.87 22.55.98 8.19 2.94 7.62z" fill="#d3766a"/>
  <path d="M653.44 437.86c2-.57 47.56-32.17 48.54-34.46.37-.88-3.84-7.79-9.17-16-1.15-1.78-2.35-3.6-3.58-5.44s-2.55-3.81-3.81-5.69l-30.12 20.42 4.2 5.75 3.85 5.25s-12.05 19.91-12.85 22.55.98 8.19 2.94 7.62z" fill="#ebebeb"/>
  <path d="M653.34 438c2-.57 47.83-32.34 48.82-34.66.45-1.07-5.9-11.1-12.82-21.54l-29.89 20.6 3.86 5.28s-12.11 20-12.92 22.68.98 8.24 2.95 7.64z" fill="#34a37e"/>
  <path d="M652.73 435.73c7.56-5.51 38.55-27 46.44-31.92.06 0 .09 0 0 .05-7.37 5.63-38.53 26.91-46.38 32-.14.14-.22-.01-.06-.13zm8.32-29c2.63-2.66 6.65-4.76 10.46-4.21.14 0 .11.23 0 .27a51.77 51.77 0 00-10.18 4.31.23.23 0 01-.28-.37zm-1.28 2.83c2.64-2.67 6.66-4.76 10.46-4.21.15 0 .12.23 0 .27a51.17 51.17 0 00-10.18 4.31.24.24 0 01-.28-.37zm-1.27 2.82c2.64-2.66 6.66-4.76 10.46-4.2.15 0 .12.23 0 .27a51.17 51.17 0 00-10.18 4.31.24.24 0 01-.28-.38zm-1.27 2.83c2.63-2.66 6.66-4.76 10.46-4.2.15 0 .12.23 0 .26a51.55 51.55 0 00-10.18 4.32.24.24 0 01-.28-.38z" fill="#263238"/>
  <path d="M655 407c3.3.18 6.55-1.07 9.69-1.87a.46.46 0 00.21-.71.1.1 0 000-.16 19.73 19.73 0 00-9.46-3.7c-2-.19-4.72.61-4.78 3.07S653 406.87 655 407zm-2.45-1.9c-2.84-2.95 1.93-3.67 3.4-3.48a22.19 22.19 0 012.8.62c1.92.53 3.73 1.33 5.58 2-1.57.3-3.1.74-4.65 1.1-1.9.43-5.62 1.36-7.18-.27z" fill="#263238"/>
  <path d="M671.75 392.63c-2-1.38-4.26.38-5.27 2.11a19.69 19.69 0 00-2.48 9.86.1.1 0 00.13.1.46.46 0 00.7.23c2.47-2.09 5.37-4 7.13-6.81 1.04-1.63 1.72-4.19-.21-5.49zM668 401c-1.2 1.06-2.43 2.05-3.58 3.16a57.07 57.07 0 011.56-5.73 21.05 21.05 0 011.11-2.64c.69-1.31 4-4.78 4.81-.77.38 2.21-2.52 4.71-3.9 5.98z" fill="#263238"/>
  <path d="M594.07 225.05s6.3 19.42 13.43 29.22c0 0 1.85 71.81 4.76 80 4.8 13.67 36 60.77 36 60.77l34.27-23.66s-29.6-43.74-31.47-48.7c-1.25-3.3-4.87-60.22-4.35-61.65 6.28-17.22-3.19-36-3.19-36z" fill="#37474f"/>
  <path d="M675.18 364.21c-5.19 3.42-3.75 2.37-8.9 5.85-2.52 1.7-19.08 12.91-21.15 14.91 0 0 0 .14.07.11 2.61-1.23 19-12.73 21.45-14.48 5.09-3.58 3.59-2.61 8.63-6.24a.09.09 0 10-.1-.15zM642.34 259c.51-2.23 1.07-4.47 1.41-6.74a34.28 34.28 0 00.29-6.94 68.52 68.52 0 00-2.53-13.85c-.31-1.14-.63-2.27-1-3.39-.06-.2.26-.28.32-.08a93 93 0 013.48 13.51 37.49 37.49 0 01-.34 13.36c-.94 4.54-2.26 9-2.08 13.64.09 2.43 3 47.55 3 49.89a19 19 0 00.91 6.79 34.77 34.77 0 003.2 5.91c1.23 2 2.48 4 3.73 6 4.94 7.9 10 15.73 15.28 23.41l2 2.91c.07.11-.1.19-.17.1q-8.29-11.44-16-23.31c-2.5-3.88-5.06-7.78-7.33-11.8a16.52 16.52 0 01-2.18-6.07c-.29-2.18-3.34-54.43-3.16-56.77a44.49 44.49 0 011.17-6.57zm-17.76-30.08c.85 3.5.72 7.87 3.21 10.74a8.49 8.49 0 004.83 2.51 23.62 23.62 0 006.28.35c.1 0 .1.13 0 .15-3.75 1.2-9 1-11.81-2.09a9.57 9.57 0 01-2.17-5.17 48.52 48.52 0 01-.52-6.48.08.08 0 01.18-.01zm-17.33 25.48a.27.27 0 01.54 0c.15 1.59.13 3.19.17 4.78s.08 3 .12 4.52c.09 3.11.15 6.21.22 9.31.15 6.2.33 12.4.59 18.59s.53 12.39.85 18.59c.15 3.09.34 6.19.52 9.28a66.61 66.61 0 00.92 8.91 52.76 52.76 0 006.72 17.15c.08.13-.12.22-.2.11a40.83 40.83 0 01-7-14.87c-1.4-5.8-1.55-11.8-1.88-17.72-.71-12.51-1.17-25-1.48-37.55-.09-3.52-.17-7-.18-10.56v-5.15c0-1.71-.06-3.6.09-5.39z" fill="#263238"/>
  <path d="M600.92 251.36a78.77 78.77 0 0111.91 5.29.13.13 0 01-.11.24c-4-1.65-8.1-3.22-12-5.07a.25.25 0 01.2-.46zm-1.21-26.2c0-.13.26-.16.26 0a122.85 122.85 0 00.67 12.78c.19 2 1.85 12.85 5.43 12.06.6-.13.91-.7 1-1.56a13.26 13.26 0 00-.47-3.34c-.4-2.28-.72-4.56-.93-6.87a59.65 59.65 0 01.15-12.88.12.12 0 01.23 0 112.54 112.54 0 001.09 17.78c.45 2.83 1.94 7.09-1.16 7.53s-5.21-6.7-5.6-8.65a62.66 62.66 0 01-.67-16.85z" fill="#263238"/>
  <path d="M606 250.28a18.39 18.39 0 01.8 2.26 5 5 0 01.34 1.86c0 .12-.18.13-.25 0a6.33 6.33 0 01-.83-1.81c-.28-.7-.56-1.39-.82-2.1-.18-.41.54-.66.76-.21z" fill="#263238"/>
  <path d="M597.17 205.13l-3.1 19.92h49.41c0-2.18-5-39.88-17.48-53.47-6.19-6.73-13.6-6-18.14-1.15-1.15 1.21-13 15.32-14.33 22.41-1.16 6.27 3.64 12.29 3.64 12.29z" fill="#ebebeb"/>
  <path d="M622.7 168.75h-12.9a9.7 9.7 0 011-.61h10.92a11 11 0 01.98.61zm2.49 2h-17.62l-.53.62h18.76c-.2-.22-.41-.43-.61-.62zm2.3 2.61h-22.1l-.5.62H628c-.2-.21-.35-.42-.51-.62zm1.82 2.62h-26c-.15.2-.31.4-.46.61h26.81c-.1-.21-.22-.41-.35-.59zm1.53 2.61h-29.47c-.14.21-.29.41-.44.62h30.23c-.1-.21-.16-.42-.32-.62zm1.32 2.61h-32.63l-.43.62h33.35c-.09-.21-.19-.42-.29-.62zm1.19 2.61h-35.54c-.14.21-.27.41-.39.62h36.2zm1.07 2.62h-38.19c-.12.21-.24.42-.34.62h38.77zm1 2.61h-40.55c-.1.21-.2.42-.28.62h41c-.04-.21-.12-.42-.19-.66zm.9 2.61h-42.48c-.07.21-.13.42-.18.62h42.84c-.06-.21-.13-.41-.2-.62zm.83 2.62h-43.79v.62h44c-.1-.21-.16-.42-.23-.62zm.78 2.61h-44.4l.12.62h44.45c-.1-.2-.1-.41-.19-.62zm.72 2.61h-44.47l.21.62h44.4c-.05-.2-.11-.41-.16-.62zm.67 2.62h-44c.11.21.22.42.33.61h43.83c-.07-.2-.12-.4-.18-.61zm.78 3.23l-.15-.62h-43.08c.19.27.3.41.3.41v.21zm.44 2h-43.71l-.1.62h43.92c-.04-.21-.08-.42-.13-.63zm.55 2.62h-44.67l-.1.61h44.88c-.04-.21-.08-.42-.13-.57zm.53 2.61H596l-.09.62h45.79c-.03-.19-.07-.42-.1-.63zm.47 2.61h-46.48l-.1.62h46.67c-.03-.21-.07-.42-.11-.63zm.45 2.62H595.2l-.1.61h47.52c-.03-.21-.07-.41-.1-.62zm.41 2.61h-48.16l-.09.62H643c0-.21 0-.41-.07-.63zm.35 2.61h-48.91l-.1.62h49.07c-.03-.2-.05-.4-.08-.64z" fill="#fff"/>
  <path d="M606.1 202.3a50.24 50.24 0 017.4 1.19c1.21.3 2.39.66 3.57 1 .59.19 1.18.36 1.78.53a7.75 7.75 0 001.91.35v.09a14.12 14.12 0 01-1.84 0 14.6 14.6 0 01-1.75-.33c-1.23-.3-2.44-.65-3.66-1-2.47-.63-4.94-1.25-7.44-1.7-.07.05-.07-.15.03-.13zm-6.16 2.22a55.6 55.6 0 016.18-.31c1 0 2.06.07 3.09.17l1.47.16c.54.07 1.07.21 1.61.27v.09h-3.09l-3.08-.06c-2.06-.06-4.12-.1-6.18-.1-.11-.05-.1-.2 0-.22z" fill="#263238"/>
  <path d="M626.6 171.83c12 9.73 40.42 35 36.38 42.78-6.63 12.75-26.82 27.38-33.31 31.14-2.81 1.62-18.75-17.82-16.34-20.29 2.91-3 23.7-15.65 23.09-17.68-.34-1.15-10.72-15.86-16.09-27.82-6.22-13.87 2.16-11.46 6.27-8.13z" fill="#d3766a"/>
  <path d="M624 221.31s-9.83-.51-16.28-.55c-3.6 0-9.77.5-12.42 1.7-4 1.78-19.4 11.79-17 15.59 2.12 3.43 14.29-6.85 14.29-6.85s-13.2 9.29-9.88 13 15.52-9.78 15.52-9.78-13.34 9.85-9.32 13.09c3 2.45 14.77-9.1 14.77-9.1s-11.41 8.54-8.39 11.19c3.33 2.93 14.83-7.05 14.83-7.05 8.8 5.45 16.45 5.49 20.47 2.75.84-.68-6.59-23.99-6.59-23.99z" fill="#d3766a"/>
  <path d="M596.24 228.15c-10.24 6.1-13.39 12.23-13.27 12.09 2.75-3.45 8-7.73 9.52-8.9s2.31-2 3.8-3.13c.04-.03-.01-.08-.05-.06zm4.95 4.85a40.56 40.56 0 00-11.26 8.93c-.12.14 0 .15.11 0 1.86-1.54 9.26-7.46 11.19-8.91.03-.02-.01-.02-.04-.02zm4.54 3.89a30 30 0 00-8.52 7.17c-.12.14 0 .15.16 0 2.79-2.44 5-4.37 8.43-7.09.05.03-.01-.12-.07-.08z" fill="#263238"/>
  <path d="M651.81 191.91l-21.81 8.6s-9.52-15.89-12.24-23.87c-2.61-7.65-.22-12.74 11.34-3.86a293.63 293.63 0 0122.71 19.13z" fill="#dbdbdb"/>
  <path d="M645.9 189.13a37.49 37.49 0 00-4.4 1.4c-1.45.51-2.89 1-4.32 1.58s-2.9 1.09-4.33 1.66-2.9 1.27-4.35 1.9c-.08 0 0 .17.06.15 1.46-.48 2.94-.9 4.4-1.41s2.88-1 4.32-1.59 2.89-1.09 4.33-1.66a39 39 0 004.34-1.9.07.07 0 00-.05-.13z" fill="#263238"/>
  <path d="M619.76 169.35c-.33.88-5.37 6.22-9.49 5.52-1.34-.23-.4-7.6-.4-7.6l-.06-.56-.76-7.84 9.67-4.64 1.39-.6s.06 2.15.12 4.84v3.98a51.22 51.22 0 01-.47 6.9z" fill="#d3766a"/>
  <path d="M620.23 158.47a15.81 15.81 0 01-10.42 8.24l-.76-7.84 9.67-4.64 1.39-.6s.06 2.15.12 4.84z" fill="#263238"/>
  <path d="M599.06 145c-3.35 13.41 4.31 16.93 7.2 17.65 2.62.65 11.65 2.54 16.36-10.46s-.46-18.78-6.39-20.59-13.82-.01-17.17 13.4z" fill="#d3766a"/>
  <path d="M602.37 142.61h1a1.48 1.48 0 001-.21.47.47 0 00.11-.58 1.18 1.18 0 00-1.12-.51 1.78 1.78 0 00-1.23.41.53.53 0 00.24.89zm8.69 1.69c-.31-.1-.58-.24-.88-.37a1.6 1.6 0 01-.82-.55.5.5 0 01.11-.59 1.22 1.22 0 011.24 0 1.82 1.82 0 011 .83.53.53 0 01-.65.68zm-2.46 3.08s.06.05 0 .09c-.22.92-.33 2 .43 2.49 0 0 0 .06 0 0-.95-.32-.79-1.76-.43-2.58z" fill="#263238"/>
  <path d="M609.63 146.59c1.5.21 1 3.2-.42 3s-.84-3.17.42-3z" fill="#263238"/>
  <path d="M610.19 146.85c.23.22.43.56.74.65s.69-.17 1-.43c0 0 .05 0 .05.05-.09.57-.42 1.12-1.05 1.1s-.88-.6-.93-1.2c0-.11.1-.25.19-.17zm-6.68-.52s-.08 0-.09.07c-.12.94-.42 2-1.32 2.15 1.05.08 1.44-1.31 1.41-2.22z" fill="#263238"/>
  <path d="M602.84 145.22c-1.47-.36-2.09 2.62-.73 2.95s1.97-2.64.73-2.95z" fill="#263238"/>
  <path d="M602.18 145.29c-.27.11-.56.35-.84.31s-.51-.42-.65-.77h-.05c-.14.57-.07 1.2.45 1.42s.95-.21 1.2-.75c.05-.08 0-.25-.11-.21zm5.31 9.71c-.25.19-.51.46-.85.45a2.61 2.61 0 01-1-.37s-.07 0 0 0a1.27 1.27 0 001.12.66 1 1 0 00.84-.73s-.07-.08-.11-.01zm-3.49-4.33s-.45 1.35-.57 2c0 .06.14.12.36.17a3.17 3.17 0 003.23-.6c.06-.05 0-.13-.08-.1a4.78 4.78 0 01-3 .28c0-.19.85-2.28.75-2.31a5.49 5.49 0 00-1.55.06c.86-2.83 2.16-5.5 3-8.33a.09.09 0 00-.16-.08 48.15 48.15 0 00-3.58 8.84c-.16.4 1.27.13 1.6.07z" fill="#263238"/>
  <path d="M603.94 152.76a3.89 3.89 0 001.26 1.46 1.69 1.69 0 001 .27c.77 0 .93-.71.92-1.32a4.67 4.67 0 00-.15-.95 4.9 4.9 0 01-3.03.54z" fill="#263238"/>
  <path d="M605.2 154.22a1.69 1.69 0 001 .27c.77 0 .93-.71.92-1.32a1.77 1.77 0 00-1.92 1.05z" fill="#ff9cbd"/>
  <path d="M621.91 153.68c-3.23-1-1.57-6.08-1.57-6.08s-3.55-1.51-1.91-7.49a9.41 9.41 0 01-8.1 2.12c-1.1-.18 3.3-1.77 3.3-1.77s-5.45 2.46-12.8-1.51c-.52-.28 3.32-8.15 10.36-9s12 2.54 14.6 7.63c0 0 3.83 3.52 3 7.94s-5.62 8.55-6.88 8.16z" fill="#263238"/>
  <path d="M625.3 153a16.3 16.3 0 003.17-12.84c-1.45-7.43-10.76-12.31-19.9-9.67 0 0 12.79.81 15.65 7.31s1.08 15.2 1.08 15.2z" fill="#34a37e"/>
  <path d="M620.23 152.69s3.66-3.78 5.43-2.41-1.47 7.19-3.87 7.67a2.34 2.34 0 01-2.89-1.74z" fill="#d3766a"/>
  <path d="M624.69 151.92v.06a6 6 0 00-3.6 3.17 1.3 1.3 0 012 0s0 .09-.06.08a1.43 1.43 0 00-1.64.24 7 7 0 00-1 1.15c-.1.13-.34 0-.26-.14.32-2.11 2.35-4.7 4.56-4.56z" fill="#263238"/>
  <path d="M618.9 156.21a2.6 2.6 0 001 1.42 1.47 1.47 0 00.39.22 2.43 2.43 0 001 .17c.15 0 .31 0 .49-.07 2.4-.49 5.63-6.3 3.86-7.67s-5.42 2.41-5.42 2.41z" fill="#d3766a"/>
  <path d="M624.69 151.92v.06a6 6 0 00-3.6 3.17 1.3 1.3 0 012 0s0 .09-.06.08a1.43 1.43 0 00-1.64.24 7 7 0 00-1 1.15c-.1.13-.34 0-.26-.14.32-2.11 2.35-4.7 4.56-4.56z" fill="#263238"/>
  <path d="M110.79 345.1c6.88-14.15 18.92-21.41 32.49-17.4s15.68 22.94 5.55 27.72-20.27-9.17-25.62-12-12.42 1.68-12.42 1.68z" fill="#34a37e"/>
  <path d="M104.12 382.76c0-1.71.1-3.41.17-5.12.12-3.4.23-6.81.36-10.21.23-6.23.9-12.34 3.48-18.08a28 28 0 0110.92-12.59 22.74 22.74 0 015.74-2.47 13.36 13.36 0 016.69-3.68 27.36 27.36 0 019.55-.24c.12 0 .11.19 0 .18a23 23 0 00-9 .64 19.21 19.21 0 00-3.64 1.42 18.17 18.17 0 00-2.1 1.33 19.65 19.65 0 018.29.08 19 19 0 012.88 1 8.68 8.68 0 012.26-.19 13.28 13.28 0 012.94.42 22.07 22.07 0 015.59 2.44c.1.06 0 .21-.1.15a20.74 20.74 0 00-5.45-2.05 17.5 17.5 0 00-2.8-.41 13.53 13.53 0 00-1.56 0 18 18 0 018.78 8.75c0 .1-.11.19-.16.08a16.46 16.46 0 00-11.18-9c-.3-.08-.61-.12-.91-.18a13 13 0 01.15 1.37c.09.69.2 1.37.34 2.05a34.6 34.6 0 001.11 4.14 32 32 0 001.64 4 19.06 19.06 0 002.29 3.87.09.09 0 11-.14.11c-.81-1.28-1.76-2.46-2.51-3.78a28.9 28.9 0 01-1.84-3.95 27.32 27.32 0 01-1.21-4.24c-.15-.77-.27-1.53-.35-2.3a5.13 5.13 0 01-.09-1.41 19 19 0 00-4.82-.1c.6 3.38 1.25 6.89 3.14 9.83.06.09-.1.18-.16.08a41.12 41.12 0 01-2.33-4.82 18.13 18.13 0 01-1.16-5 22.1 22.1 0 00-8 2.67 26.32 26.32 0 00-10.61 11.61 43.58 43.58 0 00-3.93 16.63c-.46 7.23-.55 14.51-1.27 21.72 0 .47-.8.63-.89.1a26.08 26.08 0 01-.11-4.85zM120 335.63a7.92 7.92 0 011.56-1.44c.57-.47 1.14-.92 1.75-1.33a13.16 13.16 0 013.91-1.82.09.09 0 010 .18 10.33 10.33 0 00-3.86 1.9c-.57.42-1.12.87-1.66 1.34a10.57 10.57 0 01-1.58 1.34.12.12 0 01-.12-.17z" fill="#263238"/>
  <path d="M142 340.76a41.15 41.15 0 013.16 4.17 25.77 25.77 0 012.35 4.66c0 .05-.06.07-.08 0a55.7 55.7 0 00-5.56-8.74c-.08-.06.05-.18.13-.09zm-14.81-1.4a10.1 10.1 0 00.78 2.56 16.4 16.4 0 001.31 2.26c0 .05-.05.1-.08.06a9.15 9.15 0 01-2.2-4.84c0-.11.17-.16.19-.04z" fill="#263238"/>
  <path d="M105.08 345.45s-9.74-12.25-28.55-7.91c-17.88 4.13-26.13 36.91-8.06 40.83S83.35 352 89.93 346.81c4.83-3.81 11.78-2.97 15.15-1.36z" fill="#34a37e"/>
  <path d="M62 355.45a34.66 34.66 0 013.88-3 16.48 16.48 0 014.12-2.04 25.58 25.58 0 012.45-3.15 24.2 24.2 0 015.69-4.53h-3.56a16.73 16.73 0 00-5.81 1.45c-.1.05-.18-.12-.08-.16a26.21 26.21 0 015.8-1.75 16.06 16.06 0 012.94-.25c.53 0 1 0 1.58.09h.3a25.34 25.34 0 015.42-2l-.52-.14a26.17 26.17 0 00-2.79-.46 21.66 21.66 0 00-5.63.09c-.11 0-.14-.17 0-.18a36.07 36.07 0 015.69-.23 23.85 23.85 0 014.73.61 26.09 26.09 0 013.43-.39c6.56-.27 13.71 2.18 17.74 7.57s4.83 12.59 5.55 19.1a146.11 146.11 0 01.72 27.34c0 .53-.8.44-.82-.07-.25-7.73-.52-15.47-1.26-23.17-.34-3.56-.72-7.15-1.31-10.68a31.41 31.41 0 00-2.6-8.8 16.11 16.11 0 00-6.34-6.82 21.6 21.6 0 00-9-2.77 24.4 24.4 0 00-8.43.79 5.49 5.49 0 010 1.67 9.43 9.43 0 01-.41 2.05 10.21 10.21 0 01-.79 1.83c-.34.64-.78 1.22-1.17 1.84-.06.1-.22 0-.15-.11a8.47 8.47 0 001.46-3.7 15.71 15.71 0 00.23-1.92v-1.46a24.86 24.86 0 00-8.21 4.34c-.46.37-.9.75-1.33 1.15a9.55 9.55 0 011.6 2 19.76 19.76 0 011.67 3 25.49 25.49 0 011.74 6.54.09.09 0 01-.18 0 18.89 18.89 0 00-2.14-6.2 25.83 25.83 0 00-1.67-2.75c-.31-.45-.64-.9-1-1.33-.19-.24-.39-.47-.57-.72a25.86 25.86 0 00-5.33 7.51 13.21 13.21 0 012.2 3.17 29.85 29.85 0 011.76 3.76 64.13 64.13 0 012.25 7.67.09.09 0 01-.18 0 32.24 32.24 0 00-2.67-7.56c-.56-1.18-1.15-2.34-1.78-3.48a32.58 32.58 0 01-1.68-3.2 24.19 24.19 0 00-2.14 8.71.09.09 0 01-.18 0 30.39 30.39 0 014.22-13.37c-1.15.49-2.3 1-3.41 1.56a19.36 19.36 0 00-3.91 2.74c-.12.02-.2-.12-.12-.19z" fill="#263238"/>
  <path d="M75.8 356.14c.56 1.86 1.27 3.66 1.78 5.54a21.09 21.09 0 01.83 5.53c0 .05-.08.05-.09 0a53.58 53.58 0 00-2.69-11 .09.09 0 11.17-.07zm-11.92-4.61a10.67 10.67 0 012.49-1.78 18.36 18.36 0 012.89-1c.11 0 .14.15 0 .18a11.39 11.39 0 00-2.78 1.14 20.77 20.77 0 00-2.48 1.55c-.1.05-.17-.04-.12-.09z" fill="#263238"/>
  <path d="M95.82 329.09S94 307.09 77.67 300c-13.66-6-21.48 9.39-11.83 18.79 7.81 7.56 20.34 4.13 29.98 10.3z" fill="#34a37e"/>
  <path d="M68.87 304.22a67.92 67.92 0 017.27 3.44 53.2 53.2 0 015.65 3.75c-.27-.55-.51-1.14-.78-1.68-.43-.85-.89-1.68-1.39-2.49a23.71 23.71 0 00-3.6-4.56c-.09-.08 0-.21.13-.12a36.14 36.14 0 013.79 4.44 24.61 24.61 0 011.55 2.49 9.87 9.87 0 011.1 2.54 1.18 1.18 0 01.18.13 54.31 54.31 0 017.82 7.64c0-.21-.09-.43-.15-.63-.31-1.07-.64-2.14-1-3.2a27.43 27.43 0 00-3-6.41c-.06-.1.1-.19.16-.09a50 50 0 013.42 6.26A21.93 21.93 0 0191.2 319a14.57 14.57 0 01.54 2.21c.71.9 1.41 1.81 2.07 2.75 7 10 10.55 22.09 11.39 34.19a106 106 0 01.19 10.84 69.5 69.5 0 01-1 10.88c-.05.23-.4.16-.4-.06.08-3.18.41-6.35.47-9.53s0-6.38-.3-9.55a89.8 89.8 0 00-3.53-18.73 67.25 67.25 0 00-8.32-17.6c-.69-.13-1.37-.32-2-.49s-1.63-.42-2.45-.65a24.66 24.66 0 01-4.56-1.67c-.1-.06 0-.22.1-.16A14.5 14.5 0 0088 323c1.28.25 2.61.42 3.89.71a61.31 61.31 0 00-3.8-5 28.61 28.61 0 01-9.31-.7 38 38 0 01-4.78-1.49c-1.64-.63-3.19-1.44-4.8-2.12a.09.09 0 11.07-.16 27.4 27.4 0 009.43 3.09 59.41 59.41 0 008.83.72c-1.17-1.33-2.37-2.63-3.65-3.85-4.29-4.09-9.4-7.85-15.05-9.81-.13-.04-.07-.22.04-.17z" fill="#263238"/>
  <path d="M82.18 304.29a24.42 24.42 0 012 2.93 15.55 15.55 0 011.45 3.41s0 .06-.07 0c-.54-1.08-1-2.2-1.56-3.28a16.19 16.19 0 00-2-3c0-.03.11-.15.18-.06zM67 311.61a17 17 0 003.35 1.4 30.78 30.78 0 003.42.92v.09a16.36 16.36 0 01-3.53-.77 29.81 29.81 0 01-3.32-1.49c-.15-.05-.05-.21.08-.15z" fill="#263238"/>
  <path d="M108.54 325.13c.1.95 2.47-8 16.3-15.92 12.56-7.21 27.56-25.95 15.24-37.8-9.94-9.56-36.08 11.28-31.54 53.72z" fill="#34a37e"/>
  <path d="M99 376.38a244.22 244.22 0 012.19-27.81 124.94 124.94 0 015.85-24.89c1-2.91 2.2-5.77 3.48-8.59a19 19 0 010-3.29c.07-1.41.2-2.82.33-4.22s.27-2.81.44-4.21.46-2.8.52-4.19c0-.13.21-.1.18 0a28.73 28.73 0 00-.5 4.45c-.11 1.35-.18 2.71-.23 4.07s0 2.72 0 4.09v1.53q1.95-4.12 4.21-8.09c-.94-5.73.28-11.73 1.45-17.33 0-.12.19-.06.17.05a48.22 48.22 0 00-.91 8.89c-.06 2.35 0 4.71.06 7.06l1-1.69c1.79-2.93 3.71-5.8 5.74-8.58a13.29 13.29 0 01.14-4.08 31 31 0 011-4.47c.44-1.47 1-2.9 1.53-4.32s1.4-2.83 2-4.29c.05-.12.23 0 .17.07a20.58 20.58 0 00-1.73 4.34 37.44 37.44 0 00-1.14 4.31c-.29 1.45-.53 2.91-.73 4.38-.14 1-.22 2-.39 3a104.16 104.16 0 019.68-11.27c.09-.09.2 0 .13.13a127.22 127.22 0 00-14.06 19.13c-.16.25-.3.51-.45.77.76-.48 1.64-.86 2.35-1.26l4-2.21 3.92-2.15c.67-.37 1.33-.76 2-1.11a14.84 14.84 0 002.34-1.3c.11-.07.22.09.11.15-1.33.73-2.51 1.82-3.79 2.64s-2.61 1.62-3.95 2.37c-2.46 1.37-5.13 2.35-7.55 3.77-1.68 2.94-3.23 6-4.66 9q2.2-1.41 4.5-2.69c1-.55 2-1.09 2.95-1.61a14.92 14.92 0 002.79-1.69c.09-.07.21.05.12.13a25.77 25.77 0 01-5.31 3.7c-1.78 1-3.57 2-5.42 2.95q-2.22 4.86-4 9.89c-5.83 16.49-8 34-9 51.37-.3 5.18-.46 10.36-.52 15.55s.21 10.35.2 15.53c0 .16-.26.19-.28 0-.62-4.59-.73-9.26-.93-13.89s-.09-9.38 0-14.09z" fill="#263238"/>
  <path d="M124.15 301.75a66.35 66.35 0 007.35-3.8 76.65 76.65 0 007-4.43s.09 0 .05.07a58.64 58.64 0 01-6.7 4.68 66.09 66.09 0 01-7.59 3.64c-.13.09-.26-.11-.11-.16zm-4.01-18.63c.2-.8.46-1.59.73-2.38a.08.08 0 010-.09l.54-1.33.07-.16.1-.25s.06 0 0 0-.09.31-.14.46a2.33 2.33 0 01-.07.25 65.5 65.5 0 00-2 9.39c0 .1-.17.11-.16 0a31.86 31.86 0 01.93-5.89z" fill="#263238"/>
  <path fill="#455a64" d="M84.4 379.72l.99 11.7 3.02 35.68h32.37l3.02-35.68.98-11.7H84.4z"/>
  <path fill="#263238" d="M84.4 379.72l.99 11.7h38.41l.98-11.7H84.4z"/>
  <path fill="#455a64" d="M127.96 386.25H81.23v-11.22h46.73z"/>
</svg>
