<svg xmlns="http://www.w3.org/2000/svg" viewBox="0 0 500 500">
  <path d="M446.33 145.29s-80.4-115.75-180.78-128C176.94 6.41 94.69 48.79 83.24 140.35 79.16 173 71.9 209.07 59 238.83 44.53 272.21 19.84 300 38.75 364.17s98.77 122.12 156.82 122 112.58-52.89 157.57-100.88 188.26-93.12 93.19-240z" fill="#34a37e"/>
  <path d="M446.33 145.29s-80.4-115.75-180.78-128C176.94 6.41 94.69 48.79 83.24 140.35 79.16 173 71.9 209.07 59 238.83 44.53 272.21 19.84 300 38.75 364.17s98.77 122.12 156.82 122 112.58-52.89 157.57-100.88 188.26-93.12 93.19-240z" fill="#fff" opacity=".7"/>
  <path fill="none" stroke="#263238" stroke-linecap="round" stroke-linejoin="round" d="M483.25 436.23H27.05"/>
  <path d="M109.51 262.87a.13.13 0 10-.24-.1 174.87 174.87 0 00-9.17 28.75A267.34 267.34 0 0095 321.3l-.72 7.54c-.11 1.25-.24 2.51-.33 3.76l-.21 3.78c-.11 2.52-.26 5-.33 7.57l.07 7.57.08 3.78c.06 1.26.15 2.52.23 3.77.19 2.52.35 5 .58 7.55.48 5 1.23 10 2 15a.13.13 0 00.13.11.13.13 0 00.13-.14c0-2.53-.12-5-.17-7.55s-.29-5-.26-7.51 0-5-.08-7.51l-.07-3.76.07-3.75v-7.5l.2-7.49.08-3.75c0-1.25.14-2.5.21-3.75l.46-7.49a268.43 268.43 0 014.24-29.72 174.66 174.66 0 018.2-28.94zm1.08 39.22a.15.15 0 00-.09-.17.14.14 0 00-.17.09 175.43 175.43 0 00-8.49 38.62c-.66 6.56-1.4 13.13-1.49 19.73a165.63 165.63 0 00.7 19.79.14.14 0 00.27 0c.76-6.57 1.23-13.12 1.68-19.67s.53-13.12 1-19.67a173.17 173.17 0 012.34-19.5 175.92 175.92 0 014.25-19.22zm21.74 13.8a.13.13 0 00-.18-.05 66.32 66.32 0 00-14.54 12.68 57.8 57.8 0 00-5.69 7.9l-1.17 2.21-.91 2.29a21.93 21.93 0 00-.8 2.32c-.23.78-.49 1.56-.71 2.35a93.4 93.4 0 00-3 19.18 110.25 110.25 0 00.72 19.31.15.15 0 00.12.12.13.13 0 00.14-.13L108 365c.66-6.32 1.06-12.68 2.42-18.85.17-.77.4-1.52.59-2.28a21 21 0 01.67-2.26l.78-2.21 1-2.08a55.37 55.37 0 015.21-7.91 65.66 65.66 0 0113.65-13.29.12.12 0 00.01-.23z" fill="#ababab"/>
  <path d="M121.81 340.45c-3 1.92-5 4.92-6.62 7.95a47 47 0 00-3.7 9.74c-.26.83-.47 1.67-.65 2.52l-.6 2.54a45.06 45.06 0 00-.64 5.17c0 1.73-.07 3.46.05 5.19a45.15 45.15 0 00.68 5.17.13.13 0 00.1.1.13.13 0 00.16-.1 46.18 46.18 0 00.92-5.09c.27-1.68.53-3.35.73-5s.47-3.32.6-5 .35-3.35.71-5a46.11 46.11 0 012.84-9.65 21.32 21.32 0 015.55-8.29.14.14 0 000-.17.13.13 0 00-.13-.08zm-30.5 19.16c-.71-8.49-2.11-16.9-3.44-25.3s-2.79-16.77-4.32-25.13-3.26-16.69-5.06-25a.12.12 0 00-.15-.1.13.13 0 00-.11.15c1.45 8.37 2.77 16.76 4 25.16s2.47 16.8 3.54 25.21 1.84 16.87 2.9 25.27l3.1 25.27a.13.13 0 00.13.12.14.14 0 00.14-.13c.09-2.13.1-4.26.15-6.39s-.09-4.26-.13-6.39c-.06-4.25-.43-8.5-.75-12.74zm-5.09-.13c-.45-3.36-1.07-6.7-1.71-10l-1.19-5c-.39-1.65-.76-3.31-1.25-4.94a141.12 141.12 0 00-6.48-19.3l-1-2.34-1.13-2.28c-.72-1.54-1.59-3-2.42-4.49a37.6 37.6 0 00-6.15-8.13.13.13 0 00-.18 0 .14.14 0 000 .19 37.45 37.45 0 015.61 8.31c.74 1.51 1.52 3 2.15 4.55l1 2.31.89 2.36A138.72 138.72 0 0180 340.06c.78 3.26 1.29 6.59 1.92 9.88l.8 5c.28 1.65.64 3.29.87 5 .53 3.32 1.14 6.63 1.72 9.95s1.12 6.65 1.83 10a.13.13 0 00.13.11.13.13 0 00.13-.13c0-3.39-.06-6.79-.24-10.18s-.59-6.83-.94-10.21zm-7.02.44c-1.58-4.46-3.39-8.82-5.38-13.09a117.11 117.11 0 00-6.76-12.4.15.15 0 00-.18 0 .13.13 0 000 .18 120.09 120.09 0 015.77 12.78c1.72 4.35 3.27 8.75 4.57 13.23s2.28 9 3.47 13.51 2.26 9 3.64 13.57a.15.15 0 00.13.1.15.15 0 00.14-.13 68.24 68.24 0 00-1.32-14.12 89.14 89.14 0 00-4.08-13.63zm-.29 14.83a30.48 30.48 0 00-3.74-7.83 32.54 32.54 0 00-5.44-6.76 24.9 24.9 0 00-3.46-2.61 14.17 14.17 0 00-3.92-1.78.15.15 0 00-.16.08.12.12 0 00.07.17 19.49 19.49 0 016.51 5.06 30.67 30.67 0 014.55 6.92c1.29 2.44 2 5.14 3.07 7.65.5 1.29 1 2.58 1.56 3.87a32.58 32.58 0 001.71 3.92.14.14 0 00.12.07.15.15 0 00.14-.13 33.08 33.08 0 00-.16-4.34c-.21-1.47-.51-2.88-.85-4.29z" fill="#ababab"/>
  <path d="M79.43 296.34s-13.91-3.21-17.12-18.19 7.13-8.56-2.14-32.1-7.17-28.89-3.92-35.66 5-4.64 7.85 4.28 13.19 22.82 17.11 48.86-1.78 32.81-1.78 32.81zM106.89 271s-9.27-3.21-9.63-20.69 6.78-13.91 7.85-35.66 2.5-37.09 6.42-37.45 14.27 10.7 17.83 34.95-4.63 40.3-11.77 47.44-10.7 11.41-10.7 11.41zm-32.45 46.38s-2.14-12.84-6.44-18.9-13.53-11.41-19.6-23.18-12.84-17.48-12.48-.71 7.85 25.32 17.12 31 21.4 11.79 21.4 11.79zm-3.92 22.12S62 323.09 49.47 311 27 292.77 30.57 298.84s7.85 5.7 13.91 16.4 4.28 18.55 12.84 24.61 13.2-.35 13.2-.35zm-1.08 21.04c-.35-1.07-.71-8.92-12.83-15.34s-23.54-3.92-22.12-.71 8.92 8.56 16.41 11.77 18.54 4.28 18.54 4.28zm36.74-42.44s-5.35-6.78-2.5-21 9.28-10.7 16.41-18.19 5.71-8.56 12.84-16.41 13.55-12.13 16.4-8.92-1.42 13.2-5.7 18.91-11.06 8.56-14.27 15.69-1.78 18.54-10 23.89-13.18 6.03-13.18 6.03zM124 322s12.84-14.62 22.12-25.32 12.83-18.9 13.19-11.77 3.22 12.86-4.31 22.09-31 15-31 15zm-6.76 23.56s-.36-5.71 20-18.9S166.1 311 164 316.31s-11.1 10.69-20.73 20.33-26.03 8.92-26.03 8.92z" fill="#34a37e"/>
  <path d="M80.28 294.82s-4.77-25.58-9.76-43.77-8.21-29.25-8.21-29.25m43.76 49.49s8.67-27.73 11.52-44.5-.35-29.24-1.78-36.73m-42.5 126.79a134.34 134.34 0 00-13.14-18.73c-7.84-9.27-13.91-14.26-17.47-23.18m63.48 43.16s2.85-17.12 9.63-26 20.33-22.82 25.68-31.74m-72.88 99.79s-12-7.81-20.56-12.09" fill="none" stroke="#ababab" stroke-linecap="round" stroke-linejoin="round"/>
  <path d="M103.51 435.79h-15.7a6.88 6.88 0 01-6.36-4.23c-5.13-12.29-18.83-47.77-10.58-57.83 7.86-9.58 41.72-9.58 49.58 0 8.25 10.06-5.45 45.54-10.58 57.83a6.88 6.88 0 01-6.36 4.23z" fill="#ababab"/>
  <g opacity=".3" fill="none" stroke="#000" stroke-miterlimit="10">
    <path d="M53.41 22.71h103.3v131.08H53.41z"/>
    <path d="M60.15 31.26h89.82v113.98H60.15z"/>
    <path d="M85.88 63.91h38.36v48.68H85.88z"/>
  </g>
  <path d="M392.57 167.46v-3.15a51.58 51.58 0 01.89-9.52l2.2-11.79h-20.22l2.21 11.79a51.57 51.57 0 01.88 9.52v3.15A37.47 37.47 0 01367.17 194a21.41 21.41 0 00-6.5 15.23c0 12.48 11.14 22.6 24.88 22.6s24.88-10.12 24.88-22.6a21.41 21.41 0 00-6.5-15.23 37.51 37.51 0 01-11.36-26.54zm-47.73-31.1L344 126.2h-26.14l-.8 10.16s-18.73 16.31-18.73 24.16 22.95 71.27 22.95 71.27h19.33s23-63.42 23-71.27-18.77-24.16-18.77-24.16zm-44.38 24.18h20.32m3.5-.22h3.28m27.74 6.99h-30.37m-.43 24.25h13.76m2.4-.22h4.81m-18.13-8.52h-21.63m20.75 26.88h17.05m-1.75-73.2H329.3" opacity=".3" fill="none" stroke="#000" stroke-miterlimit="10"/>
  <g opacity=".3" stroke="#000" stroke-linecap="round" stroke-linejoin="round">
    <path fill="none" d="M455.82 239.16H262.74v-7.28h193.08zm-8.95 196.82H271.7v-196.6h175.17z"/>
    <path fill="none" d="M440.77 291.18H278v-42.66h162.77z"/>
    <path fill="#263238" d="M367.81 273.78h-16.28v-7.86h16.28z"/>
    <path fill="none" d="M440.77 345.06H278V302.4h162.77z"/>
    <path fill="#263238" d="M367.81 327.66h-16.28v-7.86h16.28z"/>
    <path fill="none" d="M440.77 399.19H278v-42.66h162.77z"/>
    <path fill="#263238" d="M367.81 381.8h-16.28v-7.86h16.28z"/>
  </g>
  <path d="M331.23 475.15a68.5 68.5 0 0110.23.06c1.69.13 3.39.31 5.08.58a26.71 26.71 0 015 1.21c-1.7-.21-3.39-.3-5.08-.43l-5.07-.37c-3.39-.27-6.78-.54-10.16-1.05zm29.06-3.23a10.94 10.94 0 012.92-.71 14.51 14.51 0 013 0 12.44 12.44 0 013 .66 8.77 8.77 0 012.64 1.47c-1-.27-1.9-.54-2.85-.72a27.54 27.54 0 00-2.85-.41c-1.93-.21-3.85-.21-5.86-.29zm-295.71.02a67.17 67.17 0 0110.23.06c1.7.13 3.39.31 5.08.58a26.68 26.68 0 015 1.2c-1.7-.2-3.39-.29-5.08-.42l-5.08-.36c-3.38-.28-6.73-.55-10.15-1.06zm29.06-3.23a10.66 10.66 0 012.92-.71 14.52 14.52 0 013 0 12 12 0 013 .66 8.74 8.74 0 012.64 1.46c-1-.26-1.9-.54-2.85-.71s-1.89-.34-2.85-.42c-1.93-.22-3.85-.25-5.86-.28zm257.89-139.79a13.37 13.37 0 013.87-1.53 19.26 19.26 0 014.15-.54 18.77 18.77 0 014.16.36 17.06 17.06 0 014 1.25c-1.37-.18-2.72-.38-4.07-.48a36.18 36.18 0 00-4-.13 34 34 0 00-4 .3 33.32 33.32 0 00-4.11.77zm-79.81-58.13a13.75 13.75 0 013.87-1.52 19.36 19.36 0 014.15-.55 19.93 19.93 0 014.16.36 17.63 17.63 0 014 1.25c-1.38-.18-2.72-.37-4.07-.48a39 39 0 00-4-.13 34 34 0 00-4 .31 35.52 35.52 0 00-4.11.76zm130.09 52.59a15.32 15.32 0 01-2.67 2.29 21.5 21.5 0 01-3 1.77 19.26 19.26 0 01-6.74 1.94c1.06-.5 2.13-.92 3.18-1.4s2.09-.93 3.12-1.44c2.03-.98 4.04-2.06 6.11-3.16zm-32.29 9.23a22.92 22.92 0 015.91 0 20.86 20.86 0 012.92.55 6.5 6.5 0 012.7 1.29 13.88 13.88 0 00-2.85-.52l-2.89-.33a46.72 46.72 0 01-5.79-.99zM352 322.92a17.67 17.67 0 01-2.27 2.69 20.84 20.84 0 01-2.69 2.27 15.22 15.22 0 01-3.1 1.74 7.75 7.75 0 01-3.47.68 15.18 15.18 0 003.13-1.38 31 31 0 002.86-1.85c1.86-1.31 3.63-2.76 5.54-4.15zm-74.28-74.73a17.67 17.67 0 01-2.27 2.69 20.84 20.84 0 01-2.69 2.27 15.22 15.22 0 01-3.1 1.74 7.72 7.72 0 01-3.47.68 15.18 15.18 0 003.13-1.38 33.2 33.2 0 002.86-1.85c1.87-1.34 3.64-2.76 5.54-4.15z" fill="#263238"/>
  <g stroke-linecap="round" stroke-linejoin="round">
    <path d="M314.08 391.82s-16 4.86-22.84 4.86-10.69 1-14.58.48-105.66-8.62-114.53-4.55 53.31 35.65 78.57 44.88 70.46-20.4 76.29-28.18 3.89-19.92-2.91-17.49z" fill="#263238" stroke="#263238"/>
    <path d="M192.21 460.18c-.22 3.82-7.4 5.4-12.12 5.62s-12.8 7-30.54 7.86c-10.74.54-17.86-.9-22.5-2.91a17.09 17.09 0 01-6.23-4.28c-3.14-3.59-1.58-6.73 2.47-11.67 2.18-2.66 6.77-4 10.53-4.71a44.91 44.91 0 015.86-.68l6.73-2.92s38.4.23 42.88 2 3.15 7.88 2.92 11.69z" fill="#fff" stroke="#263238"/>
    <path d="M133.82 450.09c-1.48 6.23-4 15.72-6.77 20.66a17.09 17.09 0 01-6.23-4.28c-3.14-3.59-1.58-6.73 2.47-11.67 2.18-2.66 6.77-4.02 10.53-4.71z" fill="#fff" stroke="#263238"/>
    <path d="M165.5 275.19a13.24 13.24 0 00-5.84 8.08c-1.35 5.61-16.61 63.31-17.51 67.13s-3.37 13.25-2 20 16.61 17.74 19.31 18.41 33 10.33 37.94 12.13 35.69 3.36 41.76 2.69 19.54 8.62 47.72-4.5c5-2.31 1.76-50.31 2.43-53.45s27.3 6.09 30 5.41 13.24-3.81 11.45-8.75-28.29-57.25-33.23-65.11-14.37-12.8-19.31-14.14-23.35-4.72-25.14-4.94-39.29 0-50.52 1.79-30.31 9.66-32.1 10.78a36.84 36.84 0 00-4.96 4.47z" fill="#34a37e" stroke="#263238"/>
    <path d="M206.52 389.65c10 4.38 24.06 9.69 34.86 10.59m-47.59-16.61s3.77 2 9.49 4.57M271.4 373a75.577 75.577 0 01-5.25 3.82m-45.75 17.42s22.16-3.64 41.21-14.6m-28.11-90.01l-7.04 22.8-8.59-7.57m19.19-26.77l-1.96 6.34" fill="none" stroke="#263238"/>
    <path d="M204.48 274.09s19.61 30.32 21.1 27.94 9.21-37.15 9.21-37.15z" fill="#fff" stroke="#263238"/>
    <path d="M203.21 166.75s-16.93 2-33 22.68c-4 5.15-11 46.47-13 65.78s15.25 38.39 32.79 35.92 25.37-19.08 25.37-19.08l12.8-3.37s7.18 10.1 20.43 2.69 16.83-21.78 11.22-41.76-15.27-30.08-20.2-38.84-6.74-16.16-17.74-21.55-18.67-2.47-18.67-2.47z" fill="#263238" stroke="#263238"/>
    <path d="M179.77 232.64s-9.41 16.47-1.18 27.05m41.95-80.36l-1.96 19.99m31.53 60.98c-6.75 4-9.19-1.79-9.19-1.79m-11.37-54.09s7.06-1.57 16.07 8.62c7.89 8.92 14.56 30.75 10.07 41.32" fill="none" stroke="#737373"/>
    <path d="M204.43 193A106.21 106.21 0 01190 208.73c-14.9 13.33-34.89 24.3-30.19 47s25.49 23.52 25.49 23.52m25.04-95.61a47.41 47.41 0 01-3.08 5.31" fill="none" stroke="#737373"/>
    <path d="M241.16 204.24a83.85 83.85 0 01-1.14 9.95 1 1 0 010 .38c0 .12-.15.5-.34 1a6.87 6.87 0 01-1 2.43c-1.36 2.78-3.77 6.05-7.4 5.07-5.84-1.57-14.15-19.53-14.15-19.53l-35.92 26.49s5.94 22.79 9.54 28.85 16.49 17.12 23 18.69 16.89-2 21.26-10.86c7-14.21 4.35-31.06 4.35-31.06s3.1-2.29 3.77-11.5-1.97-19.91-1.97-19.91z" fill="#fff" stroke="#263238"/>
    <path d="M217.13 203.57s-12.3 22.18-22.92 30-17.86-3.11-17.86-3.11 10.36 1.3 17.34-4.14 16.05-22.26 16.57-23" fill="#263238" stroke="#263238"/>
    <path d="M206.58 242.86s-8.35-5.62-13.1-1.75" fill="none" stroke="#263238" stroke-width="2"/>
    <path fill="none" stroke="#263238" d="M208.6 244.43l2.47 5.84"/>
    <path d="M218.48 241.74s4.94-5.17 10.78-5.62" fill="none" stroke="#263238" stroke-width="2"/>
    <path d="M195.13 246.23s4.94 2.69 9.21.45m15.94-1.58s5.83 2 9.43-2" fill="none" stroke="#263238"/>
    <path d="M221 260.37s4.72 18.19 5.16 21.11a17.81 17.81 0 01-3.59 13c-3.59 4.49-12.35 11.22-12.35 11.22l-2.69 9.21-15.72-5.62s4.05-16.83 4.27-18.4.45-8.31.67-10.78a25.2 25.2 0 012-6.29l14.82-15.71z" fill="#fff" stroke="#263238"/>
    <path d="M222.52 266.88s-2.47 9.43-2.69 12.35-6.29 10.33-6.29 10.33M225 274.52s-2 10.1-2.69 11-2.7 5.16-2.7 5.16" fill="none" stroke="#263238"/>
    <path d="M213.77 252.51s-25.37 19.09-24.25 20 13.92 15.71 15.94 16.38 13-14.59 13.7-16.16S223 258.8 221.85 257s-8.08-4.49-8.08-4.49z" fill="#fff" stroke="#263238"/>
    <path d="M141 356.55c-.45.67-2.42 13.61.05 19s15 16.61 21.1 17.06 18.81 1.64 24.25-5.17c1.32-1.65 13.69-26.94 18.18-35.69a42 42 0 004.94-19.09 6.44 6.44 0 00-2.69-4.94s-4 .68-10.56-1.57-12.79-9.65-12.79-9.65-9.88 2.24-15 6.29-20 37.49-20 37.49" fill="#34a37e" stroke="#263238"/>
    <path d="M183.33 369.5c-7.58 3-17.67 6.32-24.83 6.53M193.94 365s-1.85.88-4.8 2.14m-19.21 2.03s-16 8.77-21.34 3.43" fill="none" stroke="#263238"/>
    <path d="M192.44 304.6l18.18 5.4-3.14 19.53s0 .9-8.76-1.12-15-9.66-15-9.66z" fill="#34a37e" stroke="#263238"/>
    <path d="M333.88 468.49c-2.08 1.21-6.13 1.5-10.44 1.23a47.72 47.72 0 01-12.44-2.35c-6.06-2.25-24.47-6.51-24.47-6.51s34.12-15.72 42.43-13.92a37.18 37.18 0 014.47 1.24c5.18 1.84 7.62 4.42 8.32 7.29.88 3.59-3.6 10.53-7.87 13.02z" fill="#fff" stroke="#263238"/>
    <path d="M333.88 468.49c-2.08 1.21-6.13 1.5-10.44 1.23 1.35-2.06 2.83-4.43 4.25-7a67.1 67.1 0 005.72-14.58c5.18 1.84 7.62 4.42 8.32 7.29.9 3.63-3.58 10.57-7.85 13.06z" fill="#fff" stroke="#263238"/>
    <path d="M260.69 431.67s-37.49-11-57.25-24-53.88-24.94-63.31-27.67-21.33-1.58-26 5.38-15 25.37-11.67 32.33 24.7 22.45 32.78 26.27 20.43 7.64 31.43 8.08 55 6.51 55.9 6.51 19.54-6.73 28.07-13.69 10.05-13.21 10.05-13.21z" fill="#263238" stroke="#263238"/>
    <path d="M286.06 406.3s-55.68 37.27-69.82 41.54-25.37 6.06-28.29 6.28-1.35-.67-3.15 2-9.2 13.24-9.65 16.61 21.33 3.14 34.58 4.26 35-4.26 35-4.26 47.15-9.43 54.11-11.68 28.73-10.1 38.84-16.83 20.43-33.68 20.2-39.07-11.67-14.37-18-18.86-15.49-3.37-22.67.68-31.15 19.33-31.15 19.33z" fill="#263238" stroke="#263238"/>
    <path d="M292.8 406.58c3.77-2.28 6.16-3.75 6.16-3.75m-87.3 40.33c14.32-4.23 36.41-11.19 46.69-16.67 9.1-4.85 21.09-11.9 29.67-17M198.32 447s2.66-.72 6.91-1.94m-1.79-37.41s36.9 18.49 51.73 20.61m87.59-4.26c-5.44 8.37-13.79 19.52-22.62 25.06-15.18 9.53-53.32 17.65-53.32 17.65m82.28-53.28s-.86 1.63-2.39 4.23m-114.49 3.18s15.18-7.77 23.31-11.3" fill="none" stroke="#737373"/>
    <path d="M279.32 326.38l5.39 11s-5.16 5.39-3.14 11.67 15.94 23.8 19.76 27.62 15 7.63 23.12 3.37A19.59 19.59 0 00335 363c.23-5.39-2.24-16.39-4.26-20.65s-8.76-6.74-13-10.55-13.48-1.13-13.48-1.13l-4.26-5.19s-9-8.31-20.68.9z" fill="#34a37e" stroke="#263238"/>
    <path d="M284.71 337.38s3.1 3.47 9.38 2.78 10.15-9.52 10.15-9.52l-6.66-6.88-18.26 2.62z" fill="#34a37e" stroke="#263238"/>
    <path d="M276.87 298s1.4 8.66.23 13.34a23.58 23.58 0 01-2.57 6.79s-5.86-1.4-8.43-1.87-8.43 2.34-8.2 4 2.58 1.87 7.73 2.81 7 1.17 8.43 2.34 5.15 4.45 9.13 4.68a13 13 0 006.79-1.4s6.32 2.34 9.36 1.17 5.62-4.92 6.32-10.3.71-8.2-3-12.41-15.92-3.28-17.09-4.22-4-8.89-4-8.89z" fill="#fff" stroke="#263238"/>
    <path d="M281.55 291.69s-5.62-.24-6.56 1.64-.23 6.08 2.58 6.79 6.09-.71 6.32-3.28 0-5.15-2.34-5.15zm13.34 4.21s-6.32-.93-7.25.94-.94 12.64.93 13.58 5.15 1.87 5.86-1.41.46-10.77.46-13.11z" fill="#fff" stroke="#263238"/>
    <path d="M295.36 300.82s4.92-1.17 5.62.47.23 3.74-.47 7.49-.7 5.85-3.27 5.15a5 5 0 01-3.28-3.28z" fill="#fff" stroke="#263238"/>
    <path d="M301.68 305s4.92 2.58 4.45 4.68-1.4 9.13-4.92 9.37-1.63-7.49-1.63-7.49z" fill="#fff" stroke="#263238"/>
    <path d="M277.34 317.91s5.85-1.17 7.49-.7 4.45 4.68 4.45 4.68" fill="none" stroke="#263238"/>
  </g>
  <path d="M378.71 411.26s1.45 13.12 5.34 18 10.2 10.69 11.18 13.12-7.78 21.38-9.24 23.33-9.71 1.45-7.77 5.34 10.2 3.89 14.09 1.46 16-24.78 18.95-30.13 4.86-7.77 5.35-11.17-16.52-11.18-21.38-17.5-13.12-9.71-16.52-2.45zm-71.41 14.28s.75 14.48 0 17.23-4.75 10-8.24 15.23-4.75 6-9.74 8-5.49 3.74-3 5.24a10.19 10.19 0 008.49.75c2.5-1 9.74-6.49 11.74-9.74s15.73-21.47 17.23-25.22-16.48-11.49-16.48-11.49z" fill="#8c8c8c" stroke="#263238" stroke-linecap="round" stroke-linejoin="round"/>
  <path d="M280.58 343.39s-10.74-8-11.74-5 3 9.48 3 9.48z" fill="#bababa" stroke="#263238" stroke-linecap="round" stroke-linejoin="round"/>
  <path d="M442.43 457.08a19.15 19.15 0 01.2 2.42c0 5.74-5 14.23-9.25 16.23s-7-.25-6.24-3.75 5-6.24 5.5-7.24c.22-.45-.11-3-.76-6.06a56.43 56.43 0 00-3.24-10.92c-2.24-4.75-12-14-15.48-14s-17.48-2.25-22-7-11.24-10.73-16-13-8.24.75-15.24 6.74a55.23 55.23 0 01-15.48 9 17.19 17.19 0 00-1.49 5.74 44.77 44.77 0 01-4.75 16.23 169.9 169.9 0 01-10.48 18c-2 2.74-8.24 7-12.24 8s-7.49-.76-7.74-3 5.5-3.24 6.74-4 8.74-9.48 8.5-15.73-3.5-18-3.5-18-10-4.24-13.74-8.24-6.24-16-8-28.46-9-18.47-10.73-18.47c-1.43 0-6.54 1.67-10.54 2a13.29 13.29 0 01-2.45 0c-4-.5-11.24-7.24-12.48-8.74s2.25-4.49 3-6.24a5.25 5.25 0 00.21-2.81 18.63 18.63 0 00-1.45-4.44c-1.25-2.74 4-12.23 11.74-18s20.47-.75 26 3.74 13.23 15.73 15.23 15.73a3.24 3.24 0 00.5-.05c2.18-.34 6.25-2.69 6.25-2.69s1.52-1.22 4-3.05l.6-.45c3.29-2.4 8-5.69 13.15-8.79 2-1.19 4-2.36 6.07-3.43a61.8 61.8 0 019.85-4.25 20.13 20.13 0 014.93-.85 49.58 49.58 0 0111.79.93 117.7 117.7 0 0114.86 3.85c3.16 1 6 2.05 8.26 2.91 3.3 1.24 5.35 2.14 5.35 2.14s2.7.54 5.84.89 7 .5 8.65-.38c1-.56 2.13-2.4 3.25-5 .92-2.1 1.85-4.67 2.74-7.41 1.19-3.67 2.32-7.62 3.27-11.09.22-.83.45-1.63.65-2.39a52.41 52.41 0 001.36-6.69 57 57 0 00.49-9.74 87.91 87.91 0 00-1.36-12.73c-.38-2.18-.86-4.49-1.42-6.92-.28-1.22-.57-2.37-.86-3.44a48.66 48.66 0 00-2.71-7.66c-2.85-6.05-5.88-7.28-8.66-9.38a29.16 29.16 0 01-2.65-2.2c-2.84-2.66-4.83-5.91-3.09-9.78 2.24-5 11-5.74 17-1.25a15.08 15.08 0 011.86 1.71c3.06 3.3 6.27 9 9.18 15.78 1.12 2.62 2.2 5.39 3.21 8.24 1.08 3.1 2.08 6.3 3 9.48a37.69 37.69 0 011 5.1 75.2 75.2 0 01.58 10.26c-.07 15.24-3.41 33.31-5.59 39.82-3 9-18.05 26.26-20.05 27.51s-2.17 5-2.42 8.44 4.24 28.22 8.73 33.46c3.47 4 6.33 5.12 8.61 8.48a16.85 16.85 0 011.89 3.76c.48 1.29 1.08 3.11 1.73 5.25 1 3.12 2 6.91 3 10.73.37 1.41.72 2.81 1 4.19 1.13 4.29 1.96 8.22 2.32 10.96z" fill="#bababa"/>
  <path d="M442.63 459.5c0 5.74-5 14.23-9.25 16.23s-7-.25-6.24-3.75 5-6.24 5.5-7.24c.22-.45-.11-3-.76-6.06a8.51 8.51 0 004.76.3 30.56 30.56 0 005.79-1.9 19.15 19.15 0 01.2 2.42z" fill="#fff"/>
  <path d="M308.82 356.29a11.11 11.11 0 01.35 7.4 40.25 40.25 0 01-4.6 8.77s4-.42 6.06-2.71 3.45-8.08 3.45-8.08z" fill="#263238" stroke="#263238" stroke-linecap="round" stroke-linejoin="round"/>
  <path d="M298.51 344.88s1.47 4 0 7.31-4 5.64-3.55 7.32a13.26 13.26 0 01.42 2.92 37.56 37.56 0 015-5.64c2.3-1.88 3.58-6 3.58-6s-4.4-5.28-5.45-5.91z" fill="#263238"/>
  <path d="M288.31 355s-2.44 2.45-8.15 0-10.32 2.17-10.32 2.17 5.43-1.63 10.05.55 6.79-1.66 8.42-2.72zm-8.42-7.64s-4.62 1.09-6.79 2.45a18.88 18.88 0 00-3.8 3.26s1.9-8.42 10.59-5.71zm146.38-91.65l-.42.13a32.25 32.25 0 00-15.33 9.16c-2.84-2.66-4.83-5.91-3.1-9.78 2.25-5 11-5.74 17-1.25a15.12 15.12 0 011.85 1.74zm7.84 85.67c-2 1.43-5.41 3.14-8.26 3.14-1.53 0-4.12.08-6.18.16.91-2.1 1.84-4.67 2.73-7.41.86.34 1.89.77 2.88 1.26 2.28 1.14 10.83 1.47 8.83 2.85zm4-19.1c-1.54.62-7.37 2.39-12.43 3.9.22-.83.44-1.63.64-2.39a52.41 52.41 0 001.37-6.69c3.92.95 12.93 4.18 10.42 5.18zm5.11-17.71a28.56 28.56 0 00-7.11.31 47.79 47.79 0 00-7.93 2.48 89.34 89.34 0 00-1.36-12.73 35.57 35.57 0 0112.14-.87c1.32.17 2.55.35 3.68.55a73.63 73.63 0 01.58 10.26zm-4.57-24.84a44.9 44.9 0 00-14.11 4.54 47.57 47.57 0 00-2.72-7.66 33.28 33.28 0 0113.62-5.12c1.12 2.62 2.21 5.39 3.21 8.24zM340 389c-1.43.86-1.71-8.55-3.42-15.4-1.23-4.9-5.82-11.57-8.33-14.95-.5-.68-.91-1.23-1.2-1.59l.6-.45c3.29-2.4 8-5.69 13.15-8.79.83 1.65 3.52 7.81 3.76 17.23.3 11.13-3.13 23.1-4.56 23.95z" fill="#263238" stroke="#263238" stroke-linecap="round" stroke-linejoin="round"/>
  <path d="M327.06 357.07c-2.51 1.83-4 3.05-4 3.05s-4.07 2.35-6.25 2.69c1.42 2.15 5.93 9.22 7 14.21 1.28 5.94 1.49 14.11 2.55 13.37s3.61-11.14 3.4-20.8a46.61 46.61 0 00-1.47-10.93c-.2-.77-.4-1.46-.6-2M358.84 375c-1.43.85-1.71-8.56-3.42-15.4-1.27-5.05-6.1-12-8.54-15.24a62.19 62.19 0 019.85-4.25 20.21 20.21 0 014.94-.85 47.87 47.87 0 011.73 11.78c.29 11.16-3.14 23.14-4.56 23.96zm29.47-30.92a48.41 48.41 0 01-2.56 8.22c-4.2 10.3-12.14 19.9-13.78 20.11s1.86-8.52 3-15.48c.82-4.85-.61-12.51-1.56-16.7a117.25 117.25 0 0114.9 3.85zm19.45 5.92c-.1.28-.22.56-.34.85-4.2 10.3-12.14 19.9-13.78 20.11s1.86-8.52 3-15.48a31.32 31.32 0 00-.11-8.51c3.3 1.24 5.36 2.14 5.36 2.14s2.73.56 5.87.89zm-63.27 79.54s-5.65-4.83-11.71-4.83-7.94 1-4.8 2.71 14.63 10.66 14.63 10.66zM340.52 446s-5-1-9.83-1.67-8.35-1.05-5.85.21a70.4 70.4 0 018.78 5.64l3.76 3.13a48.35 48.35 0 003.14-7.31zM324 413s5-2.92 10.45-1a59.76 59.76 0 019.4 4.18s2.09-6.06-9-9.2S324 413 324 413zm67.5 11.91s8.57-4 12.54-9.61a72.79 72.79 0 005.85-9.61 15.47 15.47 0 01-1.46 10.66c-2.92 5.64-10.86 12.74-10.86 12.74s-4.39-1.88-6.07-4.18zm29.26-14.41a96.78 96.78 0 01-6.9 11.49 42.3 42.3 0 01-6.89 7.73s-.42 2.09 5.64-2.51 13.36-9.83 12.94-10.94a85.81 85.81 0 00-4.85-9zm15.36 20.79c-4.26 4-13.48 6-13.48 6a80 80 0 006.27-6.69c1.35-1.72 2.7-5.48 3.59-8.28a16.85 16.85 0 011.89 3.76c.48 1.25 1.08 3.07 1.73 5.21zm-113.37 25.6l7.94 2.3s1.47-1.47-2.71-3.77l-4.18-2.29zm117.46-10.68c-5.34.75-11.57 1.55-11.57 1.55l10.52-5.76c.37 1.43.72 2.83 1.05 4.21z" fill="#263238" stroke="#263238" stroke-linecap="round" stroke-linejoin="round"/>
  <path d="M278.81 382.68a23 23 0 01-2.28.92 13.29 13.29 0 01-2.45 0c-4-.5-11.24-7.24-12.48-8.74s2.25-4.49 3-6.24a13.42 13.42 0 01.21-2.81c.21-1.07.64-2 1.51-1.6 1.9.83 2.18 3.81 6.79 4.35s10 1.09 11.42 5.71-1.11 6.23-5.72 8.41zm40.06 82.69a24.62 24.62 0 01-4.34 5.11c-1.24.75-7 1.75-6.74 4s3.75 4 7.74 3 10.24-5.25 12.24-8c.13-.18.28-.39.43-.62a38.36 38.36 0 00-9.33-3.49zM298.77 399c1.74 12.48 4.24 24.47 8 28.47 2.69 2.87 8.6 5.86 11.72 7.33a27.77 27.77 0 00-2.23-5.59c-2.5-4.24-6-15.23-6-20s-6.74-18.23-9-21.23-4.24-11-4.24-11-1.5 1-3.75 2.25a12.5 12.5 0 01-5.24 1.24c1.75.09 8.97 6.09 10.74 18.53zM368 411s9.69-10.83 12.55-10.55 8.27 20.82 8.27 20.82-7.86-6-11.41-9.13S368 411 368 411z" fill="#fff"/>
  <path d="M442.43 457.08a19.15 19.15 0 01.2 2.42c0 5.74-5 14.23-9.25 16.23s-7-.25-6.24-3.75 5-6.24 5.5-7.24c.22-.45-.11-3-.76-6.06a56.43 56.43 0 00-3.24-10.92c-2.24-4.75-12-14-15.48-14s-17.48-2.25-22-7-11.24-10.73-16-13-8.24.75-15.24 6.74a55.23 55.23 0 01-15.48 9 17.19 17.19 0 00-1.49 5.74 44.77 44.77 0 01-4.75 16.23 169.9 169.9 0 01-10.48 18c-2 2.74-8.24 7-12.24 8s-7.49-.76-7.74-3 5.5-3.24 6.74-4 8.74-9.48 8.5-15.73-3.5-18-3.5-18-10-4.24-13.74-8.24-6.24-16-8-28.46-9-18.47-10.73-18.47c-1.43 0-6.54 1.67-10.54 2a13.29 13.29 0 01-2.45 0c-4-.5-11.24-7.24-12.48-8.74s2.25-4.49 3-6.24a5.25 5.25 0 00.21-2.81 18.63 18.63 0 00-1.45-4.44c-1.25-2.74 4-12.16 11.74-18 7.84-5.92 21.2-1.44 26.06 4.13 4.67 5.34 13.13 15.34 15.13 15.34a3.24 3.24 0 00.5-.05c2.18-.34 6.25-2.69 6.25-2.69s1.52-1.22 4-3.05l.6-.45c3.29-2.4 8-5.69 13.15-8.79 2-1.19 4-2.36 6.07-3.43a61.8 61.8 0 019.85-4.25 20.13 20.13 0 014.93-.85 49.58 49.58 0 0111.79.93 117.7 117.7 0 0114.86 3.85c3.16 1 6 2.05 8.26 2.91 3.3 1.24 5.35 2.14 5.35 2.14s2.7.54 5.84.89 7 .5 8.65-.38c1-.56 2.13-2.4 3.25-5 .92-2.1 1.85-4.67 2.74-7.41 1.19-3.67 2.32-7.62 3.27-11.09.22-.83.45-1.63.65-2.39a52.41 52.41 0 001.36-6.69 57 57 0 00.49-9.74 87.91 87.91 0 00-1.36-12.73c-.38-2.18-.86-4.49-1.42-6.92-.28-1.22-.57-2.37-.86-3.44a48.66 48.66 0 00-2.71-7.66c-2.85-6.05-5.88-7.28-8.66-9.38a29.16 29.16 0 01-2.65-2.2c-2.84-2.66-4.83-5.91-3.09-9.78 2.24-5 11-5.74 17-1.25a15.08 15.08 0 011.86 1.71c3.06 3.3 6.27 9 9.18 15.78 1.12 2.62 2.2 5.39 3.21 8.24 1.08 3.1 2.08 6.3 3 9.48a37.69 37.69 0 011 5.1 75.2 75.2 0 01.58 10.26c-.07 15.24-3.41 33.31-5.59 39.82-3 9-18.05 26.26-20.05 27.51s-2.17 5-2.42 8.44 4.24 28.22 8.73 33.46c3.47 4 6.33 5.12 8.61 8.48a16.85 16.85 0 011.89 3.76c.48 1.29 1.08 3.11 1.73 5.25 1 3.12 2 6.91 3 10.73.37 1.41.72 2.81 1 4.19 1.17 4.29 2 8.22 2.36 10.96z" fill="none" stroke="#263238" stroke-linecap="round" stroke-linejoin="round"/>
  <path d="M296.31 348.63c-3.75-7.49-14.73-11.73-14.73-11.73a25.11 25.11 0 00.75 7.24c1 4 2 7.49 2 7.49" fill="#bababa" stroke="#263238" stroke-linecap="round" stroke-linejoin="round"/>
  <path d="M281.33 351.38s-3.75-16.48.25-14.48 7.74 13.73 7 15.73-5 1.25-7.25-1.25z" fill="#fff" stroke="#263238" stroke-linecap="round" stroke-linejoin="round"/>
  <path d="M273.34 366.36s-3.5-2.25-3.5-1a10.42 10.42 0 001.25 3.5zm-11.74 8.49s2.5 2.5 3 .75-3-2.25-3-.75z" fill="#263238" stroke="#263238" stroke-linecap="round" stroke-linejoin="round"/>
</svg>
