<svg xmlns="http://www.w3.org/2000/svg" viewBox="0 0 750 500">
  <path fill="#f5f5f5" d="M127.81 85.28l-39.79 80.27 11.88.45-33.72 63.78h17.71l-27.62 56.67h154.42l-34-56.67 16.29-.7-32.58-63.76 12.04-.7-44.63-79.34z"/>
  <path d="M134.39 165.2c.19 0-.07 41.59-.6 92.89s-1.11 192.83-1.31 192.83.07-141.52.6-192.84 1.11-92.88 1.31-92.88zm16.24 17.71c.16.12-3.25 4.79-7.6 10.44s-8 10.13-8.17 10 3.25-4.79 7.61-10.44 8.01-10.12 8.16-10z" fill="#e0e0e0"/>
  <path d="M134.07 201.9c-.12.15-3.49-2.27-7.52-5.41s-7.2-5.81-7.08-6 3.49 2.27 7.52 5.41 7.2 5.84 7.08 6zm-.91 33.79a16.23 16.23 0 01-2.52-2c-1.5-1.27-3.57-3-5.89-4.91s-4.45-3.57-6-4.78a16.49 16.49 0 01-2.43-2.07 13.09 13.09 0 012.73 1.66c1.63 1.12 3.82 2.74 6.15 4.64s4.36 3.72 5.78 5.08a13.72 13.72 0 012.18 2.38zm17.49-20.89c.15.12-3.58 5-8.33 10.93s-8.73 10.62-8.89 10.5 3.58-5 8.34-10.94 8.73-10.61 8.88-10.49z" fill="#e0e0e0"/>
  <path d="M569.55 418.35c-18.13-13.41-21.57-37.29-20.14-58.61.24-3.56 0-7.33 1.78-10.39s5.9-5.08 9.08-3.47c2.64 1.34 3.71 4.45 5.12 7.05a21.1 21.1 0 008.21 8.26c2.26 1.25 5.08 2.07 7.39.9 3.17-1.59 3.67-5.82 3.77-9.37l.51-19.81c.1-3.54.2-7.16 1.43-10.49s3.79-6.37 7.24-7.2 7.61 1.26 8.21 4.75a30.94 30.94 0 010 4.41c0 1.48.7 3.13 2.1 3.59s2.89-.5 4-1.5c3.83-3.46 6.49-8 9-12.49s4.93-9.12 8.42-12.91 8.24-6.73 13.39-6.85 10.53 3.2 11.66 8.23-2 10-5.32 13.94a79.85 79.85 0 01-17.19 15.15 6.55 6.55 0 00-2.89 2.86c-.86 2.34 1.34 4.76 3.67 5.62 2.65 1 5.56.79 8.35 1.21s5.78 1.73 6.76 4.38c1.35 3.67-1.84 7.36-4.94 9.75a68.88 68.88 0 01-20.69 10.9c-2.68.87-5.48 1.61-7.67 3.37s-3.58 4.91-2.37 7.44 4.48 3.45 7.26 3 5.31-1.82 8-2.71c5-1.68 11.35-1.13 14.37 3.18 2 2.84 2 6.7.89 10a25.76 25.76 0 01-5.73 8.57A68.86 68.86 0 01603 418.58c-11.58 3.54-22.22 4.25-33.46-.23" fill="#ebebeb"/>
  <path d="M567.85 451.87c-.27-4.73-.13-9.27.95-17.7a154.06 154.06 0 016.82-29 317 317 0 0113.89-33.75l4.1-8.66c1.35-2.84 2.69-5.66 4.17-8.33a157.58 157.58 0 019.41-14.89c3.23-4.59 6.46-8.83 9.51-12.78s6-7.56 8.79-10.74a126.48 126.48 0 0114.35-14c1.82-1.53 3.27-2.66 4.26-3.42l1.14-.86c.25-.19.39-.28.39-.28a3.51 3.51 0 01-.36.32l-1.1.9c-1 .79-2.4 1.95-4.19 3.5a132.6 132.6 0 00-14.21 14.14c-2.78 3.19-5.68 6.82-8.72 10.77s-6.25 8.2-9.45 12.79a157.93 157.93 0 00-9.36 14.85c-1.47 2.66-2.8 5.46-4.15 8.31s-2.72 5.73-4.1 8.66a320.22 320.22 0 00-13.9 33.68 156.3 156.3 0 00-6.92 28.89c-1.12 8.39-1.52 12.93-1.32 17.65" fill="#e0e0e0"/>
  <path d="M597.92 354.38a7.81 7.81 0 01-.28-1.53c-.15-1-.32-2.42-.51-4.19-.39-3.54-.75-8.46-1.14-13.88s-.84-10.31-1.3-13.84c-.23-1.77-.42-3.19-.58-4.18a8.56 8.56 0 01-.17-1.54 8.42 8.42 0 01.38 1.51c.21 1 .47 2.39.74 4.16.56 3.52 1.07 8.43 1.46 13.85s.73 10.24 1 13.89c.14 1.7.26 3.11.34 4.2a9 9 0 01.06 1.55zm46.43-6.99a1.58 1.58 0 01-.48.06l-1.37.08c-1.19.05-2.91.13-5 .3-4.24.3-10.09.92-16.51 1.9s-12.19 2.13-16.33 3.08c-2.08.46-3.75.88-4.91 1.17l-1.33.32a1.55 1.55 0 01-.47.08s.14-.08.44-.18l1.31-.42c1.14-.35 2.8-.83 4.87-1.34 4.13-1.05 9.91-2.25 16.34-3.24s12.3-1.55 16.57-1.75c2.12-.12 3.85-.14 5-.13h1.38a1.68 1.68 0 01.49.07zm-68.18 56.94a2.42 2.42 0 01-.29-.57l-.73-1.67c-.62-1.46-1.48-3.6-2.5-6.25-2-5.29-4.64-12.69-7.41-20.89S559.93 359.33 558 354c-1-2.61-1.76-4.75-2.33-6.3-.26-.7-.47-1.27-.64-1.71a2.37 2.37 0 01-.18-.62 4.13 4.13 0 01.28.58l.73 1.67c.62 1.46 1.48 3.6 2.5 6.24 2 5.3 4.65 12.7 7.41 20.9s5.31 15.62 7.27 20.94c1 2.61 1.76 4.75 2.34 6.3.26.7.46 1.27.63 1.71a4.21 4.21 0 01.16.62zm61.96-17.47a3.53 3.53 0 01-.62.21l-1.8.52-6.64 1.86c-5.61 1.58-13.32 3.86-21.84 6.4s-16.26 4.76-21.9 6.25c-2.82.75-5.1 1.33-6.69 1.7l-1.83.42a2.84 2.84 0 01-.64.11 3.15 3.15 0 01.62-.21l1.8-.52 6.64-1.86c5.61-1.58 13.32-3.86 21.84-6.4s16.26-4.76 21.9-6.25c2.81-.75 5.1-1.33 6.69-1.7l1.83-.42a2.84 2.84 0 01.64-.11z" fill="#e0e0e0"/>
  <path d="M520 105.75h135S643.1 84 608.34 87.18c-33.2 3-34.89-10.69-51.77-12.38S525.62 86.06 520 105.75zm-90.94 37.67h74s-6.55-11.91-25.6-10.18c-18.2 1.66-19.12-5.86-28.37-6.78s-16.95 6.17-20.03 16.96z" fill="#ebebeb"/>
  <path d="M639.4 450.66c0 .14-118.39.26-264.39.26s-264.41-.12-264.41-.26 118.4-.26 264.4-.26 264.4.11 264.4.26z" fill="#263238"/>
  <path d="M548.26 357.32H207.93a4.87 4.87 0 01-4.87-4.87 4.87 4.87 0 014.87-4.87h340.33a4.87 4.87 0 014.87 4.87 4.87 4.87 0 01-4.87 4.87zm-306.22 0h9.63v93.37h-9.63zm237.7 0h9.63v93.37h-9.63z" fill="#455a64"/>
  <path d="M429.67 183.83a12.43 12.43 0 00-19.4 11.75c.31 2.47 1.35 4.95.72 7.36-1.19 4.5-7.54 6.26-8.38 10.84-.33 1.81.31 3.63.8 5.4s.79 3.77-.13 5.36c-.67 1.18-1.9 1.92-2.86 2.88-3.1 3.09-3 8.51-.45 12s7.18 5.22 11.55 5.08a25.57 25.57 0 0012.28-4.2" fill="#263238"/>
  <path d="M425.59 185.35A12.82 12.82 0 01435 177c4.27-1 9.57-2.42 13.48-.43 2.44 1.25 4.78 3.06 5.74 5.63 1.14 3-.61 8.72-1.49 11.86s-1.53 6.7.2 9.46 5.1 3.72 7.22 6.07a8.44 8.44 0 01-.88 11.73c3.78-.22 7 3.63 6.83 7.41s-2.89 7.1-6.26 8.81-7.27 2.07-11.05 2.08a66.84 66.84 0 01-14-1.45c-3.78-.8-7.72-2.07-10.18-5.05-2.26-2.74-2.89-6.48-2.89-10 0-12.57 6.57-25 3.71-37.26" fill="#263238"/>
  <path d="M448.15 278.58l4.85 15.18A17.54 17.54 0 00466.61 306l32.39 6 8.81-.28-8.81-10.88-24.34-8.3a6.54 6.54 0 01-4.92-4.66L460 266.79l-12.27 7.53z" fill="#b78876"/>
  <path d="M400.4 263.73c.45 2.35 7.3 19.45 7.3 19.45s26.66-9 26.31-10.37c-.29-1.07-5.41-18.19-11.55-27.67a13.87 13.87 0 00-10.68-6.43c-1.2-.08-3.8 1.17-4.51 1.57-5.61 3.17-10.38 5.3-6.87 23.45z" fill="#455a64"/>
  <path d="M438 230.6c12.06 1.35 14 9.54 19.64 17.61l8.13 15-15 9.17.52 23 7.12 22-56.25-5.29 5.19-18.84-7.49-29.58c-.57-4-2.12-11.53-1.07-15.49 3.27-12.39 16.16-16 25-18.32 1.83-.47 10.65-.44 12.18-.07" fill="#34a37e"/>
  <path d="M400.89 263.49l.12.32c.07.23.18.55.31.95.27.85.66 2.07 1.15 3.63 1 3.16 2.39 7.67 4.1 13.14l-.19-.09 25-9.24.62-.26-.1.21a110.06 110.06 0 00-5.87-16.46 46.59 46.59 0 00-7.44-12.07 16.4 16.4 0 00-4.21-3.41 8.72 8.72 0 00-3.89-1.15 7.12 7.12 0 00-.79 0l-.7.07-.59.07-.48.13-.66.17-.23.05a.61.61 0 01.22-.08l.65-.21.48-.14a4.77 4.77 0 01.6-.09l.7-.09a5.47 5.47 0 01.81 0 8.82 8.82 0 014 1.12 16.46 16.46 0 014.29 3.41 46.12 46.12 0 017.56 12.1 108.12 108.12 0 015.91 16.51v.15l-.14.06-.63.26c-9.38 3.51-18.08 6.63-25.07 9.18l-.14.06v-.15c-1.65-5.49-3-10-4-13.18-.47-1.57-.83-2.8-1.08-3.66-.12-.4-.21-.72-.28-1a2.17 2.17 0 01-.03-.31z" fill="#263238"/>
  <path d="M431 268.75c0 .09-5.75 2.09-12.91 4.46s-13 4.22-13 4.12 5.75-2.09 12.92-4.46 12.93-4.22 12.99-4.12z" fill="#263238"/>
  <path d="M407.79 281.12a114.38 114.38 0 004.21 14.43 31 31 0 004.54 8.34 21 21 0 0010.91 6.65 34.45 34.45 0 0012.88.63l-21.41-12.1-5.7-19.79z" opacity=".3"/>
  <path d="M410.25 280l5.28 17.28a17.62 17.62 0 0013.61 12.35l32.39 6.15 8.81-.28-8.81-11.05-24.35-8.4a6.56 6.56 0 01-4.91-4.73l-4.51-17.39z" fill="#b78876"/>
  <path d="M451.34 294.78a12.2 12.2 0 01-.15-1.63c-.05-1.15-.13-2.65-.22-4.47-.16-3.77-.34-9-.52-14.73s-.3-11-.37-14.74c0-1.82 0-3.32-.05-4.47a11.17 11.17 0 01.05-1.64 9 9 0 01.15 1.63c.06 1.15.13 2.65.22 4.47.16 3.77.35 9 .52 14.73s.31 11 .37 14.74c0 1.82 0 3.33.06 4.47a8.76 8.76 0 01-.06 1.64z" fill="#263238"/>
  <path d="M447.77 280c.59.38-.93 3.77-4.08 7s-6.49 4.83-6.88 4.24 2.08-3 5-6.06 5.34-5.57 5.96-5.18z" opacity=".3"/>
  <path d="M463.6 259.22a55.5 55.5 0 01-6.31 4 53.07 53.07 0 01-6.58 3.56 106.59 106.59 0 0112.89-7.57z" fill="#263238"/>
  <path d="M427.74 260.24c0 .05-.4-.06-1.09 0a5.73 5.73 0 00-2.74 1 17.08 17.08 0 00-3.27 2.95 9.77 9.77 0 01-4.57 3.11c-2 .45-3.9-.25-5.49-.7a9 9 0 00-4.29-.53 4.05 4.05 0 00-2.45 1.44 6.59 6.59 0 00-.52.95v-.3a2.73 2.73 0 01.34-.77 4.1 4.1 0 012.53-1.68 9.13 9.13 0 014.51.42c1.6.44 3.41 1.08 5.23.67a9.63 9.63 0 004.35-2.95 16.67 16.67 0 013.42-2.93 5.53 5.53 0 012.93-.86 3 3 0 01.82.11c.2.02.3.05.29.07zm23.26-3.68a4.77 4.77 0 00-1-.17 4.42 4.42 0 00-2.49 1c-.48.33-1 .75-1.58 1.14a5.15 5.15 0 01-2.15.81 9.4 9.4 0 01-5.07-1 42 42 0 00-4.61-2.1 6.19 6.19 0 00-3.95-.12 4.22 4.22 0 00-2.2 1.52c-.36.52-.45.89-.5.88s0-.1 0-.27a2.57 2.57 0 01.3-.72 4.15 4.15 0 012.25-1.75 6.4 6.4 0 014.22 0 36.31 36.31 0 014.68 2.09 9.15 9.15 0 004.78 1 7.91 7.91 0 003.59-1.79 4.35 4.35 0 012.7-.88 1.83 1.83 0 01.76.21c.16.07.27.13.27.15zm-1.3 5a8.82 8.82 0 001.83-.69 12.67 12.67 0 003.31-3.38 8.71 8.71 0 013.79-3.13 2.6 2.6 0 012 0 6.53 6.53 0 00-1.91.35 9.51 9.51 0 00-3.51 3.11 11.15 11.15 0 01-3.54 3.39 2.82 2.82 0 01-1.97.35z" fill="#fafafa"/>
  <path d="M538.88 428.28l-.16-10.18-19.07.18.08 14.9 1.18.06c5.27.24 26.79.87 30.3-.23 3.91-1.23-12.33-4.73-12.33-4.73z" fill="#34a37e"/>
  <path d="M546.82 430.28s5.69 1.58 5 2.52-22.47 1.13-32.08.38v-.43h25.4s.57-2.42 1.68-2.47z" fill="#fff" opacity=".4"/>
  <path d="M519.45 432.74h.33l.94.05 3.47.12c2.93.08 7 .14 11.45.1s8.52-.15 11.44-.28l3.47-.17.94-.07a1.14 1.14 0 00.33 0h-1.33l-3.46.1c-2.93.08-7 .18-11.44.21s-8.52 0-11.44 0h-4.75z" fill="#263238"/>
  <path d="M545.15 433a8.06 8.06 0 01.63-1.66 7.58 7.58 0 011.17-1.33 2.52 2.52 0 00-1.36 1.21 2.58 2.58 0 00-.44 1.78zm-5.65-2.76s.32-.3.59-.74.46-.83.4-.86-.32.3-.59.74-.45.82-.4.86zm-1.5-.81c0 .05.34-.15.67-.45s.55-.58.51-.63-.34.16-.67.46-.6.58-.51.62zm-1-1.79c0 .07.44.12 1 .12a2.39 2.39 0 001-.11 2.14 2.14 0 00-1-.12 2.32 2.32 0 00-1 .11zm-.39-1.26a2.84 2.84 0 002.26.15 128.54 128.54 0 01-2.26-.15z" fill="#263238"/>
  <path d="M540.13 428.57a3.71 3.71 0 001.23 0 7.17 7.17 0 001.3-.3 3.54 3.54 0 00.74-.31.67.67 0 00.3-.39.49.49 0 00-.19-.49 2.25 2.25 0 00-2.77.69 2.12 2.12 0 00-.39.82.7.7 0 000 .33 3.26 3.26 0 01.55-1 2.17 2.17 0 011-.69 1.9 1.9 0 011.46.09c.2.14.12.37-.09.5a3.89 3.89 0 01-.69.3 8.92 8.92 0 01-1.26.34c-.72.06-1.19.07-1.19.11z" fill="#263238"/>
  <path d="M540.45 428.63a1.19 1.19 0 00.13-.86 1.94 1.94 0 00-.34-.89 1.25 1.25 0 00-1-.62.5.5 0 00-.38.57 1.44 1.44 0 00.22.55 3.89 3.89 0 00.58.74 1.8 1.8 0 00.71.49s-.25-.22-.59-.61a4.18 4.18 0 01-.52-.73c-.17-.26-.29-.72 0-.78s.62.27.81.52a2 2 0 01.35.79 4.38 4.38 0 01.03.83zm-20.65-1.11s.54-.06 1.41 0a6 6 0 013.08 1.24 6.17 6.17 0 012 2.69c.29.82.33 1.37.37 1.36a1.25 1.25 0 000-.38 5.19 5.19 0 00-.22-1 5.8 5.8 0 00-5.17-4.05 5.39 5.39 0 00-1.05 0c-.29.09-.42.12-.42.14zm1.91-7.95a30.86 30.86 0 00-.14 3.91 36.84 36.84 0 00.1 3.92 31 31 0 00.14-3.92 36.72 36.72 0 00-.1-3.91zm7.29 11.51a11 11 0 002.79.25 10.69 10.69 0 002.79-.24c0-.07-1.25 0-2.79 0s-2.79-.09-2.79-.01z" fill="#263238"/>
  <path d="M525.29 431.11c0 .05.1.26.23.55s.2.53.27.53.09-.3-.06-.63-.4-.5-.44-.45zm-1.43-1.74s.08.24.28.44.4.32.44.28-.08-.25-.28-.45-.39-.32-.44-.27zm-2.02-.79c0 .07.27.06.55.16s.48.24.53.2-.11-.31-.46-.42-.64.01-.62.06zm-1.44-.36c0 .06.09.16.25.22s.3.06.33 0-.09-.16-.25-.22-.31-.06-.33 0z" fill="#263238"/>
  <path d="M519.82 427.01l19.05-.48-.05-2.3-19.14.3.14 2.48z" opacity=".3"/>
  <path d="M461.53 318.24l55.72 1A17.9 17.9 0 01534.68 335l11.05 89.8h-30.26l-9.25-77.56h-43.94z" fill="#263238"/>
  <path d="M545.35 419.08c0 .14-6.63.3-14.8.35s-14.81 0-14.81-.16 6.62-.31 14.8-.36 14.81.03 14.81.17z" fill="#455a64"/>
  <path d="M409.29 347.58c-22.24-7.36-7.06-37.14-7.06-37.14l97.21 9.14a14.06 14.06 0 0114.16 14.07 14.05 14.05 0 01-14.06 14.06l-90.25-.13" fill="#263238"/>
  <path fill="#455a64" d="M438.94 316.02l.28-2.1 24.88-.98 12.21-30.79 46.52 3.16-15.7 34.18-68.19-3.47z"/>
  <path d="M494.62 302.12a2.44 2.44 0 11-.76-3.36 2.44 2.44 0 01.76 3.36z" fill="#fff"/>
  <path d="M429.52 315.41a.81.81 0 01.29 0h.85l3.25.13 12 .56 39.44 2c1.92.09 3.83.25 5.7.27s3.73.1 5.55.21 3.61.23 5.35.41a20 20 0 015.08 1 12.18 12.18 0 014.23 2.56 10.73 10.73 0 012.57 3.9 19 19 0 011 4.21 27.69 27.69 0 01.28 4 16.21 16.21 0 01-1.34 6.71 11.17 11.17 0 01-3.16 4.08 9.11 9.11 0 01-2.88 1.54 4.92 4.92 0 01-1.12.22s.39-.08 1.09-.32a9.15 9.15 0 002.78-1.6 11.12 11.12 0 003-4 16 16 0 001.24-6.59 26.94 26.94 0 00-.31-3.92 18.4 18.4 0 00-1-4.11 10.14 10.14 0 00-2.47-3.73 11.9 11.9 0 00-4.08-2.44 19.46 19.46 0 00-5-1c-1.73-.17-3.51-.29-5.33-.39s-3.66-.17-5.53-.2-3.78-.18-5.71-.27l-39.44-2.2-12-.73-3.25-.22-.84-.07z" fill="#455a64"/>
  <path d="M417.63 187.28l.06 3 .6 44.73c.07 5.2 10.74 10.58 16.3 10.46 5.61-.12 3.61-6.09 4-11a87.59 87.59 0 00.14-11.3s7.09-1.18 8.56-10.44c.73-4.6.5-12.15.11-18.32a9.77 9.77 0 00-10.78-9.11z" fill="#b78876"/>
  <path d="M445 200.37a1.19 1.19 0 01-1.15 1.2 1.13 1.13 0 01-1.22-1.07 1.19 1.19 0 011.14-1.2 1.14 1.14 0 011.23 1.07zm.81-2.06c-.15.15-1.05-.51-2.33-.51s-2.21.64-2.35.49.08-.35.49-.65a3.25 3.25 0 011.88-.58 3.08 3.08 0 011.85.6c.4.34.53.58.46.65zm-13.26 2.06a1.18 1.18 0 01-1.14 1.2 1.13 1.13 0 01-1.23-1.07 1.19 1.19 0 011.14-1.2 1.14 1.14 0 011.23 1.07zm.7-1.82c-.15.15-1.05-.51-2.33-.51s-2.21.64-2.35.49.08-.35.49-.65a3.26 3.26 0 011.89-.58 3.12 3.12 0 011.85.6c.39.3.52.58.45.65zm4.64 9.45a8.31 8.31 0 012.07-.37c.33 0 .64-.1.69-.32a1.63 1.63 0 00-.22-1c-.3-.79-.63-1.62-1-2.49a43.22 43.22 0 01-2.17-6.49 42.31 42.31 0 012.69 6.31l.92 2.49a1.89 1.89 0 01.17 1.28.83.83 0 01-.54.48 2 2 0 01-.55.08 8.28 8.28 0 01-2.06.03z" fill="#263238"/>
  <path d="M438.77 223.14a23.56 23.56 0 01-12.4-3.31s3 6.36 12.27 5.49zm-1.42-12.04a2.29 2.29 0 00-2.07-.85 2.07 2.07 0 00-1.45.77 1.33 1.33 0 00-.1 1.53 1.55 1.55 0 001.67.42 4.81 4.81 0 001.64-1 1.61 1.61 0 00.36-.38.42.42 0 000-.48" fill="#aa6550"/>
  <path d="M434.13 208.9c.2 0 .21 1.38 1.39 2.36s2.67.84 2.68 1-.33.27-1 .29a3.48 3.48 0 01-2.23-.78 3 3 0 01-1.08-2c-.01-.53.11-.87.24-.87zm-8.97-25.9c0-.11.15-.17.23-.14s.1.15.06.26-.15.17-.23.14a.19.19 0 01-.06-.26z" fill="#263238"/>
  <path d="M417.15 231.08a10.12 10.12 0 005.91-6 13.74 13.74 0 00.2-8.53c-.37-1.29-.89-2.7-.32-3.91a7.39 7.39 0 012-2.08 8.64 8.64 0 002.63-5.83 15.06 15.06 0 00-1.18-6.41c-.44-1.12-1-2.34-.57-3.48a5.48 5.48 0 011.61-2 15.24 15.24 0 003.22-4.3 4.3 4.3 0 00.44-3.67c-.67-1.39-2.42-1.83-4-1.94-3.66-.28-7.71.53-10 3.37-2.09 2.54-2.33 6.09-2.48 9.38-.46 10.37-.92 20.84.87 31.07" fill="#263238"/>
  <path d="M451 186.25a15 15 0 01-1.58.86 11.55 11.55 0 00-1.34 1.16c-.23.23-.49.49-.72.75-.07.07-.1.14-.17.21l-.26.26-.65.61a15.74 15.74 0 01-2 1.56 10.47 10.47 0 01-3.44 1.51 10.71 10.71 0 01-7-.86 11 11 0 01-3.86-3.09c-1.57-2.1-1.82-3.8-1.09-4.73s2.55-.79 4.59-.29a26.12 26.12 0 003 .6 7.11 7.11 0 002.41-.06 5.77 5.77 0 001.12-.4c.52-.23 1.17-.58 1.91-.93.38-.18.77-.36 1.2-.52l.64-.23c.23-.08.49-.17.73-.23a8.4 8.4 0 012.78-.22 5 5 0 013.78 2c.57.94.34 1.67-.05 2.04zm-17.42 7.29c-.13.35-1.4.18-2.9.36s-2.71.59-2.91.28c-.09-.15.12-.47.61-.81a4.8 4.8 0 012.16-.76 5 5 0 012.27.27c.55.22.82.5.77.66zm11.76 1.07c-.23.29-1.11 0-2.17 0s-1.95.19-2.16-.11c-.09-.15.05-.44.45-.72a3.15 3.15 0 013.48.11c.37.28.5.58.4.72z" fill="#263238"/>
  <path d="M171.93 329.75l9.88-2.48 4.75 18.47-14.41 3.78-.37-1.13c-1.59-5-7.75-25.66-7.6-29.33.18-4.06 7.75 10.69 7.75 10.69z" fill="#34a37e"/>
  <path d="M168 322.59s-3-5.09-3.73-4.17 4.71 22 7.92 31.1l.41-.14-6.6-24.54s2.19-1.16 2-2.25z" fill="#fff" opacity=".4"/>
  <path d="M172.64 349.67a1.43 1.43 0 01-.11-.31c-.09-.27-.19-.57-.29-.9-.28-.9-.62-2-1-3.32-.83-2.81-1.93-6.7-3.05-11s-2-8.27-2.68-11.13l-.73-3.39c-.06-.35-.12-.65-.18-.93s-.05-.32-.05-.32a1.3 1.3 0 01.1.31c.06.28.14.58.22.92.22.92.48 2 .8 3.37.67 2.85 1.63 6.79 2.74 11.11s2.2 8.23 3 11.05c.37 1.31.69 2.43.94 3.33.09.34.18.64.25.92a1.58 1.58 0 01.04.29z" fill="#263238"/>
  <path d="M165.71 324.92a8 8 0 001.45-1 6.93 6.93 0 001-1.48 3.07 3.07 0 01-2.43 2.52zm4.18 4.73s.2-.38.55-.76.68-.65.73-.61-.2.39-.56.77-.68.65-.72.6zm1.17 1.35c-.05 0 .06-.38.27-.77s.41-.68.47-.65-.06.37-.27.76-.41.66-.47.66zm1.99.44a4.39 4.39 0 01-.52-1.92 2.2 2.2 0 01.37.93 2.36 2.36 0 01.15.99zm1.31.01a2 2 0 01-.59-1 1.93 1.93 0 01-.14-1.14 5.52 5.52 0 01.36 1.07 5.23 5.23 0 01.37 1.07z" fill="#263238"/>
  <path d="M171.33 328.61a3.76 3.76 0 01-.29-1.19 6.94 6.94 0 010-1.33 3.41 3.41 0 01.11-.8.65.65 0 01.29-.39.49.49 0 01.52.06 2.24 2.24 0 01.06 2.85 2.14 2.14 0 01-.69.59.83.83 0 01-.31.12 3.69 3.69 0 00.87-.8 2.25 2.25 0 00.4-1.19 2 2 0 00-.46-1.39c-.19-.15-.4 0-.47.22a4.55 4.55 0 00-.11.74 8.15 8.15 0 000 1.31c.01.74.12 1.19.08 1.2z" fill="#263238"/>
  <path d="M171.2 328.32a1.19 1.19 0 01.8-.32 2.08 2.08 0 011 .1 1.25 1.25 0 01.86.83.5.5 0 01-.46.51 1.55 1.55 0 01-.58-.06 3.63 3.63 0 01-.86-.38 1.94 1.94 0 01-.66-.55s.28.18.74.41a4.25 4.25 0 00.84.31c.29.1.77.09.74-.22s-.42-.53-.7-.65a2.14 2.14 0 00-.86-.14 5.08 5.08 0 00-.86.16zm6.4 19.68s-.09-.55-.4-1.35a6 6 0 00-5.11-3.85c-.86-.07-1.4 0-1.4 0a1.12 1.12 0 01.37-.09 4.42 4.42 0 011.05-.06 5.8 5.8 0 015.24 3.95 5.46 5.46 0 01.24 1 1.68 1.68 0 01.01.4zm7.19-3.91a33.75 33.75 0 01-3.75 1.14 29.88 29.88 0 01-3.82.91A35.27 35.27 0 01181 345a34.17 34.17 0 013.79-.91zM171.77 340a15.64 15.64 0 01-1.44-5.38c.07 0 .3 1.21.7 2.7s.81 2.68.74 2.68z" fill="#263238"/>
  <path d="M172.71 343.61c0 .06-.28 0-.59-.08s-.57-.06-.58-.12.27-.17.62-.11.59.26.55.31zm2.05.93s-.25 0-.5-.16-.41-.3-.38-.35.26 0 .5.15.41.3.38.36zm1.24 1.75c-.07 0-.13-.24-.29-.49s-.36-.41-.33-.46.32 0 .52.33.2.62.1.62zm.77 1.29c-.06 0-.18 0-.28-.18s-.13-.28-.08-.32.17.05.27.19.14.28.09.31z" fill="#263238"/>
  <path d="M178.09 347.83l-4.46-18.52 2.23-.55 4.66 18.56-2.43.51z" opacity=".3"/>
  <path fill="#263238" d="M180.38 348.86l74.27-6.86 111.31 2.49L342.55 319l-79.92-3.83-88.2 8.33 5.95 25.36z"/>
  <path d="M192.4 334.41a6.09 6.09 0 01-2.4.59 6.44 6.44 0 01-2.52 0 12.35 12.35 0 015-.59zm9.94-1.04a6.3 6.3 0 01-2.46.51 6.22 6.22 0 01-2.51 0 12.07 12.07 0 015-.5zm9.96-.89a6 6 0 01-2.47.47 6.31 6.31 0 01-2.51 0 6.07 6.07 0 012.47-.48 6.41 6.41 0 012.51.01zm9.97-.73a12.31 12.31 0 01-5 .35 6.05 6.05 0 012.47-.44 6.15 6.15 0 012.53.09zm9.98-.59a6.12 6.12 0 01-2.48.4 6.24 6.24 0 01-2.51-.12 6.12 6.12 0 012.48-.4 6.22 6.22 0 012.51.12zm9.99-.43a12.1 12.1 0 01-5 .2 5.92 5.92 0 012.48-.36 6 6 0 012.52.16zm10-.29a6.46 6.46 0 01-2.49.32 6.18 6.18 0 01-2.51-.2 6.24 6.24 0 012.49-.32 6 6 0 012.51.2zm10-.15a6.42 6.42 0 01-2.5.29 6.11 6.11 0 01-2.5-.24 12.38 12.38 0 015 0zm10 0a6.21 6.21 0 01-2.5.25 6 6 0 01-2.5-.27 12.15 12.15 0 015 0zm10 .15a6.32 6.32 0 01-2.51.21 6.2 6.2 0 01-2.49-.3 6.11 6.11 0 012.5-.22 6.21 6.21 0 012.5.31zm9.99.29a6.41 6.41 0 01-2.51.18 6.5 6.5 0 01-2.49-.34 6 6 0 012.51-.18 6.19 6.19 0 012.49.34zm9.99.45a6.35 6.35 0 01-2.51.13 5.93 5.93 0 01-2.48-.38 6.42 6.42 0 012.51-.14 6 6 0 012.48.39zm9.98.59a12.13 12.13 0 01-5-.32 6.54 6.54 0 012.52-.1 6.31 6.31 0 012.48.42zm9.98.76a12.12 12.12 0 01-5-.4 6.3 6.3 0 012.51-.06 6.13 6.13 0 012.49.46zm5.28.47c0 .15-.09.26-.18.25s-.14-.13-.12-.28.09-.25.17-.24.14.12.13.27zm-141.13 15.11a3.62 3.62 0 01-.44-.92c-.25-.6-.59-1.49-1-2.6-.79-2.2-1.79-5.29-2.72-8.76s-1.58-6.64-2-8.95c-.2-1.16-.35-2.09-.43-2.75a3.58 3.58 0 01-.07-1 34 34 0 01.86 3.7c.5 2.29 1.22 5.44 2.14 8.89s1.86 6.54 2.56 8.78a34.87 34.87 0 011.1 3.61z" fill="#455a64"/>
  <path d="M232.66 341.82l1.55-10.07 18.87 2.79-2.08 14.75-1.18-.1c-5.25-.48-26.66-2.81-30-4.38-3.73-1.76 12.84-2.99 12.84-2.99z" fill="#34a37e"/>
  <path d="M224.52 342.7s-5.86.79-5.29 1.82 22.1 4.2 31.73 4.77v-.43l-25.16-3.48s-.19-2.47-1.28-2.68z" fill="#fff" opacity=".4"/>
  <path d="M251.29 348.9h-.33l-.94-.08-3.45-.36c-2.91-.32-6.93-.82-11.35-1.46s-8.42-1.33-11.3-1.86l-3.41-.64-.92-.2a1.29 1.29 0 01-.32-.08h.32l.94.15 3.47.63c2.88.49 6.88 1.14 11.3 1.79s8.43 1.17 11.34 1.53l3.44.43.93.13z" fill="#263238"/>
  <path d="M225.79 345.67a7.45 7.45 0 00-.4-1.73 8.59 8.59 0 00-1-1.49 2.6 2.6 0 011.19 1.4 2.51 2.51 0 01.21 1.82zm5.99-2c-.06 0-.28-.34-.49-.82S231 342 231 342s.28.34.49.81a2.18 2.18 0 01.29.86zm1.64-.59s-.31-.2-.6-.54-.47-.65-.42-.69.32.2.6.54.47.61.42.69zm1.23-1.64a2 2 0 01-1 0 2.25 2.25 0 01-1-.24c0-.07.45-.06 1 0a2.31 2.31 0 011 .24zm.52-1.2a2 2 0 01-1.15.15 2 2 0 01-1.11-.31 5.35 5.35 0 011.13.08 5.81 5.81 0 011.13.08z" fill="#263238"/>
  <path d="M231.38 341.92a3.3 3.3 0 01-1.21-.18 6.44 6.44 0 01-1.25-.48 3 3 0 01-.7-.41.7.7 0 01-.24-.42.49.49 0 01.25-.46 2.26 2.26 0 012.66 1.06 2.39 2.39 0 01.28.87.88.88 0 010 .33 3.6 3.6 0 00-.4-1.12 2.19 2.19 0 00-.94-.82 1.9 1.9 0 00-1.46-.12c-.21.12-.17.35 0 .51a3.15 3.15 0 00.63.39 8.15 8.15 0 001.21.51c.71.24 1.17.31 1.17.34z" fill="#263238"/>
  <path d="M231.06 341.94a1.17 1.17 0 010-.86 2 2 0 01.46-.84 1.23 1.23 0 011.1-.47.48.48 0 01.29.61 1.37 1.37 0 01-.28.52 4.48 4.48 0 01-.68.65 1.71 1.71 0 01-.77.38s.27-.18.66-.51a4 4 0 00.62-.66c.2-.23.39-.67.09-.77a1.08 1.08 0 00-.87.4 2 2 0 00-.46.73 3.91 3.91 0 00-.16.82zm20.6 1.74a13.75 13.75 0 00-1.4-.16 6.08 6.08 0 00-3.22.81 6.16 6.16 0 00-2.3 2.4c-.41.77-.51 1.31-.56 1.3a1.24 1.24 0 01.06-.39 5.34 5.34 0 01.36-1 5.86 5.86 0 012.32-2.53 5.77 5.77 0 013.35-.77 4.29 4.29 0 011 .18c.27.09.4.14.39.16zm-.79-8.14a34.42 34.42 0 01-.41 3.9 33.93 33.93 0 01-.64 3.86 34.42 34.42 0 01.41-3.9 31.46 31.46 0 01.64-3.86zm-8.87 10.4a11 11 0 01-2.8-.13 10.62 10.62 0 01-2.72-.63c0-.07 1.23.19 2.75.4s2.77.29 2.77.36z" fill="#263238"/>
  <path d="M245.74 346.48s-.14.25-.31.51-.27.5-.34.49-.05-.31.14-.62.47-.43.51-.38zm1.64-1.48c0 .05-.11.23-.33.4s-.44.26-.48.21.11-.23.34-.4.44-.31.47-.21zm2.12-.55c0 .06-.28 0-.57.08s-.51.18-.56.13.16-.29.52-.36.63.1.61.15zm1.5-.16c0 .06-.11.14-.27.18s-.32 0-.33-.05.11-.14.27-.18.33-.02.33.05z" fill="#263238"/>
  <path d="M251.71 343.17l-18.8-3.09.37-2.27 18.91 2.92-.48 2.44z" opacity=".3"/>
  <path d="M333 184.91c-2.82 4.55-.87 12 0 17.3s2 10.77.48 15.9c-.82 2.77-2.41 5.35-2.6 8.22-.25 3.71 1.84 7.1 3.43 10.45s2.7 7.52.65 10.62c-.77 1.18-2 2.28-1.85 3.69.2 1.73 2.58 2.44 4.14 1.65s2.44-2.45 3.21-4a7.53 7.53 0 01.22 6 15.74 15.74 0 0016.26-3.22v-40.3z" fill="#34a37e"/>
  <path d="M340.44 237.12l-21.3 23.57 11.69 17.76s26.44-21.19 27.32-23.88c2.14-6.54 3.24-23.88-8.91-22.25a14.55 14.55 0 00-8.8 4.8z" fill="#455a64"/>
  <path d="M348.35 236.49l21.58-11.08s19.57 3.77 19.93 25.89-1.09 57.84-1.09 57.84h-50.63z" fill="#455a64"/>
  <path d="M350.38 233.68c-.94-5.23-2-10.73-2-10.73s-6.94.07-9.89-8.49c-2.81-8.16-4.85-27.8-4.85-27.8a25.7 25.7 0 0129.29 1.5l6.92 42.65c.81 4.95-2.81 9.58-8.12 10.4-5.39.79-10.46-2.54-11.35-7.53z" fill="#ffbe9d"/>
  <path d="M337 201.58a1.15 1.15 0 001.29.95 1.1 1.1 0 001-1.22 1.15 1.15 0 00-1.29-.95 1.1 1.1 0 00-1 1.22zm-.27-1.15c.16.12.91-.66 2.12-.87s2.22.24 2.32.06-.14-.31-.57-.53a3.25 3.25 0 00-1.89-.24 3 3 0 00-1.66.88c-.32.36-.4.64-.32.7zm12.73-.43a1.15 1.15 0 001.29.94 1.1 1.1 0 001-1.22 1.15 1.15 0 00-1.29-.95 1.11 1.11 0 00-1 1.23zm.02-1.36c.17.12.91-.67 2.13-.88s2.21.24 2.32.07-.14-.32-.58-.53a3.2 3.2 0 00-1.88-.24 3 3 0 00-1.66.88c-.33.35-.41.64-.33.7zm-2.82 9.78a8.45 8.45 0 00-2 0c-.31 0-.62 0-.71-.19a1.62 1.62 0 010-1c.16-.8.33-1.64.5-2.52a40.56 40.56 0 001-6.55 42.41 42.41 0 00-1.49 6.45c-.16.89-.32 1.73-.46 2.53a1.81 1.81 0 000 1.25.75.75 0 00.59.36 1.88 1.88 0 00.54 0 8 8 0 002.03-.33z" fill="#263238"/>
  <path d="M348.35 223a22.75 22.75 0 0011.24-5.22s-1.79 6.55-10.75 7.28zm-.66-11.74a2.27 2.27 0 011.82-1.16 2.07 2.07 0 011.51.5 1.27 1.27 0 01.35 1.43 1.49 1.49 0 01-1.52.69 4.76 4.76 0 01-1.72-.66 1.36 1.36 0 01-.41-.3.42.42 0 01-.07-.45" fill="#eb996e"/>
  <path d="M350.38 208.64c-.19 0 0 1.34-.93 2.47s-2.39 1.24-2.37 1.43.36.2.95.11a3.34 3.34 0 002-1.11 3 3 0 00.7-2.07c-.05-.56-.26-.86-.35-.83z" fill="#263238"/>
  <path d="M356.94 181.86c-2.35 5.19-10 11.51-15.86 13.75.53-1.07 3.84-4.08 4.38-5.16-2.38 2.59-5.81 6.09-9.44 7a2.31 2.31 0 01-1.3 0 1.74 1.74 0 01-.9-1.26 37.53 37.53 0 01-1.25-8 9 9 0 012.11-6.28c2-2.25 5.28-3.33 8.43-4a20.55 20.55 0 018-.42c2.61.51 5 2 5.83 4.22" fill="#34a37e"/>
  <path d="M371 201.41a51.75 51.75 0 00-.22-6c-.6-4.58-2.83-22.46-21.85-18.13l6.08 5.44s-1.18 10.73 6.71 16.48c0 0 0 10.71 5.44 14.57 0 0 3.81-7.26 3.84-12.32" fill="#34a37e"/>
  <path d="M361.37 198.44a5.32 5.32 0 012.87-.32 3.74 3.74 0 012.41 1.52 3.94 3.94 0 01.52 2.81 6.62 6.62 0 01-1.17 2.65 4.48 4.48 0 01-1.51 1.43 2.08 2.08 0 01-2 0" fill="#ffbe9d"/>
  <path d="M362.9 204.05c-.1.06.41.56 1.23.17a1.92 1.92 0 00.9-1.11 4.44 4.44 0 00.19-1.65 2.5 2.5 0 00-.69-1.59 1.64 1.64 0 00-1.36-.51c-.89.14-1.06.8-1 .8s.38-.32 1-.28a1.61 1.61 0 011.3 1.64 2.66 2.66 0 01-.63 2.26c-.46.36-.84.22-.94.27z" fill="#eb996e"/>
  <path d="M386.08 309.14h-18.85l2.7-53.39-24.9.83s-4.24 37-4.67 41.8c-26.8-24.48-45.28-39.93-58.05-49.13-17-12.28-26.18-2.79-29.73 1.64-9.38 11.7-25.49 86.32-25.49 86.32l29.21 4.64 15.28-64.52s33.3 40.69 60.22 64.29c9.53 8.36 27.37 7.24 34.16 4.56.04 0 20.78-11.27 20.12-37.04z" fill="#263238"/>
  <path d="M357.79 315a17 17 0 00-.33 3.49 10 10 0 0011.29 9.69 17.62 17.62 0 003.39-.85 2.86 2.86 0 01-.83.48 8.64 8.64 0 01-2.52.73 10.16 10.16 0 01-11.69-10 8.91 8.91 0 01.34-2.61 3.32 3.32 0 01.35-.93zm-100.38 21.15c0 .15-6.53-.74-14.53-2s-14.48-2.35-14.46-2.5 6.53.75 14.54 2 14.47 2.35 14.45 2.5z" fill="#455a64"/>
  <path d="M244.09 332.48a6.16 6.16 0 01-.34 2.49 6 6 0 01-.84 2.37 12.29 12.29 0 011.18-4.86zm2.45-9.7a6.3 6.3 0 01-.37 2.49 6.16 6.16 0 01-.88 2.36 12.5 12.5 0 011.25-4.85zm2.62-9.65a6.3 6.3 0 01-.41 2.48 6.21 6.21 0 01-.92 2.34 6.34 6.34 0 01.41-2.48 6.21 6.21 0 01.92-2.34zm2.84-9.59a12.21 12.21 0 01-1.42 4.79 6.21 6.21 0 01.46-2.47 6 6 0 01.96-2.32zm2.91-9.54a6.25 6.25 0 01-.5 2.47 6.4 6.4 0 01-1 2.3 6 6 0 01.5-2.46 6.12 6.12 0 011-2.31zm3.09-9.51a6 6 0 01-.54 2.45 6.27 6.27 0 01-1 2.29 12.31 12.31 0 011.58-4.74zm3.3-9.49a6.23 6.23 0 01-.58 2.44 6 6 0 01-1.07 2.27 12.14 12.14 0 011.65-4.71zm3.39-9.37a6.39 6.39 0 01-.61 2.44 6.24 6.24 0 01-1.1 2.26 6.18 6.18 0 01.61-2.44 6.06 6.06 0 011.1-2.26zm5.17-.52c-.11.1-.94-.66-1.87-1.68s-1.59-1.93-1.48-2 .94.66 1.87 1.68 1.62 1.89 1.48 2zm6.75 7.38c-.1.1-.95-.65-1.88-1.67s-1.61-1.92-1.5-2 .95.65 1.88 1.67 1.61 1.9 1.5 2zm6.8 7.33c-.11.1-1-.64-1.89-1.65s-1.62-1.91-1.52-2 1 .64 1.9 1.65a6.5 6.5 0 011.51 2zm6.83 7.3c-.1.1-1-.63-1.9-1.64s-1.63-1.9-1.52-2 1 .64 1.9 1.64a6.54 6.54 0 011.52 2zm6.86 7.28c-.11.1-1-.63-1.91-1.64s-1.63-1.9-1.52-2 .95.63 1.9 1.64 1.63 1.9 1.53 2zm6.9 7.26c-.1.1-1-.63-1.9-1.63s-1.64-1.9-1.54-2 1 .64 1.91 1.64 1.61 1.89 1.53 1.99zm6.86 7.26c-.11.1-1-.63-1.91-1.64s-1.64-1.89-1.54-2 1 .63 1.91 1.64 1.68 1.9 1.54 2zm6.88 7.26c-.11.09-1-.64-1.91-1.64s-1.64-1.9-1.53-2 1 .63 1.91 1.63 1.63 1.91 1.53 2.01zm6.86 7.26c-.1.1-1-.63-1.9-1.64s-1.63-1.89-1.53-2 1 .63 1.91 1.64 1.63 1.91 1.52 2zm7.16 6.97a5.23 5.23 0 01-2.11-1.39c-1-.93-1.72-1.84-1.62-1.94s1 .64 2 1.55 1.81 1.66 1.73 1.78zm9.04 4.05A7.69 7.69 0 01336 333a8.58 8.58 0 012.41.64 9 9 0 012.39.82zm9.83-.92a4.51 4.51 0 01-2.32 1 7.52 7.52 0 01-1.78.22c-.46 0-.75 0-.75-.11s1.1-.31 2.41-.61a10.52 10.52 0 012.44-.5zm8.11-5.75c.1.1-.6 1-1.66 1.9s-2.05 1.48-2.13 1.36.76-.85 1.79-1.75 1.9-1.61 2-1.51z" fill="#455a64"/>
  <path fill="#263238" d="M310 248.26l-25.18-13.81-.9 1.95 25.06 14.04 1.02-2.18z"/>
  <path d="M303.94 247.62s-5.84-7.6-6.69-9.26-2.29-4.55-2.74-4.57-2 .37.52 5.32-2.32 2.21-2.32 2.21l-4.83-2.7s-2.5 10.72-.22 13.71a54.21 54.21 0 007.15 7.07z" fill="#ffbe9d"/>
  <path d="M293.24 257.4s30.31 39.17 41.17 41.77 39.41-27.68 39.41-27.68l-12.38-15.44s-23.24 21.37-24.79 20.55-32.71-29-32.71-29z" fill="#ffbe9d"/>
  <path d="M370.75 243.63l-24.16 24.68L362 288.55s24.5-19.22 24.71-27.08c.18-6.68-1.82-19.36-9.62-20.26a7.78 7.78 0 00-6.34 2.42zM263 311.61a4.16 4.16 0 01-.09.6c-.08.42-.19 1-.33 1.69-.32 1.52-.76 3.66-1.31 6.31l-4.68 21.69-.05.23h-.24l-11.3-1.81-17.95-2.88h-.25l.06-.24c1.69-6.93 3.13-12.79 4.15-17 .51-2 .92-3.64 1.22-4.81.14-.52.25-.94.34-1.26a1.93 1.93 0 01.14-.43 2.11 2.11 0 01-.07.44l-.27 1.29c-.26 1.16-.63 2.79-1.08 4.83l-4 17-.19-.28 18 2.82 11.26 1.8-.28.19c1.95-8.7 3.64-16.23 4.86-21.65l1.45-6.28c.18-.69.31-1.25.42-1.67a2.38 2.38 0 01.19-.58zm75 33.53a1.75 1.75 0 01-.43 0 5.56 5.56 0 01-1.2-.31 11.5 11.5 0 01-3.77-2.51L321.85 332c-4.19-4-8-7.68-10.66-10.35l-3.19-3.14a10.7 10.7 0 01-1.12-1.22 10 10 0 011.26 1.07l3.31 3.07c2.77 2.6 6.58 6.22 10.76 10.24s8 7.67 10.65 10.36a12 12 0 003.58 2.59c.97.43 1.56.46 1.56.52zm14.13-31.96a100.19 100.19 0 01-7.29-6.92 100.19 100.19 0 01-6.92-7.29 93.23 93.23 0 017.29 6.92 95.36 95.36 0 016.92 7.29z" fill="#455a64"/>
  <path d="M346.59 233L345 256.58l3.83.43 1.25-24.8a8.31 8.31 0 00-3.49.79z" fill="#263238"/>
  <path d="M346.39 240.4a33.89 33.89 0 01-8.38 0 33.89 33.89 0 018.38 0zm43.28 7.8c0 .14-13.31.26-29.73.26s-29.72-.12-29.72-.26 13.3-.26 29.72-.26 29.73.12 29.73.26zm-45.61 10.14c0 .14-5.11.26-11.41.26s-11.4-.12-11.4-.26 5.1-.26 11.4-.26 11.41.11 11.41.26zm45.61-.78c0 .14-7 .26-15.6.26s-15.59-.12-15.59-.26 7-.26 15.59-.26 15.6.11 15.6.26zm0 9.55c0 .14-9 .26-20.18.26s-20.17-.12-20.17-.26 9-.26 20.17-.26 20.18.15 20.18.26zm.24 11.89c0 .15-7.82.26-17.47.26S355 279.14 355 279s7.82-.26 17.47-.26 17.44.11 17.44.26zm-.63 8.77c0 .14-4.76.26-10.63.26s-10.62-.12-10.62-.26 4.76-.26 10.62-.26 10.63.12 10.63.26zm0 8.75c0 .14-4.76.26-10.63.26s-10.62-.12-10.62-.26 4.76-.26 10.62-.26 10.63.12 10.63.26z" fill="#fafafa"/>
  <path d="M385.47 265.13a2.8 2.8 0 01-.33.54l-1 1.53a68.32 68.32 0 01-4.43 5.33 164.65 164.65 0 01-17.5 16.21l-.2.17-.15-.22-7.86-10.62-7.29-10.07-.13-.18.15-.15L364 250.48l5-5 1.36-1.31a4 4 0 01.5-.44 4.36 4.36 0 01-.43.5l-1.31 1.37c-1.18 1.22-2.85 2.94-4.94 5.07l-17.09 17.35v-.33l7.35 10 7.76 10.64h-.36a178.16 178.16 0 0017.58-16c2-2.14 3.51-4 4.52-5.22q.69-.93 1.11-1.47a3.31 3.31 0 01.42-.51z" fill="#263238"/>
  <path d="M354.69 185.4c-1.44 3.64 0 10.69 3.27 13.89 2.78 2.74 3.91 6.94 4.29 10.84.45 4.6-1.71 9.31-.53 13.79.8 3 3 5.43 4.16 8.31a13.06 13.06 0 01-3.43 14.35 8 8 0 0012.76-4.16l.26 5.48a17.38 17.38 0 006.18-23.5c-1.81-3.17-4.7-6-4.88-9.66-.12-2.39 1-4.71 1-7.1-.05-3.83-2.88-7-4.51-10.42-1.44-3.08-1.94-6.51-3.16-9.68s-3.49-6.28-6.8-7M168 422.06a17 17 0 0110.44-1.9 8.75 8.75 0 015.34 2c1.38 1.35 1.77 3.86.35 5.18a5 5 0 01-3.22 1c-2.79.13-5.9-.17-8 1.63-1.21 1-2 2.66-3.45 3.22a3.59 3.59 0 01-4.05-1.52 6.19 6.19 0 01-.71-4.49 6.93 6.93 0 013.3-5.12z" fill="#34a37e"/>
  <path d="M168 422.06a17 17 0 0110.44-1.9 8.75 8.75 0 015.34 2c1.38 1.35 1.77 3.86.35 5.18a5 5 0 01-3.22 1c-2.79.13-5.9-.17-8 1.63-1.21 1-2 2.66-3.45 3.22a3.59 3.59 0 01-4.05-1.52 6.19 6.19 0 01-.71-4.49 6.93 6.93 0 013.3-5.12z" fill="#fff" opacity=".2"/>
  <path d="M159.86 408.34c2.12 2.68 5.87 1.53 7.53-.28s2.26-4.32 2.8-6.72c1.24-5.48 2.47-11.22 1-16.63a9.23 9.23 0 00-2.37-4.37 4.81 4.81 0 00-4.63-1.25c-1.89.62-3 2.57-3.73 4.41a39.5 39.5 0 00-2.9 17.12c.15 2.73.64 5.56 2.31 7.72" fill="#34a37e"/>
  <path d="M159.86 408.34c2.12 2.68 5.87 1.53 7.53-.28s2.26-4.32 2.8-6.72c1.24-5.48 2.47-11.22 1-16.63a9.23 9.23 0 00-2.37-4.37 4.81 4.81 0 00-4.63-1.25c-1.89.62-3 2.57-3.73 4.41a39.5 39.5 0 00-2.9 17.12c.15 2.73.64 5.56 2.31 7.72" opacity=".3"/>
  <path d="M154.72 412.66a10.16 10.16 0 001-9.44 18.05 18.05 0 00-6-7.72 29.88 29.88 0 00-10.26-5.27 10.51 10.51 0 00-4.51-.49 4.67 4.67 0 00-3.61 2.48c-.93 2 .21 4.41 1.41 6.32a75.9 75.9 0 007.1 9.54c2.1 2.4 4.49 4.76 7.53 5.72s6.13.65 7.59-1.51" fill="#34a37e"/>
  <path d="M162.2 450.49a6 6 0 00.11-1.28c0-.93.08-2.09.13-3.48s.19-3.22.48-5.13a39 39 0 011.5-6.11 21.8 21.8 0 012.74-5.6 11.37 11.37 0 013.68-3.45 11.06 11.06 0 013.2-1.21 7.17 7.17 0 001.26-.25 5.49 5.49 0 00-1.29 0 9.68 9.68 0 00-3.35 1.09 11.37 11.37 0 00-3.89 3.48 21.61 21.61 0 00-2.85 5.73 36.45 36.45 0 00-1.48 6.2 43.5 43.5 0 00-.37 5.19v3.49a6.53 6.53 0 00.13 1.33z" fill="#263238"/>
  <path d="M162.29 447.81a4.38 4.38 0 000-.59c0-.44-.07-1-.11-1.68-.09-1.46-.21-3.58-.29-6.2-.17-5.23 0-10.88.35-18.86.38-7.5 1-16.24 1.81-22 .18-1.3.36-2.47.54-3.49s.31-1.91.45-2.63.22-1.23.3-1.66a2.55 2.55 0 00.07-.59 2.19 2.19 0 00-.17.57c-.11.43-.24 1-.4 1.64s-.35 1.59-.54 2.62-.42 2.19-.61 3.48a189.55 189.55 0 00-2.07 20.4c-.4 8-.37 15.25-.1 20.49.12 2.62.31 4.74.46 6.19.08.69.15 1.24.2 1.68a2.17 2.17 0 00.11.63z" fill="#263238"/>
  <path d="M161.5 433.86a11.49 11.49 0 00-.11-1.76c-.14-1.13-.39-2.75-.82-4.74a65 65 0 00-2-6.85 56.55 56.55 0 00-3.39-8.05 43.81 43.81 0 00-9.31-12.78 21.17 21.17 0 00-2.12-1.75c-.32-.24-.61-.48-.9-.67l-.81-.49a12.26 12.26 0 00-1.53-.87 53.94 53.94 0 015.11 4.05 46.37 46.37 0 019.09 12.75 64.23 64.23 0 013.4 8c.91 2.51 1.56 4.82 2.06 6.78s.78 3.57 1 4.68a12.44 12.44 0 00.33 1.7zM303 132.58a4.17 4.17 0 00-.87.19 2.55 2.55 0 00-1.6 1.85 11.41 11.41 0 00-.05 1.89v8.04c0 4.3 0 9.53.05 15.56V166a3.73 3.73 0 00.11 1.17 2.42 2.42 0 001.57 1.59 3.67 3.67 0 001.21.12h9.66v11.34l-.39-.16 11.12-11.14.07-.07h50.91a3.25 3.25 0 002.9-2.63 8.57 8.57 0 00.06-1.45V136a3.19 3.19 0 00-.27-1.22 3.29 3.29 0 00-3-2h-36.5l-25.59-.08-7-.05h-2.42 2.42l7-.05 25.61-.2h36.63a3.7 3.7 0 011.39.27 3.76 3.76 0 012 2 3.8 3.8 0 01.31 1.41v28.73a9 9 0 01-.07 1.54 3.79 3.79 0 01-1.82 2.57 3.65 3.65 0 01-1.54.48h-50.86l.18-.07-11.15 11.12-.39.39v-11.68l.21.21h-9.45a4 4 0 01-1.32-.13 2.8 2.8 0 01-1.82-1.86 4.31 4.31 0 01-.12-1.27v-5.89c0-6 0-11.26.05-15.56v-8.04a13 13 0 01.08-1.92 2.65 2.65 0 011.71-1.88 2 2 0 01.98-.24z" fill="#263238"/>
  <path d="M329.58 150.76a2.92 2.92 0 11-2.91-2.91 2.91 2.91 0 012.91 2.91zm11.51 0a2.91 2.91 0 11-2.91-2.91 2.91 2.91 0 012.91 2.91zm11.51 0a2.91 2.91 0 11-2.91-2.91 2.91 2.91 0 012.91 2.91zm-54.19 32.15h-89.77a3.45 3.45 0 00-3.45 3.46v29a3.44 3.44 0 003.45 3.45h69l11 11v-11h9.78a2.56 2.56 0 002.56-2.56v-30.79a2.56 2.56 0 00-2.57-2.56z" fill="#455a64"/>
  <path d="M225.83 200.4a3.33 3.33 0 11-3.32-3.32 3.32 3.32 0 013.32 3.32zm61.17-3.32c0 .14-12.13.26-27.09.26s-27.1-.12-27.1-.26 12.13-.26 27.1-.26 27.09.11 27.09.26zm0 4.75c0 .14-12.13.26-27.09.26s-27.1-.12-27.1-.26 12.13-.26 27.1-.26 27.09.11 27.09.26zm-28.79 5.39c0 .15-5.69.26-12.71.26s-12.72-.11-12.72-.26 5.69-.26 12.72-.26 12.71.12 12.71.26z" fill="#fafafa"/>
  <path d="M492.68 230a4 4 0 00-.85.19 2.5 2.5 0 00-1.58 1.82 11.17 11.17 0 00-.05 1.87v7.91c0 4.24 0 9.39.05 15.33v5.8a3.6 3.6 0 00.11 1.15 2.36 2.36 0 001.55 1.57 3.52 3.52 0 001.19.11h9.51v11.22l-.39-.16 11-11 .07-.07h50.19a3.19 3.19 0 002.86-2.58 9.49 9.49 0 00.06-1.43v-28.29a3.18 3.18 0 00-.27-1.21 3.23 3.23 0 00-2.92-1.92h-36.08l-25.21-.09h-9.24 2.39l6.85-.05 25.21-.08h36.11a3.67 3.67 0 013.36 2.2 3.48 3.48 0 01.31 1.39v28.3a8.82 8.82 0 01-.06 1.52 3.72 3.72 0 01-1.8 2.53 3.57 3.57 0 01-1.52.48h-50.05l.17-.07q-5.7 5.7-11 10.95l-.38.39v-11.55l.21.21h-9.3a4.23 4.23 0 01-1.31-.13 2.79 2.79 0 01-1.79-1.83 3.92 3.92 0 01-.11-1.26v-5.8c0-5.94 0-11.09.05-15.33v-7.91a12.62 12.62 0 01.08-1.9 2.61 2.61 0 011.69-1.86 1.94 1.94 0 01.89-.42z" fill="#263238"/>
  <circle cx="505.19" cy="246" r="3.32" fill="#455a64"/>
  <path d="M558.24 242.67c0 .15-9.58.26-21.39.26s-21.38-.11-21.38-.26 9.57-.26 21.38-.26 21.39.12 21.39.26zm0 4.75c0 .15-9.58.26-21.39.26s-21.38-.11-21.38-.26 9.57-.26 21.38-.26 21.39.12 21.39.26zm-17.35 5.4c0 .14-5.69.26-12.71.26s-12.71-.12-12.71-.26 5.69-.26 12.71-.26 12.71.12 12.71.26z" fill="#263238"/>
  <path d="M472.16 174.9H516a3.45 3.45 0 013.46 3.45v29a3.46 3.46 0 01-3.46 3.46h-23.1l-11 11v-11h-9.77a2.57 2.57 0 01-2.57-2.56v-30.79a2.56 2.56 0 012.6-2.56z" fill="#34a37e"/>
  <path d="M486.69 193.48a2.58 2.58 0 11-2.57-2.58 2.57 2.57 0 012.57 2.58zm10.2 0a2.58 2.58 0 11-2.58-2.58 2.57 2.57 0 012.58 2.58zm10.2 0a2.58 2.58 0 11-2.58-2.58 2.58 2.58 0 012.58 2.58z" fill="#fafafa"/>
</svg>
