<svg xmlns="http://www.w3.org/2000/svg" viewBox="0 0 500 500">
  <path d="M436 50.89c.61-4.47-5.7-8.15-10.44-8.53-2.27-.18-4.61.16-6.76-.58-4.64-1.62-6.49-7.62-11-9.53-3.39-1.43-7.29-.16-10.57 1.5s-6.53 3.73-10.2 4c-3.19.21-6.65-1-9.44.58-2.08 1.16-3.17 3.56-5.09 5s-4.32 1.68-6.65 1.81-4.74.15-6.86 1.12-3.87 3.21-3.43 5.5z" fill="#f5f5f5"/>
  <path d="M419.45 95a9 9 0 11-11.53-5.42A9 9 0 01419.45 95zm17.62-25.57A9 9 0 11425.54 64a9 9 0 0111.53 5.43zM450 105.35c1.84 5.1-.46 10.59-5.14 12.28s-10-1.06-11.8-6.16.46-10.59 5.14-12.28 10 1.07 11.8 6.16z" fill="#ebebeb"/>
  <path d="M438.68 108.23c-.17.66-7-.51-15.17-2.63s-14.72-4.36-14.55-5 7 .51 15.17 2.62 14.72 4.34 14.55 5.01zm-12.07-35.69c.58.37-2.33 6-6.49 12.51s-8 11.54-8.57 11.17 2.32-6 6.48-12.5 7.97-11.55 8.58-11.18z" fill="#ebebeb"/>
  <path d="M69.22 112.6a4.5 4.5 0 11-4.47-4.52 4.49 4.49 0 014.47 4.52zm-13.48-5.78a12.47 12.47 0 0118-.24c2.29 2.31 5.88-1.24 3.59-3.56a17.56 17.56 0 00-25.17.21c-2.25 2.35 1.3 6 3.55 3.59zM40.48 85.9c6.83-5.91 15-9.63 24.13-9.65a35.79 35.79 0 0124.62 9.42c2.37 2.22 6-1.33 3.59-3.56a41 41 0 00-28.19-10.92c-10.51 0-19.86 4.32-27.71 11.12C34.45 84.44 38 88 40.48 85.9z" fill="#e0e0e0"/>
  <path d="M46.5 97.49A24.73 24.73 0 0182.84 97c2.27 2.34 5.87-1.22 3.59-3.56a29.77 29.77 0 00-43.49.49c-2.2 2.38 1.35 6 3.56 3.59z" fill="#e0e0e0"/>
  <path d="M119.13 452.59c2.93-6.85 1.15-14-3.67-19.66a20.61 20.61 0 00-20.17-6.55 22.56 22.56 0 00-34-15.25 23 23 0 00-10.72 18.16 16.89 16.89 0 00-12.91 22.91z" fill="#ebebeb"/>
  <path fill="#fff" d="M71.97 452.35v-11.47h-5.75l8.65-12.21 8.65 12.12h-5.64v11.56h-5.91z"/>
  <path d="M452.13 436.2a15.12 15.12 0 01-11.74-1.62 26.65 26.65 0 01-8.64-8.43c-4.43-6.5-6.21-15.37-6.66-23.22 8.73.06 16.41 6.66 20.09 10.25 5.83 5.68 12.91 19.48 6.95 23m-41.24-38.03a12.93 12.93 0 014.84 12 17.11 17.11 0 01-7 11.24c-1.69 1.25-3.8 2.26-5.83 1.74a5.54 5.54 0 01-3.72-4.19 11.12 11.12 0 01.48-5.79c2-6.43 5.08-12.29 11.23-15" fill="#ebebeb"/>
  <path d="M405 379.39a25.78 25.78 0 012.66 4.46 23.94 23.94 0 012 5.32A52.15 52.15 0 01411 396a25.79 25.79 0 01-1.43 12.48 18.07 18.07 0 01-1.79 3.39 4.42 4.42 0 01-.9 1.07c-.14-.09 1.06-1.69 2.11-4.68a27.61 27.61 0 001.14-12.16 64.66 64.66 0 00-1.29-6.69 27 27 0 00-1.75-5.26 35.67 35.67 0 01-2.09-4.76z" fill="#e0e0e0"/>
  <path d="M445.81 426.17a15.58 15.58 0 01-1.9-1.82c-1.19-1.2-2.88-3-5-5.17-4.14-4.4-9.78-10.55-15.86-17.5S411.71 388.3 408 383.55c-1.87-2.37-3.37-4.3-4.37-5.66a15.79 15.79 0 01-1.5-2.16 14.41 14.41 0 011.77 1.95l4.59 5.48c3.87 4.64 9.25 11 15.32 17.94l15.65 17.66c1.92 2.17 3.51 4 4.74 5.36a15 15 0 011.61 2.05z" fill="#e0e0e0"/>
  <path d="M416.45 389.4a30.18 30.18 0 0027.5 2.25c2.25-.95 4.66-2.65 4.63-5.09s-2.51-4.08-4.8-4.92a25.8 25.8 0 00-27.71 7.22" fill="#ebebeb"/>
  <path d="M437.7 388.21a4 4 0 01-1.29.51c-.84.28-2.08.6-3.63 1a34 34 0 01-12.41.64 21.41 21.41 0 01-6.55-2.18 20.54 20.54 0 01-4.53-3.33 20.15 20.15 0 01-2.46-2.87c-.52-.72-.78-1.14-.73-1.18s1.29 1.5 3.61 3.59a22.34 22.34 0 004.49 3.07 22 22 0 006.31 2 38.37 38.37 0 0012.15-.38 47.23 47.23 0 015.04-.87z" fill="#e0e0e0"/>
  <path d="M136.38 47.57c.39-2.86-3.65-5.22-6.69-5.46-1.45-.12-3 .1-4.32-.38-3-1-4.17-4.87-7.07-6.1-2.17-.91-4.66-.1-6.77 1s-4.18 2.37-6.53 2.5c-2 .13-4.26-.63-6 .37-1.33.75-2 2.28-3.26 3.19a7.81 7.81 0 01-4.26 1.15 12 12 0 00-4.39.72 3.47 3.47 0 00-2.2 3.52z" fill="#f5f5f5"/>
  <path d="M421.5 458.5c.4-2.86-3.65-5.22-6.69-5.47-1.44-.11-2.95.11-4.32-.37-3-1-4.16-4.88-7.06-6.1-2.17-.92-4.67-.1-6.77 1s-4.19 2.39-6.54 2.54c-2 .13-4.26-.63-6.05.37-1.33.74-2 2.28-3.25 3.18a7.76 7.76 0 01-4.26 1.16 12.07 12.07 0 00-4.4.72A3.45 3.45 0 00370 459z" fill="#ebebeb"/>
  <path d="M70.75 149c.4-2.87-3.65-5.22-6.68-5.47-1.45-.11-3 .11-4.33-.37-3-1-4.16-4.88-7.06-6.1-2.17-.92-4.67-.1-6.77.95s-4.18 2.4-6.53 2.55c-2.05.13-4.27-.63-6.06.37-1.33.74-2 2.28-3.25 3.18a7.76 7.76 0 01-4.26 1.16 12 12 0 00-4.39.71 3.48 3.48 0 00-2.2 3.53zm109.36 323.46c.39-2.87-3.65-5.22-6.69-5.47-1.45-.12-2.95.11-4.33-.37-3-1-4.16-4.88-7.06-6.1-2.17-.92-4.67-.11-6.77 1s-4.18 2.39-6.53 2.54c-2 .13-4.26-.62-6 .38-1.33.74-2 2.27-3.26 3.18a7.73 7.73 0 01-4.26 1.15 12.23 12.23 0 00-4.39.72 3.48 3.48 0 00-2.2 3.53z" fill="#f5f5f5"/>
  <path d="M446.47 239c-.21-2.16-.46-4.28-.76-6.4s-.63-4.48-1-6.7q.57 3.33 1 6.7c.29 2.12.55 4.24.76 6.4z" fill="#34a37e"/>
  <path d="M429.11 265.53c-1.87-4.19-2.3-8.82-3.54-13.22-.66-2.36-1.78-4.88-4-5.92-1.48-.69-3.23-.6-4.8-1.08-5.66-1.68-7.2-9.48-12.55-11.91a18.67 18.67 0 00-5.39-1.1c-7.16-.84-14.57-3.29-19.07-8.86-1.49-1.79-2.61-3.91-4.42-5.38s-4.69-2.09-6.47-.6c1.51 3 3 6 4.48 8.95 1.36 2.69 2.75 5.47 5 7.44s5.69 3.05 8.44 1.8c.91-.42 1.82-1.11 2.84-1a3.09 3.09 0 011.85 1.17c3.9 4.27 2.63 11.36-1.18 15.73s-9.41 6.61-14.82 8.73c-1.93.75-4 1.53-6.05 1.17-3.74-.69-5.74-4.72-6.83-8.34-2.45-8-3.63-16.72-8.65-23.48-1.6-2.13-3.59-4.07-4.56-6.55-1-2.7-.79-5.84-2.42-8.2s-5.29-3.92-5.53-6.91c-.16-2.09 1.6-3.95 3.53-4.84s4.12-1.2 6.11-2c.79-.33 1.66-.9 1.69-1.73 0-1.26-1.75-1.77-2.2-2.93-.49-1.32.87-2.55 1.45-3.83 1.24-2.93-1.85-5.9-4.84-7.09s-6.56-2.07-7.95-4.94a16.57 16.57 0 01-1-4.27c-.69-3.62-3.39-7.12-7.07-7.72s-7.84 2.66-7.23 6.31c.36 2 1.87 3.56 2.69 5.41s.6 4.61-1.33 5.21c-3.18 1-6.23-4.79-8.89-2.81 1.09 3.68 2.15 7.35 3.24 11.06-4.18 2.1-9.17-1.7-11-6s-1.85-9.18-4-13.31-7.83-7.24-11.46-4.31c-.18 5.33 6.92 7.48 10.07 11.79 2.26 3.11 1.93 8.16-1.42 10.14s-8.62-1.47-7.35-5.09c.45-1.25 1.51-2.3 1.63-3.65.12-1.67-1.3-3-2.6-4.09-2-1.71-4.05-3.38-6.08-5.06a12.91 12.91 0 00-4.32-2.69c-4.17-1.2-8.35 2.15-10.55 5.83s-3.45 8.05-6.5 11.13c-4.39 4.49-12.7 4.75-16.82.06s-2-13.49 4.06-15.19c2.29-.63 5.2-.57 6.41-2.58 2.11-3.56-3.94-8.1-1.85-11.69 1.6-2.75 5.84-1.5 8.92-2.43s4.78-4 6.59-6.6 4.6-5.24 7.74-4.55c-.24-1.83-.48-3.8.34-5.45s3.11-2.75 4.62-1.67c-1.54 2.51.3 6 3 7.27s5.83 1 8.79.63 6.69-1.44 6.93-4.37c.09-1-.27-2 .09-2.87 1.3-3.5 7.83 1.31 10.34-1.5 1.45-1.46-.15-4.07-2.18-4.54s-4.08.23-6.13.3-4.57-1-4.66-3 2.18-3.44 2.42-5.41c.39-3.35-5.35-4.22-7.38-1.5s-1.3 6.47-.69 9.79.93 7.23-1.55 9.57c-1.06 1.58-3.81.74-4.71-.93s-.73-3.71-.88-5.59-1-4.07-2.87-4.58c-1.3-.36-2.69.27-4 .45-5.27.63-8.92-6.1-7.26-11.07s6.41-8.19 11-10.74c3.39-1.85 7.59-3.59 10.95-1.7 1.57.87 2.66 2.36 4.2 3.26 2.66 1.55 6 1 9 1.05a21.14 21.14 0 0113.16 5c1.36 1.23 2.63 3.26 1.57 4.73s-4.44 1.88-3.87 3.71a6.56 6.56 0 008.22-5.24 5.44 5.44 0 013.18 4.43c3.84-3.86 11.22-3.29 14.36 1.16.85 1.17 1.45 2.58 2.66 3.38s3.33.39 3.48-1a2.87 2.87 0 00-.24-1.32c-.73-2-1.48-4-2.21-6 2.81-1.5 6.14.84 8 3.35 7.08 9.36 12.13 3.74 22.11 5.26 6.74 1 9.7 5.3 13.51 10.47 11.67 15.91 27.09 29 37.71 45.59 1.12 1.73 2.14 3.49 3.11 5.29-.18-.45-.33-.9-.51-1.35a184.75 184.75 0 00-15.42-31q-2-3.15-4-6.19c-.85-1.26-1.73-2.55-2.6-3.77-1.12-1.62-2.3-3.17-3.48-4.73-.94-1.26-1.88-2.48-2.85-3.68-.66-.84-1.36-1.67-2.05-2.51s-1.51-1.88-2.36-2.81l-2.54-2.9a9.55 9.55 0 00-.82-.9c-.87-1-1.81-2-2.75-3a.85.85 0 00-.27-.3c-.24-.27-.51-.54-.79-.81-.75-.84-1.57-1.64-2.35-2.45-1.3-1.32-2.63-2.63-4-3.89-1.11-1.11-2.26-2.15-3.44-3.2s-2.06-1.85-3.12-2.75-2.05-1.77-3.11-2.63a122.24 122.24 0 00-3.9-3.17q-5.49-4.36-11.31-8.23c-1-.66-1.91-1.29-2.87-1.91s-2-1.26-2.94-1.86-2-1.22-3-1.79-2-1.2-3-1.77c-.82-.48-1.6-.93-2.42-1.34a12.81 12.81 0 00-1.24-.69c-1.72-1-3.48-1.89-5.23-2.75-.88-.45-1.76-.9-2.66-1.32-1.12-.57-2.27-1.11-3.42-1.61a2.66 2.66 0 00-.51-.24c-1-.48-2.06-1-3.12-1.41-1.48-.63-3-1.26-4.44-1.85-1.7-.69-3.39-1.38-5.11-2-1.91-.72-3.81-1.4-5.75-2s-3.9-1.29-5.86-1.89-3.93-1.13-5.93-1.67c-3.93-1-7.92-2-11.94-2.78-.06 0-.15 0-.22-.06-1.54-.3-3.08-.6-4.62-.84a1.32 1.32 0 00-.3-.06c-.67-.12-1.36-.24-2.06-.33-2.87-.48-5.78-.87-8.71-1.2-.33-.06-.69-.09-1.06-.12-.84-.11-1.69-.17-2.57-.26q-2.89-.27-5.83-.45c-2-.15-4.08-.24-6.14-.3s-4.29-.12-6.44-.12c-5.69 0-11.31.24-16.87.75-1.33.09-2.63.21-3.93.36s-2.72.29-4.09.47-2.72.36-4 .57-2.69.42-4.05.66c-1.15.18-2.33.39-3.48.63-2.84.54-5.65 1.13-8.43 1.79q-2 .45-3.9 1c-1.3.33-2.6.69-3.87 1-2.15.59-4.24 1.25-6.32 1.91-1.7.57-3.42 1.14-5.08 1.71a.31.31 0 00-.12 0c-1.73.6-3.39 1.23-5.08 1.89l-.28.09c-1.54.6-3.08 1.23-4.59 1.85-1.91.78-3.78 1.62-5.63 2.46-1.57.71-3.11 1.43-4.62 2.18s-3.27 1.62-4.87 2.45l-.18.09c-1.54.81-3.09 1.65-4.6 2.51s-3.11 1.77-4.65 2.73c-1.46.86-2.88 1.73-4.3 2.63-.54.33-1.06.69-1.6 1.05-1.51.95-3 1.94-4.45 3-1.81 1.22-3.56 2.51-5.32 3.8-1.54 1.13-3 2.3-4.53 3.47a188.55 188.55 0 00-23.77 22.28c-2.57 2.81-5 5.68-7.35 8.61-2 2.52-3.93 5.06-5.77 7.69-1.66 2.29-3.27 4.62-4.81 7 1.54-2.37 3.15-4.7 4.81-7 .48-.06 1-.12 1.45-.15 2.72-.21 5.59-.12 8-1.29 2.27-1.1 3.87-3.11 5.93-4.54 5.26-3.71 13.88-4.4 15.3-10.62.48-2.09-.09-4.37.69-6.37 1.49-3.74 6.54-4.28 10.59-4.22 1.72 0 3.75.24 4.53 1.74a4.23 4.23 0 01-.18 3.47A32.57 32.57 0 01133 143.31c-5.26 3.18-12.12 5.63-13.57 11.55.72 2 4.41 1.85 4.71 3.95.22 1.67-2 2.54-2.75 4-1.15 2.18 1.48 4.84 4 4.72s4.6-1.91 6.44-3.59c5.51-5 11.28-10.5 13.28-17.67.84-3 1.15-6.43 3.56-8.41 2.88-2.33 8-.72 9 2.84 2.38-1.31 6.1-2.3 7.34.15a12.12 12.12 0 01.52 2.81c.78 3.83 6.08 5.57 6.62 9.43.63 4.45-5.14 6.76-9.65 7.44-4.08.63-8.16 1.26-12.24 1.92a11.47 11.47 0 00-5.08 1.61c-1.45 1.08-2.36 3.11-1.51 4.7a11.91 11.91 0 002.11 2.15c3.39 3.35.61 10.26-4.17 10.41-1.63.06-3.24-.54-4.87-.6-4.84-.21-8.68 4-11 8.23s-4 9-7.9 11.9c-6.22 4.64-17 3.56-20 10.68-1.21 2.87-.58 6.1-.09 9.18s.69 6.46-1.12 9-6.44 3.05-7.77.24a6.74 6.74 0 01-.18-4q1.08-6.65 2.11-13.28c.52-3.29 1-7-1-9.66-2.75-3.77-8.92-3.41-12.48-.39s-5 7.74-6 12.26c-.73 3.35-1.57 8.08-3.45 11.9-.63 3.71-1.15 7.48-1.54 11.28s-.67 7.75-.82 11.7a16.35 16.35 0 001.55-1.44c1.9-1.94 5.74-10.17 9.19-6.13a3 3 0 01.06 3.74c-1.06 1.34-3.18 1.64-4 3.11-1 1.73.39 3.89 2 5s3.7 1.96 4.82 3.62c2.21 3.14.09 7.9 2.24 11.1 1.84 2.75 5.77 2.93 9.13 3.29l1.15.18c.94-6.58 4-11.94 13.12-14 12.52-2.81 29 7.45 36 16.78 7.86 10.44 11.58 25.21 23.62 30.45 8.62 3.74 20.86 2.39 25.06 10.74 3.75 7.47-2.78 15.88-3.77 24.16-.64 5.48 1.17 10.92 1.6 16.4S186 368.69 181 371c-2.81 1.26-6.35 1.11-8.62 3.2-4 3.77-.73 11.55-4.75 15.32-1.42 1.31-3.38 1.79-5.11 2.66-9 4.52-8.79 17.68-4.59 26.8l.45 1a192.72 192.72 0 0098 26.77A191.79 191.79 0 00346 424.62a190.2 190.2 0 0017-10.08 187.67 187.67 0 0023.74-18.66 183.26 183.26 0 0014.51-15c3.21-3.65 6.23-7.44 9.14-11.33 1.48-2 2.93-4 4.29-6.07A183.38 183.38 0 00426 344.61a187.48 187.48 0 0019.65-61.52c.58-4.25 1-8.56 1.33-12.9a11 11 0 01-7.68 3.38c-4.56-.05-8.3-3.85-10.19-8.04z" fill="#ebebeb"/>
  <path d="M210.75 118.21c-3.79 2.24-5.8 6.46-8.72 9.73s-8.16 5.6-11.61 2.88a7.86 7.86 0 01-2.59-5.56 14.11 14.11 0 012.06-8.66c1.64-2.65 4.15-4.74 5.55-7.53s1.1-6.88-1.75-8.19c-1.54-.71-3.49-.43-4.86-1.43-2.46-1.79-.7-6 2.16-7.11s6-.24 9.09 0c11.08.7 19.22-6.47 27.55-12.43 6.47-4.63 20.27-10.11 27.76-5.37 3 1.89 4.16 6.74 1.34 8.88-1.26.95-3 1.16-4.17 2.22-1.41 1.27-1.61 3.35-2.41 5.06-2.1 4.43-8.14 6-10.09 10.54-1.17 2.71-.64 6.08-2.45 8.43-1.43 1.86-3.91 2.51-6.21 3l-14.4 3.4a21.5 21.5 0 00-6.25 2.14zm129.11 232.64c-4.79 7.14-5.66 16.07-7 24.54s-3.62 17.47-10.19 23.05-18.67 5.25-22.29-2.54c-2-4.23-1-9.21-2-13.74-1.39-5.9-6.14-10.46-8.4-16.1-1.92-4.8-1.93-10.12-2.08-15.29-.86-28.24-7.82-57.72-27.26-78.42-2.39-2.55-5.1-5-8.49-5.91a10.92 10.92 0 00-11.16 3.8c-1.56 2.05-2.36 4.65-4.27 6.38-4.16 3.75-11.41 1.06-14.19-3.78s-2.39-10.77-1.92-16.32q.85-10.3 1.73-20.62c.3-3.6.7-7.46 3.09-10.19 3.39-3.88 9.48-4.07 13.63-7.14 5.45-4 6.17-11.73 9.6-17.54s14.18-8.26 15.77-1.72c11.36-24.06 36.47 11.68 51.41 9 4.33-.79 8.57-2.85 12.94-2.24 7.7 1.06 11.68 9.47 14.31 16.72q6.53 18 13.06 36.09c1.66 4.59 3.8 9.68 8.39 11.44 3.51 1.35 7.6.32 11.14 1.6 9.37 3.37 6.33 18-1.21 24.41s-18.13 10.53-21.71 19.73c-2.7 6.94-.55 15.06-3.46 21.92-2.09 4.9-6.47 8.44-9.44 12.87zm35.57 7.85c-3.08.42-6.71-1.08-9.05.94-1.37 1.19-1.67 3.13-2.21 4.84a10.36 10.36 0 01-4.37 5.89 6.62 6.62 0 01-7.12-.12c-2-1.51-2.62-4.72-1-6.6.75-.86 1.83-1.37 2.66-2.15 4.09-3.82 1.29-10.91 4.4-15.45 1.83-2.68 4.72-5.4 6.73-8.11 1.55-2.09 2.11-3.74 5-4.3 12.44-2.42 18.06 23.24 4.96 25.06zM90.28 307.4c-.61-5.41 1.21-10.82 1.3-16.3.06-3.77-.21-7.75-.27-11.54a52.92 52.92 0 01-9.71-1.35 2.88 2.88 0 01-1.78-.9 3.4 3.4 0 01-.4-2c-.24-4.25-4.38-7.06-8.1-9.18a31.81 31.81 0 00-5.9-2.87v1.31a186.54 186.54 0 0012.16 60 180 180 0 0011.67 24.77c1.87 3.44 3.93 6.82 6.08 10.14 2.66 4.1 5.44 8.1 8.43 12 2.79 3.71 5.75 7.33 8.86 10.8A190.73 190.73 0 00126.17 396c4.2 3.89 8.59 7.56 13.15 11.06-10.43-27.69-20.26-56-38.1-79.53-4.68-6.19-10.07-12.47-10.94-20.13z" fill="#e0e0e0"/>
  <path d="M91.67 272.23l-1.15-.18c-3.36-.36-7.29-.54-9.13-3.29-2.15-3.2 0-8-2.24-11.1C78 256 76 255.3 74.38 254.13s-3-3.29-2-5c.81-1.47 2.93-1.77 4-3.11a3 3 0 00-.06-3.74c-3.45-4-7.29 4.19-9.19 6.13a17.66 17.66 0 01-1.54 1.44c0 .35-.07.68-.07 1 0 1.12 0 2.27-.06 3.41s-.06 2.28-.06 3.41v5.54a31.72 31.72 0 015.89 2.87c3.72 2.12 7.86 4.93 8.1 9.18a3.49 3.49 0 00.4 2 2.91 2.91 0 001.78.9 52.92 52.92 0 009.71 1.35m.09.07c.06 3.8.33 7.78.27 11.55-.09 5.47-1.9 10.89-1.3 16.3.88 7.66 6.26 13.94 11 20.1 17.84 23.57 27.66 51.83 38.1 79.53 1.93 1.53 3.9 3 5.89 4.37 1.58 1.12 3.16 2.22 4.77 3.29s3.23 2.12 4.88 3.14c1.15.72 2.3 1.4 3.48 2.09-.15-.33-.31-.63-.46-.95-4.2-9.13-4.44-22.29 4.6-26.8 1.72-.87 3.69-1.35 5.11-2.67 4-3.76.72-11.54 4.75-15.31 2.26-2.09 5.8-1.94 8.61-3.2 5-2.3 6.69-8.7 6.29-14.21s-2.23-10.92-1.6-16.39c1-8.28 7.53-16.69 3.78-24.17-4.2-8.34-16.45-7-25.07-10.73-12-5.24-15.75-20-23.61-30.45-7.05-9.34-23.5-19.59-36-16.78-9.07 2-12.19 7.39-13.13 14m-14.39-69.6c3.56-3 9.73-3.38 12.48.39 2 2.69 1.52 6.37 1 9.66q-1 6.63-2.11 13.28a6.74 6.74 0 00.18 4c1.33 2.81 6 2.27 7.77-.24s1.6-6 1.12-9-1.12-6.31.09-9.18c3-7.12 13.76-6 20-10.68 3.87-2.87 5.6-7.68 7.9-11.9s6.13-8.44 11-8.23c1.63.06 3.24.66 4.87.6 4.78-.15 7.56-7.06 4.17-10.41a11.91 11.91 0 01-2.11-2.15c-.85-1.59.06-3.62 1.51-4.7a11.47 11.47 0 015.08-1.61c4.08-.66 8.16-1.29 12.24-1.92 4.51-.68 10.28-3 9.65-7.44-.54-3.86-5.84-5.6-6.62-9.43a12.12 12.12 0 00-.52-2.81c-1.24-2.45-5-1.46-7.34-.15-1-3.56-6.11-5.17-9-2.84-2.41 2-2.72 5.45-3.56 8.41-2 7.17-7.77 12.62-13.28 17.67-1.84 1.68-3.93 3.47-6.44 3.59s-5.14-2.54-4-4.72c.79-1.5 3-2.37 2.75-4-.3-2.1-4-1.95-4.71-3.95 1.45-5.92 8.31-8.37 13.57-11.55a32.57 32.57 0 0013.88-16.86 4.23 4.23 0 00.18-3.47c-.78-1.5-2.81-1.74-4.53-1.74-4.05-.06-9.1.48-10.59 4.22-.78 2-.21 4.28-.69 6.37-1.42 6.22-10 6.91-15.3 10.62-2.06 1.43-3.66 3.44-5.93 4.54-2.45 1.17-5.32 1.08-8 1.29-.48 0-1 .09-1.45.15-1.66 2.29-3.27 4.62-4.81 7s-3 4.78-4.47 7.22a185.35 185.35 0 00-16.57 36.55c-1.49 4.47-2.79 9-3.93 13.63s-2.09 9.29-2.88 14c1.88-3.82 2.72-8.55 3.45-11.9.93-4.57 2.41-9.29 5.95-12.31zm370 52.45q0-4.08-.25-8.1c-.14-2.69-.36-5.36-.63-8-.21-2.15-.45-4.28-.75-6.4s-.64-4.48-1-6.69a180.28 180.28 0 00-4.47-19.63c-.71-2.47-1.27-4.92-2.08-7.35s-1.85-4.82-2.76-7.22c-1-1.79-2-3.56-3.11-5.29-10.61-16.63-26-29.67-37.71-45.58-3.8-5.18-6.77-9.46-13.51-10.47-10-1.53-15 4.09-22.1-5.27-1.91-2.51-5.23-4.84-8-3.35.73 2 1.48 4 2.21 6a2.87 2.87 0 01.24 1.32c-.15 1.41-2.27 1.8-3.48 1s-1.81-2.22-2.66-3.38c-3.14-4.46-10.52-5-14.36-1.17a5.46 5.46 0 00-3.17-4.43 6.57 6.57 0 01-8.23 5.24c-.57-1.83 2.72-2.16 3.87-3.71s-.21-3.5-1.57-4.73a21.14 21.14 0 00-13.15-5c-3.06-.06-6.35.51-9-1-1.55-.9-2.63-2.39-4.21-3.26-3.35-1.88-7.56-.15-10.94 1.71-4.63 2.54-9.41 5.74-11 10.73s2 11.7 7.26 11.07c1.33-.18 2.72-.81 4-.45 1.87.51 2.72 2.66 2.87 4.58s-.06 3.92.88 5.59 3.66 2.51 4.72.93c2.48-2.33 2.17-6.25 1.54-9.57s-1.3-7.06.69-9.78 7.77-1.86 7.38 1.49c-.24 2-2.51 3.41-2.42 5.42s2.6 3.11 4.66 3 4.14-.81 6.14-.3 3.63 3.08 2.17 4.55c-2.51 2.81-9-2-10.34 1.49-.36.9 0 1.91-.09 2.87-.24 2.93-4 4-6.92 4.37s-6.11.63-8.8-.63-4.54-4.76-3-7.27c-1.52-1.07-3.81 0-4.63 1.68s-.58 3.62-.33 5.44c-3.15-.69-6 1.94-7.74 4.55s-3.54 5.68-6.6 6.61-7.31-.33-8.92 2.42c-2.08 3.59 4 8.14 1.85 11.69-1.21 2-4.11 2-6.41 2.58-6.08 1.7-8.2 10.5-4.05 15.19s12.42 4.43 16.81-.06c3-3.08 4.29-7.42 6.5-11.12s6.38-7 10.55-5.84a12.73 12.73 0 014.33 2.7c2 1.67 4 3.34 6.07 5 1.3 1.08 2.73 2.42 2.6 4.1-.12 1.34-1.18 2.39-1.63 3.65-1.27 3.62 4 7.05 7.35 5.08s3.69-7 1.42-10.14c-3.14-4.31-10.25-6.46-10.07-11.78 3.63-2.93 9.34.15 11.46 4.3s2.18 9 4 13.31 6.78 8.11 10.95 6c-1.09-3.71-2.15-7.39-3.24-11.07 2.66-2 5.72 3.77 8.89 2.81 1.94-.6 2.18-3.35 1.33-5.2s-2.45-3.37-2.81-5.37c-.6-3.65 3.51-6.91 7.23-6.31s6.38 4.1 7.07 7.72a17.62 17.62 0 001 4.28c1.39 2.87 5 3.73 8 4.93s6.08 4.16 4.84 7.09c-.57 1.29-1.93 2.51-1.45 3.83.45 1.17 2.21 1.67 2.21 2.93 0 .84-.91 1.41-1.7 1.73-2 .81-4.17 1.08-6.1 2s-3.69 2.75-3.54 4.84c.24 3 3.84 4.43 5.53 6.91s1.39 5.51 2.42 8.2c1 2.48 3 4.42 4.57 6.55 5 6.76 6.2 15.46 8.64 23.48 1.09 3.62 3.09 7.66 6.84 8.34 2.05.36 4.11-.42 6.05-1.16 5.41-2.13 11-4.4 14.81-8.74s5.08-11.45 1.18-15.73a3.07 3.07 0 00-1.84-1.17c-1-.12-1.94.57-2.85 1-2.75 1.26-6.13.21-8.43-1.79s-3.66-4.76-5-7.45c-1.48-3-3-6-4.48-8.94 1.79-1.5 4.63-.87 6.47.59s2.94 3.59 4.42 5.39c4.5 5.56 11.91 8 19.08 8.85a18.29 18.29 0 015.38 1.11c5.35 2.42 6.89 10.23 12.55 11.9 1.57.48 3.32.39 4.81 1.08 2.23 1 3.35 3.56 4 5.92 1.24 4.4 1.66 9 3.53 13.22s5.63 8 10.23 8.05a11.08 11.08 0 007.68-3.38c.24-4.13.39-8.26.39-12.45-.08-.94-.08-1.82-.14-2.68z" fill="#e0e0e0"/>
  <path d="M48.36 273.8a35.3 35.3 0 01-.44-6 34.38 34.38 0 01.09-6 34.87 34.87 0 01.43 6 35.22 35.22 0 01-.08 6zm2.84 23.8a35.17 35.17 0 01-1.14-5.89 33.91 33.91 0 01-.63-6 35.45 35.45 0 011.14 5.89 33.76 33.76 0 01.63 6zm5.68 23.28a35.58 35.58 0 01-1.88-5.71 33.85 33.85 0 01-1.35-5.85 35.08 35.08 0 011.89 5.68 34.33 34.33 0 011.34 5.88zm8.44 22.43a34.79 34.79 0 01-2.52-5.44 35.46 35.46 0 01-2-5.65 34.67 34.67 0 012.52 5.45 34.8 34.8 0 012 5.64zm11.04 21.26a34.42 34.42 0 01-3.14-5.1 36 36 0 01-2.7-5.36 34.07 34.07 0 013.15 5.11 34 34 0 012.69 5.35zm13.48 19.82a35 35 0 01-3.72-4.7 34.59 34.59 0 01-3.31-5 35.22 35.22 0 013.73 4.7 33.77 33.77 0 013.3 5zm15.71 18.11a34 34 0 01-4.25-4.24 33.74 33.74 0 01-3.87-4.59 35.79 35.79 0 014.25 4.24 34.86 34.86 0 013.87 4.59zm17.68 16.17a34.77 34.77 0 01-4.7-3.72 33 33 0 01-4.37-4.11 35.45 35.45 0 014.71 3.72 35 35 0 014.36 4.11zm19.43 14.03a34.26 34.26 0 01-5.1-3.15 34.79 34.79 0 01-4.81-3.58 34.12 34.12 0 015.1 3.15 34.61 34.61 0 014.81 3.58zm20.91 11.72a34.64 34.64 0 01-5.43-2.55 34.32 34.32 0 01-5.19-3 36 36 0 015.43 2.55 34 34 0 015.19 3zm22.11 9.25a34.43 34.43 0 01-5.68-1.91 34.07 34.07 0 01-5.5-2.4 34.89 34.89 0 015.68 1.91 34 34 0 015.5 2.4zm23.02 6.67a34.61 34.61 0 01-5.86-1.25 35.2 35.2 0 01-5.74-1.76 34.4 34.4 0 015.87 1.25 33.8 33.8 0 015.73 1.76zm23.63 4a33.51 33.51 0 01-6-.57 33.89 33.89 0 01-5.9-1.1 35.28 35.28 0 016 .58 35.56 35.56 0 015.9 1.09zm23.93 1.34a35.61 35.61 0 01-6 .09 33.71 33.71 0 01-6-.43 35.89 35.89 0 016-.09 33.65 33.65 0 016 .43zm23.94-1.34a33 33 0 01-5.95.76 33.53 33.53 0 01-6 .24 35.78 35.78 0 016-.76 35.8 35.8 0 015.95-.24zm23.64-4.01a34.9 34.9 0 01-5.83 1.43 34.24 34.24 0 01-5.93.91 34.35 34.35 0 015.83-1.42 34.49 34.49 0 015.93-.92zm23.02-6.67a33.65 33.65 0 01-5.63 2.08 35 35 0 01-5.79 1.59 35.46 35.46 0 015.63-2.08 35.94 35.94 0 015.79-1.59zm22.14-9.25a34.29 34.29 0 01-5.35 2.71 33.42 33.42 0 01-5.57 2.23 70.57 70.57 0 0110.92-4.94zm20.88-11.72a34.57 34.57 0 01-5 3.31 33.85 33.85 0 01-5.28 2.85 36.22 36.22 0 015-3.3 35 35 0 015.28-2.86zm19.43-14.03a35.43 35.43 0 01-4.6 3.85 34.34 34.34 0 01-4.91 3.49 34.8 34.8 0 014.59-3.85 35.45 35.45 0 014.92-3.49zM407 402.49a33.68 33.68 0 01-4.12 4.35 34.85 34.85 0 01-4.49 4 69.68 69.68 0 018.61-8.34zm15.69-18.1a36.75 36.75 0 01-3.59 4.8 33.46 33.46 0 01-4 4.47 35.27 35.27 0 013.59-4.8 33.4 33.4 0 014-4.47zm13.48-19.82a70.94 70.94 0 01-6.45 10.11 67.29 67.29 0 016.45-10.11zm11.05-21.27a34.56 34.56 0 01-2.37 5.51 34 34 0 01-2.85 5.29 33.72 33.72 0 012.37-5.51 33.22 33.22 0 012.85-5.29zm8.43-22.43a34.64 34.64 0 01-1.69 5.75 35.73 35.73 0 01-2.19 5.59 67.72 67.72 0 013.88-11.34zm5.67-23.28a34 34 0 01-1 5.91 34.34 34.34 0 01-1.5 5.81 70.49 70.49 0 012.48-11.72zm2.85-23.8a34.83 34.83 0 01-.28 6 34.41 34.41 0 01-.79 6 35.35 35.35 0 01.27-6 34.38 34.38 0 01.8-6zm0-23.97a34.61 34.61 0 01.43 6 35.1 35.1 0 01-.08 6 35.43 35.43 0 01-.44-6 34.56 34.56 0 01.09-6zM461.32 226a34.54 34.54 0 011.15 5.89 35.1 35.1 0 01.63 6A34.81 34.81 0 01462 232a34.93 34.93 0 01-.68-6zm-5.68-23.26a33.47 33.47 0 011.85 5.71 34.57 34.57 0 011.34 5.84 34.84 34.84 0 01-1.84-5.71 36 36 0 01-1.35-5.84zm-8.43-22.44a35.2 35.2 0 012.52 5.45 33.75 33.75 0 012 5.64 34.8 34.8 0 01-2.51-5.44 34.71 34.71 0 01-2.01-5.65zM436.16 159a34.07 34.07 0 013.15 5.11 33.3 33.3 0 012.69 5.36 36.28 36.28 0 01-3.14-5.11 35.08 35.08 0 01-2.7-5.36zm-13.48-19.77a33 33 0 013.73 4.7 35.64 35.64 0 013.31 5 35 35 0 01-3.73-4.71 35 35 0 01-3.31-4.99zM407 121.12a34.81 34.81 0 014.25 4.24 35.62 35.62 0 013.85 4.64 34.94 34.94 0 01-4.25-4.24 34.86 34.86 0 01-3.85-4.64zM389.29 105a34.47 34.47 0 014.71 3.72 33.82 33.82 0 014.37 4.11 35 35 0 01-4.71-3.72 35.52 35.52 0 01-4.37-4.11zm-19.43-14.09a34.66 34.66 0 015.14 3.16 35.57 35.57 0 014.81 3.58 33.91 33.91 0 01-5.11-3.15 34.73 34.73 0 01-4.84-3.59zM349 79.2a34 34 0 015.44 2.55 34 34 0 015.19 3 35.78 35.78 0 01-5.44-2.55 35.22 35.22 0 01-5.19-3zM326.84 70a34 34 0 015.69 1.91 33.54 33.54 0 015.5 2.4 36 36 0 01-5.69-1.91 36.2 36.2 0 01-5.5-2.4zm-23.02-6.72a34.61 34.61 0 015.87 1.25 34.07 34.07 0 015.74 1.76 35.6 35.6 0 01-5.87-1.29 34.84 34.84 0 01-5.74-1.72zm-23.62-4.01a35.43 35.43 0 016 .58 35 35 0 015.9 1.09 33.38 33.38 0 01-6-.57 33.28 33.28 0 01-5.9-1.1zm-23.94-1.33a35.67 35.67 0 016-.09 35.27 35.27 0 016 .42 33.87 33.87 0 01-6 .1 33.71 33.71 0 01-6-.43zm-23.94 1.33a35 35 0 016-.75 35.25 35.25 0 016-.25 33.22 33.22 0 01-6 .76 33.52 33.52 0 01-6 .24zm-23.63 4.02a34.9 34.9 0 015.83-1.43 33.12 33.12 0 015.93-.91 35 35 0 01-5.83 1.42 34.63 34.63 0 01-5.93.92zM185.67 70a35.42 35.42 0 015.62-2.07 34.13 34.13 0 015.79-1.59 34.54 34.54 0 01-5.63 2.08 34.11 34.11 0 01-5.78 1.58zm-22.12 9.21a35.3 35.3 0 015.36-2.71 34.77 34.77 0 015.57-2.24 33.79 33.79 0 01-5.36 2.74 34 34 0 01-5.57 2.21zm-20.9 11.72a34.57 34.57 0 015-3.31 34 34 0 015.27-2.85 35.47 35.47 0 01-5 3.3 35.21 35.21 0 01-5.27 2.86zM123.22 105a34.52 34.52 0 014.6-3.85 36 36 0 014.91-3.45 34 34 0 01-4.6 3.86 35.05 35.05 0 01-4.91 3.44zm-17.69 16.13a35.59 35.59 0 014.13-4.36 35.38 35.38 0 014.48-4 34.31 34.31 0 01-4.12 4.36 33.69 33.69 0 01-4.49 4zm-15.69 18.1a35 35 0 013.59-4.8 36.12 36.12 0 014-4.48 34.3 34.3 0 01-3.59 4.81 34.61 34.61 0 01-4 4.47zm-13.48 19.82a34 34 0 013-5.19 34.93 34.93 0 013.45-4.92 34.93 34.93 0 01-3 5.2 36.17 36.17 0 01-3.45 4.91zm-11.05 21.27a34.56 34.56 0 012.37-5.51 34 34 0 012.84-5.29 35.25 35.25 0 01-2.37 5.48 35.24 35.24 0 01-2.84 5.32zm-8.43 22.43a34.35 34.35 0 011.69-5.75 33.54 33.54 0 012.19-5.59 35.87 35.87 0 01-1.7 5.76 35.13 35.13 0 01-2.18 5.58zM51.2 226a34.84 34.84 0 011-5.92 34.38 34.38 0 011.5-5.8 34.35 34.35 0 01-1 5.91 33.88 33.88 0 01-1.5 5.81zm-2.84 23.83a35.5 35.5 0 01.27-6 33.76 33.76 0 01.8-5.94 34.81 34.81 0 01-.28 6 35.21 35.21 0 01-.79 5.94zm230.78 12.54s0-.42.05-1.24.05-2.05.23-3.64a74.91 74.91 0 012.58-13.77 77 77 0 013.42-9.54 73.39 73.39 0 015.58-10.65 77.45 77.45 0 0120.13-21.21 75.52 75.52 0 0114.93-8.32 74.36 74.36 0 0117.82-5 77.63 77.63 0 0130.05 1.27 80 80 0 0110.17 3.25 76.91 76.91 0 0134.84 27.87 75.58 75.58 0 015.94 10.27c.89 1.79 1.64 3.65 2.41 5.51s1.39 3.79 1.94 5.74a77.5 77.5 0 013.16 24.35 82.8 82.8 0 01-1.4 12.33 74.43 74.43 0 01-3.3 11.78c-.68 1.92-1.5 3.76-2.3 5.61s-1.75 3.62-2.75 5.35a75.68 75.68 0 01-6.59 9.87 76.92 76.92 0 01-36.55 25.61 80.87 80.87 0 01-10.36 2.59 78 78 0 01-30.08-.64 76.57 76.57 0 01-31.81-15.41 77.24 77.24 0 01-18.73-22.45 72.94 72.94 0 01-5-11 74.6 74.6 0 01-2.8-9.73 75.67 75.67 0 01-1.65-13.91c-.08-1.6 0-2.82 0-3.64v-1.24 4.88a77.11 77.11 0 001.93 13.86 75 75 0 002.83 9.69 73.63 73.63 0 005 10.93A77.35 77.35 0 00307.48 324a74.92 74.92 0 0014.31 9.18 74.15 74.15 0 0017.37 6.09 77.72 77.72 0 0029.9.61 81.07 81.07 0 0010.29-2.58 76.55 76.55 0 0042.84-35.28c1-1.72 1.85-3.52 2.73-5.32s1.61-3.66 2.28-5.56a74.92 74.92 0 003.28-11.71 83.08 83.08 0 001.39-12.24 77 77 0 00-3.14-24.19c-.54-1.94-1.25-3.82-1.92-5.7s-1.51-3.7-2.39-5.47a74.08 74.08 0 00-5.9-10.21 76.46 76.46 0 00-34.6-27.72 80.53 80.53 0 00-10.1-3.23 75.71 75.71 0 00-10.17-1.67 76.51 76.51 0 00-19.71.45 76.35 76.35 0 00-32.58 13.22 77.38 77.38 0 00-20.1 21.07 74.49 74.49 0 00-5.66 10.59 75.38 75.38 0 00-3.45 9.49 77.38 77.38 0 00-2.63 13.73c-.19 1.59-.2 2.81-.28 3.63s-.1 1.19-.1 1.19z" fill="#263238"/>
  <circle cx="356.68" cy="266.13" r="63.16" transform="rotate(-45 356.683 266.127)" fill="#fafafa"/>
  <path d="M293.56 264.11s0-1.39.22-4a61.89 61.89 0 012.08-11.37 63.15 63.15 0 017.48-16.67A64.09 64.09 0 01320 214.53a63.35 63.35 0 0127-11 63.17 63.17 0 0116.36-.4 62.49 62.49 0 018.45 1.45 65.47 65.47 0 018.4 2.68 63.45 63.45 0 0128.78 23 60.15 60.15 0 014.9 8.48 58.17 58.17 0 013.59 9.29 63.35 63.35 0 01-1.27 40 59 59 0 01-4.21 9.07 63.6 63.6 0 01-35.63 29.3 67.59 67.59 0 01-8.55 2.13 62.41 62.41 0 01-8.53.91A63.36 63.36 0 01343 328a63.29 63.29 0 01-26.27-12.73 63.21 63.21 0 01-21.86-35.65 61.55 61.55 0 01-1.35-11.47v-4 4A63.2 63.2 0 00317 315a63.06 63.06 0 0026.12 12.59 63 63 0 0016.2 1.4 61.55 61.55 0 008.47-.91 66.58 66.58 0 008.48-2.13A63 63 0 00417 248.17a59.89 59.89 0 00-3.56-9.21A63 63 0 00380 207.68a68.39 68.39 0 00-8.34-2.67 64 64 0 00-24.66-1.08 63.15 63.15 0 00-26.88 10.9 64 64 0 00-16.58 17.38 63.1 63.1 0 00-9.7 27.89c-.16 1.31-.17 2.32-.24 3s-.04 1.01-.04 1.01zm42.49-99.66a7.41 7.41 0 00-4.68-6 6.93 6.93 0 00-7.31 1.76 6.53 6.53 0 00-.86 7.42 7.48 7.48 0 005.43 3.46 12.36 12.36 0 006.5-1" fill="#263238"/>
  <path d="M350.36 176.31a32.25 32.25 0 013.13 15.6c-.44 5.34-2.89 10.66-7.24 13.79a4 4 0 01-2.84 1c-1-.16-1.89-1.33-1.39-2.23a13.18 13.18 0 01-3.65 3.9 2.44 2.44 0 01-1.64.59 1.82 1.82 0 01-1.36-1.91 5.26 5.26 0 01.9-2.38c-1-.09-2 .61-2.9 1.07s-2.31.56-2.83-.35.08-1.81.61-2.58c2.4-3.52 4.84-7.24 5.36-11.48.36-3-.27-6.13.45-9.08a10.37 10.37 0 017.47-7.45c2.08-.49 4.55-.18 5.86 1.49m21.88 24.49c2.14-2.73 6.09-3.53 7.82-6.54 3.05-5.29 2.83-10.28 2.82-16.4 0-4.18.59-10.1-1.87-13.48-1.73-2.39-3-3.85-4.5-6.36-1.69-2.76-3.43-6-1.62-8.71" fill="#263238"/>
  <path d="M371.34 200.82a6 6 0 017.16-.94l-3.66-51.25c2.33-.24 7.66 3.05 9.14 4.86a21.5 21.5 0 013.15 6.23c3.35 9 .48 19.62-3.81 27.55 2.48 6.9 2.37 13.28-1.84 17.2l-.07.06-.6.57A5.78 5.78 0 00379 210v.07a5.83 5.83 0 01.08 1.61 1.55 1.55 0 01-.91 1.24c-.82.28-1.65-.48-2-1.29a9.58 9.58 0 00-1-2.41 26.17 26.17 0 00-1.41 2.86c-.56.91-1.83 1.59-2.68.95a2.49 2.49 0 01-.7-1.13 15.67 15.67 0 01-1.21-5.75 7.66 7.66 0 012.17-5.33z" fill="#263238"/>
  <path d="M344.67 169.77l.23 44.41a13.21 13.21 0 0013.93 13.12 12.8 12.8 0 0012.08-13.2c0-3.34.17-7.29.19-7.63 0 0 11.19-2.14 11.95-13.34.37-5.41.53-14.51.27-24.64a20.89 20.89 0 00-19.74-20.33l-1.08-.06c-11.69.03-18.19 9.98-17.83 21.67z" fill="#ffd5be"/>
  <path d="M371.15 206.53a26.15 26.15 0 01-14.38-5s3 8.25 14.24 7.86z" fill="#ffb194"/>
  <path d="M377.3 176.93a1.59 1.59 0 01-1.63 1.53 1.54 1.54 0 01-1.57-1.53 1.61 1.61 0 011.63-1.53 1.53 1.53 0 011.57 1.53zm2.88-3.51c-.18.15-1.43-.12-3.13.18s-2.88 1-3.08.9.08-.27.6-.58a7.5 7.5 0 012.45-.87 6.63 6.63 0 012.51 0c.54.13.74.31.65.37zM360 175.79a1.61 1.61 0 01-1.63 1.53 1.53 1.53 0 01-1.57-1.53 1.59 1.59 0 011.63-1.53 1.54 1.54 0 011.57 1.53zm3.45-1.29c-.23 0-1.17-.83-2.78-1.43s-3-.62-3.12-.79.21-.2.81-.2a7.29 7.29 0 012.55.5 6.66 6.66 0 012.16 1.27c.41.39.49.64.38.65zm5.77 11.85A10.81 10.81 0 01372 186c.44 0 .86-.09.95-.38a2.2 2.2 0 00-.22-1.32q-.52-1.63-1.11-3.42c-1.5-4.88-2.62-8.88-2.4-8.88s1.61 3.83 3.15 8.7l1.06 3.44a2.52 2.52 0 01.13 1.73 1.1 1.1 0 01-.76.61 2.9 2.9 0 01-.75.06 11.6 11.6 0 01-2.83-.19zm-5.14.91c.28 0 .19 1.86 1.71 3.28s3.53 1.32 3.53 1.58-.47.34-1.31.31a4.61 4.61 0 01-2.95-1.21 4.07 4.07 0 01-1.31-2.75c-.03-.78.25-1.23.33-1.21zm-.43-19.54c-.19.46-1.9.14-3.93.27s-3.7.6-3.94.16c-.11-.21.2-.63.88-1.05a6.92 6.92 0 016-.33c.72.34 1.08.73.99.95zm16.61 1.11c-.33.38-1.49-.09-2.92-.19s-2.64.12-2.9-.31c-.11-.2.1-.59.65-.93a4.22 4.22 0 014.69.41c.48.43.62.84.48 1.02z" fill="#263238"/>
  <path d="M327.68 185c.42-2.13.7-4.28 1-6.43.51-3.74 8.89-17 8.89-17 2.7-5.25 5.86-10.36 10.26-14.23s10.2-6.39 16-5.74 11.28 4.93 12.41 10.74l-.93-1.49c.15 2.05-2.07 3.53-4.09 3.62s-4-.68-6-.8c-3.92-.25-7.7 2.08-10.06 5.29s-3.47 7.2-4.09 11.16-.79 8-1.51 11.92c-.76 4.22-3.21 5.61-6.48 8.31a62.69 62.69 0 00-8.58 8.66 5.51 5.51 0 01-4.47 1.74c-1.25-.32-1.54-2.21-1.68-3.52-.12-1.47.83-2.85 1-4.82a4.15 4.15 0 01-2-3.33 14 14 0 01.33-4.08z" fill="#263238"/>
  <path d="M346 180.63c-.18-.09-7.57-2.7-7.75 5s7.56 6.27 7.58 6.05.17-11.05.17-11.05z" fill="#ffd5be"/>
  <path d="M343.59 188.69s-.14.09-.37.19a1.37 1.37 0 01-1 0c-.8-.31-1.45-1.62-1.46-3a4.42 4.42 0 01.42-1.9 1.57 1.57 0 011-1 .69.69 0 01.78.39c.1.22 0 .37.08.38s.17-.12.12-.44a.91.91 0 00-.29-.49 1 1 0 00-.74-.21 1.89 1.89 0 00-1.42 1.16 4.43 4.43 0 00-.51 2.12c0 1.55.77 3 1.87 3.36a1.45 1.45 0 001.22-.17c.28-.21.32-.38.3-.39z" fill="#ffb194"/>
  <path d="M335.52 165.18a15.8 15.8 0 004.61-.38 19.42 19.42 0 004.63-1.93 51.06 51.06 0 005.17-3.42 55.74 55.74 0 015.19-3.5 20.15 20.15 0 014.7-2 11.66 11.66 0 013.43-.45 6.19 6.19 0 01.94.08c.21 0 .32 0 .32.07a16.89 16.89 0 00-4.58.65 21 21 0 00-4.57 2.1 61.8 61.8 0 00-5.12 3.5 47.13 47.13 0 01-5.25 3.42 18.5 18.5 0 01-4.78 1.86 10.85 10.85 0 01-3.45.26 4.85 4.85 0 01-.93-.14c-.21-.07-.32-.1-.31-.12zm-1.98 3.04c0-.09 1.12.29 2.93.55a19.48 19.48 0 007.11-.34 19.24 19.24 0 003.69-1.32 18.12 18.12 0 002.75-1.65c1.48-1.09 2.24-2 2.31-1.9s-.14.26-.48.66a12.83 12.83 0 01-1.6 1.53 15.52 15.52 0 01-2.76 1.79 18.18 18.18 0 01-3.79 1.4 17.49 17.49 0 01-7.29.19 12.07 12.07 0 01-2.13-.58 2.55 2.55 0 01-.74-.33z" fill="#455a64"/>
  <path d="M336.33 163.77a29.61 29.61 0 01-2.2 3.83 31.46 31.46 0 01-2.3 3.77 13.74 13.74 0 011.85-4 13.91 13.91 0 012.65-3.6z" fill="#34a37e"/>
  <path d="M388.78 165.64a6.18 6.18 0 01-6.23-2.16c.11-.12 1.24.9 3 1.49a26.77 26.77 0 003.23.67zm-.17 3.57a3.49 3.49 0 01-2.57.72 3.57 3.57 0 01-2.54-.82c.06-.14 1.15.28 2.55.3s2.5-.34 2.56-.2z" fill="#455a64"/>
  <path d="M404.28 268.73l-19 15.36.81 5.29 4.09 12.14s4.95.64 11.45-7.34 14.24-23.33 14.24-23.33z" fill="#ffd5be"/>
  <path d="M440.44 233.18a1.89 1.89 0 00-1.59-1l-11.28-.47a3.47 3.47 0 00-2.63 1.09l-29.21 31 1.58 1.3 12.24 1.81 31.16-33.27z" fill="#263238"/>
  <path d="M431.82 236.33a.79.79 0 001.2-1 .8.8 0 00-1.2 1z" fill="#fff"/>
  <path d="M440.71 233.67a15.9 15.9 0 01-2.21 0l-6-.15-4.14-.13a2.33 2.33 0 00-1.88.69l-1.67 1.79-7.46 7.94c-5.31 5.63-10.15 10.7-13.67 14.34l-4.2 4.29a13 13 0 01-1.61 1.52 13.57 13.57 0 011.42-1.69l4-4.44c3.44-3.73 8.22-8.85 13.53-14.48l7.5-7.91 1.7-1.77a2.84 2.84 0 012.31-.84l4.14.22 6 .36a12.84 12.84 0 012.24.26z" fill="#455a64"/>
  <path d="M426.22 244s-1-.36-2 2.23-4.14 10-4.14 10l-4.65-3.66-6.59-.33s-1.63 1.05-.73 1.94 4.84 2.35 4.84 2.35l2.22 4.85-7.86-5.7s-3 .23-2.48 2.13 5.33 8.44 5.33 8.44l-4.25-1.11-4.56-4s-1.59-.21-1.24 1.24 4.8 7.25 4.8 7.25l5.9 4.3s3.58.36 4.1-.61a12.17 12.17 0 00.88-2.44s2-.17 2.48-1a5.61 5.61 0 00.55-2.32s2.85 1.05 3.51-.53a18.91 18.91 0 00.87-6.17c-.07-1.31 3.6-12.76 3.54-13.13s1.47-4.15-.52-3.73z" fill="#ffd5be"/>
  <path d="M415.17 273.34a3.68 3.68 0 01-1.78.22 11.58 11.58 0 01-7.81-3.41c-.77-.81-1.11-1.41-1.05-1.46s1.88 2 4.9 3.29 5.74 1.15 5.74 1.36zm-1.12-2.6c-.12.14-1.16-.67-2.2-1.9s-1.68-2.37-1.53-2.48 1 .85 2 2.05 1.87 2.2 1.73 2.33zm4.41-4.96c-.12.13-1.15-.66-2.11-1.93s-1.43-2.48-1.27-2.56.88.93 1.81 2.15 1.71 2.2 1.57 2.34zm4.39-3.85c-.19 0-.62-1.29-1.4-2.79s-1.61-2.64-1.47-2.77 1.24.85 2.06 2.46.96 3.07.81 3.1z" fill="#ffb194"/>
  <path d="M394.26 309.86c-4.34-6.45-8.22-20.48-8.22-20.48s-1.69-12.85-3.8-17.64-1.52-6.75-1.52-6.75 1.77-12.74.59-19.15-4.17-21.22-9.43-27.57l-27.66-8.62s-15 7.11-16.35 8.7-11 9.57-11.2 21.22c-.14 7.28 5.3 33.74 5.3 33.74L328 323s20 9.32 39.19 5.34 30.21-13.72 30.21-13.72z" fill="#34a37e"/>
  <path d="M386.25 289.39a3.25 3.25 0 00-.05-.69c-.05-.45-.14-1.11-.26-2-.26-1.7-.65-4.16-1.32-7.18a82.26 82.26 0 00-3.06-10.42 13.51 13.51 0 01-.78-6.18c.16-2.19.6-4.44.8-6.8a62.68 62.68 0 00-2.83-23.83 57.36 57.36 0 00-2.68-6.84c-.35-.79-.68-1.39-.89-1.8a2.91 2.91 0 00-.35-.6 3.13 3.13 0 00.25.65c.17.42.46 1 .78 1.83a69 69 0 012.49 6.87 64.94 64.94 0 012.65 23.71c-.2 2.31-.64 4.57-.79 6.8a13.84 13.84 0 00.84 6.38 91.79 91.79 0 013.17 10.34c.72 3 1.17 5.45 1.49 7.14.15.8.27 1.44.37 2a3 3 0 00.17.62z" fill="#263238"/>
  <path d="M377.65 240.17a63.72 63.72 0 01.75 21.07 53.14 53.14 0 00-13 3.59q-.28-10.8-.55-21.61a1.67 1.67 0 01.35-1.33 1.7 1.7 0 01.94-.31l11.72-1.37" fill="#263238"/>
  <path d="M383.07 276q-28.1 8.28-55.29 19.27l-.93 16.55c.84 2.4 3.51 3.78 6.06 3.86a17.31 17.31 0 007.33-1.9 124.33 124.33 0 0037-24.82c3.55-3.44 7.19-8.13 5.83-12.96z" opacity=".3"/>
  <path d="M335.14 219.4a7.11 7.11 0 00-9.48.21c-4.9 4.6-12.06 12.36-12.48 18.83-.63 9.9-3.07 36.06-3.07 36.06l36.49-.11s1.11-34.85-1.83-42.94c-1.66-4.58-6.09-9.04-9.63-12.05z" fill="#34a37e"/>
  <path d="M314.48 274.9s.21 20.16 3.54 29.05c3.46 9.18 8.12 8.51 12.11 8.34s62.52-39.88 62.52-39.88l-8.31-11.48-45.26 19.45-.37-5.62z" fill="#ffd5be"/>
  <path d="M384 261.34l9.63-15.34 9.88-3.5 12.52-.05a2.54 2.54 0 01-1.16 3l4.35-.24a2.47 2.47 0 01-1.22 3.39l3.15.2a4.46 4.46 0 01-4.53 3.09 68 68 0 00-9.22.43l-5.68 4 9-1.4 6.69.49s1.06 1.57-.38 2.14-7.17.82-7.17.82l-8.4 3.24s-1.22 5.77-2.2 7.14-7 3.67-7 3.67z" fill="#ffd5be"/>
  <path d="M419.22 245.21a17.37 17.37 0 01-3.38.25c-2.08.08-5 .13-8.15.15h-3.06.13c-2.27.93-4.24 1.71-5.65 2.24a10.49 10.49 0 01-2.3.74 9.47 9.47 0 012.14-1.12c1.37-.64 3.3-1.49 5.56-2.46h3.18c3.18 0 6.06 0 8.15.05a16.27 16.27 0 013.38.15zm1.16 3.54a14.16 14.16 0 01-3.07.14c-1.89 0-4.51 0-7.4-.14l-2.87-.1h.16c-3.88 2-6.76 3.45-6.83 3.31s2.68-1.76 6.52-3.88h.17l2.87.08c2.89.09 5.5.21 7.39.33a14.68 14.68 0 013.06.26z" fill="#ffb194"/>
  <path d="M392.26 272.45a7.17 7.17 0 01.95-.45c.63-.28 1.57-.69 2.75-1.28.59-.29 1.24-.63 1.92-1.05a8.49 8.49 0 001-.73 3.06 3.06 0 00.65-1.12 44.55 44.55 0 001.68-6.23v-.11l.11-.05 8.38-3.28h.09c1.48-.07 3.05-.18 4.66-.37a12.46 12.46 0 002.39-.44.79.79 0 00.59-.68 1.9 1.9 0 00-.33-1l.23.13-6.7-.47h.07l-9 1.41-1.38.22 1.14-.81 5.68-4h.15c2.29-.24 4.72-.43 7.19-.47.68 0 1.37 0 2.05.05a4.67 4.67 0 001.83-.26 4.29 4.29 0 002.4-2.6l.3.43-3.15-.19-1.16-.08 1-.55a2.52 2.52 0 001.22-1.26 2.25 2.25 0 00-.11-1.69l.31.17-4.36.24-1.19.07 1-.66a2.49 2.49 0 001-1.16 2.13 2.13 0 000-1.47l.3.2H403.4h.09l-9.89 3.46.12-.09-7.15 11.18-2 3-.53.77c-.12.17-.18.26-.19.25a1.27 1.27 0 01.14-.29l.47-.8 1.85-3.08c1.67-2.71 4.05-6.55 7-11.3l.05-.07h.08l9.85-3.55h.09l12.52-.09h.23l.07.2a2.84 2.84 0 010 1.93 3.21 3.21 0 01-1.25 1.47l-.19-.59 4.35-.25h.22l.09.18a2.9 2.9 0 01.15 2.22 3.23 3.23 0 01-1.52 1.63l-.14-.63 3.15.19h.45l-.15.4a5 5 0 01-2.8 3 5.25 5.25 0 01-2.11.3h-2c-2.44 0-4.86.22-7.12.46l.15-.06-5.68 4-.24-.59 9-1.38h.07l6.69.51h.16l.07.12a2.46 2.46 0 01.41 1.42 1.39 1.39 0 01-1 1.17 12.66 12.66 0 01-2.53.46c-1.64.18-3.21.27-4.71.34h.08l-8.41 3.2.13-.16a42.51 42.51 0 01-1.8 6.27 3.28 3.28 0 01-.75 1.22 6.36 6.36 0 01-1.06.74c-.7.42-1.37.74-2 1-1.2.55-2.15.93-2.8 1.18l-.74.26a.72.72 0 01-.11-.06z" fill="#ffb194"/>
  <path d="M309.49 274.48a2.45 2.45 0 01.61-.06l1.77-.05 6.6-.11 22.63-.14-.33.3c.19-3.16.24-6.54.17-10-.1-5.74-.43-11.22-.59-16.2-.09-2.5-.09-4.87-.22-7.07a41.28 41.28 0 00-.74-6.08 23 23 0 00-3.27-8.17c-1.18-1.74-2.06-2.52-2-2.56a3.15 3.15 0 01.64.55 14.22 14.22 0 011.58 1.86 22.08 22.08 0 013.52 8.22 40.47 40.47 0 01.84 6.14c.16 2.23.17 4.6.28 7.08.2 5 .54 10.45.65 16.22.07 3.49 0 6.89-.19 10.07v.31h-.31l-22.63-.09-6.6-.09h-1.77a2.45 2.45 0 01-.64-.13zM161.51 107.81s.91-1.2 2.78-3.4a82.78 82.78 0 019-8.83A78.49 78.49 0 01190 84.78a71.85 71.85 0 0125.41-6.89 66.29 66.29 0 0115.36.64 59.71 59.71 0 0115.89 5 57.81 57.81 0 0126.11 25.16c6.11 11.48 8.54 25.53 6.77 39.54a81.64 81.64 0 01-51.74 65.31c-13.24 4.93-27.47 5.77-40.05 2.45a57.82 57.82 0 01-30.47-19.66 60.32 60.32 0 01-8.44-14.33 65.82 65.82 0 01-4.13-14.81 71.44 71.44 0 01.9-26.31 77.69 77.69 0 016.69-18.76 82.37 82.37 0 016.53-10.78c1.71-2.32 2.68-3.49 2.68-3.49l-.66.91c-.42.6-1.11 1.46-1.93 2.64a84.92 84.92 0 00-6.44 10.81 78.15 78.15 0 00-6.58 18.73 71.35 71.35 0 00-.83 26.19 65.31 65.31 0 004.14 14.71 60 60 0 008.44 14.16 57.46 57.46 0 0030.25 19.5c12.48 3.28 26.6 2.43 39.75-2.47a81.25 81.25 0 0051.42-64.89c1.76-13.92-.65-27.86-6.7-39.26a57.45 57.45 0 00-25.86-25 59.61 59.61 0 00-15.78-5 66 66 0 00-15.26-.66 71.38 71.38 0 00-25.32 6.79 78.41 78.41 0 00-16.73 10.69 85.18 85.18 0 00-9 8.74c-1 1.07-1.64 1.93-2.13 2.49z" fill="#263238"/>
  <ellipse cx="209.62" cy="143.19" rx="60.61" ry="53.34" transform="rotate(-51.61 209.611 143.187)" fill="#fff"/>
  <path d="M167.82 110.07s.75-1 2.3-2.83a68.56 68.56 0 017.45-7.32 64.69 64.69 0 0113.86-9 59.48 59.48 0 0121.06-5.72 54.44 54.44 0 0112.72.53 49.68 49.68 0 0113.18 4.11A48 48 0 01260 110.75a55.54 55.54 0 015.61 32.78 67.63 67.63 0 01-42.88 54.12 55.46 55.46 0 01-33.2 2 47.92 47.92 0 01-25.25-16.3 49.91 49.91 0 01-7-11.89 55 55 0 01-3.41-12.27 59.29 59.29 0 01.75-21.8 65 65 0 015.55-15.55 68.56 68.56 0 015.43-8.84c1.42-1.92 2.22-2.88 2.22-2.88l-.54.75c-.35.5-.92 1.21-1.6 2.19a71.8 71.8 0 00-5.32 8.95 65.24 65.24 0 00-5.45 15.52 59.22 59.22 0 00-.67 21.68 54.77 54.77 0 003.42 12.18 50.05 50.05 0 007 11.77 47.57 47.57 0 0025 16.11 55.19 55.19 0 0032.9-2 67.27 67.27 0 0042.56-53.72 55.14 55.14 0 00-5.51-32.55 47.59 47.59 0 00-21.41-20.72 49.45 49.45 0 00-13-4.11 54.32 54.32 0 00-12.64-.55 59.32 59.32 0 00-20.95 5.61 65.22 65.22 0 00-13.86 8.85 71 71 0 00-7.5 7.23c-.8.88-1.36 1.6-1.77 2.06z" fill="#263238"/>
  <path d="M174.06 41a5.84 5.84 0 00-10.47.91 10.42 10.42 0 01-1 2.57c-1.49 2-5.19 1.43-6.39 3.64s1.67 5.16 1 7.74c-.57 2.06-3.22 3-3.82 5-.8 2.72 2.47 5.41 1.69 8.13-.68 2.34-4 3.21-4.5 5.58-.57 2.63 2.66 4.77 2.61 7.46-.07 3.44-5.32 5.33-4.84 8.74.27 1.88 2.27 3.14 2.61 5 .63 3.52-4.82 6-4.17 9.49.22 1.65 1.82 2.74 3.22 3.74s2.75 2.43 2.48 4.09-2.2 2.65-3.24 4.07c-1.61 2.18.94 7.84 3.42 8.93l10.3-7.7s-2.95-2.46-.64-4.72.82-3.27.73-5c0 0 2.3 1.93 1.45 4a5 5 0 00.54 4.8l15.71-7 1.69-14.91z" fill="#263238"/>
  <path d="M151.14 110.35a4 4 0 01-1 .05 6.32 6.32 0 01-2.74-.82 6.2 6.2 0 01-2.85-3.47 6.33 6.33 0 01-.29-2.84 8.79 8.79 0 011.05-3c.52-1 1.16-2 1.64-3.07a6.26 6.26 0 00.6-3.58c-.22-1.26-1.18-2.27-1.94-3.45a3.55 3.55 0 01-.68-2.08 2.53 2.53 0 011.16-1.92 15.27 15.27 0 012-1.09 3.79 3.79 0 001.64-1.39 2.72 2.72 0 00.15-2.12 6.75 6.75 0 00-1-2.06c-.45-.64-1-1.27-1.41-2a5.46 5.46 0 01-.93-2.35 3.42 3.42 0 01.77-2.45 10.32 10.32 0 011.88-1.71 12 12 0 001.93-1.57 3.11 3.11 0 00.94-2.09 5.09 5.09 0 00-.66-2.25c-.36-.71-.8-1.4-1.15-2.13a4.38 4.38 0 01-.53-2.39 3.06 3.06 0 01.36-1.18 5.78 5.78 0 01.73-1c1.1-1.11 2.49-1.87 3.08-3.17a3.61 3.61 0 00.25-2 9.9 9.9 0 00-.52-2 9.08 9.08 0 01-.76-4 3.1 3.1 0 01.85-1.8 3.78 3.78 0 011.65-1c1.19-.36 2.37-.41 3.43-.66a4 4 0 002.56-1.57c.55-.81.84-1.73 1.38-2.46a5.8 5.8 0 016.7-1.93 5 5 0 01.67.34l.21.14s-.3-.18-.91-.41a5.71 5.71 0 00-2.79-.25 5.47 5.47 0 00-3.7 2.23c-.51.71-.79 1.62-1.36 2.48a4.13 4.13 0 01-2.69 1.69c-1.1.28-2.27.33-3.41.68a3.5 3.5 0 00-1.52.89 2.78 2.78 0 00-.75 1.62 8.75 8.75 0 00.77 3.87 11.53 11.53 0 01.54 2.08 4.06 4.06 0 01-.27 2.22c-.67 1.45-2.11 2.21-3.14 3.28a4.36 4.36 0 00-.67.88 2.74 2.74 0 00-.32 1 4.12 4.12 0 00.5 2.19c.34.7.77 1.38 1.15 2.12a5.41 5.41 0 01.71 2.42 3.66 3.66 0 01-1 2.36 13.23 13.23 0 01-2 1.61 10.07 10.07 0 00-1.89 1.76 3.06 3.06 0 00-.7 2.18 5.27 5.27 0 00.87 2.18c.43.68.94 1.29 1.41 2a7.38 7.38 0 011.07 2.18 3.09 3.09 0 01-.19 2.4 4.12 4.12 0 01-1.79 1.53 16.06 16.06 0 00-1.93 1.06 2.17 2.17 0 00-1 1.66 3.18 3.18 0 00.6 1.81c.72 1.14 1.72 2.19 2 3.57a6.52 6.52 0 01-.64 3.76c-.5 1.13-1.15 2.1-1.66 3.08a8.76 8.76 0 00-1.06 2.92 6.36 6.36 0 00.25 2.74 6.14 6.14 0 002.72 3.41 6.7 6.7 0 002.68.87c.61.02.95-.02.95 0z" fill="#263238"/>
  <path d="M151.62 121.63a1.21 1.21 0 01-.21-.15 1.11 1.11 0 01-.32-.69 2 2 0 01.27-1.2 2.41 2.41 0 011.35-1c.6-.22 1.31-.3 2-.48a3.07 3.07 0 002-1.26 1.47 1.47 0 00.07-1.25 5.51 5.51 0 00-.74-1.23 3.18 3.18 0 01-.65-1.47 2.72 2.72 0 01.41-1.64c.27-.51.61-1 .91-1.48a3.11 3.11 0 00.53-1.6 2.42 2.42 0 00-.75-1.56c-.42-.46-.93-.87-1.38-1.38a2.29 2.29 0 01-.69-2 1.82 1.82 0 01.51-1 3.74 3.74 0 01.9-.63c.65-.32 1.33-.55 2-.83a3.93 3.93 0 001.69-1.21 2.42 2.42 0 00.31-2 14.13 14.13 0 00-.79-2.13 9 9 0 01-.73-2.29 4.77 4.77 0 01.41-2.44c.64-1.51 1.74-2.82 2.08-4.4a3.66 3.66 0 00-.31-2.34 24.7 24.7 0 00-1.26-2.2 5.34 5.34 0 01-.89-2.47 3.8 3.8 0 01.88-2.44c.51-.69 1.11-1.27 1.62-1.9a4.08 4.08 0 001-2.06 3.72 3.72 0 00-.55-2.18c-.37-.68-.83-1.32-1.22-2a4.33 4.33 0 01-.66-2.28 4.55 4.55 0 01.78-2.18c.4-.64.83-1.23 1.14-1.86a2.91 2.91 0 00.29-2c-.29-1.32-1.32-2.38-1.57-3.76a2.62 2.62 0 01.43-2 9.68 9.68 0 011.28-1.41 6.49 6.49 0 001.16-1.23 3.49 3.49 0 00.43-1.58c0-1.1-.21-2.16-.14-3.2a6 6 0 01.87-2.75 5.71 5.71 0 013.67-2.64 6 6 0 012.9.08 4.07 4.07 0 01.93.39s-.32-.15-1-.31a5.9 5.9 0 00-2.84 0 5.58 5.58 0 00-3.53 2.6 5.85 5.85 0 00-.81 2.65c0 1 .2 2 .17 3.2a3.71 3.71 0 01-.45 1.72 6.59 6.59 0 01-1.18 1.4 8.81 8.81 0 00-1.23 1.37 2.33 2.33 0 00-.38 1.74c.22 1.26 1.25 2.3 1.6 3.75a3.34 3.34 0 01-.32 2.19c-.32.67-.76 1.27-1.14 1.9a4.16 4.16 0 00-.73 2 4 4 0 00.63 2.08c.37.67.83 1.31 1.22 2a4 4 0 01.59 2.41 4.41 4.41 0 01-1.1 2.26c-.53.64-1.13 1.22-1.61 1.88a3.47 3.47 0 00-.81 2.2 5.15 5.15 0 00.84 2.29 23.08 23.08 0 011.28 2.23 4.14 4.14 0 01.34 2.57c-.38 1.73-1.5 3-2.11 4.48a4.28 4.28 0 00-.38 2.24 8.38 8.38 0 00.69 2.2 13.62 13.62 0 01.8 2.19 2.79 2.79 0 01-.36 2.3 4.34 4.34 0 01-1.85 1.32c-.67.29-1.35.51-2 .82a1.78 1.78 0 00-.63 3.06c.42.48.93.89 1.37 1.38a2.74 2.74 0 01.82 1.76 3.31 3.31 0 01-.59 1.76c-.31.51-.65 1-.91 1.46a2.48 2.48 0 00-.39 1.49 2.78 2.78 0 00.59 1.35 6 6 0 01.76 1.29 1.7 1.7 0 01-.1 1.43 3.18 3.18 0 01-2.11 1.34c-.76.17-1.45.24-2 .44a2.27 2.27 0 00-1.3.92 1.94 1.94 0 00-.3 1.13 1.27 1.27 0 00.5.84z" fill="#455a64"/>
  <path d="M170 189.06c4.67 5 19.84 10.47 19.84 10.47l-6.8-11.38-8.41-38.15-5.58-35.9c-.46.57-14 9.19-16 14.74s1.43 31.19 2 35.11A48.93 48.93 0 00170 189.06z" fill="#34a37e"/>
  <path d="M177.21 101.72l-1.06 6.67-10 8a114.52 114.52 0 00-.15 30.41s14.62 39.64 15 41.37c.66 3.21 8.87 11.36 8.87 11.36s11.13 3.89 28.19-.6c15.94-4.2 28.19-17.42 29.93-19s6.92-8.81 6.92-8.81l-19.31-39.45-.77-26.86-20.37-5.23-6.92-5.35z" fill="#34a37e"/>
  <path d="M234.5 104.85s11.28 3.91 14.23 10.68 13 35.33 13.23 41.21c0 .79-4.08 12.9-7.38 14.88-4.39 2.64-11-3.36-11-3.36L239 160.8l.25-7.82-5.21-20.82z" fill="#34a37e"/>
  <path d="M177.65 105l23.29 28.54 3.17-26.4 4.41-13-30.33 7.5z" fill="#ffbe9d"/>
  <path d="M200.83 134.43a2 2 0 01-.22-.25l-.59-.77c-.52-.67-1.28-1.65-2.28-2.86a94.3 94.3 0 00-8.8-9.37l.34-.14c-.09 3.86-.2 8.2-.3 12.77v2.08l-.4-.81c-3.57-7.35-6.79-14-9.13-18.77l-2.71-5.67-.72-1.55a3.63 3.63 0 01-.22-.55 2.87 2.87 0 01.3.51c.2.38.46.89.79 1.51l2.83 5.62 9.26 18.71-.42.09v-1.18c.12-4.57.23-8.91.34-12.77v-.45l.32.31a84.87 84.87 0 018.72 9.51c1 1.24 1.7 2.24 2.19 2.94l.54.8a1.12 1.12 0 01.16.29zM234 155c.08.08-6.72 7.36-15.19 16.26s-15.42 16-15.51 15.95 6.7-7.32 15.2-16.21 15.42-16 15.5-16z" fill="#263238"/>
  <path d="M221.36 191.73a20 20 0 01-.66-2.65c-.38-1.63-.95-3.88-1.74-6.31s-1.65-4.59-2.3-6.13a26.73 26.73 0 01-1-2.52 12.4 12.4 0 011.31 2.39 51.55 51.55 0 012.44 6.13A53.14 53.14 0 01221 189a14.47 14.47 0 01.36 2.73zm-57.11-46.33a51.93 51.93 0 01-5.66-3.58 51.14 51.14 0 01-5.42-3.93 51.58 51.58 0 015.66 3.57 49.12 49.12 0 015.42 3.94zm90.33 27.76a1.16 1.16 0 01-.3 0h-.87a7.46 7.46 0 01-1.39-.11 10.81 10.81 0 01-1.83-.41 12.13 12.13 0 01-4.35-2.52 15.12 15.12 0 01-3.73-5.26c-.79-3.21-1.67-6.77-2.6-10.51L235.08 136c-.54-2.31-1-4.2-1.29-5.57-.14-.62-.25-1.13-.33-1.52a3.57 3.57 0 01-.09-.53 2.09 2.09 0 01.17.51c.11.39.24.88.41 1.5l1.43 5.53c1.18 4.73 2.78 11.18 4.55 18.3.91 3.75 1.78 7.32 2.56 10.52a15 15 0 003.58 5.15 12.25 12.25 0 004.2 2.54 17.31 17.31 0 004.31.73zm-82.4.52a16.53 16.53 0 01-1.66.37 11.47 11.47 0 00-6.58 4.48c-.61.86-.89 1.45-.95 1.42a4.09 4.09 0 01.69-1.59 10.12 10.12 0 012.9-3 10 10 0 013.87-1.59 4 4 0 011.73-.09z" fill="#263238"/>
  <path d="M172.33 172.72a17.86 17.86 0 01-8.15 2c0-.13 1.85-.39 4.09-.95s4.01-1.17 4.06-1.05zm44.21-.26a1.54 1.54 0 01-.23-.35l-.59-1c-.51-.9-1.21-2.22-2.05-3.87-1.69-3.29-3.88-7.91-6-13.12s-3.89-10-5-13.54c-.57-1.76-1-3.19-1.3-4.19-.12-.45-.23-.83-.31-1.15a2 2 0 01-.09-.4s.07.12.17.38l.4 1.12c.35 1 .84 2.44 1.42 4.14 1.22 3.48 3 8.27 5.14 13.47s4.32 9.83 5.93 13.15l1.92 3.93.52 1.07c.03.22.09.35.07.36z" fill="#263238"/>
  <path d="M203.53 186.77c12.24-6.67 23.15-17.41 29.07-30zM163 180c2.39-5.14 7.1-6.56 11.69-6.49a1.12 1.12 0 00-.79-1.25 3.14 3.14 0 00-1.61 0 18 18 0 00-6.33 2.17 6.32 6.32 0 00-2.89 5.39m12.82-71.14a115.73 115.73 0 0014.36 32.19 18.57 18.57 0 002.83-12.34 14.3 14.3 0 007 4.91 67.4 67.4 0 00-10.84-12.26s-.37 14.32-.35 13.95c-4.42-8.87-8.71-17.6-13-26.45" opacity=".3"/>
  <path d="M190.26 196.47s-.09-.14-.21-.44-.3-.79-.51-1.32c-.41-1.14-1.06-2.79-1.87-4.82-1.63-4-4.1-9.55-6.95-15.58s-5.39-11.52-7-15.59c-.82-2-1.45-3.68-1.84-4.85-.17-.53-.32-1-.44-1.33a1.5 1.5 0 01-.12-.48 2.29 2.29 0 01.22.44l.53 1.3c.45 1.14 1.13 2.77 2 4.78 1.71 4 4.29 9.47 7.14 15.51s5.28 11.57 6.82 15.67c.77 2.05 1.37 3.72 1.73 4.89l.41 1.34a1.61 1.61 0 01.09.48z" fill="#263238"/>
  <path d="M173.32 157.45c0 .08-1.1-.24-2.85-.53a25.9 25.9 0 00-13.65 1.44c-1.66.65-2.64 1.18-2.68 1.11s.21-.2.64-.46a15.35 15.35 0 011.89-1 22.71 22.71 0 0113.86-1.46 14.59 14.59 0 012.06.57c.48.18.74.29.73.33zm8.88 20.32a34 34 0 00-8.5 2.56 34.7 34.7 0 00-7.26 5.13 8.86 8.86 0 011.76-2 21.95 21.95 0 0111.36-5.55 8.72 8.72 0 012.64-.14zm23.99-25.84c.07.13-6.23 3.49-14.06 7.51s-14.24 7.17-14.3 7 6.23-3.49 14.06-7.51 14.24-7.13 14.3-7zm28.81-15.3c0 .14-6.77 2.11-15.22 4.4s-15.32 4-15.35 3.91 6.77-2.12 15.22-4.41 15.35-4.04 15.35-3.9zm27.17 19.25s-.22.23-.67.57a14.83 14.83 0 01-2 1.27 21.1 21.1 0 01-3.3 1.37 23.09 23.09 0 01-4.29.86 22.67 22.67 0 01-4.38 0 20.06 20.06 0 01-3.49-.73 14.37 14.37 0 01-2.24-.86 3.05 3.05 0 01-.77-.44c0-.09 1.17.44 3.11.95a21.53 21.53 0 003.44.6 24.4 24.4 0 004.28 0 25.26 25.26 0 004.2-.8 22.83 22.83 0 003.27-1.24c1.77-.9 2.79-1.63 2.84-1.55zM246.8 171a4.6 4.6 0 01-.83.83c-.55.51-1.38 1.22-2.44 2a60.48 60.48 0 01-8.84 5.69 59.35 59.35 0 01-9.7 4c-1.28.4-2.34.69-3.07.85a4.57 4.57 0 01-1.15.21 5 5 0 011.1-.4c.71-.23 1.74-.56 3-1a70.42 70.42 0 0018.44-9.67c1.08-.79 1.94-1.44 2.53-1.9a5.32 5.32 0 01.96-.61zm-27.45 17.81a5.34 5.34 0 01-1 .6c-.69.36-1.7.83-3 1.38a69.19 69.19 0 01-20.93 5.32c-1.38.12-2.5.18-3.27.2a6.33 6.33 0 01-1.21 0 5 5 0 011.19-.18c.77-.07 1.88-.19 3.25-.36a86.48 86.48 0 0010.59-2 85.09 85.09 0 0010.24-3.32c1.29-.5 2.32-.93 3-1.23a4.76 4.76 0 011.14-.41zm-38.53-60.4a29.15 29.15 0 01-3.1 1.91c-1.93 1.14-4.61 2.72-7.53 4.51s-5.53 3.47-7.42 4.69a24.65 24.65 0 01-3.11 1.9 4.19 4.19 0 01.75-.63c.5-.39 1.23-.93 2.15-1.57 1.85-1.3 4.43-3 7.36-4.83s5.64-3.33 7.62-4.39c1-.53 1.81-.94 2.38-1.22a3.58 3.58 0 01.9-.37zm1.9-14.28a5 5 0 01-.54 2.2c-.44 1.16-.9 2.07-1 2a5.11 5.11 0 01.55-2.2c.4-1.13.86-2.05.99-2zm47.45-1.42c0 .13-6 2.09-13.53 4.37S203 121.09 203 121s6-2.09 13.53-4.37 13.6-4.06 13.64-3.92z" fill="#fff"/>
  <path d="M173.12 157.62l17.54 39.54a58.26 58.26 0 00-17.54-39.54z" opacity=".3"/>
  <path d="M198 48l-23.41-4.2c-7.41-.27-11.68 9.12-11.64 16.54.05 8.24.43 18.29 1.82 24.35 2.8 12.17 12.34 13.09 12.34 13.09l.54 7.21 24.3.39.19-53.22A4.35 4.35 0 00198 48z" fill="#ffbe9d"/>
  <path d="M167.3 69.11a1.56 1.56 0 001.63 1.48 1.52 1.52 0 001.53-1.53 1.59 1.59 0 00-1.63-1.49 1.51 1.51 0 00-1.53 1.54zm-1.62-4.5c.21.2 1.34-.77 3-.88s3 .65 3.17.43-.14-.46-.71-.82a4.42 4.42 0 00-2.55-.6 4.17 4.17 0 00-2.41 1c-.45.4-.6.79-.5.87zm17.13 4.5a1.56 1.56 0 001.63 1.48 1.52 1.52 0 001.56-1.53 1.59 1.59 0 00-1.63-1.49 1.51 1.51 0 00-1.56 1.54zm-.36-4.53c.21.19 1.35-.77 3.05-.88s3 .65 3.17.43-.14-.46-.71-.82a4.45 4.45 0 00-2.56-.6 4.1 4.1 0 00-2.4 1c-.5.4-.65.79-.55.87zm-5.3 13.02a10.9 10.9 0 00-2.79-.31c-.44 0-.85-.07-1-.36a2.3 2.3 0 01.2-1.31c.34-1.07.69-2.2 1.06-3.39 1.46-4.82 2.48-8.78 2.29-8.83s-1.54 3.8-3 8.63c-.35 1.19-.69 2.32-1 3.4a2.51 2.51 0 00-.1 1.72 1.08 1.08 0 00.75.59 3.4 3.4 0 00.75.05 11.07 11.07 0 002.84-.19z" fill="#263238"/>
  <path d="M177.08 97.78a31.31 31.31 0 0016.18-5.53s-3.57 8.75-16 8.45z" fill="#eb996e"/>
  <path d="M181.34 60.21c.2.45 1.88.12 3.89.22s3.66.54 3.9.11c.1-.21-.21-.63-.89-1a6.6 6.6 0 00-2.94-.81 6.53 6.53 0 00-3 .57c-.7.31-1.04.7-.96.91zm-15.34.24c.33.37 1.47-.11 2.88-.23s2.61.08 2.86-.34c.11-.2-.11-.58-.65-.91a4 4 0 00-2.39-.47 4.11 4.11 0 00-2.24.93c-.46.43-.58.84-.46 1.02z" fill="#263238"/>
  <path d="M171.59 43.58c-.73 1.53 2.25 4.35 3.86 4.89s3.67.26 4.54 1.71c1 1.65-1 4.31 2.32 6.11 1.05.57 2.6-.62 3.48.19 1.09 1-.33 2.73-.29 4.2.09 2.88 5.33 3.1 5.67 6 .22 1.79-1.78 3.5-1.08 5.16s3.57 1.56 4.28 3.26c.91 2.19-2.79 4.09-2.33 6.41s4.32 2.3 5.09 4.52c.66 1.89-1.47 4-.74 5.83.82 2.14 4.43 1.83 5.4 3.9 1.17 2.51-2.8 5.4-1.45 7.81.45.81 1.48 1.09 2.09 1.79 2 2.26 1.78 7.18-.25 9.15h1.45a13.18 13.18 0 0010.89-6.08l1.2 2.79c3.86-1.22 6.87-3.75 10-6.35a6.24 6.24 0 015.62-1.23l.85.24c2.58.19 6-1.09 8.13-2.53-2.85-.57-4.38-3.68-5.09-6.5s-1.14-6-3.27-7.93c-2.31-2.14-6.3-2.62-7.37-5.58-.83-2.33.72-5 0-7.33s-3.55-3.55-4.63-5.8c-1.47-3.06.65-7.11-1.22-10-2-3.08-7.47-2.63-9-6-.85-1.86-.16-4.38-1.63-5.8-1.17-1.13-3.17-.95-4.41-2-1.8-1.57-.92-4.79-2.49-6.59-2.13-2.44-6.49-.29-9.22-2-1.72-1.1-2.29-3.45-4-4.57-2.31-1.53-5.33-.15-7.94.76-2 .7-4.14 1.11-6.1 2a7.83 7.83 0 00-4.5 4.31c-.7 2 .17 4.64 2.2 5.33" fill="#263238"/>
  <path d="M236.49 91.44l.2.18c.13.12.33.31.57.56a7.33 7.33 0 01.82 1 3.85 3.85 0 01.67 1.64 2.73 2.73 0 01-.65 2.1 1.73 1.73 0 01-2.47.23 4.23 4.23 0 01-1.17-2.78 29.66 29.66 0 010-3.39c0-1.19.16-2.42.33-3.71.08-.64.19-1.29.3-2a7.92 7.92 0 00.12-2 2.19 2.19 0 00-.91-1.69 3.33 3.33 0 00-2-.37 16.76 16.76 0 01-2.27.11 2.78 2.78 0 01-2.14-1 4 4 0 01-.74-2.32 11.8 11.8 0 01.19-2.45 8.93 8.93 0 00.07-2.42 2.92 2.92 0 00-1.16-2A13.35 13.35 0 00224 70a4.38 4.38 0 01-2-1.79 10.46 10.46 0 01-.85-5.3 15.49 15.49 0 00-.13-2.65 5.34 5.34 0 00-.93-2.37c-1-1.36-2.74-2-4.28-2.66a11.69 11.69 0 01-2.25-1.23 4.23 4.23 0 01-1.56-2 13.22 13.22 0 01-.36-2.43 3 3 0 00-.86-2 4.15 4.15 0 00-2-.82 11.62 11.62 0 01-2.22-.55 3 3 0 01-1.63-1.54 6.38 6.38 0 01-.44-2.12 8.92 8.92 0 00-.7-3.86 5.36 5.36 0 00-2.78-2.2 10.34 10.34 0 00-3.26-.63c-1.06 0-2.06 0-3-.08a13.86 13.86 0 01-2.61-.3 7.33 7.33 0 01-2.06-.83 4.88 4.88 0 01-2.08-2.2 3 3 0 01-.27-1 6.59 6.59 0 00.34 1 4.83 4.83 0 002.08 2.11 7.4 7.4 0 002 .78 14.49 14.49 0 002.58.27h3a10.61 10.61 0 013.34.62A5.5 5.5 0 01204 38.5a9 9 0 01.76 4 6 6 0 00.42 2 2.71 2.71 0 001.48 1.38 11.08 11.08 0 002.15.51 4.55 4.55 0 012.2.9 3.38 3.38 0 011 2.23 12.91 12.91 0 00.35 2.36 3.86 3.86 0 001.4 1.87 10.9 10.9 0 002.24 1.17c.77.35 1.57.67 2.34 1.1a6.11 6.11 0 012.08 1.68 5.77 5.77 0 011 2.52 17.65 17.65 0 01.14 2.72 9.89 9.89 0 00.8 5.12 3.9 3.9 0 001.84 1.63 14.84 14.84 0 012.32 1.17 3.28 3.28 0 011.3 2.25 9.21 9.21 0 01-.08 2.52 12.12 12.12 0 00-.24 2.37 3.78 3.78 0 00.66 2.13 2.52 2.52 0 001.91.91 20.73 20.73 0 002.22-.1 3.56 3.56 0 012.21.42 2.5 2.5 0 011 1.92 7.85 7.85 0 01-.14 2.07c-.11.67-.22 1.31-.3 2-.18 1.27-.29 2.5-.36 3.68s-.11 2.31-.05 3.35a4.12 4.12 0 001.11 2.62 1.64 1.64 0 001.19.36 1.66 1.66 0 001-.55 2.62 2.62 0 00.63-2 3.81 3.81 0 00-.62-1.59 8.37 8.37 0 00-.78-1l-.54-.58c-.09-.12-.16-.19-.15-.2z" fill="#263238"/>
  <path d="M209.54 109.27a1.79 1.79 0 01.34-.15 9.29 9.29 0 001-.44 3.72 3.72 0 001.32-1.05 2.12 2.12 0 00.25-2.14 1.7 1.7 0 00-1-.76c-.46-.15-1-.21-1.49-.39a1.82 1.82 0 01-.74-.44 1.34 1.34 0 01-.36-.83 3.58 3.58 0 01.62-1.73 3.91 3.91 0 00.61-1.75 3.7 3.7 0 00-.36-1.92 3.59 3.59 0 00-3.53-1.89h-.15v-.15a5 5 0 011-3.08 18.53 18.53 0 001.78-2.84 4.38 4.38 0 00.39-1.64 2.32 2.32 0 00-.52-1.56c-.75-.88-2-1.09-3.21-1.62a2.86 2.86 0 01-1.48-1.33 2.71 2.71 0 010-2c.41-1.27 1.24-2.41 1.2-3.7a2.92 2.92 0 00-.75-1.72 6.15 6.15 0 00-1.54-1.27 28.16 28.16 0 01-3.63-2.11 3.72 3.72 0 01-1.42-2.24 5.55 5.55 0 01.25-2.6c.23-.82.52-1.61.68-2.41a4.7 4.7 0 00.09-1.18 2.44 2.44 0 00-.37-1.08 3.39 3.39 0 00-1.98-1.25 12.9 12.9 0 01-2.24-.89 2.85 2.85 0 01-1.41-1.94 5.85 5.85 0 01.14-2.33c.15-.74.34-1.46.43-2.17a4.07 4.07 0 00-.18-2.06A3.35 3.35 0 00192 51.1a7 7 0 00-1.83-.76c-1.27-.34-2.59-.44-3.78-.88a5.11 5.11 0 01-1.62-.93 4.71 4.71 0 01-1.07-1.42c-.54-1-.83-2.08-1.26-3a5.36 5.36 0 00-1.74-2.2 5.26 5.26 0 00-4.32-.94 5.56 5.56 0 00-2.54 1.32c-.49.46-.68.76-.7.75a3.87 3.87 0 01.65-.8 5.52 5.52 0 012.56-1.41 5.44 5.44 0 014.47.91 5.62 5.62 0 011.8 2.26c.45.93.75 2 1.27 3a4.62 4.62 0 001 1.34 4.54 4.54 0 001.54.86c1.15.42 2.44.52 3.76.86a7.21 7.21 0 011.92.79 3.59 3.59 0 011.43 1.62 4.41 4.41 0 01.21 2.22c-.09.74-.28 1.46-.43 2.19a5.87 5.87 0 00-.13 2.2 2.5 2.5 0 001.25 1.71 14.25 14.25 0 002.19.86 3.79 3.79 0 012.05 1.42 2.74 2.74 0 01.42 1.24 5 5 0 01-.09 1.28c-.17.84-.46 1.63-.69 2.44a5.33 5.33 0 00-.24 2.43 3.4 3.4 0 001.3 2 28.73 28.73 0 003.62 2.1 6.78 6.78 0 011.63 1.34 3.26 3.26 0 01.82 1.94c0 1.48-.84 2.63-1.21 3.82a2.36 2.36 0 000 1.77 2.53 2.53 0 001.3 1.17c.56.26 1.16.44 1.74.67a4 4 0 011.59 1 2.65 2.65 0 01.58 1.78 4.73 4.73 0 01-.41 1.76 18.6 18.6 0 01-1.82 2.88 4.7 4.7 0 00-1 2.89l-.16-.13a3.81 3.81 0 013.79 2.06 3.94 3.94 0 01-.27 3.89 3.46 3.46 0 00-.61 1.61 1.25 1.25 0 00.94 1.09c.49.18 1 .25 1.48.4a1.74 1.74 0 011.3 2.12 2.42 2.42 0 01-.45 1 3.74 3.74 0 01-1.38 1.06 7.31 7.31 0 01-1.32.59z" fill="#455a64"/>
  <path d="M229.36 102.82a4.8 4.8 0 00.51-1 4 4 0 00-.2-3 3.5 3.5 0 00-1.54-1.56 10.07 10.07 0 01-1.11-.7 1.88 1.88 0 01-.76-1.22c-.15-1 .58-2 .56-3a1.76 1.76 0 00-.73-1.35 7.41 7.41 0 00-1.56-.81 7.07 7.07 0 01-1.67-.92 2.72 2.72 0 01-1-1.74c-.22-1.38.22-2.76.24-4.16a3.4 3.4 0 00-.5-2 3.91 3.91 0 00-1.76-1.22 18.93 18.93 0 01-2.17-.91 2.71 2.71 0 01-1.48-1.95 8.91 8.91 0 01.12-2.48 2.92 2.92 0 00-.44-2.27 5 5 0 00-2.13-1.2 4.3 4.3 0 01-2.22-1.49 3.94 3.94 0 01-.47-2.68 16.58 16.58 0 01.67-2.65 7 7 0 00.35-2.63 3 3 0 00-1.34-2.15 7.74 7.74 0 00-2.55-.89c-.89-.18-1.81-.32-2.69-.58a5.18 5.18 0 01-2.42-1.34 6.26 6.26 0 01-1.38-2.34c-.54-1.71-.69-3.45-1-5.08a9.41 9.41 0 00-.79-2.33 4.46 4.46 0 00-1.61-1.67c-1.4-.75-3-.55-4.55-.48a11 11 0 01-2.29-.07 4.71 4.71 0 01-2.07-.87 14.65 14.65 0 01-2.6-3.28 8.83 8.83 0 00-1.25-1.46 6.87 6.87 0 00-1.53-1 8.78 8.78 0 00-6.35-.37 12.61 12.61 0 00-4.27 2.41 19.26 19.26 0 00-2.23 2.21l-.53.62-.19.21s.05-.08.16-.23.27-.37.5-.65a19.4 19.4 0 012.19-2.27 12.76 12.76 0 014.31-2.5 9 9 0 016.52.34 7.3 7.3 0 011.6 1 8.92 8.92 0 011.3 1.5 14 14 0 002.56 3.2 4.25 4.25 0 001.93.8 10.33 10.33 0 002.23.06c.76 0 1.54-.1 2.34-.07a5.44 5.44 0 012.38.57 4.83 4.83 0 011.71 1.83 10.11 10.11 0 01.84 2.4c.36 1.67.51 3.4 1 5.05a5.82 5.82 0 001.29 2.2 5 5 0 002.27 1.25c.85.25 1.76.39 2.66.57a8 8 0 012.68.93 3.38 3.38 0 011.5 2.42 7.32 7.32 0 01-.36 2.77 15.63 15.63 0 00-.66 2.59 3.59 3.59 0 00.41 2.45 3.91 3.91 0 002.08 1.37 5.27 5.27 0 012.27 1.31 2.53 2.53 0 01.52 1.24 5.47 5.47 0 010 1.28 9.38 9.38 0 00-.13 2.4 2.42 2.42 0 001.31 1.72 21.25 21.25 0 002.13.9 4.14 4.14 0 011.89 1.33 3.6 3.6 0 01.55 2.18c0 1.46-.47 2.83-.27 4.11A2.46 2.46 0 00223 89a6.49 6.49 0 001.61.89 7.48 7.48 0 011.6.86 2 2 0 01.81 1.53c0 1.17-.73 2.08-.59 3a1.69 1.69 0 00.68 1.11 8.94 8.94 0 001.08.69 3.67 3.67 0 011.58 1.65 4 4 0 01.14 3.1 2.81 2.81 0 01-.55.99z" fill="#455a64"/>
  <path d="M179.33 83.13a2.22 2.22 0 012.74-3.3 3.52 3.52 0 011.36 1.27 2.38 2.38 0 01.51 1.83 1.9 1.9 0 01-1 1.16 3 3 0 01-2.36.2 2.59 2.59 0 01-1.58-1.71" fill="#eb996e"/>
  <path d="M183.32 79.49c.14 0 .2.45 0 1.07a4.3 4.3 0 01-3.89 2.87c-.65 0-1-.17-1-.31 0-.3 1.46-.42 2.76-1.4s1.81-2.31 2.13-2.23z" fill="#263238"/>
  <path d="M236.14 120l-5.62-8.86-.39-8.72 2.21-6s1.76-.42 2 1.68a11.36 11.36 0 01-.66 4.64l1.21 4.23s.4.46.77-1.3-.28-14.8-.28-15.7.06-3 1.39-2.84 1.75 2 1.76 2.86 1 9.65 1 9.65.31.79.62.67-.27-9.39-.34-10.86-.38-4.71 1.34-4.72 1.72 1.63 1.81 3.43 1.22 11.83 1.22 11.83.26.63.51-.21.55-11.77.75-12.28 1.19-1.18 2 .05.59 4.12.48 9.21c-.09 4.59-.24 6.49.29 6.85s2.46-2.46 2.46-2.46 2.35-6 4.34-5.83.65 1.76.31 3.16c-.29 1.19-3.77 8.29-3.84 8.35S248 119.59 248 119.59l8.86 16.95c1.31 2.52 1.15 4.73.74 7.54-.45 3.09-2.63 4.66-7.14 6.07-3.34 1-6.9.08-8.52-1.68a9.84 9.84 0 01-2.47-5.3c-1-5.56-3.31-23.14-3.31-23.14z" fill="#ffbe9d"/>
  <path d="M241.76 113.67c-.08 0 0-.67-.18-1.7a6.79 6.79 0 00-1.83-3.54 4.78 4.78 0 00-2.84-1.45 2.93 2.93 0 00-1.93.44h-.08v-.07c-.12-.24-.16-.37-.14-.38s.11.09.27.3h-.12a2.77 2.77 0 012.06-.67 4.87 4.87 0 013.11 1.49 6.48 6.48 0 011.83 3.8 3.47 3.47 0 01-.15 1.78zm4.75-6.67c.08.11-.68.76-1.43 1.73s-1.2 1.86-1.32 1.81a5.25 5.25 0 012.75-3.54z" fill="#eb996e"/>
  <ellipse cx="177.82" cy="345.42" rx="55.36" ry="59.92" transform="rotate(-19.78 177.808 345.383)" fill="#fafafa"/>
  <path d="M125.73 364.15s-.46-1.18-1.19-3.48a62.79 62.79 0 01-2.22-10.32c-.19-1.14-.24-2.35-.38-3.62s-.16-2.61-.14-4a60.51 60.51 0 017.63-30 55.26 55.26 0 017.59-10.4 52.73 52.73 0 0110.79-8.87 52 52 0 0129.46-7.69 56.59 56.59 0 0131.57 11.6 64.17 64.17 0 0123.48 65.28 56.59 56.59 0 01-17 29.05 52 52 0 01-27.61 12.84 53.06 53.06 0 01-14 0 55.13 55.13 0 01-12.48-3.19 60.24 60.24 0 01-25-18.24c-.9-1.07-1.67-2.16-2.44-3.18s-1.43-2-2-3a63.54 63.54 0 01-4.86-9.38c-.91-2.23-1.3-3.44-1.3-3.44s.13.29.36.86.54 1.44 1 2.54a65.37 65.37 0 004.93 9.31c.58 1 1.32 1.94 2 3s1.54 2.1 2.44 3.15a59.71 59.71 0 006.24 6.55 58.77 58.77 0 0018.67 11.51 55.21 55.21 0 0012.4 3.13 52.69 52.69 0 0013.85-.06A51.57 51.57 0 00215 391.38a56.15 56.15 0 0016.78-28.82 63.68 63.68 0 00-23.29-64.75 56.2 56.2 0 00-31.28-11.53 51.64 51.64 0 00-29.21 7.58 52.68 52.68 0 00-10.71 8.77 55.36 55.36 0 00-7.57 10.31 58.86 58.86 0 00-7.06 20.76 59.67 59.67 0 00-.65 9c0 1.39.08 2.72.13 4s.17 2.47.35 3.6a66.44 66.44 0 002.12 10.32c.32 1.16.64 2 .82 2.62s.3.91.3.91z" fill="#263238"/>
  <path d="M116.59 367.44s-.54-1.41-1.4-4.15a75.65 75.65 0 01-2.63-12.29c-.22-1.35-.29-2.79-.44-4.3s-.2-3.09-.18-4.75a71.3 71.3 0 01.72-10.77 70 70 0 018.34-24.8 65.43 65.43 0 019-12.38 63.05 63.05 0 0112.81-10.53 61.83 61.83 0 0135-9.13 67.2 67.2 0 0137.49 13.78 76.17 76.17 0 0127.89 77.53 67.27 67.27 0 01-20.14 34.5 61.74 61.74 0 01-32.79 15.25 63.06 63.06 0 01-16.58 0 65.29 65.29 0 01-14.82-3.79A71.73 71.73 0 01129.22 390c-1.07-1.26-2-2.57-2.9-3.77s-1.7-2.42-2.39-3.6a75.34 75.34 0 01-5.78-11.13c-1.08-2.65-1.56-4.08-1.56-4.08s.15.34.43 1 .64 1.72 1.23 3a78.21 78.21 0 005.85 11.07c.69 1.17 1.57 2.31 2.41 3.57s1.83 2.49 2.9 3.75a71.86 71.86 0 007.42 7.79A69.94 69.94 0 00159 411.34a65.76 65.76 0 0014.74 3.73 62.26 62.26 0 0016.47-.07 61.32 61.32 0 0032.53-15.18 66.72 66.72 0 0020-34.26 75.72 75.72 0 00-27.69-77 66.76 66.76 0 00-37.21-13.71 61.34 61.34 0 00-34.74 9 62.14 62.14 0 00-12.74 10.43 65 65 0 00-9 12.27 69.74 69.74 0 00-8.4 24.68 71 71 0 00-.76 10.72c0 1.66.09 3.24.15 4.75s.21 2.94.42 4.28a77.06 77.06 0 002.53 12.26c.38 1.38.76 2.41 1 3.11s.29 1.09.29 1.09z" fill="#263238"/>
  <path d="M194.75 268.25c.2-.1 8-3 8.35 5.14s-7.93 6.82-7.95 6.59-.4-11.73-.4-11.73z" fill="#c58984"/>
  <path d="M197.51 276.78s.15.09.4.19a1.38 1.38 0 001.06 0c.85-.35 1.52-1.75 1.5-3.22a4.63 4.63 0 00-.49-2 1.63 1.63 0 00-1.11-1 .72.72 0 00-.82.43c-.1.23-.05.39-.09.41s-.18-.13-.13-.47a1 1 0 01.3-.53 1.08 1.08 0 01.78-.24 2 2 0 011.54 1.2 4.86 4.86 0 01.59 2.26c0 1.65-.77 3.22-1.93 3.61a1.54 1.54 0 01-1.31-.16c-.26-.26-.31-.46-.29-.48z" fill="#9c6664"/>
  <path d="M154.38 287.21c-.5-5.75-.55-17.67-.48-28.46a22.25 22.25 0 0120.63-22l1.14-.09c12.45-.18 19.56 10.28 19.41 22.73l1.21 41-13.94 3.23a8.92 8.92 0 01-1.36.2l-13.29.9-.25-4.6s-12.05-1.01-13.07-12.91z" fill="#c58984"/>
  <path d="M160.2 267.69a1.69 1.69 0 001.76 1.6 1.63 1.63 0 001.64-1.66 1.7 1.7 0 00-1.76-1.6 1.63 1.63 0 00-1.64 1.66zm17.92-2.13a1.69 1.69 0 001.76 1.59 1.64 1.64 0 001.65-1.66 1.72 1.72 0 00-1.77-1.6 1.63 1.63 0 00-1.64 1.67zm-21.3-.64c.22.21 1.44-.84 3.27-1s3.24.69 3.43.45-.16-.49-.77-.87a4.62 4.62 0 00-2.76-.64 4.5 4.5 0 00-2.59 1.05c-.53.51-.69.92-.58 1.01zm18.37-1.77c.24.19 1.4-.93 3.21-1.18s3.28.48 3.45.23-.19-.48-.83-.82a4.69 4.69 0 00-2.79-.46 4.52 4.52 0 00-2.52 1.21c-.5.51-.63.93-.52 1.02zm-5.92 14.33a11.88 11.88 0 00-3-.32c-.47 0-.92-.07-1-.39a2.37 2.37 0 01.21-1.4l1.12-3.67c1.55-5.2 2.63-9.47 2.42-9.53s-1.63 4.11-3.18 9.32c-.37 1.28-.73 2.51-1.06 3.68a2.69 2.69 0 00-.11 1.85 1.17 1.17 0 00.82.63 3.89 3.89 0 00.8.05 12.44 12.44 0 002.98-.22zm5.48.87c-.3 0-.16 2-1.76 3.53s-3.73 1.47-3.72 1.75c0 .12.5.35 1.39.31a5 5 0 003.12-1.35 4.26 4.26 0 001.34-2.95c.02-.84-.24-1.31-.37-1.29zm-.82-22.47c.25.47 2 0 4.19-.13s4 .23 4.2-.26c.09-.23-.28-.65-1-1a7.1 7.1 0 00-3.23-.58 7 7 0 00-3.16.88c-.79.42-1.12.87-1 1.09zM156.8 260c.35.39 1.58-.13 3.1-.27s2.82.08 3.08-.38c.12-.22-.12-.62-.71-1a4.48 4.48 0 00-5 .52c-.48.49-.63.93-.47 1.13z" fill="#263238"/>
  <path d="M186.23 262.9c.05.07-.47.53-1.24.88a2.58 2.58 0 01-1.48.35 6.12 6.12 0 011.34-.65 5.54 5.54 0 011.38-.58zm1.39 1.73a5.11 5.11 0 01-1.78.14 4.92 4.92 0 01-1.78-.17 4.93 4.93 0 011.78-.15 5.05 5.05 0 011.78.18zm-13.55-15.21c0 .05-.56.21-1.43.62s-2 1.06-3.35 1.73a9.43 9.43 0 01-3.66 1.08 4.67 4.67 0 01-1.16-.08c-.27-.05-.41-.11-.4-.13s.6.08 1.55 0a10.85 10.85 0 003.52-1.14c1.31-.66 2.49-1.31 3.41-1.66a4.41 4.41 0 011.52-.42zm-2.43-.14a8.56 8.56 0 01-3.56 1.43 8.8 8.8 0 01-3.83.08c0-.1 1.72 0 3.77-.4a35.79 35.79 0 003.62-1.11zm5.43 29.4c-.08.05-.4-.64-1.19-.9a3.44 3.44 0 00-1.5 0s.11-.18.4-.29a1.8 1.8 0 012.14.71c.17.27.19.47.15.48zm1.53-.46c-.09 0-.32-.74-1.12-1.18a3.81 3.81 0 00-1.58-.36s.16-.15.49-.19a2.05 2.05 0 011.25.27 2 2 0 01.87.94c.13.3.12.51.09.52z" fill="#9c6664"/>
  <path d="M197.1 246.81a5.79 5.79 0 00-3.48-7.37c.76-1.16-.3-2.73-1.56-3.28s-2.72-.57-4-1.18a19.79 19.79 0 01-2.4-1.71 7.91 7.91 0 00-7.93-.51c-.58-1.86-2.71-2.89-4.67-2.85a13.61 13.61 0 00-5.54 1.78 13.52 13.52 0 00-6-2 7.29 7.29 0 00-5.76 2.18 5.06 5.06 0 00-.67 5.9 5.2 5.2 0 00-2.65 9.6 4.54 4.54 0 00.45 5.1c1.19 1.38 1.91 0 1.91 0l2.94-4.36a18.68 18.68 0 003.42-.08 13 13 0 005.43-1.41 19.17 19.17 0 002.84-2.26 30.94 30.94 0 013-2.3 12.85 12.85 0 0110.84.41c3.38 1.66 6.19 6.47 6.8 10.56a117.21 117.21 0 011.46 16.51c0 1.64.25 3.7 1.81 4.22a2 2 0 002.76-1.76 34.24 34.24 0 00.05-4.14l1.24-.17c.91-5.57.18-10.62-.58-16.21a23.05 23.05 0 00-.7-3.22 4.31 4.31 0 00.99-1.45z" fill="#263238"/>
  <path d="M186.53 240.72a13.68 13.68 0 00-8-3.28 12.62 12.62 0 00-7.18 1.39 8.49 8.49 0 00-4.28 5.76l-8.66 2.34a10.32 10.32 0 0013.33-3.12 9.56 9.56 0 009 .05 10.47 10.47 0 009.18 4.7 10.07 10.07 0 00-3.39-7.84z" fill="#263238"/>
  <path d="M161.66 247.94a1.66 1.66 0 01-.75-.11 4.21 4.21 0 01-1.77-1.13 4.11 4.11 0 01-1.14-3 4.45 4.45 0 012-3.5l.08.46a4.42 4.42 0 01-2.69-1.92 4.13 4.13 0 01.31-5 4.11 4.11 0 013.9-1.5 2.73 2.73 0 011.4.76 2.17 2.17 0 01.54 1.13 1.24 1.24 0 01-.18 1 3.06 3.06 0 000-1 2.22 2.22 0 00-1.89-1.6A3.75 3.75 0 00158 234a3.87 3.87 0 00-.86 2.1 3.76 3.76 0 00.62 2.34 4 4 0 002.36 1.71l.58.13-.5.32a4.1 4.1 0 00-1.79 3.11 3.89 3.89 0 00.95 2.75 5.28 5.28 0 002.3 1.48zm35.02 3.23a7.45 7.45 0 01-6.68 1c0-.15 1.55.07 3.39-.23s3.22-.94 3.29-.77zm.82 2.46a6.7 6.7 0 01-6.66 1.85 32.43 32.43 0 003.45-.5 33.07 33.07 0 003.21-1.35z" fill="#fff"/>
  <path d="M167.43 300.08a27.79 27.79 0 0015.21-5.55s-2.95 9-14.91 8.77z" fill="#9c6664"/>
  <path d="M206.12 309.08l-6.91-2.08-.88-5.61a1.8 1.8 0 00-2.05-1.68l-31.08 4.37a1.81 1.81 0 00-1.53 2.09v4.38l-24.25 10.19s-2.74 10.8-2 20.12c.57 7.2 3.13 48.36 3.13 48.36s17.1 16.81 37.16 17.28a58.86 58.86 0 0040.9-15.7c0-.48 4.59-49.67 4.59-49.67l2.52-23.45z" fill="#34a37e"/>
  <path d="M140.56 389.19l-1.13-68.48s-12.26 9.34-14.86 41.89c0 0 7.25 18.82 15.99 26.59zm81.57-73.06s11.26 3.44 14.55 12.55 27.32 46 29.15 49.33c5.58 10 .32 24.06-8.08 26.5s-44.27-15.24-44.95-17.34a21 21 0 01-.5-5.86l2.21-14.31 6.16 1.41z" fill="#34a37e"/>
  <path d="M208.62 384.85c-.5-.91-.42-3.51-1-4.39-.88-1.45-2.69-.86-4.09-1.83l-6.48-4.49a5.21 5.21 0 00-2.29-1.08 3.67 3.67 0 00-3.05 1.45 17.05 17.05 0 00-1.8 3c-.52 1-1.12.6-2.23.72a14.15 14.15 0 01-3.66.26 4 4 0 00-3.46 1.65c-.86 1-1.48 2.24-2.41 3.19-2.26 2.32-5.85 2.63-9.08 2.54s-6.67-.37-9.52 1.15c-3.58 1.91-5.2 6.08-6.54 9.91l.54 1.89c3.85 1.66 9.21 1 13.21-.2s8.07-2.79 12.24-2.45c4.42.35 8.92 2.82 13.06 1.23 2.4-.92 4.14-3.05 6.47-4.13 3.07-1.43 6.64-.84 10-.48s7.16.34 9.66-1.95c-3.66-1.13-7.72-2.57-9.57-5.99z" opacity=".3"/>
  <path d="M222.87 393.13a1.11 1.11 0 01-.3-.1l-.85-.34-3.22-1.34-11.5-4.94-.15-.07v-.16c.91-6.32 2-14 3.18-22.21 0-.21.06-.43.08-.62v-.27l.28.05c10.6 2.24 20 5 26.75 7 3.38 1 6.09 1.94 8 2.58l2.14.75a4.56 4.56 0 01.74.3 7.36 7.36 0 01-.77-.2l-2.17-.66c-1.89-.58-4.61-1.42-8-2.42-6.78-2-16.18-4.62-26.76-6.86l.31-.22-.09.62c-1.21 8.24-2.33 15.88-3.26 22.2l-.13-.23 11.45 5.11 3.17 1.46.83.39a1.27 1.27 0 01.27.18z" fill="#263238"/>
  <path d="M227.7 368.14a9.17 9.17 0 01-1.56-1.79 45.21 45.21 0 01-5.64-9.91 8.9 8.9 0 01-.74-2.25 13.37 13.37 0 011.08 2.1c.63 1.31 1.53 3.1 2.62 5s2.18 3.61 3 4.82a12.52 12.52 0 011.24 2.03zm-5.6-49.86a29.74 29.74 0 01-.8 3.14 58.61 58.61 0 00-1.46 7.65 59.66 59.66 0 00-.41 7.77 30.08 30.08 0 010 3.24 2.54 2.54 0 01-.18-.85c-.08-.56-.16-1.37-.22-2.37a45.08 45.08 0 011.88-15.54c.3-1 .57-1.73.78-2.25a2.62 2.62 0 01.41-.79zm-74.91 72.96c-.15 0-1.65-9.72-3.35-21.76s-3-21.81-2.84-21.83 1.65 9.72 3.35 21.76 2.98 21.81 2.84 21.83z" fill="#263238"/>
  <path d="M177.32 355.45l13.93.75 18.37 11.55-2.07 13.47a96.08 96.08 0 01-9.7-3.65c-1.68-.93-1.55-4-1.55-4l-2.3 1.26s-1.25 3.13-2.22 5.83-3.82 1-3.82 1l-.36-2.83c-1.45 1.51-3.67.2-3.67.2l-1-10.45 3.9-5-4.56.46a27.66 27.66 0 00-5.36 4.36c-2.7 2.8-6.66-.22-6.66-.22l7.87-9-1.3.59s-5.11 3.55-7.24 3.67-2.59-2.5-2.59-2.5z" fill="#c58984"/>
  <path fill="#263238" d="M174.59 367.43l19.19 24.7-37.86-3.81-20.98-26.3 39.65 5.41z"/>
  <path d="M155.9 388.52h-.08l-21.34-26.75 40.14 5.47h.08l19.53 25.14zm-20.49-26.24L156 388.13l37.32 3.76-18.86-24.27z" fill="#263238"/>
  <path d="M147.7 395.88a15.63 15.63 0 007.27 3.25l16.67-5 12.77-5.22a1.05 1.05 0 00.65-1l2.07-1.91s.08-1.33-2-1.87-7.61 1.71-7.91 1.88-4.76 1-4.76 1a65 65 0 018.89-3.76s1.2-4.89-3.71-3.76a48.76 48.76 0 00-10.35 4.08l-3.48 1.71-1.67-.64 1.05-2s5.13-5.62 5.2-5.87 1.36-2 .08-2.74-4.46-.37-5.92 1.26-6.67 7.22-6.67 7.22a6.84 6.84 0 00-2.26-.11c-1.71.1-4.08-1.8-4.3-2.4s-.4-3.71-2.13-5.48-4.66-2.54-5.28-1.26c-.11.21-.44.57.11 2.09a9.42 9.42 0 001.06 2.2l.39 7.05 1.86 4-1.38.08s-1.72 3.1 3.75 7.2z" fill="#c58984"/>
  <path d="M197.76 367.56a12.58 12.58 0 00-2.75-.35 7.24 7.24 0 00-2.86.67 7.37 7.37 0 00-2.74 2.28 8.18 8.18 0 00-1.35 3.33 16 16 0 00-.25 3 19.68 19.68 0 010 2.81 12.2 12.2 0 01-.36-2.8 14.66 14.66 0 01.14-3.09 8.25 8.25 0 011.41-3.55 7.33 7.33 0 013-2.41 7 7 0 013.06-.61 6.38 6.38 0 012.06.37c.42.17.65.32.64.35zm-5.66-4.71c0 .16-1.27 0-2.77.27s-2.62.77-2.7.63a5.77 5.77 0 015.47-.9zm-20.1 3.39a13.75 13.75 0 011.56-2.15c1-1.3 2.47-3.09 4.13-5.1l.07-.08h.1l1.47-.15c3-.27 5.63-.38 7.57-.4a16.29 16.29 0 013.13.11 19.58 19.58 0 01-3.12.26c-1.93.11-4.6.28-7.53.55l-1.47.14.18-.09c-1.68 2-3.18 3.75-4.27 5a14.32 14.32 0 01-1.82 1.91z" fill="#9c6664"/>
  <path d="M200.14 307.39a7.92 7.92 0 01-1.25.83 40.33 40.33 0 01-3.62 1.9 46.15 46.15 0 01-13 3.74 44.91 44.91 0 01-7.43.4 29.62 29.62 0 01-6-.7 11.77 11.77 0 01-3.79-1.58 6.59 6.59 0 01-.89-.68c-.18-.17-.27-.27-.26-.28s.43.31 1.26.79a13.05 13.05 0 003.77 1.39 30.87 30.87 0 006 .58 48.83 48.83 0 007.35-.43 49.65 49.65 0 0012.87-3.57c1.57-.68 2.82-1.3 3.67-1.74a9.14 9.14 0 011.32-.65z" fill="#263238"/>
  <path d="M220.26 323.83s-.16-.07-.46-.24a11 11 0 00-1.36-.66 12.91 12.91 0 00-5.69-1 23.62 23.62 0 00-8.83 2.44 27.38 27.38 0 00-9.78 7.12 17 17 0 00-3.32 6.18 13.49 13.49 0 00-.09 7.51 11.31 11.31 0 004.82 6.33 8.54 8.54 0 008.19.53 8.44 8.44 0 003.39-2.77 7.53 7.53 0 001-2 8 8 0 00.28-2.24 9.18 9.18 0 00-1.3-4.41 11.29 11.29 0 00-3.26-3.42 18.18 18.18 0 00-19-.43 74.52 74.52 0 00-8.44 5.79 31.72 31.72 0 01-8.75 4.89 16.39 16.39 0 01-9.63.09 15.88 15.88 0 01-7.74-5.05 16.66 16.66 0 01-3.65-8 12 12 0 010-4.27 6.57 6.57 0 011.93-3.67 4.45 4.45 0 013.85-1 5.47 5.47 0 013.29 2 6.19 6.19 0 011.2 3.51 7.57 7.57 0 01-.7 3.48 11.21 11.21 0 01-4.45 4.73 15.53 15.53 0 01-5.44 2.05 17.33 17.33 0 01-5 .14 16.9 16.9 0 01-4.13-1 15.86 15.86 0 01-5-3 12.09 12.09 0 01-1.08-1.07c-.24-.26-.35-.4-.35-.4s.48.53 1.5 1.39a16.16 16.16 0 005 2.87 16.75 16.75 0 004.09.93 17.21 17.21 0 005-.18 15.34 15.34 0 005.32-2 10.93 10.93 0 004.29-4.6 6.57 6.57 0 00-.49-6.59 5 5 0 00-3-1.86 4 4 0 00-3.49.94 6.14 6.14 0 00-1.79 3.43 11.81 11.81 0 000 4.11 16.22 16.22 0 003.56 7.78 15.41 15.41 0 007.52 4.88 15.75 15.75 0 009.34-.1 31.21 31.21 0 008.6-4.82 74 74 0 018.5-5.83 18.69 18.69 0 0119.51.48 11.66 11.66 0 013.39 3.57 9.54 9.54 0 011.36 4.65 8.07 8.07 0 01-.3 2.4 7.92 7.92 0 01-1 2.15 9 9 0 01-3.59 2.94 9.44 9.44 0 01-4.46.81 9.3 9.3 0 01-4.17-1.39 11.67 11.67 0 01-5-6.59 14 14 0 01.11-7.75 17.37 17.37 0 013.42-6.3 27.63 27.63 0 019.94-7.15 23.87 23.87 0 019-2.39 12.8 12.8 0 015.74 1.08 9 9 0 011.35.72zm22.97 19.31a4.61 4.61 0 01-.57.86 22.2 22.2 0 01-1.84 2.14 27.62 27.62 0 01-3.13 2.77 30.56 30.56 0 01-4.35 2.72 31.41 31.41 0 01-4.77 1.91 27 27 0 01-4.09.89 20.05 20.05 0 01-2.81.22 3.82 3.82 0 01-1 0c0-.09 1.47-.13 3.79-.53a32.13 32.13 0 004-1 33.85 33.85 0 004.67-1.91 34.49 34.49 0 004.3-2.64 32.7 32.7 0 003.16-2.65c1.67-1.67 2.56-2.84 2.64-2.78zM257 368.41c0 .08-.84-.21-2.19-.45a16.67 16.67 0 00-10.4 1.46 21.59 21.59 0 01-2 1 6.36 6.36 0 011.81-1.35 14.7 14.7 0 0110.65-1.5 5.82 5.82 0 012.13.84zm-26.83 27.73a2.43 2.43 0 01-.25-.53 14.39 14.39 0 01-.54-1.6 16.55 16.55 0 01-.59-6.17 12.92 12.92 0 011.16-4.16 10.46 10.46 0 011.3-2 11.27 11.27 0 011.87-1.77 9.84 9.84 0 015.12-1.94 7.9 7.9 0 012.92.33 4.87 4.87 0 012.56 1.68 2.35 2.35 0 01.45 1.56 2.48 2.48 0 01-.62 1.47 5 5 0 01-2.56 1.52 9.51 9.51 0 01-5.47-.43 9.82 9.82 0 01-4.05-2.87 9 9 0 01-1.86-3.89 9.73 9.73 0 01.7-6.13 6.49 6.49 0 011.26-1.89 18.22 18.22 0 00-1.08 2 9.85 9.85 0 00-.52 6 8.74 8.74 0 001.83 3.7 9.47 9.47 0 003.89 2.69 9 9 0 005.17.38 4.48 4.48 0 002.29-1.35 1.9 1.9 0 00.15-2.4 4.45 4.45 0 00-2.3-1.49 7.46 7.46 0 00-2.73-.31 9.53 9.53 0 00-4.87 1.82 10.64 10.64 0 00-1.8 1.67 9.75 9.75 0 00-1.26 1.94 12.55 12.55 0 00-1.18 4 17.3 17.3 0 00.41 6.08c.35 1.32.64 2.07.6 2.09zm-87.87-34.09a16.12 16.12 0 01-2.37-.82 45.89 45.89 0 00-5.8-1.68 46.47 46.47 0 00-6-.85 16.22 16.22 0 01-2.51-.22 9.58 9.58 0 012.53-.14 32 32 0 0111.89 2.54 9.57 9.57 0 012.26 1.17zm69.98 26.72a2.09 2.09 0 01-.45.35l-1.35.93c-.59.4-1.31.88-2.19 1.37s-1.84 1.13-3 1.68-2.36 1.24-3.73 1.82-2.84 1.2-4.41 1.8a71.25 71.25 0 01-10.53 2.9 73.81 73.81 0 01-10.85 1.16c-1.68 0-3.28.05-4.77 0s-2.88-.17-4.14-.28-2.4-.28-3.4-.41-1.85-.29-2.55-.43l-1.6-.32a2.28 2.28 0 01-.55-.15 3 3 0 01.57 0l1.62.22c.69.11 1.55.25 2.55.34s2.13.27 3.39.33 2.64.21 4.12.22 3.07 0 4.74 0a77.46 77.46 0 0010.78-1.19 74.85 74.85 0 0010.47-2.84c1.57-.58 3.06-1.12 4.4-1.74s2.61-1.19 3.74-1.75 2.12-1.13 3-1.61 1.62-.92 2.22-1.3l1.4-.83a2.71 2.71 0 01.52-.27z" fill="#fff"/>
  <path d="M250.53 373.18c-1.9-2.35-5.1-3.1-8.07-3.63-5.11-.92-10.32-2.07-15.49-2.55 6.9 3.12 15.47 3.69 22 7.93.5.32 1.12.69 1.64.4.75-.39.44-1.51-.08-2.15zM195 310.07c.6-.26-9.09 6.46-14.57 6.86a22.63 22.63 0 01-15.43-4.69s12.82 5.34 30-2.17z" opacity=".3"/>
</svg>
