<svg xmlns="http://www.w3.org/2000/svg" viewBox="0 0 500 500">
  <ellipse cx="250" cy="351.42" rx="244.98" ry="141.44" fill="#fafafa"/>
  <g fill="#e6e6e6">
    <path d="M378.82 397.55l74.46-43c4.68-2.7 4.68-7.08 0-9.78l-46.64-26.93c-4.68-2.7-12.35-2.85-17.12-.32l-78.1 41.33c-4.78 2.53-4.85 6.77-.17 9.47l50.62 29.23c4.68 2.7 12.27 2.7 16.95 0zm-252.55 0l-74.47-43c-4.68-2.7-4.68-7.08 0-9.78l46.65-26.93c4.68-2.7 12.35-2.85 17.12-.32l78.1 41.33c4.77 2.53 4.85 6.77.17 9.47l-50.62 29.23c-4.68 2.7-12.22 2.7-16.95 0z"/>
    <ellipse cx="252.83" cy="413.76" rx="107.26" ry="61.93"/>
    <path d="M385.9 447.22l-29.61-17.06c-1.44-.84-1.44-2.19 0-3l83.07-48a5.8 5.8 0 015.23 0l29.6 17.06c1.45.84 1.45 2.19 0 3l-83.06 48a5.8 5.8 0 01-5.23 0zm-265.39 0l29.61-17.06c1.44-.84 1.44-2.19 0-3l-83.07-48a5.78 5.78 0 00-5.22 0l-29.61 17.08c-1.45.84-1.45 2.19 0 3l83.06 48a5.8 5.8 0 005.23-.02z"/>
  </g>
  <path d="M63.59 339.65s1.72-18-2.88-32.44-13.39-25-23.29-28.52S16.86 282.31 26 291.6s26.26 27.16 28.71 53.4z" fill="#34a37e"/>
  <path d="M63.59 339.65s1.72-18-2.88-32.44-13.39-25-23.29-28.52S16.86 282.31 26 291.6s26.26 27.16 28.71 53.4z" fill="#fff" opacity=".65"/>
  <path d="M58.1 335.53h.12a.59.59 0 00.49-.63c-1.29-30.23-18.14-48-26.82-52.64a.57.57 0 00-.76.24.56.56 0 00.23.75C39.87 287.76 56 305.48 57.6 335a.54.54 0 00.5.53z" fill="#fff"/>
  <path d="M8.91 309.25c.26 1.75 1.74 3.05 3.15 4.13s2.95 2.25 3.4 4c.89 3.48-3.12 6.89-2.07 10.32a5.58 5.58 0 003.06 3.14c1.12.55 2.33.88 3.5 1.32a13.84 13.84 0 001.75.34 8.07 8.07 0 014.8 1.91c2 2 1.9 5.2 2.7 7.92.95 3.25 2.44 6.15 5.4 7.75a14.88 14.88 0 008.94 1.43L54.71 345c3.73-1.13 3.89-4.65 4-8.5a15.08 15.08 0 00-3.94-10 21.18 21.18 0 00-5.35-4 8.41 8.41 0 01-2.93-2 6.45 6.45 0 01-.83-3 19.09 19.09 0 00-.55-3.61 13.3 13.3 0 00-1.76-3.36 6.61 6.61 0 00-3.18-2.55 23.28 23.28 0 00-6-1.5c-2.62-.28-5.47.45-8-.39s-4.75-2.18-7.37-2.71a9.28 9.28 0 00-8 1.68 5 5 0 00-1.89 4.19z" fill="#34a37e"/>
  <path d="M8.91 309.25c.26 1.75 1.74 3.05 3.15 4.13s2.95 2.25 3.4 4c.89 3.48-3.12 6.89-2.07 10.32a5.58 5.58 0 003.06 3.14c1.12.55 2.33.88 3.5 1.32a13.84 13.84 0 001.75.34 8.07 8.07 0 014.8 1.91c2 2 1.9 5.2 2.7 7.92.95 3.25 2.44 6.15 5.4 7.75a14.88 14.88 0 008.94 1.43L54.71 345c3.73-1.13 3.89-4.65 4-8.5a15.08 15.08 0 00-3.94-10 21.18 21.18 0 00-5.35-4 8.41 8.41 0 01-2.93-2 6.45 6.45 0 01-.83-3 19.09 19.09 0 00-.55-3.61 13.3 13.3 0 00-1.76-3.36 6.61 6.61 0 00-3.18-2.55 23.28 23.28 0 00-6-1.5c-2.62-.28-5.47.45-8-.39s-4.75-2.18-7.37-2.71a9.28 9.28 0 00-8 1.68 5 5 0 00-1.89 4.19z" fill="#fff" opacity=".25"/>
  <path d="M41.06 325.46a2.37 2.37 0 00-.21-.3c-7.36-10.91-19.5-15.88-23.48-16.69a.4.4 0 00-.47.32.4.4 0 00.31.47c3.78.76 15.06 5.34 22.3 15.35a22 22 0 00-17.52.62.39.39 0 00-.14.54.37.37 0 00.31.2.32.32 0 00.23-.05 21.33 21.33 0 0117.94-.11 33.5 33.5 0 015.58 19.28.39.39 0 00.36.4.41.41 0 00.41-.4 34.24 34.24 0 00-5.62-19.63z" fill="#fff"/>
  <path d="M439.92 343s-2.37-25.8 11.37-50.84c7.68-14 19.38-19.78 26.16-19.85 7.6-.08 14.52 6.75 6.78 15.75-7.36 8.55-20 11.2-29.86 34.31a92.1 92.1 0 00-6.51 22c-.24 1.59-2.35 2.35-3.82 1.38z" fill="#34a37e"/>
  <path d="M439.92 343s-2.37-25.8 11.37-50.84c7.68-14 19.38-19.78 26.16-19.85 7.6-.08 14.52 6.75 6.78 15.75-7.36 8.55-20 11.2-29.86 34.31a92.1 92.1 0 00-6.51 22c-.24 1.59-2.35 2.35-3.82 1.38z" fill="#fff" opacity=".5"/>
  <path d="M445.19 337.82a.44.44 0 00.48-.41c0-29.28 18.8-52.17 32.15-59.07a.38.38 0 00.16-.56.52.52 0 00-.65-.15c-13.54 7-32.61 30.18-32.61 59.78a.44.44 0 00.47.41z" fill="#fff"/>
  <path d="M444.73 346.15a2.55 2.55 0 003.7-.93c2.39-5.63 7.29-11.21 15.83-16.78 9.93-6.48 23.2-12 22.11-18.66s-11.14-6.15-18.51-3.23-24.52 15-24.17 38.9z" fill="#34a37e"/>
  <path d="M444.73 346.15a2.55 2.55 0 003.7-.93c2.39-5.63 7.29-11.21 15.83-16.78 9.93-6.48 23.2-12 22.11-18.66s-11.14-6.15-18.51-3.23-24.52 15-24.17 38.9z" fill="#fff" opacity=".25"/>
  <path d="M445.3 346.68a.45.45 0 00.47-.34c1.6-17.75 21.12-35.78 33.74-38.23a.4.4 0 00.35-.49.5.5 0 00-.58-.3c-12.4 1.52-33.77 21-34.44 38.87a.44.44 0 00.38.48z" fill="#fff"/>
  <path d="M313.31 363.06l8.57-92.69 7.95-.4-12.51 93.08a1.07 1.07 0 01-.53.71 3.13 3.13 0 01-2.84.15 1 1 0 01-.62-.85z" fill="#263238"/>
  <path d="M321.88 270.37l7.95-.4-2.34 15.39a31.63 31.63 0 01-4.71-2.16 4.85 4.85 0 01-2.1-1.8z" fill="#263238"/>
  <path d="M427.54 258.46h8l12.74 88.17a1 1 0 01-.57.88 3.16 3.16 0 01-2.84 0 1.09 1.09 0 01-.57-.69z" fill="#37474f"/>
  <path d="M435.5 258.46l3.09 21.41a33.21 33.21 0 01-6.28 3.85l-4.77-25.26z" fill="#263238"/>
  <path d="M366.51 390.28l6.32-94.06 7.95-.4-10.27 94.45a1.09 1.09 0 01-.53.71 3.14 3.14 0 01-2.83.15 1 1 0 01-.63-.85z" fill="#37474f"/>
  <path d="M372 308.12l.8-11.9 7.95-.4-1.4 12.83c-1.74.54-5.01.21-7.35-.53zm12.09-74.92h8l12.74 89.9a1 1 0 01-.58.87 3.07 3.07 0 01-2.83 0 1.07 1.07 0 01-.57-.68z" fill="#263238"/>
  <path d="M450.46 170.52a45.26 45.26 0 013.18 14c.91 10.72-2.72 45.41-4.9 60.93-3.15 25.92-7 26-12.64 30.31-9.66 7.46-37.44 22.09-46.62 25.7-16.63 6.55-30.23-3.54-40.37-8.55A235.49 235.49 0 01322.27 277c-2.53-1.85-3.84-3.71-3.82-5.67v-4.79c0-2.5 2.21-5.18 6.87-8.2 8.59-5.57 39.63-23.68 51.66-30.34a.12.12 0 01.1-.1c9.26-5.62 14.83-43.82 21.24-64.14.14-.44.27-.86.42-1.26s.22-.64.33-.95a32.88 32.88 0 011.26-3" fill="#34a37e"/>
  <path d="M318.44 266.52c0-2.5 2.21-5.18 6.87-8.2 8.59-5.57 39.63-23.68 51.66-30.34a.12.12 0 01.1-.1c9.26-5.62 14.83-43.82 21.24-64.14a36.65 36.65 0 011.34-3.74l.12-.27c.12-.27.24-.55.37-.83l.18-.41a19.46 19.46 0 014.28-6.18 9.24 9.24 0 012.09-1.48c1-.58 3.23-1.8 3.78-2.12 6.29-3.76 14.53.75 24.81 6.38 6.39 3.51 11.85 7.67 15.17 15.43a45.26 45.26 0 013.18 14c.91 10.72-2.72 45.41-4.9 60.93-3.15 25.92-7 26-12.64 30.31-9.66 7.46-37.44 22.09-46.62 25.7-16.63 6.55-30.23-3.54-40.37-8.55A235.49 235.49 0 01322.27 277c-2.53-1.85-3.84-3.71-3.82-5.67.01-.8-.01-3.99-.01-4.81z" fill="#34a37e"/>
  <path d="M318.44 266.52c0-2.5 2.21-5.18 6.87-8.2 8.59-5.57 39.63-23.68 51.66-30.34a.12.12 0 01.1-.1c9.26-5.62 14.83-43.82 21.24-64.14a36.65 36.65 0 011.34-3.74l.12-.27c.12-.27.24-.55.37-.83l.18-.41a19.46 19.46 0 014.28-6.18 9.24 9.24 0 012.09-1.48c1-.58 3.23-1.8 3.78-2.12 6.29-3.76 14.53.75 24.81 6.38 6.39 3.51 11.85 7.67 15.17 15.43a45.26 45.26 0 013.18 14c.91 10.72-2.72 45.41-4.9 60.93-3.15 25.92-7 26-12.64 30.31-9.66 7.46-37.44 22.09-46.62 25.7-16.63 6.55-30.23-3.54-40.37-8.55A235.49 235.49 0 01322.27 277c-2.53-1.85-3.84-3.71-3.82-5.67.01-.8-.01-3.99-.01-4.81z" fill="#fff" opacity=".25"/>
  <path d="M349.13 288.06a234.69 234.69 0 01-26.86-15.91c-5.76-4.18-5.23-8.47 3-13.83 11.48-7.44 58.28-34 58.28-34s59.16 34.92 56.61 41.36-39.16 26.39-50.7 30.93c-16.61 6.55-30.2-3.54-40.33-8.55z" fill="#34a37e"/>
  <path d="M349.13 288.06a234.69 234.69 0 01-26.86-15.91c-5.76-4.18-5.23-8.47 3-13.83 11.48-7.44 58.28-34 58.28-34s59.16 34.92 56.61 41.36-39.16 26.39-50.7 30.93c-16.61 6.55-30.2-3.54-40.33-8.55z" fill="#fff" opacity=".6"/>
  <path d="M406.7 150.83c6.23-3.26 14.32 1.18 24.33 6.66 6.42 3.52 11.88 7.68 15.2 15.48l4.23-2.45c-3.32-7.76-8.78-11.92-15.17-15.43-10.28-5.63-18.52-10.14-24.81-6.38-.55.29-2.74 1.54-3.78 2.12z" fill="#34a37e"/>
  <path d="M406.7 150.83c6.23-3.26 14.32 1.18 24.33 6.66 6.42 3.52 11.88 7.68 15.2 15.48l4.23-2.45c-3.32-7.76-8.78-11.92-15.17-15.43-10.28-5.63-18.52-10.14-24.81-6.38-.55.29-2.74 1.54-3.78 2.12z" fill="#fff" opacity=".5"/>
  <path d="M377.07 227.88s6 2 27.56 12.55c8.83 4.33 14.64 8.71 22.91 13.91 12.18 7.66 11.25 13.35 11.25 13.35 6-5 12.08-63.18 10.6-80.79a44.29 44.29 0 00-3.47-14.65c-.16-.34-.33-.68-.5-1s-.23-.47-.36-.7a3.58 3.58 0 00-.18-.32 26 26 0 00-1.53-2.45c-.13-.2-.27-.39-.4-.57l-.43-.56c-.13-.18-.28-.36-.43-.54l-.37-.43a26.14 26.14 0 00-2.19-2.27 7.15 7.15 0 00-.57-.53 36.53 36.53 0 00-3.86-2.92 8.3 8.3 0 00-.62-.41l-.84-.53c-.24-.14-.47-.29-.71-.42-.63-.37-1.26-.73-1.9-1.08-7.65-4.19-14.18-7.78-19.62-7.78a10.12 10.12 0 00-6.8 2.59c-4 3.54-6.16 11-6.3 11.43-6.41 20.3-11.98 58.5-21.24 64.12z" fill="#34a37e"/>
  <path d="M377.07 227.88s6 2 27.56 12.55c8.83 4.33 14.64 8.71 22.91 13.91 12.18 7.66 11.25 13.35 11.25 13.35 6-5 12.08-63.18 10.6-80.79a44.29 44.29 0 00-3.47-14.65c-.16-.34-.33-.68-.5-1s-.23-.47-.36-.7a3.58 3.58 0 00-.18-.32 26 26 0 00-1.53-2.45c-.13-.2-.27-.39-.4-.57l-.43-.56c-.13-.18-.28-.36-.43-.54l-.37-.43a26.14 26.14 0 00-2.19-2.27 7.15 7.15 0 00-.57-.53 36.53 36.53 0 00-3.86-2.92 8.3 8.3 0 00-.62-.41l-.84-.53c-.24-.14-.47-.29-.71-.42-.63-.37-1.26-.73-1.9-1.08-7.65-4.19-14.18-7.78-19.62-7.78a10.12 10.12 0 00-6.8 2.59c-4 3.54-6.16 11-6.3 11.43-6.41 20.3-11.98 58.5-21.24 64.12z" fill="#fff" opacity=".4"/>
  <path d="M354.61 311.23c5.69-.78 10.59 3.76 11.06 5.22.63 2 .43 5.95-1.87 10.88a34.12 34.12 0 00-2.47 15.49c.43 4.5 2.61 15.72-1.91 21.38s-14.6 10.6-18.21 2.89c-1.18-2.53 1.15-11.3 2.19-17.69 2.05-12.74 3.6-25.4 3.6-25.4z" fill="#263238"/>
  <path d="M356.43 321.39a124.4 124.4 0 00-1.43 18.69c.14 6.83-1.29 11.33-3.64 14.38-2.59 3.38-9.1 5.28-8.35-1.76.52-4.91 4-28.7 4-28.7z" fill="#ffa8a7"/>
  <path d="M363.77 314.2c.27 4.21-2 15.39-7.62 24.76-5.56 9.2-13.7 20-15.24 26.57-.16-3 1.09-8.52 2-13.43l.06-.32.15-.85c0-.13.05-.26.07-.39.07-.36.13-.72.18-1.07v-.07a850.997 850.997 0 002.82-19.19c.14-1.08.27-2 .38-2.89.06-.41.11-.8.15-1.14.18-1.39.28-2.18.28-2.18l7.58-12.77a10.94 10.94 0 011.11-.08 12.49 12.49 0 018.08 3.05z" opacity=".15"/>
  <path d="M331.87 240c18.1-13.51 38.61-28.77 38.61-28.77l58.1 3.5-57.24 42.82-24.66 16.69s-4.71-.37-1.82 7c.91 2.33 2.3 7 3.76 12.29l-11.44 31.54s-7.24-10.52-15.13-30.91c-8-20.64-8.5-27.44-7.68-31.54 1.09-5.38 2.71-11.62 17.5-22.62z" fill="#455a64"/>
  <path d="M342.53 240.63a148.56 148.56 0 00-13.34 11.52 54.33 54.33 0 00-5.78 6.49 10.37 10.37 0 00-1.84 3.56 29.08 29.08 0 00-.55 4.25 38.21 38.21 0 00.66 8.57c.49 2.86 1.19 5.7 1.94 8.53 1.55 5.68 3 11.4 4.43 17.12-2.15-5.5-4.08-11.08-5.87-16.7a75.88 75.88 0 01-2.29-8.62 35.19 35.19 0 01-.73-9 30.79 30.79 0 01.63-4.51 11.88 11.88 0 012.25-4.21 48.88 48.88 0 016.21-6.48 97.57 97.57 0 0114.28-10.52z" fill="#37474f"/>
  <path d="M377.07 245.34c-.73.49-3.94 2.74-4.79 3.34-11.39 8.06-30.63 23.67-32.78 30.51-1.34 4.23-6.41 16.56-9.19 32.57 0 0 .36-10.61.76-21 .55-14.53 3.18-18.62 7.9-24 4.55-5.17 28.78-20 30.47-20.95-4.18-3.31-6.24-10.14-6.23-13.58 0 .01 6.14 10.44 13.86 13.11z" fill="#37474f"/>
  <path d="M343.34 362.91c1.48-.1 1.58 2.43 2.48 5.64.58 2.08 1.69 5.56.48 9.63s-7.63 4.89-10.78 10.3-7.66 15.08-19 18.32-20.39.05-22.78-3.23-.69-6.66 6.39-11.38c7.51-5 9.63-6.49 9.63-6.49z" fill="#263238"/>
  <path d="M328 343.8s-2.86 12.74-5.74 20-7.77 14.37-13.27 21c-1.19 1.45-3.93 4.16-4.91 5.33a2.23 2.23 0 00.31 3.42c2.57 2.34 13.22 2.67 19.09-1.94s11.02-14.2 14.52-17.88a57.92 57.92 0 003.69-4.29 7.44 7.44 0 001.72-4.8 21.27 21.27 0 01.29-6.87c.73-3.77 1.51-5.24 2.6-8.91z" fill="#ffa8a7"/>
  <path d="M427.54 214.66c6.36 19.41 5 29.82 1.47 38.15-2.93 6.94-8.41 14.15-24.22 21.77-15 7.22-29 14.87-32.73 16.62s-4.93 5.87-6.66 13.23c-1.64 7-3.69 18.28-11.3 33.11-8 15.66-10.21 20.29-10.21 20.29s-10.89 3.39-18.74-3.94c0 0 7.15-60 8.92-69.69 1.18-6.51 2.92-10.11 8.13-14.79 12.12-10.89 34.5-24 34.5-24s-1.67-19.79 2.2-30.7z" fill="#455a64"/>
  <path d="M331.51 341.66q1.17-13.1 2.9-26.12c1.16-8.69 2.41-17.35 4.14-26 .22-1.08.48-2.16.74-3.24l.48-1.64.59-1.6a25.82 25.82 0 013.4-5.87 48.41 48.41 0 019.7-9.12c3.53-2.64 7.25-5 10.94-7.33s7.4-4.69 11.15-7c-3.52 2.62-7.1 5.14-10.65 7.71s-7.15 5-10.55 7.74a50 50 0 00-9.17 9 25.07 25.07 0 00-3.1 5.5l-.54 1.48-.44 1.52c-.24 1.05-.49 2.1-.7 3.17-.9 4.25-1.63 8.56-2.36 12.87l-2.16 12.95q-2.1 13.03-4.37 25.98z" fill="#37474f"/>
  <path d="M280.46 122.16a6.17 6.17 0 013.6.28 39.43 39.43 0 015.15 2.89c2.64 1.43 6.88 3.78 9.93 3.65.62 0 1.9-.28 1.06-1a25.59 25.59 0 01-3.21-3.12 5.36 5.36 0 01-1.25-4.15 1.78 1.78 0 01.62-1.16c.51-.38.87-.14 1.27.16a13.33 13.33 0 001.36.83c1 .54 1.92 1.08 2.87 1.64 5.54 3.25 11.09 7 14.37 12.73.47.83 3.34 7.32 5.19 11 1.5 3.34 12.91 24.27 12.91 24.27l20.33-19.82c4.55-4.55 9.1-8.77 13.14-10.32 2.89-1.11 6.89-2.6 6.89-2.6l-7.42 34.83s-21.48 16.15-24.55 18.37c-4.55 3.3-13.64 8.63-18.15 3.06-6.12-7.56-9.1-18.47-12-26.79s-4.38-13.37-6-16.24-4.33-3.07-6.22-3.66a29.15 29.15 0 01-7.46-3.26 26.77 26.77 0 01-5.74-4.23 8.45 8.45 0 01-2.22-2.66c-.29-.91-.12-1.91-.53-2.83s-1.38-1.83-1.72-2.91a10.62 10.62 0 01-.18-2.65c-.06-1.41-.92-2.23-1.9-3.13a4.12 4.12 0 01-1.24-1.46c-.36-1.03.3-1.5 1.1-1.72z" fill="#ffa8a7"/>
  <path d="M325.65 153.38l-2.83-4.73a14.43 14.43 0 01-5.77 6.77c-4.58 3.05-7.68 1.94-7.68 1.94l1.67 5.69s3.46 1.29 8.93-2.32 5.68-7.35 5.68-7.35z" fill="#34a37e"/>
  <path d="M378.83 134.94c-8.36.56-13.89 4-18.65 8s-25.6 23.53-25.6 23.53l-9.84-15.14s-.57 4.18-6.29 7.5c-6 3.5-8.22 2.31-8.22 2.31s4.48 18 9.41 26.85 7.75 11.74 15.8 8.11S371 172 371 172z" fill="#263238"/>
  <path d="M302.62 131.63c1.27 3.48 4.78 7.42 6.81 8.57 0 0-3.33-.34-5.07-2.59a7.67 7.67 0 01-1.74-5.98z" fill="#f28f8f"/>
  <path d="M334.58 166.48c3.44 6 4.52 13.64 3.8 17.56 2.5-6.31 2.68-12.95-1.57-19.64z"/>
  <path d="M402.22 73.5a18.37 18.37 0 0115.94-.61c6.93 3.37 8.32 7.17 9.18 15.21 1.29 12.08 2.24 15.71 3.76 18.42a10.18 10.18 0 006.15 4.89 7.06 7.06 0 01-6.85.51c1.4 5.78 3.26 10.61 2 16.81-.88 4.18-2.89 9-6 12-2.63 2.62-6.5 3.52-9.72 5.05 2.05-4.8 3.09-9.31 1.39-14.58-1.87-5.81-6-10.68-7.9-16.54-2.69-8.11-5.73-16.49-6.69-25-.85-7.19-1.15-11.22-1.26-16.16z" fill="#263238"/>
  <path d="M401.09 73c.73-1.26 5.43-2 9.14.43s6.77 6.67 4.22 10.21c-2.4 3.36-18.29-5.71-13.36-10.64z" fill="#34a37e"/>
  <path d="M415.9 137.83c7 2.75 7.73 3 7.73 3 1.46 3.82 7.94 14.32 6.23 24.58s-7 32-5.85 36.27 7.06 16.18 9.17 29c0 0-4.2 2.51-8 4.2 0 0-2.37-14.85-6.3-20.12a188 188 0 010 19.15 60.69 60.69 0 01-36.05.87c-20.49-5.89-22-16.35-22-16.35s3.56-13.23 3.56-20-1.23-17.63-1.23-17.63-8.8-8.64-5.84-18.28c2.81-9.14 18.23-24.44 21.49-27.58a46.87 46.87 0 009.05-.72z" fill="#37474f"/>
  <path d="M408.82 137.22c-1 5-3 6.23-8.67 12.45s-23.41 23.17-25 30.53c-1.07-6.31-2.51-14.76-.85-22.15s5.71-17.19 12.07-22.18l21.93-.93z" fill="#34a37e"/>
  <path d="M370.17 99.37c-5.3-19.54 12.71-29.53 30.63-26.37 5.9 1 13.52 4.41 14.33 12.82 7.8 2.45 11.55 12.88 6.73 24-3.49 8.09-10.47 12.11-13.63 17.08z" fill="#263238"/>
  <path d="M415.49 102.16c-5-2.19-7.53 3.06-7.53 3.06-3.26 2-5.14-4.51-5.85-6.47-1.25-3.44-2.43-8.34-6.24-9.76-2.83-1.06-6 0-8.62 1.54a6.53 6.53 0 01-5.18.69c-1.55-.42-2-2.85-3.45-3.6-4.07-2.19-7.23 4.51-7.79 7.72a65.76 65.76 0 00-.94 13c.3 14.56 5.18 20.48 7.65 21.81s5.52 1.69 10.38 1.29l-.07 4.3a40.47 40.47 0 00-3.49 15c10.72-3.54 17.2-8.38 23.9-14.78v-19.52c.92 1.9 5.24 2.81 7.91-.61 3.43-4.47 4.12-11.57-.68-13.67z" fill="#ffa8a7"/>
  <path d="M389.76 117.84l-6.8 2.1a3.49 3.49 0 004.38 2.47 3.73 3.73 0 002.42-4.57z" fill="#b16668"/>
  <path d="M389.31 119.4a3.91 3.91 0 00-3.94 3 3.31 3.31 0 002 0 3.67 3.67 0 002.5-2.94 3.21 3.21 0 00-.56-.06zm-1.39 12.02c4.72-.72 13.33-3 14.76-6.9 0 0 .22 3.15-3.43 5.93-3.05 2.32-11.37 3.77-11.37 3.77z" fill="#f28f8f"/>
  <path d="M372.61 96.13l4.85 1.45a2.43 2.43 0 00-1.6-3.14 2.67 2.67 0 00-3.25 1.69zM394.42 99L390 96.56a2.43 2.43 0 013.36-1.07 2.66 2.66 0 011.06 3.51zm-20.94 5.88a2.05 2.05 0 102.21-2 2.09 2.09 0 00-2.21 2zM389 106a2.06 2.06 0 102.22-2 2.12 2.12 0 00-2.22 2z" fill="#263238"/>
  <path d="M364.48 100a4.44 4.44 0 001 2.17 1.92 1.92 0 01.39.77c.38 1.46.72 4.21 1.43 5.78a6.89 6.89 0 006.21 4.39 8.32 8.32 0 002.09-.06h.16a5.69 5.69 0 001.69-.58l.1-.06.15-.08.18-.12a1.67 1.67 0 00.16-.12 1.33 1.33 0 00.19-.14l.17-.14c.11-.1.22-.21.32-.32a7.08 7.08 0 001.34-2.1c.85-1.94.58-4.75 2-5h.37c2 .14 1.81 3.17 3 5.4a8.06 8.06 0 007.31 4.75h1a8.22 8.22 0 001-.09l.32-.06.31-.07h.2a5.12 5.12 0 001.16-.49 3 3 0 00.38-.24 5.17 5.17 0 00.67-.55 6.4 6.4 0 001.27-2c.65-1.47.78-4.19 1.09-5.6a2 2 0 01.32-.8 3.6 3.6 0 00.93-2 1.93 1.93 0 00-1.22-1.86l-1.06-.19c-3.41-.6-7.84-1-10.48-.45-3.31.73-4.44 1.73-6.3 1.61s-2.87-1.3-6-2.5c-2.52-1-6.66-1.15-9.82-1l-1 .05c-.51 0-1.11.79-1.03 1.7zm21.89 3.26a2.7 2.7 0 01.94-.72l.17-.08h.09l.46-.19.43-.16a11.32 11.32 0 011.42-.36l.56-.11c.48-.07 1-.12 1.45-.15h.35c3.19-.09 5.2.77 5.94 1.47s.47 3.65.18 5.13a.36.36 0 010 .11.5.5 0 010 .12 6 6 0 01-.13.6l-.09.37c-.06.2-.12.41-.2.62l-.09.21a2.08 2.08 0 01-.12.26 1.42 1.42 0 01-.08.18l-.11.19a2.12 2.12 0 01-.12.2l-.14.21a4.65 4.65 0 01-4.44 1.86 6.63 6.63 0 01-4.75-2 7.25 7.25 0 01-1.6-3.12c-.49-1.79-.73-3.76-.12-4.64zm-18.84-2.58a2.37 2.37 0 01.77-.45h.06a2.89 2.89 0 01.35-.11l.21-.06h.51a5.43 5.43 0 01.73-.08h1.71a12.65 12.65 0 011.48.22c2.28.45 4.68 1.63 5.32 2.6s.53 2.91.26 4.57a7.41 7.41 0 01-.28 1.1.31.31 0 010 .08.76.76 0 000 .11v.08s0 .09-.05.13l-.12.27-.12.23v.08l-.09.15-.09.14c-.78 1.17-2.18 2.14-4.72 1.91a5.9 5.9 0 01-2.4-.71c-2.29-1.27-2.91-3.85-3.19-5-.52-1.65-1.01-4.65-.34-5.26z" fill="#37474f"/>
  <path d="M400.34 101.05l9.71 1.66a8.36 8.36 0 00-1.89 2.14l-7.86-1.34z" fill="#37474f"/>
  <path d="M383.26 104.65L382 116.5l-7-2.45 7.58-9.67a1.54 1.54 0 01.68.27z" fill="#f28f8f"/>
  <path d="M410.22 114a1.85 1.85 0 101.84-1.85 1.84 1.84 0 00-1.84 1.85z" fill="#fafafa"/>
  <path d="M408.26 132.7v2.24a185.25 185.25 0 01-13 16.16c-8.6 9.49-15.95 16.71-18.59 23.29a69.87 69.87 0 00-3.67 14.75 36.91 36.91 0 0112.77-18.88c6.23-5 16.3-8.82 18.2-12 1.79-3-1.81-7.16-1.81-7.16s6.13-1.95 9.88-4.67 3.84-8.6 3.84-8.6z" fill="#263238"/>
  <path d="M387.85 135.72a40.29 40.29 0 00-10.57 19.55c-1.59 8.45-2.29 27.67-2.29 27.67s-2.24-13-3.46-18.48-1.85-9.76 4.16-15.43c-1.48-2.57-1.74-3.53 1.4-7.28a28 28 0 015.85-5.44l4.91-3.15z" fill="#263238"/>
  <path d="M375.37 208.19c-3.35-.34-6.58-3.43-10.89-5.07s-8-1.69-11-2.89c-1.22.69-.59 3.27.86 4.38 2.26 1.73 5.7 2.81 4.88 3.73-1.21 1.36-5.86.42-7.27.13-4.35-.9-9-3.51-13.5-2.55a2 2 0 00-1.24.68 1.55 1.55 0 00.35 1.85 8.79 8.79 0 001.67 1.14 2.31 2.31 0 011.15 1.59c.05.62-.32 1.22-.24 1.83a2.25 2.25 0 00.52 1.06 7.4 7.4 0 001.62 1.49 11.55 11.55 0 011.49 1 15.41 15.41 0 012.63 2.6c2.38 3.87 7.48 5 11.62 5.75 8.85 1.54 12.91-.32 18.13-.22s27.44-.58 38.85-1.4c11.95-.85 13.4-3.07 16.77-14.48a327.08 327.08 0 008.95-40.71c1.89-14.33-4.66-22.09-15.13-26.19-2.48 2.19-7.94 12.51-10.34 31.5l-5.11 28.62s-31.41 6.51-34.77 6.16z" fill="#ffa8a7"/>
  <path d="M383.8 206.77l-5.53 1.2a46.41 46.41 0 011 8.61 30 30 0 01-.8 8.13l6.74.2s3.79-10.5-1.41-18.14z" fill="#34a37e"/>
  <path d="M423.63 140.81c6.44 2.27 11.17 4.72 14.45 9.89s3.92 11.57 2.53 22.3-8 36.68-9.83 42.62-3 7.28-9.3 8.38-38.79 1.4-38.79 1.4 1.22-3.47.74-9.7-1.7-8.9-1.7-8.9l28-5.1s4.45-26.76 6-35.16 3.08-15.84 7.9-25.73z" fill="#263238"/>
  <path d="M409.78 201.67c3.87-.42 10.37 2.18 12.28 5.76-.8-3.77-4.8-7.91-11.88-7.89z"/>
  <path d="M192 362.66l-8.64-93.42-8-.4 12.61 93.81a1.09 1.09 0 00.54.72 3.15 3.15 0 002.85.14 1 1 0 00.63-.85z" fill="#263238"/>
  <path d="M183.34 269.24l-8-.4 2.36 15.51a31.11 31.11 0 004.74-2.18 4.88 4.88 0 002.12-1.81z" fill="#263238"/>
  <path d="M76.86 257.24h-8L56 346.1a1 1 0 00.58.88 3.14 3.14 0 002.86 0 1.09 1.09 0 00.57-.69z" fill="#37474f"/>
  <path d="M68.84 257.24l-3.12 21.58a33.5 33.5 0 006.33 3.87l4.81-25.45z" fill="#263238"/>
  <path d="M138.37 390.09L132 295.3l-8-.41 10.35 95.19a1.09 1.09 0 00.54.72 3.15 3.15 0 002.85.14 1 1 0 00.63-.85z" fill="#37474f"/>
  <path d="M132.81 307.29l-.81-12-8-.41 1.4 12.94c1.78.55 5.07.18 7.41-.53zm-12.16-75.51h-8l-12.84 90.6a1 1 0 00.59.88 3.14 3.14 0 002.86 0 1.06 1.06 0 00.57-.69z" fill="#263238"/>
  <path d="M53.77 168.62a45.25 45.25 0 00-3.21 14.09c-.91 10.79 2.74 45.76 4.94 61.4 3.17 26.12 7.07 26.17 12.73 30.54 9.74 7.53 37.74 22.27 47 25.91 16.76 6.6 30.46-3.57 40.68-8.62a236.12 236.12 0 0027.06-16c2.55-1.86 3.87-3.73 3.85-5.71v-4.82c0-2.52-2.23-5.23-6.92-8.27-8.66-5.62-39.95-23.86-52.07-30.58a.12.12 0 00-.1-.1c-9.33-5.66-14.94-44.16-21.4-64.64-.14-.44-.28-.86-.42-1.27s-.23-.65-.34-.95c-.41-1.12-.82-2.14-1.27-3.07" fill="#34a37e"/>
  <path d="M186.81 265.37c0-2.52-2.23-5.23-6.92-8.27-8.66-5.62-39.95-23.86-52.07-30.58a.12.12 0 00-.1-.1c-9.33-5.66-14.94-44.16-21.4-64.64A38.76 38.76 0 00105 158c0-.09-.08-.18-.11-.27-.12-.27-.24-.55-.37-.83s-.12-.29-.19-.42a19.6 19.6 0 00-4.31-6.23 9.33 9.33 0 00-2.11-1.48c-1-.59-3.25-1.82-3.8-2.14-6.34-3.79-14.65.76-25 6.43-6.44 3.53-11.94 7.73-15.28 15.55a45.25 45.25 0 00-3.21 14.09c-.91 10.79 2.74 45.76 4.94 61.4 3.17 26.12 7.07 26.17 12.73 30.54 9.74 7.53 37.74 22.27 47 25.91 16.76 6.6 30.46-3.57 40.68-8.62a236.12 236.12 0 0027.06-16c2.55-1.86 3.87-3.73 3.85-5.71-.09-.81-.07-4.03-.07-4.85z" fill="#34a37e"/>
  <path d="M186.81 265.37c0-2.52-2.23-5.23-6.92-8.27-8.66-5.62-39.95-23.86-52.07-30.58a.12.12 0 00-.1-.1c-9.33-5.66-14.94-44.16-21.4-64.64A38.76 38.76 0 00105 158c0-.09-.08-.18-.11-.27-.12-.27-.24-.55-.37-.83s-.12-.29-.19-.42a19.6 19.6 0 00-4.31-6.23 9.33 9.33 0 00-2.11-1.48c-1-.59-3.25-1.82-3.8-2.14-6.34-3.79-14.65.76-25 6.43-6.44 3.53-11.94 7.73-15.28 15.55a45.25 45.25 0 00-3.21 14.09c-.91 10.79 2.74 45.76 4.94 61.4 3.17 26.12 7.07 26.17 12.73 30.54 9.74 7.53 37.74 22.27 47 25.91 16.76 6.6 30.46-3.57 40.68-8.62a236.12 236.12 0 0027.06-16c2.55-1.86 3.87-3.73 3.85-5.71-.09-.81-.07-4.03-.07-4.85z" fill="#fff" opacity=".25"/>
  <path d="M155.88 287.07A237 237 0 00183 271c5.81-4.22 5.27-8.53-3.06-13.94-11.56-7.5-58.72-34.26-58.72-34.26S61.55 258 64.11 264.52s39.47 26.6 51.09 31.17c16.8 6.6 30.47-3.57 40.68-8.62z" fill="#34a37e"/>
  <path d="M155.88 287.07A237 237 0 00183 271c5.81-4.22 5.27-8.53-3.06-13.94-11.56-7.5-58.72-34.26-58.72-34.26S61.55 258 64.11 264.52s39.47 26.6 51.09 31.17c16.8 6.6 30.47-3.57 40.68-8.62z" fill="#fff" opacity=".6"/>
  <path d="M97.86 148.78c-6.28-3.3-14.43 1.18-24.52 6.71-6.46 3.54-12 7.74-15.31 15.59l-4.26-2.46c3.34-7.82 8.84-12 15.28-15.55 10.36-5.67 18.67-10.22 25-6.43.56.36 2.76 1.55 3.81 2.14z" fill="#34a37e"/>
  <path d="M97.86 148.78c-6.28-3.3-14.43 1.18-24.52 6.71-6.46 3.54-12 7.74-15.31 15.59l-4.26-2.46c3.34-7.82 8.84-12 15.28-15.55 10.36-5.67 18.67-10.22 25-6.43.56.36 2.76 1.55 3.81 2.14z" fill="#fff" opacity=".5"/>
  <path d="M106.32 161.78c-.14-.44-2.3-7.95-6.35-11.52a10.24 10.24 0 00-6.86-2.61c-5.48 0-12.06 3.62-19.77 7.84-.64.36-1.28.72-1.91 1.09-.24.14-.48.28-.71.43l-.86.53-.62.41a37.16 37.16 0 00-3.89 3 7.28 7.28 0 00-.58.54 26.42 26.42 0 00-2.2 2.28c-.13.15-.26.29-.37.44l-.44.54c-.15.18-.28.37-.43.56s-.27.38-.4.58a26.3 26.3 0 00-1.55 2.46l-.18.33c-.13.23-.24.46-.36.7s-.34.69-.5 1a44.41 44.41 0 00-3.49 14.77c-1.5 17.74 4.58 76.36 10.67 81.42 0 0-.93-5.74 11.34-13.46 8.34-5.24 14.19-9.65 23.09-14 21.69-10.65 27.77-12.65 27.77-12.65-9.33-5.7-14.94-44.2-21.4-64.68z" fill="#34a37e"/>
  <path d="M106.32 161.78c-.14-.44-2.3-7.95-6.35-11.52a10.24 10.24 0 00-6.86-2.61c-5.48 0-12.06 3.62-19.77 7.84-.64.36-1.28.72-1.91 1.09-.24.14-.48.28-.71.43l-.86.53-.62.41a37.16 37.16 0 00-3.89 3 7.28 7.28 0 00-.58.54 26.42 26.42 0 00-2.2 2.28c-.13.15-.26.29-.37.44l-.44.54c-.15.18-.28.37-.43.56s-.27.38-.4.58a26.3 26.3 0 00-1.55 2.46l-.18.33c-.13.23-.24.46-.36.7s-.34.69-.5 1a44.41 44.41 0 00-3.49 14.77c-1.5 17.74 4.58 76.36 10.67 81.42 0 0-.93-5.74 11.34-13.46 8.34-5.24 14.19-9.65 23.09-14 21.69-10.65 27.77-12.65 27.77-12.65-9.33-5.7-14.94-44.2-21.4-64.68z" fill="#fff" opacity=".4"/>
  <path d="M141.73 347.58l7.38 1.45.54-5.26-5.8 1.15-2.12 2.66z"/>
  <path d="M142.21 333s-2.64 3.75-3.45 4.94 2.06 8.24 3 9.67l2.12-2.66c.43 1.82.22 3.66.13 6.5-.07 2.37-.83 6.48.55 10.45 2 5.88 7.4 11.54 13.79 15.81s11.13 5 13.86 4.71 4.35-1.57 4.91-3.52-34.91-45.9-34.91-45.9z" fill="#263238"/>
  <path d="M167.9 330.46l1.48-2.22c1.22.71-.65 4.08-.67 8 0 5.33.48 12.31 1.95 17.45 2.9 10.13 6.47 17.57 7.75 22.12 1.72 6.08-8.81 7.57-19.11.39-5.11-3.57-12.88-12-13.59-16.79s.67-10.64 0-14.23-3.84-8.67-3.46-12.24c.21-2 2.78-5.27 5.06-8 2.11-2.52 4.8-6.7 6.14-5.39l-.76 1.48c-.11 1.6.13 4.51 4 7.86 1.83 1.7 8.07 5.81 11.21 1.57z" fill="#37474f"/>
  <path d="M160 331.14c2.14 1.08 4.75 1.76 6.74.45h.07a6.1 6.1 0 00-1.3 5.2c.53 3.41 2.87 26.59 2.87 26.59s-3.21-19.91-3.85-23.68c-.95-5.58-1.7-6.63-4.55-8.52zm.06 5.86a.77.77 0 01-1.21-.95.77.77 0 011.21.95zm1 5.38a.78.78 0 01-1.08.13.77.77 0 011-1.21.78.78 0 01.08 1.08zm1 5.42a.77.77 0 01-1.08.14.77.77 0 111-1.21.76.76 0 01.08 1.07zm1 5.43a.77.77 0 11-.13-1.08.77.77 0 01.13 1.08zm1 5.42a.77.77 0 11-.13-1.07.76.76 0 01.13 1.07z" opacity=".15"/>
  <path d="M159.27 336.73a.29.29 0 01-.12-.18.31.31 0 01.23-.37c.22-.05 5.22-1.14 9.18 1.64a.31.31 0 01.07.42.31.31 0 01-.43.08c-3.74-2.62-8.64-1.55-8.69-1.54a.31.31 0 01-.24-.05zm1.01 5.42a.35.35 0 01-.12-.19.3.3 0 01.23-.36c.22-.05 5.22-1.14 9.18 1.63a.32.32 0 01.07.43.31.31 0 01-.43.07c-3.73-2.61-8.64-1.54-8.69-1.53a.31.31 0 01-.24-.05zm.99 5.43a.32.32 0 01-.12-.18.32.32 0 01.24-.37c.21 0 5.21-1.14 9.18 1.63a.29.29 0 01.07.42.31.31 0 01-.43.08c-3.73-2.61-8.64-1.55-8.69-1.54a.31.31 0 01-.25-.04zm1 5.42a.34.34 0 01-.12-.18.32.32 0 01.24-.37c.21 0 5.22-1.14 9.18 1.64a.31.31 0 11-.36.5c-3.73-2.61-8.64-1.54-8.69-1.53a.32.32 0 01-.25-.06zm1.01 5.43a.28.28 0 01-.12-.18.3.3 0 01.23-.37c.21-.05 5.22-1.14 9.18 1.63a.31.31 0 01.07.43.32.32 0 01-.43.08c-3.73-2.62-8.64-1.55-8.68-1.54a.3.3 0 01-.25-.05z" fill="#263238"/>
  <path d="M177.46 399.66l7.1-3.24-2.72-4.77-4.2 4.48-.18 3.53z"/>
  <path d="M169 387s0 4.76.06 6.26 6.73 5.71 8.36 6.37l.18-3.53c1.46 1.28 2.39 3 4 5.41 1.37 2 3.2 6 6.76 8.49 5.28 3.74 13.22 5.28 21.2 5s12.4-2.52 14.54-4.4 2.73-3.94 2-5.92S169 387 169 387z" fill="#263238"/>
  <path d="M189.22 369.4l-.09-2.76c1.46-.15 1.91 3.83 4.29 7.18 3.19 4.5 7.83 10.11 12.17 13.55 8.56 6.81 16.08 10.94 19.9 14 5.12 4.1-2.86 11.72-15.9 11.87-6.47.08-18.14-2.38-21.62-6s-5.85-9.4-8.62-12-8.48-5-10.31-8.25c-1-1.79-.84-6.13-.56-9.82.25-3.39 0-8.55 1.93-8.26l.25 1.72c.87 1.41 2.83 3.72 8.09 4.24 2.62.3 10.38.01 10.47-5.47z" fill="#37474f"/>
  <path d="M182.93 374.76c2.46-.38 5.08-1.38 6-3.69V371a6.3 6.3 0 002 5.17c2.51 2.56 18.48 20.72 18.48 20.72S194.72 382 191.9 379.22c-4.17-4.14-5.43-4.57-9-4.45z" fill="#263238"/>
  <path d="M186.52 379.62a.79.79 0 01-.83.76.81.81 0 01-.77-.83.79.79 0 01.83-.76.81.81 0 01.77.83zm4.12 3.98a.8.8 0 01-1.59-.07.78.78 0 01.82-.76.81.81 0 01.77.83zm4.12 3.97a.79.79 0 01-.83.76.79.79 0 01-.76-.82.8.8 0 01.82-.77.81.81 0 01.77.83zm4.12 3.98a.8.8 0 11-.76-.83.79.79 0 01.76.83zm4.12 3.97a.81.81 0 01-.83.77.8.8 0 11.83-.77z" opacity=".15"/>
  <path d="M185.72 379.91a.32.32 0 01-.24-.54c.15-.16 3.72-4.11 8.74-4.16a.32.32 0 010 .64c-4.73 0-8.23 3.91-8.26 3.95a.35.35 0 01-.24.11zm4.12 3.96a.32.32 0 01-.21-.08.32.32 0 010-.45c.15-.17 3.72-4.12 8.74-4.17a.32.32 0 01.32.32.32.32 0 01-.32.32c-4.72.05-8.23 3.91-8.26 3.95a.32.32 0 01-.27.11zm4.16 3.99a.32.32 0 01-.21-.08.32.32 0 010-.45c.15-.17 3.72-4.12 8.74-4.17a.32.32 0 01.32.32.32.32 0 01-.32.32c-4.72.05-8.23 3.91-8.26 3.95a.32.32 0 01-.27.11zm4.08 3.98a.33.33 0 01-.21-.09.32.32 0 010-.45c.15-.17 3.72-4.11 8.74-4.16a.32.32 0 01.32.32.32.32 0 01-.32.32c-4.72.05-8.23 3.91-8.26 4a.32.32 0 01-.27.06zm4.12 3.97a.32.32 0 01-.21-.08.32.32 0 010-.45c.15-.17 3.72-4.12 8.74-4.17a.33.33 0 01.31.32.32.32 0 01-.32.32c-4.72.05-8.22 3.91-8.26 3.95a.32.32 0 01-.26.11z" fill="#263238"/>
  <path d="M182.15 328c2.42-8.31 6.09-21 8.43-29.51 3.73-13.56 6.29-27.66 5-34.25-1.67-8.89-10.35-18-22.91-26.49C159 228.5 141 216.42 141 216.42l-74.13 1c.21 11.95-1.68 21.3 2.59 32.66 3.77 10 10.08 15.75 29.42 27.18 13.73 8.1 29.8 17.24 33.27 19.52 4.4 2.88 8.55 5.19 9.89 12.7 1.28 7.16 2.68 19.58 9.78 35 8.12 17.68 15.37 33.41 15.37 33.41s15.81 3.54 25.81-8.1c0 0-5.18-20.26-10.85-41.79z" fill="#455a64"/>
  <path d="M181.9 326.06c-5.34-20.19-10.76-40.17-12.42-44.5-3.55-9.19-39.7-36.85-40.82-37.74 0 0 7.27-3.93 11.56-14.95-.33 9-4.34 13-5.64 15.26 5.47 4.52 17.84 14.11 23.39 19 7 6.11 14.31 13.37 16.64 22.84 1.73 7.03 5.47 29.1 7.29 40.09z" fill="#37474f"/>
  <path d="M174.89 166.12c10.33-8.9 13.3-11.37 14.31-14.42s.92-5.73 1.41-10.6 1.14-9.43 1.45-12c.32-2.71 2-3.54 4-1 1.7 2.23 1.2 5.8 1.42 8.25.25 2.9 1.8 2.62 3.43.66s9.3-11.75 12.07-14.59 4.91-2.42 5.81-1.14c.52.73-.91 2.44-4.26 6.91s-5.18 6.63-4.86 6.87 2.24-2.06 6.23-6.1c3.67-3.73 4.73-4.84 6.68-5.77 2.31-1.1 3.57 1.23 2.4 2.74s-2 2.63-7.14 8.3c-3.57 3.94-3.8 4.49-3.51 4.78s2-1.17 5.86-4.51c4.15-3.55 6.28-4.69 7.73-3.61a1.47 1.47 0 01.25 1.69 18.12 18.12 0 01-4.15 4.43c-2.6 2.22-3.43 3.07-4.74 4.21s-1.49 1.63-1.18 1.95 2.7-1.11 7.56-4.89c1.73-1.34 4 1 .78 3.95-1.72 1.59-9.11 9.1-13.27 12.92-4.66 4.29-8.14 5.61-11.87 9.42C198 168.05 185 182 185 182z" fill="#b16668"/>
  <path d="M199.62 141.7c2.3 4.55 1.85 11.69-1 15.65 4.58-2.44 5.9-10.85 1-15.65z" fill="#9a4a4d"/>
  <path d="M125.76 171.15l-4.61-40.74c10 1.4 14.25 3.93 21.51 14 4 5.6 13.17 17.8 21.7 28.87l20.44-17.58s10.12 7.35 12.7 15.59c0 0-23.8 25-29.15 29.49-4.88 4.08-8.6 6.57-16.69-1.07s-23.66-25.41-25.9-28.56z" fill="#f0f0f0"/>
  <path d="M189.69 171.32a50 50 0 00-3.89-4.21 15.79 15.79 0 00-5-3.52c-.42-.16-.65.29-.3.56a46.43 46.43 0 018.17 7.8 33.15 33.15 0 012.94 4.19c.15.26.29.52.43.79l.84-.87a28.67 28.67 0 00-3.19-4.74zm-25.33 1.93c-4.33 3.58-8.36 10-8.66 14.81-.34-7.51 2.2-12.69 7.05-16.91z" fill="#e0e0e0"/>
  <path d="M61.75 141.85s-6.41 10.57-2.4 27.81c3.14 13.53 5.82 18.66 6.39 32.79.74 18.34.47 34.81.47 34.81 24.64 8.26 67.61-5.89 74.74-20.84 0 0-2.56-12.2-7.19-62.47a34.27 34.27 0 00-12.61-23.54l-12.68-1.52-17.75-.22-10.13 3.9z" fill="#fafafa"/>
  <path d="M124.14 75.15C120.35 68.77 114 65 103 65.57c-13.34.69-20.27 7.19-21.22 12.64a9.47 9.47 0 00-5 4.77c-1.27 2.41-2.17 6.83 1.25 19.45a51 51 0 006 13.93 6.2 6.2 0 003.62 2.9l-.24-9.7-.35-3.87S91.89 105.31 92 92c0-1.8.19-3.27.12-4.48l33.35 2.23s2.47-8.22-1.33-14.6z" fill="#263238"/>
  <path d="M78.61 112.4c3.8 2 7.32-1.52 7.32-1.52l.73 20s.39 3.86 6.53 7.25c8.72 4.82 14.23 5.48 18 10.62 2.82-8.62 4.23-12.95-1.34-19.49v-5.39a30.86 30.86 0 008.16-.81c5.3-1.53 7.28-4.34 8.28-9.49 1.41-7.26.93-16.64-1.73-28.78a10.19 10.19 0 00-3.68-6c-5.88-4.44-14.62-.17-22.07 2.72-3.08 1.19-9.18 1.44-11.15.51 2.59 2.87 3.19 10 1.7 17.19-.52 2.48-1.38 3-1.92 3-2.16-.06-3-2.72-4.33-4.15s-6.5-2.71-8.72 2a9.21 9.21 0 004.22 12.34z" fill="#b16668"/>
  <path d="M109.8 123.87c-7.25-.41-12.39-1.67-15.18-3.82a25.66 25.66 0 01-6.2-7.73s1.08 6.85 5.08 10 8.72 4.92 16.31 4.92z" fill="#9a4a4d"/>
  <path d="M105.37 90.8l-5.31.71a2.82 2.82 0 012.37-3.08 2.61 2.61 0 012.94 2.37zm-3.7 6.06a2.18 2.18 0 102.1-2.25 2.18 2.18 0 00-2.1 2.25zM118 88.81l5 1.88a2.81 2.81 0 00-1.62-3.53 2.61 2.61 0 00-3.38 1.65zm4.33 6.65a2.18 2.18 0 11-2.11-2.26 2.19 2.19 0 012.11 2.26z" fill="#263238"/>
  <path d="M110.39 91.42l1.78 13.89 7.34-2.7a32.42 32.42 0 00-9.12-11.19zM106.72 109l7.39 1.34a3.69 3.69 0 01-4.28 3.15 3.94 3.94 0 01-3.11-4.49z" fill="#9a4a4d"/>
  <path d="M107.65 110.2a3.89 3.89 0 00-.91 0 3.88 3.88 0 003.09 3.28 3.45 3.45 0 001.2 0 3.43 3.43 0 00-3.38-3.28z" fill="#f28f8f"/>
  <path d="M114.29 147.21s2.85-6.46 2.69-8.91l-4.25-3.83-.56 10.28z" fill="#34a37e"/>
  <path d="M114.29 147.21s2.85-6.46 2.69-8.91l-4.25-3.83-.56 10.28z" opacity=".2"/>
  <path fill="#34a37e" d="M108.7 145.38l-7.07-4.14-5.4 4.17 10.76 4.61 1.71-4.64z"/>
  <path opacity=".2" d="M108.7 145.38l-7.07-4.14-5.4 4.17 10.76 4.61 1.71-4.64z"/>
  <path d="M110.5 197c-.93-21.84-.1-38.51-.86-43.79l3.69-.61c3 6.19 12.51 24.55 13.33 39.63.54 5.24-2 17.35-5.51 17.72s-10.51-9.71-10.65-12.95z" fill="#34a37e"/>
  <path d="M110.5 197c-.93-21.84-.1-38.51-.86-43.79l3.69-.61c3 6.19 12.51 24.55 13.33 39.63.54 5.24-2 17.35-5.51 17.72s-10.51-9.71-10.65-12.95z" fill="#fff" opacity=".1"/>
  <path d="M113.71 153.41c-.16-.32-.27-.54-.38-.78l-3.69.61c.07.45.11.89.17 1.6a6.47 6.47 0 003.9-1.43z" opacity=".2"/>
  <path d="M108.58 144.88a15.66 15.66 0 013.49-.39 8.57 8.57 0 012.22 2.72 12.84 12.84 0 01-1 5.42 4.45 4.45 0 01-3.69.61 7.73 7.73 0 01-2.9-3.38 7 7 0 011.88-4.98z" fill="#34a37e"/>
  <path d="M108.58 144.88a15.66 15.66 0 013.49-.39 8.57 8.57 0 012.22 2.72 12.84 12.84 0 01-1 5.42 4.45 4.45 0 01-3.69.61 7.73 7.73 0 01-2.9-3.38 7 7 0 011.88-4.98z" fill="#fff" opacity=".1"/>
  <path d="M108.65 144.86c-.12 0-.26.3-.38.32-2.66-1.23-3.1-1.68-3.78-1.44-1.27.45-4 6-4.65 7.84s-.52 1.76-3 .32a42.56 42.56 0 01-11.43-9.76 29.36 29.36 0 01-4.81-9.57 33.2 33.2 0 002.79-4.15c1.38-2.86 1.45-4.16 3-4l.07 1.93c.42 2.4 4.27 4.55 7.82 7.26s9.19 5.16 10.55 6.33a25.3 25.3 0 013.82 4.92zm12.35 1.3c-.32 1-3.92-6.51-5.45-6.25-.73.1-2.27 2.29-3.52 4.58h-1a23.59 23.59 0 001.23-6c.16-2.65-2.43-9.3-2.43-9.3v-3c.41 0 1.33 0 1.85-.06.41.37 1.22 2 2 2.94 1.81 2.25 6 5.53 6.63 8.44a25.68 25.68 0 01.69 8.65z" fill="#e6e6e6"/>
  <path d="M66.19 139.67c-9.52 3.28-17.11 7.46-19.4 16.71s-4.34 31.46-5.56 44.84c-1 11.47.34 21.63 3.77 26l22-13.49 5.88-36.53s3.12-27.53-6.69-37.53z" fill="#f0f0f0"/>
  <path d="M66.57 196.46c-1.57 3.07-3.69 4.5-8.33 7.6-4.33 2.89-9.41 5.77-11.45 11.25.1-4.8 2.31-7.5 7.62-11.64s13.22-9.29 13.22-9.29z" fill="#e0e0e0"/>
  <path d="M66.57 196.46c-1.57 3.07-3.69 4.5-8.33 7.6-4.33 2.89-9.41 5.77-11.45 11.25-1.8 4.83-3.91 8.95-1.79 11.94 1.46 2.06 8.19 2.47 14.3 1.13s9.51-5.75 15.06-11.11c4.76-4.59 6.56-6.47 6.56-6.47z" fill="#f0f0f0"/>
  <path d="M75.48 199.45c-2.61-1.71-3.46-3.83-7-5s-5.59-.67-9.36-1.71-6.73-1.35-9.13 0-1.69 2.76.5 3.58 5.84 1.72 8.5 2.93 5.11 1.69 5.72 4.62a134.35 134.35 0 011.8 14.13c.38 5 .24 9.2.71 9.65s2.63.26 3.36-2.75.33-13.32.33-13.32 2.38 6.72 3.76 11.4 2.29 8.3 2.64 9.29 3.56-.5 3.35-4.2-3.12-14.22-3.12-14.22 3.82 4.26 6.28 7 5.58 6.59 6.54 7.49 2.7-1.41 1.6-4.16-6.23-9-6.23-9 5.39 3.71 6.26 4 3.15-.56 1.69-3.55c-1-2-2.61-3.06-7-6.39s-4.71-5-6.21-6.66c-1.97-2.14-3.09-1.88-4.99-3.13z" fill="#b16668"/>
  <path d="M67 202.94c3.86.84 7-1.47 7.3-2.45.27 2.51-4.3 4.92-7.3 2.45zm27.15 14.51a1.65 1.65 0 01-2.26.3c-1-.56-3.76-2.57-5-3.5S81.4 210 81.4 210l4.33 5.21s5.39 3.71 6.26 4a1.76 1.76 0 002.16-1.76z" fill="#9a4a4d"/>
  <path d="M317.42 307.18l13.41 116.35a1.56 1.56 0 00.88 1.21 4.72 4.72 0 004.27 0 1.56 1.56 0 00.88-1.21L326 307.18a2.12 2.12 0 00-1.25-1.74 6.67 6.67 0 00-6 0 2.12 2.12 0 00-1.33 1.74zm-148.9 116.35a1.51 1.51 0 00.88 1.21 4.7 4.7 0 004.26 0 1.51 1.51 0 00.88-1.21L188 307.18a2.1 2.1 0 00-1.25-1.74 6.67 6.67 0 00-6 0 2.09 2.09 0 00-1.24 1.74zm79.55-98.42l1.37 126a1.7 1.7 0 001 1.32 5.21 5.21 0 004.68 0 1.67 1.67 0 001-1.32l1.37-126a2.34 2.34 0 00-1.37-1.92 7.35 7.35 0 00-6.62 0 2.33 2.33 0 00-1.43 1.92z" fill="#34a37e"/>
  <path d="M317.42 307.18l13.41 116.35a1.56 1.56 0 00.88 1.21 4.72 4.72 0 004.27 0 1.56 1.56 0 00.88-1.21L326 307.18a2.12 2.12 0 00-1.25-1.74 6.67 6.67 0 00-6 0 2.12 2.12 0 00-1.33 1.74zm-148.9 116.35a1.51 1.51 0 00.88 1.21 4.7 4.7 0 004.26 0 1.51 1.51 0 00.88-1.21L188 307.18a2.1 2.1 0 00-1.25-1.74 6.67 6.67 0 00-6 0 2.09 2.09 0 00-1.24 1.74zm79.55-98.42l1.37 126a1.7 1.7 0 001 1.32 5.21 5.21 0 004.68 0 1.67 1.67 0 001-1.32l1.37-126a2.34 2.34 0 00-1.37-1.92 7.35 7.35 0 00-6.62 0 2.33 2.33 0 00-1.43 1.92z" opacity=".3"/>
  <path d="M248.44 358.92l-.37-33.81a2.33 2.33 0 011.37-1.92 7.35 7.35 0 016.62 0 2.34 2.34 0 011.37 1.92l-.37 33.8c-2.86.09-5.76.09-8.62.01zm-69-51.74a2.09 2.09 0 011.24-1.74 6.67 6.67 0 016 0 2.1 2.1 0 011.25 1.74l-4.1 35.82c-.63-.35-1.27-.68-1.89-1-1.89-1.09-3.74-2.3-5.45-3.45zm139.23-1.74a6.67 6.67 0 016 0 2.12 2.12 0 011.25 1.74l2.94 31.4c-1.73 1.17-3.58 2.38-5.5 3.49-.6.34-1.22.67-1.83 1l-4.14-35.89a2.12 2.12 0 011.28-1.74z" opacity=".15"/>
  <path d="M323.64 251.71c-39.2-22.63-102.76-22.63-142 0-19.6 11.31-29.38 26.14-29.38 41v2.88c0 14.83 9.78 29.66 29.38 41 39.2 22.64 102.76 22.64 142 0 19.6-11.32 29.38-26.15 29.37-41v-2.88c-.01-14.86-9.77-29.71-29.37-41z" fill="#34a37e"/>
  <path d="M323.64 251.71c-39.2-22.63-102.76-22.63-142 0-19.6 11.31-29.38 26.14-29.38 41v2.88c0 14.83 9.78 29.66 29.38 41 39.2 22.64 102.76 22.64 142 0 19.6-11.32 29.38-26.15 29.37-41v-2.88c-.01-14.86-9.77-29.71-29.37-41z" opacity=".2"/>
  <path d="M323.72 244.19c-39.2-22.64-102.75-22.64-142 0-19.6 11.31-29.38 26.14-29.38 41v4.95c0 14.83 9.78 29.66 29.38 41 39.2 22.64 102.75 22.64 142 0 19.6-11.31 29.39-28.2 29.38-43v-2.88c.01-14.93-9.78-29.76-29.38-41.07z" fill="#34a37e"/>
  <path d="M323.72 244.19c-39.2-22.64-102.75-22.64-142 0-19.6 11.31-29.38 26.14-29.38 41v4.95c0 14.83 9.78 29.66 29.38 41 39.2 22.64 102.75 22.64 142 0 19.6-11.31 29.39-28.2 29.38-43v-2.88c.01-14.93-9.78-29.76-29.38-41.07z" fill="#fff" opacity=".4"/>
  <path d="M323.72 244.19c-39.2-22.64-102.75-22.64-142 0-19.6 11.31-29.38 26.14-29.38 41v4.95c0 14.83 9.78 29.66 29.38 41 39.2 22.64 102.75 22.64 142 0 19.6-11.31 29.39-28.2 29.38-43v-2.88c.01-14.93-9.78-29.76-29.38-41.07z" opacity=".1"/>
  <ellipse cx="252.75" cy="285.16" rx="100.38" ry="57.95" fill="#34a37e"/>
  <ellipse cx="252.75" cy="285.16" rx="100.38" ry="57.95" fill="#fff" opacity=".85"/>
  <path d="M224.76 267l43-24.84a2.48 2.48 0 012.47 0l74.64 43.1a.55.55 0 010 .95l-43.43 25.08z" fill="#34a37e" opacity=".2"/>
  <path d="M228 261.73v1a4 4 0 002 3.45l69.53 40.13a3.9 3.9 0 002 .53 4 4 0 002-.53l37.89-21.81a4 4 0 002-3.44v-1.34a.49.49 0 01-.25.43l-41.62 24z" fill="#37474f"/>
  <path d="M228 261.72l41.23-23.8a2.39 2.39 0 012.37 0l71.51 41.3a.53.53 0 010 .91l-41.61 24z" fill="#455a64"/>
  <path fill="#37474f" d="M301.85 300.66l22.24-12.82-65.02-37.54-22.35 12.76 65.13 37.6z"/>
  <path fill="#263238" d="M236.72 263.06l.85.49 21.5-12.27 64.16 37.05.85-.49-65.01-37.54-22.35 12.76zm76.06 1.93l-.41.23-10.9 6.29-19.38-11.19-.4-.22 11.31-6.53 19.78 11.42z"/>
  <path fill="#37474f" d="M312.37 265.22l-10.9 6.29-19.38-11.19 10.91-6.29 19.37 11.19z"/>
  <path d="M301.47 304.16v2.64a3.9 3.9 0 01-2-.53L230 266.14a4 4 0 01-2-3.45v-1z" fill="#263238"/>
  <path d="M300.35 304.75a4.72 4.72 0 01-4.06-.32l-69.22-40a4.76 4.76 0 01-2.29-3.29L217.21 216a3.94 3.94 0 01-.07-.77 4.73 4.73 0 011.39-3.35l71.94 41.54a3.48 3.48 0 011.69 2.44z" fill="#37474f"/>
  <path d="M301.47 304.16l-.47.27a5.59 5.59 0 01-.65.32l-8.19-48.91a3.48 3.48 0 00-1.69-2.44l-71.94-41.54a5.13 5.13 0 011-.73l72.08 41.62a3.53 3.53 0 011.69 2.43z" fill="#455a64"/>
  <path d="M291.49 254.32l1.12-.64a3.56 3.56 0 01.66 1.5l8.2 49-.47.27a5.59 5.59 0 01-.65.32l-8.19-48.91a3.42 3.42 0 00-.67-1.54z" fill="#263238"/>
  <path d="M261.37 263c-.51-3-3.64-7-7-9s-5.65-1-5.14 2 3.63 7.05 7 9 5.64 1.05 5.14-2z" fill="#34a37e"/>
  <path d="M209.4 298.12c7 3.86 7 10.1 0 13.95s-18.37 3.85-25.38 0-7-10.09 0-13.95 18.37-3.85 25.38 0z" fill="#34a37e" opacity=".4"/>
  <path d="M185.59 270.45c6.29-2.26 16.29-2.21 22.34.11s6 6 0 8.31-16.08 2.21-22.34-.11-6.29-6.05 0-8.31z" fill="#263238"/>
  <path d="M180.58 262.55l32.17.86-2.75 42.66c-.19 1.36-1.52 2.68-4 3.67-5.3 2.09-13.94 1.87-19.3-.5-2.52-1.11-3.82-2.5-3.94-3.87z" fill="#fafafa"/>
  <path d="M212.75 263.41l-.69 7.63a14.46 14.46 0 01-2.73 1.36c-7 2.68-18.51 2.39-25.63-.66-.31-.13-.56-.27-.84-.41a17.28 17.28 0 01-2-1.18l-.29-7.6z" fill="#ebebeb"/>
  <path d="M178.51 263.61l.15-5.75 3.75.09c.51-.25 1.06-.48 1.67-.71 7.27-2.67 18.75-2.38 25.63.66a16 16 0 011.55.79l3.65.1-.15 5.75c0 1.87-1.84 3.7-5.36 5-7 2.69-18.5 2.39-25.62-.65-3.57-1.49-5.32-3.41-5.27-5.28z" fill="#37474f"/>
  <path d="M184.19 252.82c7.28-2.68 18.75-2.38 25.63.65s6.77 7.68-.27 10.36-18.5 2.39-25.62-.66-7.01-7.68.26-10.35z" fill="#455a64"/>
  <path d="M182 256.56l1.28-4.72 9.2.24a37.91 37.91 0 019.16.24l8.93.23 1 4.77c.53 1.74-.89 3.51-4.29 4.74-5.79 2.12-15.25 1.87-21.13-.54-3.39-1.41-4.76-3.25-4.15-4.96z" fill="#37474f"/>
  <path d="M187.39 248.92c5.5-1.83 14.19-1.61 19.4.49s5.14 5.3-.18 7.13-14 1.61-19.41-.5-5.31-5.3.19-7.12z" fill="#455a64"/>
  <path d="M185.1 252.43a1.61 1.61 0 00.58.69 8.91 8.91 0 002.21 1.18 28.66 28.66 0 009.09 1.6 27.34 27.34 0 009-1.13 7.51 7.51 0 002.19-1.08c.46-.34.58-.6.59-.67s-.45-1-2.68-1.87a27.25 27.25 0 00-8.94-1.59 28.45 28.45 0 00-9.17 1.13c-2.27.76-2.86 1.57-2.87 1.74z" fill="#263238"/>
  <path d="M185.68 253.12a8.91 8.91 0 002.21 1.18 28.66 28.66 0 009.09 1.6 27.34 27.34 0 009-1.13 7.51 7.51 0 002.19-1.08 7.73 7.73 0 00-2.13-1.18 27.15 27.15 0 00-8.94-1.59 28.15 28.15 0 00-9.16 1.13 8.32 8.32 0 00-2.26 1.07z" fill="#37474f"/>
  <path d="M191.14 253.38a2.72 2.72 0 00-2.14-.46c-.41.21-.1.76.68 1.23a2.76 2.76 0 002.15.47c.4-.22.09-.77-.69-1.24z" opacity=".5"/>
  <path d="M211.48 288.54c0 1.42-1.44 2.83-4.31 3.89-5.72 2.14-15.15 2.09-21-.1-2.94-1.09-4.41-2.51-4.41-3.93l-.85-13.82c0 1.5 1.56 3 4.69 4.18 6.26 2.32 16.26 2.37 22.34.11 3-1.14 4.57-2.63 4.57-4.13z" fill="#455a64"/>
  <path d="M201.65 289.31a21 21 0 001.27-2.34 7 7 0 013.65-3.16.46.46 0 01.57.2 4.91 4.91 0 01-1.36 5.46 5 5 0 01-5.47 1.33c-.09 0-.12-.22 0-.26a4.69 4.69 0 001.34-1.23zm4.05-5.94a7.61 7.61 0 00-2.3 1.39 6.81 6.81 0 00-1.67 2.24 6.66 6.66 0 01-2.11 2.74.43.43 0 01-.62-.1c-1.07-1.61-.63-4.07 1.14-5.81a5 5 0 015.62-1.26.44.44 0 01-.06.8z" fill="#263238"/>
  <path d="M402.56 356.45h-3.63v-16.62a13.38 13.38 0 016.14-10.63L424.5 318a4.88 4.88 0 017.83 4.62l-.33 16.87-3.63-.07.34-16.89c0-.89-.19-1.58-.55-1.79a2.11 2.11 0 00-1.84.38l-19.43 11.22a9.72 9.72 0 00-4.32 7.49z" fill="#37474f"/>
  <path d="M463.45 397.26l-3.89-71.59a6.27 6.27 0 00-2.82-4.59l-2.23-1.29a1.92 1.92 0 00-2-.15l-74.81 43.2 10.3 79.31L462.79 399a1.78 1.78 0 00.66-1.74z" fill="#37474f"/>
  <path d="M375 435.41l11.29 6.52c1.46.85 2.58.16 2.48-1.53l-3.88-71.59a6.33 6.33 0 00-2.83-4.59l-2.23-1.29c-1.47-.85-2.72-.16-2.81 1.53l-4.53 66.36a5.49 5.49 0 002.51 4.59z" fill="#263238"/>
  <path d="M414.32 420.38a1 1 0 01-1-1l-2-33.54a1 1 0 011-1.08 1 1 0 011.08 1l2 33.54a1 1 0 01-1 1.08zM443 403.92a1 1 0 01-1-1l-2-33.54a1 1 0 012-.12l2 33.54a1 1 0 01-1 1.08z" fill="#34a37e"/>
  <path d="M394.5 401.86a5.43 5.43 0 01-8.12-4.4l-1.54-28.66a6.33 6.33 0 00-2.84-4.57l-2.22-1.29a2 2 0 00-1.82-.25l74.58-43.06a1.82 1.82 0 012 .14l2.25 1.29a6.34 6.34 0 012.82 4.59l1.48 28.35a15 15 0 01-7.46 13.79z" fill="#455a64"/>
  <path fill="#34a37e" d="M420.68 383.49l10.84-6.26.47 6-10.87 6.28-.44-6.02z"/>
  <path d="M131.17 371.73v59.77c0 2.9-2 4.57-4.55 6.05l-6.29 3.63a6 6 0 01-4.91 1 13.25 13.25 0 01-3.35-1.37.33.33 0 01-.13-.07l-.34-.19-64.24-37.13a15.16 15.16 0 01-7.59-13.14v-54.42a4.31 4.31 0 011.95-3.38l10.73-6.19a4.24 4.24 0 013.89 0l72.88 42.07a4 4 0 011.38 1.45 4.08 4.08 0 01.57 1.92z" fill="#37474f"/>
  <path d="M131.17 371.73v59.77c0 2.9-2 4.57-4.55 6.05l-6.29 3.63a6 6 0 01-4.91 1 13.25 13.25 0 01-3.35-1.37c2.5 1.18 4.47-.13 4.47-3.09v-56.38a6 6 0 00-.86-2.91l14.92-8.62a4.08 4.08 0 01.57 1.92z" fill="#263238"/>
  <path d="M116.55 381.34a6.55 6.55 0 00-3-5.11l-68.83-39.77c-2.72-1.57-4.95-.28-4.95 2.86v50.95a15.19 15.19 0 007.59 13.14l64.25 37.1c2.72 1.57 5 .29 5-2.86z" fill="#455a64"/>
  <path d="M49 328.29l73 42.57a6.86 6.86 0 013.39 5.9v61.51l-1.12.64v-62.15a5.73 5.73 0 00-2.83-4.94l-73.58-42.89z" fill="#34a37e"/>
  <path d="M124.46 373.36a6.89 6.89 0 01.91 3.4v61.51l-1.12.64v-62.15a5.69 5.69 0 00-.76-2.84z" opacity=".2"/>
  <path d="M123.49 373.92a5.71 5.71 0 00-2.07-2.1l-73.56-42.89 1.11-.64 73 42.57a6.91 6.91 0 012.48 2.5" opacity=".2"/>
  <path d="M74.91 335.93v9.26l-3.62 2.09V335c0-.64.44-.89 1-.58z" fill="#34a37e"/>
  <path d="M74.91 335.93v9.26l-3.62 2.09V335c0-.64.44-.89 1-.58z" opacity=".4"/>
  <path d="M100.34 345.08v15l-3.45 2-2.33-1.34v-12.3a2.19 2.19 0 00-1-1.71l-17.62-10.2-3.66-2.12c-.55-.31-1-.06-1 .58v12.29L69 345.93V331a1.23 1.23 0 010-.19 2.22 2.22 0 011-1.52l1.47-.86a2.25 2.25 0 012 0l25.94 15a2.2 2.2 0 01.93 1.65z" fill="#34a37e"/>
  <path d="M96.89 347.08v15l-2.33-1.34v-12.3a2.19 2.19 0 00-1-1.71l-17.62-10.2-3.66-2.12c-.55-.31-1-.06-1 .58v12.29L69 345.93V331a1.23 1.23 0 010-.19c.09-.49.49-.66 1-.38l26 15a2.23 2.23 0 01.89 1.65z" opacity=".2"/>
  <path d="M340.18 99l-.43-16s27.79-4.34 22.14-32.35c-3.22-16-20.44-28.62-62.67-26.47-48 2.44-44.62 33.89-38.28 43.9 10.23 16.17 36.11 19.16 66.7 17z" fill="#34a37e"/>
  <path d="M333.39 44.16H285a.92.92 0 110-1.84h48.38a.92.92 0 110 1.84zm5.76 11.55h-59.9a1 1 0 010-2h59.9a1 1 0 110 2zm-5.76 11.44H285a.92.92 0 110-1.84h48.38a.92.92 0 110 1.84z" fill="#fff"/>
  <path d="M156.11 108.89l14.36-13.49s12.78 2.6 32.23 1.41c28.77-1.7 45-14.22 40.7-31.28-5.06-20.13-24.11-27.6-58.4-26.27-19.29.76-32.89 6.92-39.3 15.47-7.84 10.46-7.17 26.75 11.55 36.52z" fill="#455a64"/>
  <path d="M215.6 56.83h-45.38a.92.92 0 110-1.84h45.38a.92.92 0 110 1.84zm5.76 11.56h-56.9a1 1 0 110-2h56.9a1 1 0 110 2zm-5.76 11.43h-45.38a.92.92 0 110-1.84h45.38a.92.92 0 110 1.84z" fill="#fff"/>
</svg>
