<svg xmlns="http://www.w3.org/2000/svg" viewBox="0 0 750 500">
  <path d="M594.82 433.87c51.81-2.84 96.91-36.22 116-84.45C719.63 327.27 727 300.72 727 274c0-66-24-172-96-210S474 31 425 52s-62 51-111 57-85-53-172-55S12 175 25 238s80.38 107.73 81.44 133.76S136 440 207 452s172-40 220-42 112 26 165 24z" fill="#34a37e"/>
  <path d="M594.82 433.87c51.81-2.84 96.91-36.22 116-84.45C719.63 327.27 727 300.72 727 274c0-66-24-172-96-210S474 31 425 52s-62 51-111 57-85-53-172-55S12 175 25 238s80.38 107.73 81.44 133.76S136 440 207 452s172-40 220-42 112 26 165 24z" fill="#fff" opacity=".7"/>
  <path opacity=".2" d="M464.2 32h7.39m5.45 0H491v80h-65V32h31.19M495 32h65v80h-65zm117.9 0H629v80h-65V32h41.5M698 92.28V112h-65V32h65v56.03M426 117h65v80h-65zm69 25.08V117h65v80h-65v-47.69M564 117h65v80h-65zm85.27 0H698v80h-65v-80h11.16M426 202h65v80h-65zm69 0h65v80h-65zm69 0h65v80h-65zm134 67.33V282h-65v-51.82m65 27.24v7.23m-65-41.28V202h65v50.74M426 287h65v80h-65zm69 0h65v80h-65zm69 0h65v80h-65zm84.42 80H633v-80h65v80h-43.2" fill="none" stroke="#000" stroke-linecap="round" stroke-linejoin="round"/>
  <g opacity=".2" fill="none" stroke="#000" stroke-linecap="round" stroke-linejoin="round">
    <path d="M87.6 170H164V34H57v136h23.37m60.86-130H98.24"/>
    <path d="M61.72 95.26V164h97.56V40h-12.52m-55.32 0H61.72v48.45"/>
    <path d="M125.48 73.4H88v57.2h28.55m4.68 0H133V73.4h-2.84"/>
  </g>
  <g opacity=".2" fill="none" stroke="#000" stroke-linecap="round" stroke-linejoin="round">
    <circle cx="217" cy="77" r="39.83"/>
    <circle cx="217" cy="77" r="34.24"/>
    <path d="M207.53 87.38L217 77h27.83"/>
  </g>
  <path d="M111.43 237.4s-13.24-7.4-14.22 9.31-3.43 154.93-3.43 154.93m-3.44-153.46s10.79 53.95 5.89 152" fill="none" stroke="#263238" stroke-linecap="round" stroke-linejoin="round" stroke-width="2"/>
  <path d="M101 240.75s-5.07 3.25-8-.47 2-10.51-2.31-13.42-11.6 1.53-11.6 1.53 5.66 1.66 5.48 4.75-2.91 4.26-3.28 2.91-3.06-8.15-7.65-5.32a11.37 11.37 0 00-5.3 7.21s10.66-1.14 11.34 2.89-4.38-.7-8.8-1-8.43.38-8.15 3.06a34.38 34.38 0 01-.42 7.06 13.18 13.18 0 018.6-3c4.85.29 4.67 3.38.26 3.12S63 254 63 254s4 6.88 9.14 10.28 7 2.19 7.55-.44-.77-9.34 2.32-9.16-5.16 11.67-1.21 12.32 7.11-.46 8.15-3.06l1-2.6s-1.38-6.72-.78-9.34 1.32.08 2 3.22 1.14 10.69 2.49 10.33 5.66-5.87 6.68-8-5.69-8.75-5.61-10.07 5.25 1.19 6 2.57a34.53 34.53 0 011.58 3.19s3.22-2 3.15-8.23-4.46-4.26-4.46-4.26z" fill="#34a37e"/>
  <path d="M101 240.75s-5.07 3.25-8-.47 2-10.51-2.31-13.42-11.6 1.53-11.6 1.53 5.66 1.66 5.48 4.75-2.91 4.26-3.28 2.91-3.06-8.15-7.65-5.32a11.37 11.37 0 00-5.3 7.21s10.66-1.14 11.34 2.89-4.38-.7-8.8-1-8.43.38-8.15 3.06a34.38 34.38 0 01-.42 7.06 13.18 13.18 0 018.6-3c4.85.29 4.67 3.38.26 3.12S63 254 63 254s4 6.88 9.14 10.28 7 2.19 7.55-.44-.77-9.34 2.32-9.16-5.16 11.67-1.21 12.32 7.11-.46 8.15-3.06l1-2.6s-1.38-6.72-.78-9.34 1.32.08 2 3.22 1.14 10.69 2.49 10.33 5.66-5.87 6.68-8-5.69-8.75-5.61-10.07 5.25 1.19 6 2.57a34.53 34.53 0 011.58 3.19s3.22-2 3.15-8.23-4.46-4.26-4.46-4.26z" fill="#263238" opacity=".3"/>
  <path d="M75.28 255.3c3.3-4.08 8.17-9.6 12.24-12.24m-16.07 17.21s.85-1.18 2.22-2.94m16.01-13.26s4.9 6.94 5.81 14.08m-11.37-9.98s1.38-.8.86 8M87.71 240s2.8-2.49 1.32-7.45m-5.12 11.63l-1.99-3.66m-2.21 7.39s-6.36-4.8-10.33-5" fill="none" stroke="#263238" stroke-linecap="round" stroke-linejoin="round"/>
  <path d="M119 227.67s-.2 7.28-5.88 7.64-9.2-9.12-15-6.84-6.38 12.66-6.38 12.66 5.52-4.53 8.49-2.24 2.28 5.81.68 5.25-10.25-2.49-10.55 4A13.78 13.78 0 0094 258.4s6.15-11.48 10.62-9.39-3.69 3.92-7 8.16-5.36 8.71-2.49 10.25a42 42 0 016.79 5.23s-.78-6 2.81-10.68 6.57-2.37 3.3 1.87-1.64 10.9-1.64 10.9 9.63.66 16.52-2.14 6.92-5.48 4.71-7.86-9.89-5.6-7.6-8.56 8.18 13.06 11.55 9.57 4.38-7.44 2.49-10.25l-1.89-2.81s-7.67-3.2-9.89-5.59 1-1.27 4.6.17 11.49 6.15 12 4.55-2-9.67-3.49-12.15-12.63-.27-13.9-1.25 4.77-4.44 6.69-4.31 4.28.59 4.28.59.17-4.6-6.1-8.75-7.36 1.72-7.36 1.72z" fill="#34a37e"/>
  <path d="M119 227.67s-.2 7.28-5.88 7.64-9.2-9.12-15-6.84-6.38 12.66-6.38 12.66 5.52-4.53 8.49-2.24 2.28 5.81.68 5.25-10.25-2.49-10.55 4A13.78 13.78 0 0094 258.4s6.15-11.48 10.62-9.39-3.69 3.92-7 8.16-5.36 8.71-2.49 10.25a42 42 0 016.79 5.23s-.78-6 2.81-10.68 6.57-2.37 3.3 1.87-1.64 10.9-1.64 10.9 9.63.66 16.52-2.14 6.92-5.48 4.71-7.86-9.89-5.6-7.6-8.56 8.18 13.06 11.55 9.57 4.38-7.44 2.49-10.25l-1.89-2.81s-7.67-3.2-9.89-5.59 1-1.27 4.6.17 11.49 6.15 12 4.55-2-9.67-3.49-12.15-12.63-.27-13.9-1.25 4.77-4.44 6.69-4.31 4.28.59 4.28.59.17-4.6-6.1-8.75-7.36 1.72-7.36 1.72z" fill="#263238" opacity=".2"/>
  <path d="M116.06 263.29c-1.83-6.09-4-14.73-3.91-20.61m6.28 27.83s-.6-1.66-1.44-4.24m-2.35-25.05s10.28-.19 18 3.77M115 249.58s.14-1.93 8.62 4.61m-14.44-13.79s-.58-4.51-6.55-6.41m8.18 13.07l-5.03-.5m5.91 7.26s-9.15 3.09-12.09 6.91" fill="none" stroke="#263238" stroke-linecap="round" stroke-linejoin="round"/>
  <path d="M58 276.13s28.92 49 28.43 123.06" fill="none" stroke="#263238" stroke-linecap="round" stroke-linejoin="round" stroke-width="2"/>
  <path d="M93.66 271.07s-.93 8.39-7.51 8.26-9.76-11.39-16.68-9.33-8.56 14-8.56 14 6.8-4.71 10-1.79 2.09 6.92.29 6.13-11.58-3.81-12.54 3.66a16 16 0 003.2 12.13S70 291.5 75 294.34s-4.63 4.16-8.8 8.75-7 9.55-3.84 11.59a49.09 49.09 0 017.34 6.68s-.33-7 4.26-12.05 7.79-2.13 3.62 2.46-2.92 12.43-2.92 12.43 11 1.67 19.26-.91 8.51-5.67 6.18-8.63-10.88-7.39-8-10.6 8.21 15.85 12.42 12.14 5.76-8.17 3.84-11.59l-1.91-3.42s-8.55-4.42-10.88-7.39 1.25-1.37 5.29.63 12.68 8.18 13.47 6.39-1.41-11.35-2.87-14.35-14.52-1.47-15.89-2.76 5.92-4.67 8.13-4.33a47.64 47.64 0 014.88 1.08s.63-5.29-6.21-10.67-8.71 1.28-8.71 1.28z" fill="#34a37e"/>
  <path d="M93.66 271.07s-.93 8.39-7.51 8.26-9.76-11.39-16.68-9.33-8.56 14-8.56 14 6.8-4.71 10-1.79 2.09 6.92.29 6.13-11.58-3.81-12.54 3.66a16 16 0 003.2 12.13S70 291.5 75 294.34s-4.63 4.16-8.8 8.75-7 9.55-3.84 11.59a49.09 49.09 0 017.34 6.68s-.33-7 4.26-12.05 7.79-2.13 3.62 2.46-2.92 12.43-2.92 12.43 11 1.67 19.26-.91 8.51-5.67 6.18-8.63-10.88-7.39-8-10.6 8.21 15.85 12.42 12.14 5.76-8.17 3.84-11.59l-1.91-3.42s-8.55-4.42-10.88-7.39 1.25-1.37 5.29.63 12.68 8.18 13.47 6.39-1.41-11.35-2.87-14.35-14.52-1.47-15.89-2.76 5.92-4.67 8.13-4.33a47.64 47.64 0 014.88 1.08s.63-5.29-6.21-10.67-8.71 1.28-8.71 1.28z" fill="#263238" opacity=".3"/>
  <path d="M86.91 311.9c-1.54-7.2-3.28-17.38-2.56-24.15m4.65 32.7s-.54-2-1.25-5m-.4-29.16s11.89.76 20.48 6.06M86.93 296s.34-2.21 9.51 6.13m-15.3-17.3s-.25-5.25-7-8m8.25 15.84l-5.76-1.04m6.13 8.92s-10.85 2.71-14.6 6.84" fill="none" stroke="#263238" stroke-linecap="round" stroke-linejoin="round"/>
  <path d="M93.66 341.15s-.93 8.39-7.51 8.26-9.76-11.41-16.68-9.31-8.56 14-8.56 14 6.8-4.71 10-1.79 2.09 6.92.29 6.13-11.59-3.84-12.55 3.67a16 16 0 003.2 12.13S70 361.58 75 364.42s-4.63 4.16-8.8 8.75-7 9.55-3.84 11.59a49.09 49.09 0 017.34 6.68s-.33-7 4.26-12.05 7.79-2.13 3.62 2.46-2.92 12.43-2.92 12.43 11 1.67 19.26-.91 8.51-5.67 6.18-8.63-10.88-7.39-8-10.6 8.21 15.85 12.42 12.14 5.76-8.17 3.84-11.59l-1.91-3.42s-8.55-4.42-10.88-7.39 1.25-1.37 5.29.63 12.68 8.18 13.47 6.39-1.41-11.35-2.87-14.35-14.52-1.55-15.89-2.76 5.92-4.67 8.13-4.33a47.64 47.64 0 014.88 1.08s.63-5.29-6.21-10.67-8.71 1.28-8.71 1.28z" fill="#34a37e"/>
  <path d="M93.66 341.15s-.93 8.39-7.51 8.26-9.76-11.41-16.68-9.31-8.56 14-8.56 14 6.8-4.71 10-1.79 2.09 6.92.29 6.13-11.59-3.84-12.55 3.67a16 16 0 003.2 12.13S70 361.58 75 364.42s-4.63 4.16-8.8 8.75-7 9.55-3.84 11.59a49.09 49.09 0 017.34 6.68s-.33-7 4.26-12.05 7.79-2.13 3.62 2.46-2.92 12.43-2.92 12.43 11 1.67 19.26-.91 8.51-5.67 6.18-8.63-10.88-7.39-8-10.6 8.21 15.85 12.42 12.14 5.76-8.17 3.84-11.59l-1.91-3.42s-8.55-4.42-10.88-7.39 1.25-1.37 5.29.63 12.68 8.18 13.47 6.39-1.41-11.35-2.87-14.35-14.52-1.55-15.89-2.76 5.92-4.67 8.13-4.33a47.64 47.64 0 014.88 1.08s.63-5.29-6.21-10.67-8.71 1.28-8.71 1.28z" fill="#263238" opacity=".3"/>
  <path d="M86.91 382c-1.54-7.19-3.28-17.37-2.56-24.14M89 390.53s-.54-2-1.25-5m-.4-29.16s11.89.76 20.48 6.06m-20.9 3.62s.34-2.21 9.51 6.13m-15.3-17.27s-.25-5.25-7-8m8.25 15.84l-5.76-1.04m6.13 8.92s-10.85 2.71-14.6 6.84" fill="none" stroke="#263238" stroke-linecap="round" stroke-linejoin="round"/>
  <path d="M69.27 334.46s18.63 44.14 20.59 65.22l-3.92-100.51m28.43 25c-24.51-4.42-24.51 75.51-24.51 75.51m2.94-.49s-14.22-133.36 27-133.36" fill="none" stroke="#263238" stroke-linecap="round" stroke-linejoin="round" stroke-width="2"/>
  <path d="M105 321.19c-3.35-3.76-10.46-3.76-14.65 5.86S90 335 90 335s8-2.51 13-4.18 11.72-5.86 12.13-3.35-3.34 5-7.95 5.86-16.74 4.19-15.48 6.7 4.18 10 4.18 10a106.94 106.94 0 0111.3-8.37c5.44-3.35 8.79-2.09 5.86 1.67s-11.3 8-9.62 13 11.71 11.3 11.71 11.3 1.26-10.46 4.19-13.81 2.93.42 2.09 6.28a68.47 68.47 0 00-.83 7.53l11.71 4.18s4.19-6.27 6.28-8.37l2.09-2.09s-9.2-7.95-9.62-13 6.28 0 8.37.83 5.44 6.7 5.44 6.7 2.09-9.63 2.51-13l.42-3.35s-8.79-3.35-12.14-3.35-5 2.51-5-.84 3.35-5.44 7.11-5a65.56 65.56 0 0110.05 2.51s2.51-2.09 1.67-8.37-2.93-6.28-7.95-4.6-8.37 5.44-12.14 5.44-1.67-4.61.84-5.86 8.79-3.77 10.05-4.19-6.7-6.27-10.89-7.11-9.6 2.11-9.2 6.28c.75 8.85-11.8 10.56-15.18 6.75z" fill="#34a37e"/>
  <path d="M132 364.28c.13 1.27.22 2.53.26 3.79m-8.7-33.83a110.89 110.89 0 017.88 25.93m-9.38-29.29c-2.08-4.46-3.64-7.18-3.64-7.18a12.33 12.33 0 005.44-5 14 14 0 014.19-5m-24.27 24.23s15.06-6.27 15.06-5m8.37-2.93s6.7-3.35 12.56-3.35M124.7 340a57.74 57.74 0 00-8 8 35.9 35.9 0 00-5.86 9.62m18.46-15.92s8.79-2.51 13.4 1.67" fill="none" stroke="#263238" stroke-linecap="round" stroke-linejoin="round"/>
  <path d="M145.22 285.15c-4.55-2.69-9.59-2.75-12.06-5.6s2.38-4.28 5-3.21 8.61 4.17 9.75 4.84.35-9.17-1.76-12.88-7.89-5.86-10.78-2.83c-6.09 6.39-15.58-2-14.93-7s-4-10.37-14-7.22-6.28 4.9-6.28 4.9 7.11 4.35 11.67 7 12.1 5 10.48 7-6 .76-9.64-2.16-14.13-9.9-15.2-7.31-4.85 9.75-4.85 9.75a106.52 106.52 0 0113.73 3c6.1 1.92 7.34 5.27 2.58 5.52s-13.41-3.32-16.11 1.24-.85 16.26-.85 16.26 8.73-5.91 13.17-5.9 1.61 2.49-3.36 5.7a66.71 66.71 0 00-6.24 4.31l4.46 11.66s7.48-1 10.44-.75l3 .21s0-12.16 3.48-15.77 4.12 4.74 4.86 6.87-1.49 8.49-1.49 8.49 8.64-4.73 11.44-6.6l2.81-1.88s-3.24-8.84-5.43-11.36-5.19-2.15-2.66-4.34 6.3-1 8.45 2.08a64.14 64.14 0 014.69 9.23s3.23.52 7.42-4.23 2.77-6.32-1.79-9.02zm-39.6 13.4c-3.35-1.68 4.6-5 4.6-5 2.93-.44-1.22 6.67-4.6 5zm5.64-15.63c-1.43-.71 2.85-2.14 2.85-2.14 6.18 1.22-1.43 2.86-2.85 2.14z" fill="#34a37e"/>
  <path d="M105.53 307.07c-.87.92-1.77 1.82-2.69 2.68M122.7 281a110.87 110.87 0 01-14.41 23m15.96-26.31c2-4.49 3-7.45 3-7.45a12.32 12.32 0 007.36.81 14 14 0 016.54-.13m-34.21-2.41s14.62 7.26 13.67 8.08m7.7 4.41s6.92 2.86 10.76 7.29m-19.99-2.61a58.25 58.25 0 00-11.22-.79 36.15 36.15 0 00-11.11 1.88m24.08 3.48s7.66 5 7.52 11.21" fill="none" stroke="#263238" stroke-linecap="round" stroke-linejoin="round"/>
  <path d="M80.19 343.14c-3.67-2.17-7.72-2.21-9.71-4.5s1.92-3.45 4-2.59 6.93 3.36 7.85 3.9.28-7.38-1.42-10.37-6.35-4.72-8.67-2.28c-4.9 5.15-12.54-1.6-12-5.62s-3.23-8.35-11.29-5.81-5 3.94-5 3.94 5.72 3.51 9.39 5.67 9.74 4 8.43 5.61-4.81.62-7.75-1.74-11.38-8-12.24-5.88-3.9 7.85-3.9 7.85a85.45 85.45 0 0111 2.45c4.91 1.54 5.91 4.23 2.08 4.44s-10.8-2.67-13 1-.68 13.08-.68 13.08 7-4.76 10.6-4.74 1.29 2-2.71 4.58a53.76 53.76 0 00-5 3.47l3.64 9.32a68.71 68.71 0 018.4-.6l2.37.17s0-9.79 2.81-12.69 3.31 3.81 3.9 5.53-1.19 6.83-1.19 6.83 7-3.8 9.2-5.31l2.26-1.52s-2.6-7.1-4.37-9.14S63 346.46 65 344.7s5.07-.84 6.81 1.67a52.73 52.73 0 013.77 7.43s2.6.42 6-3.4 2.28-5.09-1.39-7.26zm-31.87 10.78c-2.7-1.35 3.7-4 3.7-4 2.36-.38-1.02 5.35-3.7 4zm4.54-12.57c-1.15-.58 2.29-1.72 2.29-1.72 4.98.95-1.15 2.29-2.29 1.72z" fill="#34a37e"/>
  <path d="M48.25 360.78q-1.05 1.11-2.16 2.16m15.98-23.12a89.61 89.61 0 01-11.6 18.47m12.84-21.15c1.62-3.62 2.45-6 2.45-6a9.93 9.93 0 005.92.66 11.23 11.23 0 015.26-.11m-27.56-1.94s11.77 5.84 11 6.5m6.2 3.54s5.57 2.31 8.66 5.87m-16.09-2.09a46.17 46.17 0 00-9-.64 29.09 29.09 0 00-8.94 1.52m19.35 2.8s6.17 4 6 9" fill="none" stroke="#263238" stroke-linecap="round" stroke-linejoin="round"/>
  <path d="M65.24 274s-4.6 3.35-7.53 0 1.25-10-2.93-12.55-10.88 2.09-10.88 2.09 5.44 1.25 5.44 4.18-2.51 4.19-2.93 2.93-3.35-7.53-7.54-4.6a10.78 10.78 0 00-4.6 7.11s10-1.67 10.88 2.1-4.18-.42-8.37-.42-8 .84-7.53 3.35a32.8 32.8 0 010 6.69 12.45 12.45 0 018-3.34c4.6 0 4.6 2.92.42 2.92s-7.54 4.19-7.54 4.19 4.19 6.28 9.21 9.21 6.7 1.67 7.12-.84-1.26-8.79 1.67-8.79-4.18 11.3-.42 11.72 6.7-.84 7.54-3.35l.83-2.51s-1.67-6.28-1.25-8.79 1.25 0 2.09 2.93 1.67 10.05 2.93 9.63 5-5.86 5.86-7.95-5.86-8-5.86-9.21 5 .84 5.86 2.09a31.8 31.8 0 011.67 2.93s2.93-2.09 2.51-7.95-4.65-3.77-4.65-3.77z" fill="#34a37e"/>
  <path d="M41.8 289.21c2.89-4 7.18-9.53 10.88-12.25m-14.23 17.16s.74-1.16 1.94-2.91m14.39-13.41s5 6.28 6.27 13m-11.3-8.8s1.26-.83 1.26 7.54M52.68 274s2.52-2.51.84-7.11m-4.18 11.33l-2.1-3.35M45.57 282s-6.28-4.18-10-4.18" fill="none" stroke="#263238" stroke-linecap="round" stroke-linejoin="round"/>
  <path d="M106 363s-4.61 3.34-7.54 0 1.26-10.05-2.93-12.56-10.88 2.09-10.88 2.09 5.44 1.26 5.44 4.19-2.51 4.18-2.93 2.93-3.35-7.54-7.53-4.61a10.74 10.74 0 00-4.6 7.12s10-1.68 10.88 2.09-4.19-.42-8.37-.42-7.95.84-7.54 3.35a32.91 32.91 0 010 6.7 12.45 12.45 0 018-3.35c4.6 0 4.6 2.93.41 2.93s-7.53 4.18-7.53 4.18 4.19 6.28 9.21 9.21 6.69 1.68 7.11-.84-1.25-8.78 1.68-8.78-4.19 11.3-.42 11.71 6.69-.83 7.53-3.34l.84-2.52s-1.68-6.27-1.26-8.78 1.26 0 2.1 2.93 1.67 10 2.93 9.62 5-5.86 5.85-7.95-5.85-7.95-5.85-9.21 5 .84 5.85 2.09a33.12 33.12 0 011.68 2.93s2.93-2.09 2.51-7.95S106 363 106 363z" fill="#34a37e"/>
  <path d="M82.58 378.16c2.89-4.05 7.18-9.54 10.89-12.25m-14.23 17.15s.74-1.16 1.94-2.9m14.38-13.42s5 6.28 6.28 13m-11.3-8.81s1.26-.84 1.26 7.53M93.47 363s2.51-2.52.84-7.12m-4.19 11.28l-2.09-3.35m-1.67 7.12s-6.28-4.19-10-4.19" fill="none" stroke="#263238" stroke-linecap="round" stroke-linejoin="round"/>
  <path fill="#263238" stroke="#263238" stroke-linecap="round" stroke-linejoin="round" stroke-width="2" d="M75.15 397.8h32.35v46.57H75.15z"/>
  <path fill="#fff" stroke="#263238" stroke-linecap="round" stroke-linejoin="round" d="M42.1 444.37H725"/>
  <path fill="none" stroke="#263238" stroke-linecap="round" stroke-linejoin="round" stroke-width="6" d="M609.88 345l4.5 96m-24.69-96l5 96m-69.36-96l-6.5 96m-8.21-96l-15.5 96"/>
  <path fill="gray" stroke="#263238" stroke-linecap="round" stroke-linejoin="round" d="M612.86 240.29l.33 101.34h-91.91l3.28-101.34h88.3z"/>
  <path fill="gray" stroke="#263238" stroke-linecap="round" stroke-linejoin="round" d="M613.19 347.11H503.63v-5.77h109.56z"/>
  <path fill="gray" stroke="#263238" stroke-linecap="round" stroke-linejoin="round" d="M596.43 347.11h-92.8v-5.77h92.8z"/>
  <path d="M526.86 289s-8.51 13-9.85 22.82.9 21 7.16 25.06a31.48 31.48 0 0013.43 4.48h53.25s9.4-2.24 13.43-11.19 1.34-20.59-1.34-26.41S598 293 598 293z" fill="#263238" stroke="#263238" stroke-linecap="round" stroke-linejoin="round"/>
  <path d="M551.92 186s-31.33 11.64-33.12 14.77 13.88 64.89 13.88 64.89l-8.06 25.51a354.88 354.88 0 0037.15 5.83c18.79 1.79 37.14-3.58 37.14-3.58l-7.16-30 11.64-62.65s-23-10.91-28.06-12.84-19.83-2.34-23.41-1.93z" fill="#34a37e" stroke="#263238" stroke-linecap="round" stroke-linejoin="round"/>
  <path d="M585.05 192.25c-4.24-1.94-8-3.63-9.72-4.28-5.06-1.93-19.83-2.38-23.41-1.93 0 0-7.68 2.85-15.65 6.11l17.89 74.45 15.66 2.23z" fill="#34a37e" stroke="#263238" stroke-linecap="round" stroke-linejoin="round"/>
  <path d="M568.64 297.39l5.49-109.8c-5.88-1.61-18.88-2-22.21-1.55l-2.56 1 5.86 109.31c2.16.26 4.35.5 6.55.71s4.61.3 6.87.33z" fill="#fff" stroke="#263238" stroke-linecap="round" stroke-linejoin="round"/>
  <path d="M518.8 200.81s-28.64 78.77-23.72 81.45 62.21 3.58 62.21 3.58v-6.26l-38-13.88 7.61-24.61z" fill="#34a37e" stroke="#263238" stroke-linecap="round" stroke-linejoin="round"/>
  <path d="M557.29 279.58s15.22-1.79 16.56-1.79 13.42 8.5 13.42 8.5l-30-.45z" fill="#fff" stroke="#263238" stroke-linecap="round" stroke-linejoin="round"/>
  <path d="M603.26 200.81s28.65 78.77 23.72 81.45-62.2 3.58-62.2 3.58v-6.26l38-13.88-7.22-23.29z" fill="#34a37e" stroke="#263238" stroke-linecap="round" stroke-linejoin="round"/>
  <path d="M615.64 264a17.16 17.16 0 012.79.24m-15.61 1.46a67.18 67.18 0 0111-1.69" fill="none" stroke="#263238" stroke-linecap="round" stroke-linejoin="round"/>
  <path d="M564.78 279.58s-15.22-1.79-16.56-1.79-13.43 8.5-13.43 8.5l30-.45z" fill="#fff" stroke="#263238" stroke-linecap="round" stroke-linejoin="round"/>
  <path d="M604.83 308.52c-3.58-14.68-17.47-17.42-29.75-18.43s-20.47 2.63-20.47 2.63 20 1 22.53 14.68L569 327.13s-1.54 4.56 6.14 11.64" fill="#263238" stroke="#263238" stroke-linecap="round" stroke-linejoin="round"/>
  <path d="M572.23 314.57a253.52 253.52 0 004.12 28.54c3.21 15.85 17.41 73.37 18.33 75.64s11.45 17.21 9.62 22.64-4.12 5-8.25.91-8.24-21.29-8.7-23.1-24.28-42.58-31.61-61.15-11.92-29-9.62-42.57 10.53-14 17-12.23 9.11 11.32 9.11 11.32z" fill="#fff" stroke="#263238" stroke-linecap="round" stroke-linejoin="round"/>
  <path fill="#263238" stroke="#263238" stroke-miterlimit="10" d="M571.87 319.4l-16.13 38.65-4.32-11.5 20.45-27.15z"/>
  <path d="M604.3 441.39c1-2.93-1.63-8.64-4.39-13.62-3.33 5-6.84 4.49-9.3 3 1.56 4.77 3.5 9.61 5.44 11.53 4.13 4.08 6.42 4.53 8.25-.91z" fill="#263238" stroke="#263238" stroke-linecap="round" stroke-linejoin="round"/>
  <path d="M575.64 302S568 288.53 556 292.55s-37.6 91.75-45.65 104.28a114 114 0 01-6.71 9.4 49.12 49.12 0 01-13 1.79c-7.16 0-13.43 0-8.06 4.47s16.56 7.61 22.38 8.5 8.95-10.29 8.95-10.29 34.46-58.62 40.72-64.89 17.91-26.4 20.14-30.43 1.76-9.38.87-13.38z" fill="#fff" stroke="#263238" stroke-linecap="round" stroke-linejoin="round"/>
  <path d="M513.37 412.23c-6.39.68-16.5 1.6-16.5 1.6l-3.54-5.9c-.88.05-1.79.09-2.72.09-7.16 0-13.43 0-8.06 4.47s16.56 7.61 22.38 8.5c4.46.69 7.34-5.73 8.44-8.76z" fill="#263238" stroke="#263238" stroke-linecap="round" stroke-linejoin="round"/>
  <path d="M542.79 151.36s-4.52 3.62-3.62 7.69-1.35 10.39-4.52 11.3 0 5 2.26 5.42l2.26.45s2.26 11.3 4.07 12.66 8.59 0 8.59 0 2.26 14.91 5.42 19.43 5 5.42 9-.45 9-19.89 9-19.89 1.36-14.91-2.26-25.31-17.09-23.95-30.2-11.3z" fill="#fff" stroke="#263238" stroke-linecap="round" stroke-linejoin="round"/>
  <path d="M543.49 166.6c0 1.16-.41 2.1-.92 2.1s-.92-.94-.92-2.1.42-2.1.92-2.1.92.94.92 2.1z" fill="#263238"/>
  <path d="M541.13 161.61s2.1-2.36 3.94.79m-2.89 16.6s1.31.52 4.46-1.84" fill="none" stroke="#263238" stroke-linecap="round" stroke-linejoin="round"/>
  <path d="M546.63 136.27s-9.49 3.92-7.23 12.27 15.37 15.21 19.43 22.08 3.17 14.24 0 17.18-5.42 3.44-5.42 3.44a46.73 46.73 0 0022.6 5.89c13.11 0 18.46-13.53 17.55-22.36s-3.27-29.58-12.76-36-25.13-6.92-34.17-2.5z" fill="#263238" stroke="#263238" stroke-linecap="round" stroke-linejoin="round"/>
  <path fill="none" stroke="#263238" stroke-linecap="round" stroke-linejoin="round" stroke-width="6" d="M346.28 345l-4.5 96m53.5-96l-5 96m29.5-96l6.5 96m19.5-96l15.5 96"/>
  <path fill="gray" stroke="#263238" stroke-linecap="round" stroke-linejoin="round" d="M338.64 240.29l4.32 101.34h80.87l-7.93-101.34h-77.26z"/>
  <path fill="gray" stroke="#263238" stroke-linecap="round" stroke-linejoin="round" d="M342.96 341.34h109.81v5.77H342.96z"/>
  <path fill="gray" stroke="#263238" stroke-linecap="round" stroke-linejoin="round" d="M387.63 341.34h65.14v5.77h-65.14z"/>
  <path d="M353 290.54s-4.06 36.65-2.71 41.44a12.82 12.82 0 008.79 8.91c3.72 1 55.35 0 56.78 0 8.22.16 9.86-4.06 10.14-12.33.31-9-1-40.56-1-40.56z" fill="#263238" stroke="#263238" stroke-linecap="round" stroke-linejoin="round"/>
  <path d="M370.57 190.65s-30.33 12-29.33 14 10 60.35 10.37 62 1 21 1 22.66 2 4.67 4 5c10.44 1.74 21.79.84 32.35 1q10.71.13 21.4.07c4.2 0 14 2 15.57-2.69.67-3.67.64-86 1-90s-3.66-5-8-7.33-24.33-7.67-26.33-7.67-22.03 2.96-22.03 2.96z" fill="#fff" stroke="#263238" stroke-linecap="round" stroke-linejoin="round"/>
  <path fill="#263238" stroke="#263238" stroke-linecap="round" stroke-linejoin="round" d="M379.27 209.68l6.76 9.47-7.72 57.87 12.16 12.85 9.8-14.87-9.84-56.87 4.39-9.46-12.51-7.1-3.04 8.11z"/>
  <path d="M372.9 187.65s-4 1.33-4.33 4 .67 23.67.67 23.67l13-5 5.66-1.32 14.69 2.73s-.35-12.06-2.69-18.06-5-8-7-8.33-20 2.31-20 2.31z" fill="#fff" stroke="#263238" stroke-linecap="round" stroke-linejoin="round"/>
  <path d="M370.9 186.65s3.67 13.67 5 16 10 9.33 12 6.33 4-11 4.34-12 .66-11.66.66-11.66-16 5.68-22 1.33z" fill="#fff" stroke="#263238" stroke-linecap="round" stroke-linejoin="round"/>
  <path d="M377.44 195.35s.37.56 5.28 2.64a21.11 21.11 0 008.48 1.88l.94-3.58.57-9.62z" fill="#263238" stroke="#263238" stroke-miterlimit="10"/>
  <path d="M402.48 161.32s1.17-10.92 0-17.16-7.8-8.18-12.87-9-26.51 1.17-29.24 7 3.12 10.52 3.12 10.52-3.51 2.34-1.95 5.46 3.51 7.41 3.51 7.41l2.34-9 16.37.39 6.24 1.56 6.63 8.19s3.51.78 4.68-.78 1.17-4.59 1.17-4.59z" fill="#263238" stroke="#263238" stroke-linecap="round" stroke-linejoin="round"/>
  <path d="M365.57 164s-3.33-3.66-3.33.34 4 8 4 8z" fill="none" stroke="#263238" stroke-linecap="round" stroke-linejoin="round"/>
  <path d="M365.05 153.91s.39 21.83 1.17 26.12 10.14 15.6 12.09 15.6 4.67.78 7-1.17 12.09-10.92 12.87-13.65a55.26 55.26 0 001.17-8.18s6.24-3.12 5.46-7.8-3.12-5.07-4.29-3.9a42.77 42.77 0 00-3.12 3.9s-.78-3.9-2.34-5.46-6.24-2.34-5.46-3.9l4.29-8.58s-7.41 6.24-14.42 7.41a44.7 44.7 0 01-14.42-.39z" fill="#fff" stroke="#263238" stroke-linecap="round" stroke-linejoin="round"/>
  <path d="M372.32 164.63c0 1.09-.55 2-1.24 2s-1.24-.87-1.24-2 .56-2 1.24-2 1.24.92 1.24 2zm12.59 0c0 1.09-.55 2-1.24 2s-1.24-.87-1.24-2 .56-2 1.24-2 1.24.92 1.24 2z" fill="#263238"/>
  <path d="M375.62 164.12s-2.89 11.14-1.65 11.76 8.26-2.06 8.26-2.06" fill="none" stroke="#263238" stroke-linecap="round" stroke-linejoin="round"/>
  <path d="M374 175.88a20.27 20.27 0 00-4.75 2.48c-1.85 1.44 1.45 2.68 5.78 2.68s9.91-.2 12.39-1.44.41-2.27-1.65-3.1a37 37 0 00-5.78-1.44s-3.99.62-5.99.82z" fill="#263238" stroke="#263238" stroke-linecap="round" stroke-linejoin="round"/>
  <path d="M368.4 160.2s1.86-2.07 5.37-.42m5.98.22a6.25 6.25 0 017.43 1.24" fill="none" stroke="#263238" stroke-linecap="round" stroke-linejoin="round"/>
  <path d="M341.24 204.65s-21 60-21 61-3 6.66 0 10.33 8.33 5 11.33 3.67 18.67-29 18.67-29-8-42.65-9-46z" fill="#fff" stroke="#263238" stroke-linecap="round" stroke-linejoin="round"/>
  <path fill="none" stroke="#263238" stroke-linecap="round" stroke-linejoin="round" d="M343.08 226.99l-1.05-3.4m6.8 22.02l-4.71-15.24"/>
  <path d="M324.94 257.67L385.28 232l1.33 6.33s-45.67 35.34-49 38-4.67 4.67-9 4.67-10-4-10-9.33a25.12 25.12 0 012.33-10" fill="#fff" stroke="#263238" stroke-linecap="round" stroke-linejoin="round"/>
  <path fill="none" stroke="#263238" stroke-linecap="round" stroke-linejoin="round" d="M378.52 235.48l2.27 5.68"/>
  <path d="M385.28 232s2-7.33 2.66-8.33 4.67-3.67 6.34-5 4.33-3.67 4.66-2-4 6.66-4 6.66 6.67-3.33 9-3.66a25.21 25.21 0 016.92-.36c1.67.33-.06 1.27-.25 3.69-.32 4-7.33 7.67-9.33 9.67s-14.67 5.66-14.67 5.66z" fill="#fff" stroke="#263238" stroke-linecap="round" stroke-linejoin="round"/>
  <path fill="none" stroke="#263238" stroke-linecap="round" stroke-linejoin="round" d="M410.29 221.58l-11.91 3.97m11.35-.28l-10.22 3.69m3.41 2.55l-2.56.85m-5.42-9.03l-3.94.24"/>
  <path d="M426.24 200.32s6.43 16.2 8 19.66c1.87 4.15 10.37 21.35 10.37 21.35l16-34.66 8.67 3.66s-13.67 43-16.67 49.34-2.33 11.33-7 11-19-15-19-15z" fill="#fff" stroke="#263238" stroke-linecap="round" stroke-linejoin="round"/>
  <path fill="none" stroke="#263238" stroke-linecap="round" stroke-linejoin="round" d="M444.61 241.33l-6.51 11.74m3.97-7.37l-5.39 4.25m21.85-37.73l8.51 4.25"/>
  <path d="M460.61 206.67s-.33-9.34.67-11.34 4.66-7.33 5-8.66 2-3.67 2.33-1.34a18.13 18.13 0 01-.33 5.34s4.33-4 4.66-5.34 0-6 1.34-6 2.66 1 4 5 0 10.34-.67 12.67-7.33 11.33-7.33 11.33l-1 2z" fill="#fff" stroke="#263238" stroke-linecap="round" stroke-linejoin="round"/>
  <path d="M478.39 187s-.57-2.27-1.13-.56-2.27 8.22-2.27 8.22-8.8 6-8.8 7.67V204" fill="none" stroke="#263238" stroke-linecap="round" stroke-linejoin="round"/>
  <path d="M428.33 428.08l7.59 10.1s10.13 2.65 10.2 3.7-3.62 2.59-3.62 2.59l-9.82 1.53s-11.63-4.56-14.43-5.21-5.38.07-4.56-3.16 2.13-9.91 2.13-9.91z" fill="#fff" stroke="#263238" stroke-linecap="round" stroke-linejoin="round"/>
  <path d="M401.63 324.65s7.77-13.85 18.59-19.26S440.5 302 449.28 302s23.66 1.35 25.35 3.38-46.3 122.69-46.3 122.69l-12.51-.34s9.13-40.56 10.48-50 4.7-36.85 4.7-36.85-23.44 0-34.25-.38M356 306.09s.34-5.07 11.15-5.41 22.31-1.35 23.66 5.07 1.69 104.78 1.69 108.16 1 11.49 1 11.49l-12.51 1s-16.2-54.4-18.91-66.57-2.36-41.57-2.36-43.94" fill="#263238" stroke="#263238" stroke-linecap="round" stroke-linejoin="round"/>
  <path d="M393.52 425.4s4.39 14.87 5.4 16.56 1.69 2.71-1.35 4.73-9.12 3.38-12.84 2.37-4.4-7.44-3.72-12.84a39.28 39.28 0 000-9.81z" fill="#fff" stroke="#263238" stroke-linecap="round" stroke-linejoin="round"/>
  <path fill="none" stroke="#263238" stroke-linecap="round" stroke-linejoin="round" stroke-width="6" d="M192.28 345l-15.5 96m67.5-96l-15.5 96m37-96l15.5 96m38.5-96l15.5 96"/>
  <path fill="gray" stroke="#263238" stroke-linecap="round" stroke-linejoin="round" d="M166.64 240.29l22.32 101.34h72.87L235.9 240.29h-69.26z"/>
  <path fill="gray" stroke="#263238" stroke-linecap="round" stroke-linejoin="round" d="M188.96 341.34h137.81v5.77H188.96z"/>
  <path fill="gray" stroke="#263238" stroke-linecap="round" stroke-linejoin="round" d="M280.13 341.34h46.64v5.77h-46.64z"/>
  <path d="M208.61 195l-27.67 15 14.67 90s-.67 2.33 1 3.33 6.33 1.34 6.33 1.34h54.34a10.74 10.74 0 005-3.34c1.66-2.33 1.66-3.66 1.66-6s5.67-86.66 4.67-88.33a20.39 20.39 0 00-2.67-3.33l-28.66-11.34z" fill="#fff" stroke="#263238" stroke-linecap="round" stroke-linejoin="round"/>
  <path fill="#263238" stroke="#263238" stroke-linecap="round" stroke-linejoin="round" d="M228.34 215.32l6.52 4.48-1.82 63.12 12.17 12.85 9.8-14.87-15.76-62.12 4.4-9.46-12.51-7.1-2.8 13.1z"/>
  <path d="M248.94 142.33l4 12-1.66 4.67 5.33 9-3.67 2.33s2 12.34 1.34 13.34-14.67 2-14.67 2l-2 20-22.33-13V173s-7.34-27.67-5.67-30 13-7 26.67-8.67 15.66-3 16.33 1-3.67 7-3.67 7z" fill="#fff" stroke="#263238" stroke-linecap="round" stroke-linejoin="round"/>
  <path d="M252.61 135.33c-.67-4-2.67-2.66-16.33-1s-25 6.34-26.67 8.67 5.67 30 5.67 30v5.34a8.45 8.45 0 002.66 0c3.67-.66 8.67-5.66 8.67-5.66s-5 3-7 0a13.42 13.42 0 01-2-10c.67-3.34 5.67-2.34 5.67-.67s2 5 3.66 4.33 2-8.33 2-8.33 7-4.67 7.34-7-2-6-2-6l14.66-2.67s4.34-3.01 3.67-7.01z" fill="#263238" stroke="#263238" stroke-linecap="round" stroke-linejoin="round"/>
  <path d="M249.28 155.67s-4-1.34-6.34 1.66" fill="none" stroke="#263238" stroke-linecap="round" stroke-linejoin="round"/>
  <path d="M249.61 160.17c0 1.19-.45 2.16-1 2.16s-1-1-1-2.16.45-2.17 1-2.17 1 1 1 2.17z" fill="#263238"/>
  <path d="M251.61 173.67s-4.33 1-6-.67" fill="none" stroke="#263238" stroke-linecap="round" stroke-linejoin="round"/>
  <path fill="#263238" stroke="#263238" stroke-linecap="round" stroke-linejoin="round" d="M239.61 185.67h-7.67l6.34 10.33 1.33-10.33z"/>
  <path fill="#fff" stroke="#263238" stroke-linecap="round" stroke-linejoin="round" d="M215.28 189l-8.34 6.67L227.28 219l10.33-13.33L215.28 189zm22.33 16.67l7.67 10-2.34-21-3.66-4.34-1.67 15.34zm31 1.33l27.33 65.67-18.33 7.33-11.67-20.67 2.67-52.33z"/>
  <path d="M248.28 272.33s24-3.66 31-5 12.66-.33 16 3.34 2.66 10.66 1.66 12.33-10 2.33-16 2.33-24.33-4.66-28-5.66l-3.66-1z" fill="#fff" stroke="#263238" stroke-linecap="round" stroke-linejoin="round"/>
  <path d="M270.61 282s9 1.33 9.67 2.33 8 9.34 9 10.34 1.66 10.33 1.66 10.33-2.33 1.67-3 .67-8.33-10.67-8.33-10.67-9.67-3.33-10.33-5.33l-.67-2zm-89.67-72s16.67 76 18 76.33 69.67 1.34 69.67 1.34l2-5.67-56.67-14.33-3.66-50.67" fill="#fff" stroke="#263238" stroke-linecap="round" stroke-linejoin="round"/>
  <path d="M297.28 310.53s36 8.51 38.66 10.14 1.34 7.53-.33 12.44-52.67 92.27-52.67 92.27l-7.66-2 23.33-82.78h-29.33z" fill="#263238" stroke="#263238" stroke-linecap="round" stroke-linejoin="round"/>
  <path d="M282.94 425.38l6 13.74s8.34 6.21 8 7.2-4.33 1-4.33 1l-9.67-2.32s-9-8.51-11.33-10.15-5-2-3-4.58a74.63 74.63 0 016.67-6.87z" fill="#fff" stroke="#263238" stroke-linecap="round" stroke-linejoin="round"/>
  <path d="M196.61 303.33s-1.67 18-1.67 22.58 3.67 11.78 10.34 14.4 84.33 0 84.33 0l30.67 94.23 9-3.28s-11.34-102.73-11.34-105-1-10.47-4.33-12.11-56.33-9.49-56.33-9.49z" fill="#263238" stroke="#263238" stroke-linecap="round" stroke-linejoin="round"/>
  <path d="M329.28 431.26s17.33 2.29 19.33 2 8.33-1.64 6.33 1.63-15 6.87-20.33 9.16-10.67 5.89-12.33 3.28-2-12.76-2-12.76zm-93.67-163.93h-6.33l-6.67 7.67s-2 4.67 0 4.67 6.67 1 9.67 0 11.33-4.34 11.33-4.34a10.41 10.41 0 00-8-8z" fill="#fff" stroke="#263238" stroke-linecap="round" stroke-linejoin="round"/>
  <path fill="#fff" stroke="#263238" stroke-linecap="round" stroke-linejoin="round" d="M238.94 268.67l9.34 3.66 1.33 4-6-1-4.67-6.66z"/>
  <path d="M222.24 277s8.81-7.71 11.09-8.67m-9.48 10.85s11.7-9.87 14.12-9.87m-9.68 10.88s8.47-7.86 12.3-8.26" fill="none" stroke="#263238" stroke-linecap="round" stroke-linejoin="round"/>
  <g stroke="#263238">
    <path fill="#fff" stroke-linecap="round" stroke-linejoin="round" d="M164.72 288.58h507.55v23.37H164.72z"/>
    <path fill="#fff" stroke-linecap="round" stroke-linejoin="round" d="M169.14 444.19h-6.84l-4.93-155.61h16.7l-4.93 155.61zm504.21 0h-6.84l-4.93-155.61h16.7l-4.93 155.61z"/>
    <path fill="#263238" stroke-miterlimit="10" d="M677.92 296.18H157.63v-5.5h520.65l-.36 5.5z"/>
    <path fill="#fff" stroke-linecap="round" stroke-linejoin="round" d="M149.78 286h533.5v5.5h-533.5z"/>
  </g>
  <g fill="#34a37e" stroke="#263238" stroke-linecap="round" stroke-linejoin="round">
    <path d="M461.77 266.85s2.41-1 3.78-.17 1.72 10.47 0 13.39a5.77 5.77 0 01-4.12 3.09l-.34-4.64s1.54.86 2.4-2.4.69-6 .17-6.18a3.71 3.71 0 00-1.71.34z"/>
    <path d="M442.77 262.17h19.38v24.45h-19.38zm-263.07 4.68s-2.4-1-3.77-.17-1.72 10.47 0 13.39a5.77 5.77 0 004.12 3.09l.34-4.64s-1.54.86-2.4-2.4-.69-6-.17-6.18a3.71 3.71 0 011.71.34z"/>
    <path d="M198.71 286.63h-19.38v-24.45h19.38zm440.99-19.78s-2.4-1-3.77-.17-1.72 10.47 0 13.39a5.77 5.77 0 004.12 3.09l.34-4.64s-1.54.86-2.4-2.4-.69-6-.17-6.18a3.71 3.71 0 011.71.34z"/>
    <path d="M658.71 286.63h-19.38v-24.45h19.38z"/>
  </g>
  <path fill="#263238" stroke="#263238" stroke-miterlimit="10" d="M479.74 241.3h79.1v45.03h-79.1z"/>
  <path d="M328.33 60.66h-77.65a9.66 9.66 0 00-9.68 9.67v37a9.66 9.66 0 009.66 9.67h9.48l-4.51 18.53L272 117h56.31a9.67 9.67 0 009.67-9.67v-37a9.67 9.67 0 00-9.65-9.67z" fill="#263238"/>
  <path d="M305 76.62h18.54m-48.74 0h25.79m-45.31 0H270m41.65 8.13h11.91m-34.76 0h20.27m-53.79 0H287m14.33 8.13h22.23m-51.34 0h25.43m-42.37 0h14m47.9 8.12h6.38m-27.02 0h16.95m-26.16 0H294m-34.68 0h23.22m-27.26 0h2.2" fill="none" stroke="#fff" stroke-linecap="round" stroke-linejoin="round"/>
  <path d="M435.67 69H363a9.67 9.67 0 00-9.67 9.67v34.12a9.67 9.67 0 009.67 9.67h51.46v15.27l9.16-15.27h12.06a9.67 9.67 0 009.67-9.67V78.63a9.67 9.67 0 00-9.68-9.63z" fill="#fff" stroke="#263238" stroke-linecap="round" stroke-linejoin="round"/>
  <path d="M415.57 84h18.54m-48.76 0h25.79m-45.31 0h14.73m41.64 8.12h11.91m-34.76 0h20.27m-53.79 0h31.68m14.37 8.13h22.23m-51.34 0h25.43m-42.37 0h14m47.9 8.13h6.38m-27.02 0h17m-26.21 0h6.63m-34.64 0h23.22m-27.26 0H368" fill="none" stroke="#263238" stroke-linecap="round" stroke-linejoin="round"/>
  <path d="M535.94 49.45h-72.69a9.67 9.67 0 00-9.67 9.67v34.12a9.67 9.67 0 009.67 9.67h53.24l12.32 20.69-2-20.69h9.11a9.67 9.67 0 009.67-9.67V59.12a9.67 9.67 0 00-9.65-9.67z" fill="#34a37e" stroke="#263238" stroke-linecap="round" stroke-linejoin="round"/>
  <path d="M515.06 63.35h18.55m-48.77 0h25.8m-45.32 0h14.73m41.64 8.13h11.92m-34.76 0h20.26m-53.79 0H497m14.38 8.13h22.23m-51.35 0h25.43m-42.37 0h14m47.9 8.13h6.39m-27.02 0h16.95m-26.17 0H504m-34.63 0h23.21m-27.26 0h2.2" fill="none" stroke="#263238" stroke-linecap="round" stroke-linejoin="round"/>
</svg>
