<svg xmlns="http://www.w3.org/2000/svg" viewBox="0 0 500 500">
  <path fill="#ebebeb" d="M0 382.4h500v.25H0zm416.78 16.09h33.12v.25h-33.12zm-94.25 2.72h8.69v.25h-8.69zm74.06-12h19.19v.25h-19.19zm-344.13 1.68h43.19v.25H52.46zm52.1 0h6.33v.25h-6.33zm26.91 4.22h93.68v.25h-93.68zM237 337.8H43.91a5.71 5.71 0 01-5.7-5.71V60.66a5.71 5.71 0 015.7-5.66H237a5.71 5.71 0 015.71 5.71v271.38a5.71 5.71 0 01-5.71 5.71zM43.91 55.2a5.46 5.46 0 00-5.45 5.46v271.43a5.46 5.46 0 005.45 5.46H237a5.47 5.47 0 005.46-5.46V60.66A5.47 5.47 0 00237 55.2zm409.4 282.6h-193.1a5.72 5.72 0 01-5.71-5.71V60.66a5.72 5.72 0 015.71-5.66h193.1a5.71 5.71 0 015.69 5.66v271.43a5.71 5.71 0 01-5.69 5.71zM260.21 55.2a5.47 5.47 0 00-5.46 5.46v271.43a5.47 5.47 0 005.46 5.46h193.1a5.47 5.47 0 005.46-5.46V60.66a5.47 5.47 0 00-5.46-5.46z"/>
  <path fill="#e0e0e0" d="M72.49 106.05h215.16v171.29H72.49z"/>
  <path d="M284.47 109v165.12H75.08v-49.7a1.93 1.93 0 000-.34V109z" fill="#f5f5f5"/>
  <path d="M142.94 230.59a3.39 3.39 0 01-.11-.77c-.1-1.61-1.64-1.35-2.94-1.57-1-.17 1.68-2.75-.38-3.58a1.83 1.83 0 01-1-.69 1.16 1.16 0 01.45-1.43 2.69 2.69 0 011.56-.39c.34-.41.06-1-.26-1.44s-.73-.89-.6-1.41c.18-.77 1.27-.8 2.05-.65a5.58 5.58 0 00.43-1.59c.14-.53.56-1.09 1.11-1s.83.64 1.33.76 1.1-.38 1.56-.77 1.26-.63 1.58-.12c.19.31.07.74.27 1 .34.52 1.15.2 1.66-.17s1.3-.71 1.66-.2a2 2 0 01.19.54c.24.69 1 1 1.56 1.47s1 1.32.55 1.86c-.24.26-.67.37-.79.71s.28.8.63 1.09c.56.48.67 1.93-.08 2.33-.32.16-.78.21-.86.56s.25.55.46.79a1.5 1.5 0 01-.46 2.23c-.18.08-.4.16-.47.34a.67.67 0 000 .42 2.24 2.24 0 01.08.81.37.37 0 01-.1.25.36.36 0 01-.24.07c-1.09.05-1.61-.34-2.27.61a.88.88 0 01-.23.24.73.73 0 01-.3.07c-.74.06-1.23-.4-1.91-.49-1-.12-1.15.37-2 .76-1.25.64-1.88.26-2.13-.64z" fill="#f0f0f0"/>
  <path d="M155.44 229.24a3.39 3.39 0 01-.11-.77c-.1-1.61-1.63-1.36-2.94-1.57-1-.17 1.68-2.75-.38-3.58a1.83 1.83 0 01-1-.7 1.15 1.15 0 01.45-1.42 2.71 2.71 0 011.56-.39c.34-.41.06-1-.26-1.44s-.72-.89-.6-1.41c.19-.77 1.27-.8 2.05-.65a5.67 5.67 0 00.43-1.59c.14-.53.56-1.09 1.11-1s.83.64 1.33.76 1.1-.38 1.56-.77 1.26-.63 1.58-.12c.19.31.08.74.27 1 .35.52 1.16.2 1.66-.17s1.3-.71 1.66-.2a2 2 0 01.19.54c.24.69 1 1 1.56 1.47s1 1.32.55 1.86c-.24.26-.67.37-.79.71s.29.8.63 1.09c.57.48.67 1.93-.08 2.32-.32.17-.78.22-.86.57s.25.55.46.79a1.5 1.5 0 01-.46 2.23c-.18.08-.4.15-.47.34a.75.75 0 000 .42 2.22 2.22 0 01.08.81.37.37 0 01-.1.25.42.42 0 01-.24.07c-1.09 0-1.61-.34-2.27.61a.88.88 0 01-.23.24.73.73 0 01-.3.07c-.74.06-1.23-.4-1.91-.49-1-.12-1.15.37-2 .76-1.24.64-1.88.26-2.13-.64z" fill="#f0f0f0"/>
  <path d="M156.65 221.28a4.29 4.29 0 01-.12-.77c-.09-1.61-1.63-1.36-2.94-1.57-1-.18 1.69-2.75-.37-3.59a1.73 1.73 0 01-1-.69 1.16 1.16 0 01.44-1.42 2.75 2.75 0 011.57-.4c.33-.4.06-1-.27-1.43s-.72-.9-.6-1.41c.19-.77 1.27-.8 2.06-.65a5.65 5.65 0 00.42-1.59c.14-.53.57-1.09 1.11-1s.83.64 1.34.76 1.09-.38 1.55-.77 1.27-.63 1.58-.12c.19.31.08.73.28 1 .34.52 1.15.2 1.65-.18s1.31-.7 1.66-.19a2.06 2.06 0 01.2.54c.24.69 1 1 1.56 1.47s1 1.32.54 1.85c-.24.27-.66.38-.78.72s.28.8.62 1.09c.57.48.67 1.93-.08 2.32-.31.17-.78.22-.85.57s.24.55.45.79a1.5 1.5 0 01-.45 2.23c-.19.08-.41.15-.47.34a.68.68 0 000 .42 2.21 2.21 0 01.07.81.37.37 0 01-.1.25.45.45 0 01-.23.07c-1.09.05-1.61-.34-2.28.61a.84.84 0 01-.22.24.78.78 0 01-.3.07c-.75.06-1.24-.4-1.92-.49-.94-.12-1.14.37-2 .76-1.24.64-1.87.26-2.12-.64z" fill="#f0f0f0"/>
  <path d="M164.88 225.25a3.57 3.57 0 01-.11-.78c-.1-1.61-1.63-1.35-2.94-1.57-1-.17 1.68-2.75-.38-3.58a1.81 1.81 0 01-1-.69 1.17 1.17 0 01.45-1.43 2.79 2.79 0 011.56-.39c.34-.41.06-1-.26-1.44s-.72-.89-.6-1.4c.19-.78 1.27-.81 2-.66a5.51 5.51 0 00.43-1.58c.14-.54.56-1.1 1.11-1s.83.65 1.33.76 1.1-.38 1.56-.77 1.26-.63 1.58-.11c.19.3.08.73.27 1 .35.53 1.16.2 1.66-.17s1.3-.71 1.66-.19a1.92 1.92 0 01.19.54c.24.68 1 1 1.56 1.47s1 1.31.55 1.85c-.24.27-.67.37-.79.71s.29.8.63 1.09c.57.49.67 1.93-.08 2.33-.32.16-.78.22-.86.56s.25.56.46.8a1.49 1.49 0 01-.46 2.22c-.18.09-.4.16-.47.35a.77.77 0 000 .42 2.16 2.16 0 01.08.8.38.38 0 01-.1.26.41.41 0 01-.24.06c-1.09 0-1.61-.33-2.27.61a.76.76 0 01-.23.24.74.74 0 01-.3.08c-.74.06-1.23-.41-1.91-.49-.95-.13-1.15.36-2 .75-1.19.62-1.83.24-2.08-.65z" fill="#f0f0f0"/>
  <path d="M173.21 223.42a3.55 3.55 0 01-.12-.78c-.1-1.61-1.63-1.35-2.94-1.57-1-.17 1.68-2.75-.37-3.58a1.86 1.86 0 01-1-.69 1.19 1.19 0 01.45-1.43 2.81 2.81 0 011.56-.39c.34-.41.07-1-.26-1.44s-.72-.89-.6-1.4c.19-.78 1.27-.81 2.06-.66a5.56 5.56 0 00.42-1.59c.14-.53.56-1.09 1.11-1s.83.64 1.34.76 1.09-.38 1.55-.77 1.27-.63 1.58-.12c.19.31.08.74.28 1 .34.52 1.15.2 1.65-.17s1.31-.71 1.66-.19a2.24 2.24 0 01.2.53c.23.69 1 1 1.56 1.47s1 1.32.54 1.86c-.24.26-.66.37-.78.71s.28.8.62 1.09c.57.48.67 1.93-.08 2.33-.32.16-.78.21-.86.56s.25.56.46.8a1.49 1.49 0 01-.46 2.22c-.18.09-.4.16-.47.35a.78.78 0 00.05.42 2.16 2.16 0 01.07.8.37.37 0 01-.1.25.33.33 0 01-.24.07c-1.08.05-1.61-.33-2.27.61a.84.84 0 01-.22.24.63.63 0 01-.3.07c-.75.07-1.24-.4-1.92-.49-.95-.12-1.15.37-2 .76-1.29.64-1.93.26-2.17-.63z" fill="#f0f0f0"/>
  <path d="M173.32 232.32a3.53 3.53 0 01-.1-.61c-.07-1.27-1.28-1.07-2.31-1.24-.8-.13 1.32-2.16-.3-2.82a1.46 1.46 0 01-.78-.54.94.94 0 01.36-1.13 2.17 2.17 0 011.23-.3c.26-.33 0-.81-.21-1.14s-.57-.7-.47-1.1c.14-.61 1-.64 1.61-.52a4.36 4.36 0 00.34-1.25c.11-.42.44-.86.87-.81s.66.51 1.05.61.87-.3 1.23-.61 1-.5 1.24-.09c.15.24.06.57.22.81.27.41.91.16 1.3-.13s1-.56 1.31-.15a1.9 1.9 0 01.15.42c.19.54.78.81 1.23 1.16s.82 1 .43 1.46c-.19.21-.52.29-.62.56s.22.63.49.86c.45.38.53 1.52-.06 1.83-.25.13-.61.17-.67.44s.19.44.36.63a1.18 1.18 0 01-.36 1.75c-.15.07-.32.12-.37.27a.54.54 0 000 .33 1.72 1.72 0 01.06.64.3.3 0 01-.08.2.3.3 0 01-.19.05c-.85 0-1.26-.27-1.79.48a.77.77 0 01-.17.19.65.65 0 01-.24.06c-.59 0-1-.32-1.51-.39-.74-.1-.9.29-1.56.6-1.01.48-1.5.16-1.69-.52z" fill="#f0f0f0"/>
  <path d="M178 229.24a4 4 0 01-.12-.77c-.09-1.61-1.63-1.36-2.94-1.57-1-.17 1.69-2.75-.37-3.58a1.79 1.79 0 01-1-.7 1.16 1.16 0 01.44-1.42 2.75 2.75 0 011.57-.39c.33-.41.06-1-.27-1.44s-.72-.89-.6-1.41c.19-.77 1.27-.8 2.06-.65a5.65 5.65 0 00.42-1.59c.14-.53.57-1.09 1.11-1s.83.64 1.34.76 1.09-.38 1.55-.77 1.27-.63 1.59-.12c.19.31.07.74.27 1 .34.52 1.15.2 1.65-.17s1.31-.71 1.66-.2a2.06 2.06 0 01.2.54c.24.69 1 1 1.56 1.47s1 1.32.55 1.86c-.25.26-.67.37-.79.71s.28.8.62 1.09c.57.48.67 1.93-.08 2.32-.31.17-.78.22-.85.57s.24.55.45.79a1.5 1.5 0 01-.45 2.23c-.18.08-.41.15-.47.34a.67.67 0 000 .42 2.21 2.21 0 01.07.81.37.37 0 01-.1.25.37.37 0 01-.23.07c-1.09 0-1.61-.34-2.28.61a.84.84 0 01-.22.24.78.78 0 01-.3.07c-.75.06-1.24-.4-1.92-.49-.94-.12-1.14.37-2 .76-1.26.64-1.89.26-2.12-.64zm-13.12-13.79a3.39 3.39 0 01-.11-.77c-.1-1.61-1.63-1.35-2.94-1.57-1-.17 1.68-2.75-.38-3.58a1.87 1.87 0 01-1-.69 1.16 1.16 0 01.45-1.43 2.71 2.71 0 011.56-.39c.34-.41.06-1-.26-1.44s-.72-.89-.6-1.41c.19-.77 1.27-.8 2-.65a5.58 5.58 0 00.43-1.59c.14-.53.56-1.09 1.11-1s.83.64 1.33.76 1.1-.38 1.56-.77 1.26-.63 1.58-.12c.19.31.08.74.27 1 .35.52 1.16.2 1.66-.17s1.3-.71 1.66-.2a2 2 0 01.19.54c.24.69 1 1 1.56 1.47s1 1.32.55 1.86c-.24.26-.67.37-.79.71s.29.8.63 1.09c.57.48.67 1.93-.08 2.33-.32.16-.78.21-.86.56s.25.55.46.79a1.5 1.5 0 01-.46 2.23c-.18.08-.4.16-.47.34a.75.75 0 000 .42 2.24 2.24 0 01.08.81.37.37 0 01-.1.25.36.36 0 01-.24.07c-1.09.05-1.61-.34-2.27.61a.88.88 0 01-.23.24.73.73 0 01-.3.07c-.74.06-1.23-.4-1.91-.49-.95-.12-1.15.37-2 .76-1.19.64-1.83.26-2.08-.64z" fill="#f0f0f0"/>
  <path d="M154.19 216a4.29 4.29 0 01-.12-.77c-.09-1.61-1.63-1.36-2.93-1.58-1-.17 1.68-2.74-.38-3.58a1.78 1.78 0 01-1-.69 1.15 1.15 0 01.45-1.42 2.7 2.7 0 011.56-.4c.33-.4.06-1-.26-1.44s-.73-.89-.6-1.4c.18-.78 1.27-.8 2.05-.65a5.65 5.65 0 00.42-1.59c.15-.53.57-1.09 1.12-1s.83.65 1.33.77 1.1-.38 1.56-.77 1.26-.63 1.58-.12c.19.31.07.73.27 1 .34.52 1.15.19 1.66-.18s1.3-.7 1.66-.19a2.47 2.47 0 01.19.54c.24.69 1 1 1.56 1.47s1 1.32.55 1.85c-.24.27-.67.38-.79.71s.28.81.62 1.1c.57.48.68 1.93-.08 2.32-.31.17-.77.22-.85.57s.25.55.46.79a1.49 1.49 0 01-.46 2.22c-.18.09-.4.16-.47.35a.68.68 0 000 .42 2 2 0 01.07.81.32.32 0 01-.09.25.51.51 0 01-.24.07c-1.09 0-1.61-.34-2.27.61a.88.88 0 01-.23.24.78.78 0 01-.3.07c-.75.06-1.23-.4-1.92-.49-.94-.12-1.14.37-2 .76-1.24.62-1.87.24-2.12-.65z" fill="#f0f0f0"/>
  <path d="M147.7 220.38a3.55 3.55 0 01-.12-.78c-.1-1.61-1.63-1.35-2.94-1.57-1-.17 1.68-2.75-.37-3.58a1.8 1.8 0 01-1-.69 1.19 1.19 0 01.45-1.43 2.81 2.81 0 011.56-.39c.34-.41.07-1-.26-1.44s-.72-.89-.6-1.4c.19-.78 1.27-.81 2.06-.66a5.58 5.58 0 00.42-1.58c.14-.54.56-1.1 1.11-1s.83.64 1.34.76 1.09-.38 1.55-.77 1.27-.63 1.58-.12c.19.31.08.74.28 1 .34.53 1.15.2 1.65-.17s1.31-.71 1.66-.19a2.24 2.24 0 01.2.53c.23.69 1 1 1.56 1.47s1 1.32.54 1.86c-.24.26-.66.37-.78.71s.28.8.62 1.09c.57.48.67 1.93-.08 2.33-.32.16-.78.21-.86.56s.25.56.46.8a1.49 1.49 0 01-.46 2.22c-.18.09-.4.16-.47.35a.78.78 0 000 .42 2.16 2.16 0 01.07.8.37.37 0 01-.1.25.33.33 0 01-.24.07c-1.08 0-1.61-.33-2.27.61a.73.73 0 01-.22.24.79.79 0 01-.3.08c-.75.06-1.24-.41-1.92-.5-1-.12-1.15.37-2 .76-1.24.63-1.88.25-2.12-.64z" fill="#f0f0f0"/>
  <path d="M149.67 225.91s2.71 3.84 3.65 5.05 5.62 8.81 6.26 13.83c.06.53.13 1 .2 1.4-1.05 6.88-1.46 16.71-1.62 25.17h6.59c.19-13.93.45-31.49.58-32.32.21-1.39 2.88-6.67 7-8.84s7.68-9.35 7.68-9.35h-1.31a23.48 23.48 0 01-5.9 6.84 13.58 13.58 0 01-1.56.92 22.18 22.18 0 00-1.38-7.76l-.71.66a18.4 18.4 0 01.55 7.87 14.23 14.23 0 00-3.59 2.4c-3.59-4.68-5.61-15.37-5.61-15.37l-.92.51a53.08 53.08 0 001.18 6.55c.68 2.77 2.66 8 3.58 10.34a24.6 24.6 0 00-2.71 5.1 2.37 2.37 0 00-.35-.42c-2.34-2.11-6.74-12.11-6.74-12.11-1.07-2.33.56-8.43.56-8.43h-1.23l-.55 5.33-3.09-3.37-.56.47 3.27 4.22 1.69 5.34-4.4-4.88zm52.45 4.63a3.55 3.55 0 01-.12-.78c-.1-1.61-1.63-1.35-2.94-1.57-1-.17 1.68-2.75-.37-3.58a1.8 1.8 0 01-1-.69 1.18 1.18 0 01.45-1.43 2.81 2.81 0 011.56-.39c.34-.41.07-1-.26-1.44s-.72-.89-.6-1.4c.19-.78 1.27-.81 2.06-.66a5.84 5.84 0 00.42-1.58c.14-.54.56-1.1 1.11-1s.83.65 1.34.76 1.09-.38 1.55-.76 1.27-.64 1.58-.12c.19.3.08.73.28 1 .34.53 1.15.2 1.65-.17s1.31-.71 1.66-.19a2.31 2.31 0 01.2.54c.23.68 1 1 1.56 1.47s1 1.31.54 1.85c-.24.27-.66.37-.78.71s.28.8.62 1.09c.57.49.67 1.93-.08 2.33-.32.16-.78.22-.86.56s.25.56.46.8a1.49 1.49 0 01-.46 2.22c-.18.09-.4.16-.47.35a.78.78 0 00.05.42 2.39 2.39 0 01.07.8.38.38 0 01-.1.26.38.38 0 01-.24.06c-1.08.05-1.61-.33-2.27.61a.73.73 0 01-.22.24.79.79 0 01-.3.08c-.75.06-1.24-.41-1.92-.49-.95-.13-1.15.36-2 .75-1.29.62-1.93.24-2.17-.65z" fill="#f0f0f0"/>
  <path d="M214.62 229.19a4.26 4.26 0 01-.12-.78c-.09-1.61-1.63-1.35-2.94-1.57-1-.17 1.69-2.75-.37-3.58a1.84 1.84 0 01-1-.69 1.19 1.19 0 01.45-1.43 2.83 2.83 0 011.57-.39c.33-.41.06-1-.27-1.44s-.72-.89-.6-1.4c.19-.78 1.27-.81 2.06-.66a5.58 5.58 0 00.42-1.58c.14-.54.57-1.1 1.11-1s.83.64 1.34.76 1.09-.38 1.55-.77 1.27-.63 1.58-.12c.19.31.08.74.28 1 .34.53 1.15.2 1.65-.17s1.31-.71 1.66-.19a2.24 2.24 0 01.2.53c.24.69 1 1 1.56 1.47s1 1.32.54 1.86c-.24.26-.66.37-.78.71s.28.8.62 1.09c.57.49.67 1.93-.08 2.33-.31.16-.78.22-.85.56s.24.56.45.8a1.49 1.49 0 01-.46 2.22c-.18.09-.4.16-.46.35a.69.69 0 000 .42 2.16 2.16 0 01.07.8.42.42 0 01-.1.26.38.38 0 01-.24.06c-1.08 0-1.6-.33-2.27.61a.73.73 0 01-.22.24.79.79 0 01-.3.08c-.75.06-1.24-.41-1.92-.5-.94-.12-1.15.37-2 .76-1.25.63-1.89.25-2.13-.64z" fill="#f0f0f0"/>
  <path d="M215.82 221.23a3.57 3.57 0 01-.11-.78c-.1-1.61-1.64-1.35-2.94-1.57-1-.17 1.68-2.75-.38-3.58a1.83 1.83 0 01-1-.69 1.16 1.16 0 01.45-1.43 2.69 2.69 0 011.56-.39c.34-.41.06-1-.26-1.44s-.72-.89-.6-1.41c.18-.77 1.27-.8 2-.65a5.58 5.58 0 00.43-1.59c.14-.53.56-1.09 1.11-1s.83.64 1.33.76 1.1-.38 1.56-.77 1.26-.63 1.58-.12c.19.31.08.74.27 1 .34.52 1.15.2 1.66-.17s1.3-.71 1.66-.19a1.86 1.86 0 01.19.53c.24.69 1 1 1.56 1.47s1 1.32.55 1.86c-.24.26-.67.37-.79.71s.28.8.63 1.09c.56.48.67 1.93-.08 2.33-.32.16-.78.21-.86.56s.25.56.46.8a1.5 1.5 0 01-.46 2.22c-.18.09-.4.16-.47.35a.69.69 0 000 .42 2.16 2.16 0 01.08.8.37.37 0 01-.1.25.36.36 0 01-.24.07c-1.09.05-1.61-.33-2.27.61a.88.88 0 01-.23.24.6.6 0 01-.3.07c-.74.07-1.23-.4-1.91-.49-.95-.12-1.15.37-2 .76-1.2.64-1.83.26-2.08-.63z" fill="#f0f0f0"/>
  <path d="M224.06 225.19a4.29 4.29 0 01-.12-.77c-.09-1.61-1.63-1.36-2.94-1.58-1-.17 1.69-2.74-.37-3.58a1.84 1.84 0 01-1-.69 1.18 1.18 0 01.45-1.42 2.75 2.75 0 011.57-.4c.33-.4.06-1-.27-1.44s-.72-.89-.6-1.4c.19-.78 1.27-.8 2.06-.65a5.65 5.65 0 00.42-1.59c.14-.53.57-1.09 1.11-1s.83.65 1.34.77 1.09-.38 1.55-.77 1.27-.63 1.58-.12c.19.31.08.73.28 1 .34.52 1.15.19 1.65-.18s1.31-.7 1.66-.19a2.49 2.49 0 01.2.54c.24.69 1 1 1.56 1.47s1 1.32.54 1.85c-.24.27-.66.38-.78.71s.28.81.62 1.1c.57.48.67 1.93-.08 2.32-.31.17-.78.22-.85.57s.24.55.45.79a1.5 1.5 0 01-.46 2.23c-.18.08-.4.15-.46.34a.68.68 0 000 .42 2.21 2.21 0 01.07.81.37.37 0 01-.1.25.45.45 0 01-.24.07c-1.08 0-1.6-.34-2.27.61a.84.84 0 01-.22.24.78.78 0 01-.3.07c-.75.06-1.24-.4-1.92-.49-.94-.12-1.15.37-2 .76-1.25.62-1.89.24-2.13-.65z" fill="#f0f0f0"/>
  <path d="M232.38 223.36a4.26 4.26 0 01-.12-.78c-.09-1.6-1.63-1.35-2.93-1.57-1-.17 1.68-2.75-.38-3.58a1.78 1.78 0 01-1-.69 1.17 1.17 0 01.45-1.43 2.77 2.77 0 011.56-.39c.33-.41.06-1-.26-1.44s-.73-.89-.6-1.4c.18-.78 1.27-.81 2-.65a5.65 5.65 0 00.42-1.59c.14-.53.57-1.09 1.12-1s.83.65 1.33.77 1.09-.38 1.56-.77 1.26-.64 1.58-.12c.19.3.07.73.27 1 .34.53 1.15.2 1.66-.17s1.3-.71 1.66-.19a2.47 2.47 0 01.19.54c.24.68 1 1 1.56 1.47s1 1.31.55 1.85c-.24.27-.67.37-.79.71s.28.8.62 1.09c.57.49.68 1.93-.08 2.33-.31.17-.77.22-.85.57s.24.55.45.79a1.48 1.48 0 01-.45 2.22c-.18.09-.4.16-.47.35a.69.69 0 000 .42 2.16 2.16 0 01.07.8.37.37 0 01-.09.26.41.41 0 01-.24.06c-1.09.05-1.61-.33-2.27.61a.76.76 0 01-.23.24.64.64 0 01-.3.08c-.75.06-1.23-.41-1.92-.49-.94-.12-1.14.36-2 .76-1.19.61-1.82.23-2.07-.66z" fill="#f0f0f0"/>
  <path d="M232.49 232.26a2.71 2.71 0 01-.09-.61c-.08-1.26-1.29-1.06-2.32-1.24-.8-.13 1.33-2.16-.29-2.81a1.44 1.44 0 01-.78-.55.91.91 0 01.35-1.12 2.17 2.17 0 011.23-.31c.26-.32 0-.81-.21-1.13s-.57-.71-.47-1.11c.15-.61 1-.63 1.62-.51a4.35 4.35 0 00.33-1.25c.11-.42.45-.86.88-.81s.65.51 1 .6.86-.3 1.22-.61 1-.49 1.25-.09c.15.24.06.58.21.82.27.41.91.15 1.31-.14s1-.56 1.3-.15a1.52 1.52 0 01.16.42c.18.54.77.81 1.23 1.16s.81 1 .43 1.46c-.19.21-.53.29-.62.56s.22.63.49.86c.45.38.53 1.52-.07 1.83-.24.13-.61.17-.67.45s.19.43.36.62a1.18 1.18 0 01-.36 1.75c-.14.07-.32.13-.37.27a.57.57 0 000 .34 1.67 1.67 0 01.06.63.3.3 0 01-.08.2.29.29 0 01-.18.05c-.86 0-1.27-.26-1.79.48a.55.55 0 01-.18.19.61.61 0 01-.24.06c-.58.05-1-.32-1.5-.39-.75-.09-.91.29-1.56.6-.96.49-1.46.22-1.65-.52z" fill="#f0f0f0"/>
  <path d="M237.15 229.19a3.57 3.57 0 01-.11-.78c-.1-1.61-1.63-1.35-2.94-1.57-1-.17 1.68-2.75-.38-3.58a1.81 1.81 0 01-1-.69 1.17 1.17 0 01.45-1.43 2.79 2.79 0 011.56-.39c.34-.41.06-1-.26-1.44s-.72-.89-.6-1.4c.18-.78 1.27-.81 2.05-.66a5.6 5.6 0 00.43-1.58c.14-.54.56-1.1 1.11-1s.83.64 1.33.76 1.1-.38 1.56-.77 1.26-.63 1.58-.12c.19.31.08.74.27 1 .34.53 1.16.2 1.66-.17s1.3-.71 1.66-.19a1.86 1.86 0 01.19.53c.24.69 1 1 1.56 1.47s1 1.32.55 1.86c-.24.26-.67.37-.79.71s.28.8.63 1.09c.56.49.67 1.93-.08 2.33-.32.16-.78.22-.86.56s.25.56.46.8a1.49 1.49 0 01-.46 2.22c-.18.09-.4.16-.47.35a.69.69 0 000 .42 2.16 2.16 0 01.08.8.42.42 0 01-.1.26.41.41 0 01-.24.06c-1.09 0-1.61-.33-2.27.61a.76.76 0 01-.23.24.74.74 0 01-.3.08c-.74.06-1.23-.41-1.91-.5-1-.12-1.15.37-2 .76-1.28.63-1.88.25-2.13-.64zm-13.09-13.79a4.26 4.26 0 01-.12-.78c-.09-1.61-1.63-1.35-2.94-1.57-1-.17 1.69-2.75-.37-3.58a1.84 1.84 0 01-1-.69 1.19 1.19 0 01.45-1.43 2.83 2.83 0 011.57-.39c.33-.41.06-1-.27-1.44s-.72-.89-.6-1.4c.19-.78 1.27-.81 2.06-.66a5.5 5.5 0 00.42-1.58c.14-.54.57-1.1 1.11-1s.83.65 1.34.76 1.09-.38 1.55-.76 1.27-.64 1.58-.12c.19.3.08.73.28 1 .34.53 1.15.2 1.65-.17s1.31-.71 1.66-.19a2.31 2.31 0 01.2.54c.24.68 1 1 1.56 1.47s1 1.31.54 1.85c-.24.27-.66.37-.78.71s.28.8.62 1.09c.57.49.67 1.93-.08 2.33-.31.17-.78.22-.85.56s.24.56.45.8a1.49 1.49 0 01-.46 2.22c-.18.09-.4.16-.46.35a.69.69 0 000 .42 2.16 2.16 0 01.07.8.38.38 0 01-.1.26.38.38 0 01-.24.06c-1.08 0-1.6-.33-2.27.61a.73.73 0 01-.22.24.79.79 0 01-.3.08c-.75.06-1.24-.41-1.92-.49-.94-.12-1.15.36-2 .75-1.25.62-1.89.24-2.13-.65z" fill="#f0f0f0"/>
  <path d="M213.37 215.94a3.36 3.36 0 01-.12-.77c-.1-1.61-1.63-1.35-2.94-1.57-1-.17 1.68-2.75-.37-3.58a1.86 1.86 0 01-1-.69 1.18 1.18 0 01.45-1.43 2.73 2.73 0 011.56-.39c.34-.41.07-1-.26-1.44s-.72-.89-.6-1.41c.19-.77 1.27-.8 2-.65a5.58 5.58 0 00.43-1.59c.14-.53.56-1.09 1.11-1s.83.64 1.33.76 1.1-.38 1.56-.77 1.27-.63 1.58-.12c.19.31.08.74.28 1 .34.52 1.15.2 1.65-.17s1.31-.71 1.66-.2a2.49 2.49 0 01.2.54c.23.69 1 1 1.55 1.47s1 1.32.55 1.86c-.24.26-.66.37-.78.71s.28.8.62 1.09c.57.48.67 1.93-.08 2.33-.32.16-.78.21-.86.56s.25.55.46.79a1.5 1.5 0 01-.46 2.23c-.18.09-.4.16-.47.34a.75.75 0 00.05.42 2.47 2.47 0 01.07.81.37.37 0 01-.1.25.33.33 0 01-.24.07c-1.08.05-1.61-.34-2.27.61a.75.75 0 01-.23.24.73.73 0 01-.3.07c-.74.07-1.23-.4-1.91-.49-.95-.12-1.15.37-2 .76-1.24.64-1.88.26-2.12-.64z" fill="#f0f0f0"/>
  <path d="M206.87 220.32a4.29 4.29 0 01-.12-.77c-.09-1.61-1.63-1.36-2.93-1.58-1-.17 1.68-2.74-.38-3.58a1.78 1.78 0 01-1-.69 1.17 1.17 0 01.45-1.43 2.77 2.77 0 011.56-.39c.33-.41.06-1-.26-1.44s-.73-.89-.6-1.4c.18-.78 1.27-.8 2.05-.65a5.65 5.65 0 00.42-1.59c.14-.53.57-1.09 1.12-1s.83.65 1.33.77 1.1-.38 1.56-.77 1.26-.63 1.58-.12c.19.31.07.73.27 1 .34.52 1.15.19 1.66-.18s1.3-.71 1.66-.19a2.47 2.47 0 01.19.54c.24.69 1 1 1.56 1.47s1 1.32.55 1.85c-.24.27-.67.38-.79.71s.28.8.62 1.1c.57.48.68 1.93-.08 2.32-.31.17-.77.22-.85.57s.24.55.45.79a1.48 1.48 0 01-.45 2.22c-.18.09-.4.16-.47.35a.68.68 0 000 .42 2.21 2.21 0 01.07.81.32.32 0 01-.09.25.51.51 0 01-.24.07c-1.09 0-1.61-.34-2.27.6a.66.66 0 01-.23.24.64.64 0 01-.3.08c-.75.06-1.23-.4-1.92-.49-.94-.12-1.14.37-2 .76-1.24.62-1.87.24-2.12-.65z" fill="#f0f0f0"/>
  <path d="M208.84 225.85s2.72 3.84 3.65 5.06 5.62 8.8 6.26 13.82c.07.54.13 1 .2 1.4-1 6.88-1.46 16.71-1.61 25.18h6.58c.19-13.94.46-31.5.59-32.33.21-1.39 2.87-6.67 7-8.84s7.68-9.35 7.68-9.35h-1.32a23.35 23.35 0 01-5.9 6.84 12.27 12.27 0 01-1.56.92 22.1 22.1 0 00-1.37-7.76l-.71.66a18.51 18.51 0 01.54 7.87 14.46 14.46 0 00-3.58 2.4c-3.6-4.67-5.62-15.36-5.62-15.36l-.92.5a54.75 54.75 0 001.19 6.56 107 107 0 003.58 10.34 24.47 24.47 0 00-2.72 5.09 2 2 0 00-.35-.41c-2.34-2.12-6.74-12.12-6.74-12.12-1.06-2.33.56-8.43.56-8.43H213l-.55 5.34-3.09-3.37-.56.47 3.28 4.21 1.68 5.34-4.36-4.88zm46.01-13.31a3.45 3.45 0 01-.12-.77c-.1-1.61-1.63-1.36-2.94-1.57-1-.18 1.68-2.75-.38-3.58a1.83 1.83 0 01-1-.7 1.16 1.16 0 01.45-1.42 2.82 2.82 0 011.56-.4c.34-.4.07-1-.26-1.43s-.72-.89-.6-1.41c.19-.77 1.27-.8 2.05-.65a5.67 5.67 0 00.43-1.59c.14-.53.56-1.09 1.11-1s.83.64 1.33.76 1.1-.38 1.56-.77 1.26-.63 1.58-.12c.19.31.08.73.27 1 .35.52 1.16.2 1.66-.18s1.31-.7 1.66-.19a2 2 0 01.19.54c.24.69 1 1 1.56 1.47s1 1.32.55 1.85c-.24.27-.66.38-.78.72s.28.8.62 1.09c.57.48.67 1.93-.08 2.32-.32.17-.78.22-.86.57s.25.55.46.79a1.5 1.5 0 01-.46 2.23c-.18.08-.4.15-.47.34a.68.68 0 00.05.42 2.45 2.45 0 01.07.81.37.37 0 01-.1.25.38.38 0 01-.24.07c-1.08.05-1.61-.34-2.27.61a.75.75 0 01-.23.24.73.73 0 01-.3.07c-.74.06-1.23-.4-1.91-.49-.95-.12-1.15.37-2 .76-1.28.64-1.92.26-2.16-.64z" fill="#f0f0f0"/>
  <path d="M267.35 211.19a3.55 3.55 0 01-.12-.77c-.1-1.61-1.63-1.36-2.94-1.58-1-.17 1.68-2.74-.37-3.58a1.76 1.76 0 01-1-.69 1.18 1.18 0 01.45-1.42 2.74 2.74 0 011.56-.4c.34-.4.07-1-.26-1.43s-.72-.9-.6-1.41c.19-.78 1.27-.8 2.06-.65a5.65 5.65 0 00.42-1.59c.14-.53.56-1.09 1.11-1s.83.64 1.34.76 1.09-.38 1.55-.77 1.27-.63 1.58-.12c.19.31.08.73.28 1 .34.52 1.15.19 1.65-.18s1.31-.7 1.66-.19a2.49 2.49 0 01.2.54c.23.69 1 1 1.56 1.47s1 1.32.54 1.85c-.24.27-.66.38-.78.71s.28.81.62 1.1c.57.48.67 1.93-.08 2.32-.32.17-.78.22-.86.57s.25.55.46.79a1.5 1.5 0 01-.46 2.23c-.18.08-.4.15-.47.34a.77.77 0 00.05.42 2.21 2.21 0 01.07.81.37.37 0 01-.1.25.45.45 0 01-.24.07c-1.08.05-1.61-.34-2.27.61a.84.84 0 01-.22.24.78.78 0 01-.3.07c-.75.06-1.24-.4-1.92-.49-.95-.12-1.15.37-2 .76-1.29.63-1.93.26-2.17-.64z" fill="#f0f0f0"/>
  <path d="M268.55 203.23a4.26 4.26 0 01-.12-.78c-.09-1.6-1.63-1.35-2.93-1.57-1-.17 1.68-2.75-.38-3.58a1.78 1.78 0 01-1-.69 1.17 1.17 0 01.45-1.43 2.77 2.77 0 011.56-.39c.33-.41.06-1-.26-1.44s-.73-.89-.6-1.4c.18-.78 1.27-.8 2.05-.65a5.65 5.65 0 00.42-1.59c.15-.53.57-1.09 1.12-1s.83.65 1.33.77 1.1-.38 1.56-.77 1.26-.63 1.58-.12c.19.3.07.73.27 1 .34.53 1.15.2 1.66-.17s1.3-.71 1.66-.19a2.47 2.47 0 01.19.54c.24.68 1 1 1.56 1.47s1 1.31.55 1.85c-.24.27-.67.38-.79.71s.28.8.62 1.09c.57.49.68 1.94-.08 2.33-.31.17-.77.22-.85.57s.25.55.46.79a1.49 1.49 0 01-.46 2.22c-.18.09-.4.16-.47.35a.69.69 0 000 .42 2 2 0 01.07.81.32.32 0 01-.09.25.51.51 0 01-.24.07c-1.09 0-1.61-.34-2.27.6a.76.76 0 01-.23.24.64.64 0 01-.3.08c-.75.06-1.23-.41-1.92-.49-.94-.12-1.14.36-2 .76-1.24.61-1.87.23-2.12-.66z" fill="#f0f0f0"/>
  <path d="M284.59 203.62c0 .21-.08.43-.12.65v2.35a1.22 1.22 0 00-1 .6v.05a.84.84 0 01-.22.24.55.55 0 01-.22.06h-.08a2.3 2.3 0 01-1.15-.26 2.76 2.76 0 00-.77-.23 1.53 1.53 0 00-.65 0 1.47 1.47 0 00-.49.23 7.76 7.76 0 01-.84.5 2 2 0 01-1.44.26 1 1 0 01-.6-.52 2 2 0 01-.15-.39 3 3 0 01-.12-.78c-.09-1.49-1.41-1.39-2.63-1.53h-.3c-.4-.06-.24-.49 0-1l.12-.31c.34-.81.63-1.79-.49-2.24l-.35-.16a1.32 1.32 0 01-.65-.53 1.13 1.13 0 01.25-1.25 1.71 1.71 0 01.2-.18 2.73 2.73 0 011.57-.39c.31-.39.08-1-.22-1.37-.33-.42-.72-.89-.6-1.4s.87-.76 1.55-.72a3 3 0 01.51.06 5.91 5.91 0 00.42-1.59 1.86 1.86 0 01.14-.37 1 1 0 011-.65c.52.06.83.64 1.34.76a.83.83 0 00.35 0 2.78 2.78 0 001.19-.77c.46-.39 1.27-.63 1.58-.11a.81.81 0 01.12.38 1.45 1.45 0 00.16.65.46.46 0 00.17.17c.4.26 1.05 0 1.48-.34a3.11 3.11 0 01.53-.32 2.21 2.21 0 01.42-.12v10.57a.4.4 0 01-.01 0z" fill="#f0f0f0"/>
  <path d="M284.47 191.45v12.06a6.37 6.37 0 00-2.41-.49c-.41-.08-.18-.58.08-1.18.35-.85.75-1.91-.44-2.39a4.52 4.52 0 01-.5-.23 1.12 1.12 0 01-.49-.47 1.15 1.15 0 01.43-1.41 2.9 2.9 0 011.57-.38c.34-.41.06-1-.27-1.44a2.88 2.88 0 01-.6-1 .92.92 0 010-.37.91.91 0 01.19-.35 1.82 1.82 0 011.5-.35 2.35 2.35 0 01.37.05 1.22 1.22 0 00.16-.37c.14-.38.15-.82.27-1.22a1.56 1.56 0 01.14-.46zm0 12.82v8.4a3.28 3.28 0 00-.87-.16c-.26 0-.52 0-.79-.09-.8-.13 1.32-2.16-.3-2.82a1.6 1.6 0 01-.7-.45.32.32 0 01-.08-.09.82.82 0 01.07-.8 1 1 0 01.29-.33 1.8 1.8 0 01.88-.29h.35a.55.55 0 00.11-.41 1.3 1.3 0 00-.32-.73c-.26-.33-.56-.7-.47-1.11.14-.61 1-.63 1.62-.51a1.79 1.79 0 00.21-.61z" fill="#f0f0f0"/>
  <path d="M284.47 183.16v13.67a1.25 1.25 0 00-1.07.65.84.84 0 01-.22.24.53.53 0 01-.18.05h-.12c-.7.05-1.16-.33-1.76-.46h-.16c-.94-.12-1.15.37-2 .76a3.2 3.2 0 01-.65.23 1.12 1.12 0 01-1.54-.89 3 3 0 01-.12-.77 1.28 1.28 0 00-.79-1.24 3.8 3.8 0 00-.82-.19c-.42 0-.89-.07-1.32-.15a.2.2 0 01-.14-.05c-.61-.4 1.7-2.74-.24-3.52a1.91 1.91 0 01-1-.7 1.18 1.18 0 01.45-1.42 1.85 1.85 0 01.66-.29 4 4 0 01.91-.11c.33-.4.06-1-.27-1.44s-.72-.89-.6-1.4a.54.54 0 01.08-.19 1.08 1.08 0 01.88-.5 3.29 3.29 0 011 0h.06a6 6 0 00.42-1.59c.14-.53.57-1.09 1.11-1s.83.64 1.34.76 1.09-.38 1.55-.77 1.27-.63 1.58-.12c.19.31.08.73.28 1 .34.53 1.15.21 1.65-.16a2.14 2.14 0 011.03-.4z" fill="#f0f0f0"/>
  <path d="M266.09 198a3.57 3.57 0 01-.11-.78c-.1-1.6-1.63-1.35-2.94-1.57-1-.17 1.68-2.75-.38-3.58a1.81 1.81 0 01-1-.69 1.17 1.17 0 01.45-1.43 2.79 2.79 0 011.56-.39c.34-.41.06-1-.26-1.44s-.72-.89-.6-1.4c.19-.78 1.27-.81 2.05-.65a5.67 5.67 0 00.43-1.59c.14-.53.56-1.09 1.11-1s.83.65 1.33.77 1.1-.38 1.56-.77 1.26-.64 1.58-.12c.19.3.08.73.27 1 .35.53 1.16.2 1.66-.17s1.3-.71 1.66-.19a2 2 0 01.19.54c.24.68 1 1 1.56 1.47s1 1.31.55 1.85c-.24.27-.67.37-.79.71s.29.8.63 1.09c.57.49.67 1.93-.08 2.33-.32.17-.78.22-.86.57s.25.55.46.79a1.49 1.49 0 01-.46 2.22c-.18.09-.4.16-.47.35a.77.77 0 000 .42 2.16 2.16 0 01.08.8.38.38 0 01-.1.26.38.38 0 01-.24.06c-1.08.05-1.61-.33-2.27.61a.66.66 0 01-.23.24.61.61 0 01-.3.08c-.74.06-1.23-.41-1.91-.49-.95-.12-1.15.36-2 .76-1.22.56-1.88.18-2.13-.66z" fill="#f0f0f0"/>
  <path d="M259.6 202.33a4.26 4.26 0 01-.12-.78c-.09-1.61-1.63-1.35-2.93-1.57-1-.17 1.68-2.75-.38-3.58a1.83 1.83 0 01-1-.69 1.17 1.17 0 01.44-1.43 2.75 2.75 0 011.57-.39c.33-.41.06-1-.27-1.44s-.72-.89-.59-1.41c.18-.77 1.27-.8 2.05-.65a5.56 5.56 0 00.42-1.59c.14-.53.57-1.09 1.11-1s.83.64 1.34.76 1.09-.38 1.55-.77 1.27-.63 1.59-.12c.19.31.07.74.27 1 .34.52 1.15.2 1.66-.17s1.3-.71 1.65-.2a2.06 2.06 0 01.2.54c.24.69 1 1 1.56 1.47s1 1.32.55 1.86c-.25.26-.67.37-.79.71s.28.8.62 1.09c.57.48.67 1.93-.08 2.33-.31.16-.78.21-.85.56s.24.55.45.79a1.5 1.5 0 01-.45 2.23c-.18.09-.41.16-.47.34a.67.67 0 000 .42 2.23 2.23 0 01.07.81.33.33 0 01-.1.25.32.32 0 01-.23.07c-1.09.05-1.61-.34-2.28.61a.84.84 0 01-.22.24.63.63 0 01-.3.07c-.75.07-1.23-.4-1.92-.49-.94-.12-1.14.37-2 .76-1.24.64-1.87.26-2.12-.63z" fill="#f0f0f0"/>
  <path d="M284.47 209.79V212a1.42 1.42 0 01-.23.14c-.22.11-.43.23-.64.36a16.51 16.51 0 00-6.36 8.48c0 .22-.08 1.59-.13 3.75-.13 6-.32 18.3-.46 28.57h-6.58c.09-5.19.28-10.9.66-16.13.12-1.66.26-3.27.42-4.82.09-.84.18-1.67.29-2.46.08-.61.15-1.19.24-1.76-.07-.41-.13-.87-.2-1.41-.57-4.46-4.33-11-5.82-13.19l-.44-.63c-.27-.35-.69-.92-1.15-1.55-1.12-1.55-2.5-3.51-2.5-3.51l.56-.84 2.61 2.89 1.79 2-.91-2.89-.73-2.3v-.15l-.14-.17-.89-1.15-.35-.44-.46-.58-.17-.23-.85-1.09-.42-.55.56-.47.54.59.67.73.26.28 1.62 1.77.11-1.06.15-1.46v-.3l.1-1 .06-.47v-.4l.06-.61H267s-.11.43-.26 1.12c-.07.3-.14.65-.22 1-.37 2-.73 4.84-.08 6.27l.6 1.34c.31.66.71 1.51 1.17 2.47l.12.23c1.48 3 3.51 6.86 4.85 8.08a1.78 1.78 0 01.35.42 24.58 24.58 0 012.72-5.1c-.46-1.17-1.18-3-1.86-4.94-.29-.82-.58-1.65-.84-2.44-.38-1.11-.68-2.15-.88-3s-.36-1.58-.51-2.29c-.21-1-.37-2-.47-2.69-.16-1-.21-1.58-.21-1.58l.15-.08.77-.41s.07.35.21 1 .22 1.07.4 1.78.37 1.47.6 2.3l.12.41a52.142 52.142 0 001.67 4.99c.26.63.52 1.26.81 1.85a17.51 17.51 0 001.81 3.07 14.19 14.19 0 013.58-2.4 11.88 11.88 0 00.21-2.18v-.89c0-.31 0-.6-.07-.93a27.23 27.23 0 00-.5-3.15c-.05-.24-.11-.48-.17-.73l.7-.65s.07.17.18.47a23.7 23.7 0 011 4.3.17.17 0 010 .07 17.36 17.36 0 01.18 2.92c.47-.25.87-.49 1.34-.78zm-208.18 9.47a2.54 2.54 0 01-.38.16.91.91 0 00-.26.13.43.43 0 00-.21.28.32.32 0 000 .27 2 2 0 00.42.52 1.37 1.37 0 01.3 1 1.52 1.52 0 01-.45 1 1.13 1.13 0 01-.31.21 1.58 1.58 0 00-.36.2v-4.77l-.24-.31h.09l.15.07v-1.32l-.72-.8a1.86 1.86 0 01.69-.3V213a1 1 0 010-.3v-.07c.28.23.62.42.9.63a2 2 0 01.64.84.9.9 0 01-.09 1 1.52 1.52 0 01-.35.26 1.07 1.07 0 00-.43.44c-.15.42.26.79.6 1.07.66.55.72 2 .01 2.39z" fill="#f0f0f0"/>
  <path d="M88.79 217.91c-.32.17-.77.22-.85.56s.24.56.46.8a1.46 1.46 0 01.16 1.57 1.27 1.27 0 01-.62.65c-.18.09-.41.16-.47.35a.69.69 0 000 .42 2.18 2.18 0 01.07.8.39.39 0 01-.09.26.51.51 0 01-.24.07c-.82 0-1.31-.18-1.8.15a1.63 1.63 0 00-.41.46.69.69 0 01-.22.23.61.61 0 01-.3.08c-.75.06-1.24-.41-1.92-.49-1-.12-1.14.37-2 .75a2.35 2.35 0 01-1.34.29 1.15 1.15 0 01-.86-.94 4.26 4.26 0 01-.12-.78c-.06-1.06-.76-1.31-1.6-1.41l-.44-.06c-.3 0-.6 0-.9-.1a.25.25 0 01-.22-.17v-.2a5.62 5.62 0 01.4-1.1 3.86 3.86 0 00.17-.55 1.51 1.51 0 00.07-.46 1.05 1.05 0 00-.64-1v-1.39l-.72-.8a1.86 1.86 0 01.69-.3 5.14 5.14 0 01.87-.09l.08-.12c.21-.39 0-.94-.35-1.32a2.63 2.63 0 01-.6-1 1 1 0 010-.3.17.17 0 010-.07c.16-.66 1-.78 1.67-.71.13 0 .26 0 .38.06a2.54 2.54 0 00.26-.73 8.65 8.65 0 01.16-.86c.15-.53.57-1.09 1.12-1s.83.65 1.33.77a.9.9 0 00.4 0 3.14 3.14 0 001.16-.77c.46-.38 1.26-.63 1.58-.11.19.3.07.73.27 1a.56.56 0 00.47.26 1.93 1.93 0 001.19-.44h.06a1.85 1.85 0 011.2-.4.6.6 0 01.4.25 1.86 1.86 0 01.19.53c.24.69 1 1 1.56 1.47a1.61 1.61 0 01.71 1.58 1 1 0 01-.16.28 1.82 1.82 0 01-.38.29.88.88 0 00-.41.42c-.12.33.12.63.39.89l.24.2c.61.38.71 1.84-.05 2.23z" fill="#f0f0f0"/>
  <path d="M90 210c-.32.16-.78.22-.85.57a.56.56 0 00.19.5c.08.1.18.19.26.29a1.5 1.5 0 01-.4 2.19h-.06c-.18.07-.4.15-.47.34a.4.4 0 000 .19c0 .07 0 .15.06.23a2.39 2.39 0 01.07.8.36.36 0 01-.1.25.38.38 0 01-.19 0c-1.08.05-1.6-.34-2.27.61a.75.75 0 01-.23.24.7.7 0 01-.3.08 2 2 0 01-.78-.11l-.25-.1a3.23 3.23 0 00-.88-.28 2.16 2.16 0 00-.57 0c-.5.1-.78.46-1.41.76-1.31.61-1.94.23-2.2-.66a5.42 5.42 0 01-.11-.78 1.56 1.56 0 00-.16-.66c-.27-.55-.87-.69-1.55-.77-.34 0-.71-.06-1-.11h-.18c-.54-.09 0-.85.25-1.68s.34-1.51-.63-1.9a1.72 1.72 0 01-1-.69.61.61 0 01-.07-.17 1 1 0 010-.54.87.87 0 01.07-.17 1.26 1.26 0 01.44-.55 2.73 2.73 0 011.56-.39c.34-.41.07-1-.26-1.44s-.73-.89-.6-1.4c.19-.78 1.27-.81 2.06-.66a5.48 5.48 0 00.42-1.59 1.66 1.66 0 01.44-.77.82.82 0 01.67-.24c.51.06.83.64 1.33.75s1.1-.38 1.56-.76 1.26-.63 1.58-.12a1.16 1.16 0 01.13.5 1.17 1.17 0 00.15.53c.34.53 1.15.2 1.65-.17a2.45 2.45 0 01.79-.4.72.72 0 01.87.21 2 2 0 01.19.54c.24.69 1 1 1.56 1.47s1 1.32.55 1.85a1.72 1.72 0 01-.43.32.83.83 0 00-.35.39c-.15.41.29.79.63 1.09.47.52.57 1.96-.18 2.41z" fill="#f0f0f0"/>
  <path d="M87.8 219.92a4 4 0 01-.12-.77c-.09-1.61-1.63-1.35-2.93-1.57-1-.17 1.68-2.75-.38-3.58a1.79 1.79 0 01-1-.7 1.15 1.15 0 01.45-1.42 2.69 2.69 0 011.56-.39c.33-.41.06-1-.26-1.44s-.73-.89-.6-1.41c.18-.77 1.27-.8 2-.65a5.56 5.56 0 00.48-1.59c.14-.53.57-1.09 1.12-1s.83.64 1.33.76 1.09-.38 1.56-.77 1.26-.63 1.58-.12c.19.31.07.74.27 1 .34.52 1.15.2 1.66-.17s1.3-.71 1.66-.2a2.47 2.47 0 01.19.54c.24.69 1 1 1.56 1.47s1 1.32.55 1.86c-.24.26-.67.37-.79.71s.28.8.62 1.09c.57.48.68 1.93-.08 2.32-.31.17-.77.22-.85.57s.24.55.45.79a1.5 1.5 0 01-.45 2.23c-.18.08-.4.16-.47.34a.67.67 0 000 .42 2.21 2.21 0 01.07.81.37.37 0 01-.09.25.36.36 0 01-.24.07c-1.09.05-1.61-.34-2.27.61a.88.88 0 01-.23.24.78.78 0 01-.3.07c-.75.06-1.23-.4-1.92-.49-.94-.12-1.14.37-2 .76-1.25.64-1.88.26-2.13-.64z" fill="#f0f0f0"/>
  <path d="M96.12 218.09a3.57 3.57 0 01-.11-.77c-.1-1.61-1.63-1.36-2.94-1.57-1-.18 1.68-2.75-.38-3.58a1.83 1.83 0 01-1-.7 1.15 1.15 0 01.45-1.42 2.72 2.72 0 011.56-.4c.34-.4.06-1-.26-1.43s-.72-.89-.6-1.41c.19-.77 1.27-.8 2.05-.65a5.67 5.67 0 00.43-1.59c.14-.53.56-1.09 1.11-1s.83.64 1.33.76 1.1-.38 1.56-.77 1.26-.63 1.58-.12c.19.31.08.73.27 1 .35.52 1.16.2 1.66-.18s1.3-.7 1.66-.19a2 2 0 01.19.54c.24.69 1 1 1.56 1.47s1 1.32.55 1.85c-.24.27-.67.38-.79.72s.29.8.63 1.09c.57.48.67 1.93-.08 2.32-.32.17-.78.22-.86.57s.25.55.46.79a1.5 1.5 0 01-.46 2.23c-.18.08-.4.15-.47.34a.76.76 0 000 .42 2.22 2.22 0 01.08.81.37.37 0 01-.1.25.42.42 0 01-.24.07c-1.09.05-1.61-.34-2.27.61a.75.75 0 01-.23.24.73.73 0 01-.3.07c-.74.06-1.23-.4-1.91-.49-1-.12-1.15.37-2 .76-1.25.64-1.88.27-2.13-.64z" fill="#f0f0f0"/>
  <path d="M96.23 227a2.79 2.79 0 01-.09-.61c-.07-1.27-1.28-1.07-2.31-1.24-.81-.14 1.32-2.17-.3-2.82a1.39 1.39 0 01-.78-.55.92.92 0 01.35-1.12 2.17 2.17 0 011.23-.31c.27-.32 0-.8-.2-1.13s-.57-.7-.48-1.11c.15-.61 1-.63 1.62-.51a4.71 4.71 0 00.34-1.25c.11-.42.44-.86.87-.81s.65.51 1 .6.86-.3 1.23-.6 1-.5 1.24-.1c.15.24.06.58.22.82.27.41.9.16 1.3-.14s1-.55 1.31-.15a2 2 0 01.15.43c.19.54.77.81 1.23 1.15s.81 1 .43 1.46c-.19.21-.53.3-.62.56s.22.63.49.86c.45.38.53 1.52-.06 1.83-.25.13-.62.17-.68.45s.2.43.36.62a1.18 1.18 0 01-.36 1.76c-.14.06-.31.12-.37.27a.64.64 0 000 .33 1.67 1.67 0 010 .63.27.27 0 01-.07.2.3.3 0 01-.19 0c-.85 0-1.27-.26-1.79.48a.47.47 0 01-.18.19.6.6 0 01-.23.06c-.59 0-1-.32-1.51-.39-.75-.09-.9.29-1.56.6-.89.54-1.39.24-1.59-.46z" fill="#f0f0f0"/>
  <path d="M100.9 223.92a3.55 3.55 0 01-.12-.78c-.1-1.6-1.63-1.35-2.94-1.57-1-.17 1.68-2.75-.37-3.58a1.8 1.8 0 01-1-.69 1.18 1.18 0 01.45-1.43 2.81 2.81 0 011.56-.39c.34-.41.07-1-.26-1.44s-.72-.89-.6-1.4c.19-.78 1.27-.8 2.06-.65a6 6 0 00.42-1.59c.14-.53.56-1.09 1.11-1s.83.65 1.34.77 1.09-.38 1.55-.77 1.27-.64 1.58-.12c.19.3.08.73.28 1 .34.53 1.15.2 1.65-.17s1.31-.71 1.66-.19a2.49 2.49 0 01.2.54c.23.68 1 1 1.55 1.47s1 1.31.55 1.85c-.24.27-.66.37-.78.71s.28.8.62 1.09c.57.49.67 1.94-.08 2.33-.32.17-.78.22-.86.57s.25.55.46.79a1.49 1.49 0 01-.46 2.22c-.18.09-.4.16-.47.35a.78.78 0 000 .42 2.45 2.45 0 01.07.81.37.37 0 01-.1.25.45.45 0 01-.24.07c-1.08 0-1.61-.34-2.27.6a.66.66 0 01-.23.24.57.57 0 01-.29.08c-.75.06-1.24-.41-1.92-.49-.95-.12-1.15.36-2 .76-1.24.61-1.88.23-2.12-.66zm-13.1-13.79a4.29 4.29 0 01-.12-.77c-.09-1.61-1.63-1.36-2.93-1.58-1-.17 1.68-2.74-.38-3.58a1.78 1.78 0 01-1-.69 1.17 1.17 0 01.45-1.43 2.77 2.77 0 011.56-.39c.33-.4.06-1-.26-1.44s-.73-.89-.6-1.4c.18-.78 1.27-.8 2-.65a5.65 5.65 0 00.42-1.59c.14-.53.57-1.09 1.12-1s.83.65 1.33.77 1.09-.38 1.56-.77 1.26-.63 1.58-.12c.19.31.07.73.27 1 .34.52 1.15.19 1.66-.18s1.3-.71 1.66-.19a2.47 2.47 0 01.19.54c.24.69 1 1 1.56 1.47s1 1.32.55 1.85c-.24.27-.67.38-.79.71s.28.8.62 1.1c.57.48.68 1.93-.08 2.32-.31.17-.77.22-.85.57s.24.55.45.79a1.48 1.48 0 01-.45 2.22c-.18.09-.4.16-.47.35a.68.68 0 000 .42 2.21 2.21 0 01.07.81.37.37 0 01-.09.25.51.51 0 01-.24.07c-1.09 0-1.61-.34-2.27.6a.66.66 0 01-.23.24.64.64 0 01-.3.08c-.75.06-1.23-.4-1.92-.49-.94-.12-1.14.37-2 .76-1.19.62-1.82.22-2.07-.65z" fill="#f0f0f0"/>
  <path d="M87.54 204.67c-.31.17-.78.21-.85.56s.24.55.45.8a1.52 1.52 0 01-.26 2.09 2.12 2.12 0 01-.2.12c-.18.09-.4.16-.48.35a.78.78 0 00.05.42 2 2 0 01.08.65.71.71 0 010 .15.32.32 0 01-.1.25.38.38 0 01-.24.08 6.88 6.88 0 01-.82 0h-.09a1.24 1.24 0 00-1.19.44 1.56 1.56 0 00-.16.2.88.88 0 01-.23.24.63.63 0 01-.3.07c-.75.07-1.24-.4-1.92-.49a2.16 2.16 0 00-.51 0c-.54.09-.8.45-1.46.76-1 .46-1.56.37-1.9-.07a1.58 1.58 0 01-.29-.58 4.26 4.26 0 01-.12-.78c-.07-1.16-.9-1.35-1.84-1.44h-.07v-9.78a5.2 5.2 0 01.81.07 5.5 5.5 0 00.42-1.58c.14-.53.57-1.09 1.11-1s.83.65 1.34.77 1.09-.38 1.55-.78 1.27-.63 1.58-.12c.19.31.08.74.28 1.05.34.52 1.15.19 1.65-.18s1.31-.71 1.66-.2a2.7 2.7 0 01.2.54 2.15 2.15 0 00.84 1l.71.49c.59.44 1 1.32.56 1.86-.25.27-.67.37-.79.71a.53.53 0 00.07.5 2.36 2.36 0 00.55.59c.56.4.66 1.85-.09 2.24z" fill="#f0f0f0"/>
  <path d="M81.05 209.05c-.32.16-.78.21-.86.56a.59.59 0 00.22.52c.07.1.16.18.23.27a.66.66 0 01.12.17 1.53 1.53 0 01-.58 2.06c-.18.08-.4.16-.47.34a.68.68 0 000 .42 2.45 2.45 0 01.07.81.37.37 0 01-.1.25.34.34 0 01-.24.07h-.21c-.79 0-1.26-.19-1.75.26a1.49 1.49 0 00-.31.34.69.69 0 01-.23.25.73.73 0 01-.3.07h-.2a1.65 1.65 0 01-.32 0h-.15c-.32-.09-.62-.26-1-.35v-2a1 1 0 010-.3v-3.54a1 1 0 010-.54v-8.49a.5.5 0 01.32.24c.19.31.08.73.27 1 .34.52 1.16.19 1.66-.18s1.31-.7 1.66-.19a2 2 0 01.19.54v.07c.27.64 1 1 1.53 1.4s1 1.32.55 1.86c-.24.26-.67.37-.79.71s.29.79.63 1.09c.71.44.81 1.88.06 2.29z" fill="#f0f0f0"/>
  <path d="M102.93 215.53l-.18.36c-.26.47-.75 1.38-1.42 2.44a30.82 30.82 0 01-2.43 3.36 13 13 0 01-3.65 3.18c-.22.11-.43.24-.64.37a16.53 16.53 0 00-6.36 8.48c-.11.68-.3 12.84-.48 24.9 0 2.51-.07 5-.1 7.42h-6.59c.08-4.4.23-9.17.5-13.7.26-4.19.61-8.17 1.11-11.47-.06-.41-.13-.87-.2-1.41-.64-5-5.31-12.6-6.25-13.82l-1.16-1.56a2.34 2.34 0 00-.07-.45.75.75 0 01-.05-.42.36.36 0 01.12-.15v-1.15l.67.74 1.8 2-.91-2.88-.73-2.31v-.15l-.14-.18-.64-.82-.24-.31h.09l.15.07v-1.37l1.11 1.3.11-1.05.15-1.47v-.3l.1-1 .06-.47.1-1H78s-.12.44-.27 1.13l-.2 1c-.38 2-.74 4.84-.09 6.27 0 0 .74 1.68 1.77 3.81 1.5 3.06 3.6 7.06 5 8.31a2 2 0 01.34.42 24.58 24.58 0 012.72-5.1c-.45-1.17-1.17-3-1.85-5s-1.38-4-1.73-5.39c-.2-.81-.36-1.58-.51-2.29-.49-2.51-.68-4.27-.68-4.27l.92-.5s.07.36.21 1c.09.46.23 1.06.4 1.77s.37 1.47.6 2.3c0 .13.08.26.12.41.09.35.2.71.31 1.07a44.54 44.54 0 002.16 5.77 17.06 17.06 0 001.78 3.03 14.75 14.75 0 013.58-2.4 11.14 11.14 0 00.21-2.18v-.88c0-.31 0-.61-.06-.94a27.2 27.2 0 00-.67-3.87l.71-.65A23.12 23.12 0 0194 220.3a.19.19 0 000 .07 19.67 19.67 0 01.16 2.81v.11a13.94 13.94 0 001.56-.93 14.91 14.91 0 002.12-1.83A21.61 21.61 0 00100 218c.46-.63.84-1.19 1.11-1.61s.49-.83.49-.83z" fill="#f0f0f0"/>
  <path d="M284.47 220.05v54.07H75.08V250c1.53-.52 2.33-.3 2.85.26a8.39 8.39 0 011.12 0 .79.79 0 01.3.08c.15.11.17.33.2.51a1.88 1.88 0 002 1.42h.06c0 .63.19 1.25.22 1.87a1.88 1.88 0 01.8-.16.69.69 0 01.64.46 1.19 1.19 0 00.07.27c.08.17.31.2.43.34s-.06.74.16 1a.81.81 0 01.46-.78 2.34 2.34 0 01.94-.21l.92-.08c.29 0 .63 0 .79.21s.07.43.1.64a2.85 2.85 0 00.19.63 2.65 2.65 0 01.07 2l.32.08c.85.14 2.24.13 2.5.5a.74.74 0 01.15-.93 1.17 1.17 0 011-.21 2.29 2.29 0 001 .14c.47-.12.65-.66.81-1.11s.58-.95 1-.79a1 1 0 01.34-1.24 3.23 3.23 0 00.43-.29 2.18 2.18 0 00.31-.56 3 3 0 012.37-1.2 1.14 1.14 0 01.66 0 1.32 1.32 0 01.47.63 3 3 0 001.48 1.42c.87.31.73-.22 1.48-.44a.77.77 0 01.45 0c1.41.36 3 .94 3.4 2.34a16.37 16.37 0 01.13 1.73 5.6 5.6 0 001.61 2.77l.78-.66a.63.63 0 01-.07-.81 1.92 1.92 0 01.68-.55 3 3 0 012.47-.53 4.3 4.3 0 01.93.67 1.53 1.53 0 001 .41.66.66 0 00.62-.79l.14-.08a6.43 6.43 0 012.76-.87 1.54 1.54 0 011.46.47c.28.41.16 1 .38 1.44a1.12 1.12 0 002-.08c.11-.27.27-.68.53-.55a1.76 1.76 0 001.9 1.22.68.68 0 01.52-.67.67.67 0 01.72.44 2.63 2.63 0 01.06.48 1 1 0 00.1.29 1.68 1.68 0 001.22.75c.15 0 2 0 1.84-.27a4.67 4.67 0 01-.86-2.82 2.24 2.24 0 00-.07-.93c-.14-.32-.47-.56-.55-.9a1 1 0 01.55-1 3.5 3.5 0 011.2-.27 13.74 13.74 0 001.92-.32 2.1 2.1 0 00.93-.4 2.16 2.16 0 00.53-1.58 3.25 3.25 0 01.31-1.66c.31-.48 1.09-.71 1.45-.26a3.27 3.27 0 012.33.32 1.24 1.24 0 01.45.4 1.71 1.71 0 01.17.74 7.48 7.48 0 00.94 3.06l2.21-.68a1.35 1.35 0 01.4-1.39 2 2 0 011.42-.49 1.88 1.88 0 011.37.53 1.2 1.2 0 01.21 1.39c.51 0 1-.38 1.47-.42s1.09.56.74.93a4.47 4.47 0 001.44-1.27 1.68 1.68 0 011.73-.62 2 2 0 01.87 1.07 3.56 3.56 0 01.43 1.48 1.2 1.2 0 01-.83 1.18c-.39.76.62 1.32 1.25 1.09.33-.12.4-.53.75-.66s.66.11 1 .05.61-.36.92-.54a1.41 1.41 0 012.11 1.43c.42.16.87-.14 1.33-.23a1.63 1.63 0 011.86 1.19c.09.38.24.95.62.82a1.8 1.8 0 01-.45 2.43c-.34.21-.8.43-.75.81s.52.48.83.69c.69.44.48 1.31.67 2a1.24 1.24 0 00.41.64c.91.77 3.09.22 4.09-.14a3.61 3.61 0 011.37-.32 1.51 1.51 0 01.66.21c.74.42 1.21 1.41 1.8 2.11a4 4 0 002.59 1.39 1 1 0 00.73-.13 4.42 4.42 0 00.39-.47c.42-.45 1.18-.24 1.69.11a3.37 3.37 0 001.62.86c.48 0 1-.26 1.43-.07.73.28.38 1.09.79 1.51.57.6.63.48 1.47.74.41.12 3.28.23 3.4.57a1.21 1.21 0 01.68-1.38 3.61 3.61 0 011.64-.25 2.79 2.79 0 000-1.46c-.06-.49.09-1.12.58-1.22s1 .23 1.22-.14a1.17 1.17 0 00.07-.46c.08-1.09 1-.75 1.57-1.19.83-.66.31.1.68-.94.13-.37.15-1.39.29-1.92s.49-.79.38-1.33a3 3 0 00-.69-1.09 1.12 1.12 0 01-.23-1.2c.34-.53 1.18-.29 1.77-.56a2.61 2.61 0 001-1.16c.27-.45.71-.91 1.22-.82.19 0 .37.14.57.17 2.08.23 2.52-1.85 2.39-3.28a1.49 1.49 0 01.07-.73c.25-.55 1.05-.6 1.42-1.08s.16-1.23.4-1.79a2.35 2.35 0 011.05-1 4.89 4.89 0 013.33-1 .78.78 0 01.58.35 3.16 3.16 0 01.09.55.92.92 0 00.85.58c.37 0 .73-.06 1.1-.05 1 0 3.19 3.73 4 2.94a.59.59 0 00.11-.32 2.64 2.64 0 012-2.26c1.24-.3 1.31.2 2.31.69.34.17.84.11 1-.24s0-.51 0-.75c.1-.41.62-.57 1-.55 1.24.07 3-.16 3 1.69a2.25 2.25 0 000 .86c.09.27.46.47.67.26.2.3-.27.63-.29 1s.56.62.94.84a.88.88 0 01.37.34c.39.58.19 1.49.66 2.07.68.83 1.87.64 2.38 1.9a5.05 5.05 0 00.84 1.69c.32-.31 1.08-1.24 1-1.84-.09-.42-.57-.91-.23-1.15.11-.07.24-.07.35-.13.36-.2.1-.72 0-1.11a1.38 1.38 0 01.81-1.64 1 1 0 01.46-.06 2 2 0 011.35.82 6.45 6.45 0 00-.06-1c1.28.32 1.49-2.15 2.77-2.48.57-.15 1.45 0 1.54-.55-.53-.18-.51-1-.1-1.39a2.46 2.46 0 011.6-.42 1.26 1.26 0 010-1.72 2.75 2.75 0 011.73-.73 7 7 0 012.54.16 6.35 6.35 0 011.18.41c-.22.38.33.83.75.69a1.36 1.36 0 00.75-1c.62.83 1.86-.13 2.88-.28a2.39 2.39 0 012.27 1.17c.63.94.72 2 1.35 3a2.64 2.64 0 00.44.48c.46.4.81.53.56 1.67a1.62 1.62 0 01-.26.65c-.11.11-.22.19-.33.29a1.31 1.31 0 000 1.66 1.37 1.37 0 00.19.22 5.87 5.87 0 001.86 1 1.08 1.08 0 01.57.45 1.14 1.14 0 010 .75 11.35 11.35 0 00-.38 4 .39.39 0 01.08-.1 1 1 0 01.51-.08l3.25.19a2.1 2.1 0 010-2.5 3.12 3.12 0 00.54-.88.65.65 0 00-.35-.84 2.29 2.29 0 01-.28-.07c-.25-.15-.06-.54.15-.75.36-.37.7-.92.41-1.33a1.67 1.67 0 00-.5-.37c-1-.64-1.06-3.16.2-3.5a2.59 2.59 0 011.45.15c1.51.44 3.33.9 4.52-.13.25-1-.23-2.32.64-2.81.71-.4 1.94.08 2.18-.68.1-.28 0-.57 0-.86a1.08 1.08 0 011.58-.88c-.12-1-1.6-1.36-1.89-2.35a1.87 1.87 0 01.8-1.83c.94-.79 2.53-1.08 3.31-.13.37.47.67 1.25 1.25 1.12 0-.56 0-1.12.05-1.68.4.42 1.15 0 1.35-.57.39-1.09.28-2.92 2-2.17-.08-.29-.51-.7-.52-1a2.49 2.49 0 011.12-2.07 2.18 2.18 0 011.6-.27 3.85 3.85 0 001.82.06c-.81-1.26-.17-2.56-.66-3.86a3.51 3.51 0 00-.74-1 1.37 1.37 0 01-.2-1.85 2.68 2.68 0 01.49-.61 4.69 4.69 0 013.28-1 2.14 2.14 0 01.19-3 5 5 0 012.2-1.16c.26-.08.53-.15.79-.21-.76-.86.07-2.33 1.18-2.59a4.87 4.87 0 013.25.82c.48-1 1-2.07 1.46-3.09a1.48 1.48 0 00.66.46zM89.94 188.89a6.11 6.11 0 01-.19-1.23c-.15-2.54-2.58-2.14-4.64-2.49-1.62-.26 2.66-4.34-.6-5.66a2.84 2.84 0 01-1.57-1.1 1.84 1.84 0 01.71-2.25 4.3 4.3 0 012.47-.62c.53-.65.1-1.62-.41-2.28s-1.15-1.41-.95-2.22c.29-1.23 2-1.27 3.25-1a9.19 9.19 0 00.67-2.52c.22-.84.89-1.72 1.76-1.62s1.31 1 2.11 1.21 1.73-.6 2.46-1.22 2-1 2.5-.19c.3.49.12 1.16.43 1.64.55.83 1.83.32 2.62-.27s2.07-1.12 2.63-.3a3.45 3.45 0 01.31.85c.38 1.08 1.55 1.63 2.47 2.32s1.64 2.09.86 2.94c-.38.42-1 .59-1.24 1.12s.44 1.27 1 1.73c.9.76 1.07 3.05-.12 3.68-.5.26-1.23.34-1.36.89s.39.88.73 1.26a2.37 2.37 0 01-.73 3.52c-.28.14-.63.25-.74.55a1.09 1.09 0 00.07.66 3.67 3.67 0 01.11 1.28.59.59 0 01-.15.4.62.62 0 01-.38.1c-1.72.08-2.55-.53-3.59 1a1.45 1.45 0 01-.36.38 1.09 1.09 0 01-.48.11c-1.18.1-1.95-.64-3-.77-1.49-.19-1.81.58-3.13 1.2-2.13.91-3.13.31-3.52-1.1z" fill="#ebebeb"/>
  <path d="M109.72 186.75a5.5 5.5 0 01-.18-1.23c-.16-2.54-2.59-2.14-4.65-2.48-1.62-.27 2.66-4.35-.6-5.67a2.87 2.87 0 01-1.57-1.09 1.86 1.86 0 01.71-2.26 4.38 4.38 0 012.47-.62c.53-.65.1-1.62-.41-2.28s-1.15-1.41-.95-2.22c.29-1.23 2-1.27 3.25-1a8.78 8.78 0 00.67-2.51c.22-.85.89-1.73 1.76-1.63s1.31 1 2.11 1.21 1.73-.6 2.46-1.22 2-1 2.5-.19c.3.49.12 1.17.44 1.65.54.82 1.82.31 2.62-.28s2.06-1.12 2.62-.3a3.45 3.45 0 01.31.85c.38 1.09 1.55 1.63 2.47 2.33s1.64 2.08.86 2.93c-.38.42-1 .59-1.24 1.12s.45 1.27 1 1.73c.9.77 1.06 3.06-.13 3.68-.5.27-1.23.35-1.36.9s.4.87.73 1.25a2.37 2.37 0 01-.73 3.52c-.28.14-.63.25-.74.55a1.16 1.16 0 00.07.66 3.46 3.46 0 01.11 1.28.57.57 0 01-.15.4.63.63 0 01-.38.11c-1.72.07-2.54-.54-3.59 1a1.31 1.31 0 01-.36.38 1.26 1.26 0 01-.47.12c-1.19.09-2-.64-3-.78-1.49-.19-1.81.58-3.13 1.2-2.12.91-3.13.3-3.52-1.11z" fill="#ebebeb"/>
  <path d="M111.63 174.15a6.12 6.12 0 01-.19-1.22c-.15-2.55-2.58-2.15-4.65-2.49-1.61-.27 2.66-4.35-.59-5.67a2.84 2.84 0 01-1.57-1.09 1.85 1.85 0 01.71-2.26 4.38 4.38 0 012.47-.62c.53-.64.1-1.61-.42-2.27s-1.14-1.41-.94-2.23c.29-1.22 2-1.27 3.24-1a9.13 9.13 0 00.68-2.51c.22-.85.89-1.73 1.75-1.62s1.32 1 2.12 1.2 1.73-.6 2.46-1.21 2-1 2.5-.19c.3.48.12 1.16.43 1.64.54.83 1.83.31 2.62-.28s2.07-1.12 2.63-.3a3.45 3.45 0 01.31.85c.37 1.09 1.55 1.63 2.46 2.33s1.64 2.08.87 2.93c-.38.42-1.05.59-1.24 1.13s.44 1.26 1 1.72c.9.77 1.06 3.06-.12 3.69-.5.26-1.24.34-1.36.89s.39.88.72 1.26a2.35 2.35 0 01-.72 3.51c-.29.14-.64.25-.74.55a1 1 0 00.07.67 3.61 3.61 0 01.11 1.27.55.55 0 01-.15.4.65.65 0 01-.38.11c-1.72.07-2.55-.53-3.6 1a1.27 1.27 0 01-.35.38 1.14 1.14 0 01-.48.12c-1.18.1-2-.64-3-.78-1.5-.19-1.81.58-3.13 1.2-2.15.91-3.15.31-3.52-1.11z" fill="#ebebeb"/>
  <path d="M124.66 180.43a6.11 6.11 0 01-.19-1.23c-.15-2.54-2.58-2.14-4.65-2.49-1.61-.27 2.67-4.34-.59-5.66a2.8 2.8 0 01-1.57-1.1 1.83 1.83 0 01.71-2.25 4.3 4.3 0 012.47-.62c.53-.65.1-1.62-.42-2.28s-1.14-1.41-.94-2.22c.29-1.23 2-1.27 3.25-1a9.38 9.38 0 00.67-2.51c.22-.84.89-1.72 1.75-1.62s1.32 1 2.12 1.21 1.73-.6 2.46-1.22 2-1 2.5-.19c.3.49.12 1.16.43 1.64.54.83 1.83.32 2.62-.27s2.07-1.12 2.63-.31a3.52 3.52 0 01.31.86c.37 1.08 1.55 1.62 2.46 2.32s1.65 2.09.87 2.94c-.38.42-1.05.59-1.24 1.12s.44 1.27 1 1.73c.9.76 1.07 3-.12 3.68-.5.26-1.24.34-1.36.89s.39.88.72 1.26a2.36 2.36 0 01-.72 3.52c-.28.14-.64.25-.74.55a1.09 1.09 0 00.07.66 3.67 3.67 0 01.11 1.28.59.59 0 01-.15.4.62.62 0 01-.38.1c-1.72.08-2.55-.53-3.6 1a1.27 1.27 0 01-.35.38 1.13 1.13 0 01-.48.11c-1.18.1-1.95-.64-3-.77-1.5-.19-1.81.58-3.13 1.2-2.13.9-3.13.3-3.52-1.11z" fill="#ebebeb"/>
  <path d="M137.83 177.53a6.11 6.11 0 01-.19-1.23c-.15-2.54-2.58-2.14-4.65-2.48-1.61-.27 2.67-4.35-.59-5.67a2.84 2.84 0 01-1.57-1.09 1.85 1.85 0 01.71-2.26 4.3 4.3 0 012.47-.62c.53-.65.1-1.62-.42-2.28s-1.14-1.41-.94-2.22c.29-1.23 2-1.27 3.25-1a9.55 9.55 0 00.67-2.52c.22-.84.89-1.72 1.75-1.62s1.32 1 2.12 1.21 1.73-.6 2.46-1.22 2-1 2.5-.19c.3.49.12 1.17.43 1.64.54.83 1.83.32 2.62-.27s2.07-1.12 2.63-.3a3.45 3.45 0 01.31.85c.37 1.09 1.55 1.63 2.46 2.32s1.65 2.09.87 2.94c-.38.42-1.05.59-1.24 1.12s.44 1.27 1 1.73c.9.77 1.07 3.06-.12 3.68-.5.26-1.24.35-1.36.9s.39.87.72 1.25a2.36 2.36 0 01-.72 3.52c-.29.14-.64.25-.74.55a1.08 1.08 0 00.07.66 3.69 3.69 0 01.11 1.28.59.59 0 01-.15.4.64.64 0 01-.38.1c-1.72.08-2.55-.53-3.6 1a1.27 1.27 0 01-.35.38 1.31 1.31 0 01-.48.12c-1.18.09-2-.64-3-.78-1.5-.19-1.81.58-3.13 1.2-2.13.91-3.13.31-3.52-1.1z" fill="#ebebeb"/>
  <path d="M138 191.62a4.59 4.59 0 01-.15-1c-.12-2-2-1.68-3.66-2-1.27-.21 2.1-3.42-.46-4.46a2.23 2.23 0 01-1.24-.86 1.46 1.46 0 01.56-1.78 3.4 3.4 0 011.94-.48c.42-.51.08-1.28-.32-1.8s-.9-1.11-.75-1.75c.23-1 1.58-1 2.56-.81a7.23 7.23 0 00.53-2c.17-.66.7-1.36 1.38-1.28s1 .81 1.66.95 1.37-.47 1.94-.95 1.58-.79 2-.15c.24.38.1.91.34 1.29.43.65 1.44.25 2.07-.22s1.62-.88 2.06-.24a2.71 2.71 0 01.25.67c.29.86 1.22 1.29 1.94 1.84s1.29 1.64.68 2.31c-.3.33-.83.46-1 .88s.35 1 .78 1.36c.71.61.83 2.41-.1 2.9-.4.21-1 .27-1.07.71s.31.68.57 1a1.86 1.86 0 01-.57 2.77c-.22.11-.5.2-.58.44a.86.86 0 00.05.52 2.81 2.81 0 01.09 1 .45.45 0 01-.12.32.44.44 0 01-.3.08c-1.35.06-2-.42-2.83.76a1 1 0 01-.28.3.92.92 0 01-.37.09c-.93.08-1.54-.5-2.39-.61-1.18-.15-1.43.46-2.47.95-1.64.83-2.43.36-2.74-.75z" fill="#ebebeb"/>
  <path d="M145.38 186.75a6.11 6.11 0 01-.19-1.23c-.15-2.54-2.58-2.14-4.64-2.48-1.62-.27 2.66-4.35-.6-5.67a2.87 2.87 0 01-1.57-1.09 1.85 1.85 0 01.71-2.26 4.38 4.38 0 012.47-.62c.53-.65.1-1.62-.41-2.28s-1.15-1.41-1-2.22c.29-1.23 2-1.27 3.25-1a9.12 9.12 0 00.67-2.51c.22-.85.89-1.73 1.76-1.63s1.31 1 2.11 1.21 1.73-.6 2.46-1.22 2-1 2.5-.19c.3.49.12 1.17.43 1.65.55.82 1.83.31 2.62-.28s2.07-1.12 2.63-.3a3.45 3.45 0 01.31.85c.38 1.09 1.55 1.63 2.47 2.33s1.64 2.08.86 2.93c-.38.42-1.05.59-1.24 1.12s.44 1.27 1 1.73c.9.77 1.07 3.06-.12 3.68-.5.27-1.23.35-1.36.9s.39.87.73 1.25a2.37 2.37 0 01-.73 3.52c-.28.14-.63.25-.74.55a1.08 1.08 0 00.07.66 3.69 3.69 0 01.11 1.28.57.57 0 01-.15.4.63.63 0 01-.38.11c-1.72.07-2.55-.54-3.59 1a1.45 1.45 0 01-.36.38 1.26 1.26 0 01-.48.12c-1.18.09-1.95-.64-3-.78-1.49-.19-1.81.58-3.13 1.2-2.08.91-3.08.3-3.47-1.11zm-20.72-21.82a6.12 6.12 0 01-.19-1.22c-.15-2.55-2.58-2.15-4.65-2.49-1.61-.27 2.67-4.35-.59-5.67a2.84 2.84 0 01-1.57-1.09 1.85 1.85 0 01.71-2.26 4.38 4.38 0 012.47-.62c.53-.64.1-1.62-.42-2.28s-1.14-1.4-.94-2.22c.29-1.23 2-1.27 3.25-1a9.48 9.48 0 00.67-2.51c.22-.85.89-1.73 1.75-1.63s1.32 1 2.12 1.21 1.73-.6 2.46-1.22 2-1 2.5-.18c.3.48.12 1.16.43 1.64.54.83 1.83.31 2.62-.28s2.07-1.12 2.63-.3a3.45 3.45 0 01.31.85c.37 1.09 1.55 1.63 2.46 2.33s1.65 2.08.87 2.93c-.38.42-1.05.59-1.24 1.13s.44 1.26 1 1.72c.9.77 1.07 3.06-.12 3.68-.5.27-1.24.35-1.36.9s.39.87.72 1.25a2.36 2.36 0 01-.72 3.52c-.28.14-.64.25-.74.55a1.12 1.12 0 00.07.67 3.61 3.61 0 01.11 1.27.57.57 0 01-.15.4.63.63 0 01-.38.11c-1.72.07-2.55-.54-3.6 1a1.27 1.27 0 01-.35.38 1.31 1.31 0 01-.48.12c-1.18.09-1.95-.64-3-.78-1.5-.19-1.81.58-3.13 1.2-2.13.96-3.13.31-3.52-1.11z" fill="#ebebeb"/>
  <path d="M107.74 165.8a6.23 6.23 0 01-.19-1.23c-.15-2.54-2.58-2.14-4.64-2.49-1.62-.27 2.66-4.35-.6-5.66a2.89 2.89 0 01-1.57-1.1 1.83 1.83 0 01.71-2.25 4.3 4.3 0 012.47-.62c.53-.65.1-1.62-.41-2.28s-1.15-1.41-1-2.22c.29-1.23 2-1.27 3.25-1a9.12 9.12 0 00.67-2.51c.22-.84.89-1.73 1.76-1.62s1.31 1 2.11 1.21 1.73-.6 2.46-1.22 2-1 2.5-.19c.3.49.12 1.16.44 1.64.54.83 1.82.32 2.61-.27s2.07-1.12 2.63-.31a3.52 3.52 0 01.31.86c.38 1.08 1.55 1.62 2.47 2.32s1.64 2.09.86 2.94c-.38.42-1 .59-1.24 1.12s.44 1.27 1 1.73c.9.76 1.07 3-.12 3.68-.5.26-1.23.34-1.36.89s.39.88.73 1.26a2.37 2.37 0 01-.73 3.52c-.28.14-.63.25-.74.55a1.09 1.09 0 00.07.66 3.67 3.67 0 01.11 1.28.59.59 0 01-.15.4.62.62 0 01-.38.1c-1.72.08-2.55-.53-3.59 1a1.1 1.1 0 01-.36.38 1 1 0 01-.48.12c-1.18.1-2-.64-3-.77-1.49-.2-1.81.58-3.13 1.2-2.08.89-3.08.29-3.47-1.12z" fill="#ebebeb"/>
  <path d="M97.46 172.72a5.5 5.5 0 01-.18-1.23c-.15-2.54-2.58-2.14-4.65-2.48-1.62-.27 2.66-4.35-.6-5.67a2.87 2.87 0 01-1.57-1.09 1.86 1.86 0 01.71-2.26 4.4 4.4 0 012.47-.62c.54-.65.1-1.62-.41-2.28s-1.14-1.41-1-2.22c.3-1.23 2-1.27 3.25-1a8.78 8.78 0 00.67-2.51c.22-.85.89-1.73 1.76-1.63s1.31 1 2.11 1.21 1.73-.6 2.46-1.22 2-1 2.51-.19c.3.49.12 1.17.43 1.65.54.82 1.82.31 2.62-.28s2.06-1.12 2.62-.3a3.09 3.09 0 01.31.85c.38 1.09 1.55 1.63 2.47 2.33s1.64 2.08.87 2.93c-.39.42-1.06.59-1.25 1.12s.45 1.27 1 1.73c.9.77 1.06 3.06-.13 3.68-.5.27-1.23.35-1.35.9s.39.87.72 1.25a2.37 2.37 0 01-.72 3.52c-.29.14-.64.25-.75.55a1.16 1.16 0 00.07.66 3.47 3.47 0 01.12 1.28.62.62 0 01-.16.4.61.61 0 01-.38.11c-1.71.07-2.54-.54-3.59 1a1.31 1.31 0 01-.36.38 1.26 1.26 0 01-.47.12c-1.18.09-1.95-.64-3-.78-1.5-.19-1.82.58-3.14 1.2-2.06.91-3.07.3-3.46-1.11z" fill="#ebebeb"/>
  <path d="M148.6 173.47l-.3.55c-.39.74-1.17 2.17-2.24 3.87a47.73 47.73 0 01-3.84 5.32 20.57 20.57 0 01-5.78 5.05q-.51.27-1 .57c-5.95 3.71-9.77 11.33-10.08 13.41-.23 1.48-.73 36.4-1 59-.07 5.07-.13 9.52-.18 12.84h-10.25v-15c.15-14.46.74-33.07 2.63-45.55-.11-.64-.21-1.37-.32-2.21-1-7.94-8.42-19.95-9.9-21.87-.43-.56-1.1-1.47-1.82-2.48-1.79-2.46-4-5.53-4-5.53l.88-1.33 4.13 4.56 2.84 3.15-1.37-4.55-1.16-3.64-.07-.24-.21-.27-1.41-1.81-1.55-2-1.33-1.72-.68-.86.88-.74.86.93 1.05 1.15 3 3.25.17-1.66.24-2.33v-.48l.17-1.64.08-.72.16-1.6h2s-.19.69-.43 1.78c-.1.46-.21 1-.32 1.6-.61 3.14-1.18 7.68-.15 9.95 0 0 1.17 2.65 2.82 6 2.34 4.86 5.67 11.18 7.86 13.15a3.53 3.53 0 01.54.66 38.84 38.84 0 014.3-8.07c-.73-1.85-1.85-4.78-2.94-7.81-1.11-3.12-2.19-6.32-2.72-8.54-.31-1.28-.58-2.5-.8-3.62-.8-4-1.08-6.76-1.08-6.76l1.46-.79s.11.57.31 1.54c.16.74.38 1.7.65 2.82s.58 2.31.95 3.62c.05.22.12.43.18.65l.5 1.69a67.43 67.43 0 003.42 9.13 27.11 27.11 0 002.87 4.85 22.67 22.67 0 015.67-3.8 17.61 17.61 0 00.33-3.42v-1.44c0-.51-.06-.95-.1-1.47a43.42 43.42 0 00-1.07-6.13l1.12-1a36.22 36.22 0 011.9 7.56.45.45 0 010 .11 26.7 26.7 0 01.27 4.43v.18a20.65 20.65 0 002.48-1.46 25.51 25.51 0 003.34-2.87 38.23 38.23 0 003.44-4.07c.73-1 1.32-1.88 1.75-2.55s.79-1.32.79-1.32z" fill="#e6e6e6"/>
  <path d="M210.34 210.33a5.5 5.5 0 01-.18-1.23c-.16-2.54-2.59-2.14-4.65-2.48-1.62-.27 2.66-4.35-.6-5.67a2.87 2.87 0 01-1.57-1.09 1.86 1.86 0 01.71-2.26 4.4 4.4 0 012.47-.62c.53-.65.1-1.62-.41-2.28s-1.15-1.41-1-2.22c.29-1.23 2-1.27 3.25-1a8.78 8.78 0 00.67-2.51c.22-.85.89-1.73 1.76-1.63s1.31 1 2.11 1.21 1.73-.6 2.46-1.22 2-1 2.5-.19c.3.49.12 1.17.44 1.65.54.82 1.82.31 2.62-.28s2.06-1.12 2.62-.3a3.45 3.45 0 01.31.85c.38 1.09 1.55 1.63 2.47 2.33s1.64 2.08.86 2.93c-.38.42-1 .59-1.24 1.13s.45 1.26 1 1.72c.9.77 1.06 3.06-.13 3.68-.5.27-1.23.35-1.35.9s.39.87.72 1.25a2.37 2.37 0 01-.73 3.52c-.28.14-.63.25-.74.55a1.16 1.16 0 00.07.66 3.26 3.26 0 01.11 1.28.57.57 0 01-.15.4.61.61 0 01-.38.11c-1.72.07-2.54-.54-3.59 1a1.31 1.31 0 01-.36.38 1.26 1.26 0 01-.47.12c-1.18.09-2-.64-3-.78-1.49-.19-1.81.58-3.13 1.2-2.07.91-3.08.31-3.47-1.11z" fill="#ebebeb"/>
  <path d="M230.12 208.19a5.5 5.5 0 01-.18-1.22c-.15-2.55-2.58-2.14-4.65-2.49-1.62-.27 2.66-4.35-.6-5.66a2.94 2.94 0 01-1.57-1.1 1.86 1.86 0 01.71-2.26 4.4 4.4 0 012.47-.62c.54-.64.1-1.61-.41-2.27s-1.14-1.41-.95-2.23c.3-1.22 2-1.27 3.25-1a8.78 8.78 0 00.67-2.51c.22-.84.89-1.73 1.76-1.62s1.31 1 2.11 1.2 1.73-.6 2.46-1.21 2-1 2.51-.19c.3.48.12 1.16.43 1.64.54.83 1.82.31 2.62-.27s2.06-1.12 2.62-.31a3.21 3.21 0 01.31.85c.38 1.09 1.55 1.63 2.47 2.33s1.64 2.08.87 2.93c-.39.42-1.06.59-1.25 1.13s.45 1.27 1 1.72c.9.77 1.06 3.06-.13 3.69-.5.26-1.23.34-1.35.89s.39.88.72 1.26a2.37 2.37 0 01-.72 3.52c-.29.13-.64.24-.75.54a1.19 1.19 0 00.07.67 3.4 3.4 0 01.12 1.27.47.47 0 01-.54.51c-1.71.07-2.54-.53-3.59 1a1.31 1.31 0 01-.36.38 1.09 1.09 0 01-.47.12c-1.18.1-1.95-.64-3-.78-1.5-.19-1.82.58-3.14 1.2-2.11.91-3.12.31-3.51-1.11z" fill="#ebebeb"/>
  <path d="M232 195.6a6.23 6.23 0 01-.19-1.23c-.15-2.55-2.58-2.14-4.64-2.49-1.62-.27 2.66-4.35-.6-5.66a2.89 2.89 0 01-1.57-1.1 1.83 1.83 0 01.71-2.25 4.3 4.3 0 012.47-.62c.53-.65.1-1.62-.41-2.28s-1.15-1.41-1-2.22c.29-1.23 2-1.28 3.25-1a9.12 9.12 0 00.67-2.51c.22-.84.89-1.73 1.76-1.62s1.31 1 2.11 1.21 1.73-.61 2.46-1.22 2-1 2.5-.19c.3.49.12 1.16.44 1.64.54.83 1.82.32 2.61-.27s2.07-1.12 2.63-.31a3.6 3.6 0 01.31.85c.38 1.09 1.55 1.63 2.47 2.33s1.64 2.08.86 2.94c-.38.41-1 .58-1.24 1.12s.44 1.27 1 1.73c.9.76 1.07 3.05-.12 3.68-.5.26-1.23.34-1.36.89s.39.88.73 1.26a2.37 2.37 0 01-.73 3.52c-.28.13-.63.25-.74.54a1.11 1.11 0 00.07.67 3.63 3.63 0 01.11 1.27.55.55 0 01-.15.4.63.63 0 01-.38.11c-1.72.08-2.55-.53-3.59 1a1.1 1.1 0 01-.36.38 1 1 0 01-.48.12c-1.18.1-1.95-.64-3-.78-1.49-.19-1.81.59-3.13 1.21-2.05.89-3.05.28-3.47-1.12z" fill="#ebebeb"/>
  <path d="M245.06 201.87a6.11 6.11 0 01-.19-1.23c-.15-2.54-2.58-2.14-4.64-2.48-1.62-.27 2.66-4.35-.6-5.67a2.87 2.87 0 01-1.57-1.09 1.86 1.86 0 01.71-2.26 4.38 4.38 0 012.47-.62c.53-.65.1-1.62-.41-2.28s-1.15-1.41-1-2.22c.29-1.23 2-1.27 3.25-1a8.78 8.78 0 00.67-2.51c.22-.85.89-1.73 1.76-1.63s1.31 1 2.11 1.21 1.73-.6 2.46-1.22 2-1 2.5-.19c.3.49.12 1.17.44 1.65.54.82 1.82.31 2.62-.28s2.06-1.12 2.62-.3a3.45 3.45 0 01.31.85c.38 1.09 1.55 1.63 2.47 2.33s1.64 2.08.86 2.93c-.38.42-1.05.59-1.24 1.12s.44 1.27 1 1.73c.9.77 1.07 3.06-.12 3.68-.5.27-1.23.35-1.36.9s.39.87.73 1.25a2.37 2.37 0 01-.73 3.52c-.28.14-.63.25-.74.55a1.16 1.16 0 00.07.66 3.69 3.69 0 01.11 1.28.59.59 0 01-.15.4.63.63 0 01-.38.11c-1.72.07-2.54-.54-3.59 1a1.31 1.31 0 01-.36.38 1.26 1.26 0 01-.48.12c-1.18.09-1.95-.64-3-.78-1.49-.19-1.81.58-3.13 1.2-2.07.91-3.08.3-3.47-1.11z" fill="#ebebeb"/>
  <path d="M258.23 199a6.12 6.12 0 01-.19-1.22c-.15-2.55-2.58-2.15-4.64-2.49-1.62-.27 2.66-4.35-.6-5.67a2.87 2.87 0 01-1.57-1.09 1.86 1.86 0 01.71-2.26 4.38 4.38 0 012.47-.62c.53-.64.1-1.62-.41-2.27s-1.15-1.41-.95-2.23c.29-1.22 2-1.27 3.25-1a8.78 8.78 0 00.67-2.51c.22-.85.89-1.73 1.76-1.62s1.31 1 2.11 1.2 1.73-.6 2.46-1.21 2-1 2.5-.19c.3.48.12 1.16.44 1.64.54.83 1.82.31 2.62-.28s2.06-1.12 2.62-.3a3.45 3.45 0 01.31.85c.38 1.09 1.55 1.63 2.47 2.33s1.64 2.08.86 2.93c-.38.42-1.05.59-1.24 1.13s.44 1.26 1 1.72c.9.77 1.07 3.06-.12 3.68-.5.27-1.23.35-1.36.9s.39.87.73 1.25a2.36 2.36 0 01-.73 3.52c-.28.14-.63.25-.74.55a1.11 1.11 0 00.07.67 3.61 3.61 0 01.11 1.27.55.55 0 01-.15.4.63.63 0 01-.38.11c-1.72.07-2.55-.53-3.59 1a1.31 1.31 0 01-.36.38 1.26 1.26 0 01-.48.12c-1.18.1-1.95-.64-3-.78-1.49-.19-1.81.58-3.13 1.2-2.12.89-3.13.28-3.52-1.11z" fill="#ebebeb"/>
  <path d="M258.4 213.06a4.52 4.52 0 01-.14-1c-.12-2-2-1.68-3.66-2-1.28-.22 2.09-3.43-.47-4.46a2.25 2.25 0 01-1.24-.87 1.45 1.45 0 01.56-1.77 3.36 3.36 0 012-.49c.41-.51.07-1.28-.33-1.79s-.9-1.11-.75-1.75c.23-1 1.58-1 2.56-.82a7.14 7.14 0 00.53-2c.17-.66.7-1.36 1.38-1.27s1 .8 1.67.95 1.36-.48 1.93-1 1.58-.79 2-.15c.24.38.1.92.35 1.29.42.65 1.43.25 2.06-.21s1.62-.89 2.07-.24a2.8 2.8 0 01.24.67c.3.85 1.22 1.28 1.94 1.83s1.29 1.64.68 2.31c-.3.33-.83.46-1 .89s.35 1 .78 1.36c.71.6.84 2.4-.1 2.89-.39.21-1 .27-1.07.71s.31.69.57 1a1.85 1.85 0 01-.57 2.77c-.22.11-.5.19-.58.43a.85.85 0 00.05.52 2.87 2.87 0 01.09 1 .43.43 0 01-.12.31.44.44 0 01-.3.08c-1.35.06-2-.41-2.83.76a.9.9 0 01-.28.3.93.93 0 01-.37.1c-.93.07-1.54-.51-2.39-.62-1.18-.15-1.43.46-2.47.95-1.69.91-2.48.43-2.79-.68z" fill="#ebebeb"/>
  <path d="M265.78 208.19a5.5 5.5 0 01-.18-1.22c-.16-2.55-2.59-2.14-4.65-2.49-1.62-.27 2.66-4.35-.6-5.66a2.94 2.94 0 01-1.57-1.1 1.86 1.86 0 01.71-2.26 4.4 4.4 0 012.47-.62c.53-.64.1-1.61-.41-2.27s-1.15-1.41-.95-2.23c.29-1.22 2-1.27 3.25-1a8.78 8.78 0 00.67-2.51c.22-.84.89-1.73 1.76-1.62s1.31 1 2.11 1.2 1.73-.6 2.46-1.21 2-1 2.5-.19c.3.48.12 1.16.44 1.64.54.83 1.82.31 2.62-.27s2.06-1.12 2.62-.31a3.6 3.6 0 01.31.85c.38 1.09 1.55 1.63 2.47 2.33s1.64 2.08.86 2.93c-.38.42-1.05.59-1.24 1.13s.45 1.27 1 1.72c.9.77 1.06 3.06-.13 3.69-.5.26-1.23.34-1.35.89s.39.88.72 1.26a2.37 2.37 0 01-.73 3.52c-.28.13-.63.24-.74.54a1.19 1.19 0 00.07.67 3.39 3.39 0 01.11 1.27.55.55 0 01-.15.4.61.61 0 01-.38.11c-1.72.07-2.54-.53-3.59 1a1.31 1.31 0 01-.36.38 1.09 1.09 0 01-.47.12c-1.18.1-2-.64-3-.78-1.49-.19-1.81.58-3.13 1.2-2.12.91-3.13.31-3.52-1.11zm-20.72-21.81a6.23 6.23 0 01-.19-1.23c-.15-2.55-2.58-2.14-4.64-2.49-1.62-.27 2.66-4.35-.6-5.66a2.89 2.89 0 01-1.57-1.1 1.86 1.86 0 01.71-2.26 4.46 4.46 0 012.47-.62c.53-.64.1-1.61-.41-2.27s-1.15-1.41-1-2.23c.29-1.22 2-1.27 3.25-1a8.78 8.78 0 00.67-2.51c.22-.84.89-1.73 1.76-1.62s1.31 1 2.11 1.21 1.73-.61 2.46-1.22 2-1 2.5-.19c.3.48.12 1.16.44 1.64.54.83 1.82.31 2.62-.27s2.06-1.12 2.62-.31a3.6 3.6 0 01.31.85c.38 1.09 1.55 1.63 2.47 2.33s1.64 2.08.86 2.93c-.38.42-1.05.59-1.24 1.13s.44 1.27 1 1.73c.9.76 1.07 3.05-.12 3.68-.5.26-1.23.34-1.36.89s.39.88.73 1.26a2.37 2.37 0 01-.73 3.52c-.28.13-.63.25-.74.54a1.19 1.19 0 00.07.67 3.63 3.63 0 01.11 1.27.55.55 0 01-.15.4.63.63 0 01-.38.11c-1.72.08-2.54-.53-3.59 1a1.19 1.19 0 01-.36.38 1.1 1.1 0 01-.48.12c-1.18.1-1.95-.64-3-.78-1.49-.19-1.81.58-3.13 1.2-2.07.91-3.08.31-3.47-1.1z" fill="#ebebeb"/>
  <path d="M228.14 187.24A5.5 5.5 0 01228 186c-.16-2.54-2.58-2.14-4.65-2.48-1.62-.27 2.66-4.35-.6-5.67a2.87 2.87 0 01-1.57-1.09 1.86 1.86 0 01.71-2.26 4.4 4.4 0 012.47-.62c.53-.65.1-1.62-.41-2.28s-1.15-1.41-.95-2.22c.29-1.23 2-1.27 3.25-1a8.78 8.78 0 00.67-2.51c.22-.85.89-1.73 1.76-1.63s1.31 1 2.11 1.21 1.73-.6 2.46-1.22 2-1 2.5-.19c.3.49.13 1.17.44 1.64.54.83 1.82.32 2.62-.27s2.06-1.12 2.62-.3a3.45 3.45 0 01.31.85c.38 1.09 1.55 1.63 2.47 2.32s1.64 2.09.86 2.94c-.38.42-1.05.59-1.24 1.12s.45 1.27 1 1.73c.9.77 1.06 3.06-.13 3.68-.5.26-1.23.35-1.35.9s.39.87.72 1.25a2.37 2.37 0 01-.73 3.52c-.28.14-.63.25-.74.55a1.16 1.16 0 00.07.66 3.26 3.26 0 01.11 1.28.59.59 0 01-.15.4.6.6 0 01-.38.1c-1.72.08-2.54-.53-3.59 1a1.31 1.31 0 01-.36.38 1.26 1.26 0 01-.47.12c-1.18.09-2-.64-3-.78-1.49-.19-1.81.58-3.13 1.2-2.16.93-3.17.32-3.56-1.09z" fill="#ebebeb"/>
  <path d="M217.86 194.16a7 7 0 01-.18-1.22c-.15-2.55-2.58-2.14-4.65-2.49-1.61-.27 2.66-4.35-.59-5.66a2.86 2.86 0 01-1.57-1.1 1.85 1.85 0 01.7-2.26 4.41 4.41 0 012.48-.62c.53-.64.1-1.61-.42-2.27s-1.14-1.41-.95-2.23c.3-1.22 2-1.27 3.25-1a8.78 8.78 0 00.67-2.51c.23-.84.9-1.73 1.76-1.62s1.31 1 2.11 1.2 1.74-.6 2.46-1.21 2-1 2.51-.19c.3.48.12 1.16.43 1.64.54.83 1.82.31 2.62-.27s2.07-1.12 2.63-.31a3.19 3.19 0 01.3.85c.38 1.09 1.56 1.63 2.47 2.33s1.64 2.08.87 2.93c-.38.42-1.06.59-1.25 1.13s.45 1.27 1 1.72c.9.77 1.06 3.06-.13 3.69-.5.26-1.23.34-1.35.89s.39.88.72 1.26a2.37 2.37 0 01-.72 3.52c-.29.13-.64.24-.74.54a1.11 1.11 0 00.06.67 3.4 3.4 0 01.12 1.27.47.47 0 01-.53.51c-1.72.07-2.55-.53-3.6 1a1.19 1.19 0 01-.36.38 1.09 1.09 0 01-.47.12c-1.18.1-1.95-.64-3-.78-1.5-.19-1.82.58-3.13 1.2-2.12.91-3.13.31-3.52-1.11z" fill="#ebebeb"/>
  <path d="M269 194.91s-.1.21-.29.56-.4.76-.7 1.3-.75 1.3-1.23 2.06l-.31.52-.35.55-.41.61c-.08.12-.16.25-.25.37l-.07.11c-.16.23-.31.46-.48.69s-.33.48-.51.72l-.34.45c-.15.2-.3.41-.46.61l-.59.74-.15.19c-.08.09-.15.19-.23.27a20.7 20.7 0 01-5.79 5c-.34.19-.68.37-1 .58s-.85.56-1.26.86a27.52 27.52 0 00-6.57 7.53l-.26.45c-.22.38-.42.76-.61 1.12a13 13 0 00-1.35 3.42c-.05.31-.12 2.11-.18 5-.12 5.33-.28 14.34-.43 24.25v4.3c-.09 5.64-.16 11.45-.24 16.92h-10.5c.15-8.31.48-17.4 1.1-25.65.36-4.89.83-9.49 1.44-13.47-.1-.64-.21-1.36-.32-2.21v-.33a29 29 0 00-1.47-5.48c-.19-.53-.4-1.07-.61-1.6-.05-.11-.09-.23-.14-.34l-.33-.8c-.15-.33-.29-.67-.44-1-.05-.12-.11-.23-.16-.36l-.63-1.33-.33-.67c-.89-1.83-1.83-3.56-2.68-5.05-.17-.28-.32-.55-.47-.81-1.12-1.91-2-3.33-2.52-4 0 0 0-.07-.07-.09a.94.94 0 00-.09-.12c-.41-.54-1-1.33-1.63-2.21l-.09-.13-.59-.81c-.16-.21-.32-.44-.47-.65s-.34-.47-.49-.7c-.83-1.13-1.57-2.17-2-2.8l-.41-.58.69-1 .2-.29 1.19 1.31 2.94 3.25 2.83 3.14-1.44-4.57-1-3.21-.14-.43-.07-.24-.22-.29-1.4-1.79-1.55-2-1.41-1.78-.68-.87.89-.74.86.93 1.05 1.15 3 3.26.18-1.66.23-2.33.05-.48.17-1.63.08-.73.16-1.61h2s-.19.69-.43 1.78c-.1.47-.21 1-.33 1.61a35 35 0 00-.7 6.73 8.67 8.67 0 00.56 3.21s1.17 2.65 2.82 6c0 .06.05.11.07.16.19.37.37.73.55 1.1.36.73.73 1.48 1.13 2.23s.74 1.44 1.13 2.14.69 1.26 1 1.86a42 42 0 002.37 3.77l.2.3c.2.26.39.49.57.71a8.86 8.86 0 00.81.87l.11.11a2.84 2.84 0 01.43.54c.1-.24.2-.47.29-.7a.5.5 0 00.05-.13c.67-1.55 1.34-2.92 2-4.13.27-.48.53-.93.8-1.36l.12-.18a.38.38 0 00.06-.13c.33-.51.64-1 1-1.43a1 1 0 00-.09-.21l-.88-2.31c-.17-.43-.33-.87-.51-1.34-.47-1.23-1-2.58-1.46-3.94-1.1-3.11-2.18-6.32-2.72-8.54-.3-1.28-.57-2.5-.8-3.62-.79-4-1.08-6.75-1.08-6.75l1.46-.79s.11.57.31 1.54c.16.73.38 1.7.66 2.82s.58 2.3.93 3.61c.06.22.13.43.19.65.15.56.31 1.12.5 1.69a67.43 67.43 0 003.42 9.13 26.88 26.88 0 002.81 4.91 20.78 20.78 0 014.93-3.41c.24-.14.49-.26.73-.38A17.92 17.92 0 00253 205v-1.42c0-.5-.06-1-.1-1.47s-.1-1-.18-1.53a41.53 41.53 0 00-.88-4.6l1.12-1a33.1 33.1 0 011.18 3.89 36.21 36.21 0 01.72 3.67v.11a26.69 26.69 0 01.27 4.44v.17a20 20 0 002.47-1.46 23.93 23.93 0 002.93-2.47l.41-.4a35.12 35.12 0 002.82-3.25c.23-.28.44-.57.63-.83l1-1.36c.31-.42.36-.53.52-.77l.26-.41c.52-.81.79-1.32.79-1.32z" fill="#e6e6e6"/>
  <path fill="#e0e0e0" d="M126.2 106.46h2.79v170.88h-2.79zm52.47 0h2.79v170.88h-2.79zm52.47 0h2.79v170.88h-2.79z"/>
  <circle cx="369.54" cy="129.6" r="23.55" transform="rotate(-76.72 369.526 129.608)" fill="#e0e0e0"/>
  <circle cx="369.54" cy="129.6" r="20.03" transform="rotate(-80.78 369.553 129.596)" fill="#f0f0f0"/>
  <path fill="#f0f0f0" d="M368.59 115.86v14l-9.28-5.25"/>
  <path d="M368.59 130.86a1 1 0 01-.49-.13l-9.28-5.25a1 1 0 01-.37-1.36 1 1 0 011.36-.38l7.78 4.41v-12.29a1 1 0 012 0v14a1 1 0 01-1 1z" fill="#e0e0e0"/>
  <ellipse cx="250" cy="416.24" rx="193.89" ry="11.32" fill="#f5f5f5"/>
  <path d="M326.84 257.26h-11a1.18 1.18 0 01-1.19-1.27l1.47-21.64a1.39 1.39 0 011.36-1.27h11a1.18 1.18 0 011.2 1.27L328.21 256a1.39 1.39 0 01-1.37 1.26z" fill="#263238"/>
  <path d="M325.75 257.26h-11a1.18 1.18 0 01-1.19-1.27l1.44-21.64a1.39 1.39 0 011.37-1.27h11a1.18 1.18 0 011.2 1.27L327.12 256a1.39 1.39 0 01-1.37 1.26z" fill="#263238"/>
  <path d="M325.75 257.26h-11a1.18 1.18 0 01-1.19-1.27l1.44-21.64a1.39 1.39 0 011.37-1.27h11a1.18 1.18 0 011.2 1.27L327.12 256a1.39 1.39 0 01-1.37 1.26z" style="isolation:isolate" fill="#fff" opacity=".2"/>
  <path d="M327.13 233.93h-2a.62.62 0 00-.49.23l-.38.46a.67.67 0 01-.5.24h-4a.55.55 0 01-.46-.24l-.32-.46a.57.57 0 00-.47-.23h-1.95a.69.69 0 00-.68.63l-1.44 21.23a.58.58 0 00.59.62h10.57a.69.69 0 00.68-.62l1.44-21.24a.58.58 0 00-.59-.62z" fill="#34a37e"/>
  <path d="M322.88 245.54a.36.36 0 00-.34-.35.18.18 0 01-.17-.21l.08-1a1.6 1.6 0 00-1.37-1.87 1.85 1.85 0 00-1.69 1.81l-.07 1.06a.22.22 0 01-.2.21.41.41 0 00-.39.35.38.38 0 00.31.51h3.45a.45.45 0 00.39-.51zm-2.57.77a.44.44 0 00.4.51.52.52 0 00.47-.51z" opacity=".5" fill="#fff"/>
  <path d="M323.61 241.51a3.17 3.17 0 00-5 0 4.77 4.77 0 00-.44 5.92 3.17 3.17 0 005 0 4.76 4.76 0 00.44-5.92zm-5.08 5.49a4.12 4.12 0 01.37-5.12 2.75 2.75 0 014.34 0 4.13 4.13 0 01-.38 5.12 2.74 2.74 0 01-4.33 0z" fill="#fff"/>
  <path fill="#fff" d="M318.43 247.45l-.27-.35 5.18-5.62.27.35-5.18 5.62z"/>
  <path d="M332.63 256.74v7.57h-26.51v-7.57a1.47 1.47 0 011.47-1.47h23.57a1.47 1.47 0 011.47 1.47z" fill="#263238"/>
  <path d="M323.63 256.74v7.57h-17.51v-7.57a1.47 1.47 0 011.47-1.47h14.57a1.47 1.47 0 011.47 1.47z" style="isolation:isolate" fill="#fff" opacity=".2"/>
  <path fill="#34a37e" d="M351.42 236.72l-2.44 27.97h37.37l2.45-27.97h-37.38zm76.2-17.3h-37.33l3.96 45.18h37.32l-3.95-45.18z"/>
  <path style="isolation:isolate" fill="#fff" opacity=".2" d="M384.44 264.69l2.45-27.97h-35.47l-2.44 27.97h35.46z"/>
  <path style="isolation:isolate" opacity=".2" d="M381.08 261.83l1.94-22.26h-28.23l-1.95 22.26h28.24z"/>
  <path fill="#fafafa" d="M378.91 260l1.63-18.59h-23.59L355.33 260h23.58z"/>
  <path style="isolation:isolate" fill="#fff" opacity=".2" d="M395.95 264.6h35.62l-3.95-45.18h-35.63l3.96 45.18z"/>
  <path style="isolation:isolate" opacity=".2" d="M399.18 259.99h28.36l-3.15-35.96h-28.36l3.15 35.96z"/>
  <path fill="#fafafa" d="M401.25 257.03h23.69l-2.63-30.04h-23.69l2.63 30.04z"/>
  <path d="M413.22 240.5a4.12 4.12 0 01-5.83 0 4.12 4.12 0 010-5.83 4.14 4.14 0 015.83 0 4.12 4.12 0 010 5.83zm-1.75 5.05a3 3 0 014.27 0 3 3 0 01-2.13 5.15 3 3 0 01-2.14-5.15zm-34.27 4.92a5.81 5.81 0 11-5.81-5.8 5.81 5.81 0 015.81 5.8z" fill="#e0e0e0"/>
  <rect x="324.78" y="264.31" width="119.74" height="155.2" rx="3.98" fill="#34a37e"/>
  <rect x="294.78" y="264.31" width="119.74" height="155.2" rx="3.98" fill="#34a37e"/>
  <rect x="294.78" y="264.31" width="119.74" height="155.2" rx="3.98" style="isolation:isolate" fill="#fff" opacity=".4"/>
  <path style="isolation:isolate" fill="#fff" opacity=".5" d="M299.66 298.15h109.98v56.03H299.66zm0 59.76h109.98v56.03H299.66zm0-88.03h109.98v24.53H299.66z"/>
  <path d="M363.64 274h-18a2.9 2.9 0 01-2.59-1.61l-1.2-2.47h25.58l-1.21 2.47a2.89 2.89 0 01-2.58 1.61zm0 28.23h-18a2.89 2.89 0 01-2.59-1.62l-1.2-2.46h25.58l-1.21 2.46a2.88 2.88 0 01-2.58 1.62zm0 59.77h-18a2.89 2.89 0 01-2.59-1.62l-1.2-2.46h25.58l-1.21 2.46a2.88 2.88 0 01-2.58 1.62z" style="isolation:isolate" opacity=".5"/>
  <path fill="#34a37e" d="M301.21 205.32l20.2 23.13-11.81-23.13h-8.39z"/>
  <path style="isolation:isolate" fill="#fff" opacity=".7" d="M301.21 205.32l20.2 23.13-11.81-23.13h-8.39z"/>
  <rect x="247.43" y="163.26" width="116.63" height="45.7" rx="9.82" fill="#34a37e"/>
  <rect x="247.43" y="163.26" width="116.63" height="45.7" rx="7.7" style="isolation:isolate" fill="#fff" opacity=".7"/>
  <path d="M273.94 186.71l14.18 2.29v-1.62a1.31 1.31 0 00-.88-1.24l-5.48-1.88v-1.3h-.94v1l-2.7-.93v-1.39h-.95v1.07l-3.23-1.12c0-3.86-.12-7.35-.12-7.35s-.76-3.21-1.66-3.21-1.67 3.21-1.67 3.21-.09 3.49-.12 7.35l-3.23 1.12v-1.07h-.94V183l-2.7.93v-1h-.95v1.3l-5.48 1.88a1.33 1.33 0 00-.88 1.24V189l14.18-2.26c0 1.47.05 2.77.12 3.67.09 1.16.43 3.46.75 5.48l-4.1 3.5v1.89l4.72-1.64a.3.3 0 00.59 0l4.71 1.64v-1.89l-4.09-3.5c.32-2 .66-4.32.74-5.48.08-.93.12-2.23.13-3.7z" fill="#34a37e"/>
  <rect x="303.74" y="171.93" width="51.12" height="28.36" rx="3.75" fill="#34a37e"/>
  <rect x="327.67" y="173.02" width="26.18" height="26.18" rx="3.46" style="isolation:isolate" fill="#fff" opacity=".7"/>
  <path d="M308 185.57a3.58 3.58 0 113.57 3.41 3.39 3.39 0 01-3.57-3.41zm5.91 0a2.34 2.34 0 10-2.34 2.33 2.27 2.27 0 002.33-2.33zm8.45-3.33v6.65h-1l-3.66-4.5v4.5h-1.22v-6.65h1l3.67 4.5v-4.5z" opacity=".4" fill="#fff"/>
  <rect x="329.2" y="174.44" width="23.56" height="12.76" rx="2.08" style="isolation:isolate" fill="#fff" opacity=".7"/>
  <rect x="183" y="329.61" width="83.49" height="70.61" rx="11.63" transform="rotate(180 224.74 364.915)" fill="#263238"/>
  <rect x="183" y="329.61" width="83.49" height="70.61" rx="11.63" transform="rotate(180 224.74 364.915)" style="isolation:isolate" fill="#fff" opacity=".1"/>
  <path d="M254.86 400.22a11.63 11.63 0 0011.63-11.62v-47.36a11.63 11.63 0 00-11.63-11.63 11.63 11.63 0 00-11.63 11.63v47.36a11.63 11.63 0 0011.63 11.62z" style="isolation:isolate" fill="#fff" opacity=".2"/>
  <path d="M201.21 353.05h-123l-18.73-96.78a17.15 17.15 0 0116.83-20.41h88.06a17.14 17.14 0 0116.83 13.89z" fill="#263238"/>
  <path d="M201.21 353.05h-123l-18.73-96.78a17.15 17.15 0 0116.83-20.41h88.06a17.14 17.14 0 0116.83 13.89z" fill="#fff" opacity=".1"/>
  <path d="M201.21 352.87h-88.06l-20-103.21a17.07 17.07 0 00-16.84-13.79h88.06a17.06 17.06 0 0116.83 13.79z" style="isolation:isolate" fill="#fff" opacity=".2"/>
  <path d="M290.46 305.2a1.24 1.24 0 00.43.33l.07 2.88 1.11-.09-.08-2.86h.07a1.14 1.14 0 10-1.37-1.81 1.14 1.14 0 00-.23 1.55zm2.27 7.38c0 .38 2 8.91 2 8.91l2.63 1.89 2.05-.5 1.21-2.14-1.21-11.67zm-2.77.38l-1.25 8.53-1.34 1.89-2.68-.63-1-2.01.75-10.54 5.52 2.76z" fill="#34a37e"/>
  <path d="M292.73 312.58c0 .38 2 8.91 2 8.91l2.63 1.89 2.05-.5 1.21-2.14-1.21-11.67zm-2.77.38l-1.25 8.53-1.34 1.89-2.68-.63-1-2.01.75-10.54 5.52 2.76z" style="isolation:isolate" fill="#fff" opacity=".5"/>
  <path fill="#34a37e" d="M296.68 324.88v24.48h11.74l-7.79-24.48h-3.95zm-9.31-1.5l1.59 25.98h-9.92l4.96-25.07 3.37-.91z"/>
  <path style="isolation:isolate" opacity=".2" d="M296.68 324.88v24.48h11.74l-7.79-24.48h-3.95zm-9.31-1.5l1.59 25.98h-9.92l4.96-25.07 3.37-.91z"/>
  <path fill="#263238" d="M283.69 306.98h15.73v3.41l-5.69 2.19-.33 2.76h-4.69l-1.34-2.76-3.68-1.42v-4.18z"/>
  <path fill="#34a37e" d="M296.68 324.88l.14-5.02 1.68-.62 2.13 5.64v3.32h-1.97l-1.98-3.32zm-11.86-4.39h1.5l1.05 2.89-2.55 3.39h-1.13v-3.39l1.13-2.89zm-108.19-2.88s70.13-10.07 73.83 5.32c3.91 16.27-52.39 27.24-86 28.39s-43.33-6.25-37.93-47.83l45.4-.11z"/>
  <path d="M176.63 317.61s70.13-10.07 73.83 5.32c3.91 16.27-52.39 27.24-86 28.39s-43.33-6.25-37.93-47.83l45.4-.11z" style="isolation:isolate" opacity=".2"/>
  <path fill="#263238" d="M139.98 309.38l-14.18.18.27-4.6 13.91-.31v4.73zm27.98-5.33l4.24-.09 1.52 4.98-5.76.07v-4.96zm-1.81.04v4.95l-23.99.31v-4.74l23.99-.52z"/>
  <path d="M152.33 308.17l-.07-1.92a1.9 1.9 0 011.75-2l4.34-.18a1.78 1.78 0 011.31.52 2 2 0 01.59 1.35l.07 1.93a1.9 1.9 0 01-1.76 2l-4.34.18h-.07a1.88 1.88 0 01-1.82-1.88zm6.2.88a1.12 1.12 0 001-1.18l-.07-1.93a1.22 1.22 0 00-.35-.79 1 1 0 00-.76-.3L154 305a1.11 1.11 0 00-1 1.18l.07 1.93a1.08 1.08 0 001.1 1.09z" fill="#fff"/>
  <path d="M153.07 307.54h2.18a.5.5 0 000-1h-2.18a.5.5 0 000 1z" fill="#fff"/>
  <path d="M171.83 353.14a.24.24 0 01.23-.11.17.17 0 01.14.16c.08.38.6 3.77-.24 4.59a.68.68 0 01-.68.14 1.13 1.13 0 01-.86-.77 3.06 3.06 0 01.22-1.84 12 12 0 011.19-2.17zm0 .68a4.83 4.83 0 00-1 3.16.75.75 0 00.59.53.25.25 0 00.27-.06.67.67 0 00.16-.25 9.37 9.37 0 00.01-3.38z" fill="#34a37e"/>
  <path fill="#e4897b" d="M194.21 336.58l-13.94 4.64-6.7 2.22 1.55 7.31 6.47-1.23 15.79-3.02-3.17-9.92z"/>
  <path d="M176.92 351.14l-1-8.61a.85.85 0 00-1-.75l-4.25.61s-5.77.42-6.95 1.88c-3.44 4.24-1.75 23.34.46 24.06.82.26 1.7-.84 2.07-1.61 1.18-2.43 3.3-8.81 4.31-10.82 1.18-2.36 4.3-3.46 5.7-3.84a.85.85 0 00.66-.92z" fill="#263238"/>
  <path d="M171.86 353.07a.2.2 0 01.22 0c.13 0 2.42 1 2.81 2.33a1.26 1.26 0 01-.1 1 .71.71 0 01-.75.49c-1-.12-2.12-2.49-2.23-3.56v-.1a.16.16 0 01.05-.16zm2.57 3a.77.77 0 000-.54c-.24-.81-1.52-1.56-2.17-1.9.29 1.11 1.22 2.7 1.8 2.77.06 0 .18 0 .31-.24v-.09z" fill="#34a37e"/>
  <path style="isolation:isolate" opacity=".2" d="M194.21 336.58l-13.94 4.64 1.32 8.3 15.79-3.02-3.17-9.92z"/>
  <path d="M243.33 343.3a.23.23 0 01-.25 0 .17.17 0 01-.06-.21c.09-.38 1.1-3.65 2.21-4a.71.71 0 01.68.18 1.16 1.16 0 01.44 1.07 3.05 3.05 0 01-1 1.55 11.88 11.88 0 01-2.02 1.41zm.27-.63a4.82 4.82 0 002.32-2.39.77.77 0 00-.31-.73.25.25 0 00-.27-.07.87.87 0 00-.26.16 9.49 9.49 0 00-1.48 3.03z" fill="#34a37e"/>
  <path fill="#e4897b" d="M215.97 348.47l14.57 1.89 7 .91 1.79-7.25-6.36-1.71-15.53-4.15-1.47 10.31z"/>
  <path d="M237.87 342.89l-2.87 8.17a.85.85 0 00.55 1.1l4.09 1.3s5.38 2.13 7.08 1.34c4.94-2.33 11.73-20.25 10-21.86-.62-.59-1.9 0-2.56.54-2.12 1.67-6.81 6.49-8.59 7.87-2.09 1.6-5.38 1.24-6.81 1a.84.84 0 00-.89.54z" fill="#263238"/>
  <path d="M243.27 343.35a.19.19 0 01-.21-.06c-.11-.09-1.73-2-1.52-3.32a1.24 1.24 0 01.51-.83.73.73 0 01.9-.12c.83.55.82 3.17.45 4.18v.1a.22.22 0 01-.13.05zm-1-3.82a.85.85 0 00-.26.48c-.13.85.69 2.07 1.14 2.66.21-1.13.07-3-.42-3.28-.05 0-.15-.1-.39.08l-.07.06z" fill="#34a37e"/>
  <path style="isolation:isolate" opacity=".2" d="M215.97 348.47l14.57 1.89 2.43-8.05-15.53-4.15-1.47 10.31z"/>
  <path d="M229 340.33s-65.2-25.33-85.17-21.1-20.08 14.69-10 24.43 25.26 6 25.26 6-11.89-7.13-11.06-11.53 8.39 5.66 8.39 5.66 39.42 9.64 72 7.1z" fill="#34a37e"/>
  <path d="M187.84 273.42s5.32 9.65 11.77 9.65 10.54-13.29 10.54-13.29l-3.7-2.59s-4.19 7.44-6.84 7.57-5.55-5-5.55-5z" fill="#b97964"/>
  <path d="M186.58 252.94c2.52 3.36 9.64 18.92 9.64 18.92l-7.17 4.74-9.89-12.52z" fill="#34a37e"/>
  <path d="M173.72 306.72c2.55-14.64 4.91-35.44 12.86-53.78a95.23 95.23 0 00-12.88-4.37 174.75 174.75 0 00-19.49-4.09 88 88 0 00-13.68-.37s-9.84 18.37-14.83 61.42z" fill="#34a37e"/>
  <path d="M183 262.49c-5.16 15.7-7.14 32.08-9.26 44.23l-48-1.19.24-2c.08-.66.16-1.32.24-2 .12-.91.23-1.8.35-2.68.06-.39.11-.77.16-1.15.35-2.49.71-4.9 1.08-7.21.13-.8.26-1.58.39-2.35.53-3.16 1.09-6.14 1.66-8.94.16-.81.33-1.6.5-2.38.78-3.71 1.59-7.09 2.39-10.13.16-.64.33-1.26.49-1.87 0-.1.05-.2.08-.29.18-.65.36-1.28.53-1.9s.26-.93.4-1.38c.07-.23.13-.46.2-.69 2.67 2.46 6.49 1.44 8.32-1.4s7.86-6 11.37-7.58c1.93 3.77 5.59 6.71 11.3 5.1 3.6-1 5.72-2.45 6.95-3.89a45.75 45.75 0 0110.51 9.49z" style="isolation:isolate" fill="#fff" opacity=".7"/>
  <path d="M165.08 228.05c-1.75 6.29-5.88 17.35-11.8 19.17 0 0 4.36 7.13 10.88 7.73 4.16.38 6.46-4.31 6.46-4.31-4.24-.79-2.62-3.89.72-7.79z" fill="#b97964"/>
  <path d="M167.63 234.09l3.7 8.76a20.9 20.9 0 00-2.13 2.89c-4.16.31-7.15-6.29-6.13-9 .37-1.08 3.81-1.74 4.56-2.65z" style="isolation:isolate" opacity=".2"/>
  <path d="M153.28 261.08s3.58 8.11 6.11 9.94 21.71-3.64 21.71-3.64l2.88 4.89s-21.27 9.16-26.91 6.75-11.37-12.6-11.37-12.6z" fill="#b97964"/>
  <path d="M140.53 244.11c-10.66 5 3.51 25.67 3.51 25.67l12.1-5.83s-7.02-23.86-15.61-19.84z" fill="#34a37e"/>
  <path d="M193 265.64c-.81-1.07-5.7-5.05-6.85-4.51s-5.68 6.65-7 7.23a50 50 0 002 4.73 15.49 15.49 0 003.32.16c.94-.18 9.32-6.55 8.53-7.61zm13.52.23c.14-.34 2.72-6.67 3.47-6.54s3.65 3.17 3.39 4.09-2.89 7.64-4 7.6-3.4 0-3.4 0a12.59 12.59 0 01.54-5.15z" fill="#b97964"/>
  <path d="M179.46 218c-4 1.64-3.22 6 3.36 13.86 4.06-3.49 6.25-11.43 4.13-14s-4.04-1.26-7.49.14z" fill="#263238"/>
  <path d="M163.14 221.41c-1.38 8.58-2.62 13.53.68 18.84 5 8 16.28 6.45 20.21-1.55 3.51-7.19 5.18-20-2.35-25.25a11.86 11.86 0 00-16.52 2.9 12.08 12.08 0 00-2.02 5.06z" fill="#b97964"/>
  <path d="M175.27 226.57c-.16.69.09 1.33.54 1.43s.93-.37 1.08-1.06-.08-1.33-.52-1.44-.9.4-1.1 1.07zm7.83 1.77c-.15.69.09 1.33.54 1.43s.94-.37 1.1-1.07-.09-1.33-.54-1.43-.95.38-1.1 1.07z" fill="#263238"/>
  <path d="M180.47 228.09a25.19 25.19 0 002 6.63 4.07 4.07 0 01-3.43-.12z" fill="#a24e3f"/>
  <path d="M173.68 223.62a.37.37 0 01-.24-.12.41.41 0 010-.58 4.07 4.07 0 013.67-.93.4.4 0 01.29.48.43.43 0 01-.52.28 3.28 3.28 0 00-2.89.76.41.41 0 01-.31.11zm13.58 2.88a.44.44 0 01-.32-.31 3.3 3.3 0 00-1.86-2.35.41.41 0 01-.25-.53.42.42 0 01.52-.25 4.14 4.14 0 012.4 2.94.4.4 0 01-.3.49.37.37 0 01-.19.01zm-19.06-11.84c3.66 2.25 2.21 6.4-5.54 13.14-3.45-4.09-4.35-12.3-1.84-14.46s4.18-.64 7.38 1.32z" fill="#263238"/>
  <path d="M157.59 227.27a8.29 8.29 0 002.75 5.69c2.18 1.91 4.51.25 4.95-2.45.4-2.44-.27-6.38-3-7.24s-4.85 1.32-4.7 4z" fill="#b97964"/>
  <path d="M161.46 212.87s-.77-3.37 5.28-6.56 15.83-.49 22.18 4.11-1.37 10.38-4.46 10.51l.86-1.07a23 23 0 01-9.7-1.65l2-.65s-12.34-2.25-16.16-4.69zm16.11 23.6a20.44 20.44 0 00-1.56 2.7l-.53-.16c-2.38-.75-3.24-1.88-3.47-2.91a3.31 3.31 0 01.06-1.52 3.26 3.26 0 01.33-.8 11.74 11.74 0 004.37 2.42c.49.18.8.27.8.27z" fill="#263238"/>
  <path d="M176.77 236.2l-.49.78c-2.24-.7-3.72-1.5-4.21-2.4a3.26 3.26 0 01.33-.8 11.74 11.74 0 004.37 2.42z" fill="#fff"/>
  <path d="M175.48 239c-2.38-.75-3.24-1.88-3.47-2.91a8.17 8.17 0 012.48 1.35 3 3 0 01.99 1.56z" fill="#a24e3f"/>
  <path d="M194.06 262.3l-1.46-.3-1.8-2.32-.71.72s-1.39-.27-1.43-.14-1.17 3.24-1.17 3.24l3.65 1.52 1-.56 2.16.32z" fill="#263238"/>
  <path d="M202.4 263.34l-1.49-1.5-6.13-.76-1.43.51-.31 3.18a23.8 23.8 0 002.28 1.47c.2 0 5.59.59 5.59.59l2-1.2zm5.93-10.4l5.06 3.16-5.06 7.12-2.38 1.09-2.57-1.78v-2.47l4.95-7.12z" fill="#34a37e"/>
  <path style="isolation:isolate" fill="#fff" opacity=".5" d="M208.33 252.94l5.06 3.16-5.06 7.12-2.38 1.09-2.57-1.78v-2.47l4.95-7.12z"/>
  <path d="M215.55 256.6a1 1 0 00-.52.14l-2.35-1.68-.59.94 2.34 1.66v.07a1.14 1.14 0 101.14-1.13z" fill="#263238"/>
  <path d="M206.7 252.94l2.17-3.37s6.68 4.2 6.68 4.35-3.86 5.74-3.86 5.74l-2-1.68z" fill="#34a37e"/>
  <path d="M205.86 264.16a1.83 1.83 0 11-1.83-1.83 1.83 1.83 0 011.83 1.83zm-41.94 43.38l21.55-2.69 40.17 4.16-3.56 8.01-27.79 3.36-24.92-4.74-5.45-8.1z" fill="#263238"/>
  <path style="isolation:isolate" fill="#fff" opacity=".1" d="M163.92 307.54l21.55-2.69 40.17 4.16-3.56 8.01-27.79 3.36-24.92-4.74-5.45-8.1z"/>
  <path d="M193.43 317.7a.44.44 0 01-.25-.08c-.8-.32-10.45-3.55-16.86-5.69a.5.5 0 01-.34-.47.5.5 0 01.35-.48l28.06-8.84a3 3 0 012 .07l12.78 5a.83.83 0 01.53.8.82.82 0 01-.56.77c-15 5.18-24.68 8.55-25.41 8.85a.59.59 0 01-.3.07zm0-1c1-.46 3.63-1.38 10.86-3.89l14-4.86-12.29-4.81a1.91 1.91 0 00-1.29 0l-26.59 8.37 7 2.35c5.36 1.8 7.49 2.52 8.31 2.9z" fill="#34a37e"/>
  <path d="M205.29 305.47a.5.5 0 01-.48-.34.49.49 0 01.31-.63l3.21-1.09a.5.5 0 11.32.95l-3.2 1.08zm-5.63.65a.41.41 0 01-.16 0l-2.25-.76a.49.49 0 01-.32-.63.5.5 0 01.63-.32l2.26.76a.5.5 0 01-.16 1zm7.23 6.88a.71.71 0 01-.2 0l-14.4-6.06a.5.5 0 01.38-.92l14.41 5.98a.49.49 0 01.27.65.51.51 0 01-.46.35zm6.22-2.18a.68.68 0 01-.23-.05L210 309.3a.5.5 0 01.46-.89l2.84 1.47a.5.5 0 01.22.67.51.51 0 01-.41.27z" fill="#34a37e"/>
  <path d="M198.22 306.6l3.39-2 3.39-.71a18.1 18.1 0 012.57 1c-.13.09-1.25 1.55-1.25 1.55l-6.07 1.31zm-9.51 3.22l3.5-1.43 3.89 1.93 3.29 1.57-1.17.59-3.05-1.32-2.69.07-3.77-1.41z" fill="#34a37e"/>
  <path d="M194.05 310.09a.5.5 0 01-.12-1l3.77-.92a.5.5 0 11.24 1l-3.77.92zm8.56 4.37a.54.54 0 01-.21 0l-4.08-1.94a.5.5 0 11.43-.9l4.08 1.94a.5.5 0 01.24.66.52.52 0 01-.46.24z" fill="#34a37e"/>
  <path fill="#263238" d="M201.21 328.3l-37.29-6.53v-14.23l37.29 6.53v14.23zm0-14.23l24.43-5.06v10.98l-24.43 8.31v-14.23z"/>
  <path style="isolation:isolate" fill="#fff" opacity=".5" d="M201.21 328.3l-37.29-6.53v-14.23l37.29 6.53v14.23z"/>
  <path style="isolation:isolate" fill="#fff" opacity=".7" d="M201.21 314.07l24.43-5.06v10.98l-24.43 8.31v-14.23z"/>
  <path fill="#fff" d="M130.18 329.61l18.28 2.25 11.1-10.49 15.39 6.03 15.94-3.06-29.17-7.71-5.43 1.29-14.13-1.29-11.98 12.98z"/>
  <path style="isolation:isolate" opacity=".2" d="M142.16 316.63l17.4 4.74 15.39 6.03-18.66-9.48-14.13-1.29z"/>
  <path fill="#34a37e" d="M258.9 336.58h70.58v15.29H258.9z"/>
  <path style="isolation:isolate" opacity=".2" d="M258.9 336.58h17.93v15.29H258.9z"/>
  <rect x="279.87" y="339.37" width="8.82" height="8.82" rx="1.09" style="isolation:isolate" fill="#fff" opacity=".2"/>
  <rect x="290.65" y="339.37" width="8.82" height="8.82" rx="1.09" style="isolation:isolate" fill="#fff" opacity=".2"/>
  <path fill="#fff" d="M306.66 343.29h19.61v1h-19.61zm-3.06 3.2h22.67v1H303.6zm-39.56-4.16h6.23v1h-6.23zm1.69 2.58h2.57v1h-2.57z"/>
  <path fill="#263238" d="M371.16 397.44l3.5 21.43h-7.5l-6.89-20.44 10.89-.99zm-102.39 0l-3.5 21.43h7.5l6.89-20.44-10.89-.99z"/>
  <path style="isolation:isolate" fill="#fff" opacity=".1" d="M371.16 397.44l3.5 21.43h-7.5l-6.89-20.44 10.89-.99zm-102.39 0l-3.5 21.43h7.5l6.89-20.44-10.89-.99z"/>
  <path fill="#263238" d="M190.16 397.44l3.5 21.43h-7.5l-6.89-20.44 10.89-.99zm-102.39 0l-3.5 21.43h7.5l6.89-20.44-10.89-.99z"/>
  <rect x="73.16" y="351.87" width="313" height="51" rx="8.64" fill="#263238"/>
  <rect x="73.16" y="351.87" width="313" height="51" rx="8.64" style="isolation:isolate" fill="#fff" opacity=".1"/>
  <rect x="257.16" y="351.87" width="129" height="51" rx="8.64" style="isolation:isolate" fill="#fff" opacity=".2"/>
  <rect x="52.92" y="329.61" width="83.49" height="70.61" rx="11.63" transform="rotate(180 94.66 364.915)" fill="#263238"/>
  <rect x="52.92" y="329.61" width="83.49" height="70.61" rx="11.63" transform="rotate(180 94.66 364.915)" style="isolation:isolate" fill="#fff" opacity=".1"/>
  <path d="M124.78 400.22a11.62 11.62 0 0011.62-11.62v-47.36a11.63 11.63 0 00-11.62-11.63 11.63 11.63 0 00-11.63 11.63v47.36a11.63 11.63 0 0011.63 11.62z" style="isolation:isolate" fill="#fff" opacity=".2"/>
</svg>
