<svg xmlns="http://www.w3.org/2000/svg" viewBox="0 0 750 500">
  <path d="M633.23 364.26a38.76 38.76 0 00-16.6-5.71c-2.71-.28-5.68-.2-7.85 1.44-.46.35-.92.86-.81 1.43a1.69 1.69 0 00.77 1c6.75 5.16 17 5.81 24.49 1.86m-.43-.49a82.23 82.23 0 01-10.72-9.43 27.13 27.13 0 01-6.72-12.44c-.29-1.41-.38-3 .53-4.16 8.55 6.68 15.26 15.31 16.91 26" fill="#e0e0e0"/>
  <path d="M633.14 364.2a39 39 0 01.2-14.08 19 19 0 017.5-11.62c1.48 3.45.84 7.43-.2 11a53.86 53.86 0 01-7.43 15.65m8.31 14.06c-5.09.62-9.51 3.3-13.31 6.74a25.19 25.19 0 00-7.62 13.05c5-.31 9.22-3.83 12.29-7.77s5.2-8.27 8.57-12m1.89 2.38a32.84 32.84 0 013.79-31.06c2.9 10.31 1.84 21.95-3.79 31.06m11.07 13.18a23.73 23.73 0 00-22.7 13.07c-.28.56-.53 1.28-.15 1.78a1.66 1.66 0 001.5.44c4.47-.29 8.44-3 11.71-6s6.13-6.61 9.74-9.26m-.45-.75a42.27 42.27 0 01-.42-23.62c.83-3 2.23-6.24 5-7.66a1 1 0 01.77-.14 1.07 1.07 0 01.49.57 14.13 14.13 0 011.18 6.77 41.82 41.82 0 01-1.06 6.86c-.88 4.2-1.35 8.7-3.65 12.32a25.17 25.17 0 00-1.47 2.7c-.43.92-.43 1.24-.83 2m29.29 4.57c-2.17-8.26.14-18.27 5.34-25 .38-.5.89-1 1.52-1 1 .08 1.2 1.36 1.16 2.32a45.25 45.25 0 01-8 23.69m2.62 1.8c10 2.61 21.55.07 29.89-6.08a24.21 24.21 0 00-16.18-2c-5.4 1.24-10.34 3.66-13.71 8.07m2.23-5.49c5.62-9.16 16.39-15.14 27.13-15.69-1.24 4.37-4.83 7.76-8.87 9.81s-8.57 2.94-13 3.81c-1.74.34-4.11.71-5.24 2.07m-4.33-26.68c1.52-5.22 3.05-10.48 3.47-15.89s-.35-11.07-3.16-15.72c-5.25 10.16-5.78 22-.47 32.15m17.83-9.48c6.14-11.15 18.66-20.06 31.34-21.31-4.93 12.18-18.22 21.57-31.34 21.31m-3.86 2.19c9.16 1.39 16.95 7.24 25.51 10.79a11.48 11.48 0 005.77 1.1 4.51 4.51 0 002.82-8 12.37 12.37 0 00-4.19-2.54c-9.31-3.88-19.31-4-29.12-1.62" fill="#e0e0e0"/>
  <path d="M692.43 367.74c2.08.59 2.78 1.67 4.43 3.06a47.49 47.49 0 0019.34 9.94c.74.19 1.71.26 2.07-.41s-.08-1.29-.5-1.81a26.65 26.65 0 00-11.68-7.93c-4.46-1.66-8.33-3.66-13.66-3.23M686.46 329a36.57 36.57 0 0028.06 9.55 1.91 1.91 0 001.28-.46c.71-.77-.14-1.95-1-2.59-8.26-6.44-18.25-9.11-28.38-6.5" fill="#e0e0e0"/>
  <path d="M693.54 326.37a39.1 39.1 0 0135-5.78c-4.41 4.35-10.52 6.68-16.68 7.33a53 53 0 01-18.34-1.55m-2.79-17.82c-.81-8.24-.29-14.74-.86-23 0-.66-.19-1.45-.81-1.69-.86-.33-1.58.73-1.86 1.61a26.4 26.4 0 003.51 22.92" fill="#e0e0e0"/>
  <path d="M690.13 309.46c5.59-3.45 9.77-8 13.65-13.26 2.69-3.69 5-8.11 4.35-12.63-3.78-.08-7.38 2-9.84 4.88a27.46 27.46 0 00-5 10.1c-1.09 3.62-1.85 7.35-3.14 10.91m13.39-3.73a110.06 110.06 0 0033.57-19.79c-4-1.62-8.6-.65-12.61 1-9.16 3.69-16.64 9.94-21.14 18.73M693.9 314c6.2.68 12.5 1.12 18.65.09s11.75-3.4 17.4-5.78a2 2 0 001.18-.9 1.35 1.35 0 00-.42-1.49 3.6 3.6 0 00-1.48-.69c-6.15-1.72-12.77-.92-18.81 1.12A87.49 87.49 0 00693.9 314m-35.39 15.24c-4.23-8.53-4-18.49-.3-27.29 2.57 3.92 2.89 8.91 2.42 13.57s-1.89 9.46-2 14.15m-17.01-8.95a38.09 38.09 0 00-28.29 12c5.27.83 10.7-.53 15.49-2.87s9-5.62 13.27-8.88m-11.83-4.05c-5.16-.41-10.13-1.05-15.1.47s-9.49 5-11.51 9.76a27.32 27.32 0 0014.16-2.68 80.82 80.82 0 0012.45-7.55m16.82.18c-4.65-3.05-9.42-6.15-14.83-7.41s-11.68-.33-15.45 3.75c4.38 2.57 9.69 2.87 14.77 2.87s11.3-.06 16.09 1.63" fill="#e0e0e0"/>
  <path d="M647.1 317.34c-7.94-7.8-11-21.81-7.75-32.47a49.43 49.43 0 017.75 32.47m21.9-22.1c1.49-3.48 2.55-7.14 3.89-10.68a30.83 30.83 0 015.56-9.85 14.66 14.66 0 019.84-5.1 39.67 39.67 0 01-19.1 25.69m-4.19 4.55c-2.47-3.41-5.34-8.05-8.7-10.59s-7.74-4.09-11.84-3.11a27.58 27.58 0 0020.54 13.7m.78-4.32a58.93 58.93 0 01-3.91-12.69c-.66-4.39-.26-9.08 2-12.91 4.36 8.24 5.77 17.09 2.16 25.69m2.97-25.69c2.47-8.17 10-14.19 18-17a6.85 6.85 0 013.16-.47 2.75 2.75 0 012.33 1.94c.29 1.39-.86 2.64-1.94 3.56A61.38 61.38 0 01669 269.93m.08-6.68c.31-5.27.64-10.61 2.35-15.61s5-9.67 9.82-11.85c.82 5.32-1.53 10.61-4.36 15.19s-6.24 8.9-7.94 14m.05 1.9c-2-6-2.26-13.52-5.82-18.71-2.49-3.63-6.49-6.1-8.63-9.94a15.11 15.11 0 00.5 11.28 32.66 32.66 0 006.6 9.45c2.63 2.81 4.89 4.93 7.35 7.92" fill="#e0e0e0"/>
  <path d="M669 442.24c-.16 0-.3-39.72-.31-88.71s.11-88.73.27-88.73.29 39.72.3 88.73-.11 88.71-.26 88.71z" fill="#e0e0e0"/>
  <path d="M703.7 323.25a8.88 8.88 0 01-1.49.56l-4.11 1.39c-3.47 1.18-8.23 2.89-13.4 5s-9.94 4-12.69 6.36a9.4 9.4 0 00-2.55 3.38c-.39.93-.46 1.5-.51 1.49s0-.15 0-.42a6.62 6.62 0 01.3-1.16 8.89 8.89 0 012.48-3.59 22.54 22.54 0 015.51-3.42c2.2-1 4.64-2.1 7.24-3.17 5.18-2.12 10-3.78 13.48-4.86 1.75-.55 3.18-.95 4.17-1.21a8.61 8.61 0 011.57-.35z" fill="#e0e0e0"/>
  <path d="M715.08 295.3a2.75 2.75 0 01-.42.45l-1.27 1.19-4.76 4.33-15.84 14.1c-6.18 5.5-11.53 10.76-15.23 14.72-1.85 2-3.31 3.62-4.31 4.76l-1.15 1.31a3.12 3.12 0 01-.43.44 2.15 2.15 0 01.34-.51c.24-.32.59-.79 1.07-1.38.94-1.19 2.36-2.88 4.18-4.9a200 200 0 0115.15-14.87c6.2-5.49 11.85-10.42 16-14 2-1.73 3.67-3.14 4.88-4.19l1.35-1.11a2.34 2.34 0 01.44-.34z" fill="#e0e0e0"/>
  <path d="M686.12 321c-.17-.07 1.12-3 2.41-6.82s1.91-7 2.08-6.93a23.41 23.41 0 01-1.53 7.11 47.13 47.13 0 01-1.93 4.78 7.13 7.13 0 01-1.03 1.86zM669 345a7.2 7.2 0 01-.95-1.11l-2.44-3.13c-2-2.65-4.89-6.31-8.06-10.31s-6.1-7.59-8.22-10.19l-2.49-3.09A6.84 6.84 0 01646 316a8.34 8.34 0 011 1c.64.69 1.54 1.7 2.63 3 2.2 2.53 5.17 6.09 8.36 10.09s6 7.71 7.93 10.43c1 1.36 1.77 2.46 2.3 3.24A7.3 7.3 0 01669 345z" fill="#e0e0e0"/>
  <path d="M661.41 335.24a14.12 14.12 0 01-3.19-6 17.07 17.07 0 01-.72-6h.25c-.11.46-.19.7-.24.69s0-.26 0-.73h.25a28.06 28.06 0 001 5.85c1.04 3.6 2.81 6.09 2.65 6.19zm-9.83-12.36a9.85 9.85 0 00-2.22-1.3 15 15 0 00-6.18-.49 37.65 37.65 0 00-6.23 1 20.2 20.2 0 01-2.56.61 8.89 8.89 0 012.45-1 28.36 28.36 0 016.29-1.18 13.31 13.31 0 016.38.69 3.83 3.83 0 012.07 1.67zm-2.32-3c0 .09-1.3-.52-3.42-1.24a34.35 34.35 0 00-17.18-1.31c-2.2.39-3.53.8-3.56.71s.3-.17.9-.39a21.15 21.15 0 012.58-.72 30.18 30.18 0 0117.4 1.33 19.78 19.78 0 012.44 1.1 3.23 3.23 0 01.84.52zM669 307.21a69 69 0 01-2.49-8.64 69.07 69.07 0 01-1.93-8.78 71 71 0 012.49 8.64 71.23 71.23 0 011.93 8.78z" fill="#e0e0e0"/>
  <path d="M669.11 307.21c-.18.06-.89-2.53-2.76-5.17a22.44 22.44 0 00-4.06-4.19 3.88 3.88 0 011.57.81 12.71 12.71 0 013 3 11.6 11.6 0 012.25 5.55zM669 421.07c-.06 0-.18-1-.63-2.64a38 38 0 00-2.65-6.88c-2.75-5.61-7.74-12.72-14.09-19.85-3.14-3.59-6.19-7-8.78-10.22a71.73 71.73 0 01-6.29-9.06 43.94 43.94 0 01-3.17-6.73c-.29-.82-.5-1.47-.62-1.92a3.47 3.47 0 01-.16-.68s.34.9 1 2.52a49.17 49.17 0 003.32 6.6 74 74 0 006.34 8.94c2.6 3.21 5.65 6.58 8.8 10.18 6.37 7.14 11.35 14.34 14 20a34.09 34.09 0 012.51 7 19.37 19.37 0 01.35 2 3.13 3.13 0 01.07.74z" fill="#e0e0e0"/>
  <path d="M700.36 385.64a16.9 16.9 0 01-1.65.92 35 35 0 00-4.26 2.82 48.43 48.43 0 00-5.6 5.1c-2 2.08-4 4.49-6.06 7.08-4.13 5.18-8 9.77-10.31 13.43-1.17 1.82-2 3.35-2.59 4.42a14.7 14.7 0 01-.9 1.66 1.39 1.39 0 01.15-.47c.12-.29.29-.74.55-1.29a42 42 0 012.45-4.54c2.24-3.75 6.08-8.4 10.2-13.57 2.07-2.59 4.12-5 6.13-7.08a45.77 45.77 0 015.73-5.07 30 30 0 014.41-2.69c.54-.27 1-.44 1.28-.57a1.39 1.39 0 01.47-.15z" fill="#e0e0e0"/>
  <path d="M701 397.13a25.16 25.16 0 01-3.47.5 46.35 46.35 0 00-8.25 1.63 24.71 24.71 0 00-7.38 3.87c-1.7 1.31-2.5 2.4-2.58 2.34a2.8 2.8 0 01.52-.8 12.55 12.55 0 011.81-1.85 22.37 22.37 0 017.46-4.11 37.64 37.64 0 018.38-1.48 19.25 19.25 0 013.51-.1z" fill="#e0e0e0"/>
  <path d="M680.31 404.21c-.18-.11 1.38-2.5 2.6-5.72s1.4-6.09 1.61-6.06a5.68 5.68 0 01-.06 1.87 20.38 20.38 0 01-1 4.39 21.42 21.42 0 01-2 4 5.78 5.78 0 01-1.15 1.52zm30.21-49.43a3.65 3.65 0 01-.56.29l-1.63.74c-.72.31-1.59.7-2.56 1.22s-2.13 1-3.33 1.74l-1.89 1.08c-.66.38-1.31.82-2 1.26-1.4.85-2.8 1.89-4.29 3a79.51 79.51 0 00-9 7.87 81.63 81.63 0 00-7.57 9.23c-1 1.53-2 3-2.81 4.39-.41.71-.84 1.37-1.19 2l-1 1.93c-.68 1.22-1.16 2.38-1.63 3.38s-.85 1.88-1.13 2.6-.5 1.22-.68 1.66a3.15 3.15 0 01-.28.57 2.43 2.43 0 01.17-.61c.15-.45.35-1 .58-1.7s.58-1.63 1-2.65.91-2.19 1.56-3.43c.32-.62.65-1.28 1-2s.76-1.35 1.17-2.07c.79-1.45 1.77-2.9 2.78-4.45a71.47 71.47 0 0116.65-17.23c1.52-1.06 2.94-2.1 4.35-2.93.71-.43 1.37-.87 2-1.24l1.93-1.06c1.21-.69 2.38-1.19 3.38-1.67a27.17 27.17 0 012.61-1.13l1.68-.65a2.16 2.16 0 01.69-.14z" fill="#e0e0e0"/>
  <path d="M685.69 371.41a4 4 0 011.36-2 8.63 8.63 0 015.5-2.11 14.77 14.77 0 015.79 1.13 8.19 8.19 0 012.19 1.06 13.09 13.09 0 01-2.32-.68 17.59 17.59 0 00-5.64-.94 9 9 0 00-5.25 1.84 16.28 16.28 0 00-1.63 1.7zm-3.69 3.83c-.16-.09 1.24-2.14 1.56-5.08a20.36 20.36 0 00-.35-5.31 3.48 3.48 0 01.65 1.48 10.36 10.36 0 01.27 3.89A10.59 10.59 0 01683 374c-.54.82-1 1.28-1 1.24zm-40.45 51.52c.86 15.18 5.45 30.62 12.45 46.24h30.6c6.71-15.46 11-30.87 11.72-46.23z" fill="#e0e0e0"/>
  <path d="M691.38 451.33c0 .15-10.07.28-22.5.28s-22.5-.13-22.5-.28 10.07-.29 22.5-.29 22.5.13 22.5.29zm-.68 5.49c0 .16-9.44.29-21.09.29s-21.1-.13-21.1-.29 9.44-.28 21.1-.28 21.09.13 21.09.28zm-36.19-20.09a85.72 85.72 0 010 14.09 85.72 85.72 0 010-14.09z" fill="#fafafa"/>
  <path d="M670.91 436.73a95.3 95.3 0 010 14.6 92 92 0 010-14.6zm15.39-.13a99.12 99.12 0 010 14.89 95.71 95.71 0 010-14.89z" fill="#fafafa"/>
  <path d="M695.37 436.73c0 .16-11.81.28-26.39.28s-26.39-.12-26.39-.28 11.81-.29 26.39-.29 26.39.13 26.39.29z" fill="#fafafa"/>
  <path fill="#ebebeb" d="M179.33 466.39V71.96h-4.88v394.51l-40.36 3.04h85.61l-40.37-3.12z"/>
  <path fill="#ebebeb" d="M149.02 37.59l-18.13 81.03h92.01l-20.69-80.78-53.19-.25z"/>
  <path d="M165.88 151.45c-.21 0-.36-9.94-.33-22.21s.22-22.24.45-22.24.36 9.94.33 22.21-.24 22.24-.45 22.24z" fill="#ebebeb"/>
  <path d="M165.84 151.3c0-.1.66 0 .95.83a1.53 1.53 0 01-2 1.92 1.58 1.58 0 01-1.09-1.52 1.6 1.6 0 01.78-1.28c.77-.45 1.33-.08 1.25 0s-.48 0-.94.45a1.16 1.16 0 00-.39.85.92.92 0 00.65.79.91.91 0 001-.17 1.18 1.18 0 00.26-.91c-.12-.63-.52-.86-.47-.96z" fill="#ebebeb"/>
  <path fill="#e0e0e0" d="M452.78 62.18v113.76h-163.4L283.5 62.97l169.28-.79z"/>
  <path fill="#fff" d="M283.5 175.7V62.97h163.4V175.7z"/>
  <path d="M447.67 176.48H282.72V62.2h165zm-163.4-1.55h161.85V63.75H284.27z" fill="#e0e0e0"/>
  <path fill="#fff" d="M301.19 76.98h128v84.72h-128z"/>
  <path d="M429.2 77h-9.45l-26.38.1-92.15.18.37-.37v84.71l-.41-.41 128 .09-.33.32c.08-25.78.13-46.92.17-61.64 0-7.36.07-13.11.09-17v-6.03 5.91c0 3.92 0 9.64.08 17 0 14.77.1 36 .17 61.84v.3h-.32l-128 .08h-.4V76.6h.37l92.39.18 26.29.1h8.78z" fill="#e0e0e0"/>
  <path d="M283.5 62.66a13.69 13.69 0 012.81 1.82c1.67 1.2 3.94 2.92 6.4 4.88s4.62 3.83 6.14 5.22a12.79 12.79 0 012.34 2.4c-.15.17-4.08-3.07-9-7s-8.84-7.14-8.69-7.32zm163.39.34c.14.18-3.71 3.46-8.59 7.32s-9 6.86-9.1 6.69 3.71-3.45 8.59-7.32 8.97-6.89 9.1-6.69z" fill="#e0e0e0"/>
  <path d="M446.76 175.72L428.55 161" fill="#fff"/>
  <path d="M428.55 161c.14-.17 4.33 3 9.36 7.07s9 7.53 8.85 7.7-4.33-3-9.36-7.07-8.99-7.57-8.85-7.7zM283.5 175.7c-.14-.17 3.67-3.42 8.5-7.24s8.87-6.79 9-6.61-3.67 3.42-8.5 7.24-8.86 6.79-9 6.61zm43.69-43.96v-28.37h80.54v28.37zM74.56 163.23h66.03v68.83H74.56z" fill="#e0e0e0"/>
  <path fill="#ebebeb" d="M70.09 163.23h66.03v68.83H70.09z"/>
  <path fill="#fff" d="M78.97 172.48h48.28v50.32H78.97z"/>
  <path d="M79 223.14a9.08 9.08 0 01-1.21 1.37c-.77.81-1.86 1.9-3.07 3.1s-2.33 2.27-3.15 3a9.32 9.32 0 01-1.38 1.18 8.6 8.6 0 011.2-1.37c.78-.81 1.86-1.91 3.08-3.11s2.34-2.27 3.16-3a8.38 8.38 0 011.37-1.17zm48.25-.14a9.46 9.46 0 011.36 1.2c.81.78 1.91 1.86 3.11 3.08s2.26 2.33 3 3.15a8.19 8.19 0 011.18 1.37 8.71 8.71 0 01-1.36-1.2c-.81-.77-1.91-1.86-3.11-3.08s-2.27-2.33-3-3.15a8.91 8.91 0 01-1.18-1.37zm-.14-50.39a11 11 0 011.21-1.36c.77-.81 1.86-1.91 3.08-3.11s2.32-2.26 3.14-3a8.45 8.45 0 011.38-1.18 8.71 8.71 0 01-1.2 1.36c-.77.81-1.86 1.91-3.08 3.11s-2.33 2.27-3.15 3a8.15 8.15 0 01-1.38 1.18zm-48.27.13a9.08 9.08 0 01-1.37-1.21c-.81-.77-1.91-1.86-3.11-3.07s-2.26-2.33-3-3.15a9.15 9.15 0 01-1.18-1.38 8.2 8.2 0 011.36 1.2c.81.77 1.91 1.86 3.11 3.08s2.27 2.33 3 3.15a9.15 9.15 0 011.19 1.38z" fill="#e0e0e0"/>
  <path d="M127.11 222.8v-13.91c0-8.81-.05-21.37-.08-36.41l.15.16H79.04l.18-.18v50.32l-.15-.15 34.87.08h12.37H114L79 223h-.16v-50.66h48.46v.16c0 15.08-.06 27.68-.08 36.51v13.59a1.76 1.76 0 01-.11.2z" fill="#e0e0e0"/>
  <path d="M91.71 193.5S90.68 206 104.17 206c0-6.69-5.49-11.93-12.46-12.5z" fill="#ebebeb"/>
  <path d="M116.4 193.51s-12.46-1-12.46 12.46c6.65.03 11.9-5.48 12.46-12.46z" fill="#ebebeb"/>
  <path d="M103.57 186.69s-10.18 9.14.56 19.27c4.99-5.29 4.57-13.58-.56-19.27zM519.48 127h159.63v5.05H519.48z" fill="#e0e0e0"/>
  <path fill="#e0e0e0" d="M546.44 129.53h8.08v16.01h-8.08zm95.84-2.53h8.08v18.53h-8.08z"/>
  <path fill="#ebebeb" d="M542.78 93.04l5.23 34.35h30.36l7.04-33.85-42.63-.5z"/>
  <path d="M581.17 115.05c0 .1-7.78.18-17.38.18s-17.37-.08-17.37-.18 7.78-.18 17.37-.18 17.38.13 17.38.18zm.12-1.69c0 .1-7.84.18-17.5.18s-17.49-.08-17.49-.18 7.83-.17 17.49-.17 17.5.07 17.5.17zm-.06-1.9c0 .09-7.84.17-17.49.17s-17.5-.08-17.5-.17 7.83-.18 17.5-.18 17.49.08 17.49.18zm-29.74 13.97a29.29 29.29 0 01-.93-4.33 29.7 29.7 0 01-.58-4.38 26.24 26.24 0 01.93 4.32 26.83 26.83 0 01.58 4.39zm2.07-.37a33.35 33.35 0 01-.38-4.22 34.09 34.09 0 01-.19-4.23 21.26 21.26 0 01.55 4.21 20 20 0 01.02 4.24zm3.76 0a21.36 21.36 0 01-.79-4.33 22 22 0 01-.23-4.39 39.8 39.8 0 01.59 4.35 36.85 36.85 0 01.43 4.37zm2.68.18a20.63 20.63 0 01-.42-4.4 21.48 21.48 0 01.13-4.41 38 38 0 01.22 4.4 38.07 38.07 0 01.07 4.41zm4.64-.18a26 26 0 01-.32-4.17 25.17 25.17 0 010-4.18 24.51 24.51 0 01.32 4.17 24 24 0 010 4.18zm3.42.18a26.12 26.12 0 01-.14-4.31 26.44 26.44 0 01.21-4.32 26.29 26.29 0 01.14 4.32 26.37 26.37 0 01-.21 4.31zm3.2-.46a30.19 30.19 0 01.26-4.51 27.73 27.73 0 01.62-4.47 30.19 30.19 0 01-.26 4.51 27.73 27.73 0 01-.62 4.47zm4.14-.45a14.76 14.76 0 01.51-3.83 15.19 15.19 0 011.12-3.7 32.81 32.81 0 01-.78 3.77 33.78 33.78 0 01-.85 3.76z" fill="#fafafa"/>
  <path d="M572.47 25.28v.17l-.14.48-.57 1.86c-.26.8-.57 1.78-.9 2.93s-.73 2.46-1.09 3.92-.8 3-1.18 4.78-.82 3.58-1.21 5.58c-.73 3.92-1.4 8.25-1.86 12.82s-.65 8.95-.71 12.93c0 2 0 3.89.05 5.65s.12 3.42.21 4.93.21 2.86.3 4 .2 2.22.3 3.06.15 1.46.2 1.93v.67a.65.65 0 010-.16c0-.14 0-.3-.07-.5-.07-.47-.16-1.11-.27-1.93s-.25-1.86-.35-3.05-.27-2.55-.36-4.06-.21-3.15-.26-4.93-.07-3.67-.08-5.66c0-4 .23-8.38.68-13s1.15-8.92 1.89-12.84c.41-2 .77-3.81 1.21-5.54s.82-3.32 1.23-4.78.8-2.76 1.14-3.9.67-2.13 1-2.93.49-1.38.64-1.83c.08-.19.13-.35.18-.47a1 1 0 01.02-.13z" fill="#ebebeb"/>
  <path d="M567 46.54a11.29 11.29 0 014.72-6 2.73 2.73 0 012.5-.46c1.06.51 1.14 2 .83 3.14a8.32 8.32 0 01-3.44 4.68 7 7 0 01-5.15 1.3m-1.31 11.7c.78-3 3.15-7.18 5.6-9a3.52 3.52 0 011.28-.68 1.48 1.48 0 011.36.3 2.07 2.07 0 01.3 2 11.94 11.94 0 01-8.85 8.92m-.2 11.1a17.39 17.39 0 015.65-7.11 2.72 2.72 0 012-.7c1.07.19 1.55 1.5 1.46 2.59-.2 2.23-1.9 4-3.67 5.42a22.67 22.67 0 01-5.22 2.68m.06 6.21a16.81 16.81 0 014.81-5.48 3.59 3.59 0 011.45-.65 1.46 1.46 0 011.41.54c.49.71 0 1.67-.49 2.35a13.8 13.8 0 01-6.86 5m-.55-5.45a54.25 54.25 0 00-6.88-7c-.39-.33-.89-.68-1.37-.52a1 1 0 00-.63.93 2.54 2.54 0 00.26 1.14 13.3 13.3 0 008.85 7.45m-.01-13.83q-2.71-3.28-5.41-6.59a6.58 6.58 0 00-1.75-1.66 2.23 2.23 0 00-2.31 0 2.21 2.21 0 00-.74 2.14 5.81 5.81 0 001.06 2.16 16.21 16.21 0 003.94 4.19 6.57 6.57 0 004.93 1.52m1.03-15.07a18.79 18.79 0 00-5.44-8.16 3.07 3.07 0 00-1.42-.83 2.38 2.38 0 00-2.48 1.74 4.48 4.48 0 00.5 3.58 9.39 9.39 0 002.54 2.68 21.73 21.73 0 006 3.25m2.46-14.13c-.53-3.82-2.51-7-4.82-10.09-.48-.65-1.16-1.34-2-1.22a1.56 1.56 0 00-1.13 1 3.61 3.61 0 00-.22 1.53 11.81 11.81 0 007.66 10.54m2.02-7.82a31.56 31.56 0 01-.2-5.91 10.61 10.61 0 012-5.5 4.58 4.58 0 012-1.56 2.5 2.5 0 012.41.32 2.62 2.62 0 01.83 2.12 6.66 6.66 0 01-.61 2.26c-1.44 3.47-3.84 7.3-6.35 8.27" fill="#ebebeb"/>
  <path d="M545.79 40.42a3.14 3.14 0 010 .49v3.57c0 .85 0 1.83.1 2.9.09 2.15.3 4.7.63 7.53s.83 5.91 1.49 9.12 1.49 6.23 2.3 9 1.67 5.14 2.45 7.15c.36 1 .75 1.9 1.07 2.69s.6 1.47.85 2 .4 1 .54 1.28a2.52 2.52 0 01.17.46 4.4 4.4 0 01-.24-.43l-.6-1.25c-.26-.54-.57-1.21-.91-2s-.73-1.67-1.12-2.68c-.81-2-1.67-4.42-2.52-7.14s-1.65-5.76-2.33-9-1.14-6.32-1.48-9.15-.49-5.4-.55-7.56c-.06-1.07 0-2-.05-2.9s0-1.6 0-2.2v-1.39a1.87 1.87 0 01.2-.49z" fill="#e0e0e0"/>
  <path d="M546.63 56.08a8.09 8.09 0 011.93-5.08 1.94 1.94 0 011.6-.85c.84.12 1.22 1.12 1.24 2a5.91 5.91 0 01-1.33 3.85 5 5 0 01-3.23 2m1.63 8.25a13.56 13.56 0 011.87-7.34 2.71 2.71 0 01.73-.74 1.06 1.06 0 011-.09 1.51 1.51 0 01.63 1.27 8.54 8.54 0 01-4.11 8m2.25 7.65a12.43 12.43 0 012.32-6.06 1.89 1.89 0 011.19-.9c.78-.1 1.39.68 1.56 1.44a6 6 0 01-1.33 4.48 16.21 16.21 0 01-3 3m1.42 4.13a12 12 0 012.1-4.76 2.41 2.41 0 01.84-.75 1 1 0 011.08.06c.48.38.38 1.13.17 1.7a9.75 9.75 0 01-3.59 4.91m-1.6-3.62a38.32 38.32 0 00-6.2-3.29 1.1 1.1 0 00-1-.06.73.73 0 00-.23.77 1.87 1.87 0 00.42.72 9.55 9.55 0 007.64 3.17m-2.99-9.41l-5.1-3.32a4.57 4.57 0 00-1.55-.76 1.59 1.59 0 00-1.57.48 1.56 1.56 0 000 1.64 4.14 4.14 0 001.18 1.25 11.44 11.44 0 003.59 2 4.7 4.7 0 003.68 0m-2.58-10.51a13.53 13.53 0 00-5.46-4.39 2.31 2.31 0 00-1.15-.26 1.71 1.71 0 00-1.31 1.72 3.22 3.22 0 001.11 2.33 6.62 6.62 0 002.31 1.29 15.3 15.3 0 004.79.92m-1.38-10.16a15.69 15.69 0 00-5.45-5.83 1.66 1.66 0 00-1.6-.41 1.13 1.13 0 00-.56.9 2.72 2.72 0 00.18 1.09 8.46 8.46 0 007.49 5.49m-.33-5.69a22.7 22.7 0 01-1.41-4 7.57 7.57 0 01.15-4.17 3.28 3.28 0 011-1.48 1.77 1.77 0 011.71-.3 1.86 1.86 0 011 1.26 4.92 4.92 0 01.07 1.67c-.24 2.67-1 5.8-2.54 7" fill="#e0e0e0"/>
  <path d="M584.17 40.09a2.2 2.2 0 010 .48c0 .35 0 .81.06 1.39s0 1.34 0 2.19v2.91c-.06 2.16-.24 4.72-.55 7.55s-.81 5.94-1.48 9.16-1.49 6.25-2.33 9-1.72 5.14-2.52 7.13c-.39 1-.79 1.9-1.13 2.69s-.64 1.46-.9 2l-.61 1.25a2.29 2.29 0 01-.23.42 3.05 3.05 0 01.17-.45l.54-1.28c.24-.55.54-1.22.85-2s.7-1.69 1.07-2.7c.78-2 1.61-4.42 2.45-7.14s1.61-5.75 2.29-9 1.15-6.31 1.5-9.13.53-5.37.63-7.52c.07-1.07.08-2 .1-2.9s0-1.59 0-2.19v-1.39a3.06 3.06 0 01.09-.47z" fill="#ebebeb"/>
  <path d="M583.33 55.75a8.09 8.09 0 00-1.93-5.08 2 2 0 00-1.61-.85c-.83.12-1.21 1.12-1.24 2a6 6 0 001.34 3.93 5 5 0 003.23 2m-1.63 8.17a13.55 13.55 0 00-1.88-7.34 2.54 2.54 0 00-.72-.74 1 1 0 00-1-.09 1.51 1.51 0 00-.63 1.27 8.54 8.54 0 004.11 8m-2.25 7.61a12.43 12.43 0 00-2.32-6 2 2 0 00-1.19-.91c-.78-.1-1.39.69-1.56 1.45-.35 1.57.43 3.15 1.33 4.48a16 16 0 003 3M577 80.76a12 12 0 00-2.1-4.77 2.74 2.74 0 00-.84-.75 1.07 1.07 0 00-1.08.06c-.48.38-.38 1.13-.17 1.71a9.77 9.77 0 003.59 4.91m1.52-3.62a37.86 37.86 0 016.19-3.3 1.13 1.13 0 011-.06.72.72 0 01.23.76 1.81 1.81 0 01-.43.73 9.54 9.54 0 01-7.63 3.17m3.04-9.4l5.1-3.32a4.57 4.57 0 011.55-.76 1.4 1.4 0 011.61 2.12 4.16 4.16 0 01-1.19 1.25 11.48 11.48 0 01-3.58 2 4.7 4.7 0 01-3.68 0M582.67 61a13.42 13.42 0 015.46-4.38 2.2 2.2 0 011.14-.26 1.7 1.7 0 011.32 1.72 3.23 3.23 0 01-1.11 2.33 6.62 6.62 0 01-2.31 1.28 15.64 15.64 0 01-4.79.91m1.38-10.17a15.62 15.62 0 015.45-5.83c.47-.34 1.08-.67 1.6-.41a1.12 1.12 0 01.56.9 2.56 2.56 0 01-.19 1.09 8.41 8.41 0 01-7.48 5.52m.3-5.7a23 23 0 001.41-4 7.57 7.57 0 00-.15-4.17 3.26 3.26 0 00-1-1.49 1.77 1.77 0 00-1.71-.3 1.9 1.9 0 00-1 1.27 4.68 4.68 0 00-.07 1.67c.23 2.67 1 5.8 2.54 7M539.3 86.24v6.43a2.53 2.53 0 002.53 2.53h44a2.53 2.53 0 002.53-2.53v-6.43z" fill="#ebebeb"/>
  <path fill="#e0e0e0" d="M543.11 95.2l.36 2.04 40.57 2.9 1.03-4.94h-41.96z"/>
  <path d="M608.14 81.66s-7.28 5.55-.3 12.89a.62.62 0 00.46.19l63.7-.37s5.44-6.1.93-13.12z" fill="#ebebeb"/>
  <path d="M657.9 87.46c0 .07-7.93.13-17.71.13s-17.71-.06-17.71-.13 7.93-.13 17.71-.13 17.71.06 17.71.13zm-9.9 2.3c0 .07-3.73.13-8.33.13s-8.32-.06-8.32-.13 3.72-.13 8.32-.13 8.33.06 8.33.13zm16.41 4.41s.14-.73.34-1.91a26.68 26.68 0 00.36-4.65 26.31 26.31 0 00-.45-4.63c-.22-1.18-.42-1.9-.37-1.91a2.72 2.72 0 01.18.49c.11.32.23.79.37 1.38a22.56 22.56 0 01.53 4.67 22.8 22.8 0 01-.44 4.68c-.13.59-.24 1.06-.34 1.39a2 2 0 01-.18.49zm4.75-13a1.74 1.74 0 01.29.46c.08.15.18.34.28.57s.22.48.32.78a13.19 13.19 0 01.61 2.11 16.83 16.83 0 01.28 2.68 15 15 0 01-.24 2.69 12.85 12.85 0 01-.57 2.12c-.09.3-.22.55-.31.78a6.42 6.42 0 01-.28.58 2.21 2.21 0 01-.27.46s.31-.7.69-1.88a15.6 15.6 0 00.51-2.11 16.52 16.52 0 00.21-2.64 16.31 16.31 0 00-.25-2.63 15 15 0 00-.55-2.1c-.4-1.17-.76-1.85-.72-1.87zm-50.97 13.08s-.12-.14-.3-.42a4.87 4.87 0 01-.29-.53 6.28 6.28 0 01-.34-.73 11.13 11.13 0 01-.63-2 12.9 12.9 0 01-.24-2.57 13.49 13.49 0 01.31-2.56 11.5 11.5 0 01.68-2 6.88 6.88 0 01.36-.72 4.46 4.46 0 01.31-.52c.18-.28.29-.43.31-.42s-.37.64-.81 1.73a13 13 0 00-.62 2 14.66 14.66 0 00-.29 2.51 14 14 0 00.23 2.51 12.45 12.45 0 00.55 2c.42 1.07.81 1.7.77 1.72zm-6.88 1.56a2.47 2.47 0 01-.32-.49 5.55 5.55 0 01-.34-.59c-.11-.24-.26-.51-.38-.82a14.18 14.18 0 01-.73-2.25 15.73 15.73 0 01-.36-2.87 16.36 16.36 0 01.23-2.89 13.87 13.87 0 01.63-2.28c.11-.32.24-.59.35-.84a4.29 4.29 0 01.31-.61 3.66 3.66 0 01.3-.5s-.36.75-.79 2a14.62 14.62 0 00-.56 2.26 15.93 15.93 0 00-.21 2.84 17.31 17.31 0 00.33 2.83 14.58 14.58 0 00.67 2.23c.48 1.25.92 1.95.87 1.98z" fill="#e0e0e0"/>
  <path d="M669.64 113.76V126h-23.58v-12.24z" fill="#ebebeb"/>
  <path d="M593.49 120v.32a7 7 0 007 6.54h70.22V126h-16.64a6.1 6.1 0 01-6.1-6.09 6.1 6.1 0 016.1-6.1h16.67v-1.29l-70.24.24a7 7 0 00-7.01 7.24z" fill="#e0e0e0"/>
  <path d="M669.64 120c0 .07-4.85.13-10.83.13S648 120.09 648 120s4.85-.13 10.83-.13 10.81.13 10.81.13zm-.35 2.77c0 .07-4.58.12-10.24.12s-10.24 0-10.24-.12 4.58-.13 10.24-.13 10.24.05 10.24.13zm.35 2.51c0 .07-4.13.12-9.21.12s-9.22-.05-9.22-.12 4.13-.13 9.22-.13 9.21.06 9.21.13zm0-7.73c0 .07-4.75.13-10.61.13s-10.6-.06-10.6-.13 4.74-.13 10.6-.13 10.61.06 10.61.13zm-.35-2.46c0 .07-4.22.12-9.43.12s-9.44 0-9.44-.12 4.22-.13 9.44-.13 9.43.04 9.43.13z" fill="#e0e0e0"/>
  <path d="M602 112.91a15.1 15.1 0 00-1.49 1.78 9.26 9.26 0 00-1.61 5.24 9.35 9.35 0 001.73 5.2 17.83 17.83 0 001.53 1.74 3 3 0 01-.5-.38 7.46 7.46 0 01-1.18-1.26 8.9 8.9 0 01-.12-10.65 7.38 7.38 0 011.14-1.28 2.46 2.46 0 01.5-.39z" fill="#f5f5f5"/>
  <path d="M599.62 112.65a16.4 16.4 0 00-1.49 1.78 9 9 0 00.12 10.44 18.6 18.6 0 001.54 1.74 2.82 2.82 0 01-.51-.38 7.91 7.91 0 01-1.17-1.26 9 9 0 01-1.84-5.3 9.12 9.12 0 011.71-5.35 8.31 8.31 0 011.14-1.28 2.84 2.84 0 01.5-.39zm47.71.26a16.4 16.4 0 00-1.49 1.78 9 9 0 00.13 10.44 17.83 17.83 0 001.53 1.74 2.82 2.82 0 01-.51-.38 7.91 7.91 0 01-1.17-1.26 9 9 0 01-1.84-5.3 9.12 9.12 0 011.71-5.35 7.79 7.79 0 011.15-1.28 3.09 3.09 0 01.49-.39z" fill="#f5f5f5"/>
  <path d="M645 112.65a15.1 15.1 0 00-1.49 1.78 9 9 0 00.12 10.44 19.63 19.63 0 001.53 1.74 3.66 3.66 0 01-.5-.38 8.37 8.37 0 01-1.18-1.26 8.9 8.9 0 01-.12-10.65 8.31 8.31 0 011.14-1.28 2.84 2.84 0 01.5-.39zm-35 9.03c0-1.65 0-3.3-.07-5a3.45 3.45 0 00-.17-1.28 1.2 1.2 0 00-.94-.79c-.62-.28-1.59.24-2 1a4.55 4.55 0 00-.49 2.42 34.19 34.19 0 00.19 3.92 4.39 4.39 0 00.46 1.79 1.68 1.68 0 001.51.91 1.71 1.71 0 001.33-1.15 5.11 5.11 0 00.18-1.82zm27.26-1.42c0 .07-5.08.13-11.34.13s-11.34-.06-11.34-.13 5.08-.13 11.34-.13 11.34.06 11.34.13zm-31.98-7.84l-.13-11.54h6.29l.22 11.54h-6.38z" fill="#f5f5f5"/>
  <path d="M611.07 102.93a32.86 32.86 0 01-5.84 0 32.86 32.86 0 015.84 0zm0 1.78a32.86 32.86 0 01-5.84 0 32.86 32.86 0 015.84 0zm0 1.79a35.59 35.59 0 01-5.84 0 32.86 32.86 0 015.84 0zm0 1.78a32.86 32.86 0 01-5.84 0 32.86 32.86 0 015.84 0zm0 1.78a32.86 32.86 0 01-5.84 0 32.86 32.86 0 015.84 0z" fill="#e0e0e0"/>
  <path d="M604.82 100.57h69.68a32.7 32.7 0 010 12.48h-69.38v-.85h4.24a2 2 0 002-2v-6.91a2 2 0 00-2-2h-4.54z" fill="#ebebeb"/>
  <path d="M621.29 106.82h1.29a.25.25 0 01.13.22v.07c0 .02-.05.2-.08.3a3.38 3.38 0 01-.73 1.32 1.38 1.38 0 01-1 .51h-.14a1.14 1.14 0 01-.79-.57 2.64 2.64 0 01-.35-1.4 3.89 3.89 0 01.14-1 3.45 3.45 0 01.69-1.35 1.41 1.41 0 011-.55 1 1 0 01.44.1 1.43 1.43 0 01.68.85.36.36 0 010 .11.31.31 0 010 .13.24.24 0 01-.22.12h-.07a.22.22 0 01-.16-.16 1 1 0 00-.14-.28.65.65 0 00-.55-.33.69.69 0 00-.39.14 2.12 2.12 0 00-.63.92 3.29 3.29 0 00-.28 1.31 2.42 2.42 0 00.2 1 .68.68 0 00.61.45.8.8 0 00.56-.34 2.93 2.93 0 00.6-1.08h-.84a.26.26 0 01-.26-.31.19.19 0 010-.08.27.27 0 01.29-.1zm3.96-2.27v.08c.05.17.32 1.61.82 4.32a.13.13 0 010 .06.28.28 0 010 .13.23.23 0 01-.21.13.23.23 0 01-.19-.18l-.28-1.43h-1.43l-.69 1.44v.05a.29.29 0 01-.22.12.2.2 0 01-.13 0 .22.22 0 01-.1-.29c0-.1.11-.25.21-.47q1.5-3.28 1.8-3.87a.31.31 0 01.24-.18.29.29 0 01.18.09zm-.31 1l-.78 1.63h1.1zm4.2 3.72H627a.23.23 0 01-.14 0 .4.4 0 01-.12-.26c0-.08.2-1.52.58-4.3v-.09a.24.24 0 01.23-.15h.12a.24.24 0 01.13.22c0 .19-.07.58-.14 1.18-.24 1.83-.37 2.8-.38 2.9h1.78a.32.32 0 01.14 0 .23.23 0 01.16.23v.08a.31.31 0 01-.22.19zm2.86-4.72v.08c.05.17.32 1.61.82 4.32a.13.13 0 010 .06.28.28 0 010 .13.23.23 0 01-.21.13.23.23 0 01-.19-.18l-.28-1.43h-1.43l-.71 1.44v.05a.29.29 0 01-.22.12.2.2 0 01-.13 0 .22.22 0 01-.1-.29c0-.1.11-.25.21-.47q1.5-3.28 1.8-3.87a.28.28 0 01.24-.18.29.29 0 01.2.09zm-.31 1l-.78 1.63H632zm3.66 1.45c.17.45.29.8.38 1 .22.6.33.91.33 1a.28.28 0 010 .12.24.24 0 01-.21.12c-.1 0-.16-.06-.21-.17a.76.76 0 010-.11c-.11-.26-.3-.75-.56-1.48l-1.19 1.63a.31.31 0 01-.22.13.2.2 0 01-.13 0 .21.21 0 01-.12-.2V109a.68.68 0 01.13-.2c.4-.52.84-1.13 1.32-1.84l-.15-.4c-.44-1.19-.67-1.81-.67-1.85a.2.2 0 010-.13.22.22 0 01.2-.13.26.26 0 01.23.14l.7 1.89 1.4-1.9a.28.28 0 01.23-.12.2.2 0 01.11 0 .23.23 0 01.12.22.52.52 0 010 .11zm5.2-2.56a.27.27 0 01.12 0 .25.25 0 01.13.21q-.51 4.08-.57 4.41a2.68 2.68 0 01-.45 1.14 1.62 1.62 0 01-1.39.69 1.6 1.6 0 01-.67-.18 1.5 1.5 0 01-.74-.65.27.27 0 010-.12.28.28 0 010-.13.24.24 0 01.22-.12.23.23 0 01.19.1 1.33 1.33 0 001.07.61 1.06 1.06 0 00.84-.42 2.31 2.31 0 00.46-1.32 1.37 1.37 0 01-.31.33 1.29 1.29 0 01-.75.24h-.14a1.1 1.1 0 01-.8-.57 2.62 2.62 0 01-.35-1.4v-.79c0-.27.14-1 .29-1.81a.25.25 0 010-.07.23.23 0 01.23-.17h.12a.23.23 0 01.12.2c0 .13 0 .45-.11 1a13.69 13.69 0 00-.17 1.47 2.89 2.89 0 00.19 1.14c.14.34.35.51.62.51h.09a1.13 1.13 0 00.62-.5 3.13 3.13 0 00.52-1.16l.32-2.4v-.1a.24.24 0 01.3-.14z" fill="#fafafa"/>
  <path d="M671.88 113.22c-.07 0-.13-2.87-.13-6.41s.06-6.4.13-6.4.13 2.86.13 6.4-.01 6.41-.13 6.41z" fill="#f5f5f5"/>
  <path d="M614.86 113.22c-.07 0-.12-2.87-.12-6.41s0-6.4.12-6.4.13 2.86.13 6.4-.05 6.41-.13 6.41z" fill="#e0e0e0"/>
  <path d="M673.11 113.22c-.08 0-.13-2.87-.13-6.41s0-6.4.13-6.4.12 2.86.12 6.4-.05 6.41-.12 6.41z" fill="#f5f5f5"/>
  <path d="M613.72 113.22c-.07 0-.13-2.87-.13-6.41s.06-6.4.13-6.4.13 2.86.13 6.4-.06 6.41-.13 6.41zm41.28-10.7l7.36 6h.07-.08l-1 .26-6.22 1.63-5.66-2.41-1.6-.69-.42-.18h-.11.11l.42.17 1.61.67 5.64 2.36 6.21-1.64 1-.26v.07l-7.35-6" fill="#e0e0e0"/>
  <path fill="#e0e0e0" d="M661.67 107.51l.41.38.54-.12-.24.5.28.48-.55-.07-.37.41-.1-.54-.5-.22.48-.27.05-.55zm-7.06 2.34l.27.23.35-.1-.13.34.19.29-.35-.02-.22.28-.09-.35-.34-.12.31-.19.01-.36zm-7.8-3.2l.44.03.27-.35.11.43.41.15-.37.23-.02.44-.34-.28-.42.12.16-.4-.24-.37zm18.17-4.04l.43.03.27-.35.11.43.42.15-.37.23-.02.44-.34-.28-.42.12.16-.41-.24-.36zm-10.35-.29l.28.02.17-.22.07.27.26.1-.23.15-.01.28-.22-.18-.27.07.11-.25-.16-.24z"/>
  <path d="M665.59 102.92s-2.38 0-5.32-.18-5.32-.25-5.32-.28 2.39.05 5.33.18 5.31.25 5.31.28zm2.68-2.46H597.6c-.93-2.1-1.15-4.09 0-5.88h70.67a6.83 6.83 0 010 5.88z" fill="#e0e0e0"/>
  <path fill="#ebebeb" d="M612.23 96.26h38.29v2.14h-38.29z"/>
  <path d="M600.31 100.49a2.07 2.07 0 01-.56-.71 5.11 5.11 0 01-.64-2.09 4.94 4.94 0 01.27-2.16 2 2 0 01.42-.8 6.62 6.62 0 01-.25.85 6.2 6.2 0 00-.19 2.09 6.36 6.36 0 00.55 2 7.23 7.23 0 01.4.82zm1.53 0a2.07 2.07 0 01-.56-.71 5.11 5.11 0 01-.64-2.09 4.94 4.94 0 01.27-2.16 2 2 0 01.42-.8 6.62 6.62 0 01-.25.85 6.2 6.2 0 00-.19 2.09 6.36 6.36 0 00.55 2 7.23 7.23 0 01.4.82z" fill="#e0e0e0"/>
  <path d="M665.41 100.36a12.08 12.08 0 00.49-2.88 11.69 11.69 0 00-.46-2.88 5.09 5.09 0 01.72 2.88 5.25 5.25 0 01-.75 2.88zm-1.32-.02c-.07 0 .22-1.26.21-2.82s-.29-2.79-.21-2.81a7.19 7.19 0 01.47 2.81 6.81 6.81 0 01-.47 2.82z" fill="#f5f5f5"/>
  <path d="M706.74 473.61c0 .15-152.59.26-340.77.26s-340.8-.11-340.8-.26 152.56-.26 340.8-.26 340.77.12 340.77.26z" fill="#263238"/>
  <path fill="#455a64" d="M55.54 346.2H164.2v11.22H55.54z"/>
  <path fill="#455a64" d="M109.87 356.01v117.63h8.36l1.93-117.63h-10.29zm-27 0L53.93 473.64h8.04l32.47-117.63H82.87zm58.44-.47l29.98 118.07h-8.03l-33.52-118.07h11.57z"/>
  <path d="M164.2 357.55c0 .15-24.09.26-53.8.26s-53.82-.11-53.82-.26 24.09-.26 53.82-.26 53.8.12 53.8.26z" fill="#263238"/>
  <path d="M83.36 346.2l11.08-24.38 31.68 21.95 2 1.6v.83z" fill="#34a37e"/>
  <path d="M91 310.64l-.34.74a1.79 1.79 0 000 1.45l13.08 30.68a1.76 1.76 0 001 1l.86.31a2 2 0 00.6.1h18.09a1.79 1.79 0 001.77-1.55 1.73 1.73 0 00-.14-1L112 310.68a1.78 1.78 0 00-1.63-1.07H92.59a1.79 1.79 0 00-1.59 1.03z" fill="#263238"/>
  <path fill="#455a64" d="M92.13 310.31l13.94 31.82h18.62l-13.81-31.82H92.13z"/>
  <path d="M108.53 334.91a2.75 2.75 0 11-1.73 3.49 2.76 2.76 0 011.73-3.49z" fill="#34a37e"/>
  <path d="M109.54 336.24l-.11.49a.12.12 0 00.07.15l.09.05a.16.16 0 01.1.21c0 .1-.38.76-.38.76s-.08.18-.22.11l-.13-.07a.12.12 0 00-.14 0l-.38.4a.12.12 0 000 .16l.12.13a.16.16 0 00.08.06.5.5 0 00.26 0 2 2 0 001-1.21c.37-.83.11-1.18 0-1.27a.34.34 0 00-.22-.12h-.1a.14.14 0 00-.04.15z" fill="#fff"/>
  <path d="M115.44 339a2.76 2.76 0 113.9 0 2.77 2.77 0 01-3.9 0z" fill="#34a37e"/>
  <path d="M116.18 337.48l.5-.11a.14.14 0 00.1-.13v-.11s0-.17.14-.18h.86s.19 0 .19.15v.15a.12.12 0 00.08.11l.53.16a.11.11 0 00.14-.07l.07-.16a.3.3 0 000-.1.47.47 0 00-.1-.24 2 2 0 00-1.55-.41c-.9 0-1.1.42-1.15.51a.46.46 0 000 .26v.09a.13.13 0 00.19.08z" fill="#fff"/>
  <path d="M108.74 323.09a2 2 0 00.62-2.47 3.62 3.62 0 00-3.28-2.41c-1.3.08-1.94 1.29-1.43 2.71a3.88 3.88 0 002.38 2.29c-3.41.8-1.76 4.8-1.76 4.8h9.16s-1.91-4.61-5.69-4.92zm10.15 8.39a53.21 53.21 0 01-7.38.26 53.3 53.3 0 01-7.39-.26 51.49 51.49 0 017.39-.26 51.41 51.41 0 017.38.26z" fill="#ebebeb"/>
  <path d="M90.4 321.5a1.22 1.22 0 00.18-.74 1.38 1.38 0 00-.39-.77 2.66 2.66 0 00-1-.59 4.92 4.92 0 01-1.44-.71 1.79 1.79 0 01-.59-.77 1.41 1.41 0 010-1.05c.25-.63.7-1.16.49-1.66s-.83-.91-1.33-1.51a1.34 1.34 0 01-.32-1.21 1.9 1.9 0 01.7-.95c.56-.42 1-.81.89-1.31s-.63-1-.67-1.67a1.86 1.86 0 01.76-1.49 3.12 3.12 0 012.25-.48 2.25 2.25 0 01.81.17 3 3 0 01-.82 0 3 3 0 00-2 .57 1.44 1.44 0 00-.57 1.18c0 .47.49.87.71 1.57a1.24 1.24 0 01-.26 1.11 5.15 5.15 0 01-.77.72c-.54.4-.76.93-.3 1.44s1.09.87 1.4 1.66a1.51 1.51 0 01-.09 1.15c-.15.33-.32.59-.43.85a1.1 1.1 0 00.39 1.32 5 5 0 001.31.69 3.09 3.09 0 011.11.74 1.58 1.58 0 01.37 1c-.01.6-.4.77-.39.74z" fill="#263238"/>
  <path d="M88.28 322.75c-.06 0 .1-.32-.15-.79a3.21 3.21 0 00-1.78-1.28 3.4 3.4 0 01-1.38-1 2.13 2.13 0 01-.13-2 4.48 4.48 0 00.45-1.85c-.06-.6-.66-1-1.24-1.52a2.33 2.33 0 01-.72-1 1.55 1.55 0 01.16-1.24c.41-.68 1-1.09 1.27-1.61a2 2 0 00.08-1.62 3.12 3.12 0 01-.07-1.68 2.74 2.74 0 011.58-1.79 1.29 1.29 0 01.86-.12s-.31 0-.78.31a2.6 2.6 0 00-1.3 1.69 2.91 2.91 0 00.13 1.49 4.17 4.17 0 01.17.93 1.82 1.82 0 01-.26 1c-.35.62-.92 1.07-1.23 1.61a1 1 0 00-.12.84 1.87 1.87 0 00.58.77c.27.24.57.47.85.76a1.87 1.87 0 01.55 1.08 4.79 4.79 0 01-.5 2.08 1.69 1.69 0 000 1.57 3.14 3.14 0 001.19.89 3.28 3.28 0 011.81 1.54c.23.65-.02.97-.02.94zm28.83-3.46c0-.05.23-.11.5-.43a1.75 1.75 0 00.38-1.59 1.44 1.44 0 00-.69-.87 3.39 3.39 0 01-1.2-1 2.45 2.45 0 01-.12-1.76 4.23 4.23 0 00.19-1.63c-.07-.54-.43-.79-1-.92a2.7 2.7 0 01-.84-.34 1.25 1.25 0 01-.52-.81 9.51 9.51 0 00-.16-1.43 2 2 0 00-.67-.94 2.4 2.4 0 00-1.61-.56c-.42 0-.64.12-.66.07s.19-.19.64-.28a2.54 2.54 0 011.86.48 2.37 2.37 0 01.85 1.09 7.38 7.38 0 01.22 1.47c.08.45.45.62 1 .76a2.05 2.05 0 01.87.4 1.57 1.57 0 01.49.93 4.73 4.73 0 01-.21 1.81 2 2 0 000 1.42 3.45 3.45 0 001 .89 1.82 1.82 0 01.81 1.13 2 2 0 01-.6 1.83c-.25.3-.53.3-.53.28z" fill="#263238"/>
  <path d="M119.48 319.15s.21-.19.49-.58a2.71 2.71 0 00.44-1.91 2.22 2.22 0 00-.53-1.21c-.31-.36-.84-.62-1.21-1.21a2.46 2.46 0 010-2c.18-.61.3-1.24-.12-1.61a4 4 0 00-1.74-.58 2.57 2.57 0 01-1-.41 1.47 1.47 0 01-.57-.89c-.14-.65 0-1.21-.11-1.68a1.5 1.5 0 00-.72-1 3.4 3.4 0 00-2-.37 2.47 2.47 0 01-.78 0 2.06 2.06 0 01.76-.21 3.25 3.25 0 012.16.26 1.85 1.85 0 011 1.26c.12.56 0 1.15.15 1.65s.57.79 1.18.91a4.28 4.28 0 012 .7 1.47 1.47 0 01.45 1.1 4 4 0 01-.2 1 2.06 2.06 0 00-.06 1.61c.25.43.76.73 1.13 1.17a2.63 2.63 0 01.57 1.45 2.78 2.78 0 01-.65 2.07c-.35.41-.63.5-.64.48z" fill="#263238"/>
  <path d="M107.74 300l9.12-5.08a24.28 24.28 0 10-6.44-5.87z" fill="#fafafa"/>
  <path d="M107.74 300c.13-.52 1-4 2.6-11v-.11l.09.07-.11.1a25.2 25.2 0 01-3-5 24.48 24.48 0 01-1.85-6.68 22.12 22.12 0 01-.17-3.85c0-.66.06-1.33.12-2s.22-1.36.33-2.05a24.5 24.5 0 019.85-15.11 24.21 24.21 0 019.42-4 24.7 24.7 0 0110.8.36 24 24 0 0110 5.28l1.09 1c.36.33.66.72 1 1.08s.67.71.95 1.11l.86 1.17a10.46 10.46 0 01.79 1.21l.74 1.24.62 1.29a13.66 13.66 0 01.57 1.31 24.82 24.82 0 011.59 10.9 23.92 23.92 0 01-3 10 24.57 24.57 0 01-14.27 11.43 26.42 26.42 0 01-7.91 1 24.41 24.41 0 01-6.81-1.24 24.77 24.77 0 01-5.21-2.48h.08l-9.16 5c.45-.25 3.29-1.85 9.09-5.14a24.57 24.57 0 005.19 2.43 24.07 24.07 0 006.76 1.2 26 26 0 007.83-1 24.42 24.42 0 0014.1-11.33 23.76 23.76 0 003-9.86 24.49 24.49 0 00-1.58-10.77 12.26 12.26 0 00-.56-1.29c-.21-.43-.41-.85-.61-1.28l-.73-1.22a9.48 9.48 0 00-.78-1.2l-.86-1.16c-.27-.39-.63-.72-.94-1.09s-.62-.74-1-1.06l-1.07-1a23.8 23.8 0 00-9.83-5.22 24.61 24.61 0 00-10.68-.37 23.93 23.93 0 00-9.31 4 24.3 24.3 0 00-9.78 14.93l-.33 2c-.06.67-.08 1.34-.13 2a22.91 22.91 0 00.15 3.82 24.14 24.14 0 001.82 6.62 24.58 24.58 0 002.92 5l.34.46-.44-.35h.11c-1.69 6.85-2.56 10.3-2.69 10.85z" fill="#263238"/>
  <path d="M134.17 279.07a9.92 9.92 0 01-9.92-9.92 9.79 9.79 0 011.27-4.85A9.92 9.92 0 10139 277.8a9.93 9.93 0 01-4.83 1.27z" fill="#263238"/>
  <path d="M90.46 299.15l-3.95-7.08a18.87 18.87 0 10-4.56 5z" fill="#fafafa"/>
  <path d="M90.46 299.15l-8.53-2h-.09l.06-.07.09.08a19.22 19.22 0 01-3.9 2.31 18.62 18.62 0 01-5.19 1.44 16.36 16.36 0 01-3 .13l-1.56-.09-1.59-.26a18.93 18.93 0 01-6.35-2.54A19.19 19.19 0 0155 293a18.81 18.81 0 01-3.14-7.32 19.23 19.23 0 01.29-8.39 18.4 18.4 0 014.1-7.73l.78-.85c.25-.28.55-.51.83-.77a9.9 9.9 0 01.86-.74l.91-.67a7.37 7.37 0 011-.62l1-.57 1-.48a9.22 9.22 0 011-.44 19.27 19.27 0 018.47-1.24 18.53 18.53 0 017.74 2.35 19.15 19.15 0 018.88 11.09 20.34 20.34 0 01.78 6.14 18.83 18.83 0 01-2.89 9.34l3.9 7.11c-.19-.35-1.44-2.55-4-7.06a19.22 19.22 0 001.88-4 18.72 18.72 0 00.94-5.25 20.65 20.65 0 00-.79-6.09 19 19 0 00-8.81-11 18.48 18.48 0 00-7.73-2.42 19.28 19.28 0 00-8.37 1.23 8.92 8.92 0 00-1 .44l-1 .47-1 .57a8.27 8.27 0 00-.93.61l-.9.66a9.9 9.9 0 00-.85.73c-.28.26-.58.49-.83.77l-.77.83a18.44 18.44 0 00-4 7.64 19.09 19.09 0 00-.29 8.29 18.69 18.69 0 003.09 7.23 18.84 18.84 0 0011.6 7.6l1.58.26c.52 0 1 .06 1.55.1a17 17 0 003-.12 18.68 18.68 0 005.12-1.41 19.83 19.83 0 003.92-2.29l.35-.27-.27.35v-.09z" fill="#263238"/>
  <path d="M77.7 287.55l-1.81-2.08v-5a4.88 4.88 0 00-4.14-4.82v-2.09h-1.31v2.06a4.89 4.89 0 00-4.31 4.85v4.74l-1.82 2.32h5a2.05 2.05 0 003.31.79 1.94 1.94 0 00.53-.79z" fill="#34a37e"/>
  <path fill="#263238" d="M55.252 292.872l31.36-20.397.546.838-31.36 20.397zM241.04 403.24l-13.42 67.47h13.42l19.94-62.87-19.94-4.6zm402.12 0l13.43 67.47h-13.43l-19.93-62.87 19.93-4.6z"/>
  <path d="M197.43 349.22c-1.5-1.51.57-47.36 1-84.68A46.5 46.5 0 01245 218.65h359.73a46.5 46.5 0 0146.5 46.5V347z" fill="#455a64"/>
  <rect x="173.06" y="357.31" width="524.67" height="56.66" rx="27.77" fill="#455a64"/>
  <path fill="#455a64" d="M690.22 366.39l-37.73-23.08-454.44 3.62-23.12 28.9 515.29-9.44z"/>
  <path d="M650.07 344.7h-4.59l-13.17.06-48.44.19c-40.9.17-97.4.57-159.8 1.06s-118.93.84-159.83.92h-66.19 4.59l13.17-.06 48.43-.19c40.9-.18 97.41-.57 159.83-1.07s118.9-.83 159.8-.91h65.03z" fill="#263238"/>
  <path d="M330.9 358.41c8 1.36 18.13-3.76 26-5.76 6.35-1.6 13-1.42 19.62-1.23l208.76 6.08c4.13.12 9.38-.46 10.58-4.14.73-2.21-.56-4.65-2.47-6.12a19.66 19.66 0 00-6.74-2.85L452.4 332l-109.59 5-32.34 17z" opacity=".1"/>
  <circle cx="473.95" cy="275.58" r="4.72" opacity=".1"/>
  <path d="M353.73 363.61a2.76 2.76 0 01-.62-.16l-1.71-.54c-.75-.24-1.66-.53-2.73-.82s-2.27-.68-3.64-1-2.84-.7-4.46-1-3.34-.6-5.16-.9a95.35 95.35 0 00-24-.41c-1.83.23-3.57.42-5.19.72s-3.12.56-4.49.85-2.59.6-3.67.85-2 .52-2.75.74l-1.73.48a2.76 2.76 0 01-.62.13 4.29 4.29 0 01.58-.23l1.71-.58c.75-.25 1.66-.54 2.74-.82s2.29-.65 3.67-.93 2.86-.65 4.49-.91 3.37-.53 5.21-.77a97.26 97.26 0 0112-.6 99 99 0 0112 1c1.83.31 3.57.57 5.18.95s3.11.7 4.46 1.06 2.57.74 3.64 1.06 2 .63 2.7.91l1.69.64a3.33 3.33 0 01.7.28zm325.46 8.75c0 .15-112.45.63-251.13 1.09s-251.16.7-251.17.56 112.43-.63 251.17-1.08 251.13-.71 251.13-.57z" fill="#263238"/>
  <circle cx="473.95" cy="272.69" r="4.72" fill="#455a64"/>
  <path d="M478.67 272.69c-.05 0-.05-.42-.25-1.13a4.68 4.68 0 00-1.73-2.48 4.56 4.56 0 00-4.27-.6 4.49 4.49 0 104.27 7.81 4.68 4.68 0 001.73-2.48c.2-.7.2-1.13.25-1.12a.78.78 0 010 .3 3.89 3.89 0 01-.08.87 4.68 4.68 0 01-1.71 2.72 4.86 4.86 0 01-4.65.76 4.94 4.94 0 010-9.31 4.86 4.86 0 014.65.76 4.68 4.68 0 011.71 2.72 3.89 3.89 0 01.08.87.86.86 0 010 .31z" fill="#263238"/>
  <path d="M382.84 275.58a4.72 4.72 0 11-4.72-4.72 4.72 4.72 0 014.72 4.72z" opacity=".1"/>
  <path d="M382.84 272.69a4.72 4.72 0 11-4.72-4.72 4.72 4.72 0 014.72 4.72z" fill="#455a64"/>
  <path d="M382.84 272.69s0-.42-.24-1.13a4.68 4.68 0 00-1.73-2.48 4.49 4.49 0 100 7.21 4.68 4.68 0 001.73-2.48c.2-.7.19-1.13.24-1.12s0 .1 0 .3a3.47 3.47 0 01-.09.87 4.65 4.65 0 01-1.7 2.72 4.87 4.87 0 01-4.66.76 4.94 4.94 0 010-9.31 4.87 4.87 0 014.66.76 4.65 4.65 0 011.7 2.72 3.47 3.47 0 01.09.87c.03.2.02.31 0 .31z" fill="#263238"/>
  <path d="M605 283.67a4.72 4.72 0 11-4.72-4.72 4.72 4.72 0 014.72 4.72z" opacity=".1"/>
  <path d="M605 280.77a4.72 4.72 0 11-4.72-4.72 4.72 4.72 0 014.72 4.72z" fill="#455a64"/>
  <path d="M605 280.77c-.05 0-.05-.42-.25-1.13a4.76 4.76 0 00-1.73-2.48 4.5 4.5 0 100 7.21 4.7 4.7 0 001.73-2.47c.2-.71.2-1.13.25-1.13s0 .1 0 .3a3.58 3.58 0 01-.09.88 4.76 4.76 0 01-1.7 2.72 4.91 4.91 0 01-4.66.76 4.95 4.95 0 010-9.32 4.91 4.91 0 014.66.76 4.73 4.73 0 011.7 2.72 3.58 3.58 0 01.09.88v.3z" fill="#263238"/>
  <path d="M538.47 275.89s-3.31-40.17-3.31-41.23 9-40.08 9-40.08 5.7-11 10.8-10.6 3.31 4.6 3 10.6-7.17 25.22-5.39 34.22 7.19 47.09 7.19 47.09z" fill="#ffbe9d"/>
  <path fill="#263238" d="M538.8 320.17l-1.61-44.28 46.14 1.81 1.7 48.1-23.92 8.28-22.31-13.91z"/>
  <path d="M415.42 294.23s22.52-6.87 34.11-5.58 46.13 19.58 46.13 19.58l57.21 14.43-5.41-38.39 47.68 1.54s6.1 54.46 3.52 58.84-9.19 7.39-9.19 7.39c-.77 0-198.28-8-198.28-8z" fill="#263238"/>
  <path d="M475.88 298.42a1.35 1.35 0 01-.16.28l-.53.76-2.05 2.86-7.45 10.17-.06.08h-.1l-20.43 1.74-12.81 1.05h-.27v-.27c0-7.27.07-13.5.1-18 0-2.17.05-3.92.07-5.17v-1.38a1.68 1.68 0 010-.48 3.77 3.77 0 010 .48v1.38c0 1.25 0 3 .07 5.17 0 4.48.05 10.71.09 18l-.26-.24 12.81-1.08 20.43-1.65-.15.09c3.13-4.15 5.73-7.6 7.6-10.06l2.15-2.79.57-.72a2.23 2.23 0 01.38-.22zM414 332.36c0 .15-.51.36-1.19.47s-1.25.1-1.27 0 .5-.35 1.19-.47 1.27-.14 1.27 0zm9.74-1.54a6.09 6.09 0 01-2.4.62 5.8 5.8 0 01-2.48.11 12 12 0 014.88-.73zm9.82-1.04a6.14 6.14 0 01-2.44.48 6.29 6.29 0 01-2.48-.05 6.25 6.25 0 012.44-.47 6.15 6.15 0 012.48.04zm9.87-.12a6.05 6.05 0 01-2.47.22 6.22 6.22 0 01-2.47-.3 6.22 6.22 0 012.48-.22 6.11 6.11 0 012.46.3zm9.8 1.1a6.05 6.05 0 01-2.48-.08 6.3 6.3 0 01-2.41-.6 11.75 11.75 0 014.89.68zm9.77 1.72a5.81 5.81 0 01-2.47-.19 6.15 6.15 0 01-2.38-.71 5.86 5.86 0 012.48.19 6.18 6.18 0 012.37.71zm9.62 2a6 6 0 01-2.47-.26 6.12 6.12 0 01-2.36-.76 6.07 6.07 0 012.47.25 6.14 6.14 0 012.36.77zm9.64 2.14a11.56 11.56 0 01-4.81-1.08 6.07 6.07 0 012.46.29 6.15 6.15 0 012.35.79zm9.64 2.17a6 6 0 01-2.47-.28 6.15 6.15 0 01-2.35-.79 6.16 6.16 0 012.46.28 6.24 6.24 0 012.36.79zm9.66 2.02a6 6 0 01-2.47-.24 6.11 6.11 0 01-2.37-.74 11.65 11.65 0 014.84 1zm9.71 1.77a6.2 6.2 0 01-2.47-.17 6 6 0 01-2.39-.68 6 6 0 012.48.17 6 6 0 012.38.68zM521 344a6.27 6.27 0 01-2.48-.08 6.16 6.16 0 01-2.41-.6 6.05 6.05 0 012.48.08 6.23 6.23 0 012.41.6zm9.84 1.12a5.86 5.86 0 01-2.48 0 6.2 6.2 0 01-2.42-.52 6.17 6.17 0 012.48 0 6.1 6.1 0 012.42.52zm9.84.88a11.8 11.8 0 01-4.92-.38 5.83 5.83 0 012.48-.07 6 6 0 012.44.45zm9.86.5a11.82 11.82 0 01-4.93-.22 6 6 0 012.48-.15 5.9 5.9 0 012.45.37zm9.87.25a6.2 6.2 0 01-2.47.2 5.87 5.87 0 01-2.46-.32 6.2 6.2 0 012.47-.2 5.91 5.91 0 012.46.32zm9.86.44a6.11 6.11 0 01-2.48.12 6 6 0 01-2.45-.4 6.11 6.11 0 012.48-.12 6.2 6.2 0 012.45.4zm9.86.17a5.19 5.19 0 01-2.46.43 5.38 5.38 0 01-2.47-.28 7.14 7.14 0 012.46-.24 7.54 7.54 0 012.47.09zm8.25-4.68c.14.06-.36 1.13-1.36 2.1s-2.1 1.45-2.14 1.31.86-.68 1.77-1.68 1.61-1.79 1.73-1.73zm.18-9.74a6.13 6.13 0 01.44 2.44 6.24 6.24 0 01-.07 2.48 5.84 5.84 0 01-.45-2.44 6.12 6.12 0 01.08-2.48zm-.56-9.86a6.1 6.1 0 01.39 2.45 6.21 6.21 0 01-.13 2.48 6.1 6.1 0 01-.39-2.45 6 6 0 01.13-2.48zm-.45-9.86a6.33 6.33 0 01.36 2.46 6.11 6.11 0 01-.15 2.47 11.6 11.6 0 01-.21-4.93zm-.42-9.86a12 12 0 01.21 4.93 6.12 6.12 0 01-.37-2.46 5.8 5.8 0 01.16-2.47zm-.51-9.86a11.61 11.61 0 01.27 4.93 12.06 12.06 0 01-.27-4.93zm-.5-7.44c.14 0 .3.54.35 1.23s0 1.25-.17 1.26-.3-.54-.35-1.23.05-1.25.17-1.26z" fill="#455a64"/>
  <path d="M422 292.09a2 2 0 01-.13.54c-.13.4-.28.9-.48 1.51-.42 1.31-1 3.21-1.74 5.56-1.44 4.7-3.27 11.24-4.87 18.56s-2.67 14-3.32 18.91c-.32 2.44-.57 4.41-.72 5.78-.08.63-.15 1.15-.2 1.57a2 2 0 01-.11.55 4.08 4.08 0 010-.56c0-.42.06-.94.1-1.58.1-1.37.29-3.36.57-5.8.55-4.89 1.57-11.63 3.17-19s3.49-13.88 5-18.56c.77-2.34 1.42-4.22 1.91-5.51l.57-1.48a2.05 2.05 0 01.25-.49zm17.55 36.49a2.77 2.77 0 01.22.92 12.59 12.59 0 01.13 2.59 14.94 14.94 0 01-9.45 13.25 12.12 12.12 0 01-2.49.73 3.17 3.17 0 01-.94.09c0-.1 1.32-.28 3.29-1.16a15.39 15.39 0 009.22-12.94c.19-2.14-.08-3.47.02-3.48zm55.75-3.81a17.17 17.17 0 01-.52-2.66c-.27-1.65-.66-3.92-1.16-6.42s-1-4.74-1.4-6.37a15.4 15.4 0 01-.55-2.65 11.88 11.88 0 01.9 2.56c.48 1.61 1.06 3.85 1.56 6.36s.84 4.8 1 6.47a12.28 12.28 0 01.17 2.71zm84.75 18.5a27.62 27.62 0 00-2.07-4.79 25.94 25.94 0 00-8.87-8.75 62.73 62.73 0 00-11.45-5.34l-3.66-1.26a7.26 7.26 0 01-1.32-.51 8.16 8.16 0 011.38.31c.88.24 2.15.6 3.69 1.11a56 56 0 0111.6 5.24 24.92 24.92 0 018.92 9 16.59 16.59 0 011.47 3.58 8.62 8.62 0 01.24 1c.07.28.09.41.07.41z" fill="#455a64"/>
  <path d="M595.14 285.81a.64.64 0 01-.24 0h-3.4l-10-.08-34.24-.46.25-.3c.63 4.15 1.28 8.49 2 12.94 1.31 8.82 2.57 17.19 3.69 24.69v.35l-.34-.09-25.2-6.45-7.17-1.88-1.89-.51-.49-.14-.16-.06h.17l.5.1 1.91.45 7.2 1.74 25.24 6.27-.29.27c-1.14-7.49-2.4-15.87-3.74-24.68-.67-4.45-1.32-8.79-1.94-12.94l-.05-.3h.3l34.25.64 10 .24 2.69.08h.7zm-157.41 3.37c.14 0 .41 5.69.6 12.72s.22 12.73.08 12.74-.42-5.69-.6-12.72-.22-12.73-.08-12.74zm-118.6-25.51a8.26 8.26 0 01-.2-1.36c-.09-.88-.24-2.15-.45-3.71a89.81 89.81 0 00-2.49-12 91.31 91.31 0 00-4.13-11.6c-.63-1.45-1.16-2.61-1.54-3.4a6.27 6.27 0 01-.53-1.27 7.06 7.06 0 01.71 1.17c.44.77 1 1.91 1.7 3.35a75.79 75.79 0 016.64 23.73c.17 1.57.27 2.85.29 3.73a6.1 6.1 0 010 1.36z" fill="#455a64"/>
  <path d="M275.61 324.77l5.07-9-1.88 7.85 8.05.58c3.07 1.59 6.61 2.18 10.08 2.7 9.95 1.5 20.15 2.68 30.05.92 1.82-.32 3.78-.84 4.84-2.24 1.24-1.66.79-3.9.32-5.88a151.28 151.28 0 01-4-37.12c.2-11.94 7.07-18.62 6.26-30.54s-6.37-25.68-15-34.53-26.51-17.11-38.23-12.11c-7.45-.46-13.2 3.8-17 9.74s-6.38 15.66-6.19 22.56 5.49 11.6 5.79 18.49c.41 9.17-.86 18.53 1.61 27.42 1.26 4.54 3.5 9 3 13.7-.45 3.82-2.72 7.21-4.51 10.67s-3.06 9.31-1.61 12.9z" fill="#263238"/>
  <path d="M269.8 244.64c-4.66-7.34-6.27-19.33 1.25-23.67l25.85-10.36a5.08 5.08 0 016.71 1.5l35.94 54.33.18-.07s5.86 18.44-11.85 24.44c-3.51 1.19-7.09-1-10-3.78l-.13.12c-.29-.37-.55-.73-.82-1.09a42.31 42.31 0 01-5.36-7.15c-3.14-4.21-4.41-6-4.38-5.91s-10.05 5-20.41-5.32c-5.16-5.14-11.78-14.89-16.98-23.04z" fill="#ffbe9d"/>
  <path d="M294.84 242.29a1.86 1.86 0 002.55.46 1.78 1.78 0 00.56-2.48 1.87 1.87 0 00-2.55-.46 1.78 1.78 0 00-.56 2.48zm-15.71 10.48a1.85 1.85 0 002.54.47 1.79 1.79 0 00.57-2.48 1.86 1.86 0 00-2.55-.46 1.76 1.76 0 00-.56 2.47zm-4.13-4.03c.37.13 1-1.82 2.82-3s3.85-.93 3.89-1.32c0-.18-.48-.52-1.38-.65a5 5 0 00-3.31.73 4.9 4.9 0 00-2 2.7c-.29.89-.19 1.49-.02 1.54zm16.72-11.2c.39.07.89-2 2.71-3.39s3.93-1.5 3.94-1.89c0-.19-.53-.45-1.47-.45a5.71 5.71 0 00-3.38 1.22 5.46 5.46 0 00-1.93 3c-.2.9-.06 1.48.13 1.51zm2.69 15.55a13.19 13.19 0 00-3 1.43c-.44.26-.89.46-1.17.23a2.65 2.65 0 01-.61-1.42c-.34-1.28-.69-2.62-1.06-4-1.56-5.7-3-10.26-3.24-10.2s.85 4.74 2.41 10.44c.39 1.4.77 2.73 1.13 4a2.93 2.93 0 001 1.77 1.26 1.26 0 001.11.11 3.75 3.75 0 00.78-.41 13.68 13.68 0 002.65-1.95z" fill="#263238"/>
  <path d="M307.18 273a36.78 36.78 0 0012.62-15.57s2.05 10.79-10.45 18.21z" fill="#eb996e"/>
  <path d="M297.92 256.48a3.6 3.6 0 011.82-3 3.3 3.3 0 012.55-.35 2.09 2.09 0 011.52 1.84 2.41 2.41 0 01-1.72 2.07 7.53 7.53 0 01-3 .27 2.42 2.42 0 01-.81-.14.67.67 0 01-.43-.61" fill="#34a37e"/>
  <path d="M300 250.75c-.28.18 1 1.93.4 4.26s-2.6 3.5-2.44 3.76.67 0 1.47-.52a5.4 5.4 0 002.11-3 4.7 4.7 0 00-.45-3.49c-.5-.82-1.01-1.11-1.09-1.01zm-12.53-18.5c.48.32 1.94-1.06 4-2.2s4-1.75 3.93-2.33c0-.27-.59-.49-1.52-.46a7.6 7.6 0 00-3.42 1 7.41 7.41 0 00-2.62 2.42c-.49.81-.59 1.41-.37 1.57zM272.68 243c.59.13 1.58-1.18 3.1-2.3s3-1.81 3-2.41c0-.28-.48-.5-1.3-.44a6 6 0 00-3 1.25 5.86 5.86 0 00-2 2.55c-.17.76-.08 1.26.2 1.35z" fill="#263238"/>
  <path d="M302.68 208.41c-2.34-.7-4.84.05-7.15.86a132.42 132.42 0 00-28.32 13.89c.4 2.47 3.21 3.92 5.72 3.83s4.83-1.25 7.19-2.1 5.07-1.39 7.31-.26 3.6 4 5.92 5.32c4 2.28 9.48-.57 13.45 1.73 3 1.74 3.82 5.62 5.69 8.55a12.65 12.65 0 009.82 5.73c3.09.17.46-3.58 2.86-5.55-7.49-9.89-9.23-17.13-16.72-27-1.56-2.09-3.29-4.27-5.77-5z" fill="#263238"/>
  <path d="M283.11 265a2.38 2.38 0 01.12.49c.07.39.16.85.27 1.42.23 1.24.48 3 .74 5.27a108.34 108.34 0 01-1.82 34.94c-.48 2.2-.92 4-1.28 5.16-.16.56-.3 1-.41 1.39a3 3 0 01-.17.48 1.92 1.92 0 01.07-.51c.09-.38.19-.84.32-1.41.29-1.21.68-3 1.11-5.18a120.67 120.67 0 001.81-34.83c-.2-2.23-.41-4-.57-5.28-.07-.57-.13-1-.17-1.43a1.8 1.8 0 01-.02-.51zm4.46 52.79a1.52 1.52 0 01.06-.49c.07-.37.17-.83.28-1.37.26-1.19.59-2.93.95-5.07s.71-4.72 1-7.59.41-6 .41-9.34-.21-6.49-.48-9.35-.64-5.43-1-7.58-.72-3.87-1-5.06c-.11-.55-.2-1-.28-1.37a1.82 1.82 0 01-.07-.49s.08.15.17.46.23.81.38 1.35c.33 1.18.73 2.9 1.16 5.05s.82 4.72 1.14 7.59.5 6.06.52 9.39-.18 6.52-.45 9.4-.68 5.45-1.09 7.6-.8 3.87-1.13 5.05c-.14.54-.27 1-.37 1.36a2 2 0 01-.2.46zm18.49.31a9.65 9.65 0 010-1.7c.05-1.09.11-2.67.15-4.62a144.41 144.41 0 00-2.48-30.3c-.36-1.91-.67-3.46-.9-4.53a10.78 10.78 0 01-.3-1.67 9.5 9.5 0 01.49 1.63c.3 1 .66 2.59 1.07 4.5a121.55 121.55 0 012.2 15.11 120.21 120.21 0 01.29 15.27c-.09 2-.21 3.53-.32 4.62a12.16 12.16 0 01-.2 1.69zm3.68-87.45a2.17 2.17 0 01-.3-.43l-.8-1.29c-.68-1.12-1.65-2.76-2.95-4.71a43.6 43.6 0 00-5.09-6.43 22.52 22.52 0 00-8.22-5.53 20.81 20.81 0 00-9.83-1 22.14 22.14 0 00-7.68 2.64 23.45 23.45 0 00-5.78 4.82 2.43 2.43 0 01.3-.44c.22-.27.5-.7.95-1.18a19.58 19.58 0 014.34-3.52 21.86 21.86 0 017.8-2.79 20.61 20.61 0 0110.08 1 22.48 22.48 0 018.39 5.68A42 42 0 01306 224c1.27 2 2.19 3.65 2.82 4.81l.71 1.34q.24.49.21.5z" fill="#455a64"/>
  <path d="M326 252.6s7.51-2 21.16 3.07S396 290.48 396 290.48s18.09-2.39 19.45 3.75l-24.23 49.82s-27.29 1.36-36.17 0-30.74-20.82-32.05-30.37-6.14-21.5-6.14-21.5z" fill="#34a37e"/>
  <path d="M367.68 315.83a68.61 68.61 0 00-2.2-12.87c-.14 3.9-.29 7.87-1.64 11.53s-4 5.4-7.78 6.42c-.82.22-1.81 2-2.43 2.55a4.11 4.11 0 00-.91 2.9l-.72 15-.57.9a13.56 13.56 0 005.89-8.1c.55-2.19.61-4.65 2.1-6.35s4.47-2.16 6.27-3.86c2.08-2.02 2.2-5.26 1.99-8.12z" opacity=".3"/>
  <path d="M378.34 316.56a5.24 5.24 0 01.54-1.08c.38-.67 1-1.64 1.68-2.82 1.44-2.37 3.5-5.6 5.89-9.1s4.65-6.59 6.33-8.8c.84-1.1 1.54-2 2-2.58a5.49 5.49 0 01.8-.9 5.43 5.43 0 01-.64 1l-1.86 2.72c-1.6 2.26-3.81 5.39-6.2 8.88s-4.49 6.68-6 9c-.72 1.09-1.33 2-1.81 2.74a5.85 5.85 0 01-.73.94zm-1.27-1.56a10.29 10.29 0 01.91-2.34 47.09 47.09 0 012.93-5.29 46.55 46.55 0 013.59-4.88 10.82 10.82 0 011.74-1.81 14.36 14.36 0 01-1.45 2c-.92 1.23-2.17 2.95-3.44 4.93s-2.31 3.82-3 5.18a14.77 14.77 0 01-1.28 2.21z" fill="#263238"/>
  <path d="M395.14 292c-6.57 6-12.39 11.94-17 20.5-.89 1.63-2 3.34-1.73 5.18a.69.69 0 00.28.57c.34.19.89-.23 1.39-1.16 4.68-8.71 11.32-16.81 17.1-25.09" opacity=".3"/>
  <path d="M324.87 231.81l-9.57 7.31c-1.61 8.14 4.67 16.21 3.39 24.41-.89 5.68-5.35 10.75-4.56 16.44.34 2.4 1.6 4.6 1.89 7 .54 4.32-2.08 8.41-2.43 12.74a12.76 12.76 0 007.52 12.44c2.17-2.53 3.05-5.93 3.32-9.25s0-6.66.21-10c.57-9.42 4.87-18.22 6.49-27.52a49.49 49.49 0 00-6.26-33.57z" fill="#263238"/>
  <path d="M315.34 273.8a8.75 8.75 0 00-.65 1.52 8.48 8.48 0 00.16 4.43c.45 1.84 1.53 4 1.63 6.6s-.82 5.38-1.74 8.15-1.64 5.52-1.29 8a11.46 11.46 0 002.71 6 11.93 11.93 0 003.52 2.77c1 .48 1.54.64 1.52.69s-.15 0-.43-.09a7.53 7.53 0 01-1.17-.42 11.17 11.17 0 01-3.71-2.7 11.79 11.79 0 01-2.92-6.14c-.39-2.61.36-5.45 1.28-8.23s1.81-5.46 1.75-8-1.09-4.63-1.5-6.53a8.13 8.13 0 010-4.58 4.19 4.19 0 01.56-1.13 1.42 1.42 0 01.28-.34z" fill="#455a64"/>
  <path d="M329.7 325.27c-.25.75-1.05 7.85-1.05 7.85l-54.51-6.83-4.51 15.11s50.26 15.6 60.49 16.18a20.37 20.37 0 0020.4-11.93l6.6-24.74z" fill="#ffbe9d"/>
  <path fill="#fafafa" d="M206.87 300.47l26.03 24.58 19.94 11.7 12.03-7.68.72-2.32-42.62-42.04-10.86 8.94-2.62-2.41-2.32 1.59-.3 7.64z"/>
  <path fill="#34a37e" d="M206.87 300.47l1.56-.74 13.52-10.87 42.45 40.51-11.56 7.38-19.94-11.7-26.03-24.58z"/>
  <path d="M265.09 328.36a6.57 6.57 0 01-.64-.55l-1.76-1.65-6.42-6.16-21-20.39-13-12.69h.31l-13.38 10.71-.24.19v-.3c.12-1.94.22-3.48.28-4.58l.09-1.19a2.26 2.26 0 01.06-.41 1.85 1.85 0 010 .41v1.2c0 1.1-.09 2.64-.16 4.58l-.22-.11 13.23-10.82.16-.14.15.15 13 12.65c8.16 8 15.55 15.22 20.93 20.5l6.31 6.25 1.69 1.72a4.42 4.42 0 01.61.63zm-57.003-28.29l.675-.738 32.951 30.13-.675.739z" fill="#263238"/>
  <path d="M260.83 320.42l7.54 4.5 9.19 1.79-7.93 14.69h-11.58s-13.77-1.39-14.17-1.52-1.72-1.46-1.06-2.52l.67-1.06s-4.24-.52-4.11-3.57c0 0-3-.38-2.78-3.17s2.52-2.12 2.52-2.12l5.16-.53-12.84-9a1.73 1.73 0 012.12-2c2.38.26 15.88 6.88 16.81 7.54s2.9 1.06 3.77.27 6.69-3.3 6.69-3.3z" fill="#ffbe9d"/>
  <path d="M332.31 342.16a22.09 22.09 0 01-2.11-4.34 22.77 22.77 0 01-1.63-4.54 44.77 44.77 0 013.74 8.88z" fill="#eb996e"/>
  <path d="M355.83 263.67c-6-6.3-17.27-5.07-21.38 2.57-2.82 5.23-4.45 14.8-5.36 21.16-1.71 12-3.92 38.59-3.92 38.59l40.94-6.51s.86-30-2.56-41.29c-1.42-4.69-4.62-11.25-7.72-14.52z" fill="#34a37e"/>
  <path d="M355.83 263.67a18.59 18.59 0 012.64 3.36 46.86 46.86 0 015.13 10.82c1.48 4.95 2 11.17 2.46 18.19s.47 14.93.29 23.45v.2h-.2l-34.06 5.43-6.88 1.09-.33.05v-.33c1-11.94 2.08-23.23 3.28-33.44.62-5.1 1.34-9.92 2.27-14.38a47.53 47.53 0 013.87-12 12.85 12.85 0 018.16-6.13 14.42 14.42 0 017.77.19 13.36 13.36 0 014.33 2.32c.43.37.73.68.93.88l.31.31-.34-.28c-.22-.18-.53-.48-1-.83a13.46 13.46 0 00-4.33-2.21 14.23 14.23 0 00-7.64-.11 12.56 12.56 0 00-7.92 6 47.23 47.23 0 00-3.77 12c-.91 4.45-1.61 9.27-2.21 14.36-1.18 10.2-2.21 21.49-3.23 33.43l-.3-.28 6.88-1.09 34.07-5.4-.21.23c.2-8.5.11-16.38-.22-23.41s-.91-13.21-2.33-18.12a48.7 48.7 0 00-5-10.82 27.76 27.76 0 00-1.82-2.6c-.22-.29-.41-.48-.52-.63a1.1 1.1 0 01-.08-.25z" fill="#263238"/>
  <path d="M550 284.83l-15.17-46.22s-11-1.3-11.7-6.28 7.15-16.47 7.15-16.47 3.69-14.52 5-20.59 6.28-11.7 9.1-11.27 1.3 3.25.86 6.29-2.6 4.77 0 12.57 5 19.28 6.29 24.48 29 58 29 58z" fill="#ffbe9d"/>
  <path d="M550 284.83h2.1l6 .05 22.45.29-.15.25c-5.41-10.29-12.24-23.31-19.81-38.27-1.89-3.75-3.83-7.61-5.75-11.61-1-2-1.93-4-2.82-6.13a18.07 18.07 0 01-1.07-3.29c-.26-1.12-.53-2.24-.79-3.37-1.05-4.53-2.12-9.15-3.39-13.79-.62-2.33-1.34-4.64-2.09-7a16.42 16.42 0 01-.82-7.41 27.42 27.42 0 01.84-3.12 10.92 10.92 0 00.32-1.53c.09-.53.2-1 .32-1.57a8.58 8.58 0 00.37-3c-.14-.91-1.33-1.25-2.21-1a6.2 6.2 0 00-2.55 1.49 15 15 0 00-2 2.24 19.58 19.58 0 00-2.83 5.29c-.61 1.88-1 3.87-1.49 5.78s-.93 3.84-1.39 5.73c-.91 3.77-1.81 7.47-2.68 11.07a78.09 78.09 0 00-4.38 7.44 37.43 37.43 0 00-1.71 3.79 14.87 14.87 0 00-1 3.88 4.75 4.75 0 00.16 1.89 4.38 4.38 0 001 1.56 10.45 10.45 0 003.2 2 28.4 28.4 0 007.11 1.86h.13v.12c4.6 14.14 8.36 25.69 11 33.71 1.3 4 2.3 7.14 3 9.29l.77 2.43c.17.55.25.85.25.85s-.1-.26-.29-.8l-.81-2.39-3.08-9.22-11.18-33.74.17.13a29.06 29.06 0 01-7.23-1.86 10.89 10.89 0 01-3.34-2.09 4.64 4.64 0 01-1.13-1.72 5 5 0 01-.2-2.07 15.51 15.51 0 011-4 39.59 39.59 0 011.72-3.84 77.93 77.93 0 014.4-7.5v.08l2.67-11.07 1.38-5.72c.23-1 .47-1.93.7-2.9a29 29 0 01.8-2.93 20.23 20.23 0 012.9-5.44 15 15 0 012.12-2.32 6.73 6.73 0 012.78-1.61 2.76 2.76 0 011.68.12 1.77 1.77 0 011.14 1.31 8.6 8.6 0 01-.36 3.23c-.12.51-.23 1-.32 1.54a11.53 11.53 0 01-.33 1.59 26.57 26.57 0 00-.83 3.05 16.12 16.12 0 00.81 7.18c.74 2.32 1.47 4.66 2.09 7 1.27 4.66 2.34 9.29 3.38 13.81.27 1.13.53 2.26.79 3.37a17.31 17.31 0 001 3.22c.89 2.08 1.85 4.11 2.8 6.11 1.92 4 3.85 7.86 5.73 11.61 7.54 15 14.32 28 19.69 38.32l.13.25h-.28l-22.54-.46-6-.15h-1.53c-.31.01-.52-.01-.52-.01z" fill="#eb996e"/>
</svg>
