<svg xmlns="http://www.w3.org/2000/svg" viewBox="0 0 700 500">
  <path d="M659.63 152.77C608.29 49 447.38-10 353.26 99.62q-5.55 6.48-10.49 13.51c-24 34.11-60 93.18-104 78.73-30.1-9.88-50.75-37.17-80.53-47.78-39.25-14-76.56 14.65-100.59 51.25-27.94 42.55-41.3 92.49-25.4 138.67 29.6 86 144.84 105.33 223.7 97.45 57.76-5.78 113.51-37.05 171.37-39 41.62-1.42 81.43 10.1 118.94 24.41 17.38 6.63 34.75 13.94 53.55 15.77 67.28 6.54 80.12-60.71 81.73-117.27 1.6-56.24 2.05-114.16-21.91-162.59z" fill="#34a37e"/>
  <path d="M659.63 152.77C608.29 49 447.38-10 353.26 99.62q-5.55 6.48-10.49 13.51c-24 34.11-60 93.18-104 78.73-30.1-9.88-50.75-37.17-80.53-47.78-39.25-14-76.56 14.65-100.59 51.25-27.94 42.55-41.3 92.49-25.4 138.67 29.6 86 144.84 105.33 223.7 97.45 57.76-5.78 113.51-37.05 171.37-39 41.62-1.42 81.43 10.1 118.94 24.41 17.38 6.63 34.75 13.94 53.55 15.77 67.28 6.54 80.12-60.71 81.73-117.27 1.6-56.24 2.05-114.16-21.91-162.59z" fill="#fff" opacity=".7"/>
  <path opacity=".2" d="M623 324.29h42v17h-42zm-541 88.5h42v17H82zm-63-119.5h42v17H19zm588-29.5h42v17h-42zm-152 60h42v17h-42zm74 88h42v17h-42zm51-237h42v17h-42zm47 0h42v17h-42zm-259 0h42v17h-42zm-156 21h42v17h-42zm3 144h42v17h-42zm-48 0h42v17h-42zm-120-140h42v17H47zm47 0h42v17H94zm171-4h42v17h-42z"/>
  <path opacity=".1" d="M584 287.29h42v17h-42zm21 97.5h42v17h-42zm-204 24h42v17h-42zm48 0h42v17h-42zm4-24h42v17h-42zm179-97.5h42v17h-42zm-24-66h42v17h-42zm-2-68h42v17h-42zm-529 24h42v17H77zm-44-35h42v17H33zm389 33h42v17h-42zm-28 29h42v17h-42zm-156-29h42v17h-42zm-40 144.5h42v17h-42zm-26 49h42v17h-42zm41 42h42v17h-42zm-174-91h42v17H39zm-19 49h42v17H20z"/>
  <path opacity=".2" d="M540 324.29h42v17h-42z"/>
  <path fill="none" stroke="#263238" stroke-linecap="round" stroke-linejoin="round" d="M27.11 451.85h644.41"/>
  <g stroke="#263238">
    <path d="M77.51 259.72s.35 74.28.35 85.87-.35 81.05-.35 81.05" fill="none" stroke-linecap="round" stroke-linejoin="round" stroke-width="3"/>
    <path d="M102.42 273l-8.31-7a.45.45 0 01.34-.79l24.63 2.83a.45.45 0 00.19-.87l-21.08-6.85a.44.44 0 01.06-.86l21-3.72a.45.45 0 00-.08-.89H94.31a.45.45 0 01-.27-.81l19.25-14.5a.45.45 0 00-.47-.76l-21.67 10.84a.45.45 0 01-.58-.63l12.63-21.62a.45.45 0 00-.73-.52l-16.81 19.34a.45.45 0 01-.77-.39L91 216.65a.45.45 0 00-.86-.26L79 243.13a.45.45 0 01-.87-.15l-1-26.9a.45.45 0 00-.9 0L74.13 244a.45.45 0 01-.86.15l-11.69-26a.45.45 0 00-.84.31l8.17 28.6a.45.45 0 01-.76.43l-17.41-19a.45.45 0 00-.7.55l15.29 23.47a.45.45 0 01-.64.61l-20.82-14.84a.44.44 0 00-.57.68l19.17 18.51a.45.45 0 01-.53.71l-18-9.84a.45.45 0 00-.47.76l17.37 11.73a.45.45 0 01-.31.81l-16.36-2.13a.45.45 0 00-.18.87l15.8 4.47a.45.45 0 01-.05.88l-10.14 1.69a.45.45 0 00.09.89l11.14-.4a.45.45 0 01.27.83l-8 5.33a.45.45 0 00.36.81l24.65-6.64a.41.41 0 01.22 0l23.67 5.52a.45.45 0 00.42-.76zm-.32 122.64l-7.74-6.49a.55.55 0 01.42-1l23.32 2.68a.55.55 0 00.23-1.06l-19.77-6.42a.55.55 0 01.08-1.06l19.46-3.44a.55.55 0 00-.09-1.09H94.6a.55.55 0 01-.33-1l18.15-13.67a.55.55 0 00-.57-.93l-20.4 10.2a.55.55 0 01-.72-.77l11.94-20.41a.55.55 0 00-.89-.64l-15.87 18.29a.55.55 0 01-1-.47l5.77-27.75a.55.55 0 00-1-.32l-10.51 25.36a.55.55 0 01-1-.19l-.94-24.7a.55.55 0 00-1.1 0l-1.92 25.77a.55.55 0 01-1 .18l-11-24.36a.54.54 0 00-1 .37l7.67 26.89a.55.55 0 01-.93.52l-16.4-17.81a.55.55 0 00-.86.67L65 375a.55.55 0 01-.78.75L45 362a.55.55 0 00-.7.84l17.68 17.06a.55.55 0 01-.65.88l-15.5-8.48a.55.55 0 00-.57.94l15.26 10.3a.55.55 0 01-.37 1l-14.65-1.93a.55.55 0 00-.22 1.07l14.07 4a.55.55 0 01-.06 1.07l-8.19 1.35a.55.55 0 00.11 1.09l9.26-.33a.55.55 0 01.33 1l-7.21 4.8a.55.55 0 00.45 1l24-6.48a.62.62 0 01.27 0l23.28 5.42a.54.54 0 00.51-.96z" fill="#34a37e" stroke-miterlimit="10" stroke-width=".5"/>
    <path d="M67 334.35s-1 9.14-.35 12.65a64.41 64.41 0 011 12.3c0 4.56.35 24 .35 27.13s-.35 30-.35 32.48v8.43m.35-44.42s1.41-26.79 2.82-30.3 2.45-2.46 2.81-6.67.35-6 1-7.38a29.08 29.08 0 001.4-3.87l.71-2.81" fill="none" stroke-linecap="round" stroke-linejoin="round" stroke-width="3"/>
    <path d="M89.1 342.77l-9.36-7.85a.27.27 0 01.2-.47l27 3.11a.26.26 0 00.11-.51l-23.51-7.64a.26.26 0 010-.51l23.73-4.21a.26.26 0 000-.52H79.85a.27.27 0 01-.16-.48l21.28-16a.27.27 0 00-.28-.45l-24 12a.26.26 0 01-.35-.37L90.27 295a.27.27 0 00-.43-.31L71.3 316a.27.27 0 01-.47-.23l6.6-31.73a.26.26 0 00-.5-.15l-12.16 29.3a.27.27 0 01-.51-.09l-1.18-31a.27.27 0 00-.53 0l-2.36 31.53a.27.27 0 01-.52.06l-9.33-29.19a.26.26 0 00-.51.12L55.32 317a.27.27 0 01-.48.2l-16.6-23.85a.27.27 0 00-.46.27l14.5 29.3a.26.26 0 01-.38.34L30 309a.27.27 0 00-.32.42l20.19 18.69a.27.27 0 01-.28.44l-20.21-8.28a.27.27 0 00-.23.48l18.21 9.85a.27.27 0 01-.15.5l-19.65-1.69a.26.26 0 00-.08.52l19.19 4.53a.27.27 0 010 .52l-12 2.73a.26.26 0 00.08.52l12.68-1a.27.27 0 01.17.49L38.25 344a.27.27 0 00.22.48l25.77-6.94h.13l24.49 5.7a.27.27 0 00.24-.47z" fill="#34a37e" stroke-miterlimit="10" stroke-width=".5"/>
    <path d="M57.35 417.39l-7.52 12.53a8.28 8.28 0 00-.9 6.41l3.34 12.44a4.15 4.15 0 004 3.08h34.26a4.15 4.15 0 004-3.08l3.34-12.44a8.28 8.28 0 00-.9-6.41l-7.52-12.53A2.82 2.82 0 0087 416H59.78a2.83 2.83 0 00-2.43 1.39z" fill="#263238" stroke-linejoin="round"/>
  </g>
  <path fill="none" stroke="#263238" stroke-linecap="round" stroke-linejoin="round" d="M603.59 121.53l10.42-17.37-11.38-8.12V89.8l2.69-19.51-4.03 2.18h-5.11l-18.32-5.89-18.32 5.89h-8.67l-18.32-5.89-18.32 5.89h-8.67l-18.32-5.89-18.32 5.89h-8.66l-18.32-5.89-18.32 5.89h-8.67l-18.31-5.89-18.33 5.89h-8.66l-18.32-5.89-18.32 5.89h-8.66l-18.32-5.89-18.32 5.89h-8.66l-18.32-5.89-18.32 5.89h-8.67l-18.32-5.89-18.32 5.89h-8.66l-18.32-5.89-18.32 5.89h-8.66l-18.32-5.89-18.32 5.89h-6.59v1.11l-6.09-3.29 3.47 25.19-12.16 8.68 10.42 17.37-8.68 16.5 9.55 10.42-5.21 21.71 14.66-6.28 18.95 6.04 22.65-7.22 22.65 7.22 22.65-7.22 22.65 7.22 22.65-7.22 22.66 7.22 22.65-7.22 22.65 7.22 22.65-7.22 22.65 7.22 22.65-7.22 22.66 7.22 22.65-7.22 22.65 7.22 22.65-7.22 22.65 7.22 22.65-7.22 22.66 7.22 22.65-7.22 22.66 7.22 16.92-5.39 13.15 5.63-5.21-21.71 9.55-10.42-8.68-16.5z"/>
  <path d="M291.1 88.58s-15.1-6.79-22.46-3.65-18.8 29.24-14.63 46.48 9.93 21.93 15.15 21.93 12.54-2.09 12.54-2.09 7.31 3.66 13.05 3.66 12.54-3.13 12.54-3.13 11 5.22 17.23.52 14.62-29.77 6.79-50.14-19.85-22.46-24.55-20.89a121.39 121.39 0 00-12 5.22 24.41 24.41 0 00-2-5.37c-1.57-3.14-6.79-2.94-4.38 1.09a20.08 20.08 0 012.72 6.37z" fill="#263238"/>
  <path fill="#8f8f8f" d="M261.85 126.06l11.49 14.1 9.92-2.61 11.49 5.74 9.93-5.74 10.44 4.7 9.4-20.37-13.58 7.84-8.88-3.66-7.83 4.18-13.06-4.7-6.26 3.65-13.06-3.13z"/>
  <path fill="#fff" d="M302.06 126.06l-7.83 4.18-13.06-4.7-6.26 3.65-9.98-2.39 8.41 10.32 9.92-2.61 11.49 5.74 9.93-5.74 10.44 4.7 7.49-16.22-11.67 6.73-8.88-3.66zm-22.45-29.77s-7.86 10.78-9.4 23l18.27 1zm27.04 0l-8.17 23.45 18.31.08a35.45 35.45 0 00-10.14-23.53z"/>
  <path d="M273.58 119.46A120.44 120.44 0 01281 100l-1.35-3.67s-7.86 10.78-9.4 23zm33.07-23.17l-1.14 3.29c2.23 3.08 7.17 10.91 7.46 20.22h3.82a35.45 35.45 0 00-10.14-23.51z" fill="#8f8f8f"/>
  <path d="M119.32 142.89h-7.78V93.35h7.78v21.24h8.85V93.35h7.92v49.54h-7.92v-21.23h-8.85zm47.62 0h-7.85l-1.35-9h-9.55l-1.34 9h-7.15l7.92-49.54H159zm-17.76-15.71h7.5l-3.75-25.05zm44.44-21.58v6.4c0 7.92-3.82 12.24-11.6 12.24h-3.68v18.61h-7.79v-49.5H182c7.8 0 11.62 4.32 11.62 12.25zm-15.28-5.17v16.77H182c2.47 0 3.82-1.13 3.82-4.67v-7.43c0-3.54-1.35-4.67-3.82-4.67zm42.31 5.17v6.4c0 7.92-3.82 12.24-11.6 12.24h-3.68v18.61h-7.79v-49.5h11.47c7.78 0 11.6 4.32 11.6 12.25zm-15.28-5.17v16.77h3.68c2.47 0 3.82-1.13 3.82-4.67v-7.43c0-3.54-1.35-4.67-3.82-4.67zm26.39 26.04l-9.84-33.12h8.14l5.94 22.58 6-22.58h7.43l-9.84 33.12v16.42h-7.78zm118.65 16.42h-7.78V93.35h7.78v21.24h8.85V93.35h7.93v49.54h-7.93v-21.23h-8.85zm47.59 0h-7.86l-1.34-9h-9.56l-1.34 9h-7.15l7.93-49.54h11.39zm-17.77-15.71h7.51L384 102.13zm21.41-33.83h7.79v42.47h12.81v7.07h-20.6zm23.99 0h7.79v42.47h12.8v7.07h-20.59zM449 105.24c0-7.92 4.18-12.45 11.82-12.45s11.82 4.53 11.82 12.45V131c0 7.93-4.18 12.46-11.82 12.46S449 138.93 449 131zm7.79 26.26c0 3.54 1.55 4.88 4 4.88s4-1.34 4-4.88v-26.75c0-3.54-1.55-4.88-4-4.88s-4 1.34-4 4.88zm38.12-15l-2.83 26.39h-10.69l-5.52-49.54h7.57l4.18 39.07 3.75-39.07h7.5l3.89 39.35 4-39.35h6.79l-5.52 49.54h-10.29zm30.35-2.27H536v7.08h-10.74v14.51h13.45v7.07h-21.23V93.35h21.23v7.08h-13.45zm26.04 0H562v7.08h-10.7v14.51h13.45v7.07h-21.23V93.35h21.23v7.08H551.3zm25.19-7.23v35.88h-7V93.35h9.77l8 29.66V93.35h6.94v49.54h-8zm86.05 54.61l-4.2-14.07 2.83 13.83-13.44 5.38a12.6 12.6 0 00-.73-3l5.56-10.61v-.07a.69.69 0 00-.07-.74l-8.78-11.46 7.29 11.9-5.42 8.23c-1.15-1.74-2.66-3-4.33-3s-3.25 1.36-4.41 3.17l-5.84-7.43 6.22-12.46-7.76 12.19a.68.68 0 000 .74v.07l6.07 9.43a12.9 12.9 0 00-.72 2.79L622 161.37l2.83-13.83-4.2 14.07a.61.61 0 00.31.72h.05l14 7.11a6.61 6.61 0 001.91 3l-11 5.64a.47.47 0 00-.23.55l3.19 10.84-2.15-10.65 12-4.88a2.78 2.78 0 00-.38 1.09 1.19 1.19 0 00-.26.11l-.09.07-8 6.15a.54.54 0 00-.19.54l2.36 10.86-1.15-10.6 8-4.91a3 3 0 002.4 1.22 3 3 0 002.57-1.46h.06l8.26 5.11-1.29 10.69 2.37-10.81a.54.54 0 00-.2-.54l-8-6.15-.09-.07a1.09 1.09 0 00-.8-.13 3 3 0 00-.6-1.4h.09a1.11 1.11 0 00.34.22l12.33 5-2.14 10.65 3.18-10.84a.48.48 0 00-.24-.55l-11.36-5.86a6.54 6.54 0 001.52-2.33l14.83-7.52h.05a.62.62 0 00.26-.87z" fill="#263238"/>
  <path fill="none" stroke="#263238" stroke-miterlimit="10" d="M641.47 159.18V32.29"/>
  <path d="M81 161.61l-4.19-14.07 2.82 13.83-13.44 5.38a13.06 13.06 0 00-.72-3l5.55-10.61v-.07a.71.71 0 00-.06-.74l-8.72-11.43 7.28 11.87-5.45 8.23c-1.15-1.74-2.66-3-4.32-3s-3.25 1.36-4.41 3.17l-5.88-7.34 6.21-12.46-7.76 12.19a.68.68 0 000 .74l.05.07 6.04 9.34a12.9 12.9 0 00-.72 2.79l-12.84-5.13 2.83-13.83-4.2 14.07a.61.61 0 00.31.72h.05l14.06 7.11a6.51 6.51 0 001.9 3l-11 5.64a.47.47 0 00-.24.55l3.19 10.84-2.14-10.64 12-4.88a3.14 3.14 0 00-.38 1.09 1.12 1.12 0 00-.25.11l-.1.07-8 6.15a.54.54 0 00-.2.54l2.36 10.86-1.19-10.65 8-4.91a3 3 0 002.4 1.22 3 3 0 002.53-1.43h.06l8.26 5.11-1.19 10.7L71.86 182a.54.54 0 00-.2-.54l-8-6.15-.1-.07a1.08 1.08 0 00-.8-.13 3 3 0 00-.6-1.4h.09a1.11 1.11 0 00.34.22l12.33 5-2.14 10.65L76 178.64a.47.47 0 00-.24-.55l-11.37-5.86a6.54 6.54 0 001.52-2.33l14.83-7.52a.61.61 0 00.26-.77z" fill="#263238"/>
  <path fill="none" stroke="#263238" stroke-miterlimit="10" d="M59.96 159.18V32.29"/>
  <path fill="#34a37e" stroke="#263238" stroke-linecap="round" stroke-linejoin="round" d="M591.35 296.99H578.3l-2.54-25.95h18.12l-2.53 25.95z"/>
  <path d="M576 272.28h17.5a1.44 1.44 0 001.44-1.44h0a1.43 1.43 0 00-1.44-1.44H576a1.43 1.43 0 00-1.44 1.44h0a1.44 1.44 0 001.44 1.44z" fill="#fff" stroke="#263238" stroke-linecap="round" stroke-linejoin="round"/>
  <path fill="#34a37e" stroke="#263238" stroke-linecap="round" stroke-linejoin="round" d="M568.72 296.99h-13.05l-2.53-25.95h18.12l-2.54 25.95z"/>
  <path d="M553.34 272.28h17.51a1.45 1.45 0 001.44-1.44h0a1.44 1.44 0 00-1.44-1.44h-17.51a1.44 1.44 0 00-1.44 1.44h0a1.45 1.45 0 001.44 1.44z" fill="#fff" stroke="#263238" stroke-linecap="round" stroke-linejoin="round"/>
  <path fill="#34a37e" stroke="#263238" stroke-linecap="round" stroke-linejoin="round" d="M546.1 296.99h-13.05l-2.54-25.95h18.13l-2.54 25.95z"/>
  <path d="M530.72 272.28h17.5a1.45 1.45 0 001.45-1.44h0a1.44 1.44 0 00-1.45-1.44h-17.5a1.43 1.43 0 00-1.44 1.44h0a1.44 1.44 0 001.44 1.44z" fill="#fff" stroke="#263238" stroke-linecap="round" stroke-linejoin="round"/>
  <path fill="#34a37e" stroke="#263238" stroke-linecap="round" stroke-linejoin="round" d="M523.47 296.99h-13.04l-2.54-25.95h18.12l-2.54 25.95z"/>
  <path d="M508.09 272.28h17.51a1.44 1.44 0 001.44-1.44h0a1.43 1.43 0 00-1.44-1.44h-17.51a1.44 1.44 0 00-1.44 1.44h0a1.45 1.45 0 001.44 1.44z" fill="#fff" stroke="#263238" stroke-linecap="round" stroke-linejoin="round"/>
  <path fill="#34a37e" stroke="#263238" stroke-linecap="round" stroke-linejoin="round" d="M500.85 296.99H487.8l-2.54-25.95h18.13l-2.54 25.95z"/>
  <path d="M485.47 272.28H503a1.45 1.45 0 001.44-1.44h0a1.44 1.44 0 00-1.44-1.44h-17.53a1.43 1.43 0 00-1.44 1.44h0a1.44 1.44 0 001.44 1.44z" fill="#fff" stroke="#263238" stroke-linecap="round" stroke-linejoin="round"/>
  <path fill="#34a37e" stroke="#263238" stroke-linecap="round" stroke-linejoin="round" d="M478.23 296.99h-13.05l-2.54-25.95h18.12l-2.53 25.95z"/>
  <path d="M462.85 272.28h17.5a1.44 1.44 0 001.44-1.44h0a1.43 1.43 0 00-1.44-1.44h-17.5a1.44 1.44 0 00-1.45 1.44h0a1.45 1.45 0 001.45 1.44z" fill="#fff" stroke="#263238" stroke-linecap="round" stroke-linejoin="round"/>
  <path d="M392.39 266.14q-.06.86-.06 1.74a29 29 0 0019.09 27.26h19.83a29 29 0 0019.09-27.26v-1.74z" fill="none" stroke="#263238" stroke-linecap="round" stroke-linejoin="round"/>
  <path d="M396.73 276.14a25.54 25.54 0 0015.88 17.26h17.45A25.57 25.57 0 00446 276.14z" fill="#34a37e"/>
  <path d="M426.2 283.49l35.8-26.05a2.89 2.89 0 014.06.65h0a2.89 2.89 0 01-.57 4l-4 3.14" fill="none" stroke="#263238" stroke-linecap="round" stroke-linejoin="round"/>
  <path d="M419.29 271.26a6.82 6.82 0 00-.94.78 6.94 6.94 0 009.83 9.81 6.82 6.82 0 00.78-.94zm-8.31 23.63h20.5v2.08h-20.5z" fill="none" stroke="#263238" stroke-linecap="round" stroke-linejoin="round"/>
  <path fill="#263238" stroke="#263238" stroke-linecap="round" stroke-linejoin="round" d="M594.21 451.85h-4.6l-.57-63.12h5.75l-.58 63.12zm-318.57-5.42h-4.6l-.58-63.12h5.75l-.57 63.12zm156.99 5.42h-4.6l-.58-63.12h5.75l-.57 63.12z"/>
  <path fill="#fff" stroke="#263238" stroke-linecap="round" stroke-linejoin="round" d="M265.38 396.53l15.32 8 15.32-8 15.32 8 15.32-8 15.32 8 15.32-8 15.32 8 15.32-8 15.31 8 15.32-8 15.33 8 15.31-8 15.33 8 15.31-8 15.32 8 15.32-8 15.33 8 15.31-8 15.33 8 15.32-8 15.32 8 15.32-8 1.44.75V296.53h-340v100.8l1.52-.8z"/>
  <path fill="none" stroke="#263238" stroke-linecap="round" stroke-linejoin="round" d="M579.52 301.2l-2.66 28m9.52 11.45l.48 4.55m-4.67-44.67l3.56 34.05m-32.89-33.38l3.33 28m-7.33-24.67l-1.34 10m-97.33-13.33l-2.67 28m9.53 11.45l.47 4.55m-4.66-44.67l3.55 34.05m-32.89-33.38l3.34 28m-7.34-24.67l-1.33 10m-122-13.33l2.67 28m-9.53 11.45l-.47 4.55m4.66-44.67l-3.55 34.05m32.89-33.38l-3.34 28m7.34-24.67l1.33 10"/>
  <path d="M496.71 149.81s-14.07-2.19-20-.94-5.94 8.75-4.06 13.75 6.88 10.63 17.51 7.82 10.61-15.95 6.55-20.63z" fill="#263238" stroke="#263238" stroke-linecap="round" stroke-linejoin="round"/>
  <path d="M498.91 378l7.44 45s-.88 19.65-1.19 24.65 1.38 7 3.75 7.19c3.13.32 9.07-.62 9.07-6.87s-4.75-26.85-4.75-26.85 4.12-20 6-35.67-5-37.2-5-41.89-14.69 10.32-16.88 15.94 1.56 18.5 1.56 18.5z" fill="#fff" stroke="#263238" stroke-linecap="round" stroke-linejoin="round"/>
  <path d="M510.68 353.08s-4.19 17.92-5.59 24.44-2.82 19.17-2.82 19.17l-3.69-17.77s8.61-23.51 9.07-24.44 3.03-1.4 3.03-1.4zM518 448a27 27 0 00-.45-4.22 21.44 21.44 0 01-5.49 3 6 6 0 01-6.73-1.7c-.05 1-.11 1.92-.15 2.63-.31 5 1.38 7 3.75 7.19 3.07.26 9.07-.68 9.07-6.9z" fill="#263238" stroke="#263238" stroke-linecap="round" stroke-linejoin="round"/>
  <path d="M475.15 396.08L488 425.46s-4.69 13.75-5.63 16.88-2.81 4.69-5.31 6.25-1.57 2.82.93 3.44 10.94 0 13.13-.94 3.75-6.56 5.32-8.75a29.53 29.53 0 012.81-3.44V452h2.5s1.88-15.63 1.56-20-6.31-11.23-6.31-11.23l-5.94-40-19.38 5z" fill="#fff" stroke="#263238" stroke-linecap="round" stroke-linejoin="round"/>
  <path fill="#34a37e" stroke="#263238" stroke-linecap="round" stroke-linejoin="round" d="M451.58 258.18h-13.04L436 232.23h18.12l-2.54 25.95z"/>
  <path d="M436.21 233.46h17.5a1.43 1.43 0 001.44-1.44h0a1.43 1.43 0 00-1.44-1.44h-17.5a1.44 1.44 0 00-1.45 1.44h0a1.44 1.44 0 001.45 1.44zM477.53 256l-21.15-6.7s-2.16-5.85-3.39-6.78-4.62-1.84-6.16-2.77-1.23 2.77.62 3.7a40.28 40.28 0 013.69 2.15s0 5.24.62 6.78 4 3.08 4 3.08l21.49 14z" fill="#fff" stroke="#263238" stroke-linecap="round" stroke-linejoin="round"/>
  <path d="M475.77 271.09s-5.63 2.5-9.07 15-12.49 66.84-11.56 78.09 10 43.45 10 43.45l5.94-13.13 3.75 12.82L485.15 393s3.44 15.32 3.44 14.38 6.88-17.51 12.51-27.82 10.31-27.2 10.31-27.2l6.88 53.46 4.06-12.19 4.07 10s.93-4.69 0-16.57-6.34-10.76-2.19-30.63c7.43-35.62 2.18-62.78-2.2-73.1s-5.31-12.81-5.31-12.81l-40-2.5z" fill="#34a37e" stroke="#263238" stroke-linecap="round" stroke-linejoin="round"/>
  <path d="M504.43 284.58s-8.91 18.75-12.19 31.41m-5.46 8.85c-.29 1.44-.51 2.73-.64 3.81m7.03-28.13s-3.49 11.56-5.59 20.63" fill="none" stroke="#263238" stroke-linecap="round" stroke-linejoin="round"/>
  <path d="M475.14 262l-1.25 9.37s3.13 5 16.57 5.63c18.68.87 26.26-6.56 26.26-6.56l-.94-9.69z" fill="#263238" stroke="#263238" stroke-linecap="round" stroke-linejoin="round"/>
  <path d="M497 204.51s-10.94 1.25-15 3.44-5.32 7.19-5.94 10.94-6.88 10.63-7.82 18.75 1.88 10 2.82 12.82 2.5 6.56 2.5 6.56.31 6.57 3.12 7.82 7.19 2.81 19.38 2.81 17.51-2.81 19.7-5 10.63-27.51 12.19-32.82 1.56-11.25-1.25-15.63-12.19-8.13-15.94-8.44-13.76-1.25-13.76-1.25z" fill="#34a37e" stroke="#263238" stroke-linecap="round" stroke-linejoin="round"/>
  <path d="M487.19 250.87a74.33 74.33 0 0011.14 7.93m-16.88-13.13s.71.71 1.92 1.83m3.71 9.42s7 6.1 15.47 7" fill="none" stroke="#263238" stroke-linecap="round" stroke-linejoin="round"/>
  <path d="M486.39 227.33a70.12 70.12 0 00.94-24.07c-1.87-12.5-6.25-20-6.25-20s15-6.56 37.82-2.5 28.45 18.76 28.45 18.76-14.38 0-31.26 10.31-29.7 17.5-29.7 17.5z" fill="#263238" stroke="#263238" stroke-linecap="round" stroke-linejoin="round"/>
  <path d="M490.46 195.44s2.5 5.63 3.12 7.19-5.93 20.32-7.19 24.7 14.7-10.94 19.07-16.88 1.57-11.57 1.25-18.76-.93-10.94-4.69-9.06-11.56 12.81-11.56 12.81z" fill="#fff" stroke="#263238" stroke-linecap="round" stroke-linejoin="round"/>
  <path d="M478.8 185.55l2.49 1.1-1.46 4.42s7.82-1.38 8.09-2.21 1.94-7.74.56-8-7.47-.27-7.47-.27z" fill="#263238" stroke="#263238" stroke-linecap="round" stroke-linejoin="round"/>
  <path d="M486.39 159.5s-6.25 6.25-6.25 8.44-.62 5.62-1.87 6.25-6.25 1.87-5.32 4.69a3.32 3.32 0 003.44 2.5l1.25 4.69 7.52-1.35s-5.64 5.41-5.33 6.35 1.88 1.56 1.88 1.56a47.09 47.09 0 003.43 5.31c.94.94 2.19 1.57 5.32.32a40.45 40.45 0 0010.63-7.5c1.56-1.88 6.56-6.88 4.37-15.32s-3.12-15-6.56-16.88-11.25.62-12.51.94z" fill="#fff" stroke="#263238" stroke-linecap="round" stroke-linejoin="round"/>
  <path d="M484.21 173.09c0 1.13-.42 2-.94 2s-.94-.91-.94-2 .42-2 .94-2 .94.91.94 2z" fill="#263238"/>
  <path d="M481.39 168.87s3.13-2.5 4.07 2.19" fill="none" stroke="#263238" stroke-linecap="round" stroke-linejoin="round"/>
  <path d="M485.46 152.62c-.63 1.25-.94 10.94 1.87 14.38a12.52 12.52 0 007.19 4.06s-.94 5.63 1.88 7.5a5.5 5.5 0 005.31.63s-5.63 11.88-.62 19.07 10 5.31 12.81 4.37 3.44-5.94 3.44-5.94 3.75 8.44 11.57 2.5.31-12.5.31-12.5 3.75-.31 2.5-5.94-7.19-5.31-7.19-5.31-.62-20.63-11.25-25.63-25 .93-25 .93zm15.41 273.43a29.36 29.36 0 01-4.15 7.54c-4.06 5.62-3.44 11.25-8.13 12.81a8.94 8.94 0 01-7.78-1 13.63 13.63 0 01-3.78 3.19c-2.5 1.56-1.57 2.82.93 3.44s10.94 0 13.13-.94 3.75-6.56 5.32-8.75a29.53 29.53 0 012.81-3.44V452h2.5s1.88-15.63 1.56-20a14.78 14.78 0 00-2.41-5.95z" fill="#263238" stroke="#263238" stroke-linecap="round" stroke-linejoin="round"/>
  <path d="M518.7 233.38s-6.16 14.58-6.16 22-1.94 25 1.3 26.24S526.47 272.26 530 269s19.76-20.74 19.76-20.74l6.48-1.94 1.62-9.72-10-.33-5.51 9.07-16.2 11.66s3.85-20.71 3.85-27.84 0-13.93-3.24-16.2-9.08-1.94-9.08-1.94" fill="#34a37e" stroke="#263238" stroke-linecap="round" stroke-linejoin="round"/>
  <path d="M549.8 248.28l6.48-1.94 1.62-9.72-10-.33-5.51 9.07L526.15 257s-10.76 6.05-12.3 8.82a23.26 23.26 0 00-1.88 5c-.08 5.45.25 10.13 1.87 10.77 3.24 1.3 12.63-9.39 16.2-12.63s19.76-20.68 19.76-20.68z" fill="#fff" stroke="#263238" stroke-linecap="round" stroke-linejoin="round"/>
  <path fill="none" stroke="#263238" stroke-linecap="round" stroke-linejoin="round" stroke-width="3" d="M562.81 203.03l-30.79 133.02"/>
  <path fill="#fff" stroke="#263238" stroke-linecap="round" stroke-linejoin="round" d="M553.534 234.715l6.626 1.117-.547 3.244-6.626-1.117zm.177 3.738l6.627 1.117-.547 3.244-6.627-1.117zm-1.771 5.329l5.621.948-.463 2.75-5.621-.947z"/>
  <path fill="#fff" stroke="#263238" stroke-linecap="round" stroke-linejoin="round" d="M552.627 240.907l6.627 1.118-.547 3.244-6.627-1.118z"/>
  <path d="M578 176.46a2 2 0 00-2-2h0a2 2 0 00-2 2l.22 20.59a8.31 8.31 0 01-6.73 8.27l-3.21.49 6.38-26a2 2 0 10-3.89-1l-6.19 25.28-1.79-2a8.32 8.32 0 01-1.38-9.12l9.11-19.64a2 2 0 10-3.62-1.68l-9.12 19.64a12.31 12.31 0 002 13.49l4.32 4.77h0a1.93 1.93 0 00.3.27l.11.06.24.14.17.06.19.07h0a2 2 0 00.43.06h.07a1 1 0 00.24 0h0l6.19-.93A12.34 12.34 0 00578.17 197z" fill="#34a37e" stroke="#263238" stroke-linecap="round" stroke-linejoin="round"/>
  <path d="M544.94 241.8l2.27-9.07 7.45 1.62-.66 8.75-1.94-.33-1-4.53s1 4.21-2.92 5.5" fill="#fff" stroke="#263238" stroke-linecap="round" stroke-linejoin="round"/>
  <path d="M497.82 147.94s3.06 5.86 3.57 10.44a48 48 0 01-.51 10.7l2.29.25s2-2.54 3.05-9.17a28.33 28.33 0 00-1.22-12.73 5.76 5.76 0 00-7.18.51z" fill="#34a37e" stroke="#263238" stroke-linecap="round" stroke-linejoin="round"/>
  <path d="M502.31 155.38a4.67 4.67 0 013.62-4.53 14.22 14.22 0 004.6-1.54c3.74-2.46 2.13-3.83 3.15-5.36s2.29.26 2.8 2.8.32 7.6-3.06 10.7a9.86 9.86 0 01-6.1 2.47 4.69 4.69 0 01-5-4.42z" fill="#34a37e" stroke="#263238" stroke-linecap="round" stroke-linejoin="round"/>
  <path d="M400 226.78l2.08-16.17.69-8.31 12.7 2.77-.69 8.54a17.75 17.75 0 01-2.77 3.93c-1.62 1.62-3 3.23-3 3.23l-.23 11.55-10.39-2.54z" fill="#fff" stroke="#263238" stroke-linecap="round" stroke-linejoin="round"/>
  <path fill="#34a37e" stroke="#263238" stroke-linecap="round" stroke-linejoin="round" d="M420.87 212.77h-13.05l-2.53-25.95h18.12l-2.54 25.95z"/>
  <path d="M405.49 188.05H423a1.44 1.44 0 001.44-1.44h0a1.45 1.45 0 00-1.44-1.44h-17.51a1.45 1.45 0 00-1.44 1.44h0a1.44 1.44 0 001.44 1.44zm-2.92 15.87l.46-4.85s7.85-5.55 8.78-6 2.31-.69 1.15 1.39-4.85 4.85-4.85 4.85 3 7.85 1.62 9.7a16.88 16.88 0 01-4.16 3.46" fill="#fff" stroke="#263238" stroke-linecap="round" stroke-linejoin="round"/>
  <path d="M374.39 205.07l15 40.88 9-16.17 13.4 9.93s-7.62 16.17-10.4 21.48-7.39 9.93-11.77 10.16-7.62-4.16-7.62-4.16L366.31 206l4.39-3z" fill="#263238" stroke="#263238" stroke-linecap="round" stroke-linejoin="round"/>
  <path fill="#fff" stroke="#263238" stroke-linecap="round" stroke-linejoin="round" d="M398.18 223.54l-4.62 11.32 18.25 12.01 3.92-15.01-17.55-8.32zm-68.59-20.09l11.32-6s9.24.23 10.16.69 6.7 2.54 6.7 2.54 12.47 36.95 12.93 41.11 4.39 30.94 4.39 32.56a4.82 4.82 0 00.92 2.77l-30.71 2.54s-1.62-32.79-6.47-49.42a252.89 252.89 0 00-9.24-26.79z"/>
  <path fill="none" stroke="#263238" stroke-linecap="round" stroke-linejoin="round" d="M333.9 421.24l-1.15 22.28 7.69 1.15 2.69-22.28-9.23-1.15z"/>
  <path d="M337.75 438.53s-3.46-6.15-4.61-3.85-7.69 11.15-7.69 11.15-10 2.3-13.45 3.84 1.15 4.23 4.61 4.23h16.14c3.07 0 5.38-3.08 5.38-3.08l1.15 2.69h5.77s.38-4.22.38-7.3a59.2 59.2 0 00-.77-7.68z" fill="#263238" stroke="#263238" stroke-linecap="round" stroke-linejoin="round"/>
  <path fill="#fff" stroke="#263238" stroke-linecap="round" stroke-linejoin="round" d="M364.26 416.24l2.69 27.28-7.69 1.15-3.45-26.89 8.45-1.54z"/>
  <path d="M362 438.53s3.46-6.15 4.61-3.85 7.69 11.15 7.69 11.15 10 2.3 13.45 3.84-1.16 4.23-4.61 4.23H367c-3.08 0-5.38-3.08-5.38-3.08l-1.15 2.69h-5.77s-.38-4.22-.38-7.3a59.2 59.2 0 01.77-7.68z" fill="#263238" stroke="#263238" stroke-linecap="round" stroke-linejoin="round"/>
  <path fill="#fff" stroke="#263238" stroke-linecap="round" stroke-linejoin="round" d="M375.93 343.02l-1.84 28.32-12.94 4.93-5.54-14.78 20.32-18.47z"/>
  <path d="M346.58 276l33.82-1.15s0 26.9 1.15 42.27a208.92 208.92 0 010 29.2s-4.61 1.54-6.15 4.61a37.41 37.41 0 00-1.92 4.23s-2.31-2.69-3.84.38-3.46 7.69-4.23 8.84a33.24 33.24 0 00-1.92 3.84s3.07-1.15 5.38-2.3a70.5 70.5 0 006.92-4.61H380l2.31-1.54s-2.31 7.3-2.31 9.6.39 4.61 0 5.77l-1.15 3.46-2.69 43.8-10 3.84-3.46-6.92-1.54 8.07-6.53 3.46-3.46-75.31-4.17 74.15-17.68-3.84v-6.15l-3.46 4.23s.77-10.38-.76-11.53-5.77 0-5.77 0 .39-9.61.39-14.6 1.92-18.06 2.3-23.06-6.53-71.85-6.53-71.85l9.61-25.74z" fill="#34a37e" stroke="#263238" stroke-linecap="round" stroke-linejoin="round"/>
  <path d="M369.25 281.76s-6.14 8.07-6.14 9.22 3.89 6.92 3.89 6.92l-5 13.44m5.33.39l-12.29 8.84-3.85 34.96" fill="none" stroke="#263238" stroke-linecap="round" stroke-linejoin="round"/>
  <path d="M377.4 220.54s9.93 45.5 11.77 52.89 6.93 19.4 6.93 19.4-6.46 5.54-6.46 7.85 6.92 6.93 6.92 6.93a33.35 33.35 0 00-4.61 4.15c-2.08 2.31-4.16 10.16-4.16 10.16s-.93-7.16-1.85-9.7-3.23-.92-2.31-3.92.93-8.08-.46-9.24-8.08-.46-8.08-.46l-.7-26.33S371.16 235.09 367 224s-8.08-24.71-8.08-24.71 7.39 1.15 10.86 2.08 4.38 1.84 4.38 1.84l2.77 6.93" fill="#263238" stroke="#263238" stroke-linecap="round" stroke-linejoin="round"/>
  <path d="M356.38 202.53s12.47 38.57 14.32 49 3.69 20.78 3.69 20.78-.46-31.4.24-36.95.92-11.31.92-11.31l-8.31-2.31 4.61-6.7a120.07 120.07 0 00-7.39-10.62c-2.77-3.24-9-7.16-9-7.16z" fill="#5c5c5c" stroke="#263238" stroke-linecap="round" stroke-linejoin="round"/>
  <path fill="#263238" stroke="#263238" stroke-linecap="round" stroke-linejoin="round" d="M342.76 213.38l7.85 7.86 2.31-.47 2.08-16.16-6.93 3.92-8.78-2.54 3.47 7.39z"/>
  <path fill="#fff" stroke="#263238" stroke-linecap="round" stroke-linejoin="round" d="M344.95 211.25l3.17 2.11 4.84-5.48-6.53-4.85-3.16 4.43 1.68 3.79z"/>
  <path fill="#fff" stroke="#263238" stroke-linecap="round" stroke-linejoin="round" d="M348.12 213.36l18.55-18.76-17.5-3.8-1.26 18.56.21 3.16"/>
  <path d="M331.88 172.89s.64 13.91.64 15.6 15.39 20.87 15.39 20.87l3.79-21.51-17.29-19.39s-2.53.21-2.53 4.43z" fill="#fff" stroke="#263238" stroke-linecap="round" stroke-linejoin="round"/>
  <path d="M362.8 149.33s2.7 7.75 2 12.81 1 7.75 0 11.45a13.68 13.68 0 01-3 5.73s-2 10.11-3.37 11.8-4.38 3-8.08 1a115.24 115.24 0 01-10.79-6.74c-3.37-2.36-4.71-5.06-4.71-6.74a7.4 7.4 0 00-.68-3s-4.38 0-4.38-3 1.69-5.39 3.37-8.08S343.6 151.36 350 148s12.8 1.33 12.8 1.33z" fill="#fff" stroke="#263238" stroke-linecap="round" stroke-linejoin="round"/>
  <path d="M364.14 164.77c0 2.85-1.23 5.16-2.74 5.16s-2.74-2.31-2.74-5.16 1.22-5.17 2.74-5.17 2.74 2.32 2.74 5.17z" fill="#263238" stroke="#263238" stroke-linecap="round" stroke-linejoin="round"/>
  <path d="M359.29 165.72s4.64 6.11 3.16 7.59-5.9.42-5.9.42l1.05-3.37s-.84-5.27-.42-6.12 2.11 1.48 2.11 1.48z" fill="#263238" stroke="#263238" stroke-linecap="round" stroke-linejoin="round"/>
  <path d="M360.77 178.79s-4.85 1.68-9.28-.21-4.43-2.53-4.43-2.53m3.16-.42l-1.26 4.21m5.06-2.95l-1.05 5.06m5.69-4.64l-.85 4.43" fill="none" stroke="#263238" stroke-linecap="round" stroke-linejoin="round"/>
  <circle cx="350.01" cy="166.56" r="5.9" fill="#263238" stroke="#263238" stroke-linecap="round" stroke-linejoin="round"/>
  <path d="M352.33 166.77c0 1.28-.56 2.32-1.26 2.32s-1.27-1-1.27-2.32.57-2.32 1.27-2.32 1.26 1.04 1.26 2.32zm10.05-1.77c0 1.14-.51 2.06-1.13 2.06s-1.12-.92-1.12-2.06.5-2.05 1.12-2.05 1.13.95 1.13 2.05z" fill="#fff"/>
  <path d="M334.16 175.62a7.4 7.4 0 01.68 3c0 1.68 1.34 4.38 4.71 6.74.83.57 1.67 1.15 2.52 1.72a38 38 0 00.78-7.27c0-4-3.17-5.27-4.85-6.74s-.21-7-.21-7l-4.64-1.64c-1.68 2.69-3.37 5.05-3.37 8.08s4.38 3.11 4.38 3.11z" fill="#263238"/>
  <path d="M325.07 166.52s-.34 6.06.33 7.75a32 32 0 003.37 5l4.05-7.07 1.34 3.37s.68-6.74 8.43-13.14 16.17-7.76 20.55-11.12 7.41-8.09 7.08-11.12-6.07-4.72-10.45-4.38a45.86 45.86 0 00-7.07 1s-7.75-6.07-18.87 1.34-13.48 16.24-13.83 22.64a64.89 64.89 0 000 9.44z" fill="#263238" stroke="#263238" stroke-linecap="round" stroke-linejoin="round"/>
  <path d="M338 161.91l-6.93 5 3.93-13.86-7.32 5.78v-3.47l-3.85 5v-5.78l-3.87 8.52a57.72 57.72 0 00.1 7.12l5.06-3.71s-.34 6.06.33 7.75a32 32 0 003.37 5l4.05-7.07 1.34 3.37s.68-6.74 8.43-13.14l-6.87 4.43z" fill="#34a37e" stroke="#263238" stroke-linecap="round" stroke-linejoin="round"/>
  <path fill="#fff" stroke="#263238" stroke-linecap="round" stroke-linejoin="round" d="M344.95 211.25l3.38-13.7-21.08-14.76 2.74 13.5 14.96 14.96z"/>
  <path d="M326.61 199.66s-25.72 10.54-25.72 12.23-3.34 66.17-2.5 68.91 6.16 5.19 7.64 5.61 3.93-.53 3.93-.53-2.11 13.49-3.8 15.81a29.25 29.25 0 01-2.31 2.95s5.27-1.47 6.32 1.06-1.69 10.3-1.69 10.3 3.59-1.48 5.06 3a65.14 65.14 0 012.11 7.8s2.11-11.17 4.43-13.07a21.87 21.87 0 014.85-2.95s-4.43-1.69-2.95-5.69 5.48-8.23 5.48-8.23 2.53 2.11 2.1 10.76a87.89 87.89 0 01-1.89 14.75s3.16-.84 3.37 1.27a72.89 72.89 0 01-.42 8.43s4.43 2.95 4.64 4.64 1.26 7.17 1.26 7.17 1.9-12 3.37-15.39 3.38-8 3.38-8-5.48-2.31-5.48-4.63 6.74-14.34 7.38-14.55 6.74 2.32 7.37 3 .21-27.19.21-27.19L349.59 256 342 220.74s-6.74-13.49-6.95-14.34-5.49-5.9-5.49-5.9z" fill="#263238" stroke="#263238" stroke-linecap="round" stroke-linejoin="round"/>
  <path d="M331 195.44l-5.48 5.06 7.38 26.14 6.95.42-3.58 9.28L352.75 277s-3.37-42.17-5.9-54.18-7.38-19.82-9.7-22.77a18.25 18.25 0 00-6.15-4.61z" fill="#5c5c5c" stroke="#263238" stroke-linecap="round" stroke-linejoin="round"/>
  <path d="M311.89 214.4s8.34 10.53 10 17 1.49 8.77 1.49 8.77-7.93 42.55-9.71 43.9a7.28 7.28 0 01-3.7 1.43" fill="none" stroke="#263238" stroke-linecap="round" stroke-linejoin="round"/>
  <path d="M323.56 222.64s1.86 6.47 1.8 10.27-2.63 7.21-2 7.25" fill="none" stroke="#263238" stroke-linecap="round" stroke-linejoin="round"/>
  <path d="M297.3 258.46l-9-11.3s-1.28-7.7-2.31-9.76-4.36-5.65-5.39-7.19-2.63-5.91-4.07-5.13-1.89 3.74-.61 6a10.16 10.16 0 003.14 3.45l-8.73-2.31s-2-2.57-2-3.85 0-4.37-.77-4.62-1.8 1.54-2.06 6.93 1 10.52 2.83 13.09 14.08 8.23 14.08 8.23l8.73 18.23 8.47-8z" fill="#fff" stroke="#263238" stroke-linecap="round" stroke-linejoin="round"/>
  <path d="M274.23 235.75l-4.67-1.75s-.32-6.39-1.1-8.11-2.49 0-2.49 0a36.84 36.84 0 00-.52 5.32 20.07 20.07 0 00.29 3.74" fill="#fff" stroke="#263238" stroke-linecap="round" stroke-linejoin="round"/>
  <path d="M265.66 229.36s1.09-3.12 2-1.09 1.56 9.2 1.56 9.2l5.3 1.87" fill="#fff" stroke="#263238" stroke-linecap="round" stroke-linejoin="round"/>
  <path d="M265.81 236.84s0-4.83 1.25-4.52 1.4 3.12 1.4 4.06a29 29 0 001.1 4.36s4.36.93 6.85 1.4 6.08 3 6.24 3.59" fill="#fff" stroke="#263238" stroke-linecap="round" stroke-linejoin="round"/>
  <path d="M313.33 272.39l-15.18-14.13-10.54 10.55s7.38 10.11 10.54 14.33 11.18 4.22 14.55 1.9 3.79-10.12 3.79-10.12" fill="#263238" stroke="#263238" stroke-linecap="round" stroke-linejoin="round"/>
  <path d="M298.15 254.47a69.65 69.65 0 01-7.16 8 58.28 58.28 0 01-8.65 5.48l6.12 8.43s7-.21 11.38-4 5.69-12 5.69-12z" fill="#fff" stroke="#263238" stroke-linecap="round" stroke-linejoin="round"/>
  <path fill="#263238" stroke="#263238" stroke-linecap="round" stroke-linejoin="round" d="M350.61 221.24l2.54 41.33 10.16 15.24 3.69-18.93-14.08-38.11-2.31.47z"/>
  <path d="M178 205.77s15.4 11.08 26.18 20.63 15.7 18.16 17.24 26.48 1.54 23.4 1.54 23.4h-11.7s-2.77-3.08-2.77-8.93-4.62-16-8.63-20-10.77-7.39-10.77-7.39l-14.47-32.63s.6-4.95 3.38-1.56z" fill="#34a37e" stroke="#263238" stroke-linecap="round" stroke-linejoin="round"/>
  <path d="M221.64 263.07s15.76-3.07 26.67-3.65 29.43 15.36 37.81 19.72 5.92 7.12 2.41 7.9-26.39 1.27-33.95-.89-20.62-11-23-11.71-5-1.65-5-1.65" fill="#34a37e" stroke="#263238" stroke-linecap="round" stroke-linejoin="round"/>
  <path d="M226.3 268s20.24-7.75 29.48-2.93 32.22 17.39 28.25 19-22.29 2.9-29.81-1S226.3 268 226.3 268z" fill="#fff" stroke="#263238" stroke-linecap="round" stroke-linejoin="round"/>
  <circle cx="205.09" cy="276.89" r="30.79" transform="rotate(-76.2 205.083 276.896)" fill="#34a37e" stroke="#263238" stroke-linecap="round" stroke-linejoin="round"/>
  <path d="M197.08 288.9s7.39-16.93 13.55-14.16-1.23 14.47-5.85 19.09zm10.97 7.72s10.33-15.32 15.89-11.48-5.78 14.84-11.15 18.54z" fill="#263238" stroke="#263238" stroke-linecap="round" stroke-linejoin="round"/>
  <ellipse cx="201.09" cy="299.83" rx="12.93" ry="11.24" fill="#fff" stroke="#263238" stroke-linecap="round" stroke-linejoin="round"/>
  <path d="M209.2 293.18c2.06 1.49 2.72 4.1 1.48 5.82s-3.94 1.91-6 .41-2.73-4.11-1.48-5.83 3.93-1.9 6-.4z" fill="#34a37e" stroke="#263238" stroke-linecap="round" stroke-linejoin="round"/>
  <path d="M204.68 299.41s-.21 4-6.06 5.81-9.23-5.23-5.85-10.16m5.85 10.16s-2.77 3.08 2.47 5.85" fill="none" stroke="#263238" stroke-linecap="round" stroke-linejoin="round"/>
  <path d="M206.32 249.8s8.62-13.55 15.7-21.86 31.41-10.78 40.34-13.86 9.24.62 7.39 3.69-17.24 20-24 24-22.17 7.39-24.32 8.62-4.62 2.47-4.62 2.47" fill="#34a37e" stroke="#263238" stroke-linecap="round" stroke-linejoin="round"/>
  <path d="M213.09 249.8s8.32-20 18.17-23.4 34.8-11.4 33.26-7.39-13.24 18.16-21.25 20.93-30.18 9.86-30.18 9.86zM142.2 421l.85 10.43s-2.09 11.74-3.4 15.92-1.3 6 .52 7.57h15.67a5.67 5.67 0 001.82-3.92c0-2.35-2.09-5.74-2.09-5.74l-2.34-13.57.71-11.47z" fill="#fff" stroke="#263238" stroke-linecap="round" stroke-linejoin="round"/>
  <path d="M157.66 451c0-2.35-2.09-5.74-2.09-5.74l-2.34-13.57v-.43L143 431v.35s-2.09 11.75-3.4 15.93-1.3 6 .52 7.57h15.67a5.67 5.67 0 001.87-3.85z" fill="#263238" stroke="#263238" stroke-linecap="round" stroke-linejoin="round"/>
  <path d="M156 445.88a44.88 44.88 0 00-7.68-.92 18.15 18.15 0 00-8.47 1.86c-.05.17-.1.34-.15.49-1.3 4.17-1.3 6 .52 7.57h15.67a5.67 5.67 0 001.82-3.92 12.65 12.65 0 00-1.71-5.08zm2.64-28.57l1 15.14 1 22.45h32.46s2.61-2.09-1.83-6.27-11-3.65-11-3.65-6-5.22-7.05-9.4-2.87-3.92-2.87-3.92l1.65-14.09z" fill="#fff" stroke="#263238" stroke-linecap="round" stroke-linejoin="round"/>
  <path d="M191.27 448.63c-4.44-4.18-11-3.65-11-3.65s-6-5.22-7.05-9.4c-.58-2.32-1.4-3.27-2-3.65h-11.57v.52l1 22.45h32.45s2.61-2.09-1.83-6.27z" fill="#263238" stroke="#263238" stroke-linecap="round" stroke-linejoin="round"/>
  <path d="M178 448.11a14.36 14.36 0 01-.26 3.13h-17.18l.17 3.66h32.37s2.61-2.09-1.83-6.27-11-3.65-11-3.65S178 446 178 448.11zm-8.66-10.18a3.52 3.52 0 11-3.52-3.66 3.58 3.58 0 013.52 3.66z" fill="#fff" stroke="#263238" stroke-linecap="round" stroke-linejoin="round"/>
  <ellipse cx="127.86" cy="310.53" rx="15.67" ry="16.67" fill="#fff" stroke="#263238" stroke-linecap="round" stroke-linejoin="round"/>
  <path d="M188.35 224.46S196 248.18 196 268.1a157.91 157.91 0 01-5.28 38.36s-3.51 24-3.51 24.89-9.08 84.37-9.08 84.37a9.47 9.47 0 01-5.27 5.86c-4.39 2.05-14.35-1.47-14.35-1.47s-5.27 5.27-10.25 4.69-10-1.47-11.13-6.15-8.78-66.51-10.25-85.54-2.93-69.7-2.93-74.09-4.39-29 2-38.95 17.28-13.47 17.28-13.47 17.28-3.52 23.43-3.52 12.59 2 17.86 10" fill="#34a37e" stroke="#263238" stroke-linecap="round" stroke-linejoin="round"/>
  <ellipse cx="168.29" cy="272.28" rx="25.4" ry="50.5" fill="#fff" stroke="#263238" stroke-linecap="round" stroke-linejoin="round"/>
  <path d="M148.34 193.82s-4.4 1.47-4.4 3.82 1.17 3.52.88 4.41-4.41 4.11-2.06 6.75 9.1 3.82 17.91 3.23 12.63-5.58 12-7.34-.88-2.64-.88-2.64.3-5.29-.59-7.05-11.74-4.11-14.68-4.41-8.18 3.23-8.18 3.23z" fill="#fff" stroke="#263238" stroke-linecap="round" stroke-linejoin="round"/>
  <path d="M180.67 148.68a38.76 38.76 0 00.58-6.76c0-3.82-2.64-3.24-5.58-2.35s-12.36-1.18-20.3-1.77-11.76 2.06-14.7 4.71-13.83 12.06-14.12 15.29-1.18 18.24 2.06 20.3 8.23 7.35 8.23 8.82-3.53 3.82-3.53 3.82 4.12 2.35 5.89 2.65 3.53-2.06 3.53-2.06l-3.24 4.12s4.41.88 5.59.88 6.76-3.53 6.76-3.53l-.29-10.59s8.82.3 9.7-5.59.59-11.17 2.36-12.35 10.88-1.76 10.88-1.76l5 4.7s5.59-4.41 4.71-10a17.71 17.71 0 00-3.53-8.53z" fill="#263238" stroke="#263238" stroke-linecap="round" stroke-linejoin="round"/>
  <path d="M170.37 149.57s-3.23 4.41-6.76 8.82-9.41 6.18-9.41 6.18a12.14 12.14 0 00.88 6.47c1.47 3.53 1.76 4.41 1.76 4.41l-5.84-1.18.88 4.12-4.7-1.77-2.94-2.35s.88 7.94 3.23 10.88l-.29 11.18s-1.47 1.18 6.76 2.94 12.06-1.76 12.06-1.76l1.47-5.3s5.3.88 7.35-1.76S178 176.33 178 171a128.45 128.45 0 00-1.47-14.71s-3.24 2.06-4.41 2.06H171z" fill="#fff" stroke="#263238" stroke-linecap="round" stroke-linejoin="round"/>
  <path fill="#263238" stroke="#263238" stroke-linecap="round" stroke-linejoin="round" d="M167.43 192.21l-7.35-2.35 5.82 7.37 1.53-5.02z"/>
  <path d="M174.09 167.25l-.3 3.23s5.41 3.79 4.23 5.85-5 1.47-5.88 1.18m2.06 4.11s-3.24 2.95-7.65-.58" fill="none" stroke="#263238" stroke-linecap="round" stroke-linejoin="round"/>
  <ellipse cx="167.28" cy="168.68" rx="1.32" ry="2.35" fill="#263238"/>
  <ellipse cx="176.11" cy="168.68" rx="1.32" ry="2.35" fill="#263238"/>
  <path d="M164.32 164.74a3.86 3.86 0 014.46-1.72m5.22.86s1.2-2.49 3.61 1" fill="none" stroke="#263238" stroke-linecap="round" stroke-linejoin="round"/>
  <path d="M149.49 179.57s-2.06-5.59-4.71-7.36-6.17-1.47-4.7 4.41 4.41 10.3 8.82 8.24" fill="#fff" stroke="#263238" stroke-linecap="round" stroke-linejoin="round"/>
  <path d="M138 208.94a31.73 31.73 0 00-15.52 11.71c-5.86 8.79-12.06 35-14.7 47.9s-1.46 21.67 4.39 23.13 10.55 1.46 13.77-7.61 14.7-44.67 14.7-44.67" fill="#34a37e" stroke="#263238" stroke-linecap="round" stroke-linejoin="round"/>
  <path fill="#fff" stroke="#263238" stroke-linecap="round" stroke-linejoin="round" d="M149.93 258.88l7.03-1.76 2.34 8.79-8.49 4.69-.88-11.72z"/>
  <path d="M120.06 267.08s25.77-9.37 28.41-9.37 5.27 7.32 4.68 12.3-28.7 20.79-34.55 22.55-11.72.29-10.84-9.37m71.22-15.63h-13.05l-2.53-25.95h18.12l-2.54 25.95z" fill="#34a37e" stroke="#263238" stroke-linecap="round" stroke-linejoin="round"/>
  <path d="M163.6 242.84h17.51a1.44 1.44 0 001.44-1.44h0a1.45 1.45 0 00-1.44-1.44H163.6a1.45 1.45 0 00-1.44 1.44h0a1.44 1.44 0 001.44 1.44zm-6.6 14.28s4.58-8.3 5.82-8.92 15.86-1 16.27.62-1 4.32-1 4.32a43 43 0 01-.21 4.53 7.39 7.39 0 01-1.85 2.88 7.29 7.29 0 01-1 3.09c-.82 1-4.12 1.45-6 1.86a44.06 44.06 0 01-7 .2l-2.66.21z" fill="#fff" stroke="#263238" stroke-linecap="round" stroke-linejoin="round"/>
  <path fill="none" stroke="#263238" stroke-linecap="round" stroke-linejoin="round" d="M158.48 420.11l2.54-51.98"/>
  <path d="M161 368.13s.82-27 .82-28.15 13.86-13.09 13.86-13.09l-10.43 17.22z" fill="#263238" stroke="#263238" stroke-linecap="round" stroke-linejoin="round"/>
</svg>
