<svg xmlns="http://www.w3.org/2000/svg" viewBox="0 0 500 500">
  <path d="M333.14 358v116.2l143.41.06c2.55-5.82 2.48-14.12-.92-19.49a19.81 19.81 0 00-15.92-9 30.63 30.63 0 00-27-39.16 33.45 33.45 0 00-44.4-36.05A32.86 32.86 0 00333.14 358m-292.4 98.11a42.78 42.78 0 0110.86-42.25 42.79 42.79 0 0142.54-9.63A44.93 44.93 0 01163.92 366c7.62-14.56 27.86-20.81 42.37-13.1s20.63 28 12.81 42.46a29.2 29.2 0 0129.29 47.23c23.72-10.46 54.9 10.56 54.11 36.47l-288.07-.83c2.06-3.85 9.16-21.43 26.31-22.12z" fill="#e0e0e0"/>
  <path fill="#f5f5f5" d="M368 216.27h28.96v223.62H368z"/>
  <path d="M350.68 77.23a4.31 4.31 0 00-6.78-.2 29.91 29.91 0 00-7.17 18.84v104.56h19.18s1.21-90.77 1.21-104.56a31.35 31.35 0 00-6.44-18.64z" fill="#e0e0e0"/>
  <path d="M356.83 157.47c0 .11-4.36.2-9.75.2s-9.74-.09-9.74-.2 4.36-.2 9.74-.2 9.75.09 9.75.2zm0 12.14c0 .11-4.36.2-9.75.2s-9.74-.09-9.74-.2 4.36-.2 9.74-.2 9.75.09 9.75.2zm0-72.83c0 .11-4.36.2-9.75.2s-9.74-.09-9.74-.2 4.36-.2 9.74-.2 9.75.09 9.75.2zm0 12.14c0 .11-4.36.2-9.75.2s-9.74-.09-9.74-.2 4.36-.2 9.74-.2 9.75.09 9.75.2zm0 12.14c0 .11-4.36.2-9.75.2s-9.74-.09-9.74-.2 4.36-.2 9.74-.2 9.75.14 9.75.2zm0 12.14c0 .11-4.36.19-9.75.19s-9.74-.08-9.74-.19 4.36-.2 9.74-.2 9.75.09 9.75.2zm0 12.13c0 .11-4.36.2-9.75.2s-9.74-.09-9.74-.2 4.36-.19 9.74-.19 9.75.08 9.75.19z" fill="#ebebeb"/>
  <path d="M421.09 77.68a4.31 4.31 0 00-6.78-.2 29.8 29.8 0 00-7.17 18.83v104.57h19.18s1.2-90.78 1.2-104.57a31.34 31.34 0 00-6.43-18.63z" fill="#e0e0e0"/>
  <path d="M427.2 97.22c0 .11-4.36.2-9.74.2s-9.75-.09-9.75-.2 4.36-.19 9.75-.19 9.74.08 9.74.19zm0 12.14c0 .11-4.36.2-9.74.2s-9.75-.09-9.75-.2 4.36-.2 9.75-.2 9.74.09 9.74.2zm0 12.14c0 .11-4.36.2-9.74.2s-9.75-.09-9.75-.2 4.36-.2 9.75-.2 9.74.09 9.74.2zm0 12.14c0 .11-4.36.2-9.74.2s-9.75-.09-9.75-.2 4.36-.2 9.75-.2 9.74.09 9.74.2zm0 12.14c0 .11-4.36.2-9.74.2s-9.75-.09-9.75-.2 4.36-.2 9.75-.2 9.74.09 9.74.2zm0 12.14c0 .11-4.36.2-9.74.2s-9.75-.09-9.75-.2 4.36-.2 9.75-.2 9.74.09 9.74.2zm0 12.14c0 .11-4.36.2-9.74.2s-9.75-.09-9.75-.2 4.36-.2 9.75-.2 9.74.14 9.74.2z" fill="#ebebeb"/>
  <path d="M389.37 42.5c-4.17-3.15-10.06-2.6-14.14.79-12.13 10.08-18.11 25.17-18.11 37.12v135.08h47.8s3-115.77 3-135.08c0-11.73-7.92-29.88-18.55-37.91z" fill="#f5f5f5"/>
  <path d="M389.37 42.5l.7.55c.44.39 1.17.9 2 1.72a42.49 42.49 0 016.47 7.81 63.23 63.23 0 017 14.51 49.26 49.26 0 012.27 9.91c.05.45.12.9.14 1.35l.06 1.38c.06.93 0 1.87 0 2.82 0 1.9 0 3.85-.06 5.84-.49 32-1.58 76.6-2.85 127.15v.19h-48.2V85.17c0-2.28 0-4.49.07-6.67a46.62 46.62 0 012.39-12.13 51.31 51.31 0 014.6-10A50.74 50.74 0 01375.44 43a12.49 12.49 0 015.84-2.54 11.46 11.46 0 014.66.27 11.28 11.28 0 012.63 1.16l.8.57-.82-.53a10.75 10.75 0 00-7.26-1.36 12.5 12.5 0 00-5.76 2.54 51.2 51.2 0 00-11.32 13.3 52.39 52.39 0 00-4.55 10 46.82 46.82 0 00-2.35 12.07v137l-.19-.2h47.8l-.19.2c1.28-50.55 2.42-95.16 3-127.14 0-2 0-3.95.07-5.84 0-1 .05-1.89 0-2.81l-.06-1.37c0-.45-.09-.9-.13-1.34a49 49 0 00-2.23-9.83 58.64 58.64 0 00-3.38-8.1 60.17 60.17 0 00-3.62-6.39 42.23 42.23 0 00-6.4-7.83 25.37 25.37 0 00-2-1.75z" fill="#e0e0e0"/>
  <path d="M379.74 44.28s-18.4 14.78-18.55 34.59v52.81h7.88l-.48-46s-1-8.74 3.75-24.11a94 94 0 017.4-17.29z" fill="#fff"/>
  <path d="M407 85.68c0 .11-11 .2-24.49.2s-24.5-.09-24.5-.2 11-.2 24.5-.2 24.49.09 24.49.2zm0 18.38c0 .11-11 .19-24.49.19s-24.5-.08-24.5-.19 11-.2 24.5-.2 24.49.14 24.49.2zm0 18.37c0 .11-11 .2-24.49.2s-24.5-.09-24.5-.2 11-.19 24.5-.19 24.49.08 24.49.19zm0 18.38c0 .11-11 .2-24.49.2s-24.5-.09-24.5-.2 11-.2 24.5-.2 24.49.09 24.49.2zm-68.33 73.35h12.55v8.14h-12.55z" fill="#e0e0e0"/>
  <path d="M335.09 226.75a4.87 4.87 0 011.75-3.82l1.83-1.76 12.55.15 1.11 1a5.28 5.28 0 012 3.57v.18z" fill="#e0e0e0"/>
  <rect x="333.8" y="226.05" width="22.05" height="2.22" rx=".95" fill="#e0e0e0"/>
  <path fill="#f5f5f5" d="M323.13 212.53v-23.61l31.9-31.29 13.6-42.59v103.81l-45.5-6.32z"/>
  <path fill="#ebebeb" d="M323.13 204.73l45.49 6.05v8.07l-45.49-6.32v-7.8z"/>
  <path d="M323.13 212.52l.82.1 2.38.32 9.1 1.22 33.22 4.54-.17.15c0-22.65 0-52.64-.05-85.43V115l.39.06c-4.89 15.27-9.48 29.64-13.62 42.58l-32 31.25v-.08c0 7.45 0 13.33-.06 17.37v.06c0-4 0-10-.06-17.43l31.86-31.34v.07l13.5-42.54.39-1.21v19.65c0 32.79 0 62.78-.05 85.43v.13h-.17l-33.28-4.71-9.06-1.29-2.35-.35zm88.45 1.64h12.55v8.14h-12.55z" fill="#e0e0e0"/>
  <path d="M408 226.75a4.89 4.89 0 011.76-3.82l1.83-1.76 12.54.15 1.11 1a5.3 5.3 0 012 3.57v.18z" fill="#e0e0e0"/>
  <rect x="406.71" y="226.05" width="22.05" height="2.22" rx=".95" fill="#e0e0e0"/>
  <circle cx="412.8" cy="202.24" r="1.07" fill="#ebebeb"/>
  <path d="M397.14 102.61c-.08-6.49-3.65-12.23-7.27-17.84a16.69 16.69 0 00-4.18-4.64 4.87 4.87 0 00-5.67 0 16.69 16.69 0 00-4.13 4.62c-3.61 5.61-7.19 11.35-7.26 17.84-.09 7.6 0 116.24 0 116.24h28.51s.08-108.62 0-116.22z" fill="#f5f5f5"/>
  <path d="M390.86 86.56a19.7 19.7 0 00-4.78-5.6 5.28 5.28 0 00-6.45 0 20.17 20.17 0 00-4.71 5.58 54.7 54.7 0 00-5.66 12l27.22-.09a52.21 52.21 0 00-5.62-11.89z" fill="#ebebeb"/>
  <path d="M396.48 97.88c0 .11-6.09.22-13.61.25s-13.61 0-13.61-.16 6.09-.22 13.61-.24 13.61.04 13.61.15zM373 95.52a.52.52 0 11-.52-.52.51.51 0 01.52.52zm4.9 0a.52.52 0 11-.52-.52.51.51 0 01.52.52zm4.92 0a.52.52 0 11-.52-.52.51.51 0 01.52.52zm4.92 0a.52.52 0 11-.52-.52.51.51 0 01.52.52zm4.92 0a.52.52 0 11-.52-.52.51.51 0 01.52.52z" fill="#e0e0e0"/>
  <path d="M397.14 102.61v8.72c0 5.66 0 13.89.06 24.22 0 20.67 0 49.73.07 83.3v.15h-28.9V102.97a24 24 0 012.93-10.88c.82-1.62 1.71-3.14 2.62-4.6s1.77-2.88 2.75-4.19a15 15 0 013.36-3.35 5 5 0 014.36-.54 5.75 5.75 0 011.84 1.09 14.19 14.19 0 011.48 1.41 22.29 22.29 0 012.41 3.09c1.32 2.07 2.5 4 3.46 5.75a28.23 28.23 0 013.27 8.66c.09.53.16 1 .19 1.39a8.72 8.72 0 01.08 1v.82s0-.28-.06-.82a9.21 9.21 0 00-.1-1 12.65 12.65 0 00-.21-1.38 28.47 28.47 0 00-3.32-8.6c-1-1.77-2.16-3.67-3.49-5.72a22.17 22.17 0 00-2.3-3 14.87 14.87 0 00-1.47-1.38 5.47 5.47 0 00-1.77-1.05 4.79 4.79 0 00-4.15.52 15 15 0 00-3.3 3.31c-1 1.3-1.81 2.74-2.73 4.19s-1.78 3-2.59 4.57a23.81 23.81 0 00-2.85 10.74v115.87l-.2-.2h28.51l-.19.19c0-33.57.05-62.63.07-83.3 0-10.33 0-18.56.05-24.22v-8.15c0-.38.12-.58.12-.58z" fill="#e0e0e0"/>
  <path d="M382.52 109.11a7.35 7.35 0 00-7.35 7.34h14.69a7.34 7.34 0 00-7.34-7.34zm-15.03 117.51a6.71 6.71 0 012.77-5.38l3.19-2.39h20.2l2.8 2.2a6.72 6.72 0 012.61 5.27v.3z" fill="#e0e0e0"/>
  <rect x="365.39" y="226.62" width="36.18" height="3.64" rx="1.56" fill="#e0e0e0"/>
  <path d="M383.13 220.93H364.8v-18.15a8.91 8.91 0 018.9-8.9h.53a8.91 8.91 0 018.9 8.9z" fill="#ebebeb"/>
  <path d="M383.13 220.93a1 1 0 010-.23v-3.08c0-2.13 0-5.16-.07-8.89v-6.11a8.65 8.65 0 00-2.73-6.16 8.84 8.84 0 00-3.18-1.91 9.5 9.5 0 00-3.85-.45 8.69 8.69 0 00-6.8 4 8.34 8.34 0 00-1.3 2.9 13.67 13.67 0 00-.2 3v16.87l-.17-.16 13.26.08 3.72.05h1.36a1.14 1.14 0 01-.32 0h-4.69l-13.36.09h-.16v-17.04a14.76 14.76 0 01.2-3.16 8.76 8.76 0 011.24-3 9.09 9.09 0 017.12-4.16 10 10 0 014 .48 9.05 9.05 0 013.3 2 8.91 8.91 0 012.81 6.41v6.19c0 3.74-.05 6.78-.07 8.91v3.02a1.23 1.23 0 01-.11.35z" fill="#e0e0e0"/>
  <path fill="#f5f5f5" d="M442.67 212.53v-23.61l-31.9-31.29-13.59-42.59v103.81l45.49-6.32z"/>
  <path fill="#ebebeb" d="M397.14 218.85l.04-7.06 45.49-5.76v6.5l-45.53 6.32z"/>
  <path d="M442.67 212.52l-.79.13-2.35.35-9 1.29L397.2 219h-.18V113.77l.38 1.21c4.87 15.28 9.45 29.65 13.58 42.59l-.05-.07 31.86 31.34c0 7.47-.05 13.38-.07 17.43v-.06c0-4 0-9.92-.06-17.37v.08l-31.94-31.25c-4.13-12.94-8.73-27.31-13.61-42.58l.38-.06v103.81l-.18-.15 33.22-4.54 9.1-1.22 2.38-.32z" fill="#e0e0e0"/>
  <path d="M401.57 220.93h-18.32v-18.15a8.9 8.9 0 018.9-8.9h.53a8.9 8.9 0 018.89 8.9z" fill="#ebebeb"/>
  <path d="M401.57 220.93a2.07 2.07 0 010-.23v-3.08c0-2.13 0-5.16-.07-8.89v-6.11a8.69 8.69 0 00-2.73-6.16 8.84 8.84 0 00-3.18-1.91 9.52 9.52 0 00-3.85-.45 8.71 8.71 0 00-8 6.86 14.28 14.28 0 00-.19 3.07v16.87l-.17-.16 13.26.08 3.72.05h1.35a1 1 0 01-.31 0h-4.69l-13.36.09h-.16v-17.04a14.16 14.16 0 01.21-3.16 8.56 8.56 0 011.24-3 9.08 9.08 0 017.11-4.16 10 10 0 014 .48 9.06 9.06 0 016.12 8.42v6.19c0 3.74-.06 6.78-.07 8.91v3.02c0 .16-.22.32-.23.31zm-4.7-82.43c0 .11-6.26.2-14 .2s-14-.09-14-.2 6.27-.2 14-.2 14 .09 14 .2zm0 30.12c0 .11-6.26.2-14 .2s-14-.09-14-.2 6.27-.19 14-.19 14 .08 14 .19z" fill="#e0e0e0"/>
  <path d="M383.48 109.17l-6.1 7.28h4.2l4.86-6.2a9.09 9.09 0 00-2.96-1.08z" fill="#fff" opacity=".3"/>
  <path d="M464.45 458.36a33.1 33.1 0 00-35.66-39.45 23.18 23.18 0 00-32.79-22c-3.53-15.6-22.12-24.49-37.76-21.1s-27.81 16.19-34.86 30.57a48.31 48.31 0 00-59 47.09c-17.54-3.72-37 5.89-44.75 22.07L481 477.85c2.46-9.65-6.62-20.36-16.55-19.49z" fill="#f5f5f5"/>
  <path d="M174.71 231.12a26.82 26.82 0 016.61-2.87l1.36-6.54 11-.2 1.58 6.49a26.93 26.93 0 016.71 2.64l5.63-3.64 8 7.67-3.46 5.71A27.13 27.13 0 01215 247l6.53 1.36.2 11.05-6.53 1.59a27.37 27.37 0 01-2.63 6.7l3.66 5.58-7.68 7.95-5.7-3.46a27.2 27.2 0 01-6.61 2.87l-1.36 6.54-11 .19-1.59-6.48a27 27 0 01-6.7-2.64l-5.59 3.62-8-7.67 3.46-5.71a27 27 0 01-2.87-6.61l-6.54-1.36-.19-11 6.48-1.59a27.25 27.25 0 012.64-6.7l-3.66-5.59 7.68-7.94 5.7 3.46zm5.89 14.71a11.85 11.85 0 1016.76-.29 11.86 11.86 0 00-16.76.29z" fill="#ebebeb"/>
  <path d="M326.12 290a18.13 18.13 0 014.48-2l.92-4.43 7.48-.13 1.08 4.39a18.58 18.58 0 014.54 1.79l3.79-2.48 5.38 5.2-2.34 3.87a18.31 18.31 0 011.94 4.48l4.43.92.13 7.48-4.39 1.08a18.19 18.19 0 01-1.79 4.54l2.48 3.78-5.2 5.39-3.87-2.34a18.41 18.41 0 01-4.47 1.94l-.92 4.43-7.49.13-1.08-4.39a18.34 18.34 0 01-4.54-1.79l-3.78 2.48-5.39-5.2 2.35-3.87a18.06 18.06 0 01-1.95-4.47l-4.43-.93-.13-7.48 4.4-1.08a18.31 18.31 0 011.78-4.54l-2.48-3.77 5.2-5.39 3.87 2.35zm4 10a8 8 0 1011.36-.2 8 8 0 00-11.37.2zm-73.18-75.16a18.41 18.41 0 014.47-1.94l.92-4.43 7.49-.13 1.08 4.39a18.34 18.34 0 014.54 1.79l3.78-2.48 5.39 5.2-2.35 3.86a18.29 18.29 0 011.95 4.48l4.43.92.13 7.49-4.4 1.08a18.46 18.46 0 01-1.78 4.54l2.48 3.78-5.2 5.39-3.87-2.35a18.51 18.51 0 01-4.48 1.95l-.92 4.43-7.48.13-1.08-4.4a18.16 18.16 0 01-4.54-1.78l-3.79 2.48-5.38-5.2 2.34-3.87a18.48 18.48 0 01-1.94-4.48l-4.43-.92-.13-7.48 4.39-1.08a18.19 18.19 0 011.79-4.54l-2.48-3.79 5.2-5.38 3.87 2.34zm4 10a8 8 0 1011.35-.2 8 8 0 00-11.36.17z" fill="#e0e0e0"/>
  <path d="M79.33 199.06a7.85 7.85 0 00-10-9.73 8.41 8.41 0 00-13.08-7.16 5.86 5.86 0 10-10.35 5.5 5.48 5.48 0 00-5.49 8.86c-4.45-2-10.3 2-10.15 6.84l54-.16c-.39-.72-1.72-4.02-4.93-4.15zm126.51-74.45a7.85 7.85 0 00-10-9.73 8.43 8.43 0 00-13.09-7.16 5.86 5.86 0 10-10.34 5.5 5.48 5.48 0 00-5.5 8.86c-4.44-2-10.29 2-10.14 6.84l54-.16c-.38-.76-1.71-4.02-4.93-4.15z" fill="#ebebeb"/>
  <path d="M100.21 56.48a7.84 7.84 0 00-10-9.72 8.42 8.42 0 00-13.08-7.17 5.86 5.86 0 10-10.35 5.5A5.48 5.48 0 0061.27 54c-4.45-2-10.29 2-10.14 6.84l54-.16c-.37-.77-1.71-4.07-4.92-4.2zm360.45 214.29a7.84 7.84 0 00-10-9.72 8.43 8.43 0 00-13.09-7.17 5.86 5.86 0 10-10.34 5.5 5.48 5.48 0 00-5.49 8.86c-4.45-2-10.3 2-10.15 6.84l54-.16c-.38-.72-1.71-4.02-4.93-4.15z" fill="#f5f5f5"/>
  <path d="M467.57 477.73c0 .14-98.31.26-219.56.26s-219.58-.12-219.58-.26 98.29-.26 219.58-.26 219.56.12 219.56.26z" fill="#263238"/>
  <path d="M52 461.77a30.06 30.06 0 0138.32-37.27 32.28 32.28 0 0150.13-27.5c5.47-10.45 20-15 30.43-9.41s14.82 20.11 9.2 30.5a21 21 0 0121 33.93c17-7.51 39.44 7.58 38.87 26.2l-206.93-.6c1.52-2.73 6.62-15.36 18.98-15.85z" fill="#fff"/>
  <path d="M52 461.77l-1.66.2a17.69 17.69 0 00-4.74 1.38 19.29 19.29 0 00-6.43 4.88 38.37 38.37 0 00-6 9.48l-.1-.16L240 478l-.26.25a23.58 23.58 0 00-1.74-9.45 27.75 27.75 0 00-5.29-8.31 31.5 31.5 0 00-17.37-9.71 24.37 24.37 0 00-14.11 1.51l-1 .46.73-.86a20.73 20.73 0 00-20.78-33.52l-.55.14.27-.5a22.43 22.43 0 001.08-17.77 21.71 21.71 0 00-11.35-12.93 22.57 22.57 0 00-16.65-.41 22.08 22.08 0 00-12.29 10.25l-.12.22-.21-.14A32.68 32.68 0 00122 392a31.44 31.44 0 00-17.08 5.2A32.84 32.84 0 0094 409.68a32.46 32.46 0 00-3.47 14.82v.24l-.22-.08a30.23 30.23 0 00-14.45-1.07 30.79 30.79 0 00-6.43 1.81 28.22 28.22 0 00-5.54 2.91 28.53 28.53 0 00-7.89 7.87 31.45 31.45 0 00-4.91 21.23 30.41 30.41 0 00.64 3.27l.27 1.09c0-.14-.13-.43-.32-1.09a25.25 25.25 0 01-.68-3.25 30.8 30.8 0 01.91-12.82 31.46 31.46 0 013.91-8.55 29.17 29.17 0 0113.5-10.92 31.21 31.21 0 016.49-1.84 30.34 30.34 0 0114.6 1l-.22.16a33.24 33.24 0 0114.52-27.64 31.91 31.91 0 0117.31-5.3 33.13 33.13 0 0118.59 5.3l-.32.08a22.59 22.59 0 0112.53-10.48 23 23 0 0117 .41 22.2 22.2 0 0111.62 13.21 23 23 0 01-1.1 18.17l-.29-.37a21.24 21.24 0 0121.3 34.34l-.31-.4a24.83 24.83 0 0114.41-1.55 32 32 0 0117.67 9.87 28.48 28.48 0 015.38 8.46 24.27 24.27 0 011.78 9.66v.26H240l-206.93-.74h-.17l.08-.16a38.21 38.21 0 016-9.49 19.37 19.37 0 016.51-4.87 16.57 16.57 0 014.77-1.33z" fill="#263238"/>
  <path d="M445.2 457.66a20.56 20.56 0 00-21.8.51 29.15 29.15 0 00-46.95-20.47 27.62 27.62 0 00-44.88-23.63v63.66l123-.39a20.53 20.53 0 00-9.37-19.68z" fill="#fff"/>
  <path d="M445.2 457.66s.44.26 1.28.83a20.36 20.36 0 013.28 3 20.92 20.92 0 013.7 6.18 20.2 20.2 0 011.24 9.68v.11h-.12l-123 .52h-.25V414l.1-.08a28.25 28.25 0 0115.93-6 27.56 27.56 0 0115.9 3.8 28.33 28.33 0 0110.49 11.56 28 28 0 012.94 14.48l-.36-.19a29.8 29.8 0 018.52-4.52 30.5 30.5 0 019.05-1.55 28.23 28.23 0 0116.06 4.43 30 30 0 019.95 10.63 31.33 31.33 0 012.54 5.92 31.76 31.76 0 011.1 5.72l-.2-.09a20.16 20.16 0 019.28-3.28 21.17 21.17 0 017.17.55 20.7 20.7 0 014.13 1.56c.86.49 1.29.76 1.29.76l-.34-.17-1-.53a20.49 20.49 0 00-11.25-2 20 20 0 00-9.16 3.29l-.17.11v-.21a31 31 0 00-1.12-5.65 30.58 30.58 0 00-2.54-5.86 29.71 29.71 0 00-9.87-10.48 27.92 27.92 0 00-15.86-4.33 30.25 30.25 0 00-8.92 1.55 29.27 29.27 0 00-8.38 4.47l-.4.3v-.49a27.46 27.46 0 00-2.92-14.24A27.74 27.74 0 00363 412.1a27.12 27.12 0 00-15.61-3.72 27.76 27.76 0 00-15.64 5.89l.1-.2v63.66l-.26-.26 123-.26-.12.12a20.11 20.11 0 00-1.17-9.58 20.67 20.67 0 00-6.84-9.21l-.93-.65z" fill="#263238"/>
  <path d="M445.08 313.26a10.49 10.49 0 00-7.41-3.73 13.44 13.44 0 00-13.81 17c-6.29-2.28-14 1.51-16.33 7.76s.69 13.95 6.52 17.21 13.72 2 18.52-2.64c3.48 6.67 12.74 9.56 19.4 6s9.47-12.82 5.89-19.44a14.49 14.49 0 002.82-28.08c-6.12-2.1-12.16.37-15.6 5.86z" fill="#fff"/>
  <path d="M445.08 313.26s0-.09.13-.24l.43-.67a14.48 14.48 0 012-2.33 12.63 12.63 0 0110.84-3.33 14.1 14.1 0 017.36 3.68 15.65 15.65 0 014.6 8.48 14.08 14.08 0 01-2.44 10.56 16.28 16.28 0 01-4.3 4.13 14.59 14.59 0 01-5.84 2.19l.2-.37c3 5.58 1.68 13.55-3.64 18.2a13.58 13.58 0 01-10 3.09 15.64 15.64 0 01-9.85-4.49 13.75 13.75 0 01-2.31-3.14l.44.07a16.63 16.63 0 01-15.78 3.91 13.83 13.83 0 01-6.77-4.37 16.56 16.56 0 01-2.17-3.31 17.49 17.49 0 01-1.23-3.68 15.63 15.63 0 01-.24-3.79 13.83 13.83 0 01.78-3.63 13 13 0 014.29-5.63 14.36 14.36 0 016.11-2.73 12.57 12.57 0 016.24.49l-.28.26a13.73 13.73 0 01.16-7.51 13.87 13.87 0 013.4-5.79 13 13 0 014.94-3.12 14.48 14.48 0 014.87-.81 10.28 10.28 0 016.37 2.19 8.39 8.39 0 011.69 1.68l-.43-.43a12 12 0 00-1.34-1.15 10.31 10.31 0 00-6.29-2.05 14.43 14.43 0 00-4.77.84 12.71 12.71 0 00-4.8 3.09 13.51 13.51 0 00-3.27 5.66 13.33 13.33 0 00-.12 7.29l.11.39-.39-.14a12.11 12.11 0 00-6-.44 13.92 13.92 0 00-5.9 2.66 12.66 12.66 0 00-4.11 5.42 13.73 13.73 0 00-.74 3.5 15 15 0 00.25 3.65 17 17 0 001.19 3.55 16.28 16.28 0 002.1 3.19 13.35 13.35 0 006.51 4.19 16.06 16.06 0 0015.3-3.8l.26-.25.19.33a13.35 13.35 0 002.21 3 15.11 15.11 0 009.49 4.34 13.07 13.07 0 009.57-3 15 15 0 004.78-8.43 13.89 13.89 0 00-1.23-9.11l-.17-.32.36-.06a14.2 14.2 0 005.63-2.09 16 16 0 004.18-4 13.6 13.6 0 002.41-10.21 15.24 15.24 0 00-4.44-8.28 13.79 13.79 0 00-7.16-3.65 12.41 12.41 0 00-6.5.59 13.63 13.63 0 00-4.17 2.56 18.45 18.45 0 00-2.71 3.17z" fill="#263238"/>
  <path d="M125.29 138a12.68 12.68 0 00-16.18-15.71A13.6 13.6 0 0088 110.66a9.47 9.47 0 10-16.72 8.89 8.85 8.85 0 00-8.87 14.31c-7.19-3.17-16.63 3.2-16.39 11l87.27-.25c-.65-1.12-2.81-6.45-8-6.61z" fill="#fff"/>
  <path d="M125.29 138l.71.05a7 7 0 012 .55 8.11 8.11 0 012.77 2 16 16 0 012.56 4l.08.16h-.17l-87.24.41h-.26v-.25a11.12 11.12 0 01.76-4.14 12.59 12.59 0 012.3-3.61 13.6 13.6 0 017.54-4.2 10.56 10.56 0 016.16.65l-.31.41a9.11 9.11 0 019.13-14.73l-.28.37c-2.57-4.91-.2-11.35 4.51-13.43a10.1 10.1 0 0112.63 4.31l-.33-.08a13.81 13.81 0 0121.44 11.77l-.22-.16a13.11 13.11 0 0111.32 1.61 12.48 12.48 0 015 7 13.06 13.06 0 01.36 5.43 10.28 10.28 0 01-.31 1.36l-.14.46.1-.45a12.66 12.66 0 00.25-1.39 13 13 0 00-.44-5.36 12.28 12.28 0 00-5-6.84 12.86 12.86 0 00-11.07-1.51l-.22.07v-.24a13.58 13.58 0 00-1.46-6.2 13.35 13.35 0 00-19.39-5.19l-.21.14-.11-.22a9.65 9.65 0 00-12-4.08c-4.43 1.95-6.7 8.14-4.26 12.75l.27.5-.55-.14a8.6 8.6 0 00-8.61 13.9l.72.86-1-.45a10.12 10.12 0 00-5.86-.62 13.08 13.08 0 00-7.24 4A12 12 0 0047 141a10.69 10.69 0 00-.73 3.93l-.25-.25 87.27-.1-.1.16a15.8 15.8 0 00-2.5-4 8.27 8.27 0 00-2.69-2.06 9.52 9.52 0 00-2.71-.68z" fill="#263238"/>
  <path d="M454.86 187.86a10.92 10.92 0 00-13.92-13.54 11.72 11.72 0 00-18.2-10 8.15 8.15 0 10-14.39 7.68 7.62 7.62 0 00-7.64 12.32c-6.19-2.73-14.32 2.75-14.11 9.51l75.12-.22c-.53-.99-2.38-5.61-6.86-5.75z" fill="#fff"/>
  <path d="M454.86 187.86h.62a6.34 6.34 0 011.74.48 7 7 0 012.38 1.76 13.87 13.87 0 012.21 3.45l.06.14h-.15l-75.12.34h-.23v-.21a9.51 9.51 0 01.65-3.56 11 11 0 012-3.11 11.7 11.7 0 016.49-3.62 9.23 9.23 0 015.3.56l-.26.35a7.84 7.84 0 017.86-12.67l-.24.31a8.35 8.35 0 1114.75-7.84l-.28-.08a11.89 11.89 0 0118.45 10.14l-.19-.14a11.35 11.35 0 019.75 1.38 10.76 10.76 0 014.3 6 11.15 11.15 0 01.31 4.67 9.37 9.37 0 01-.26 1.18l-.13.4.09-.4a10.5 10.5 0 00.22-1.19 11.28 11.28 0 00-.38-4.61 10.54 10.54 0 00-4.28-5.9 11.1 11.1 0 00-9.53-1.3l-.19.07v-.21a11.68 11.68 0 00-1.26-5.34 11.89 11.89 0 00-3.94-4.49 11.77 11.77 0 00-12.75 0l-.18.11-.09-.19a8.31 8.31 0 00-10.37-3.51 8.23 8.23 0 00-3.66 11l.23.43-.48-.12a7.4 7.4 0 00-7.41 12l.63.74-.89-.39a8.75 8.75 0 00-5-.53 11.35 11.35 0 00-6.24 3.48 10.26 10.26 0 00-1.89 3 9 9 0 00-.63 3.38l-.22-.21 75.12-.09-.08.14a13.56 13.56 0 00-2.15-3.44 7 7 0 00-2.31-1.78 7.38 7.38 0 00-2.37-.58z" fill="#263238"/>
  <path d="M304.32 54.4a7.91 7.91 0 0110.09-9.81 8.49 8.49 0 0113.18-7.22A5.9 5.9 0 11338 42.92a5.52 5.52 0 015.54 8.92c4.48-2 10.37 2 10.22 6.89l-54.42-.15c.4-.73 1.74-4.05 4.98-4.18z" fill="#fff"/>
  <path d="M304.32 54.4a6 6 0 00-1.67.45 7.15 7.15 0 00-3.21 3.78l-.09-.16h54.42l-.26.24c.11-3.31-2.83-6.41-6.26-7a6.22 6.22 0 00-3.6.38l-1 .45.73-.86a5.26 5.26 0 00-5.27-8.51l-.55.14.26-.5a5.66 5.66 0 10-10-5.32l-.12.22-.21-.14a8.44 8.44 0 00-9.14 0 8.57 8.57 0 00-3.75 7.06v.24l-.23-.08a8 8 0 00-6.85.93 7.68 7.68 0 00-3.1 4.24 8.32 8.32 0 00-.29 3.33c.1.75.23 1.17.21 1.15a5 5 0 01-.3-1.14 8 8 0 01.21-3.39 7.76 7.76 0 013.12-4.41 8.24 8.24 0 017.11-1l-.22.16a8.67 8.67 0 0113.47-7.41l-.32.08A6.14 6.14 0 11338.24 43l-.29-.37a5.77 5.77 0 015.79 9.37l-.3-.41a6.75 6.75 0 013.9-.41 8.55 8.55 0 014.75 2.65 7.74 7.74 0 011.45 2.28 7 7 0 01.49 2.62V59h-.26c-24.34-.08-44.68-.2-54.42-.31h-.17l.07-.16a7.18 7.18 0 013.35-3.77 4.46 4.46 0 011.27-.34z" fill="#263238"/>
  <path d="M194.35 81.14l-5.06 1.75a20.41 20.41 0 112.5-6.88z" fill="#fff"/>
  <path d="M194.35 81.14s-.07-.12-.18-.34-.3-.56-.51-1l-1.94-3.8h.13a.06.06 0 01-.09 0 .07.07 0 010-.08 20.42 20.42 0 00-.76-9.74 21.07 21.07 0 00-3-5.72 20.22 20.22 0 00-12.89-7.85 19.8 19.8 0 00-8.7.4 20.67 20.67 0 00-8.14 4.41 19.77 19.77 0 00-5.47 8 21.22 21.22 0 00-1.19 4.85c-.05.82-.12 1.64-.12 2.46l.06 1.22v.61l.1.6A20.76 20.76 0 00155 84a19.9 19.9 0 006.43 6 20.59 20.59 0 007.68 2.68 20.33 20.33 0 007.35-.36l1.64-.47c.54-.17 1-.4 1.55-.59a19.07 19.07 0 002.78-1.42 20.34 20.34 0 006.82-7l3.75-1.27 1-.32.35-.11-.31.12-1 .35-3.73 1.39a20.23 20.23 0 01-6.79 7 18.94 18.94 0 01-2.8 1.46c-.52.19-1 .43-1.56.6l-1.67.49A20.63 20.63 0 01169 93a21.09 21.09 0 01-7.81-2.69 20.17 20.17 0 01-6.55-6.09 21 21 0 01-3.4-8.89l-.09-.61v-.62l-.06-1.24c0-.83.06-1.67.12-2.5a21.33 21.33 0 011.2-4.94 20.26 20.26 0 015.59-8.2 21.08 21.08 0 018.29-4.48 20.17 20.17 0 018.85-.38 20.86 20.86 0 017.64 3 20.28 20.28 0 015.41 5.07 21.06 21.06 0 013 5.8 20.2 20.2 0 01.69 9.84h-.14a.08.08 0 01.1 0c.81 1.67 1.44 3 1.87 3.86l.47 1a3.57 3.57 0 01.17.21z" fill="#263238"/>
  <path fill="#34a37e" d="M162.76 73.39l2.56-2.74 5.26 4.37 9.69-9.98 2.54 2.56-12.44 12.53-7.61-6.74z"/>
  <path fill="#455a64" d="M197.97 242.25h137.69V477.8H197.97z"/>
  <path d="M183.32 178.15c-.07-.25 8-10.9 8-10.9l-7.14-7.47-8 6.31zm130.23-54.22l1.87 6.52s4 5.94 5.42 6.65c.37.19.73.46 1.07.59 1.27.46 2.94 0 2.6-1.48a1.94 1.94 0 001.95-1.05c.57-1.12-.67-2.48-.67-2.48s1.44.37 2.09-.61c.54-.81-.22-1.88-.22-1.88s.64-1.1.32-1.71a13.38 13.38 0 00-1.58-1.84 38.11 38.11 0 00-2.61-5 14.53 14.53 0 00-3.05-3.06z" fill="#ffbf9d"/>
  <path d="M327.81 130.33c0-.1-.59-.49-1.24-1.13s-1.06-1.26-1.16-1.21a3.52 3.52 0 002.4 2.34zm-1.76 2.54c0-.09-.58-.45-1.22-1s-1.07-1.17-1.16-1.11.22.75.91 1.38 1.42.86 1.47.73zm-5.21-.29a4 4 0 001.4 2.16 6 6 0 002.14 1.43 20.06 20.06 0 00-1.89-1.7c-1.02-.93-1.56-1.93-1.65-1.89z" fill="#ff9a6c"/>
  <path d="M65.91 299.89c-.1.2-1.26 2.4-.94 3.2a1.72 1.72 0 001.32.93 2.78 2.78 0 00.79 1.67 3 3 0 001.79.52l.54.64a1.65 1.65 0 001.55.74 3 3 0 011.82-.14c.86.27 2.66-1.83 3.6-2.8s2.22-2.26 1.57-4.29c-.86-2.74-2-6.28-2-6.28l1.82-5.17-8.92.3-.39 2.25s-1.23.59-2.08 3.13a13.17 13.17 0 00-.47 5.3z" fill="#ae7461"/>
  <path d="M75.44 294.27s2.56 5.89 2.56 6.09-2.51 5.38-3.7 6.17-2.75 1.67-2.75 1.67-1.34-.64-.19-2.61 2.48-3.92 2.48-3.92l-.85-2s-4.37-2.22-3.17-6.59" fill="#ae7461"/>
  <path d="M69.77 293.05a4.73 4.73 0 00-.15.55 3.75 3.75 0 00-.09.68 4.87 4.87 0 000 .93 5.5 5.5 0 00.9 2.35 7.63 7.63 0 002.44 2.2l-.06-.07c.27.65.54 1.33.84 2v-.13c-.62.9-1.26 1.88-1.89 2.91a12.38 12.38 0 00-.92 1.65 2.39 2.39 0 00-.16 1 1.43 1.43 0 00.44 1 2.21 2.21 0 00.29.22h.14l1.5-.91.74-.45a5.89 5.89 0 00.72-.47 7.37 7.37 0 001-1.32c.29-.45.55-.91.81-1.36.49-.89.94-1.76 1.33-2.58.09-.21.18-.41.28-.61l.06-.16a.38.38 0 000-.1.5.5 0 000-.12l-.11-.32c-.16-.39-.32-.76-.46-1.12-.6-1.42-1.11-2.56-1.46-3.34l-.42-.9a1.49 1.49 0 00-.16-.3 1.69 1.69 0 00.11.32c.09.25.21.55.36.93.34.83.8 2 1.37 3.37.14.36.28.74.44 1.13l.09.28h.07-.06l-.06.14-.28.6c-.4.81-.85 1.67-1.35 2.56-.26.43-.52.89-.81 1.33a7 7 0 01-1 1.25 5.14 5.14 0 01-.69.45l-.73.44-1.49.9h.15a1.09 1.09 0 01-.22-.17 1.48 1.48 0 01-.2-1.62 12.45 12.45 0 01.88-1.6c.63-1 1.26-2 1.87-2.92v-.13c-.29-.71-.58-1.38-.85-2a7.31 7.31 0 01-2.38-2.08 5.32 5.32 0 01-.93-2.25 8.51 8.51 0 01.1-2.16z" fill="#6f4439"/>
  <path fill="#455a64" d="M44.762 307.775l51.47 1.016-.717 36.363-51.47-1.016z"/>
  <path d="M90.28 308.85a3.1 3.1 0 01-.32.51l-1 1.38c-.88 1.19-2.12 2.95-3.85 5a34 34 0 01-7 6.17 21.61 21.61 0 01-10.79 3.71 18 18 0 01-10.84-3.47 31.48 31.48 0 01-6.72-6.5c-1.65-2.09-2.83-3.89-3.64-5.14l-.95-1.51a2.57 2.57 0 01-.28-.53 2.8 2.8 0 01.37.47l1 1.4c.85 1.21 2.08 3 3.75 5a32.2 32.2 0 006.71 6.33 17.78 17.78 0 0010.55 3.35 21.56 21.56 0 0010.55-3.59 34.58 34.58 0 007-6c1.76-2 3-3.7 4-4.85l1.08-1.33a2.58 2.58 0 01.38-.4z" fill="#263238"/>
  <path d="M57.25 311.26c0-.26 1.85-8.69 5.59-12.07 2.06-1.86 6.43-3.53 11 2.48l-1.58 2.23s-4.75-6.53-7.46-3.28c-1.47 1.76-4.1 5.8-4.28 9.91z" fill="#455a64"/>
  <path d="M72.15 304a3.86 3.86 0 00.71-1 1.35 1.35 0 00.08-1.22 1 1 0 00-.9-.43 1.63 1.63 0 00-.94.43 4.81 4.81 0 00-.67.81" fill="#ae7461"/>
  <path d="M70.43 302.53c-.05 0 0-.35.38-.78a2 2 0 01.79-.61 1.3 1.3 0 011.29.15 1.16 1.16 0 01.36 1.26 2.65 2.65 0 01-.43.86c-.33.44-.62.61-.67.56s.13-.31.35-.75a3.25 3.25 0 00.29-.78.73.73 0 00-.22-.74c-.49-.37-1.15 0-1.49.3s-.58.58-.65.53z" fill="#6f4439"/>
  <path d="M68.6 300.14a2.12 2.12 0 011.52-.94 1.4 1.4 0 011.5.79 1.78 1.78 0 01-.36 1.36 25.08 25.08 0 01-2.45 3.41" fill="#ae7461"/>
  <path d="M68.81 304.76c-.12-.09 1.21-1.73 2.43-3.92a.83.83 0 00-.24-1.24 1.61 1.61 0 00-1.26-.12c-.74.24-1 .72-1.11.66s.13-.61 1-1a1.9 1.9 0 011.61.05 1.28 1.28 0 01.68.8 1.58 1.58 0 01-.17 1.08 11.18 11.18 0 01-2.94 3.69z" fill="#6f4439"/>
  <path d="M66.07 299.79a3 3 0 011-1.22 1.63 1.63 0 011.35-.26 1.2 1.2 0 01.85 1 2 2 0 01-.44 1.12c-.7 1.07-1.47 2.41-2.28 3.4" fill="#ae7461"/>
  <path d="M66.5 303.87c-.06-.05.24-.5.69-1.26.26-.44.52-.88.79-1.32a18 18 0 00.92-1.58.91.91 0 00-.61-1.17 1.47 1.47 0 00-1.27.26c-.65.51-.88 1-1 1s0-.61.72-1.28a1.78 1.78 0 011.63-.43 1.47 1.47 0 01.86.64 1.31 1.31 0 01.11 1.16 4.1 4.1 0 01-.51.91l-.5.76c-.32.48-.62.92-.89 1.27-.44.7-.89 1.08-.94 1.04z" fill="#6f4439"/>
  <path d="M70.5 325.59a2.49 2.49 0 11-2.5-2.49 2.49 2.49 0 012.5 2.49z" fill="#263238"/>
  <path d="M112 218.51s-9 2.85-12 5.82c-8 7.67-19.8 19.92-23.17 25.28-2.1 3.35-9.2 40-9.2 40l15.85.76 7.87-36.95 13.49-13.49z" fill="#e0e0e0"/>
  <path d="M182.73 307.14l9.79 8.8 1.54.94s10.66-14.93 13.86-14.33l-8.29 33-2.65-.77-17.79-11.58z" fill="#263238"/>
  <path d="M190.1 327.31a1.39 1.39 0 001.3 1.32 1.34 1.34 0 001.32-1.28 1.46 1.46 0 00-1.39-1.39 1.38 1.38 0 00-1.22 1.48" fill="#e0e0e0"/>
  <path d="M199.81 335.62l-2.65-.76 8.94-31.39s1-1.31 2-.88z" fill="#263238"/>
  <path d="M194.06 316.88c.16 0 0 .87.35 1.79s.89 1.52.79 1.65-1-.34-1.34-1.47.06-2.05.2-1.97zm2.3-3.11c.17 0 .26.77.81 1.49s1.23 1.06 1.18 1.22-1 0-1.65-.88-.49-1.86-.34-1.83zm4.64-.93c0 .16-.86.18-1.64-.45s-1-1.48-.79-1.52.5.55 1.15 1.07 1.28.74 1.28.9z" fill="#455a64"/>
  <path d="M190.09 316.19c.13.1-.28.79-.44 1.72s-.06 1.71-.22 1.76-.56-.78-.35-1.87.92-1.72 1.01-1.61zM141.51 176a3.47 3.47 0 014-.39 4.74 4.74 0 015.42 2.15 4.21 4.21 0 014.74 5.46 3.52 3.52 0 01.8 6.63 3.38 3.38 0 01-3.65 5.66l-12.09-15.59a3.45 3.45 0 01.78-3.92z" fill="#263238"/>
  <path d="M153.11 195.45a14.36 14.36 0 00-8.76-17.38l-.7-.26c-7.67-2.38-14 2.81-16.13 10.54l-8.35 26.88L125 230l9.51-4.7 2.74-6.69s7.63 1.59 10.43-5.59c1.32-3.52 3.51-10.88 5.43-17.57z" fill="#ae7461"/>
  <path d="M137.21 219.21a18.6 18.6 0 01-8.34-6.3s.26 6 7.62 8.08z" fill="#6f4439"/>
  <path d="M148.51 202a1.1 1.1 0 01-1.38.67 1.07 1.07 0 01-.72-1.33 1.11 1.11 0 011.39-.67 1 1 0 01.71 1.33zm1.66-2.56c-.17.08-.74-.79-1.85-1.2s-2.13-.16-2.19-.34.18-.28.63-.4a2.92 2.92 0 011.82.11 2.82 2.82 0 011.41 1.12c.25.38.27.67.18.71zm-11.33-.54a1.11 1.11 0 01-1.39.67 1 1 0 01-.71-1.33 1.1 1.1 0 011.38-.67 1.07 1.07 0 01.72 1.33zm.79-3.59c-.18.08-.74-.79-1.85-1.2s-2.13-.16-2.2-.34.18-.28.64-.4a3 3 0 013.23 1.22c.24.41.27.68.18.72zm-3.48 10.3c.19 0 .46 1 1.38 1.72s2 .82 2 1-.26.21-.73.18a3.08 3.08 0 01-1.7-.67 2.89 2.89 0 01-1-1.51c-.1-.43-.04-.71.05-.72zm4.05-.72a7.3 7.3 0 011.92.35c.3.08.58.12.71-.06a1.55 1.55 0 00.12-.9v-2.47a39.31 39.31 0 01.24-6.34 40 40 0 01.27 6.34v2.47a1.68 1.68 0 01-.27 1.16.73.73 0 01-.62.24 2.07 2.07 0 01-.5-.11 8 8 0 01-1.87-.68zm.62-14.33c-.13.31-1.16.07-2.4.14s-2.26.36-2.4.06c-.06-.14.14-.43.56-.71a3.8 3.8 0 011.82-.55 3.55 3.55 0 011.83.4c.44.24.64.51.59.66zm10.24 5.74c-.27.21-1-.29-1.92-.57s-1.79-.32-1.9-.64c0-.15.16-.38.58-.52a2.89 2.89 0 013.08 1c.25.34.29.63.16.73z" fill="#263238"/>
  <path d="M153.65 192.53s-.21-5.23-2-7.1c-2.16-2.27-4.38.2-6.62-1.44s-4.31-3.82-7.61-2.84c-3.6 1.07-2.85 3.06-4.22 6.19-5.57 12.71-9.32 15.49-7.7 9.13.18-.7-1.48-1.93-.69-4.86 1-3.8 2.54-8.31 4.34-10.6 1.51-1.94 3.33-3 6.2-3.81 4.53-1.31 9.42.45 12.59 2s8.13 7.8 5.71 13.33z" fill="#263238"/>
  <path d="M126.05 196.44a2.08 2.08 0 00-1.41-2.67c-1.39-.38-3.18-.18-4.13 2.63-1.69 5 3.67 5.66 3.72 5.52s1.13-3.38 1.82-5.48z" fill="#ae7461"/>
  <path d="M123.78 199.68h-.27a1 1 0 01-.66-.21 2.28 2.28 0 01-.34-2.27 2.89 2.89 0 01.67-1.16 1.08 1.08 0 01.88-.45.47.47 0 01.43.42v.27c0 .02.13-.05.16-.27a.56.56 0 00-.09-.38.67.67 0 00-.44-.29 1.3 1.3 0 00-1.17.46 3.2 3.2 0 00-.77 1.29 2.39 2.39 0 00.54 2.59 1 1 0 00.84.14c.17-.03.24-.13.22-.14z" fill="#6f4439"/>
  <path d="M129.72 186.93a5.09 5.09 0 001.73 1.75 1.72 1.72 0 002.21-.47c.19-.32.25-.75.58-.93s.84.07 1.24.27a3.35 3.35 0 004.11-1 1.42 1.42 0 001.71.83 7.49 7.49 0 001.88-.93 2.17 2.17 0 012-.21c.35.19.61.53 1 .64.67.18 1.27-.46 1.61-1.06s.69-1.33 1.37-1.47 1.22.3 1.78.61 1.39.46 1.76-.07a1.25 1.25 0 00.11-1 3.4 3.4 0 00-3.31-2.63 4.62 4.62 0 00-7.64-3.82 4.69 4.69 0 00-7.62-1 3.4 3.4 0 00-5.33 3.28 3.23 3.23 0 00-2.56 1.79 1.85 1.85 0 001.29 2.5 1.88 1.88 0 002.39 2.9" fill="#263238"/>
  <path d="M127.29 183.83a1.25 1.25 0 00-.05 1.07 1.72 1.72 0 00.77 1 1.84 1.84 0 001.55.12l-.19-.11a5.15 5.15 0 00.52 1.6 3 3 0 00.69.89 2.32 2.32 0 002.69.18 3.06 3.06 0 00.78-.87 1.44 1.44 0 00.19-.39s-.12.11-.29.32a3.71 3.71 0 01-.8.76 2.14 2.14 0 01-3-1 5.23 5.23 0 01-.51-1.5v-.18l-.17.07a1.57 1.57 0 01-1.33-.07 1.5 1.5 0 01-.71-.8 2.35 2.35 0 01-.14-1.09zm13.54-7.76s.11.08.3.26a1.83 1.83 0 01.52.94v.11l.1-.06a6.61 6.61 0 013.11-1 5.18 5.18 0 012.1.3 4.26 4.26 0 011.87 1.38 4.36 4.36 0 01.8 1.65 3.57 3.57 0 010 1.69v.16h.16a3 3 0 012 1 2.84 2.84 0 01.67 1.62 3.93 3.93 0 01-.24 1.58 1.28 1.28 0 00.21-.38 3 3 0 00.2-1.21 3 3 0 00-.66-1.76 3.15 3.15 0 00-2.11-1.14l.12.17a3.77 3.77 0 000-1.83 4.71 4.71 0 00-.85-1.76 4.52 4.52 0 00-2-1.47 5.17 5.17 0 00-2.23-.29 6.39 6.39 0 00-3.18 1.16h.13a1.77 1.77 0 00-.63-1 .82.82 0 00-.39-.12z" fill="#455a64"/>
  <path d="M120.6 406.55l1.15 17.81s14.15 15.5 13.05 18.74l-33.14-13.59 1.2-2.64 3.23-7.08-3-12.81z" fill="#263238"/>
  <path d="M109.62 421.66a1.45 1.45 0 00-1.56 1.16 1.32 1.32 0 001.91 1.4 1.42 1.42 0 00.28-2.31 1.06 1.06 0 00-.77-.26" fill="#e0e0e0"/>
  <path d="M101.66 429.51l1.2-2.64 31.32 14s1.21 1.24.62 2.21z" fill="#263238"/>
  <path d="M123.26 426.35c-.08.16-.92-.09-1.92.1s-1.72.7-1.84.57.5-1 1.73-1.17 2.12.37 2.03.5zm2.49 2.75c0 .17-.84.16-1.67.62s-1.29 1.12-1.44 1 .11-1 1.15-1.58 2.02-.14 1.96-.04zm-.13 4.97c-.16 0-.06-.93.72-1.65s1.68-.75 1.7-.59-.65.44-1.28 1-.97 1.29-1.14 1.24zm-4.02-12.29c-.07.16-.88-.06-1.87 0s-1.75.42-1.84.28.63-.79 1.79-.89 2 .47 1.92.61z" fill="#455a64"/>
  <path d="M79.14 280.48a33.33 33.33 0 00-4.24 10.91 31.75 31.75 0 00.92 15.46c1.31 3.86 19.6 53.47 19.6 53.47l2.09 26.05 6.32 32.69 19.8-1s-1.83-51.48-2.62-59c-.86-8.16-11.94-58.3-11.94-58.3l7.23-18.05-33.63-11.22z" fill="#263238"/>
  <path d="M134.55 441.37c-.06.13-7.2-3-16-7s-15.8-7.36-15.74-7.49 7.2 3 16 7 15.8 7.36 15.74 7.49zm-10.92-23.24a92.57 92.57 0 01-9.89.73 93.76 93.76 0 01-9.91.2 94.32 94.32 0 019.89-.72 95.58 95.58 0 019.91-.21z" fill="#455a64"/>
  <path d="M138.56 221l-1.12-2.53c-7.42-3.09-12.84-6.18-17.36-6.1l-3.49 3.41c-4 2.54-12 6.44-14.12 9.43l-9.8 18.94-13.54 31.74c-1.25 1.94-3.92 4.81-.95 7.67l27 3 9.6.17c2-.26 7.11 1.19 7.72-2 1.09-5.62 18.88-43.39 20.16-48.33l-.56-8.13z" fill="#e0e0e0"/>
  <path d="M141.89 236.31c-2 5.33-3.43 13.57-10.93 18.52-4.15 2.73-10.25 4.38-15 5.88-5.61 1.78-13.07 4.05-13.07 4.05l-4.74 8.68 8.43 1.1s9.92-3.16 13.83-4.79c8.42-3.5 5.53-2.36 8.44-4.32 4.17-2.6 9.86-10.26 14-29.63" fill="#34a37e"/>
  <path d="M122 222.08a15.27 15.27 0 01-2.63-.05c-1.61-.07-3.84-.15-6.29 0a39.6 39.6 0 00-6.23.78 21.5 21.5 0 01-2.55.57s.21-.14.63-.32a18.33 18.33 0 011.83-.61 30.34 30.34 0 016.29-.94 42.52 42.52 0 016.35.17 12.21 12.21 0 012.6.4zm14-4.08a18.08 18.08 0 01-2.9-.45c-1.78-.33-4.24-.77-7-1.11a53.75 53.75 0 00-7-.41c-1.8 0-2.91.16-2.92.08s.26-.1.77-.2a20.08 20.08 0 012.14-.24 38.22 38.22 0 017.1.25 64.47 64.47 0 017 1.27 14.89 14.89 0 012.81.81z" fill="#263238"/>
  <path d="M102.47 225.2a3.22 3.22 0 01-.26.61l-.85 1.71c-.76 1.54-1.8 3.68-3.08 6.29-2.58 5.33-6 12.75-9.85 20.92-1.93 4.09-3.8 8-5.56 11.46-.89 1.75-1.73 3.41-2.56 4.94s-1.63 2.94-2.23 4.28a12.89 12.89 0 00-1.08 3.76 8 8 0 00.19 2.95 7.16 7.16 0 001.09 2.28 2.62 2.62 0 01-.44-.5 5.32 5.32 0 01-.84-1.73 8 8 0 01-.29-3 12.52 12.52 0 011.08-3.88c.59-1.37 1.39-2.79 2.18-4.33s1.64-3.2 2.51-4.95c1.74-3.51 3.59-7.39 5.52-11.47 3.84-8.17 7.32-15.57 10-20.86 1.32-2.65 2.44-4.77 3.23-6.22l.93-1.67a3.06 3.06 0 01.31-.59z" fill="#455a64"/>
  <path d="M94.88 317.94c1.4.44 48.4-17.8 48.4-17.8l39.85 30.3 2.91 1.17 6.49-18S164.64 286 155.18 277c-2.5-2.37-7.33-4.79-11.6-4.18-9.91 1.43-47.55 14-47.55 14z" fill="#263238"/>
  <path d="M97.19 313.77a19 19 0 0010.57 3.1l4.72-.48-.92-4.25s-11.23 2.14-14.37 1.63z" opacity=".3"/>
  <path d="M119.15 309.62a3.63 3.63 0 01-.92.45c-.59.26-1.47.6-2.57 1a56.47 56.47 0 01-8.79 2.43 32.76 32.76 0 01-9.11.51c-.58-.05-1.11-.13-1.57-.21s-.85-.15-1.16-.23a3.76 3.76 0 01-1-.3c0-.09 1.43.23 3.74.37a37.7 37.7 0 009-.65 76.47 76.47 0 008.76-2.26c2.23-.73 3.59-1.18 3.62-1.11zM144 293.31a32 32 0 01-.26 3.39c-.1 1.86.07 3.38-.08 3.4a9.77 9.77 0 01.34-6.79z" fill="#455a64"/>
  <path fill="#ae7461" d="M171.2 181.59l-6.25 9.68 12.3 5.01 5.21-13.81-7.71-2.84-3.55 1.96zm-5.26-8.23a2.42 2.42 0 01-.22-1.81 5.16 5.16 0 011.62-2s.5 3 .42 3.09z"/>
  <path d="M171.57 183.58l-4.49-7.33.27-6s-.24-4.5 1.92-5.24c0 0 1.3-.69 2.12.2 0 0 .24-1.13 1.94-1.06l1.19.65s.79-1 1.62-1a3.39 3.39 0 011.79.93s.43-.88 1.73-.5 2.68 2.79 3 3.62a46.6 46.6 0 011.5 9.31c-.13 1.73-2 6-2 6z" fill="#ae7461"/>
  <path d="M167.73 170.71s-2.14 2-2.6 2.59a22.65 22.65 0 00-1.06 2.79c-.33.67-1.3 1.48-.49 2a2 2 0 002.48-.46 42.91 42.91 0 002.52-4.69z" fill="#ffbf9d"/>
  <path d="M165 177.62a3.73 3.73 0 00-.51 2.78 1.92 1.92 0 002 1.42 1.8 1.8 0 002.17 1.86s-.6.66.51 1.1l3.16-4.06s.44-.36.42-1.67c0-.87-.42-2.29-1.6-1.93 0 0-.16-1.53-1.24-1.89s-1.4.4-1.4.4a1 1 0 00-1.11-.49c-.9.09-2.4 2.48-2.4 2.48z" fill="#ffbf9d"/>
  <path d="M121.92 237.19a10.08 10.08 0 01-.09-13.49 8.26 8.26 0 012.09-1.68c5.24-2.91 30.78-12.18 30.78-12.18l13.07-25.06 13.81 3.22s-10.28 31.64-17.93 36.32c-8.78 5.38-24 13.68-29.56 15.43" fill="#e0e0e0"/>
  <path d="M134.09 239.71a1.45 1.45 0 01.34-.15c.23-.09.58-.21 1-.4.89-.37 2.21-.93 3.87-1.73 3.33-1.58 8.1-4.05 13.91-7.31 2.91-1.63 6.09-3.45 9.46-5.5a10.34 10.34 0 002.36-1.77 20.67 20.67 0 001.95-2.37 50 50 0 003.33-5.55 138.28 138.28 0 005.78-12.79c1.81-4.53 3.57-9.31 5.22-14.26l.18.33-9.12-2.09-4.66-1.12.29-.13c-4.64 8.86-9.05 17.3-13.09 25v.09h-.08c-7 2.54-13.44 5-19.16 7.17-2.86 1.11-5.54 2.18-8 3.23-1.23.53-2.4 1.05-3.48 1.62a8 8 0 00-2.63 2.2 9.52 9.52 0 00-2.11 5.4 10.67 10.67 0 00.67 4.31 13 13 0 001.84 3.19s-.06-.05-.16-.17-.27-.3-.46-.55a10.15 10.15 0 01-1.57-9.57 10 10 0 011.57-2.79 8.12 8.12 0 012.7-2.3c1.09-.59 2.26-1.12 3.49-1.66 2.45-1.07 5.13-2.16 8-3.28 5.71-2.26 12.15-4.69 19.14-7.25l-.13.11c4-7.74 8.44-16.19 13.06-25.07l.09-.17h.19l4.7 1.08 9.12 2.09.28.07-.09.27q-2.49 7.46-5.25 14.29a134.74 134.74 0 01-5.83 12.81 48 48 0 01-3.39 5.59 19.63 19.63 0 01-2 2.42 10.82 10.82 0 01-2.45 1.82c-3.38 2-6.57 3.84-9.5 5.46-5.84 3.22-10.64 5.64-14 7.18-1.68.77-3 1.3-3.92 1.64-.45.18-.81.28-1 .36zm104.45-97.95c-2.22 1.31-31.74 22.61-34.27 29.85s6.92 59.69 6.92 59.69l21-1-5.59-49.84 42-24.87 2.83-26z" fill="#263238"/>
  <path d="M263.39 152.6L287 178s3.24 11.54 6 19.09 7.42 20.13 7.42 20.13l5.09 16.72 16.42-3.63s-6.13-26.75-7.71-37.06a156.45 156.45 0 00-5.34-21.62l-13.06-33L281.61 120z" fill="#263238"/>
  <path d="M226 151s18.43 7.07 24.54 5.8 16.3-16.31 16.3-16.31l15 15.19 18.16-6.56-1.47-5.86s-26.06-6.73-26.11-6.81-9.44 0-9.44 0l-15.78 10.89-17.08.22z" opacity=".3"/>
  <path d="M315.4 217.4l5.44 17.18 8.21 12.35a1.85 1.85 0 01-.62 2.63 1.84 1.84 0 01-1.69.07c-3.45-1.61-15.86-7.53-16.46-8.86S303.35 223 303.35 223z" fill="#263238"/>
  <path d="M328.43 249.56l-18.54-9.94.24.72a2.81 2.81 0 001.21 1.5c1.52.9 5.76 3.3 15.35 7.81a1.85 1.85 0 001.74-.09z" fill="#e0e0e0"/>
  <path d="M322 243.44a4 4 0 012.87-2.88c0-.05-.26-.11-.67 0a2.9 2.9 0 00-1.44.79 3 3 0 00-.79 1.44c-.09.39-.03.65.03.65zm2 1.87c.11 0 .47-.7 1.26-1.25a13.69 13.69 0 011.59-.78 2 2 0 00-1.82.46c-.92.63-1.15 1.55-1.03 1.57zm-5.27-4.03a18.51 18.51 0 011.81-2.05 19.18 19.18 0 012.33-1.46 5 5 0 00-4.14 3.51zm-2.09-5.08c.08.09.89-.63 2.1-1.09s2.28-.5 2.28-.62a3.59 3.59 0 00-2.43.25 3.55 3.55 0 00-1.95 1.46z" fill="#fff"/>
  <path d="M221.26 177a5.3 5.3 0 013.19 1.05 5.45 5.45 0 012.35 2.4c-.12.1-1.1-1-2.63-2s-2.95-1.32-2.91-1.45zm83.74 3.69c0 .05-.33.47-1.09 1a8.78 8.78 0 01-3.27 1.27 9 9 0 01-3.5-.09 3 3 0 01-1.35-.55 16.14 16.14 0 004.76.12 17 17 0 004.45-1.75z" fill="#455a64"/>
  <path d="M215.26 217.48l.7 15.92s-16 6-16.11 9l30.92-.25-1.19-22.71z" fill="#263238"/>
  <path d="M230.77 242.16l-.11-2.5-29.6 1.17s-1.37.61-1.21 1.58z" fill="#e0e0e0"/>
  <path d="M215.46 233.24c0 .15.76.22 1.5.7s1.15 1.11 1.29 1.05-.09-.94-1-1.5-1.83-.38-1.79-.25zm-3.24 1.37c0 .15.63.4 1.14 1s.67 1.31.83 1.3.23-.86-.42-1.64-1.54-.8-1.55-.66zm-1.81 3.9c.14 0 .34-.73 0-1.55s-1.1-1.15-1.17-1 .38.56.7 1.24.32 1.29.47 1.31z" fill="#fff"/>
  <path d="M213.77 99.86l19.81 27.57 8 5.83-2.37 6.19-11.19 9.94s18.54 7.69 25.36 3.25 13.32-15.2 13.32-15.2l16.72 15.93 21-8.36s-9.19-18.33-21.89-28.78L275 93.05l-14-21.43-17 5.54L219.82 94z" fill="#34a37e"/>
  <path d="M229.55 89.51c1.14 0 13.88 7.46 13.88 7.46l2.78-16-2.07-3.77 4.13 1.5 6.65 6.42 16.55 26.1c-1.18 6.64-5.25 16.5-5.37 20 0 0-17.59-1.5-21.63-10s-12.63-24-12.63-24z" fill="#fff"/>
  <path d="M247.08 106.77c0 1.43 4.66 21.36 8.54 22.44s9.93 2.1 9.93 2.1v-9.57l-15.62-18.29-.46-4.9-5.73-.66-1.41 7.11zM218.7 96.16s-3.85 3.38-4.93 3.7-5.17 11.4-5.17 11.4l-10.49 26.05-18.45 24.62 10.39 9.68s23.27-23.48 24.91-29.79l11.46-23.71z" fill="#34a37e"/>
  <path d="M266.81 136.45c-.06-.06.91-1 2.33-2.77s3.31-4.16 5.3-6.93l5.09-7.12c.66-.91 1.21-1.63 1.6-2.12a3.53 3.53 0 01.65-.73 27.27 27.27 0 01-1.95 3.06c-1.24 1.86-3 4.43-5 7.21a79.35 79.35 0 01-5.45 6.87c-.75.84-1.39 1.48-1.86 1.91s-.69.65-.71.62zm-12.12-3.68a15.3 15.3 0 01-2.94-.39c-1.8-.32-4.27-.85-7-1.57s-5.1-1.5-6.83-2.11a15.87 15.87 0 01-2.74-1.13 18.33 18.33 0 012.86.78c1.74.52 4.16 1.24 6.85 2s5.13 1.3 6.91 1.72a17.44 17.44 0 012.89.7zm-36.58-25.11a3.69 3.69 0 01.69.71c.42.49 1 1.19 1.72 2.07 1.44 1.76 3.4 4.22 5.53 7s4 5.22 5.41 7c.68.91 1.23 1.65 1.59 2.17a3.56 3.56 0 01.53.84 4 4 0 01-.69-.72c-.42-.48-1-1.19-1.72-2.07-1.44-1.76-3.4-4.21-5.53-6.94s-4-5.21-5.41-7c-.68-.91-1.22-1.65-1.59-2.17a3.56 3.56 0 01-.53-.89zM253 83.59a21.5 21.5 0 010 3.51c0 2.17-.12 5.16-.25 8.47 0 1.15-.09 2.25-.14 3.29v.27h-.23c-2.51-.29-4.67-.57-6.21-.78a13.16 13.16 0 01-2.43-.43 13.74 13.74 0 012.46.12c1.53.12 3.68.33 6.17.59l-.25.24c0-1 .08-2.14.12-3.29.13-3.31.27-6.3.41-8.46a24.6 24.6 0 01.35-3.53z" fill="#263238"/>
  <path d="M233.26 100.19a14.87 14.87 0 012.41 1.35c1.45.89 3.44 2.15 5.62 3.57l1 .64-.39.14c.6-2.2 1-4.25 1.28-5.69a13 13 0 01.57-2.31 10.75 10.75 0 01-.23 2.37 55.63 55.63 0 01-1.13 5.79l-.09.33-.3-.19-1-.65c-2.17-1.42-4.13-2.72-5.53-3.69a14 14 0 01-2.21-1.66z" fill="#263238"/>
  <path d="M260.94 71.62s4.61-1.55 7.05-.45c4.71 2.15 35.22 18.57 36.49 19.45s17.82 27.58 17.82 27.58l-11.35 7-16.18-22.2-29.5-11.09s-4.47-5.76-5.19-10.61a24.09 24.09 0 01.86-9.68z" fill="#34a37e"/>
  <path d="M275 93.05a32.43 32.43 0 011.19 3.21l2.8 7.76c2.22 6.06 3.89 11 3.65 11.1a4.66 4.66 0 01-.35-.85c-.26-.66-.55-1.44-.9-2.33-.75-2-1.79-4.7-2.89-7.74s-2-5.8-2.66-7.82c-.31-1-.54-1.84-.68-2.42a3.67 3.67 0 01-.16-.91zm-5.9-6.54a6.47 6.47 0 01-1.47-1.42 22.49 22.49 0 01-2.8-4.07 23.4 23.4 0 01-1.83-4.58 6.07 6.07 0 01-.36-2 62.94 62.94 0 002.67 6.34 66.62 66.62 0 003.79 5.73zm-4.72 48.63a12.34 12.34 0 01-2.69.45 50.74 50.74 0 01-6.58.24 52 52 0 01-6.56-.62 11.94 11.94 0 01-2.66-.61 17.27 17.27 0 012.71.24c1.66.19 4 .39 6.52.47s4.87 0 6.54-.09a17.57 17.57 0 012.72-.08zM247.2 78.35h.43a9 9 0 011.25.16 16.63 16.63 0 014.38 1.78 54.22 54.22 0 0112.48 10.76l.15.17-.16.16c-.68.69-1.42 1.44-2.16 2.21l-.18-.43h2.84l.06.16c.89 2.32 1.83 4.75 2.79 7.24 1.08 2.81 2.13 5.54 3.11 8.11v.06a38.75 38.75 0 01-2.73 10.73 64.51 64.51 0 00-2.7 8.31 22.8 22.8 0 00-.62 5.71c0 1.34.19 2.07.15 2.07a2.45 2.45 0 01-.13-.52 13.23 13.23 0 01-.19-1.55 21.18 21.18 0 01.47-5.78 63.37 63.37 0 012.6-8.39 38.55 38.55 0 002.64-10.61v.1c-1-2.57-2-5.3-3.13-8.1q-1.43-3.75-2.78-7.25l.24.16h-3.26l.42-.42 2.17-2.2v.33a56.5 56.5 0 00-12.26-10.83 17.81 17.81 0 00-4.26-1.88c-1.03-.16-1.62-.21-1.62-.26zm-19.53 40.39a44.52 44.52 0 01-6.71.62 44.3 44.3 0 01-6.75.1 43.06 43.06 0 016.72-.62 42.63 42.63 0 016.74-.1zM250.94 129a1.91 1.91 0 01-.43-.07 10.44 10.44 0 01-1.23-.3 17.78 17.78 0 01-4.26-1.94 33.58 33.58 0 01-5.55-4.37c-1.94-1.85-3.95-4-6.08-6.38l-.16-.18.16-.17c.84-.86 1.55-1.95 2.48-2.93l.31.41-.81.44-3.07 1.66-.28.15-.1-.3a100.19 100.19 0 01-3.66-16.31c-.29-2.09-.45-3.78-.54-4.94-.05-.58-.06-1-.08-1.33a1.53 1.53 0 010-.47 1.5 1.5 0 01.09.46l.17 1.32c.14 1.16.36 2.83.69 4.91a111.77 111.77 0 003.82 16.21l-.38-.15 3.08-1.67.81-.44 1.46-.79-1.14 1.2c-.89.93-1.61 2-2.49 2.93v-.35c2.12 2.34 4.1 4.54 6 6.39a35.06 35.06 0 005.42 4.41 23.59 23.59 0 005.77 2.6z" fill="#263238"/>
  <path d="M265.7 131.31a13.22 13.22 0 01-2.85-.24 44.05 44.05 0 01-6.76-1.47 28.81 28.81 0 01-6.35-2.78 10.64 10.64 0 01-2.33-1.67c.05-.07 1 .53 2.51 1.35a35.88 35.88 0 006.32 2.6c5.13 1.53 9.49 2.02 9.46 2.21z" fill="#263238"/>
  <path d="M268.09 135.32a16.3 16.3 0 0011.77-15.72M256 82.11a32.76 32.76 0 0111.16 9.43 1.55 1.55 0 00-.78.83l1.45.41q1.58 6.45 3.14 12.9L266 93l-2.4.25 2.25-2a51.53 51.53 0 01-7.4-7.87m-22.51 18.55l7.8 7.18 1.21-9.81 9.36.57-1.34-12.04-.56 10.17-8.67-.47-1.6 8.44m33.68-10.08l-2.66-8.06 5.61 9.17-2.95-1.11z" opacity=".3"/>
  <path d="M299.81 94.69a9.71 9.71 0 00-2.05 2 10.36 10.36 0 00-1 2.65c-.06 0-.17-.33-.14-.89a4.32 4.32 0 012.3-3.5c.52-.29.87-.32.89-.26zM216.55 48.7a3.39 3.39 0 00-3.9.46 4.65 4.65 0 00-4.75 3.2 4.14 4.14 0 00-3.4 6.22 3.46 3.46 0 00.63 6.53 3.32 3.32 0 004.68 4.66l8.33-17.48a3.4 3.4 0 00-1.59-3.59z" fill="#263238"/>
  <path d="M209.66 70.42a14.09 14.09 0 014.75-18.5l.61-.39c6.85-3.89 14-.24 17.68 6.72l11.44 19 2.08 3.67-2.33 15.7-12.32-4.69-1.84-2.67s-7 3.12-11.17-3.18c-2.02-3.08-5.67-9.65-8.9-15.66z" fill="#ffbf9d"/>
  <path d="M229.75 89.26a18.32 18.32 0 006.67-7.8s1 5.84-5.62 9.34z" fill="#ff9a6c"/>
  <path d="M215.3 75.11a1.07 1.07 0 001.46.35 1 1 0 00.41-1.42 1.08 1.08 0 00-1.47-.35 1 1 0 00-.4 1.42zM213.17 73c.19 0 .54-.9 1.52-1.53s2-.6 2-.79-.24-.23-.7-.25a3 3 0 00-1.72.48 2.86 2.86 0 00-1.12 1.37c-.15.44-.07.72.02.72zm10.76-2.88a1.07 1.07 0 001.46.35 1 1 0 00.41-1.42 1.08 1.08 0 00-1.47-.35 1 1 0 00-.4 1.42zm-1.52-3.28c.19 0 .55-.9 1.52-1.53s2-.61 2-.79-.23-.23-.69-.25a3 3 0 00-1.73.48 2.92 2.92 0 00-1.12 1.37c-.11.43-.07.71.02.72zm1.46 9.31a7.78 7.78 0 00-1.77.74c-.26.13-.53.24-.68.09a1.43 1.43 0 01-.31-.84c-.16-.76-.32-1.55-.49-2.38a38.67 38.67 0 00-1.56-6 39.28 39.28 0 001.07 6.15c.18.82.36 1.61.53 2.36a1.72 1.72 0 00.5 1.06.75.75 0 00.64.1 1.58 1.58 0 00.47-.22 7.3 7.3 0 001.6-1.06zm-3.28-12.09c.28.18 1-.59 2-1.23s2-1 2-1.3c0-.15-.35-.27-.85-.26a3.71 3.71 0 00-1.77.58 3.49 3.49 0 00-1.25 1.36c-.24.43-.25.79-.13.85zm-8.93 6.14c.3.13.88-.49 1.72-1s1.65-.69 1.69-1c0-.16-.23-.33-.67-.38a2.74 2.74 0 00-1.61.37 2.83 2.83 0 00-1.13 1.21c-.17.43-.14.73 0 .8z" fill="#263238"/>
  <path d="M208.38 67.12s-.89-5.06.42-7.23c1.6-2.62 4.24-.72 6-2.77s3.33-4.56 6.7-4.31c3.68.27 3.37 2.33 5.35 5 8 11 12.17 12.9 9.29 7.14-.32-.64 1-2.16-.35-4.81-1.78-3.43-4.19-7.43-6.39-9.25a10.79 10.79 0 00-6.74-2.36c-4.62-.3-8.93 2.42-11.65 4.59s-6.11 9.19-2.63 14z" fill="#263238"/>
  <path d="M235.67 65.08a2.05 2.05 0 01.79-2.86c1.26-.65 3-.83 4.51 1.66 2.67 4.43-2.33 6.2-2.41 6.08s-1.79-2.96-2.89-4.88z" fill="#ffbf9d"/>
  <path d="M238.52 67.71h.28a.9.9 0 00.58-.34 2.23 2.23 0 00-.15-2.24 3 3 0 00-.88-1 1.05 1.05 0 00-.94-.24.46.46 0 00-.33.49c0 .16.1.23.08.25s-.14 0-.21-.22a.55.55 0 010-.38.68.68 0 01.36-.37 1.23 1.23 0 011.22.2 3 3 0 011 1.07 2.33 2.33 0 010 2.59 1 1 0 01-.78.31c-.16-.02-.24-.1-.23-.12z" fill="#ff9a6c"/>
  <path d="M230.15 56.73a4.85 4.85 0 01-1.29 2 1.67 1.67 0 01-2.21 0c-.25-.27-.4-.67-.75-.77s-.8.24-1.14.52a3.3 3.3 0 01-4.16-.13 1.38 1.38 0 01-1.46 1.16 7.43 7.43 0 01-2-.5 2.1 2.1 0 00-2 .22c-.29.25-.47.63-.81.81-.6.32-1.31-.17-1.77-.68s-.94-1.12-1.62-1.12-1.11.55-1.58 1-1.23.74-1.7.31a1.22 1.22 0 01-.31-.91 3.33 3.33 0 012.65-3.19 4.55 4.55 0 016.53-5.27 4.61 4.61 0 017.09-2.59 3.33 3.33 0 015.79 2 3.17 3.17 0 012.84 1.17 1.81 1.81 0 01-.72 2.67 1.85 1.85 0 01-1.69 3.28" fill="#263238"/>
  <path d="M227.29 76.14a.49.49 0 01.25-.24.41.41 0 01.3.09 2.61 2.61 0 011.16 2.23 1.73 1.73 0 01-2.63 1.32l-.82-.49z" fill="#ff9a6c"/>
  <path d="M226.84 79.77a1.64 1.64 0 001.42-.19 1.42 1.42 0 00.56-.53 1.56 1.56 0 00.3-.83 3 3 0 00-.63-1.85 3.81 3.81 0 00-.32-.41.76.76 0 00-.55-.26.64.64 0 00-.48.36l-.21.39-.73 1.35a6.08 6.08 0 00-.6 1.29 5.63 5.63 0 00.8-1.17l.8-1.31c.15-.23.3-.6.44-.58s.4.28.58.53a3 3 0 01.59 1.65 1.39 1.39 0 01-.23.7 1.25 1.25 0 01-.44.47 3.19 3.19 0 01-1.3.39z" fill="#263238"/>
  <path d="M231.84 53.26a1.22 1.22 0 01.27 1 1.69 1.69 0 01-.54 1.09 1.82 1.82 0 01-1.47.44l.17-.15a5 5 0 01-.17 1.64 3 3 0 01-.47 1 2.28 2.28 0 01-2.54.74 2.89 2.89 0 01-.93-.67c-.19-.2-.27-.32-.26-.33s.13.08.34.24a3.41 3.41 0 00.93.57 2.12 2.12 0 002.65-1.63 5.58 5.58 0 00.17-1.55v-.17h.17a1.58 1.58 0 001.27-.35 1.53 1.53 0 00.51-.92 2.44 2.44 0 00-.1-.95zm-14.61-4.61s-.09.1-.23.31a1.8 1.8 0 00-.31 1v.12l-.11-.05a6.44 6.44 0 00-3.19-.34 5.05 5.05 0 00-2 .73 4.18 4.18 0 00-1.49 1.72 4.37 4.37 0 00-.43 1.74 3.64 3.64 0 00.37 1.62l.08.14-.16.05a2.91 2.91 0 00-1.66 1.39 2.82 2.82 0 00-.3 1.69 3.8 3.8 0 00.56 1.46s-.12-.09-.28-.32a2.79 2.79 0 01-.45-1.11 2.94 2.94 0 01.27-1.83 3.09 3.09 0 011.78-1.54l-.08.2a3.8 3.8 0 01-.42-1.75 4.54 4.54 0 012.06-3.7 5.13 5.13 0 012.07-.74 6.28 6.28 0 013.29.44l-.11.08a1.72 1.72 0 01.4-1.06c.21-.19.33-.26.34-.25z" fill="#455a64"/>
</svg>
