<svg xmlns="http://www.w3.org/2000/svg" viewBox="0 0 500 500">
  <path d="M326.14 87.15s-57-32.18-122.26-8S97.15 166.58 62.21 217 32.78 325.69 73.94 359s78.32 1.18 142.34 10.4 79.63 21.36 138.55-5.65S437.58 253 406.44 182.5s-80.3-95.35-80.3-95.35z" fill="#34a37e"/>
  <path d="M326.14 87.15s-57-32.18-122.26-8S97.15 166.58 62.21 217 32.78 325.69 73.94 359s78.32 1.18 142.34 10.4 79.63 21.36 138.55-5.65S437.58 253 406.44 182.5s-80.3-95.35-80.3-95.35z" fill="#fff" opacity=".7"/>
  <path fill="none" stroke="#263238" stroke-linecap="round" stroke-linejoin="round" d="M47.34 381.29h375.47"/>
  <path d="M154.86 93.55h53.34v215.3h-53.34zm59.53 0h53.34v215.3h-53.34zm59.52 0h53.34v215.3h-53.34z" fill="#fff"/>
  <path d="M90.62 327.14a21.68 21.68 0 00-4.94 10.27L75.76 343v-26.31l.24.31 15.8-11.56c2 .31 9.66 1.18 16.65-2.58 8.11-4.37 14-19.34 14-19.34s-19.34-2.18-25.89 5.93a22.53 22.53 0 00-5.37 15.12L75.76 315.8v-19.41a21.43 21.43 0 0011.74-14.17c2.81-10.92-12.17-32.44-12.17-32.44s-15.59 22.15-12.47 33.38c2.64 9.51 9.74 12.52 11.86 13.22v42.09l-11.13-9.26c.26-2.22.46-9.16-5.72-16.11-7.49-8.42-27.45-7.8-27.45-7.8s8.42 16.85 15.58 22.46c6.27 4.91 14.92 2.91 17 2.32l11.7 9.75v12.8H57.33L64.42 397H85.7l7.1-44.34h-17v-8.46l10.89-6.11c2.65.73 10.06 2.25 17.07-1.25 8.73-4.37 15.91-13.73 15.91-13.73s-20.94-5.33-29.05 4.03z" fill="#34a37e"/>
  <path d="M90.62 327.14a21.68 21.68 0 00-4.94 10.27L75.76 343v-26.31l.24.31 15.8-11.56c2 .31 9.66 1.18 16.65-2.58 8.11-4.37 14-19.34 14-19.34s-19.34-2.18-25.89 5.93a22.53 22.53 0 00-5.37 15.12L75.76 315.8v-19.41a21.43 21.43 0 0011.74-14.17c2.81-10.92-12.17-32.44-12.17-32.44s-15.59 22.15-12.47 33.38c2.64 9.51 9.74 12.52 11.86 13.22v42.09l-11.13-9.26c.26-2.22.46-9.16-5.72-16.11-7.49-8.42-27.45-7.8-27.45-7.8s8.42 16.85 15.58 22.46c6.27 4.91 14.92 2.91 17 2.32l11.7 9.75v12.8H57.33L64.42 397H85.7l7.1-44.34h-17v-8.46l10.89-6.11c2.65.73 10.06 2.25 17.07-1.25 8.73-4.37 15.91-13.73 15.91-13.73s-20.94-5.33-29.05 4.03z" fill="#fff" opacity=".5"/>
  <path d="M411.31 218.09l-26.25.21s-1.74-.21-2.17 1.09c0 0-4.56 11.5-4.77 15.62s.86 3.47-.87 8.89-6.73 18.22-9.55 28.64c-3.79 14-4.77 28.84-5 43.29 0 2.32-1.43 22.26 2.18 22.26 3 0 30.61 3.66 30.94-1.66 1.33-21.22-2.5-42 4.87-62.59 2.86-8 6.14-16.48 8.57-24.87s2.85-17.1 4.44-25.68c1.08-5.85-2.39-5.2-2.39-5.2z" fill="#263238"/>
  <path d="M413.88 220.69c-.26-3-2.57-2.6-2.57-2.6l-26.25.21s-1.74-.21-2.17 1.09c0 0-4.56 11.5-4.77 15.62a18.86 18.86 0 00.09 3.26l.56.86s.86 7.59 11.28 8 16.27-4.34 18.44-8.9 3-11.93 4.77-16.27a12.78 12.78 0 01.62-1.27z" fill="#ccc"/>
  <path d="M407.79 229.16c-1.76 6.34-.7 8.1-2.46 19s-8.1 23.24-10.56 34.5-1.41 51.05-1.06 52.81a15.47 15.47 0 01.15 2.83c1.18-.44 1.9-1.05 1.95-1.88 1.33-21.22-2.5-42 4.87-62.59 2.86-8 6.14-16.48 8.57-24.87s2.85-17.1 4.44-25.68c.67-3.6-.38-4.73-1.3-5.08a46.75 46.75 0 00-4.6 10.96z" fill="#969696"/>
  <path d="M357.09 389.35l-.17-.14V364.7h3.52v-15.49h-13v15.49h3.52v24.93l-31.15 9.93V402a2.82 2.82 0 105.63 0v-.35l26-3v3.73a2.47 2.47 0 104.93 0v-3.85l27.11 3.15v.32a2.82 2.82 0 105.63 0v-2.46z" fill="#263238"/>
  <rect x="313.3" y="334.1" width="84.51" height="17.97" rx="4" fill="#263238"/>
  <path fill="#ccc" d="M280.31 282.23h-36.55v-42.22h36.55z"/>
  <path fill="#263238" d="M283.14 284.11h-41.27v-38.12h19.53l21.74 38.12z"/>
  <path d="M233 286.23h23.61a1.71 1.71 0 100-3.41H233a4 4 0 01-3.89-5.12l8.37-30a1.71 1.71 0 10-3.29-.92l-8.37 30a7.44 7.44 0 007.18 9.45z" fill="#263238"/>
  <path fill="#ccc" d="M249.592 276.664l-5.342.64-8.279-69.117 5.342-.64z"/>
  <path d="M235.94 208.2s-9.49 33.89 8.29 69.12z" fill="#263238"/>
  <path fill="#ccc" d="M212.91 286.08h249.85v121.78H212.91z"/>
  <path fill="#263238" d="M213.01 289.01H462.6v3.37H213.01z"/>
  <path fill="#ccc" d="M208.19 284.09h256.14v5.32H208.19z"/>
  <ellipse cx="327.5" cy="416.22" rx="34.68" ry="3.42" fill="#263238"/>
  <path d="M327 155.67s6.1 0 7.48 4.42-2.48 10.27-7.48 11.59-9.42-3.24-9.13-7.64 6.35-8.49 9.13-8.37z" fill="#263238" stroke="#263238" stroke-linecap="round" stroke-linejoin="round"/>
  <path d="M362.87 357.19s1.79-.68 2.07-3.41-3.21-9.1-3.2-12.54-.24-9.48-1-10.59-5.24-.88-8.06 1.41 4.61 7.18 6.62 12.72.74 6.27 1.52 8.76a8.78 8.78 0 002.05 3.65z" fill="#fff" stroke="#263238" stroke-linecap="round" stroke-linejoin="round"/>
  <path d="M278.16 291.8s1.84 19.28 2.84 21.62 8.73 3.81 11.88 5 36.43 11.78 43.12 15.73 16.47 12.34 20.72 16.21 5 8.43 6.19 6.83-.41-7.79-1.62-11.18-2.58-5.08-2.85-7.52-.94-5.94-3.44-6.71-6.6 2.25-6.6 2.25-2.88-.46-8.23-5.31-15.52-11.55-19.52-14.54-16.15-5.26-19.86-6a27.44 27.44 0 01-6.33-2l2.31-10.95s-15.77-2.12-18.61-3.43z" fill="#fff" stroke="#263238" stroke-linecap="round" stroke-linejoin="round"/>
  <path d="M358.4 338.49c-.26-2.43-.94-5.94-3.44-6.71-1.76-.54-4.29.78-5.65 1.62a37.78 37.78 0 016.53 8.28c2.65 4.66 2.67 7.54 2.23 10.1 3.05 3.46 3.75 6.81 4.8 5.41 1.19-1.6-.41-7.79-1.62-11.18s-2.58-5.08-2.85-7.52z" fill="#34a37e" stroke="#263238" stroke-linecap="round" stroke-linejoin="round"/>
  <path d="M304.19 399.57a6.55 6.55 0 006.12.79c3.23-1.39 7.28-7.34 8.65-8.93s7.89-4.87 8.69-7.71-3.8-6.58-3.8-6.58a27 27 0 01-5.55 7.17c-3.6 3.25-3.07 4.85-7.23 8.56s-6.88 6.7-6.88 6.7z" fill="#fff" stroke="#263238" stroke-linecap="round" stroke-linejoin="round"/>
  <path d="M306.05 299.88s-.19 12.87.85 19.14 5 47.86 4 57-4.11 18.35-6.14 21.79 2.94 1.42 5.91-.24 7.48-10.17 8.45-11.47 4.81-1.46 5.28-6.17-5.29-4.76-4.92-11.17 5.73-26 3.77-34.36-4.24-18.93-3.87-22.54 1.85-12.7 1.85-12.7z" fill="#fff" stroke="#263238" stroke-linecap="round" stroke-linejoin="round"/>
  <path d="M320.73 373.48a59.51 59.51 0 01-6.53 12.31c-2.74 3.67-4.81 3.63-5.91 3.17a44.42 44.42 0 01-3.51 8.87c-2 3.44 2.94 1.42 5.91-.24s7.48-10.17 8.45-11.47 4.81-1.46 5.28-6.17c.32-3.14-2.12-4.22-3.69-6.47z" fill="#34a37e" stroke="#263238" stroke-linecap="round" stroke-linejoin="round"/>
  <path d="M376.05 263.16c-1-2.8-2-6.52-6.31-8.93s-6.11-3.69-6.11-3.69-11.32-23.54-14.09-28.12-4.83-7.52-4.83-7.52-7.62-20.79-8.53-24.31-.27-6.16-4.45-7.67-13.61-2.64-17-3.16a34.38 34.38 0 01-7.67-2.59s-7.64-1.13-10.26-1.94A202.72 202.72 0 01278 167c-3.58-2-8-6.58-8-6.58s-9.87-21.74-12.22-27c-1.94-4.36-3.8-8.22-4.4-9.44a34.66 34.66 0 01-1.23-4.16c-.08-2.59.22-5.4 0-7s-.51-2.3-.74-4.17-2-.7-1.72 1.39l-.18 1.21-2.22-9.57s-1.41-1-1.63.08l1.06 7.08-.4.12-1.55-8.73s-.23-.91-1.5-.76c0 0-.68.2-.58 2l1.41 8.14-.81.1-1.29-8.85s-.55-.63-1-.11a3.5 3.5 0 00-.29 2.38c.11.92.88 7.27.88 7.27l-1.28-4.77s-1.21-1.25-1 1.07a46.6 46.6 0 002 8.54 15.26 15.26 0 003.83 5.51c1.28.9 1.91 1.29 2 1.75 0 .11.44 1.54 1.12 3.7h.08c1.33 4.06 11.67 35.72 13.54 40.63 2 5.25 26.23 23.94 26.23 23.94s-4.59 11.44-2.9 17.92a38.63 38.63 0 005.82 12s-3.9 4.65-10.52 21.83-5.19 52.85-5.19 52.85a58.65 58.65 0 0026.48 7.38c15.28.47 21.15-.56 21.15-.56s6.92-39.68 4.07-54.22a157.79 157.79 0 00-7.31-25.63l7.63-18.33s12.91 22 17.82 30.48 17 21 17 21 .21 3.27 1.67 4.86a15.46 15.46 0 003.51 2.7s-2.56 5.69-1 6 2.74-5.67 2.74-5.67-1.15 6 .08 6.32 2.54-5.51 2.54-5.51-1.28 5.46.15 5.6 2.05-5.92 2.05-5.92.93 5 1.88 4.52 1.22-2.39.27-5.23z" fill="#fff" stroke="#263238" stroke-linecap="round" stroke-linejoin="round"/>
  <path d="M249.54 111.19a2.45 2.45 0 01-1.31 2.66c-1.71.91-.66 3 .78 4.77" fill="none" stroke="#263238" stroke-linecap="round" stroke-linejoin="round"/>
  <path d="M366.09 257.44a13.19 13.19 0 002.3 2.55 10.21 10.21 0 003.17.79s.86 5.2 2.57 4.44-.59-5.63-1.39-6.88a4.21 4.21 0 00-1.47-1.54" fill="#fff" stroke="#263238" stroke-linecap="round" stroke-linejoin="round"/>
  <path d="M301.71 302.67c15.28.47 21.15-.56 21.15-.56s6.92-39.68 4.07-54.22c-.18-.93-.37-1.85-.57-2.75a91.92 91.92 0 01-46.06-2.35c-6.47 17.3-5.07 52.5-5.07 52.5a58.65 58.65 0 0026.48 7.38z" fill="#263238" stroke="#263238" stroke-linecap="round" stroke-linejoin="round"/>
  <path d="M293.06 256.77s6.16 10.8 13.1 16.19m-1.95 4.65c.76.54 1.53 1.05 2.34 1.52m-12.72-12.34a49.56 49.56 0 007.8 8.76" fill="none" stroke="#fff" stroke-linecap="round" stroke-linejoin="round"/>
  <path d="M351.41 225.85c-.78-1.5-1.44-2.7-1.87-3.43-2.78-4.61-4.83-7.52-4.83-7.52s-7.62-20.79-8.53-24.31-.27-6.16-4.45-7.67-13.61-2.64-17-3.16a34.38 34.38 0 01-7.67-2.59s-7.64-1.13-10.26-1.94A202.72 202.72 0 01278 167c-3.58-2-8-6.58-8-6.58l-5.64-12.44a55.68 55.68 0 00-8 2.88c2.43 7.32 4.65 13.91 5.42 15.94 2 5.25 26.23 23.94 26.23 23.94s-4.59 11.44-2.9 17.92a38.63 38.63 0 005.82 12s-3.9 4.65-10.52 21.83a48.72 48.72 0 00-1.59 5.06c9.84 4.32 27 9 48.54 3.61-.11-1.17-.25-2.25-.44-3.22a157.79 157.79 0 00-7.31-25.63l7.63-18.33s10.42 17.79 16.1 27.52a75.45 75.45 0 008.07-5.65z" fill="#34a37e" stroke="#263238" stroke-linecap="round" stroke-linejoin="round"/>
  <path fill="none" stroke="#263238" stroke-linecap="round" stroke-linejoin="round" d="M283.04 176.24l4.98 14.5-9.99-19.13m49.22 32.32l-4.13-2.26m9.24-16.19s-4.23.77-6.93 7.33m-25.05 22.35s5 6.55 12.72 6.55"/>
  <path d="M324.49 181.24c-3.81-.67-7.79-1.18-9.75-1.48a34.38 34.38 0 01-7.67-2.59s-7.64-1.13-10.26-1.94c-.27-.09-.68-.23-1.16-.41-.25 4.46-.44 14.73 2.38 22.17 3.69 9.75 7.75 11.77 7.75 11.77s12.35-14.42 16-21.62c1.29-2.64 2.15-4.54 2.71-5.9z" fill="#263238" stroke="#263238" stroke-linecap="round" stroke-linejoin="round"/>
  <path d="M310.42 135.56s-6.7.65-10.34 6-4.81 10.34-6.05 16 .2 11.08 2.17 11.28l6.79.69s0 14.81.4 19.94 2 8.82 3.49 7 6.4-15 6.4-15l.8-12.3s3.6-2.73 8.92-7.28 6.85-13 2.95-20.26-15.53-6.07-15.53-6.07z" fill="#fff" stroke="#263238" stroke-linecap="round" stroke-linejoin="round"/>
  <path d="M314.38 160.16s1.22.5 1.31-.38 2.77-2.37 3.82-.24m-3.82.24s3.11.57 1.29 2.29" fill="none" stroke="#263238" stroke-linecap="round" stroke-linejoin="round"/>
  <path d="M300.05 148.71c-.32 1-1 1.67-1.45 1.51s-.61-1.08-.29-2.08 1-1.67 1.46-1.51.6 1.09.28 2.08zm6.37 3.29c-.33 1-1 1.67-1.46 1.51s-.6-1.09-.28-2.08 1-1.67 1.45-1.51.61 1.08.29 2.08z" fill="#263238"/>
  <path d="M297.93 155.57s0 1.05 1.71 1.22m-2.17 3.31s4.85 1.28 7.3-1m1.68-12.62a4.73 4.73 0 015.06 4.31m-12.15-6.73s1.55-2.33 3 1.35" fill="none" stroke="#263238" stroke-linecap="round" stroke-linejoin="round"/>
  <path d="M300.28 160.78s2.15 3.36 3.15 2.55.21-3.38.21-3.38a21.76 21.76 0 01-3.36.83zm25.26 1.11c5.33-4.55 6-12.55 2-19.75-5.19-9.36-17.13-6.58-17.13-6.58a15.85 15.85 0 00-3.68.95c2.5.36 8.05 1.73 10.38 7 3.06 6.94-1.44 14.22-1.44 14.22s5.8-2.72 5.6 1.46a6 6 0 01-5.88 5.59 13.82 13.82 0 01-3.43-1 6.79 6.79 0 002.22 5.22c.61-.44 6.54-3 11.36-7.11z" fill="#263238" stroke="#263238" stroke-linecap="round" stroke-linejoin="round"/>
  <path d="M305.39 137.14s3 1.61 5.62 9 7.84 6.63 10.85 6 5.23-.8 5.23-.8a15.63 15.63 0 01-4.62-8c-1.21-5.19-9.25-17.25-17.08-6.2z" fill="#263238" stroke="#263238" stroke-linecap="round" stroke-linejoin="round"/>
  <path d="M174 139s2-3-1.54-4.77a19.41 19.41 0 00-23.06 5.34c-8.49 9.8-1.64 19.26 2.78 24S163 170.45 163 171.3a49.46 49.46 0 01-1.67 5l14.93.66s1.82-5.57 3.45-7.43 4.58 1 6.79-3.71-.5-10.94-.5-10.94 1.41-5.34-.59-5.54-3.48-2.66-4.9-5.69S174 139 174 139z" fill="#fff" stroke="#263238" stroke-linecap="round" stroke-linejoin="round"/>
  <path d="M180.59 145.18s-2-3.13-2.27 1.15m8.37 11.47s-.44 1.34-2.74-.28" fill="none" stroke="#263238" stroke-linecap="round" stroke-linejoin="round"/>
  <path d="M182.26 148.93c.49.94.65 1.82.35 2s-.94-.48-1.43-1.41-.65-1.82-.35-2 .94.48 1.43 1.41z" fill="#263238"/>
  <path d="M170.6 161.8a2.15 2.15 0 01-1.73-2.6c.44-1.53 3.94-.89 3.94-.89s-1.53 1 .1 1.87 2.53-1 2.53-1" fill="none" stroke="#263238" stroke-linecap="round" stroke-linejoin="round"/>
  <path d="M172.48 134.21a19.41 19.41 0 00-23.06 5.34c-8.49 9.8-1.64 19.26 2.78 24 3.5 3.78 8.25 5.88 10 7a15.35 15.35 0 004.92-.89 14.67 14.67 0 006.2-4.27s-5.83.56-6.45-4.69 4.81-4.7 7.09-4.47.83-2.51-.25-3.2.06-3.45.67-6.56-3-1.46-3.51-2.38S174 139 174 139s2.05-3-1.52-4.79z" fill="#263238" stroke="#263238" stroke-linecap="round" stroke-linejoin="round"/>
  <path d="M180.32 176.24a55.73 55.73 0 00-13.29-2.5c-7.45-.47-11.26 2.89-11.26 2.89s5.46.27 14.33.88 10.22-1.27 10.22-1.27z" fill="#34a37e" stroke="#263238" stroke-linecap="round" stroke-linejoin="round"/>
  <path d="M215.3 149.81s14.31-21.61 14.35-24.81-1.16-8.48-1-10.48.58-2.82.81-5.11 2.4-.91 2.14 1.66l.25 1.47 2.48-11.76s1.7-1.26 2 .06l-1.33 7.9.71.11 1.71-9.85s.25-1.12 1.81-1c0 0 .84.22.76 2.36l-1.34 9.26.71.32 1.55-10.2s.65-.79 1.16-.17a4.21 4.21 0 01.42 2.9c-.11 1.14-.9 8.92-.9 8.92l1.45-5.86s1.45-1.57 1.3 1.28a58.53 58.53 0 01-2.21 10.5c-.63 1.93-3 5.7-4.55 6.83s-2.31 1.62-2.37 2.19-8 28.35-12.67 34.59c0 0-1.67-6-5.45-6.84s-3.17.25-3.17.25z" fill="#fff" stroke="#263238" stroke-linecap="round" stroke-linejoin="round"/>
  <path d="M209.87 157.91s-.25-3.2 1.92-4.71 1.83-3.85 3.89-4.22 7.73 3.38 8.26 6.61-.32 3.14-.58 5.71-3.77 6-6.77 4.21-6.72-7.6-6.72-7.6z" fill="#34a37e" stroke="#263238" stroke-linecap="round" stroke-linejoin="round"/>
  <path d="M114.46 212.55s-5.21 19.2-7 30.08-3.2 14.43-4.37 17.34-2.5 5.39-2.16 8.46 4.14 1.94 5.88 1.9 4.43-.86 4.67-3.22.71-2.74.28-4.95-2-4.11-1.83-5.4 9.82-24.15 11.74-30.25 3.18-9.87 3.18-9.87-8.44-1.94-10.39-4.09z" fill="#fff" stroke="#263238" stroke-linecap="round" stroke-linejoin="round"/>
  <path d="M141.83 242c-4.23 13.89-3.54 7-4.23 13.89s-3.39 22.64-3.39 22.64l-10.52 41.65s-13.08 10.16-19.7 19.93S79.9 370.9 79.9 370.9s3.85.66 5.27 2 4.71 4.72 4.71 4.72a28.42 28.42 0 005.9-5.71c6.55-8.44 16.44-15.63 24.09-23.1s16.93-15.08 23.09-24c3.12-5.1 18.92-45.35 18.92-45.35l3.26-.1s16.3 25.29 18.57 28.56 9.44 15.92 9.44 15.92-12.27 9.81-15.49 18-19.23 37.73-20.24 39.14a10.37 10.37 0 00-1.42 3.33s5.9 1.68 8.88 2.2a13 13 0 014.81 1.79s.84-1.87 1.72-4.16a28.8 28.8 0 001.92-6.1c.16-1.5 16.33-17.64 25.26-33s13.23-19.26 13.78-22.46-7.47-26.78-11.25-38.66-13.89-25.48-14.21-26.6-1.31-12.71-1.31-12.71-6.55.42-20.21.33a99.36 99.36 0 01-23.56-2.94z" fill="#263238" stroke="#263238" stroke-linecap="round" stroke-linejoin="round"/>
  <path fill="none" stroke="#fff" stroke-linecap="round" stroke-linejoin="round" d="M151.5 275.23l10.38 4.16"/>
  <path d="M190.93 200.55s-.86 8.52 10.23 15.66 14.62 19.71 14.62 19.71l-2.95 7.32-6.61-3.88s1-13.72-6-19.44-10.32-8.87-12.43-15.69-6.51-16.69-6.51-16.69 8.14 6.24 9.65 13.01z" fill="#263238" stroke="#263238" stroke-linecap="round" stroke-linejoin="round"/>
  <path d="M161.28 176.32a130.29 130.29 0 01-13.95-1.7c-5.65-1.15-10.57 1.81-11.31 6.34s-19.72 26.55-19.86 28 6.9 5.89 10.15 5.07 16.12-13.93 16.12-13.93.38 30.32-.65 34.82-2.78 7.51-.42 9.76 20.35 4.09 29.63 3.59 14.67-2.54 15-5.68.82-10.88 1.25-15.16 5-31.79 5-31.79 13.16-16 19.25-22 8.38-8.67 8.73-12.09-4.16-7.34-7.16-6.21-11.21 11-15.81 13.68-11.3 3.46-14.13 5.77-6.06 2.84-11.48 2.29-10.36-.76-10.36-.76z" fill="#34a37e" stroke="#263238" stroke-linecap="round" stroke-linejoin="round"/>
  <path fill="none" stroke="#263238" stroke-linecap="round" stroke-linejoin="round" d="M138.69 185.94l3.75 14.13-7.86-10.96m57.61 6.5l-6.66 9.32m-6.19 13.38l-1.09 1.82m9.5-15.9l-6.35 10.63m-22.48-3.63c3.7 8.77 9.5 21.22 14.59 26.3m-18.36-35.76s.63 1.72 1.71 4.44m1.14 12.97s7.28 13 11.07 18"/>
  <path d="M117.13 207.61a21.23 21.23 0 005.28 3.58c2.7 1.14 7.23-.79 7 1.36a6.9 6.9 0 01-5.82 6.13c-4.21.87-9-2.87-10.34-5s-.37-9.1 3.88-6.07z" fill="#34a37e" stroke="#263238" stroke-linecap="round" stroke-linejoin="round"/>
  <path d="M108 263.07s-5.71 2.89-3.42 3.77 6 .4 6.62-1.06m-6.6 1.06l-2.21.43m67.3 120.91s5.51 8.8 9.5 12 4.6 3 4.47 4.37-3.56 2.19-9.39 1.6-10.7-4.81-16.1-7.72-6.87-3.84-5.79-6.67a81 81 0 013.62-7.53s7.71-.23 13.69 3.95z" fill="#fff" stroke="#263238" stroke-linecap="round" stroke-linejoin="round"/>
  <path d="M152.38 391.72s4.15 1.49 12.45 7.38 14.11 6.68 18.83 5.41m-93.78-26.93s.07 7.18 1.17 11.15 3.85 7.81 2.59 8.66-2.55 1.1-5-.22-5.54-4-8.73-7.78a25.61 25.61 0 01-5.52-9.1c-1.52-3.89-.69-6.09 1.86-7.19a12.85 12.85 0 003.67-2.2s7.41-.39 9.96 6.68z" fill="#fff" stroke="#263238" stroke-linecap="round" stroke-linejoin="round"/>
  <path d="M74.64 375a32.07 32.07 0 018 10.23c3.67 7 7.53 10.88 11 12.19" fill="#fff" stroke="#263238" stroke-linecap="round" stroke-linejoin="round"/>
  <ellipse cx="148.55" cy="416.22" rx="34.68" ry="3.42" fill="#263238"/>
  <path d="M239.89 84.48v9.07m8.7 1.45l4.72-5.81M226.1 92.1l4.35 3.62m-9.43 8.35h7.62m23.22-.36h5.81" fill="none" stroke="#263238" stroke-linecap="round" stroke-linejoin="round"/>
</svg>
