<svg xmlns="http://www.w3.org/2000/svg" viewBox="0 0 500 500">
  <path fill="#ebebeb" d="M0 382.4h500v.25H0zm237-44.6H43.91a5.71 5.71 0 01-5.7-5.71V60.66a5.71 5.71 0 015.7-5.66H237a5.71 5.71 0 015.71 5.71v271.38a5.71 5.71 0 01-5.71 5.71zM43.91 55.2a5.46 5.46 0 00-5.45 5.46v271.43a5.46 5.46 0 005.45 5.46H237a5.47 5.47 0 005.46-5.46V60.66A5.47 5.47 0 00237 55.2zm409.4 282.6h-193.1a5.72 5.72 0 01-5.71-5.71V60.66a5.72 5.72 0 015.71-5.66h193.1a5.71 5.71 0 015.69 5.66v271.43a5.71 5.71 0 01-5.69 5.71zM260.21 55.2a5.47 5.47 0 00-5.46 5.46v271.43a5.47 5.47 0 005.46 5.46h193.1a5.47 5.47 0 005.46-5.46V60.66a5.47 5.47 0 00-5.46-5.46zM52.46 391.92h42.43v.25H52.46zm69.21-2.71h78.77v.25h-78.77zm-25.78 12h9.89v.25h-9.89zm317.61-1.68h36.4v.25h-36.4zm-22.03 0h13.13v.25h-13.13zm-208.14-4.22h54.56v.25h-54.56z"/>
  <path fill="#f0f0f0" d="M73.34 96.78h144.32V382.4H73.34z"/>
  <path fill="#f5f5f5" d="M76.39 96.78h141.28V382.4H76.39z"/>
  <path fill="#f0f0f0" d="M209.06 103.26v272.66H85V103.26z"/>
  <path d="M189.74 359.47h-85.43a7.63 7.63 0 01-7.62-7.63V301a7.63 7.63 0 017.62-7.63h85.43a7.64 7.64 0 017.63 7.63v50.88a7.64 7.64 0 01-7.63 7.59zm-85.43-65.14a6.63 6.63 0 00-6.62 6.67v50.88a6.63 6.63 0 006.62 6.63h85.43a6.64 6.64 0 006.63-6.63V301a6.64 6.64 0 00-6.63-6.63zm29.69-8.4h-29.69a7.63 7.63 0 01-7.62-7.63v-147a7.63 7.63 0 017.62-7.63H134a7.63 7.63 0 017.62 7.63v147a7.63 7.63 0 01-7.62 7.63zm-29.69-161.24a6.63 6.63 0 00-6.62 6.63v147a6.63 6.63 0 006.62 6.63H134a6.63 6.63 0 006.62-6.63v-147a6.63 6.63 0 00-6.62-6.63zm85.43 161.24H160a7.63 7.63 0 01-7.62-7.63v-147a7.63 7.63 0 017.62-7.63h29.72a7.64 7.64 0 017.63 7.63v147a7.64 7.64 0 01-7.61 7.63zM160 124.69a6.63 6.63 0 00-6.62 6.63v147a6.63 6.63 0 006.62 6.63h29.72a6.64 6.64 0 006.63-6.63v-147a6.64 6.64 0 00-6.63-6.63z" fill="#fff"/>
  <path d="M180.59 228.37h18.67a2.46 2.46 0 002.46-2.46 2.47 2.47 0 00-2.46-2.46h-18.67a2.46 2.46 0 00-2.46 2.46 2.46 2.46 0 002.46 2.46z" fill="#e0e0e0"/>
  <path fill="#f0f0f0" d="M209.06 103.26v272.66h-2.23V103.26z"/>
  <path fill="#e6e6e6" d="M282.54 81.22h117.33v139.83H282.54z"/>
  <path fill="#f5f5f5" d="M285.53 81.22h123.3v139.83h-123.3z"/>
  <path fill="#fff" d="M295.86 91.55h102.65v119.17H295.86z"/>
  <path d="M358.24 152.8a.61.61 0 01-.62-.61v-38.14a.62.62 0 011.23 0v38.14a.61.61 0 01-.61.61z" fill="#e6e6e6"/>
  <path d="M300 210.73l17.13-30.11a3.3 3.3 0 015.23-.68l8.92 9.11 23.95-40.58a3.31 3.31 0 015.76.12l33.33 62.14zm58.54-75.47c-9.27-.19-18.55-2.16-27.83-2.35a1.45 1.45 0 01-1.43-1.45v-17a1.45 1.45 0 011.48-1.46c9.27.2 18.55 2.16 27.83 2.36a1.44 1.44 0 011.43 1.44v17a1.45 1.45 0 01-1.48 1.46z" fill="#f0f0f0"/>
  <path fill="#e6e6e6" d="M414.38 271.75h25.3V382.4h-25.3z"/>
  <path fill="#f5f5f5" d="M428.72 382.4h10.96v-18.36h-11.23l.27 18.36z"/>
  <path fill="#e6e6e6" d="M268.53 271.75h25.3V382.4h-25.3z"/>
  <path fill="#f5f5f5" d="M284.27 271.75h155.41v104.33H284.27z"/>
  <path fill="#f5f5f5" d="M295.22 382.4h-10.95v-18.36h11.22l-.27 18.36z"/>
  <rect x="292.77" y="280.53" width="138.41" height="38.48" rx="3.29" fill="#ebebeb"/>
  <circle cx="402.56" cy="298.02" r="10.65" transform="rotate(-13.28 402.637 298.058)" fill="#fff"/>
  <rect x="292.77" y="328.3" width="138.41" height="38.48" rx="3.29" fill="#ebebeb"/>
  <circle cx="402.56" cy="345.8" r="10.65" fill="#fff"/>
  <circle cx="321.38" cy="298.02" r="10.65" transform="rotate(-13.28 321.448 298.053)" fill="#fff"/>
  <circle cx="321.38" cy="345.8" r="10.65" fill="#fff"/>
  <ellipse cx="250" cy="416.24" rx="193.89" ry="11.32" fill="#f5f5f5"/>
  <path d="M234.2 218v-8.21l5.07-1.45a48.79 48.79 0 011.62-8.15l-4.13-3.3 3.13-7.57 5.24.6a52.12 52.12 0 014.64-6.91l-2.56-4.62 5.78-5.8 4.64 2.56a49.41 49.41 0 016.9-4.62l-.6-5.24 7.58-3.15 3.28 4.13a53.45 53.45 0 018.17-1.62l1.45-5.07h8.19l1.48 5.07a53.68 53.68 0 018.15 1.62l3.29-4.13 7.57 3.15-.6 5.24a48.93 48.93 0 016.91 4.62l4.62-2.56 5.81 5.8-2.57 4.61a51 51 0 014.62 6.91l5.24-.6 3.15 7.57-4.15 3.3a47.8 47.8 0 011.62 8.15l5.1 1.45V218l-5.1 1.45a47.34 47.34 0 01-1.62 8.16l4.15 3.29-3.15 7.57-5.24-.58a50.82 50.82 0 01-4.62 6.89l2.57 4.64-5.83 5.75-4.62-2.57a49.93 49.93 0 01-6.91 4.64l.6 5.24-7.57 3.13-3.29-4.13a49.2 49.2 0 01-8.15 1.62l-1.48 5.08h-8.19L283 263.1a49 49 0 01-8.17-1.62l-3.28 4.13-7.58-3.13.6-5.24a50.44 50.44 0 01-6.9-4.64l-4.67 2.57-5.78-5.79 2.56-4.64a51.91 51.91 0 01-4.64-6.89l-5.24.58-3.13-7.57 4.13-3.29a48.31 48.31 0 01-1.62-8.16zm54.31 33.73a37.83 37.83 0 10-37.83-37.82 37.82 37.82 0 0037.83 37.78z" fill="#34a37e"/>
  <path d="M234.2 218v-8.21l5.07-1.45a48.79 48.79 0 011.62-8.15l-4.13-3.3 3.13-7.57 5.24.6a52.12 52.12 0 014.64-6.91l-2.56-4.62 5.78-5.8 4.64 2.56a49.41 49.41 0 016.9-4.62l-.6-5.24 7.58-3.15 3.28 4.13a53.45 53.45 0 018.17-1.62l1.45-5.07h8.19l1.48 5.07a53.68 53.68 0 018.15 1.62l3.29-4.13 7.57 3.15-.6 5.24a48.93 48.93 0 016.91 4.62l4.62-2.56 5.81 5.8-2.57 4.61a51 51 0 014.62 6.91l5.24-.6 3.15 7.57-4.15 3.3a47.8 47.8 0 011.62 8.15l5.1 1.45V218l-5.1 1.45a47.34 47.34 0 01-1.62 8.16l4.15 3.29-3.15 7.57-5.24-.58a50.82 50.82 0 01-4.62 6.89l2.57 4.64-5.83 5.75-4.62-2.57a49.93 49.93 0 01-6.91 4.64l.6 5.24-7.57 3.13-3.29-4.13a49.2 49.2 0 01-8.15 1.62l-1.48 5.08h-8.19L283 263.1a49 49 0 01-8.17-1.62l-3.28 4.13-7.58-3.13.6-5.24a50.44 50.44 0 01-6.9-4.64l-4.67 2.57-5.78-5.79 2.56-4.64a51.91 51.91 0 01-4.64-6.89l-5.24.58-3.13-7.57 4.13-3.29a48.31 48.31 0 01-1.62-8.16zm54.31 33.73a37.83 37.83 0 10-37.83-37.82 37.82 37.82 0 0037.83 37.78z" fill="#fff" opacity=".7"/>
  <path d="M208.25 276.53a27.88 27.88 0 012.19-5.14l-1.1-5 7.46-7.46 5 1.1a27.88 27.88 0 015.14-2.19l3.25-5.08h10.57l3.24 5.08a28 28 0 015.15 2.19l5-1.1 7.47 7.46-1.1 5a28.58 28.58 0 012.19 5.14l5.07 3.25v10.56l-5.07 3.25a29.3 29.3 0 01-2.19 5.15l1.1 5-7.47 7.47-5-1.1a28.68 28.68 0 01-5.15 2.19l-3.24 5.07h-10.55l-3.21-5.06a28.58 28.58 0 01-5.14-2.19l-5 1.1-7.46-7.47 1.1-5a28.57 28.57 0 01-2.19-5.15l-5.07-3.25v-10.57zm27.24 23.16a14.63 14.63 0 10-14.62-14.63 14.63 14.63 0 0014.62 14.63z" fill="#34a37e"/>
  <path d="M208.25 276.53a27.88 27.88 0 012.19-5.14l-1.1-5 7.46-7.46 5 1.1a27.88 27.88 0 015.14-2.19l3.25-5.08h10.57l3.24 5.08a28 28 0 015.15 2.19l5-1.1 7.47 7.46-1.1 5a28.58 28.58 0 012.19 5.14l5.07 3.25v10.56l-5.07 3.25a29.3 29.3 0 01-2.19 5.15l1.1 5-7.47 7.47-5-1.1a28.68 28.68 0 01-5.15 2.19l-3.24 5.07h-10.55l-3.21-5.06a28.58 28.58 0 01-5.14-2.19l-5 1.1-7.46-7.47 1.1-5a28.57 28.57 0 01-2.19-5.15l-5.07-3.25v-10.57zm27.24 23.16a14.63 14.63 0 10-14.62-14.63 14.63 14.63 0 0014.62 14.63z" fill="#fff" opacity=".5"/>
  <path d="M407.55 99v130.86c18.61 0 36.27-23.48 36.27-65.46S426.16 99 407.55 99z" fill="#263238"/>
  <path d="M392.27 103.81l-.43-.48a32.87 32.87 0 012.76-2.23l.38.53a28.43 28.43 0 00-2.71 2.18zm-9.98 13.57l-.57-.29A54.2 54.2 0 01388.3 107l.5.42a52.85 52.85 0 00-6.51 9.96z" fill="#34a37e"/>
  <ellipse cx="407.55" cy="164.4" rx="33.69" ry="65.46" fill="#34a37e"/>
  <ellipse cx="407.55" cy="164.4" rx="26.96" ry="52.37" fill="#fff"/>
  <ellipse cx="407.55" cy="164.4" rx="20.22" ry="39.28" fill="#34a37e"/>
  <ellipse cx="407.55" cy="164.4" rx="13.48" ry="26.18" fill="#fff"/>
  <ellipse cx="407.55" cy="164.4" rx="6.74" ry="13.09" fill="#34a37e"/>
  <path d="M377 222.67l-46 33.89 20.15 2.74-39.32 65.49-56.55-10a4 4 0 00-3.74 1.33l-47 54.36-65.17-10.3a4.65 4.65 0 00-3.86 1.16L84.59 408a5 5 0 006.83 7.31l48.72-45.56 65.4 9.77a4.35 4.35 0 004-1.48l46.56-54.94 56.9 9.66a3.78 3.78 0 003.89-1.81l40.15-68.06 12 16.4z" fill="#263238"/>
  <path d="M171.56 175.94l-.52.26-.64.33c-.43.24-.88.47-1.32.73-.88.5-1.76 1.05-2.63 1.63-1.75 1.13-3.44 2.39-5.11 3.7s-3.25 2.73-4.82 4.18l-2.29 2.23-1.12 1.16-.55.59-.21.22a6.06 6.06 0 00-.75 4 27.2 27.2 0 001.13 5.86 83.47 83.47 0 004.81 12.08l-3.75 2.45a57.58 57.58 0 01-7.39-12.21 31.06 31.06 0 01-2.25-7.29 17.08 17.08 0 01-.18-4.34 11.28 11.28 0 011.56-4.87 9.69 9.69 0 01.81-1.14l.56-.7 1.14-1.38c.77-.92 1.57-1.81 2.38-2.69a70.47 70.47 0 015.21-5 58.79 58.79 0 015.8-4.43c1-.68 2.06-1.33 3.16-1.94.53-.32 1.09-.61 1.66-.9l.89-.43c.32-.15.56-.26 1-.45zm14.05-35.63c.34 5.33 1.14 17-3 20 0 0 .73 5.46 10.39 6.73 10.63 1.39 5.77-4.61 5.77-4.61-5.62-2.14-4.91-6.43-3.37-10.33z" fill="#b55b52"/>
  <path d="M180.57 163s-.94-3-1.28-4.75 12.79-1.18 17.14-.07 5.73 6.21 5.73 6.21z" fill="#263238"/>
  <path d="M205.06 136.58a19.27 19.27 0 003 4.27 3 3 0 01-2.47.73z" fill="#a02724"/>
  <path d="M202 131.94a.45.45 0 01-.19-.05.42.42 0 01-.17-.57 4.16 4.16 0 013.08-2.26.42.42 0 01.45.38.41.41 0 01-.37.46 3.29 3.29 0 00-2.42 1.81.43.43 0 01-.38.23zm2.3 3.49c.07.71.51 1.24 1 1.2s.78-.66.71-1.37-.51-1.25-1-1.2-.78.66-.71 1.37z" fill="#263238"/>
  <path d="M204.81 134.12l1.65-.67s-.74 1.42-1.65.67z" fill="#263238"/>
  <path fill="#b55b52" d="M136.87 358.13l8.53 2.31 8.08-19.01-8.53-2.31-8.08 19.01z"/>
  <path d="M148.39 354l-9.81-1.55a.71.71 0 00-.79.49l-2.34 7.58a1.43 1.43 0 001.15 1.78c3.43.48 5.11.54 9.42 1.22 2.65.42 6.49 1.31 10.15 1.88s4.43-3 3-3.58c-6.61-2.55-7.37-4.75-9.37-7a2.37 2.37 0 00-1.41-.82z" fill="#263238"/>
  <path opacity=".2" d="M144.95 339.12l8.53 2.32-4.17 9.8-8.53-2.32 4.17-9.8z"/>
  <path d="M175.69 162.11c-3.5-1.36-14.08 7.46-14.08 7.46l4.72 16.26s11.85-6.88 12.91-11.65c1.11-4.96.59-10.46-3.55-12.07z" fill="#34a37e"/>
  <path d="M215.05 170.28c0 5.68.21 16.21-3.49 35-.67 3.41.65 4.93.06 8.41-.39 2.28-1.67 1.94-1.85 3.05h-35.88c0-1.06-1.57-1.63-1.94-3.94-.83-5.28 2.23-5.72 2.13-9.05-.25-8.4-1.48-17.85-5.15-34.43a6 6 0 015-7.29c2.58-.37 5.68-.73 8.82-.88a113.56 113.56 0 0116.3 0c3.18.29 6.55.78 9.29 1.23a8 8 0 016.71 7.9z" fill="#34a37e"/>
  <path d="M205.14 175.22c1.6 3.82 6.7 9.55 9.16 12.19.38-3.68.57-6.8.67-9.44z" opacity=".2"/>
  <path d="M216 167.44c2.94 3 6.14 6.06 9.33 8.89a78.82 78.82 0 009.93 7.69c.42.29.85.49 1.27.75l.63.36c.09.05 0 0 0 0h-.19c-.26 0 .32.11 1-.14a20.82 20.82 0 004.88-2.72 112.12 112.12 0 009.95-8.19l3.43 2.87a62.25 62.25 0 01-9 10.72 25 25 0 01-6.34 4.5 11.52 11.52 0 01-2.33.81 8.26 8.26 0 01-3.18.1 6.51 6.51 0 01-.92-.23 4.34 4.34 0 01-.47-.16l-.39-.17-.85-.4c-.55-.28-1.15-.54-1.67-.84a71.34 71.34 0 01-11.65-8.1 110.33 110.33 0 01-10.07-9.54z" fill="#b55b52"/>
  <path d="M255.21 171a12.05 12.05 0 00-3.81 4.62l.75 3.36a.58.58 0 00.82.39l5.37-2.64 2.24-1.14a1.29 1.29 0 00.69-1.34l-.37-2.55a1.28 1.28 0 00-1.32-1.1l-3.48.11a1.65 1.65 0 00-.89.29zm-96.42 44.75a12.2 12.2 0 01-2.1 5.61l-3.29 1a.58.58 0 01-.75-.51l-.39-6-.15-3.06a.53.53 0 01.33-.52l3.53-1.4a.54.54 0 01.67.25l2 3.67a1.72 1.72 0 01.15.96z" fill="#b55b52"/>
  <path d="M122.75 245.35l35.87 4.2a4.08 4.08 0 004.08-2.55l7.64-21.13a2.32 2.32 0 00-2-3.25l-35.87-4.2a4.08 4.08 0 00-4.08 2.55l-7.64 21.13a2.32 2.32 0 002 3.25z" fill="#263238"/>
  <path d="M127 252.72l44 5.11a3.93 3.93 0 004.3-3.26l4.28-26.91a3.55 3.55 0 00-3.12-4.13l-44-5.11a3.94 3.94 0 00-4.3 3.27l-4.28 26.91a3.54 3.54 0 003.12 4.12z" fill="#34a37e"/>
  <path d="M127 252.72l44 5.11a3.93 3.93 0 004.3-3.26l4.28-26.91a3.55 3.55 0 00-3.12-4.13l-44-5.11a3.94 3.94 0 00-4.3 3.27l-4.28 26.91a3.54 3.54 0 003.12 4.12z" opacity=".3"/>
  <path d="M161.38 229.19h-.24l-12.77-1.49a2 2 0 01-1.39-.79 2 2 0 01-.39-1.56l.93-5.8a4.29 4.29 0 014.69-3.56l8.54 1a4.16 4.16 0 013.64 4.8l-.9 5.62a2.15 2.15 0 01-2.11 1.78zm-12.78-3.48l12.77 1.48a.14.14 0 00.15-.11l.89-5.63a2.11 2.11 0 00-.4-1.65 2.18 2.18 0 00-1.49-.84L152 218a2.32 2.32 0 00-2.49 1.9l-.92 5.8-.08 1z" fill="#34a37e"/>
  <path d="M175.69 258.38l-44-5.11a4.06 4.06 0 01-3.53-4.17l1.36-27.25a3.46 3.46 0 013.9-3.31l44 5.11a4 4 0 013.53 4.17l-1.36 27.25a3.46 3.46 0 01-3.9 3.31zm33.49-95.66c6.79 1.64 13.82 8.33 13.82 8.33l-6 14.78s-14-8.54-15.3-13.25c-1.7-6.26.93-11.44 7.48-9.86z" fill="#34a37e"/>
  <path d="M180.21 135.46c1.43 8.65 1.86 12.34 6.71 16.36 7.31 6 17.63 2.38 18.81-6.52 1.06-8-1.46-20.82-10.34-23.41a12 12 0 00-15.18 13.57z" fill="#b55b52"/>
  <path d="M201.59 122.58c-5.74-.65-16-9-21.84-.45-5.34 7.88-8.05 9-16.31 12.21-13.78 5.3-6.11 10.92-12 19.42s-15.84 6-17.25 17.49c-2.17 17.59 28.33 39.17 46.58 19.33S187 164 195.22 158.33c10.41-7.22 7.78-19.24 4.2-20.88 3.92-4 9.43-14.03 2.17-14.87z" fill="#263238"/>
  <path d="M202.51 135.67a8.07 8.07 0 012.11 4.81c.13 2.25-2 2.43-3.78 1-1.64-1.26-3.69-4-3-5.84s3.16-1.64 4.67.03z" fill="#b55b52"/>
  <path d="M200.3 216.78s-3.52 52.78-17.15 79.86c-5.55 11-30.9 51.95-30.9 51.95l-12.4-2.06s17.93-44.53 28.93-55c1.15-29.45-7.45-60.34 5.11-74.78z" fill="#263238"/>
  <path d="M188.4 231a126.32 126.32 0 004.34 37c2-8.5 3.48-17.15 4.61-24.86A62 62 0 00188.4 231z" opacity=".4"/>
  <path fill="#263238" d="M153.13 350.38l-14.81-4.02 1.8-5.09 15.94 3.76-2.93 5.35z"/>
  <path fill="#b55b52" d="M252.49 310.92l9 1.32-1.8-20.33-9-1.33 1.8 20.34z"/>
  <path d="M261.52 306.18l-9.81-1.5a.71.71 0 00-.79.49l-2.3 7.6a1.43 1.43 0 001.17 1.77c3.43.46 5.11.51 9.43 1.16 2.65.41 6.49 1.27 10.15 1.83s4.42-3 2.94-3.6c-6.62-2.51-7.39-4.71-9.41-7a2.24 2.24 0 00-1.38-.75z" fill="#263238"/>
  <path opacity=".2" d="M250.68 290.58l9.02 1.33.83 9.5-8.92-.34-.93-10.49z"/>
  <path d="M209.77 216.78s59.19 10 56.85 27.37c-3.69 27.43-5.13 52.85-5.13 52.85L250 296s-4.82-27-1.5-45.08c-13.83-6.25-72.37 18.05-65.14-34.14z" fill="#263238"/>
  <path fill="#263238" d="M262.75 299.86l-15.25-1.8-.17-5.44 16.2 1.35-.78 5.89z"/>
  <path d="M173.35 214.68l-1.62 3.21c-.13.25.17.5.58.5H210c.32 0 .59-.15.61-.36l.33-3.21c0-.22-.26-.41-.62-.41h-36.39a.65.65 0 00-.58.27z" fill="#fff"/>
  <path d="M178.23 218.74h-1c-.2 0-.35-.1-.33-.22l.45-4.17c0-.13.19-.23.38-.23h1c.2 0 .35.1.33.23l-.45 4.17c-.02.12-.19.22-.38.22zm23.59 0h-1c-.2 0-.34-.1-.33-.22l.46-4.17c0-.13.18-.23.37-.23h1c.19 0 .34.1.32.23l-.45 4.17c-.01.12-.19.22-.37.22z" fill="#263238"/>
</svg>
