<svg xmlns="http://www.w3.org/2000/svg" viewBox="0 0 500 500">
  <path d="M470.41 161.34c-18.09-51.48-48.61-97.87-95.5-123.18C321.64 9.41 250.57 16 197.22 40.78c-76.39 35.43-89.16 126.13-131.58 190.15-13.87 20.94-29.74 40.83-39.88 63.81C-16.75 391.14 97.67 489 189.29 476c75.93-10.71 93.46-38.94 145-34.07s90.58 17.55 123.71-24.31c28.81-36.43 34.69-86.85 34-131.81-.68-39.34-7.2-83.52-21.59-124.47z" fill="#34a37e"/>
  <path d="M470.41 161.34c-18.09-51.48-48.61-97.87-95.5-123.18C321.64 9.41 250.57 16 197.22 40.78c-76.39 35.43-89.16 126.13-131.58 190.15-13.87 20.94-29.74 40.83-39.88 63.81C-16.75 391.14 97.67 489 189.29 476c75.93-10.71 93.46-38.94 145-34.07s90.58 17.55 123.71-24.31c28.81-36.43 34.69-86.85 34-131.81-.68-39.34-7.2-83.52-21.59-124.47z" fill="#fff" opacity=".7"/>
  <g fill="none" stroke="#000" stroke-linejoin="round">
    <g opacity=".3">
      <path d="M271.49 388.18h58.75v53.72h-58.75z"/>
      <path d="M277.71 403.84h6.15V410h-6.15zm10.07 0h6.16V410h-6.16zm10.08 0h6.16V410h-6.16zm10.07 0h6.15V410h-6.15zm10.07 0h6.16V410H318zm-40.29 11.2h6.15v6.16h-6.15zm10.07 0h6.16v6.16h-6.16zm10.08 0h6.16v6.16h-6.16zm10.07 0h6.15v6.16h-6.15zm10.07 0h6.16v6.16H318zm-40.29 11.19h6.15v6.16h-6.15zm10.07 0h6.16v6.16h-6.16zm10.08 0h6.16v6.16h-6.16zm10.07 0h6.15v6.16h-6.15zm10.07 0h6.16v6.16H318zm-40.29-31.9h45.88v3.36h-45.88z"/>
    </g>
    <g opacity=".3">
      <path d="M421.41 149.18h58.75v53.72h-58.75z"/>
      <path d="M427.63 164.84h6.16V171h-6.16zm10.07 0h6.15V171h-6.15zm10.07 0h6.16V171h-6.16zm10.07 0H464V171h-6.16zm10.08 0h6.15V171h-6.15zm-40.29 11.2h6.16v6.15h-6.16zm10.07 0h6.15v6.15h-6.15zm10.07 0h6.16v6.15h-6.16zm10.07 0H464v6.15h-6.16zm10.08 0h6.15v6.15h-6.15zm-40.29 11.19h6.16v6.16h-6.16zm10.07 0h6.15v6.16h-6.15zm10.07 0h6.16v6.16h-6.16zm10.07 0H464v6.16h-6.16zm10.08 0h6.15v6.16h-6.15zm-40.29-31.9h45.88v3.36h-45.88z"/>
    </g>
  </g>
  <g opacity=".3" fill="none" stroke="#000" stroke-linejoin="round">
    <circle cx="55" cy="90" r="26"/>
    <path d="M45.92 99.09L55 90l15.09 13.92"/>
  </g>
  <path d="M74.64 292.88v-4L52 276c-.33-12.71-1.85-22.31-3.67-22.31s-3.35 9.65-3.67 22.4l-21.88 12.22v4.11l21.92-4.63c.26 7.49.93 13.77 1.83 17.4l-5.75 4.31v3.05l6.86-3.05h2.14l6.4 3.05v-2.89l-6-4.81A99.84 99.84 0 0052 287.39z" fill="none" stroke="#000" stroke-linejoin="round" opacity=".3"/>
  <g fill="#34a37e">
    <path d="M25.17 208.45c3.3-.58 9.47-4.88 9.47-4.88s-4.07-3.2-4.35-3.37c-3.28-2-10.78-3.83-14-1a5.06 5.06 0 00.12 7.54c2.22 2.06 5.94 2.26 8.76 1.71z"/>
    <path d="M39.37 225.16c2.91-1.38 7.42-6.71 7.78-7.14a88.29 88.29 0 009.61 7.13c2 1.27 4 2.49 6 3.69-1-.41-1.91-.77-2-.81-3.68-1-11.4-.84-13.76 2.74a5.06 5.06 0 002.05 7.23c2.68 1.41 6.31.57 8.89-.65s6.56-5.7 7.59-6.9l2.34 1.36c3.75 2.14 7.51 4.27 11.13 6.47 1.28.77 2.51 1.58 3.74 2.39-.89-.36-1.65-.66-1.77-.69-3.68-1-11.4-.84-13.76 2.73a5.07 5.07 0 002.11 7.29c2.68 1.4 6.31.56 8.89-.66s6.17-5.27 7.4-6.68c1.24.86 2.48 1.72 3.64 2.61.78.63 1.57 1.18 2.32 1.85s1.5 1.3 2.24 1.94c1.37 1.28 2.8 2.59 4.11 3.88.92.88 1.78 1.75 2.65 2.61-1.26-.79-3.76-2.27-4-2.37-3.48-1.57-11.14-2.56-14 .61a5.07 5.07 0 001 7.48c2.43 1.79 6.15 1.51 8.88.7 3-.9 8.1-5.28 8.73-5.83a256.323 256.323 0 017.34 7.68l2.23-1.49c-1.14-1.19-2.35-2.45-3.66-3.76s-3-3-4.66-4.56a54.47 54.47 0 003.36-5.53c3.13.76 9.35 0 10.15-.14.4 2 .78 3.93 1.1 5.76.22 1.27.43 2.48.62 3.65l2.36-1.57c-.15-.83-.31-1.67-.49-2.55-.4-2-.87-4.17-1.37-6.37.77-.31 7-2.84 9.17-5.12 2-2.06 3.91-5.24 3.43-8.22a5.07 5.07 0 00-6.2-4.29c-4.14 1.11-6.75 8.37-6.94 12.19 0 .23.14 2.69.26 4.24-.21-.9-.4-1.78-.63-2.7-.44-1.83-.93-3.65-1.45-5.6l-.86-2.83c-.27-.95-.67-1.92-1-2.89-.83-2.24-1.77-4.46-2.77-6.68 1.61-.39 7.27-1.84 9.54-3.6s4.66-4.59 4.64-7.61a5.07 5.07 0 00-5.48-5.18c-4.26.47-7.94 7.26-8.71 11-.05.23-.29 3-.4 4.49-.61-1.33-1.21-2.66-1.88-4-1.9-3.82-4-7.64-6-11.46-.62-1.16-1.22-2.34-1.84-3.51.58-.13 7.35-1.71 9.89-3.67 2.27-1.74 4.66-4.59 4.64-7.61a5.07 5.07 0 00-5.48-5.18c-4.26.47-7.94 7.25-8.71 11-.06.28-.41 4.24-.45 5.25-1.34-2.58-2.66-5.16-3.85-7.76a87.63 87.63 0 01-4.2-10.79c.27-.06 7.34-1.68 10-3.68 2.26-1.75 4.66-4.59 4.63-7.62a5.07 5.07 0 00-5.48-5.18c-4.26.47-7.94 7.26-8.7 11-.06.29-.44 4.55-.45 5.33-.07-.22-.16-.43-.22-.65a65 65 0 01-2.19-11.39c-.24-2.13-.35-4.17-.42-6.16 1.35-.17 7.5-1 10-2.55s5.14-4.05 5.44-7.06a5.07 5.07 0 00-4.88-5.75c-4.28 0-8.68 6.35-9.86 10-.06.19-.49 2.28-.78 3.8v-2.69c0-3.24.2-6.2.4-8.83.12-1.49.26-2.84.41-4.1 1.24-.85 6.18-4.35 7.7-6.85s2.7-6 1.58-8.78a5.07 5.07 0 00-7-2.85c-3.8 2-4.79 9.63-4.15 13.4 0 .33 1.5 5.32 1.56 5.28l.08-.05c-.17 1.21-.33 2.5-.48 3.92-.26 2.63-.52 5.6-.59 8.85a88 88 0 00.27 10.5 65.53 65.53 0 002 11.58v.14c-.67-1.06-2.66-4-2.84-4.16-2.5-2.89-9-7-13-5.31a5.06 5.06 0 00-2.24 7.2c1.47 2.65 5 4 7.78 4.36 3.19.46 9.89-1.5 10.42-1.66A90.7 90.7 0 0096 198c.93 2.14 1.93 4.26 3 6.37-.62-.89-1.17-1.69-1.26-1.79-2.51-2.89-9-7-13-5.32a5.07 5.07 0 00-2.23 7.21c1.46 2.64 5 3.95 7.77 4.35s8.62-1.14 10.14-1.57c.4.81.79 1.62 1.2 2.43 2 3.86 3.91 7.71 5.72 11.54.64 1.35 1.21 2.7 1.8 4.06-.55-.8-1-1.46-1.1-1.56-2.5-2.88-9-7-13-5.31a5.06 5.06 0 00-2.23 7.2c1.46 2.65 4.94 4 7.77 4.36s8.06-1 9.86-1.5c.56 1.41 1.12 2.81 1.59 4.19.31 1 .66 1.85.92 2.83s.53 1.9.8 2.84c.44 1.83.9 3.72 1.29 5.51.28 1.25.52 2.44.77 3.64-.62-1.35-1.89-4-2-4.18a19.64 19.64 0 00-7.49-6.51 5.91 5.91 0 00-.68-.9 5.07 5.07 0 00-7.54-.15c-2.84 3.2-1 10.71.94 14 .12.19 1.6 2.16 2.55 3.38-.67-.63-1.31-1.26-2-1.9-1.37-1.29-2.78-2.53-4.29-3.87l-2.28-1.88c-.75-.65-1.62-1.24-2.44-1.86a80.163 80.163 0 00-6-4c1.13-1.21 5-5.55 6-8.26s1.35-6.4-.34-8.91a5.05 5.05 0 00-7.42-1.29c-3.3 2.74-2.62 10.43-1.2 14 .09.22 1.4 2.65 2.15 4-1.24-.77-2.48-1.55-3.77-2.29-3.7-2.14-7.51-4.19-11.31-6.26-1.17-.63-2.32-1.27-3.47-1.91.4-.43 5.17-5.48 6.22-8.52.92-2.7 1.35-6.4-.34-8.91a5.07 5.07 0 00-7.43-1.29c-3.29 2.74-2.61 10.43-1.19 14 .11.26 2 3.76 2.52 4.62-2.54-1.41-5.06-2.83-7.49-4.34a89.55 89.55 0 01-9.51-6.81c.19-.2 5.19-5.45 6.26-8.57.93-2.7 1.35-6.4-.34-8.9a5.06 5.06 0 00-7.42-1.3c-3.29 2.74-2.62 10.43-1.19 14 .11.28 2.14 4 2.56 4.69-.17-.14-.37-.27-.54-.41a65.18 65.18 0 01-8.11-8.3c-1.37-1.64-2.59-3.28-3.75-4.91 1-.88 5.71-5 7-7.66s2-6.22.65-8.89a5.07 5.07 0 00-7.24-2.11c-3.58 2.36-3.75 10.09-2.72 13.77 0 .2.85 2.17 1.45 3.6-.51-.74-1.05-1.5-1.53-2.22-1.78-2.7-3.25-5.28-4.53-7.58-.72-1.32-1.35-2.52-1.92-3.65.56-1.39 2.76-7 2.64-10s-1-6.45-3.52-8.18a5.06 5.06 0 00-7.4 1.47c-2.13 3.71 1.27 10.71 3.88 13.48.23.24 4.19 3.61 4.22 3.54a.46.46 0 000-.09c.53 1.1 1.11 2.27 1.77 3.54 1.24 2.33 2.65 5 4.39 7.7a89.91 89.91 0 006 8.61 66.75 66.75 0 008 8.58l.11.09c-1.15-.51-4.4-1.83-4.66-1.9-3.68-1-11.4-.84-13.76 2.73a5.07 5.07 0 002.11 7.24c2.75 1.4 6.38.56 8.96-.65z"/>
    <path d="M89.41 167.79c.08 0-1.62-4.92-1.76-5.22-1.66-3.44-6.88-9.13-11.12-8.55a5.07 5.07 0 00-4.06 6.36c.71 2.93 3.73 5.11 6.35 6.25 3.07 1.37 10.59 1.16 10.59 1.16zM339.37 43.55c2.46 2.28 9.62 4.59 9.62 4.59s.1-5.18.06-5.51c-.42-3.8-3.48-10.89-7.67-11.74a5.06 5.06 0 00-5.93 4.66c-.3 3.01 1.83 6.06 3.92 8z"/>
    <path d="M334.67 65c2.86 1.49 9.83 1.86 10.38 1.88a90.57 90.57 0 00.15 12c.16 2.32.41 4.65.68 7-.28-1-.54-2-.59-2.11-1.42-3.55-6.23-9.59-10.51-9.3a5.06 5.06 0 00-4.48 6.06c.5 3 3.36 5.36 5.9 6.68s8.51 1.77 10.08 1.86c.11.9.22 1.79.34 2.69.56 4.29 1.14 8.57 1.58 12.78.16 1.49.25 3 .36 4.42-.25-.93-.47-1.71-.52-1.82-1.41-3.56-6.23-9.59-10.5-9.31a5.08 5.08 0 00-4.49 6.06c.51 3 3.37 5.37 5.9 6.68s7.93 1.73 9.8 1.85c.06 1.51.13 3 .12 4.48 0 1 0 2-.07 3s-.13 2-.19 2.95c-.18 1.87-.36 3.8-.59 5.62-.15 1.27-.32 2.48-.48 3.69-.14-1.48-.47-4.37-.53-4.61-.85-3.72-4.7-10.42-9-10.78a5.06 5.06 0 00-5.35 5.31c.05 3 2.51 5.81 4.82 7.49 2.54 1.86 9.1 3.26 9.92 3.42-.28 2-.56 4-.87 5.8-.26 1.65-.53 3.21-.8 4.69l2.53.88c.26-1.63.53-3.35.78-5.19.29-2 .56-4.22.81-6.47a54.14 54.14 0 006.44-.67c1.29 3 5.68 7.43 6.25 8-1.34 1.52-2.66 3-3.92 4.36-.87.94-1.71 1.84-2.53 2.7l2.68.93c.57-.62 1.14-1.26 1.73-1.93 1.37-1.54 2.8-3.22 4.25-4.95.7.42 6.49 3.85 9.62 4.21 2.83.32 6.54-.06 8.62-2.25a5.06 5.06 0 00-.34-7.53c-3.38-2.62-10.75-.31-13.9 1.85-.19.13-2.06 1.74-3.22 2.77.59-.71 1.17-1.39 1.77-2.13 1.19-1.46 2.34-2.95 3.58-4.54l1.73-2.4c.6-.79 1.13-1.69 1.7-2.55 1.28-2 2.48-4.1 3.65-6.24 1.27 1 5.86 4.67 8.63 5.42s6.47.93 8.86-.92a5.06 5.06 0 00.81-7.49c-3-3.11-10.58-1.93-14-.28-.21.11-2.55 1.57-3.82 2.4.69-1.29 1.39-2.57 2-3.9 1.89-3.84 3.69-7.78 5.5-11.71.55-1.2 1.12-2.39 1.68-3.58.45.37 5.81 4.8 8.91 5.65 2.76.74 6.48.93 8.87-.92a5.06 5.06 0 00.8-7.5c-2.94-3.1-10.58-1.93-14-.27-.26.12-3.63 2.24-4.45 2.82 1.24-2.63 2.49-5.24 3.84-7.77a88.7 88.7 0 016.05-9.87c.21.18 5.78 4.83 8.95 5.69 2.76.75 6.48.94 8.87-.91a5.07 5.07 0 00.81-7.5c-3-3.1-10.58-1.93-14-.27-.27.13-3.89 2.4-4.51 2.86.13-.18.24-.38.37-.56a66.54 66.54 0 017.74-8.72c1.55-1.47 3.11-2.8 4.66-4.06.94 1 5.33 5.37 8.1 6.46s6.34 1.64 8.91.07a5.07 5.07 0 001.63-7.37c-2.59-3.41-10.31-3.08-13.91-1.81-.2.07-2.12 1-3.5 1.68.71-.56 1.42-1.14 2.11-1.66 2.58-2 5.06-3.6 7.27-5 1.26-.8 2.42-1.5 3.51-2.15 1.43.47 7.21 2.29 10.12 2s6.38-1.47 7.94-4.05a5.07 5.07 0 00-1.95-7.29c-3.87-1.83-10.56 2-13.18 4.8-.23.25-3.33 4.42-3.26 4.44h.09c-1.06.6-2.19 1.26-3.41 2-2.25 1.38-4.77 3-7.4 4.88a88.46 88.46 0 00-8.2 6.56 66.85 66.85 0 00-8 8.57l-.08.12c.44-1.18 1.54-4.51 1.59-4.77.79-3.75.1-11.44-3.62-13.56a5.07 5.07 0 00-7.09 2.58c-1.22 2.77-.15 6.33 1.24 8.83 1.56 2.81 7.17 7 7.62 7.3a90.64 90.64 0 00-6.48 10.06c-1.14 2-2.23 4.1-3.29 6.2.34-1 .64-2 .67-2.08.78-3.75.09-11.44-3.63-13.56a5.07 5.07 0 00-7.08 2.58c-1.23 2.77-.15 6.33 1.23 8.83s6.12 6.17 7.38 7.12c-.39.81-.8 1.61-1.2 2.42-1.89 3.89-3.77 7.78-5.73 11.54-.69 1.32-1.42 2.6-2.14 3.88.3-.91.55-1.68.58-1.81.78-3.74.09-11.43-3.63-13.55a5.07 5.07 0 00-7.09 2.58c-1.22 2.76-.15 6.33 1.24 8.83s5.66 5.81 7.16 6.94c-.78 1.3-1.56 2.59-2.38 3.81-.57.81-1.07 1.64-1.69 2.43l-1.79 2.36c-1.19 1.46-2.4 3-3.6 4.36-.82 1-1.63 1.89-2.43 2.82.7-1.31 2-3.91 2.11-4.14a19.7 19.7 0 00.65-9.91 5.77 5.77 0 00.3-1.08 5.06 5.06 0 00-4.44-6.09c-4.27-.32-9.13 5.67-10.57 9.22-.09.2-.76 2.57-1.15 4.08.1-.92.2-1.81.29-2.76.19-1.87.33-3.74.49-5.76 0-1 .08-2 .12-2.95s0-2 0-3.06c0-2.39-.19-4.8-.4-7.23 1.64.17 7.47.67 10.19-.23s5.92-2.8 6.89-5.66a5.06 5.06 0 00-3.46-6.7c-4.17-1-9.89 4.23-11.85 7.51-.12.21-1.26 2.72-1.87 4.11-.13-1.45-.26-2.91-.45-4.38-.54-4.24-1.21-8.52-1.87-12.8-.2-1.3-.38-2.61-.57-3.92.58.07 7.49.81 10.54-.2 2.71-.9 5.92-2.79 6.89-5.65a5.06 5.06 0 00-3.5-6.73c-4.17-1-9.89 4.22-11.85 7.51-.15.24-1.79 3.86-2.16 4.8-.42-2.87-.81-5.75-1.08-8.59a90.51 90.51 0 01-.41-11.58c.27 0 7.48.84 10.6-.2 2.72-.89 5.92-2.79 6.89-5.65a5.06 5.06 0 00-3.46-6.7c-4.17-1-9.89 4.23-11.85 7.51-.16.26-1.92 4.15-2.18 4.88v-.68a65.41 65.41 0 011.7-11.47c.47-2.09 1-4.06 1.64-6 1.33.29 7.41 1.54 10.32.92s6.19-2.13 7.47-4.87a5.05 5.05 0 00-2.7-7c-4-1.42-10.3 3.11-12.61 6.16-.12.17-1.21 2-2 3.33.28-.85.56-1.74.85-2.55 1.07-3.06 2.23-5.79 3.29-8.2.61-1.37 1.19-2.59 1.74-3.73 1.45-.4 7.28-2.07 9.54-3.93s4.51-4.74 4.38-7.76a5.06 5.06 0 00-5.64-5c-4.24.61-7.7 7.51-8.35 11.28-.05.32-.34 5.52-.26 5.5h.08c-.55 1.09-1.13 2.26-1.74 3.55-1.11 2.39-2.34 5.11-3.48 8.15a90.54 90.54 0 00-3.22 10 66.13 66.13 0 00-2 11.58v.14c-.29-1.22-1.21-4.6-1.31-4.86-1.41-3.55-6.23-9.58-10.5-9.3a5.06 5.06 0 00-4.49 6.06c.56 2.96 3.42 5.34 5.96 6.7z"/>
    <path d="M410.62 70.1c.05.06 2.94-4.27 3.09-4.56 1.74-3.4 3.11-11 .08-14a5.07 5.07 0 00-7.52.62c-1.91 2.34-1.81 6.06-1.14 8.83.8 3.23 5.49 9.11 5.49 9.11zM174.66 88.53c3.19 1 10.66.15 10.66.15s-2.08-4.74-2.25-5c-2-3.28-7.71-8.45-11.88-7.47a5.07 5.07 0 00-3.44 6.71c.99 2.84 4.25 4.72 6.91 5.61z"/>
    <path d="M179.33 110c3.22.16 9.71-2.42 10.23-2.63a88.43 88.43 0 005.13 10.81c1.12 2 2.31 4.06 3.54 6.07-.7-.84-1.33-1.58-1.42-1.67-2.77-2.64-9.67-6.11-13.43-4.07a5.09 5.09 0 00-1.55 7.39c1.71 2.49 5.3 3.46 8.15 3.6s8.48-1.95 9.94-2.52c.48.77 1 1.54 1.43 2.3 2.3 3.66 4.62 7.31 6.78 11 .76 1.29 1.47 2.58 2.18 3.87-.62-.74-1.15-1.36-1.24-1.44-2.77-2.64-9.66-6.11-13.43-4.07a5.07 5.07 0 00-1.54 7.38c1.7 2.5 5.3 3.47 8.15 3.61s7.93-1.75 9.67-2.42c.69 1.34 1.38 2.69 2 4 .4.92.84 1.78 1.18 2.73s.71 1.84 1.06 2.76c.62 1.77 1.26 3.61 1.81 5.36.4 1.21.75 2.38 1.11 3.55-.74-1.29-2.25-3.78-2.4-4-2.34-3-8.63-7.5-12.66-6.05a5.06 5.06 0 00-2.64 7.06c1.3 2.72 4.71 4.23 7.51 4.8 3.08.62 9.62-.85 10.44-1 .59 1.94 1.14 3.83 1.63 5.63.45 1.61.85 3.13 1.23 4.6l2.67-.26c-.44-1.6-.92-3.27-1.46-5-.59-2-1.26-4.08-2-6.22a54.8 54.8 0 005.56-3.31c2.41 2.16 8.27 4.38 9 4.66-.58 2-1.16 3.83-1.74 5.6q-.6 1.83-1.17 3.51l2.83-.27c.25-.81.5-1.62.76-2.48.6-2 1.2-4.09 1.79-6.27.82.09 7.51.79 10.5-.19 2.71-.9 5.92-2.79 6.9-5.65a5.07 5.07 0 00-3.46-6.7c-4.17-1-9.89 4.21-11.86 7.49-.12.2-1.14 2.44-1.76 3.86.24-.89.48-1.76.71-2.68.48-1.82.9-3.65 1.36-5.62.19-1 .38-1.92.57-2.9s.31-2 .48-3c.32-2.36.54-4.77.7-7.2 1.6.41 7.28 1.79 10.11 1.32s6.27-1.86 7.67-4.54a5.07 5.07 0 00-2.4-7.15c-4-1.58-10.42 2.67-12.86 5.62-.15.18-1.66 2.49-2.47 3.77.09-1.46.19-2.92.23-4.4.11-4.27.1-8.61.1-12.93v-4c.57.15 7.29 1.94 10.46 1.41 2.81-.47 6.27-1.86 7.67-4.54a5.06 5.06 0 00-2.4-7.14c-4-1.59-10.42 2.66-12.86 5.61-.18.22-2.35 3.55-2.87 4.42 0-2.91.08-5.81.25-8.66a88.81 88.81 0 011.38-11.5c.26.08 7.26 2 10.51 1.43 2.82-.47 6.27-1.86 7.67-4.53a5.06 5.06 0 00-2.4-7.15c-4-1.59-10.42 2.66-12.86 5.61-.19.23-2.52 3.81-2.9 4.49 0-.22.06-.45.11-.67a65.21 65.21 0 013.43-11.08c.79-2 1.65-3.85 2.53-5.64 1.27.49 7.09 2.65 10.06 2.48s6.44-1.15 8.13-3.66a5.07 5.07 0 00-1.6-7.37c-3.78-2-10.65 1.51-13.4 4.16-.15.15-1.5 1.79-2.48 3 .41-.8.82-1.63 1.23-2.39 1.52-2.86 3.09-5.38 4.5-7.6.82-1.26 1.58-2.38 2.3-3.42 1.49-.17 7.5-.94 10-2.43s5.18-4 5.52-7a5.06 5.06 0 00-4.81-5.8c-4.29 0-8.76 6.25-10 9.87-.11.32-1.19 5.4-1.11 5.4h.09c-.71 1-1.47 2.05-2.27 3.23-1.46 2.2-3.09 4.69-4.68 7.53a90.23 90.23 0 00-4.59 9.23 66.46 66.46 0 00-3.71 11.14v.14c-.1-1.25-.49-4.74-.55-5-.85-3.73-4.69-10.43-9-10.8a5.08 5.08 0 00-5.3 5.34c.05 3 2.51 5.81 4.81 7.5 2.6 1.91 9.44 3.33 10 3.45a90.24 90.24 0 00-1.69 11.84c-.18 2.32-.3 4.67-.39 7-.12-1.07-.23-2-.26-2.17-.86-3.73-4.7-10.43-9-10.8a5.07 5.07 0 00-5.36 5.31c0 3 2.51 5.81 4.81 7.5s8.14 3.05 9.68 3.38c0 .9-.06 1.8-.08 2.71-.1 4.32-.18 8.64-.39 12.87-.07 1.49-.2 3-.32 4.43-.1-1-.2-1.77-.23-1.89-.85-3.72-4.69-10.42-9-10.8a5.08 5.08 0 00-5.36 5.31c.05 3 2.51 5.81 4.81 7.5s7.58 2.92 9.41 3.32c-.17 1.5-.34 3-.57 4.45-.18 1-.29 1.94-.52 2.92s-.43 1.93-.64 2.89c-.47 1.82-.94 3.7-1.45 5.47-.34 1.23-.69 2.39-1 3.57.09-1.48.2-4.39.18-4.64a19.68 19.68 0 00-3.54-9.27 5.84 5.84 0 00-.18-1.11 5.07 5.07 0 00-6.58-3.68c-4 1.49-5.93 9-5.76 12.79 0 .22.4 2.66.66 4.19-.29-.88-.56-1.73-.88-2.63-.61-1.78-1.26-3.54-2-5.43l-1.12-2.74c-.36-.92-.85-1.85-1.27-2.78-1-2.15-2.18-4.28-3.38-6.4 1.55-.53 7.06-2.51 9.15-4.47s4.21-5 3.9-8a5.07 5.07 0 00-5.94-4.64c-4.2.87-7.22 8-7.63 11.78v4.51c-.73-1.26-1.46-2.53-2.24-3.79-2.26-3.63-4.67-7.24-7-10.85-.73-1.1-1.44-2.21-2.16-3.32.56-.18 7.15-2.4 9.5-4.59 2.09-1.94 4.21-5 3.9-8a5.07 5.07 0 00-5.95-4.64c-4.19.87-7.22 8-7.63 11.77v5.27c-1.58-2.44-3.14-4.89-4.57-7.36a90.92 90.92 0 01-5.2-10.34c.26-.09 7.15-2.37 9.56-4.61 2.09-2 4.21-5 3.9-8a5.08 5.08 0 00-5.95-4.64c-4.19.87-7.22 8-7.63 11.78 0 .3 0 4.57.06 5.34-.09-.2-.2-.41-.28-.61A64.86 64.86 0 01187 95.29c-.44-2.09-.75-4.12-1-6.1 1.32-.29 7.37-1.7 9.76-3.48s4.74-4.52 4.76-7.54a5.07 5.07 0 00-5.4-5.26c-4.27.4-8.05 7.13-8.88 10.86 0 .21-.27 2.32-.42 3.86-.1-.89-.22-1.81-.3-2.67-.3-3.22-.38-6.19-.43-8.83v-4.11c1.15-1 5.74-4.92 7-7.56s2.12-6.19.74-8.88a5.08 5.08 0 00-7.22-2.18c-3.59 2.32-3.86 10-2.87 13.73.09.32 2 5.16 2.06 5.11l.07-.06c0 1.22-.09 2.53-.11 3.95 0 2.64 0 5.62.25 8.87a88.34 88.34 0 001.25 10.42 66.34 66.34 0 003 11.35l.06.13c-.78-1-3-3.68-3.22-3.87-2.77-2.64-9.67-6.11-13.43-4.07a5.09 5.09 0 00-1.55 7.39c1.77 2.49 5.36 3.46 8.21 3.65z"/>
    <path d="M250.49 82.88c.07 0 .88-5.1.9-5.43.16-3.82-1.78-11.3-5.79-12.78a5.06 5.06 0 00-6.57 3.7c-.76 2.93.88 6.27 2.65 8.51 2.09 2.62 8.81 6 8.81 6z"/>
  </g>
  <path fill="#fff" stroke="#263238" stroke-linejoin="round" d="M100.67 87.15H454.5v284.89H100.67z"/>
  <path fill="#34a37e" d="M339.05 255.68h35.69v35.54h-35.69z"/>
  <path fill="#34a37e" stroke="#263238" stroke-linejoin="round" d="M100.67 87.15H454.5v24.4H100.67z"/>
  <path fill="#263238" stroke="#263238" stroke-linejoin="round" d="M100.67 87.15H454.5V95H100.67z"/>
  <path d="M437.34 91.17a1.83 1.83 0 10-1.83 1.83 1.83 1.83 0 001.83-1.83zm5.26 0a1.83 1.83 0 10-1.82 1.83 1.82 1.82 0 001.82-1.83zm5.27 0A1.83 1.83 0 10446 93a1.83 1.83 0 001.87-1.83z" fill="#fff" stroke="#263238" stroke-linejoin="round"/>
  <path d="M140.71 182a1.75 1.75 0 01-.79.25v-.53a1 1 0 001-.76h.44v5.73h-.63zm10.57.33c0 1.73-1.94 2.35-1.94 3.67v.09h1.88v.58h-2.51v-.49c0-1.85 1.94-2.21 1.94-3.82 0-.59-.2-.9-.68-.9s-.67.33-.67.84v.51h-.59v-.47c0-.87.4-1.46 1.28-1.46s1.29.58 1.29 1.45zm9.56-.01v.15a1.13 1.13 0 01-.69 1.18 1.14 1.14 0 01.69 1.19v.44c0 .87-.4 1.45-1.29 1.45s-1.28-.58-1.28-1.45v-.39h.59v.43c0 .52.22.83.68.83s.67-.31.67-.89v-.44c0-.56-.24-.83-.72-.85h-.35v-.57h.38a.7.7 0 00.69-.79v-.26c0-.59-.21-.89-.67-.89s-.68.32-.68.83v.3h-.59v-.27c0-.87.41-1.44 1.28-1.44s1.29.57 1.29 1.44zm9.1 3.2v1.15h-.63v-1.15h-1.85v-.59l1.78-4h.7v4h.45v.59zm-1.89-.59h1.26v-2.79zm-57.98 8.16a.93.93 0 01.86-.47c.73 0 1.06.54 1.06 1.36v1.12c0 .87-.42 1.45-1.29 1.45s-1.29-.58-1.29-1.45v-.39h.6v.43c0 .51.21.82.67.82s.67-.31.67-.82V194c0-.52-.21-.83-.67-.83a.62.62 0 00-.65.61v.13h-.59l.15-3.18h2.26v.57h-1.69zm12.42-.95v.1h-.6v-.15c0-.51-.21-.81-.68-.81s-.69.31-.69.92v1.29a.91.91 0 01.92-.62c.74 0 1.06.53 1.06 1.36v.87c0 .87-.43 1.45-1.31 1.45s-1.31-.58-1.31-1.45v-2.92c0-.91.41-1.48 1.31-1.48s1.3.56 1.3 1.44zm-2 2.14v.86c0 .51.21.82.67.82s.68-.31.68-.82v-.86c0-.52-.22-.83-.68-.83s-.64.31-.64.83zm11.16-2.95h-1.94v-.57h2.59v.56l-1.47 5.17h-.64zm10.35.79v.18a1.13 1.13 0 01-.66 1.18 1.16 1.16 0 01.66 1.21v.42a1.35 1.35 0 11-2.7 0v-.42a1.15 1.15 0 01.66-1.21 1.12 1.12 0 01-.66-1.18v-.18a1.35 1.35 0 112.7 0zm-2.07 0v.27c0 .56.27.81.72.81s.72-.25.72-.81v-.27c0-.59-.27-.86-.72-.86s-.77.29-.77.88zm0 2.47v.49c0 .59.26.86.72.86s.71-.27.72-.86v-.49c0-.55-.25-.82-.72-.82s-.77.29-.77.84zm11.34-2.45v2.92c0 .91-.41 1.49-1.33 1.49s-1.29-.57-1.29-1.44V195h.6v.15c0 .51.22.81.68.81s.7-.31.7-.91v-1.29a.92.92 0 01-.93.61c-.73 0-1.06-.52-1.06-1.35v-.88c0-.87.43-1.44 1.31-1.44a1.26 1.26 0 011.32 1.44zm-2 0v.86c0 .52.22.83.68.83s.68-.31.68-.83v-.86c0-.52-.21-.83-.68-.83s-.68.28-.68.8zm8.81-.34a1.75 1.75 0 01-.79.25v-.53a1 1 0 001-.76h.44v5.73h-.63zm1.55.34c0-.87.43-1.44 1.3-1.44s1.32.57 1.32 1.44v3c0 .87-.43 1.45-1.32 1.45s-1.3-.58-1.3-1.45zm.63 3c0 .51.22.82.67.82s.68-.31.68-.82v-3c0-.52-.21-.83-.68-.83s-.67.31-.67.83zm7.39-3.34a1.75 1.75 0 01-.79.25v-.53a1 1 0 001-.76h.44v5.73h-.63zm2.77 0a1.76 1.76 0 01-.8.25v-.53a1 1 0 001-.76h.44v5.73h-.63zm-59.81 9.82a1.67 1.67 0 01-.8.24v-.52a1 1 0 001-.76h.45v5.73h-.63zm4.17.38c0 1.73-1.94 2.35-2 3.67v.09h1.88v.58h-2.46v-.49c0-1.85 1.94-2.21 1.94-3.83 0-.58-.2-.9-.67-.9s-.67.34-.67.85v.5h-.6V202c0-.88.4-1.46 1.29-1.46s1.29.55 1.29 1.46zm4.93-.38a1.63 1.63 0 01-.79.24v-.52a1 1 0 001-.76h.44v5.73h-.63zm4.14.38v.15a1.13 1.13 0 01-.69 1.18 1.13 1.13 0 01.69 1.18v.45c0 .87-.41 1.44-1.29 1.44s-1.28-.57-1.28-1.44v-.4h.59v.44c0 .51.22.82.67.82s.68-.3.68-.88v-.44c0-.57-.24-.84-.72-.85h-.35V203h.38a.68.68 0 00.69-.78V202c0-.59-.21-.9-.68-.9s-.67.32-.67.84v.29h-.59V202c0-.87.41-1.44 1.28-1.44s1.29.53 1.29 1.44zm5.63-.38a1.63 1.63 0 01-.79.24v-.52a1 1 0 001-.76h.44v5.73h-.63zm3.92 3.53v1.16h-.62v-1.16h-1.85v-.58l1.78-4h.69v4h.46v.58zm-1.88-.58h1.26v-2.8zm7.61-2.95a1.63 1.63 0 01-.79.24v-.52a1 1 0 001-.76h.44v5.73h-.63zm2.23 1.29a.92.92 0 01.85-.47c.74 0 1.07.54 1.07 1.36v1.12c0 .87-.42 1.44-1.3 1.44s-1.28-.57-1.28-1.44v-.39h.6v.47c0 .51.21.82.67.82s.67-.31.67-.82v-1.12c0-.51-.21-.82-.67-.82a.62.62 0 00-.65.61v.13h-.6l.16-3.18h2.26v.57h-1.69zm7.13-1.29a1.71 1.71 0 01-.8.24v-.52a1 1 0 001-.76h.45v5.73h-.63zm4.16.38v.11h-.6v-.15c0-.51-.21-.82-.68-.82s-.69.32-.69.93v1.28a.91.91 0 01.92-.61c.74 0 1.07.53 1.07 1.36v.87c0 .87-.44 1.44-1.31 1.44s-1.32-.57-1.32-1.44V202c0-.9.41-1.47 1.32-1.47s1.29.55 1.29 1.47zm-2 2.15v.85c0 .51.21.82.68.82s.68-.31.68-.82v-.86c0-.52-.22-.83-.68-.83s-.65.27-.65.79zm7.44-2.53a1.67 1.67 0 01-.8.24v-.52a1 1 0 001-.76h.44v5.73h-.63zm3.5-.47h-2v-.57h2.6v.56l-1.48 5.17h-.64zm5.84.47a1.63 1.63 0 01-.79.24v-.52a1 1 0 001-.76h.44v5.73h-.63zm4.22.32v.18a1.14 1.14 0 01-.65 1.18 1.15 1.15 0 01.65 1.21v.42a1.35 1.35 0 11-2.7 0v-.42a1.15 1.15 0 01.67-1.21 1.12 1.12 0 01-.67-1.18v-.18a1.35 1.35 0 112.7 0zm-2.07 0v.28c0 .56.27.8.72.8s.72-.24.72-.8V202c0-.59-.27-.86-.72-.86s-.72.22-.72.86zm0 2.48v.49c0 .59.27.86.72.86s.72-.27.72-.86v-.49c0-.55-.24-.82-.72-.82s-.72.28-.72.83zm-58.97 7.02a1.67 1.67 0 01-.8.24v-.52a1 1 0 001-.76h.45v5.73h-.63zm4.16.34v2.92c0 .91-.41 1.48-1.32 1.48s-1.3-.56-1.3-1.44v-.1h.6v.14c0 .52.22.82.68.82s.7-.31.7-.91v-1.29a.91.91 0 01-.92.61c-.74 0-1.07-.53-1.07-1.35v-.88c0-.87.43-1.44 1.31-1.44s1.32.57 1.32 1.44zm-2 0v.86c0 .51.23.82.68.82s.68-.31.68-.82v-.86c0-.53-.21-.83-.68-.83s-.68.27-.68.8zm8.14.01c0 1.73-1.94 2.35-2 3.67v.09h1.89v.58h-2.52v-.49c0-1.85 1.94-2.21 1.94-3.83 0-.59-.19-.9-.67-.9s-.67.34-.67.85v.5h-.6v-.46c0-.88.41-1.46 1.29-1.46s1.34.57 1.34 1.45zm.54-.01c0-.87.44-1.44 1.31-1.44s1.32.57 1.32 1.44v3c0 .87-.43 1.44-1.32 1.44s-1.31-.57-1.31-1.44zm.63 3c0 .51.22.82.68.82s.68-.31.68-.82v-3c0-.53-.21-.84-.68-.84s-.68.31-.68.84zm8.86-2.99c0 1.73-1.94 2.35-1.94 3.67v.09h1.88v.58h-2.51v-.49c0-1.85 1.93-2.21 1.93-3.83 0-.59-.19-.9-.67-.9s-.67.34-.67.85v.5h-.59v-.46c0-.88.4-1.46 1.28-1.46s1.29.57 1.29 1.45zm1.76-.35a1.63 1.63 0 01-.79.24v-.52a1 1 0 001-.76h.44v5.73h-.63zm7.64.35c0 1.73-1.94 2.35-2 3.67v.09h1.88v.58h-2.51v-.49c0-1.85 1.94-2.21 1.94-3.83 0-.59-.2-.9-.67-.9s-.67.34-.67.85v.5h-.6v-.46c0-.88.4-1.46 1.28-1.46s1.35.57 1.35 1.45zm3.16 0c0 1.73-1.94 2.35-1.95 3.67v.09h1.89v.58h-2.52v-.49c0-1.85 1.94-2.21 1.94-3.83 0-.59-.19-.9-.67-.9s-.67.34-.67.85v.5h-.6v-.46c0-.88.41-1.46 1.29-1.46s1.29.57 1.29 1.45zm6.2 0c0 1.73-1.94 2.35-1.95 3.67v.09h1.89v.58h-2.52v-.49c0-1.85 1.94-2.21 1.94-3.83 0-.59-.19-.9-.67-.9s-.67.34-.67.85v.5h-.6v-.46c0-.88.4-1.46 1.29-1.46s1.29.57 1.29 1.45zm3.13-.01v.15a1.35 1.35 0 000 2.36v.45c0 .87-.4 1.44-1.29 1.44s-1.28-.57-1.28-1.44v-.4h.59v.44c0 .51.22.82.68.82s.67-.3.67-.88v-.44c0-.57-.24-.84-.72-.85h-.35v-.58h.38a.68.68 0 00.69-.78v-.26c0-.59-.21-.9-.67-.9s-.68.32-.68.84v.25h-.59v-.26c0-.87.41-1.44 1.28-1.44s1.29.61 1.29 1.48zm6.41.01c0 1.73-1.94 2.35-2 3.67v.09h1.89v.58h-2.52v-.49c0-1.85 1.94-2.21 1.94-3.83 0-.59-.19-.9-.67-.9s-.67.34-.67.85v.5h-.6v-.46c0-.88.4-1.46 1.29-1.46s1.34.57 1.34 1.45zm2.91 3.21v1.16h-.62V215h-1.85v-.58l1.78-4h.69v4h.46v.58zm-1.88-.58h1.26v-2.8zm8.39-2.63c0 1.73-1.94 2.35-1.95 3.67v.09h1.88v.58h-2.51v-.49c0-1.85 1.94-2.21 1.94-3.83 0-.59-.2-.9-.67-.9s-.67.34-.67.85v.5h-.6v-.46c0-.88.4-1.46 1.29-1.46s1.29.57 1.29 1.45zm1.23.94a.91.91 0 01.85-.47c.73 0 1.06.54 1.06 1.35v1.13c0 .87-.42 1.44-1.29 1.44s-1.29-.57-1.29-1.44v-.39h.6v.43c0 .51.21.82.67.82s.67-.31.67-.82v-1.12c0-.51-.21-.82-.67-.82a.6.6 0 00-.64.61v.13h-.6l.15-3.18h2.26v.6H170zM112 221.61c0 1.72-1.94 2.35-1.94 3.66v.09H112v.64h-2.51v-.5c0-1.85 1.94-2.21 1.94-3.82 0-.59-.2-.9-.68-.9s-.67.34-.67.85v.5h-.59v-.46c0-.88.4-1.46 1.28-1.46s1.23.52 1.23 1.4zm3.17-.02v.11h-.6v-.15c0-.51-.21-.82-.67-.82s-.7.31-.7.93v1.28a.93.93 0 01.92-.61c.74 0 1.07.53 1.07 1.36v.86c0 .88-.44 1.45-1.31 1.45s-1.32-.57-1.32-1.45v-2.92c0-.91.41-1.47 1.32-1.47s1.29.56 1.29 1.43zm-2 2.15v.85c0 .52.21.83.68.83s.68-.31.68-.83v-.85c0-.52-.22-.83-.68-.83s-.65.31-.65.83zm7.75-2.13c0 1.72-1.94 2.35-2 3.66v.09h1.89v.64h-2.52v-.5c0-1.85 1.94-2.21 1.94-3.82 0-.59-.19-.9-.67-.9s-.67.34-.67.85v.5h-.6v-.46c0-.88.4-1.46 1.29-1.46s1.34.52 1.34 1.4zm2.5-.82h-2v-.57h2.59v.55l-1.42 5.23H122zm7.3.82c0 1.72-1.94 2.35-1.95 3.66v.09h1.89v.64h-2.52v-.5c0-1.85 1.94-2.21 1.94-3.82 0-.59-.19-.9-.67-.9s-.67.34-.67.85v.5h-.6v-.46c0-.88.41-1.46 1.29-1.46s1.29.52 1.29 1.4zm3.22-.03v.18a1.12 1.12 0 01-.66 1.17 1.17 1.17 0 01.66 1.22v.42a1.35 1.35 0 11-2.7 0v-.42a1.17 1.17 0 01.66-1.22 1.1 1.1 0 01-.66-1.17v-.18a1.35 1.35 0 112.7 0zm-2.07 0v.28c0 .56.27.8.72.8s.72-.24.72-.8v-.28c0-.59-.27-.86-.72-.86s-.72.28-.72.87zm0 2.48v.48c0 .59.26.87.72.87s.71-.28.72-.87v-.48c0-.55-.25-.83-.72-.83s-.72.29-.72.84zm8.46-2.45c0 1.72-1.94 2.35-2 3.66v.09h1.88v.64h-2.51v-.5c0-1.85 1.94-2.21 1.94-3.82 0-.59-.2-.9-.67-.9s-.67.34-.67.85v.5h-.6v-.46c0-.88.4-1.46 1.28-1.46s1.35.52 1.35 1.4zm3.16-.01v2.92c0 .91-.41 1.48-1.33 1.48s-1.29-.56-1.29-1.44v-.1h.6v.14c0 .52.22.82.67.82s.71-.31.71-.91v-1.29a.93.93 0 01-.93.61c-.73 0-1.06-.53-1.06-1.35v-.88c0-.88.42-1.44 1.31-1.44s1.32.56 1.32 1.44zm-2 0v.86c0 .51.22.82.68.82s.68-.31.68-.82v-.86c0-.53-.21-.83-.68-.83s-.68.23-.68.8zm8.17 0v.15a1.15 1.15 0 01-.7 1.18 1.13 1.13 0 01.7 1.18v.44c0 .88-.41 1.45-1.29 1.45s-1.29-.57-1.29-1.45v-.39h.6v.43c0 .52.21.83.67.83s.67-.3.67-.88v-.44c0-.57-.24-.84-.72-.86h-.3v-.57h.37c.43 0 .69-.28.69-.78v-.27c0-.58-.2-.89-.67-.89s-.67.32-.67.84v.29h-.6v-.26c0-.88.41-1.44 1.29-1.44s1.25.56 1.25 1.44zm.57 0c0-.88.44-1.44 1.31-1.44s1.32.56 1.32 1.44v3c0 .88-.43 1.45-1.32 1.45s-1.31-.57-1.31-1.45zm.63 3c0 .52.22.83.68.83s.68-.31.68-.83v-3c0-.53-.21-.84-.68-.84s-.68.31-.68.84zm-38.94-53.7v.15h-.61v-.19c0-.51-.2-.82-.65-.82s-.66.31-.66.81c0 1.29 1.92 1.41 1.92 3 0 .87-.41 1.44-1.29 1.44s-1.28-.57-1.28-1.44v-.32h.59v.36c0 .51.22.82.67.82s.68-.31.68-.82c0-1.28-1.92-1.4-1.92-3 0-.89.41-1.44 1.27-1.44s1.28.55 1.28 1.45zm9.56 4.34h-.61l-1-4.56v4.57h-.56v-5.73h.89l.94 4.58.91-4.58h.9v5.73h-.61v-4.61zm9.21.01v-5.15h-1.06v-.58h2.74v.58h-1.05v5.15zm9.37 0h-.87l-.79-5.73h.6l.67 4.88.64-4.87h.69l.63 4.88.65-4.89h.55l-.77 5.73h-.85l-.54-3.89zm9.58 0v-5.15h-1v-.58h2.74v.58h-1.06v5.15zm10.81-3.06v.58h-1.32v2.48h-.64v-5.73h2.28v.58h-1.64v2.09zm9.76-1.29v.15h-.61v-.19c0-.51-.2-.82-.65-.82s-.66.31-.66.81c0 1.29 1.92 1.41 1.92 3 0 .87-.41 1.44-1.29 1.44s-1.28-.57-1.28-1.44v-.32h.59v.36c0 .51.22.82.67.82s.68-.31.68-.82c0-1.28-1.92-1.4-1.92-3 0-.89.41-1.44 1.27-1.44s1.28.55 1.28 1.45zm-57.7-14.98v.15h-.58v-.18c0-.49-.18-.78-.62-.78s-.62.29-.62.78c0 1.22 1.83 1.34 1.83 2.87 0 .83-.4 1.37-1.23 1.37s-1.23-.54-1.23-1.37v-.31h.57v.34c0 .49.21.78.64.78s.64-.29.64-.78c0-1.21-1.82-1.33-1.82-2.87 0-.84.39-1.36 1.21-1.36s1.21.54 1.21 1.36zM115 157v.55h-1.33v1.94h1.63v.55h-2.24v-5.45h2.24v.55h-1.63V157zm2.05-2.38c.85 0 1.22.5 1.22 1.33v.65c0 .87-.41 1.32-1.27 1.32h-.54v2.15h-.61v-5.45zm0 2.75c.45 0 .67-.21.67-.73v-.72c0-.5-.18-.75-.62-.75h-.59v2.2zm2.48 2.7v-4.9h-1v-.55h2.61v.55h-1v4.9zm3.96-3.07v.55h-1.33v1.94h1.63v.55h-2.24v-5.45h2.24v.55h-1.63V157zm2.87 3.06h-.58l-.9-4.34v4.35h-.53v-5.45h.84l.9 4.35.87-4.35h.85v5.45h-.58v-4.39zm3.29-5.44c.85 0 1.19.4 1.19 1.2v.26c0 .58-.17.94-.64 1.08.53.15.73.57.73 1.17v.46a1.12 1.12 0 01-1.25 1.28h-1.25v-5.45zm-.15 2.31c.49 0 .74-.16.74-.72v-.32c0-.49-.17-.72-.6-.72H129v1.76zm.18 2.59c.45 0 .65-.24.65-.74v-.49c0-.6-.24-.81-.76-.81H129v2zm3.74-2.52v.55h-1.33v1.94h1.64v.55h-2.25v-5.45h2.25v.55h-1.64V157zm2.08-2.38c.86 0 1.22.43 1.22 1.24v.45a1 1 0 01-.68 1.12c.5.15.69.55.69 1.14v.85a1.37 1.37 0 00.1.65h-.61a1.45 1.45 0 01-.1-.66v-.86c0-.61-.29-.81-.8-.81h-.43v2.33h-.6v-5.45zm-.15 2.57c.48 0 .77-.16.77-.75v-.52c0-.49-.18-.75-.63-.75h-.6v2zm9.19-1.25c0 1.64-1.84 2.24-1.85 3.49v.09h1.79v.55h-2.39v-.47c0-1.76 1.85-2.1 1.85-3.64 0-.56-.19-.85-.64-.85s-.64.32-.64.8v.48h-.57V156c0-.84.38-1.39 1.22-1.39s1.23.5 1.23 1.33zm.52-.01c0-.83.41-1.37 1.24-1.37s1.26.54 1.26 1.37v2.82c0 .83-.41 1.38-1.26 1.38s-1.24-.55-1.24-1.38zm.6 2.85c0 .5.21.79.64.79s.65-.29.65-.79v-2.88c0-.5-.2-.79-.65-.79s-.64.29-.64.79zm4.93-2.84c0 1.64-1.85 2.24-1.86 3.49v.09h1.8v.55h-2.4v-.47c0-1.76 1.85-2.1 1.85-3.64 0-.56-.19-.85-.64-.85s-.64.32-.64.8v.48h-.57V156c0-.84.39-1.39 1.23-1.39s1.23.5 1.23 1.33zm1.67-.33a1.7 1.7 0 01-.75.23v-.5a.92.92 0 00.93-.72h.42v5.45h-.6zm19.58 1.67l-4 2.31v-4.62l4 2.31zm-13.46 0l4 2.31v-4.62l-4 2.31zm151.47-2.86a1.84 1.84 0 01-.8.25v-.53a1 1 0 001-.77h.44v5.77h-.63zm37.05.35c0 1.74-1.95 2.37-2 3.69v.09h1.9v.59h-2.53v-.49c0-1.87 1.95-2.23 1.95-3.85 0-.59-.2-.91-.67-.91s-.68.34-.68.85v.51h-.6v-.47c0-.88.4-1.46 1.29-1.46s1.34.57 1.34 1.45zm35.81 0v.14a1.14 1.14 0 01-.7 1.19 1.14 1.14 0 01.7 1.19v.45c0 .88-.41 1.46-1.3 1.46s-1.29-.58-1.29-1.46v-.4h.6v.44c0 .52.21.83.68.83s.67-.3.67-.89v-.44c0-.57-.24-.84-.72-.86H381v-.58h.38c.43 0 .69-.28.69-.79v-.26c0-.59-.21-.9-.67-.9s-.68.32-.68.84v.3h-.6v-.26c0-.89.41-1.45 1.29-1.45s1.3.56 1.3 1.45zm34.96 3.23v1.16h-.62V158h-1.87v-.59l1.79-4h.7v4h.46v.59zm-1.89-.59h1.27v-2.81zM199.53 191a.94.94 0 01.86-.48c.74 0 1.07.55 1.07 1.37V193c0 .88-.42 1.46-1.3 1.46s-1.3-.58-1.3-1.46v-.39h.6v.39c0 .52.22.83.68.83s.68-.31.68-.83v-1.12c0-.52-.22-.83-.68-.83a.63.63 0 00-.65.62v.13h-.6l.15-3.21h2.28v.58h-1.7zm39.83-1v.11h-.6V190c0-.52-.22-.83-.69-.83s-.7.32-.7.93v1.3a.93.93 0 01.94-.62c.74 0 1.07.54 1.07 1.37v.85c0 .88-.44 1.46-1.32 1.46s-1.33-.58-1.33-1.46v-2.94c0-.91.41-1.48 1.33-1.48s1.3.56 1.3 1.42zm-2 2.16v.84c0 .52.22.83.69.83s.68-.31.68-.83v-.86c0-.52-.22-.83-.68-.83s-.68.35-.68.87zm36.58-2.95h-2v-.58h2.61v.56l-1.49 5.21h-.64zm37.15.79v.18a1.14 1.14 0 01-.66 1.19 1.17 1.17 0 01.66 1.22v.41a1.36 1.36 0 11-2.72 0v-.43a1.16 1.16 0 01.67-1.22 1.13 1.13 0 01-.67-1.19V190a1.36 1.36 0 112.72 0zm-2.09 0v.28c0 .56.27.81.72.81s.73-.25.73-.81V190c0-.59-.28-.87-.73-.87s-.72.3-.72.87zm0 2.49v.51c0 .59.26.87.72.87s.72-.28.73-.87v-.49c0-.56-.25-.83-.73-.83s-.72.32-.72.83zm37.89-2.49v3c0 .91-.41 1.49-1.34 1.49s-1.3-.57-1.3-1.45v-.11h.6v.15c0 .52.23.82.69.82s.7-.31.7-.92v-1.29a.92.92 0 01-.93.61c-.74 0-1.07-.53-1.07-1.36V190c0-.88.43-1.45 1.32-1.45s1.33.6 1.33 1.45zm-2 0v.87c0 .52.22.83.68.83s.68-.31.68-.83V190c0-.52-.21-.83-.68-.83s-.69.3-.69.83zm35.04-.32a1.8 1.8 0 01-.8.25v-.53a1 1 0 001-.77h.44v5.77h-.63zm1.56.32c0-.88.43-1.45 1.31-1.45s1.33.57 1.33 1.45v3c0 .88-.44 1.46-1.33 1.46s-1.31-.58-1.31-1.46zm.63 3c0 .52.22.83.68.83s.69-.31.69-.83v-3c0-.52-.22-.84-.69-.84s-.68.32-.68.84zm33.25-3.32a1.75 1.75 0 01-.79.25v-.53a1 1 0 001-.77h.42v5.77h-.64zm2.79 0a1.84 1.84 0 01-.8.25v-.53a1 1 0 001-.77h.44v5.77h-.63zm-218.09 35.26a1.84 1.84 0 01-.8.25v-.53a1 1 0 001-.76h.45v5.76h-.63zm4.2.36c0 1.73-2 2.36-2 3.69v.09h1.89v.58h-2.53v-.49c0-1.86 2-2.23 2-3.85 0-.59-.19-.9-.67-.9s-.68.33-.68.84v.51h-.6v-.47c0-.88.4-1.46 1.29-1.46s1.3.58 1.3 1.46zm32.3-.36a1.84 1.84 0 01-.8.25v-.53a1 1 0 001-.76h.44v5.76h-.63zm4.17.35v.15a1.13 1.13 0 01-.71 1.18 1.15 1.15 0 01.71 1.2v.44c0 .88-.42 1.46-1.31 1.46s-1.29-.58-1.29-1.46v-.39h.6v.43c0 .52.22.84.68.84s.67-.31.67-.89v-.45c0-.57-.24-.84-.72-.86H239v-.57h.38a.69.69 0 00.69-.79v-.27c0-.59-.2-.89-.67-.89s-.68.32-.68.84v.29h-.6v-.26c0-.88.41-1.45 1.29-1.45s1.33.57 1.33 1.45zm31.01-.35a1.84 1.84 0 01-.8.25v-.53a1 1 0 001-.76h.44v5.76h-.63zm3.94 3.56v1.16h-.62v-1.16h-1.86v-.58l1.78-4h.7v4h.47v.58zm-1.89-.58h1.27v-2.82zm34.45-2.98a1.76 1.76 0 01-.8.25v-.53a1 1 0 001-.76h.45v5.76h-.64zm2.25 1.3a.93.93 0 01.86-.47c.74 0 1.07.54 1.07 1.36v1.13c0 .88-.42 1.46-1.3 1.46s-1.3-.58-1.3-1.46v-.38h.61v.42c0 .52.21.84.67.84s.68-.32.68-.84v-1.12c0-.52-.22-.83-.68-.83a.63.63 0 00-.65.62v.13h-.6l.16-3.2h2.27v.57h-1.7zm33.59-1.3a1.84 1.84 0 01-.8.25v-.53a1 1 0 001-.76h.44v5.76h-.63zm4.19.34v.11h-.6v-.15c0-.52-.22-.82-.69-.82s-.7.31-.7.93v1.29a.93.93 0 01.94-.62c.74 0 1.07.54 1.07 1.37v.87c0 .88-.44 1.46-1.32 1.46s-1.33-.58-1.33-1.46v-2.94c0-.91.41-1.48 1.33-1.48s1.3.56 1.3 1.44zm-2 2.16v.86c0 .52.22.84.69.84s.68-.32.68-.84v-.86c0-.52-.22-.83-.68-.83s-.68.31-.68.83zm33.66-2.5a1.84 1.84 0 01-.8.25v-.53a1 1 0 001-.76h.44v5.76h-.63zm3.52-.47h-2v-.57h2.61v.56l-1.48 5.2H382zm31.69.47a1.76 1.76 0 01-.8.25v-.53a1 1 0 001-.76h.45v5.76h-.64zm4.25.32v.18a1.13 1.13 0 01-.66 1.19 1.17 1.17 0 01.66 1.22v.43a1.36 1.36 0 11-2.72 0v-.43a1.18 1.18 0 01.67-1.22 1.13 1.13 0 01-.67-1.19v-.18a1.36 1.36 0 112.72 0zm-2.08 0v.28c0 .56.27.81.72.81s.73-.25.73-.81v-.28c0-.59-.27-.86-.73-.86s-.72.29-.72.88zm0 2.5v.48c0 .6.26.88.72.88s.72-.28.73-.88v-.48c0-.56-.25-.84-.73-.84s-.72.3-.72.86zM200.07 260.2a1.84 1.84 0 01-.8.25v-.53a1 1 0 001-.76h.45v5.76h-.63zm4.19.35v2.94c0 .91-.41 1.49-1.34 1.49s-1.3-.57-1.3-1.45v-.11h.6v.15c0 .52.23.83.69.83s.71-.32.71-.93v-1.29a.92.92 0 01-.94.61c-.74 0-1.07-.53-1.07-1.36v-.88c0-.88.43-1.45 1.32-1.45s1.33.57 1.33 1.45zm-2 0v.86c0 .52.22.83.68.83s.69-.31.69-.83v-.86c0-.53-.22-.84-.69-.84s-.69.29-.69.81zm35.51.01c0 1.74-2 2.36-2 3.69v.09h1.9v.58h-2.53v-.49c0-1.86 1.95-2.22 1.95-3.85 0-.59-.2-.9-.67-.9s-.68.33-.68.84v.48h-.6v-.47c0-.89.4-1.47 1.29-1.47s1.34.62 1.34 1.5zm.55-.01c0-.88.43-1.45 1.32-1.45s1.32.57 1.32 1.45v3c0 .88-.44 1.46-1.32 1.46s-1.32-.58-1.32-1.46zm.63 3c0 .52.22.84.69.84s.68-.32.68-.84v-3c0-.53-.22-.84-.68-.84s-.69.31-.69.84zm34.27-2.99c0 1.74-2 2.36-2 3.69v.09h1.89v.58h-2.53v-.49c0-1.86 2-2.22 2-3.85 0-.59-.2-.9-.68-.9s-.67.33-.67.84v.48h-.61v-.47c0-.89.41-1.47 1.3-1.47s1.3.62 1.3 1.5zm1.78-.36a1.76 1.76 0 01-.8.25v-.53a1 1 0 001-.76h.44v5.76H275zm34.47.36c0 1.74-2 2.36-2 3.69v.09h1.89v.58h-2.53v-.49c0-1.86 1.95-2.22 1.95-3.85 0-.59-.19-.9-.67-.9s-.68.33-.68.84v.48h-.6v-.47c0-.89.41-1.47 1.3-1.47s1.34.62 1.34 1.5zm3.19 0c0 1.74-2 2.36-2 3.69v.09h1.9v.58h-2.53v-.49c0-1.86 1.95-2.22 1.95-3.85 0-.59-.19-.9-.67-.9s-.68.33-.68.84v.48h-.6v-.47c0-.89.4-1.47 1.29-1.47s1.34.62 1.34 1.5zm32.65 0c0 1.74-1.95 2.36-2 3.69v.09h1.89v.58h-2.52v-.49c0-1.86 1.95-2.22 1.95-3.85 0-.59-.2-.9-.68-.9s-.67.33-.67.84v.48h-.6v-.47c0-.89.4-1.47 1.29-1.47s1.34.62 1.34 1.5zm3.15-.01v.15a1.13 1.13 0 01-.7 1.18 1.14 1.14 0 01.7 1.2v.44c0 .88-.41 1.46-1.3 1.46s-1.29-.58-1.29-1.46v-.39h.6v.43c0 .52.22.84.68.84s.67-.31.67-.89v-.45c0-.57-.24-.84-.72-.85h-.35v-.58h.38a.69.69 0 00.69-.79v-.27c0-.59-.2-.89-.67-.89s-.68.32-.68.84v.29h-.6v-.26c0-.88.41-1.45 1.29-1.45s1.3.57 1.3 1.45zm32.64.01c0 1.74-2 2.36-2 3.69v.09h1.9v.58h-2.5v-.49c0-1.86 2-2.22 2-3.85 0-.59-.2-.9-.68-.9s-.67.33-.67.84v.48h-.61v-.47c0-.89.41-1.47 1.3-1.47s1.26.62 1.26 1.5zm2.9 3.2v1.16h-.63v-1.16h-1.86v-.58l1.79-4h.7v4h.46v.58zm-1.89-.58h1.26v-2.82zm34.28-2.62c0 1.74-1.95 2.36-2 3.69v.09h1.89v.58h-2.53v-.49c0-1.86 2-2.22 2-3.85 0-.59-.2-.9-.68-.9s-.67.33-.67.84v.48h-.61v-.47c0-.89.41-1.47 1.3-1.47s1.3.62 1.3 1.5zm1.23.94a.93.93 0 01.86-.47c.74 0 1.07.54 1.07 1.36v1.13c0 .88-.42 1.46-1.3 1.46s-1.29-.58-1.29-1.46v-.38h.6v.42c0 .52.21.84.67.84s.68-.32.68-.84v-1.12c0-.52-.22-.83-.68-.83a.63.63 0 00-.65.62v.13H417l.16-3.2h2.27v.57h-1.7zm-216.14 34.32c0 1.74-1.95 2.36-2 3.69v.09h1.9v.58h-2.53v-.49c0-1.86 2-2.22 2-3.85 0-.59-.2-.9-.68-.9s-.67.33-.67.85v.51h-.6v-.47c0-.88.4-1.47 1.29-1.47s1.29.58 1.29 1.46zm3.18-.02v.11h-.6v-.15c0-.52-.21-.82-.68-.82s-.7.31-.7.93v1.29a.93.93 0 01.93-.62c.74 0 1.07.54 1.07 1.37v.87c0 .89-.44 1.46-1.32 1.46s-1.33-.57-1.33-1.46v-2.94c0-.91.42-1.48 1.33-1.48s1.3.56 1.3 1.44zm-2 2.16v.87c0 .51.21.83.68.83s.68-.32.68-.83V298c0-.52-.22-.83-.68-.83s-.66.27-.66.83zm35.12-2.14c0 1.74-1.95 2.36-2 3.69v.09h1.9v.58h-2.53v-.49c0-1.86 1.95-2.22 1.95-3.85 0-.59-.2-.9-.68-.9s-.67.33-.67.85v.51h-.6v-.47c0-.88.4-1.47 1.29-1.47s1.34.58 1.34 1.46zm2.51-.82h-2v-.57h2.61v.57l-1.48 5.2h-.64zm32.71.82c0 1.74-2 2.36-2 3.69v.09h1.89v.58h-2.49v-.49c0-1.86 2-2.22 2-3.85 0-.59-.19-.9-.67-.9s-.68.33-.68.85v.51h-.6v-.47c0-.88.41-1.47 1.3-1.47s1.25.58 1.25 1.46zm3.23-.03v.21a1.12 1.12 0 01-.66 1.18 1.17 1.17 0 01.66 1.22v.43a1.36 1.36 0 11-2.71 0v-.43a1.17 1.17 0 01.66-1.22 1.12 1.12 0 01-.66-1.18v-.18a1.36 1.36 0 112.71 0zm-2.08 0v.28c0 .56.27.81.72.81s.73-.25.73-.81v-.28c0-.59-.27-.86-.73-.86s-.72.28-.72.87zm0 2.5v.48c0 .6.26.88.72.88s.72-.28.73-.88v-.48c0-.56-.25-.83-.73-.83s-.72.28-.72.84zm35.31-2.47c0 1.74-1.95 2.36-2 3.69v.09h1.89v.58h-2.53v-.49c0-1.86 2-2.22 2-3.85 0-.59-.2-.9-.68-.9s-.67.33-.67.85v.51h-.61v-.47c0-.88.41-1.47 1.3-1.47s1.3.58 1.3 1.46zm3.18-.01v2.94c0 .92-.41 1.49-1.34 1.49s-1.3-.57-1.3-1.45v-.1h.6v.14c0 .52.23.83.69.83s.71-.32.71-.93v-1.29a.92.92 0 01-.94.61c-.74 0-1.07-.53-1.07-1.36v-.88c0-.88.43-1.45 1.32-1.45s1.33.57 1.33 1.45zm-2 0v.86c0 .52.22.83.68.83s.69-.31.69-.83v-.86c0-.53-.22-.83-.69-.83s-.69.27-.69.8zm34.63 0v.19a1.14 1.14 0 01-.7 1.18 1.15 1.15 0 01.7 1.2v.44c0 .89-.41 1.46-1.3 1.46s-1.3-.57-1.3-1.46v-.39h.61v.44c0 .51.21.83.67.83s.68-.31.68-.89v-.45c0-.57-.24-.84-.73-.85h-.34v-.58h.37a.7.7 0 00.7-.79v-.26c0-.6-.21-.9-.68-.9s-.67.32-.67.84v.29h-.61v-.26c0-.88.42-1.45 1.3-1.45s1.3.53 1.3 1.41zm.57 0c0-.88.44-1.45 1.32-1.45s1.33.57 1.33 1.45v3c0 .89-.44 1.46-1.33 1.46s-1.32-.57-1.32-1.46zm.64 3c0 .51.22.83.68.83s.69-.32.69-.83v-3.05c0-.53-.22-.84-.69-.84s-.68.31-.68.84z" fill="#263238"/>
  <path d="M377.53 295.81c0-.88.44-1.45 1.32-1.45s1.32.57 1.32 1.45v3c0 .88-.43 1.45-1.32 1.45s-1.32-.57-1.32-1.45zm.63 3c0 .52.23.83.69.83s.68-.31.68-.83v-3.05c0-.52-.21-.83-.68-.83s-.69.31-.69.83zm5.17-3v.52h-.61v-.55c0-.52-.21-.83-.68-.83s-.67.31-.67.83v3.05c0 .51.21.83.67.83s.68-.32.68-.83v-.75h.61v.71c0 .88-.41 1.45-1.3 1.45s-1.3-.57-1.3-1.45v-3c0-.87.41-1.45 1.3-1.45s1.3.6 1.3 1.47zm1.41 4.37V295h-1.06v-.58h2.76v.58h-1.06v5.18zm2.26-.79v.79h-.62v-.79zm3.11-3.93a1.64 1.64 0 01-.8.25v-.53a1 1 0 001-.76h.45v5.76h-.64zm27.89.36c0 1.74-2 2.36-2 3.69v.09h1.9v.58h-2.53v-.49c0-1.86 1.95-2.22 1.95-3.85 0-.59-.2-.9-.68-.9s-.67.33-.67.85v.51h-.6v-.47c0-.88.4-1.47 1.29-1.47s1.34.58 1.34 1.46zm-216.55 35.25v.15a1.16 1.16 0 01-.7 1.19 1.13 1.13 0 01.7 1.19v.45c0 .88-.41 1.45-1.3 1.45s-1.3-.57-1.3-1.45v-.4h.61v.44c0 .52.21.83.67.83s.68-.31.68-.89v-.45c0-.56-.24-.84-.73-.85h-.34v-.58h.37a.7.7 0 00.7-.79v-.26c0-.6-.21-.9-.68-.9s-.67.32-.67.84v.3h-.61v-.27c0-.88.42-1.45 1.3-1.45s1.3.57 1.3 1.45zm37.62 3.21v1.17h-.63v-1.17h-1.86v-.58l1.79-4h.7v4h.46v.58zm-1.9-.58h1.27v-2.82zm35.49-1.7a.92.92 0 01.86-.48c.74 0 1.07.54 1.07 1.37v1.13c0 .88-.42 1.45-1.3 1.45s-1.3-.57-1.3-1.45v-.39h.6v.43c0 .52.22.83.68.83s.67-.31.67-.83V333c0-.52-.21-.84-.67-.84a.62.62 0 00-.65.62v.13H272l.15-3.2h2.28v.58h-1.7zm38.34-.94v.11h-.6V331c0-.52-.21-.82-.68-.82s-.7.31-.7.93v1.29a.94.94 0 01.93-.62c.74 0 1.07.54 1.07 1.37v.88c0 .88-.44 1.45-1.32 1.45s-1.32-.57-1.32-1.45v-2.93c0-.91.41-1.48 1.32-1.48s1.3.56 1.3 1.44zm-2 2.16v.87c0 .52.21.83.68.83s.69-.31.69-.83v-.87c0-.52-.23-.83-.69-.83s-.62.31-.62.83zm37.23-2.96h-2v-.58h2.61v.56l-1.48 5.21h-.65zm36.55.79v.18a1.13 1.13 0 01-.66 1.18 1.19 1.19 0 01.66 1.22v.43a1.36 1.36 0 11-2.72 0v-.43a1.17 1.17 0 01.66-1.22 1.12 1.12 0 01-.66-1.18v-.18a1.36 1.36 0 112.72 0zm-2.09 0v.28c0 .56.27.81.73.81s.72-.25.72-.81v-.28c0-.59-.27-.86-.72-.86s-.73.28-.73.87zm0 2.5v.49c0 .59.27.87.73.87s.71-.28.72-.87v-.49c0-.56-.25-.83-.72-.83s-.73.28-.73.84zm37.31-2.48V334c0 .92-.42 1.49-1.34 1.49s-1.3-.57-1.3-1.45V334h.6v.14c0 .52.22.83.68.83s.71-.31.71-.92v-1.3a.91.91 0 01-.93.61c-.74 0-1.07-.53-1.07-1.36v-.88c0-.88.43-1.45 1.32-1.45s1.33.52 1.33 1.4zm-2 0v.86c0 .52.22.84.68.84s.68-.32.68-.84V331c0-.53-.21-.83-.68-.83s-.68.34-.68.83z" fill="#ccc"/>
  <path d="M212.36 139.59v.15h-.61v-.18c0-.52-.19-.83-.65-.83s-.66.31-.66.82c0 1.29 1.93 1.41 1.93 3 0 .87-.42 1.44-1.3 1.44s-1.29-.57-1.29-1.44v-.33h.6v.36c0 .52.21.82.67.82s.68-.3.68-.82c0-1.29-1.93-1.41-1.93-3 0-.89.41-1.44 1.28-1.44s1.28.57 1.28 1.45zm36.97 4.41h-.62l-1-4.59V144h-.56v-5.8h.9l.95 4.61.91-4.61h.9v5.8h-.61v-4.64zm34.61 0v-5.18h-1.06v-.59h2.76v.59h-1.06V144zm36.23 0h-.88l-.79-5.77h.63l.67 4.91.64-4.9h.64l.63 4.91.65-4.92h.56l-.78 5.77h-.85l-.55-3.91zm36.06 0v-5.18h-1.06v-.59h2.76v.59h-1.06V144zm37.07-3.11v.58H392V144h-.64v-5.8h2.29v.59H392v2.1zm35.63-1.3v.15h-.61v-.18c0-.52-.2-.83-.66-.83s-.66.31-.66.82c0 1.29 1.93 1.41 1.93 3 0 .87-.42 1.44-1.3 1.44s-1.29-.57-1.29-1.44v-.33h.6v.36c0 .52.21.82.68.82s.67-.3.67-.82c0-1.29-1.93-1.41-1.93-3 0-.89.42-1.44 1.28-1.44s1.29.57 1.29 1.45z" fill="#263238"/>
  <path fill="none" stroke="#263238" stroke-linejoin="round" d="M196.45 149.07h35.54v35.54h-35.54zm35.69 0h35.54v35.54h-35.54zm35.69 0h35.54v35.54h-35.54zm35.68 0h35.54v35.54h-35.54zm35.69 0h35.54v35.54H339.2zm35.69 0h35.54v35.54h-35.54zm35.69 0h35.54v35.54h-35.54zm-214.13 35.54h35.54v35.54h-35.54zm35.69 0h35.54v35.54h-35.54zm35.69 0h35.54v35.54h-35.54zm35.68 0h35.54v35.54h-35.54zm35.69 0h35.54v35.54H339.2zm35.69 0h35.54v35.54h-35.54zm35.69 0h35.54v35.54h-35.54z"/>
  <path fill="none" stroke="#263238" stroke-linejoin="round" d="M196.45 220.14h35.54v35.54h-35.54zm35.69 0h35.54v35.54h-35.54zm35.69 0h35.54v35.54h-35.54zm35.68 0h35.54v35.54h-35.54zm35.69 0h35.54v35.54H339.2zm35.69 0h35.54v35.54h-35.54zm35.69 0h35.54v35.54h-35.54zm-214.13 35.54h35.54v35.54h-35.54zm35.69 0h35.54v35.54h-35.54zm35.69 0h35.54v35.54h-35.54zm35.68 0h35.54v35.54h-35.54zm35.69 0h35.54v35.54H339.2zm35.69 0h35.54v35.54h-35.54zm35.69 0h35.54v35.54h-35.54z"/>
  <path fill="none" stroke="#263238" stroke-linejoin="round" d="M196.45 291.21h35.54v35.54h-35.54zm35.69 0h35.54v35.54h-35.54zm35.69 0h35.54v35.54h-35.54zm35.68 0h35.54v35.54h-35.54zm35.69 0h35.54v35.54H339.2zm35.69 0h35.54v35.54h-35.54zm35.69 0h35.54v35.54h-35.54zm-214.13 35.54h35.54v35.54h-35.54zm35.69 0h35.54v35.54h-35.54zm35.69 0h35.54v35.54h-35.54zm35.68 0h35.54v35.54h-35.54zm35.69 0h35.54v35.54H339.2zm35.69 0h35.54v35.54h-35.54zm35.69 0h35.54v35.54h-35.54zm36.6-195.07H107.99"/>
  <path fill="#ccc" d="M332.8 115.82h21.35v9.76H332.8zm23.18 0h21.35v9.76h-21.35zm23.18 0h21.35v9.76h-21.35zm23.18 0h21.35v9.76h-21.35zm23.19 0h21.35v9.76h-21.35zm-227.56 0h12.61v9.76h-12.61zm14.39 0h12.61v9.76h-12.61z"/>
  <path fill="#263238" d="M221.74 120.52l-6.06 3.5v-7l6.06 3.5zm-20.92 0l6.06 3.5v-7l-6.06 3.5zm31.52-1.64v.19h-.73v-.23c0-.62-.24-1-.8-1s-.79.37-.79 1c0 1.56 2.33 1.71 2.33 3.66 0 1.05-.51 1.74-1.57 1.74s-1.55-.69-1.55-1.74v-.39h.77v.43c0 .63.26 1 .81 1s.82-.36.82-1c0-1.54-2.32-1.69-2.32-3.65 0-1.07.49-1.73 1.53-1.73s1.5.67 1.5 1.72zm3.15 1.41v.7h-1.69v2.47h2.08v.7H233v-6.94h2.86v.7h-2.06v2.37zm2.62-3.07c1.09 0 1.56.64 1.56 1.69v.84a1.45 1.45 0 01-1.62 1.67h-.69v2.74h-.77v-6.94zm-.06 3.51c.57 0 .85-.27.85-.93v-.93c0-.63-.23-1-.79-1h-.75v2.81zm3.22 3.43v-6.24H240v-.7h3.32v.7H242v6.24zm5.04-3.87v.7h-1.7v2.47h2.08v.7h-2.85v-6.94h2.85v.7h-2.08v2.37zm3.69 3.86h-.75l-1.15-5.52v5.53h-.67v-6.94h1.08l1.14 5.54 1.1-5.54h1.08v6.94h-.73v-5.58zm4.15-6.93c1.08 0 1.51.51 1.51 1.54v.32c0 .74-.21 1.19-.82 1.38.68.19.94.72.94 1.49v.58a1.43 1.43 0 01-1.59 1.63h-1.6v-6.94zm-.19 2.94c.62 0 .93-.19.93-.92v-.41c0-.61-.2-.91-.76-.91h-.76v2.24zm.23 3.3c.56 0 .82-.3.82-.95v-.61c0-.77-.31-1-1-1h-.67v2.59zm4.81-3.17v.7h-1.7v2.47h2.08v.7h-2.85v-6.94h2.85v.7h-2.08v2.37zm2.59-3.07c1.1 0 1.55.55 1.55 1.59v.56a1.3 1.3 0 01-.86 1.43c.63.19.87.7.87 1.45v1.08a1.73 1.73 0 00.14.83h-.78a1.81 1.81 0 01-.13-.84v-1.09c0-.79-.37-1-1-1h-.55v3h-.77v-6.94zm-.19 3.27c.61 0 1-.2 1-.95v-.67c0-.62-.23-1-.8-1h-.76v2.57zm8.96-1.59c0 2.1-2.35 2.85-2.36 4.45v.11h2.28v.7h-3v-.6c0-2.24 2.35-2.67 2.35-4.63 0-.71-.24-1.09-.81-1.09s-.81.41-.81 1v.62h-.73v-.57c0-1.06.49-1.76 1.56-1.76s1.52.71 1.52 1.77zm.64-.01c0-1.06.52-1.74 1.59-1.74s1.59.68 1.59 1.74v3.58c0 1.06-.52 1.76-1.59 1.76s-1.59-.7-1.59-1.76zm.76 3.63c0 .63.27 1 .83 1s.82-.37.82-1v-3.67c0-.63-.26-1-.82-1s-.83.38-.83 1zm6.29-3.62c0 2.1-2.35 2.85-2.36 4.45v.11H278v.7h-3v-.6c0-2.24 2.35-2.67 2.35-4.63 0-.71-.24-1.09-.82-1.09s-.81.41-.81 1v.62H275v-.57c0-1.06.48-1.76 1.55-1.76s1.5.71 1.5 1.77zm2.13-.42a2.05 2.05 0 01-1 .3v-.64a1.2 1.2 0 001.19-.92h.53v6.94h-.76z"/>
  <path fill="none" stroke="#263238" stroke-linejoin="round" d="M109.56 244.23h62.9m-62.9 12.11h62.9m-62.9 12.11h62.9m-62.9 12.12h62.9"/>
  <path fill="#fff" stroke="#263238" stroke-linejoin="round" d="M125.69 98.48h144.58v8.25H125.69z"/>
  <path fill="none" stroke="#263238" stroke-linejoin="round" d="M438.03 101.03h10.07m-10.07 2.74h10.07m-10.07 2.75h10.07M32.64 479.36h449"/>
  <g stroke="#263238" stroke-linejoin="round">
    <path d="M395.89 282.44a35.23 35.23 0 01-1 4.92c-.41.82-3.08 1.44-3.08 2.46a7.68 7.68 0 001.23 2.87l.62 6.57s-.42.82 1.23 1.23 4.92-1 6.35-6.15-.61-11.49-1-12.31-2.5-3.03-4.35.41zm-22.35 12.92s-11.08-20.1-11.08-21.33 1.23-4.9 1.35-5.67-.25-3.06 0-4.34.26-2.68-.51-1.4a5.92 5.92 0 00-1 3.32 2.75 2.75 0 01-.89 1.91l-1.4-2.42-1.79-6.64s-1.15-.51-1.15.38 1 6 1 6l-2.93-6.51s-1-.25-1 .77 2.17 6.76 2.17 6.76l-3.7-4.34a1.23 1.23 0 00-.38 1.66c.51 1.15 2.43 4.34 2.43 4.34a11.51 11.51 0 01-2.3-1.66c-.13-.38-.77-.64-.64.26s3.45 3.95 3.45 3.95a13.94 13.94 0 002.29 2.94l1.28 1.15 7.91 27.44s3.59-7.26 6.89-6.57zm52.91 57.32s6 21.21 6.23 21.93-2 3-2.15 4.07a9.79 9.79 0 01-1.32 3.6c-.48.6-2.88 1.08-2 2s4-1.08 4-1.08v3.84s-1.2 4.31 0 4.55 3.71-2.16 4.43-4.32.48-7.79.84-11.14-1.4-27.13-1.4-27.13z" fill="#fff"/>
    <path d="M434 378.8a3.36 3.36 0 00-.6 2.76c.24 1.92.36 4.56.36 4.56s-3.47 3.71-2.15 3.83 4.07-2.52 4.31-3.47.36-7 .36-8.39m-40.59-69.6s-10.87-4.72-12.92-6.16l-6.77-4.71a2.27 2.27 0 00-1.85-1.23c-1.43-.21-3.69 2.87-4.71 5.53a14.49 14.49 0 00-1 4.72s17.64 15 19.07 16 3.9 4.51 3.9 4.51 2.87 23.38 2.87 24 3.49 4.1 10.66 4.51 14.36-2.46 15.39-4.3 1.64-9 1.84-9.85a11.59 11.59 0 00-.2-3.07l2.87 10.25 8.2-2.25s-4.31-20.51-4.92-23.79-9.23-10.46-16.2-13.33-16.23-.83-16.23-.83z" fill="#fff"/>
    <path d="M376 297.62s-1-1.64-3.08 2.46a44.05 44.05 0 00-3.07 8.41s-3.08-1-3.9-3.29.61-7.38 3.28-10 5.54-2.1 6.77 2.42z" fill="#fff"/>
    <path d="M405.12 273.21s-5.33-2.46-7.59-1.64-3.69 6.36-3.07 9.44 3.48 4.71 4.1 8-2.87 10.87-4.92 14.56.2 7.18 3.28 9.64 5.33 5.33 3.89 9-5.12 7.58-3.28 13.74 11.9 12.3 21.12 9.22 9.44-11.07 9-14.35 4.72-4.51 5.13-12.72-1-12.51-3.7-14.76-6.35-1.64-6.76-7.79 1-15.39-4.72-20.72-12.48-1.62-12.48-1.62z" fill="#263238"/>
    <path d="M423.24 349.15s2.59 4.53 3.66 4.74 7.77-2.37 8.2-3 .22-4.53-.22-5.82-4.31.21-7.33 1.51-4.96.63-4.31 2.57zm-35.64 60.1s2.08 28.49 2.95 36.13 1.91 23.78 1.91 23.78-1.73 5.56-2.6 6.77-2.43 2.78-2.26 4.17 8.51.52 8.51.52 1.56.18 1.91-.69.7-14.42.7-15.81 3.12-51.91 3.12-51.91z" fill="#fff"/>
    <path d="M398.89 464.82s-3.47.52-4.52 2.78-3.3 4.86-3.47 5.73-2.61 4.17-2.61 4.17-1.56 1.56-.69 2.6 10.6.87 10.6.87 1.21-6.08 1.91-7.47a12.31 12.31 0 00.34-7.12c-.69-1.74-1.56-1.56-1.56-1.56z" fill="#263238"/>
    <path fill="#fff" d="M395.76 473.15l-3.3 7.82h5.73l-2.43-7.82z"/>
    <path d="M395.76 473.16l1.57 7.81h1.91l1.39-10.07s-3.63-3.13-4.87 2.26z" fill="#263238"/>
    <path d="M409.49 411.34s4.51 20 7.81 30.74 8 26.75 8.34 29.88.35 6.77 1.39 7.47 8.86 1 9-.35-2.61-7.82-3.65-10.08a48.29 48.29 0 01-2.08-6.25l-6.25-53.15z" fill="#fff"/>
    <path d="M430.76 464.29c-.53-.11-3.54-.7-5.12.72a5.13 5.13 0 00-1.2 1.66 49.94 49.94 0 011.2 5.29c.35 3.12.35 6.77 1.39 7.47s8.86 1 9-.35-2.61-7.82-3.65-10.08a37.71 37.71 0 01-1.62-4.71z" fill="#263238"/>
    <path d="M436.06 479.08c-.87-1.57-2.78-7.12-4.17-8.17s-3.82-.52-3.82-.52l-1 1.39c-1 1.39 0 7.65 0 7.65 1 .69 8.82 1.04 8.99-.35z" fill="#fff"/>
    <path d="M431.89 470.91a2.74 2.74 0 00-2.08-.86c-1.39 0-2.78 1.73-2.78 1.73l2.43 9h1.74zm-11.2-120.59a5.08 5.08 0 01-.39 1c-1 1.84-8.21 4.71-15.39 4.3s-10.66-3.89-10.66-4.51c0-.09-.07-.7-.18-1.67-1.6 3.33-6.8 14.64-8.79 25.34-2.37 12.73-.65 34.94-.65 34.94a43.92 43.92 0 0023.51 4.53c13.8-1.08 20.49-4.74 20.49-4.74s1.72-29.51-1.29-40.51a127.51 127.51 0 00-6.65-18.68z" fill="#263238"/>
  </g>
  <path fill="#263238" stroke="#263238" stroke-linecap="round" stroke-linejoin="round" d="M125.31 361.25l-1.12 104.08-10.38-.28-6.92-86.52-2.81 1.12-5.71 25.08-14.58 60.6-9.26-.84 2.8-29.18 8.31-76.86.67-6.18 38.16.56.44 4.42.4 4z"/>
  <path fill="#737373" stroke="#263238" stroke-linecap="round" stroke-linejoin="round" d="M124.91 357.25l-39.27 1.2.67-6.18 38.16.56.44 4.42z"/>
  <path fill="#263238" stroke="#263238" stroke-linecap="round" stroke-linejoin="round" d="M89.97 359.07V354l2.53.15.15 4.77m24.46-.3v-5.07l2.53.15.15 4.77"/>
  <path fill="#fff" stroke="#263238" stroke-linecap="round" stroke-linejoin="round" d="M102.79 354.6h7.16v3.43h-7.16z"/>
  <path d="M124.47 328l8.53 10.8 10.13-16.16c-5.64-6.06-10.21-11.46-11.11-12.7-2.25-3.09-6.33-8.45-8-9.3S105.67 297 105.67 297l-13 2.1-14.87 5.19-13 31 16.2 9.34 1.5-16.49 2 18.8s-1.13 5.61 0 7a3.33 3.33 0 002.38 1.4l22-.7h15.15c.42 0 2-1.68 2.1-3.08s-2.39-7.16-2.39-7.16z" fill="#fff" stroke="#263238" stroke-linecap="round" stroke-linejoin="round"/>
  <path fill="none" stroke="#263238" stroke-linecap="round" stroke-linejoin="round" d="M125.39 313.87l-.92 14.13 3.36-16.27m-2.1-2.95l-.13 2.02m-47.47 7.17l-1.08-2.5m2.06-1.83l3.41 14.5-3.72-8.61m-.84-10.78l.53 2.27"/>
  <path fill="#34a37e" stroke="#263238" stroke-miterlimit="10" d="M111.43 341.2l-1.24 2.19-3.08 5.44-.46.79-.31-.43-2.12-3-2.98-4.18-.17-.24.25-3.78.38-5.75.27-4.12.38-5.75.27-4.11.37-5.76.13-1.92-1.22-1.56-2.08-2.66 3.64-3.87 4.67 2.28-1.13 1.86-2.17 3.6.27 1.28 1.08 5.08.77 3.61 1.09 5.08.77 3.62 1.08 5.07.77 3.62.77 3.61z"/>
  <path d="M107 306.63l-5.1 2.37 1.22 1.56-.12 1.94 2.11-1-.27-1.28zm-.82 10l-3.56 1.67-.27 4.1 4.6-2.16zm1.86 8.69l-6.04 2.8-.27 4.12 7.11-3.34zm1.85 8.69l-8.57 4-.25 3.78.17.24 9.42-4.42zm-5.67 12.22l2.12 3 .77-.36 3.08-5.44z" fill="#263238" stroke="#263238" stroke-linecap="round" stroke-linejoin="round"/>
  <path d="M97 295l-2.58.4-3.25 4.21 6 9.77 4.21-3.25 2.44 1.35 2.85-2.17 4.07 1.36s-1.09-8.14-1.49-9.37-3.94-2.85-3.94-2.85z" fill="#fff" stroke="#263238" stroke-linecap="round" stroke-linejoin="round"/>
  <path d="M117.47 286.25a4.1 4.1 0 00.74-1.46c-.31-.63-2.94-4.78-2.94-4.78a12.45 12.45 0 00.83-3.46 13.91 13.91 0 00-1.21-4.13s-5.17-3.86-10.25-2.18-11 6.18-10.74 12.35 3.37 8 3.37 8l-1.8 4.87 5 8.39 3.39 3.66 2.58-4.88 4-7.61s5.06.06 5.38-.41l.37-6.78s.81-1.12 1.28-1.58z" fill="#fff" stroke="#263238" stroke-linecap="round" stroke-linejoin="round"/>
  <path d="M103.52 283.82s1.9.18 2.07-.77-.12-3.32.21-4.1 3-1.39 3.35-2.81-1.22-3.33-1.22-3.33 5 1.33 8.06.26.38-5.69-4.34-7.33-16.11-.67-20 3.39-2.8 9.45-1.43 13.1 4.48 8.91 7.16 9.26 5.76-5.15 5.76-5.15-.58-1.74.38-2.52z" fill="#263238" stroke="#263238" stroke-linecap="round" stroke-linejoin="round"/>
  <path d="M104.61 285.57s-1-4.6-3.11-4.15-2.76 5.5-1.36 7.41 4.27-.42 4.27-.42" fill="#fff" stroke="#263238" stroke-linecap="round" stroke-linejoin="round"/>
  <path d="M115.3 277.33s-1.54-1.67-2.54 1.07" fill="none" stroke="#263238" stroke-linecap="round" stroke-linejoin="round"/>
  <path d="M114.79 280.64c0 .61-.23 1.1-.49 1.1s-.47-.5-.46-1.11.22-1.11.49-1.1.46.47.46 1.11z" fill="#263238"/>
  <path d="M115.17 289.62a3.68 3.68 0 01-2.6-1.69" fill="none" stroke="#263238" stroke-linecap="round" stroke-linejoin="round"/>
  <path d="M74.9 463.7l-3.32 6.17-6.17 6.87s-1.18 1.66-.71 2.38 18.26 0 18.26 0l1.19-.72.47-2.13-.55-6.13-.28-4.81z" fill="#fff" stroke="#263238" stroke-linecap="round" stroke-linejoin="round"/>
  <path d="M64.8 477.83a1.5 1.5 0 00-.1 1.29c.48.71 18.26 0 18.26 0l1.19-.72.32-1.46zm59.39-12.5l2.06 4.54 6.16 6.87s1.19 1.66.71 2.38-18.26 0-18.26 0l-1.18-.72-.48-2.13.48-9.72.36-1.22z" fill="#fff" stroke="#263238" stroke-linecap="round" stroke-linejoin="round"/>
  <path d="M133.12 479.12c.3-.44 0-1.24-.34-1.79l-19.53-.87.43 1.94 1.18.72s17.79.71 18.26 0z" fill="#fff" stroke="#263238" stroke-linecap="round" stroke-linejoin="round"/>
  <circle cx="149.43" cy="410.22" r="68.66" transform="rotate(-45 149.439 410.22)" fill="#34a37e" stroke="#263238" stroke-miterlimit="10"/>
  <circle cx="149.43" cy="410.22" r="62.5" fill="#fff" stroke="#263238" stroke-linecap="round" stroke-linejoin="round"/>
  <path d="M154.19 410.22a4.76 4.76 0 10-4.76 4.76 4.76 4.76 0 004.76-4.76z" fill="#263238" stroke="#263238" stroke-linecap="round" stroke-linejoin="round"/>
  <path fill="#263238" stroke="#263238" stroke-linecap="round" stroke-linejoin="round" d="M146.73 410.36l-15.19 24.14 2.73 1.56 17.14-23.76-4.68-1.94z"/>
  <path fill="#263238" stroke="#263238" stroke-linecap="round" stroke-linejoin="round" d="M149.38 410.82l31.48 46.05.74-.56-30.67-46.65-1.55 1.16z"/>
  <path fill="#fff" stroke="#263238" stroke-linecap="round" stroke-linejoin="round" d="M67.4 336.66l-1.66 4.15 23.11 33.55 5.03-4.49-12.86-25.24-3.49-1.99-10.13-5.98zm17.52 45.91s-.23 1.5-.33 2 2.82 3.06 2.82 3.06 1.09-.23.71-.52a22.39 22.39 0 01-1.79-3z"/>
  <path d="M85.57 379.12a10.49 10.49 0 00-.94 2.63c0 .87 2.3 3 2.88 3.4s1.56 1.34 1.92.86a2.83 2.83 0 00-.36-2.71 24.44 24.44 0 01-2.32-3.73s-.95-1.34-1.18-.45z" fill="#fff" stroke="#263238" stroke-linecap="round" stroke-linejoin="round"/>
  <path d="M86.78 376l-1.47 2.52 2.1 4s1.67 2.19 2.49 1.91 1.58-.47 1-1.35-1.77-2.86-1.77-2.86l.12-2.95z" fill="#fff" stroke="#263238" stroke-linecap="round" stroke-linejoin="round"/>
  <path d="M89.14 371.06l-2.6 4.4 1.79 3s3 2.1 3.85 1.72a1.14 1.14 0 00.26-1.93l-1.92-1.46s1.88-3.27 2.86-4.95" fill="#fff" stroke="#263238" stroke-linecap="round" stroke-linejoin="round"/>
  <path d="M91 370.81s-.42 1.35-.58 2.14-.81 2.27 0 3 2.19 1.52 2.7.84-.75-3-.75-3a23 23 0 001.63-3.56c.08-.7-.84-1.09-.84-1.09m49.6-45.78l1.17 1.01 17.98 16.24-6.03.55-17.44-8.73-1.65.61 5.97-9.68zm27.96 18.3s1.32.72 1.81 1 .72 4.11.72 4.11-.84.72-.84.24a22.62 22.62 0 00-1.33-3.26z" fill="#fff" stroke="#263238" stroke-linecap="round" stroke-linejoin="round"/>
  <path d="M167.58 340.09a10.24 10.24 0 012.65.84c.73.48 1 3.62 1 4.35s.12 2.05-.48 2.05-1.94-1.21-1.94-1.93a24.48 24.48 0 00-1.57-4.11s-.51-1.57.34-1.2z" fill="#fff" stroke="#263238" stroke-linecap="round" stroke-linejoin="round"/>
  <path d="M164.32 339.12l2.89.36 1.94 4.11s.72 2.65 0 3.14-1.33 1-1.69 0l-1.21-3.14-2.42-1.69z" fill="#fff" stroke="#263238" stroke-linecap="round" stroke-linejoin="round"/>
  <path d="M159 338l5.07.61 1.33 3.26s-.12 3.62-1 4.1a1.13 1.13 0 01-1.69-1v-2.42l-5.68-.72" fill="#fff" stroke="#263238" stroke-linecap="round" stroke-linejoin="round"/>
  <path d="M157.68 339.36s1.32.49 2 .85 2.29.72 2.41 1.81-.12 2.65-1 2.65-1.94-2.41-1.94-2.41a22.1 22.1 0 01-3.86-.85c-.6-.36-.36-1.32-.36-1.32" fill="#fff" stroke="#263238" stroke-linecap="round" stroke-linejoin="round"/>
  <path d="M141.57 326.74a6.73 6.73 0 001.68 7.48" fill="none" stroke="#263238" stroke-linecap="round" stroke-linejoin="round"/>
</svg>
