<svg xmlns="http://www.w3.org/2000/svg" viewBox="0 0 500 500">
  <path fill="#ebebeb" d="M416.78 398.49h33.12v.25h-33.12zm-94.25 2.72h8.69v.25h-8.69zm74.06-12h19.19v.25h-19.19zm-344.13 1.68h43.19v.25H52.46zm52.1 0h6.33v.25h-6.33zm26.91 4.22h93.68v.25h-93.68zM237 337.8H43.92a5.71 5.71 0 01-5.71-5.71V60.66A5.71 5.71 0 0143.92 55H237a5.71 5.71 0 015.71 5.71v271.38a5.71 5.71 0 01-5.71 5.71zM43.92 55.2a5.47 5.47 0 00-5.46 5.46v271.43a5.47 5.47 0 005.46 5.46H237a5.47 5.47 0 005.46-5.46V60.66A5.47 5.47 0 00237 55.2zm409.39 282.6h-193.1a5.72 5.72 0 01-5.71-5.71V60.66a5.72 5.72 0 015.71-5.66h193.1a5.71 5.71 0 015.69 5.66v271.43a5.71 5.71 0 01-5.69 5.71zM260.21 55.2a5.47 5.47 0 00-5.46 5.46v271.43a5.47 5.47 0 005.46 5.46h193.1a5.47 5.47 0 005.46-5.46V60.66a5.47 5.47 0 00-5.46-5.46zM0 382.4h500v.25H0z"/>
  <path fill="#e6e6e6" d="M81.4 381.65H63.22l-1.56-146.69 9.87-7.8 9.87 7.8v146.69z"/>
  <path fill="#ebebeb" d="M105.27 381.65H87.09l-1.56-146.69 9.87-7.8 9.87 7.8v146.69z"/>
  <path fill="#e6e6e6" d="M133.53 381.65h18.18l1.56-146.69-9.87-7.8-9.87 7.8v146.69z"/>
  <path fill="#ebebeb" d="M109.66 381.65h18.18l1.56-146.69-9.87-7.8-9.87 7.8v146.69z"/>
  <path fill="#e0e0e0" d="M176.8 381.65h-18.18l-1.56-146.69 9.87-7.8 9.87 7.8v146.69z"/>
  <path fill="#e6e6e6" d="M181.19 381.65h18.18l1.56-146.69-9.87-7.8-9.87 7.8v146.69z"/>
  <path fill="#e0e0e0" d="M224.67 381.65h-18.18l-1.56-146.69 9.87-7.8 9.87 7.8v146.69z"/>
  <path fill="#e6e6e6" d="M248.54 381.65h-18.18l-1.56-146.69 9.87-7.8 9.87 7.8v146.69z"/>
  <path fill="#e0e0e0" d="M276.8 381.65h18.18l1.56-146.69-9.87-7.8-9.87 7.8v146.69z"/>
  <path fill="#f0f0f0" d="M252.93 381.65h18.18l1.56-146.69-9.87-7.8-9.87 7.8v146.69zm67.15 0H301.9l-1.56-146.69 9.87-7.8 9.87 7.8v146.69zm4.39 0h18.18l1.56-146.69-9.87-7.8-9.87 7.8v146.69z"/>
  <path fill="#e0e0e0" d="M346.55 381.65h18.18l1.55-146.69-9.86-7.8-9.87 7.8v146.69zm43.27 0h-18.18l-1.56-146.69 9.87-7.8 9.87 7.8v146.69z"/>
  <path fill="#f0f0f0" d="M394.21 381.65h18.18l1.56-146.69-9.87-7.8-9.87 7.8v146.69z"/>
  <path fill="#e6e6e6" d="M416.69 381.65h18.19l1.55-146.69-9.87-7.8-9.87 7.8v146.69z"/>
  <path fill="#f0f0f0" d="M440.11 270.69l-381.34 1v-18.33l381.34-2v19.33z"/>
  <path fill="#e6e6e6" d="M58.77 368.69l381.34 1v-18.33l-381.34-2v19.33z"/>
  <path d="M419.74 110.62a6.22 6.22 0 00-3.67 1.2 9.36 9.36 0 00-13.17-11.54 9.36 9.36 0 00-18.12 3.28 10.21 10.21 0 00.09 1.25 9.55 9.55 0 00-2.46-.34 9.37 9.37 0 000 18.74h37.33a6.3 6.3 0 000-12.59zm-48.22-15.06a4.41 4.41 0 00-2.6.84 6.62 6.62 0 00-9.3-8.16 6.62 6.62 0 00-12.81 2.33 6.4 6.4 0 00.07.88 6.7 6.7 0 00-1.74-.24 6.62 6.62 0 000 13.24h26.38a4.45 4.45 0 000-8.89zm-237.14 19.89a8.08 8.08 0 00-4.76 1.54 11.91 11.91 0 00.78-4.24 12.12 12.12 0 00-17.81-10.69 12.1 12.1 0 00-23.44 4.25 12.35 12.35 0 00.12 1.62 12 12 0 00-3.19-.44 12.12 12.12 0 000 24.23h48.3a8.14 8.14 0 000-16.27zm158.67-22.74a8.09 8.09 0 00-4.76 1.55 12 12 0 00.78-4.24A12.12 12.12 0 00277 77.91a12 12 0 00-5.68 1.42 12.09 12.09 0 00-23.33 5.86 12.4 12.4 0 00-3.19-.43 12.12 12.12 0 000 24.23h48.3a8.14 8.14 0 000-16.28z" fill="#f0f0f0"/>
  <ellipse cx="245.18" cy="412.39" rx="193.89" ry="11.32" fill="#f5f5f5"/>
  <path d="M82.2 322.93l3.89 52.23a8.37 8.37 0 008.36 7.76h75.45a8.37 8.37 0 008.36-7.76l3.89-52.23a8.38 8.38 0 00-8.36-9H90.56a8.38 8.38 0 00-8.36 9z" fill="#34a37e"/>
  <path d="M173.79 313.93H90.56a8.38 8.38 0 00-8.36 9l.6 8.06h98.75l.6-8.06a8.38 8.38 0 00-8.36-9z" fill="#34a37e"/>
  <path fill="#263238" d="M82.67 329.22l.13 1.77h98.75l.14-1.77H82.67zm26.52-.09h-11a2 2 0 01-2-2 2 2 0 012-2h11a2 2 0 012 2 2 2 0 01-2 2z"/>
  <path d="M109.19 329.13h-11a2 2 0 01-2-2 2 2 0 012-2h11a2 2 0 012 2 2 2 0 01-2 2z" fill="#fff" opacity=".5"/>
  <rect x="96.24" y="331.21" width="14.95" height="7.11" rx="2.48" fill="#263238"/>
  <rect x="96.24" y="331.21" width="14.95" height="7.11" rx="2.48" fill="#fff" opacity=".5"/>
  <path d="M107.91 336.24h-8.38a2.32 2.32 0 01-2.33-2.32V328a.88.88 0 01.89-.88.88.88 0 01.91.88v4.12a2.32 2.32 0 002.32 2.32h4.83a2.32 2.32 0 002.32-2.32V328a.88.88 0 01.89-.88.88.88 0 01.89.88v5.9a2.32 2.32 0 01-2.34 2.34z" fill="#263238"/>
  <path d="M107.91 336.24h-8.38a2.32 2.32 0 01-2.33-2.32V328a.88.88 0 01.89-.88.88.88 0 01.91.88v4.12a2.32 2.32 0 002.32 2.32h4.83a2.32 2.32 0 002.32-2.32V328a.88.88 0 01.89-.88.88.88 0 01.89.88v5.9a2.32 2.32 0 01-2.34 2.34z" fill="#fff" opacity=".2"/>
  <path d="M104.62 341.45h-2a2 2 0 01-2-1.79l-.51-5.21a2 2 0 012-2.17h3a2 2 0 012 2.17l-.51 5.21a2 2 0 01-1.98 1.79z" fill="#263238"/>
  <path d="M104.62 341.45h-2a2 2 0 01-2-1.79l-.51-5.21a2 2 0 012-2.17h3a2 2 0 012 2.17l-.51 5.21a2 2 0 01-1.98 1.79z" fill="#fff" opacity=".6"/>
  <path d="M166.11 329.13h-11a2 2 0 01-2-2 2 2 0 012-2h11a2 2 0 012 2 2 2 0 01-2 2z" fill="#263238"/>
  <path d="M166.11 329.13h-11a2 2 0 01-2-2 2 2 0 012-2h11a2 2 0 012 2 2 2 0 01-2 2z" fill="#fff" opacity=".5"/>
  <rect x="153.16" y="331.21" width="14.95" height="7.11" rx="2.48" fill="#263238"/>
  <rect x="153.16" y="331.21" width="14.95" height="7.11" rx="2.48" fill="#fff" opacity=".5"/>
  <path d="M164.83 336.24h-8.39a2.32 2.32 0 01-2.32-2.32V328a.88.88 0 01.89-.88.88.88 0 01.89.88v4.12a2.32 2.32 0 002.32 2.32h4.83a2.32 2.32 0 002.32-2.32V328a.88.88 0 01.89-.88.88.88 0 01.89.88v5.9a2.32 2.32 0 01-2.32 2.34z" fill="#263238"/>
  <path d="M164.83 336.24h-8.39a2.32 2.32 0 01-2.32-2.32V328a.88.88 0 01.89-.88.88.88 0 01.89.88v4.12a2.32 2.32 0 002.32 2.32h4.83a2.32 2.32 0 002.32-2.32V328a.88.88 0 01.89-.88.88.88 0 01.89.88v5.9a2.32 2.32 0 01-2.32 2.34z" fill="#fff" opacity=".2"/>
  <path d="M161.54 341.45h-2a2 2 0 01-2-1.79l-.51-5.21a2 2 0 012-2.17h3a2 2 0 012 2.17l-.5 5.21a2 2 0 01-1.99 1.79z" fill="#263238"/>
  <path d="M161.54 341.45h-2a2 2 0 01-2-1.79l-.51-5.21a2 2 0 012-2.17h3a2 2 0 012 2.17l-.5 5.21a2 2 0 01-1.99 1.79z" fill="#fff" opacity=".6"/>
  <g opacity=".4" fill="#fff">
    <path d="M173.79 313.93H90.56a8.37 8.37 0 00-8.36 9l.47 6.29.13 1.78 3.29 44.17a8.37 8.37 0 008.36 7.76h75.45a8.37 8.37 0 008.36-7.76l3.29-44.17.13-1.77.47-6.29a8.38 8.38 0 00-8.36-9.01zm-6.64 17.81a2.47 2.47 0 00-1.53-.53h-.25V328a.89.89 0 011.78 0z"/>
    <path d="M167.15 328v3.72a2.47 2.47 0 00-1.53-.53h-.25V328a.89.89 0 011.78 0z"/>
    <path d="M167.15 328v3h-1.78v-3a.89.89 0 011.78 0zm-84.48 1.22l.13 1.77-.14-1.77h.01z"/>
    <path d="M165.37 329.22h1.78v1.77h-1.78zm1.78-1.22v.82a2 2 0 01-1 .29h-.74V328a.89.89 0 011.78 0z"/>
    <path d="M167.15 328v.82a2 2 0 01-1 .29h-.74V328a.89.89 0 011.78 0z" opacity=".5"/>
    <path d="M167.15 328v3.72a2.47 2.47 0 00-1.53-.53h-.25V328a.89.89 0 011.78 0z"/>
    <path d="M167.15 328v3.72a2.47 2.47 0 00-1.53-.53h-.25V328a.89.89 0 011.78 0z" opacity=".2"/>
  </g>
  <path d="M249.91 72.52C129.5 72.52 39.73 61.57 38.36 61.4l.19-1.48c2.09.26 211.36 25.75 420.37-1.42l.2 1.49c-72.6 9.43-145.24 12.53-209.21 12.53z" fill="#263238"/>
  <path d="M249.91 72.52C129.5 72.52 39.73 61.57 38.36 61.4l.19-1.48c2.09.26 211.36 25.75 420.37-1.42l.2 1.49c-72.6 9.43-145.24 12.53-209.21 12.53z" fill="#fff" opacity=".5"/>
  <path d="M56.82 75.7a6.28 6.28 0 1012.48 1.47c.3-2.49-1.49-4.42-2.51-6.55a8.93 8.93 0 010-3L61.5 67a9 9 0 01-.69 2.86c-1.5 1.88-3.69 3.34-3.99 5.84z" fill="#34a37e"/>
  <path d="M56.82 75.7a6.28 6.28 0 1012.48 1.47c.3-2.49-1.49-4.42-2.51-6.55a8.93 8.93 0 010-3L61.5 67a9 9 0 01-.69 2.86c-1.5 1.88-3.69 3.34-3.99 5.84z" fill="#fff" opacity=".6"/>
  <path d="M63.23 65.36l2.26.26a1.53 1.53 0 011.33 1.7l-5.29-.63a1.53 1.53 0 011.7-1.33zm1.31-1.46a1.25 1.25 0 011.1 1.38L63.16 65a1.25 1.25 0 011.38-1.1zm55.8 17.38a6.28 6.28 0 0012.48 1.47c.29-2.5-1.5-4.43-2.52-6.55a8.87 8.87 0 010-3l-5.3-.62a8.73 8.73 0 01-.69 2.86c-1.49 1.88-3.68 3.34-3.97 5.84z" fill="#34a37e"/>
  <path d="M120.34 81.28a6.28 6.28 0 0012.48 1.47c.29-2.5-1.5-4.43-2.52-6.55a8.87 8.87 0 010-3l-5.3-.62a8.73 8.73 0 01-.69 2.86c-1.49 1.88-3.68 3.34-3.97 5.84z" fill="#fff" opacity=".6"/>
  <path d="M126.74 70.93l2.26.27a1.53 1.53 0 011.34 1.7l-5.3-.63a1.53 1.53 0 011.7-1.34zm1.32-1.45a1.24 1.24 0 011.09 1.38l-2.47-.29a1.23 1.23 0 011.38-1.09zm66.24 15.01a6.28 6.28 0 1012.56-.36c-.07-2.52-2.12-4.16-3.45-6.12a8.88 8.88 0 01-.41-2.91l-5.33.15a9.08 9.08 0 01-.26 2.94c-1.23 2.03-3.18 3.81-3.11 6.3z" fill="#34a37e"/>
  <path d="M194.3 84.49a6.28 6.28 0 1012.56-.36c-.07-2.52-2.12-4.16-3.45-6.12a8.88 8.88 0 01-.41-2.91l-5.33.15a9.08 9.08 0 01-.26 2.94c-1.23 2.03-3.18 3.81-3.11 6.3z" fill="#fff" opacity=".6"/>
  <path d="M199.12 73.33l2.28-.07a1.52 1.52 0 011.6 1.48l-5.33.16a1.52 1.52 0 011.45-1.57zm1.1-1.64a1.25 1.25 0 011.28 1.21l-2.5.1a1.24 1.24 0 011.22-1.31zm72.96 13.38a6.28 6.28 0 0012.56-.37c-.07-2.52-2.12-4.16-3.44-6.12a9 9 0 01-.44-2.91l-5.33.16a8.74 8.74 0 01-.26 2.93c-1.21 2.03-3.16 3.79-3.09 6.31z" fill="#34a37e"/>
  <path d="M273.18 85.07a6.28 6.28 0 0012.56-.37c-.07-2.52-2.12-4.16-3.44-6.12a9 9 0 01-.44-2.91l-5.33.16a8.74 8.74 0 01-.26 2.93c-1.21 2.03-3.16 3.79-3.09 6.31z" fill="#fff" opacity=".6"/>
  <path d="M278 73.9l2.27-.07a1.53 1.53 0 011.57 1.48l-5.33.16A1.53 1.53 0 01278 73.9zm1.1-1.64a1.25 1.25 0 011.28 1.21l-2.49.07a1.25 1.25 0 011.21-1.28zm73 11.17A6.28 6.28 0 10364.57 82c-.29-2.49-2.48-4-4-5.78a8.73 8.73 0 01-.69-2.86l-5.3.62a8.87 8.87 0 010 2.95c-.99 2.07-2.78 4-2.48 6.5z" fill="#34a37e"/>
  <path d="M352.1 83.43A6.28 6.28 0 10364.57 82c-.29-2.49-2.48-4-4-5.78a8.73 8.73 0 01-.69-2.86l-5.3.62a8.87 8.87 0 010 2.95c-.99 2.07-2.78 4-2.48 6.5z" fill="#fff" opacity=".6"/>
  <path d="M355.91 71.88l2.26-.27a1.53 1.53 0 011.69 1.39l-5.29.63a1.53 1.53 0 011.34-1.75zm.94-1.72a1.23 1.23 0 011.38 1.09l-2.47.29a1.25 1.25 0 011.09-1.38zM423 77.61a6.29 6.29 0 1012.34-2.42c-.49-2.47-2.78-3.75-4.41-5.47a9 9 0 01-.9-2.8l-5.23 1a9.14 9.14 0 01.22 2.94c-.88 2.22-2.52 4.28-2.02 6.75z" fill="#34a37e"/>
  <path d="M423 77.61a6.29 6.29 0 1012.34-2.42c-.49-2.47-2.78-3.75-4.41-5.47a9 9 0 01-.9-2.8l-5.23 1a9.14 9.14 0 01.22 2.94c-.88 2.22-2.52 4.28-2.02 6.75z" fill="#fff" opacity=".6"/>
  <path d="M425.91 65.8l2.24-.44a1.53 1.53 0 011.79 1.21l-5.23 1a1.53 1.53 0 011.2-1.77zm.81-1.8a1.24 1.24 0 011.46 1l-2.44.48a1.25 1.25 0 01.98-1.48z" fill="#34a37e"/>
  <path d="M308.54 232.35l-.37-.61h-7.36l-.37.61a1.73 1.73 0 00-.23.86V249a1.73 1.73 0 00.23.86l.37.61h7.36l.37-.61a1.74 1.74 0 00.24-.86v-15.79a1.74 1.74 0 00-.24-.86z" fill="#263238"/>
  <path d="M308.87 231.93h-8.75a.49.49 0 01-.49-.49.49.49 0 01.49-.49h8.75a.49.49 0 01.49.49.49.49 0 01-.49.49z" fill="#34a37e"/>
  <path d="M308.87 231.93h-8.75a.49.49 0 01-.49-.49.49.49 0 01.49-.49h8.75a.49.49 0 01.49.49.49.49 0 01-.49.49z" fill="#fff" opacity=".5"/>
  <path d="M308.87 251.23h-8.75a.49.49 0 01-.49-.49.49.49 0 01.49-.49h8.75a.49.49 0 01.49.49.49.49 0 01-.49.49z" fill="#34a37e"/>
  <path d="M308.87 251.23h-8.75a.49.49 0 01-.49-.49.49.49 0 01.49-.49h8.75a.49.49 0 01.49.49.49.49 0 01-.49.49z" fill="#fff" opacity=".5"/>
  <path fill="#fff" opacity=".8" d="M300.21 246.33l8.57-2.87v-7.61l-8.57 2.87v7.61z"/>
  <path d="M319.45 232.35l-.37-.61h-7.36l-.37.61a1.73 1.73 0 00-.23.86V249a1.73 1.73 0 00.23.86l.37.61h7.36l.37-.61a1.74 1.74 0 00.24-.86v-15.79a1.74 1.74 0 00-.24-.86z" fill="#263238"/>
  <path d="M319.77 231.93H311a.5.5 0 01-.5-.49.5.5 0 01.5-.49h8.74a.49.49 0 01.5.49.49.49 0 01-.47.49z" fill="#34a37e"/>
  <path d="M319.77 231.93H311a.5.5 0 01-.5-.49.5.5 0 01.5-.49h8.74a.49.49 0 01.5.49.49.49 0 01-.47.49z" fill="#fff" opacity=".5"/>
  <path d="M319.77 251.23H311a.5.5 0 01-.5-.49.5.5 0 01.5-.49h8.74a.49.49 0 01.5.49.49.49 0 01-.47.49z" fill="#34a37e"/>
  <path d="M319.77 251.23H311a.5.5 0 01-.5-.49.5.5 0 01.5-.49h8.74a.49.49 0 01.5.49.49.49 0 01-.47.49z" fill="#fff" opacity=".5"/>
  <path fill="#fff" opacity=".8" d="M311.12 246.33l8.57-2.87v-7.61l-8.57 2.87v7.61z"/>
  <path d="M314.18 252.51l-.37-.61h-7.36l-.37.61a1.74 1.74 0 00-.23.87v15.75a1.7 1.7 0 00.23.86l.37.62h7.36l.37-.62a1.71 1.71 0 00.24-.86v-15.75a1.75 1.75 0 00-.24-.87z" fill="#263238"/>
  <path d="M314.51 252.1h-8.75a.5.5 0 01-.49-.5.49.49 0 01.49-.49h8.75a.49.49 0 01.49.49.5.5 0 01-.49.5z" fill="#34a37e"/>
  <path d="M314.51 252.1h-8.75a.5.5 0 01-.49-.5.49.49 0 01.49-.49h8.75a.49.49 0 01.49.49.5.5 0 01-.49.5z" fill="#fff" opacity=".5"/>
  <path d="M314.51 271.4h-8.75a.49.49 0 01-.49-.49.49.49 0 01.49-.5h8.75a.49.49 0 01.49.5.49.49 0 01-.49.49z" fill="#34a37e"/>
  <path d="M314.51 271.4h-8.75a.49.49 0 01-.49-.49.49.49 0 01.49-.5h8.75a.49.49 0 01.49.5.49.49 0 01-.49.49z" fill="#fff" opacity=".5"/>
  <path fill="#fff" opacity=".8" d="M305.85 266.49l8.57-2.87v-7.6l-8.57 2.87v7.6z"/>
  <path d="M324.25 252.51l-.37-.61h-7.36l-.36.61a1.65 1.65 0 00-.24.87v15.75a1.62 1.62 0 00.24.86l.36.62h7.36l.37-.62a1.62 1.62 0 00.24-.86v-15.75a1.65 1.65 0 00-.24-.87z" fill="#263238"/>
  <path d="M324.58 252.1h-8.75a.5.5 0 01-.49-.5.49.49 0 01.49-.49h8.75a.49.49 0 01.49.49.5.5 0 01-.49.5z" fill="#34a37e"/>
  <path d="M324.58 252.1h-8.75a.5.5 0 01-.49-.5.49.49 0 01.49-.49h8.75a.49.49 0 01.49.49.5.5 0 01-.49.5z" fill="#fff" opacity=".5"/>
  <path d="M324.58 271.4h-8.75a.49.49 0 01-.49-.49.49.49 0 01.49-.5h8.75a.49.49 0 01.49.5.49.49 0 01-.49.49z" fill="#34a37e"/>
  <path d="M324.58 271.4h-8.75a.49.49 0 01-.49-.49.49.49 0 01.49-.5h8.75a.49.49 0 01.49.5.49.49 0 01-.49.49z" fill="#fff" opacity=".5"/>
  <path fill="#fff" opacity=".8" d="M315.92 266.49l8.57-2.87v-7.6l-8.57 2.87v7.6z"/>
  <path d="M303.74 252.51l-.37-.61H296l-.37.61a1.75 1.75 0 00-.24.87v15.75a1.71 1.71 0 00.24.86l.37.62h7.36l.37-.62a1.7 1.7 0 00.23-.86v-15.75a1.74 1.74 0 00-.22-.87z" fill="#263238"/>
  <path d="M304.06 252.1h-8.74a.5.5 0 01-.5-.5.49.49 0 01.5-.49h8.74a.49.49 0 01.5.49.5.5 0 01-.5.5z" fill="#34a37e"/>
  <path d="M304.06 252.1h-8.74a.5.5 0 01-.5-.5.49.49 0 01.5-.49h8.74a.49.49 0 01.5.49.5.5 0 01-.5.5z" fill="#fff" opacity=".5"/>
  <path d="M304.06 271.4h-8.74a.49.49 0 01-.5-.49.5.5 0 01.5-.5h8.74a.5.5 0 01.5.5.49.49 0 01-.5.49z" fill="#34a37e"/>
  <path d="M304.06 271.4h-8.74a.49.49 0 01-.5-.49.5.5 0 01.5-.5h8.74a.5.5 0 01.5.5.49.49 0 01-.5.49z" fill="#fff" opacity=".5"/>
  <path fill="#fff" opacity=".8" d="M295.4 266.49l8.58-2.87v-7.6l-8.58 2.87v7.6z"/>
  <path d="M314.18 212.19l-.37-.62h-7.36l-.37.62a1.7 1.7 0 00-.23.86v15.75a1.74 1.74 0 00.23.87l.37.61h7.36l.37-.61a1.75 1.75 0 00.24-.87v-15.75a1.71 1.71 0 00-.24-.86z" fill="#263238"/>
  <path d="M314.51 211.77h-8.75a.49.49 0 01-.49-.5.49.49 0 01.49-.49h8.75a.49.49 0 01.49.49.49.49 0 01-.49.5z" fill="#34a37e"/>
  <path d="M314.51 211.77h-8.75a.49.49 0 01-.49-.5.49.49 0 01.49-.49h8.75a.49.49 0 01.49.49.49.49 0 01-.49.5z" fill="#fff" opacity=".5"/>
  <path d="M314.51 231.07h-8.75a.49.49 0 01-.49-.49.5.5 0 01.49-.5h8.75a.5.5 0 01.49.5.49.49 0 01-.49.49z" fill="#34a37e"/>
  <path d="M314.51 231.07h-8.75a.49.49 0 01-.49-.49.5.5 0 01.49-.5h8.75a.5.5 0 01.49.5.49.49 0 01-.49.49z" fill="#fff" opacity=".5"/>
  <path fill="#fff" opacity=".8" d="M305.85 226.16l8.57-2.87v-7.6l-8.57 2.87v7.6z"/>
  <path d="M290.69 276.43h5.6v118.28a1.47 1.47 0 01-1.47 1.47h-2.66a1.47 1.47 0 01-1.47-1.47V276.43zm13.9 0h5.6v118.28a1.47 1.47 0 01-1.47 1.47h-2.66a1.47 1.47 0 01-1.47-1.47V276.43zm94.9 0h5.6v118.28a1.47 1.47 0 01-1.47 1.47H401a1.47 1.47 0 01-1.47-1.47V276.43h-.04zm13.9 0H419v118.28a1.47 1.47 0 01-1.47 1.47h-2.66a1.47 1.47 0 01-1.47-1.47V276.43h-.01z" fill="#263238"/>
  <path d="M428.87 271.49c12.91 4.8 16.43 25.4 0 28-6.16 1-11.81-7.56-18.46-7.56s-11.81 7.56-18.46 7.56-11.81-7.49-18.46-7.49-11.81 7.56-18.46 7.56-11.81-7.56-18.46-7.56-11.81 7.56-18.46 7.56S306.3 292 299.65 292s-12.29 8.55-18.46 7.56c-16.42-2.62-14-23.73 0-28z" fill="#34a37e"/>
  <path d="M428.87 271.49c12.91 4.8 16.43 25.4 0 28-6.16 1-11.81-7.56-18.46-7.56s-11.81 7.56-18.46 7.56-11.81-7.49-18.46-7.49-11.81 7.56-18.46 7.56-11.81-7.56-18.46-7.56-11.81 7.56-18.46 7.56S306.3 292 299.65 292s-12.29 8.55-18.46 7.56c-16.42-2.62-14-23.73 0-28z" opacity=".2"/>
  <path d="M270 289.46h169.75A15.59 15.59 0 00439 282H270.58a15.07 15.07 0 00-.58 7.46z" fill="#fff" opacity=".5"/>
  <path d="M308.92 295.75v-24.26h-7.48v20.66c2.63.51 5.05 2.05 7.48 3.6zm112.82 1.59v-25.85h-7.48v21.33c2.58 1.09 5.04 3.01 7.48 4.52zM336.57 292h.55v-20.5h-7.47v22.8a13.69 13.69 0 016.92-2.3zm-55.86 7.41v-27.75a16 16 0 00-7.48 5.33v18.7a13.89 13.89 0 007.48 3.72zm111.29.1a9.1 9.1 0 001.58-.15v-27.87h-7.47v26.26a12.37 12.37 0 005.89 1.76zm-26.67-4.46v-23.56h-7.48v27.57c2.6-.78 5.03-2.46 7.48-4.01z" fill="#fff" opacity=".5"/>
  <path fill="#fff" d="M273.23 281.98h7.48v7.48h-7.48zm28.21 0h7.48v7.48h-7.48zm28.21 0h7.48v7.48h-7.48zm28.2 0h7.48v7.48h-7.48zm28.21 0h7.48v7.48h-7.48zm28.2 0h7.48v7.48h-7.48z"/>
  <path d="M407.78 220.78V205a2.21 2.21 0 00-2.22-2.22h-2.15a2.21 2.21 0 00-2.21 2.22v15.81l-2.84 4.73a16.23 16.23 0 00-2.32 8.36v35.4a2.89 2.89 0 002.9 2.89H410a2.89 2.89 0 002.89-2.89v-35.4a16.32 16.32 0 00-2.31-8.36z" fill="#34a37e"/>
  <path d="M407.78 220.78V205a2.21 2.21 0 00-2.22-2.22h-2.15a2.21 2.21 0 00-2.21 2.22v15.81l-2.84 4.73a16.23 16.23 0 00-2.32 8.36v35.4a2.89 2.89 0 002.9 2.89H410a2.89 2.89 0 002.89-2.89v-35.4a16.32 16.32 0 00-2.31-8.36z" fill="#263238"/>
  <path d="M401.38 247.69c0 12.57.24 22.75-.62 22.75s-1.57-10.18-1.57-22.75 1.64-22.76 2.5-22.76-.31 10.19-.31 22.76zm2.25-34.63c0 4.42-.45 8-1 8s-.15-3.59-.15-8 .45-8 1-8 .15 3.57.15 8z" fill="#fff" opacity=".6"/>
  <path d="M337.87 271.72h-8a1.28 1.28 0 01-1.27-1.22l-.79-19.59h12.09l-.8 19.59a1.27 1.27 0 01-1.23 1.22z" fill="#263238"/>
  <rect x="326.93" y="249.5" width="13.92" height="1.41" rx=".63" fill="#34a37e"/>
  <rect x="326.93" y="249.5" width="13.92" height="1.41" rx=".63" fill="#fff" opacity=".5"/>
  <g opacity=".4" fill="#fff">
    <path d="M294.82 270.91a.49.49 0 00.5.49h8.74a.5.5 0 100-1h-.57l.25-.42a1.7 1.7 0 00.23-.86v-15.74a1.74 1.74 0 00-.23-.87l-.25-.41h.57a.5.5 0 00.5-.5.47.47 0 00-.18-.37h1.06a.5.5 0 00.32.87h.58l-.26.41a1.74 1.74 0 00-.23.87v15.75a1.7 1.7 0 00.23.86l.26.42h-.58a.5.5 0 000 1h8.75a.5.5 0 000-1h-.58l.25-.42a1.71 1.71 0 00.24-.86v-15.75a1.75 1.75 0 00-.24-.87l-.25-.41h.58a.5.5 0 00.49-.5.47.47 0 00-.18-.37h.69a.5.5 0 00.32.87h.58l-.25.41a1.65 1.65 0 00-.24.87v15.75a1.62 1.62 0 00.24.86l.25.42h-.58a.5.5 0 000 1h8.75a.5.5 0 000-1H324l.25-.42a1.62 1.62 0 00.24-.86v-15.75a1.65 1.65 0 00-.24-.87l-.25-.41h.58a.5.5 0 00.49-.5.49.49 0 00-.49-.49h-4.49a.47.47 0 00.18-.37.49.49 0 00-.49-.49h-.58l.25-.42a1.74 1.74 0 00.24-.86v-15.76a1.74 1.74 0 00-.24-.86l-.25-.42h.58a.49.49 0 000-1h-5a.47.47 0 00.18-.37.5.5 0 00-.49-.5h-.58l.25-.41a1.75 1.75 0 00.24-.87v-15.73a1.71 1.71 0 00-.24-.86l-.25-.42h.58a.5.5 0 000-1h-8.75a.5.5 0 000 1h.58l-.26.42a1.7 1.7 0 00-.23.86v15.75a1.74 1.74 0 00.23.87l.26.41h-.58a.5.5 0 00-.32.87h-5.32a.49.49 0 000 1h.58l-.25.42a1.64 1.64 0 00-.24.86V249a1.64 1.64 0 00.24.86l.25.42h-.58a.49.49 0 00-.49.49.5.5 0 00.17.37h-4.48a.49.49 0 00-.5.49.5.5 0 00.5.5h.57l-.25.41a1.75 1.75 0 00-.24.87v15.75a1.71 1.71 0 00.24.86l.25.42h-.57a.5.5 0 00-.46.47zm13.72-21.08a1.74 1.74 0 00.24-.86v-15.76a1.74 1.74 0 00-.24-.86l-.25-.42h.58a.49.49 0 00.49-.49.47.47 0 00-.18-.37h1.53a.51.51 0 00-.18.37.5.5 0 00.5.49h.58l-.26.42a1.73 1.73 0 00-.23.86V249a1.73 1.73 0 00.23.86l.26.42H311a.5.5 0 00-.5.49.51.51 0 00.18.37h-1.53a.47.47 0 00.18-.37.49.49 0 00-.49-.49h-.58z"/>
    <path d="M439.89 286.82v-.2l-.06-.75v-.26c0-.25-.07-.5-.11-.75v-.23A16.71 16.71 0 00439 282a17.31 17.31 0 00-10.08-10.49h-17a2.89 2.89 0 001.06-2.22v-35.4a16.32 16.32 0 00-2.31-8.36l-2.84-4.73V205a2.21 2.21 0 00-2.21-2.22h-2.16a2.21 2.21 0 00-2.26 2.22v15.81l-2.84 4.73a16.23 16.23 0 00-2.32 8.36v35.4a2.89 2.89 0 001.06 2.22h-58.54a1.23 1.23 0 00.58-1l.8-19.59h.28a.63.63 0 00.63-.63v-.15a.63.63 0 00-.63-.63h-12.66a.63.63 0 00-.63.63v.15a.63.63 0 00.63.63h.29l.79 19.59a1.26 1.26 0 00.58 1h-48a15.94 15.94 0 00-8 5.5 16.56 16.56 0 00-2.65 5 15.81 15.81 0 00-.73 3.58v2.39c0 .19 0 .37.05.56s.08.59.13.89a12 12 0 003.23 6.28 12.1 12.1 0 002.2 1.75l.12.07c.26.16.53.31.8.45l.14.07a15.73 15.73 0 004.7 1.48c3.23.52 6.32-1.59 9.49-3.71v98.91a1.47 1.47 0 001.47 1.47h2.66a1.47 1.47 0 001.47-1.47V292.63a9.64 9.64 0 013.36-.68 8.92 8.92 0 011.79.2 13.23 13.23 0 013.15 1.09v101.47a1.47 1.47 0 001.47 1.47h2.66a1.47 1.47 0 001.47-1.47v-98.15c2.53 1.58 5.09 2.95 7.92 2.95 4.19 0 7.79-3 11.54-5.21l.9-.51.38-.2.66-.33.38-.18c.28-.13.56-.24.84-.35l.19-.08c.34-.13.68-.23 1-.33l.31-.07a7.55 7.55 0 01.8-.16l.33-.05a8 8 0 011.1-.08h.55c6.38.4 11.46 7.52 17.91 7.52 2.69 0 5.14-1.24 7.54-2.71.89-.55 1.79-1.13 2.68-1.69l.07-.05c2.6-1.63 5.24-3.1 8.16-3.1 4.58 0 8.47 3.59 12.61 5.83q.48.25 1 .48l.23.11c.33.15.67.29 1 .42l.18.06.93.3.18.05c.34.08.69.15 1 .21h.23a10.15 10.15 0 001.1.07c.33 0 .64 0 1-.06a16.32 16.32 0 006.58-2.65v97.91a1.47 1.47 0 001.47 1.47h2.66a1.47 1.47 0 001.47-1.47V293.42a11.81 11.81 0 015.32-1.47 9.24 9.24 0 013 .55v102.21a1.47 1.47 0 001.47 1.47h2.66a1.47 1.47 0 001.47-1.47v-99.17c.78.52 1.55 1 2.33 1.53l.42.27c2.36 1.46 4.71 2.56 7.13 2.17 7.96-1.27 11.22-6.8 10.99-12.69z"/>
  </g>
  <path d="M169.76 151.49l-3.43-7 1.42-9.16a2.93 2.93 0 00-1.4-3l-.8-.46a2.89 2.89 0 00-3.22.18l-3.17 2.37a2.91 2.91 0 00-1.16 2.33 26.34 26.34 0 000 3.94 38 38 0 002.12 5.22l3.27 9.31z" fill="#ce7a63"/>
  <path d="M171.5 143.48h-7.57a1.21 1.21 0 01-1.2-1.16l-.73-18.61h11.49l-.75 18.61a1.22 1.22 0 01-1.24 1.16z" fill="#34a37e"/>
  <rect x="161.1" y="122.37" width="13.22" height="1.34" rx=".63" fill="#34a37e"/>
  <rect x="161.1" y="122.37" width="13.22" height="1.34" rx=".63" fill="#fff" opacity=".5"/>
  <path d="M202.77 155.31c-3.65.68-12.52 3.59-22.62 9a2.19 2.19 0 01-3.09-1.18l-7.95-15.4-8 3.59s6.54 28.75 12.42 29.73c4 .67 14.75-3.45 21.31-6.19a11.44 11.44 0 006.69-7.77l2.6-10.35a1.16 1.16 0 00-1.36-1.43z" fill="#34a37e"/>
  <path d="M202.77 155.31c-3.65.68-12.52 3.59-22.62 9a2.19 2.19 0 01-3.09-1.18l-7.95-15.4-8 3.59s6.54 28.75 12.42 29.73c4 .67 14.75-3.45 21.31-6.19a11.44 11.44 0 006.69-7.77l2.6-10.35a1.16 1.16 0 00-1.36-1.43z" fill="#fff" opacity=".5"/>
  <path d="M202.5 163.18h-3.74s-4.24 10.38-10.9 14.44c2.51-.93 4.94-1.91 7-2.76a11.44 11.44 0 006.69-7.77z" opacity=".2"/>
  <path fill="#ce7a63" d="M223.34 379.33l3.31 23.89h8.94l-1.96-25-10.29 1.11z"/>
  <path d="M222.55 399.79a3.87 3.87 0 01-2.65-.74.8.8 0 010-.93 1.1 1.1 0 01.68-.49c1.52-.39 4.64 1.47 4.78 1.56a.23.23 0 01.1.22.21.21 0 01-.18.17 16.08 16.08 0 01-2.73.21zm-1.41-1.79a1.44 1.44 0 00-.41.05.58.58 0 00-.42.29c-.17.26-.11.39-.05.47.4.59 2.69.65 4.37.47a10.05 10.05 0 00-3.49-1.28z" fill="#34a37e"/>
  <path d="M225.29 399.58a.14.14 0 01-.09 0c-1.07-.5-3.21-2.5-3-3.51 0-.25.22-.54.81-.59a1.55 1.55 0 011.18.39c1.14 1 1.33 3.41 1.34 3.52a.19.19 0 01-.1.19.17.17 0 01-.14 0zm-2.15-3.7h-.12c-.39 0-.41.18-.43.24-.07.61 1.33 2.17 2.44 2.85a5.05 5.05 0 00-1.15-2.79 1.12 1.12 0 00-.74-.28z" fill="#34a37e"/>
  <path d="M226.27 398.33l9.87.18a.81.81 0 01.77.64l1.63 8.06a1.32 1.32 0 01-1 1.57 1.27 1.27 0 01-.28 0c-3.55-.13-6.72-.38-11.15-.46-5.23-.09-3.91.56-10.06.54-3.71 0-4.31-4.25-2.73-4.42 7.2-.78 8-2.94 10.81-5.46a3.23 3.23 0 012.14-.65z" fill="#263238"/>
  <path opacity=".2" d="M234.83 393.45l-.99-12.65-10.5-1.47 2.01 14.5 9.48-.38z"/>
  <path fill="#ce7a63" d="M182.45 379.33l2.32 23.89h8.95v-25l-11.27 1.11z"/>
  <path d="M180.68 399.79c-1.12 0-2.28-.25-2.64-.74a.8.8 0 010-.93 1.1 1.1 0 01.68-.49c1.52-.39 4.64 1.47 4.78 1.56a.2.2 0 01.1.22.21.21 0 01-.18.17 16 16 0 01-2.74.21zm-1.4-1.79a1.4 1.4 0 00-.41.05.6.6 0 00-.43.29c-.16.26-.11.39-.05.47.41.59 2.69.65 4.38.47a10.2 10.2 0 00-3.49-1.28z" fill="#34a37e"/>
  <path d="M183.42 399.58a.14.14 0 01-.09 0c-1.07-.5-3.21-2.5-3-3.51 0-.25.22-.54.81-.59a1.58 1.58 0 011.19.39c1.13 1 1.33 3.41 1.34 3.52a.23.23 0 01-.1.19.2.2 0 01-.15 0zm-2.14-3.7h-.13c-.38 0-.41.18-.43.24-.06.61 1.33 2.17 2.44 2.85a5.05 5.05 0 00-1.15-2.79 1.09 1.09 0 00-.73-.28z" fill="#34a37e"/>
  <path d="M184.4 398.33l9.87.18a.8.8 0 01.77.64l1.64 8.06a1.33 1.33 0 01-1 1.57h-.28c-3.56-.13-6.72-.38-11.15-.46-5.23-.09-3.92.56-10.07.54-3.7 0-4.3-4.25-2.73-4.42 7.21-.78 8-2.94 10.81-5.46a3.23 3.23 0 012.14-.65z" fill="#263238"/>
  <path opacity=".2" d="M193.72 393.23v-10.02L183 385.02l.87 8.94 9.85-.73z"/>
  <path d="M187.24 229.12s-7.19 29.08-8.82 84 3.58 78.7 3.58 78.7l14.38-1.63s2-48.52 2-64.69c0-3.27.65-13.07.65-13.07s3.41-36.5 8.82-47.37c3.92-7.88 8.78-10.44 7.17-34.46z" fill="#34a37e"/>
  <path d="M187.24 229.12s-7.19 29.08-8.82 84 3.58 78.7 3.58 78.7l14.38-1.63s2-48.52 2-64.69c0-3.27.65-13.07.65-13.07s3.41-36.5 8.82-47.37c3.92-7.88 8.78-10.44 7.17-34.46z" opacity=".2"/>
  <path d="M212 257.46l.19-3.1-7-1.47s-4.09 20.63-3.76 39.47c1.53-10.37 3.71-21.95 6.37-27.31 1.42-2.8 2.93-4.93 4.2-7.59z" opacity=".2"/>
  <path d="M202.27 232.39s-.39 6 .87 21c.28 3.3 2.63 10.77 3.1 14.51 1.87 14.83 2.07 32.65 4.52 50.13 5.88 41.82 11.11 72.2 11.11 72.2l15.68-1s-2.36-39.46-3.72-52.89c-.53-5.25-1.83-20.95-1.83-20.95S229.3 279 230.69 267c1-8.6 5.23-12.41 1.64-34.63l-30.06-3.27z" fill="#34a37e"/>
  <path d="M202.27 232.39s-.39 6 .87 21c.28 3.3 2.63 10.77 3.1 14.51 1.87 14.83 2.07 32.65 4.52 50.13 5.88 41.82 11.11 72.2 11.11 72.2l15.68-1s-2.36-39.46-3.72-52.89c-.53-5.25-1.83-20.95-1.83-20.95S229.3 279 230.69 267c1-8.6 5.23-12.41 1.64-34.63l-30.06-3.27z" opacity=".2"/>
  <path d="M187.57 228.47s-10.11-5.81 1.63-36.84c7-18.58 9.59-28.16 10.53-32.78a5 5 0 014.82-4c7.31-.15 22.72.53 36.6 7.74a5.3 5.3 0 012.85 4.91c-.4 9.36-2.35 37.17-11.65 65.62z" fill="#34a37e"/>
  <path d="M187.57 228.47s-10.11-5.81 1.63-36.84c7-18.58 9.59-28.16 10.53-32.78a5 5 0 014.82-4c7.31-.15 22.72.53 36.6 7.74a5.3 5.3 0 012.85 4.91c-.4 9.36-2.35 37.17-11.65 65.62z" fill="#fff" opacity=".5"/>
  <path d="M216.56 163.49a1.25 1.25 0 11-1.25-1.25 1.25 1.25 0 011.25 1.25z" fill="#fff"/>
  <circle cx="209.8" cy="178.42" r="1.25" fill="#fff"/>
  <path d="M204.64 196a1.25 1.25 0 11-1.25-1.25 1.25 1.25 0 011.25 1.25zm-1.96 17.49a1.25 1.25 0 11-1.25-1.25 1.25 1.25 0 011.25 1.25z" fill="#fff"/>
  <path fill="#34a37e" d="M180.22 387.7l.98 4.65 16.29-1.59.37-5.08-17.64 2.02zm39.98-.35l.98 4.66 17.42-1.05v-4.94l-18.4 1.33z"/>
  <path d="M214.47 153.21l2.09 4.61 2.86 1 10.82-3.08c-2.57-3 .62-9.06 1.64-14.17.39-1.91-4.2-3.37-5.68-2.38l-8.82 5.05c.62 3.65.41 6.98-2.91 8.97z" fill="#ce7a63"/>
  <path d="M222.8 151a15.54 15.54 0 005.49-2.45 36.47 36.47 0 01.78-7c.38-1.91-1.39-3.37-2.87-2.38l-8.82 5.05c.45 2.64.46 5.09-.8 7a15.17 15.17 0 006.22-.22z" style="isolation:isolate" opacity=".2"/>
  <path d="M237.22 133c-2.06 7.67-2.89 12.28-8.11 15.37-7.85 4.68-17.94-1-18.46-9.26-.47-7.37 3-18.68 12.23-20s16.44 6.23 14.34 13.89z" fill="#ce7a63"/>
  <path d="M222.79 130.49c-.26.64-.83 1-1.25.84s-.55-.85-.27-1.49.83-1 1.26-.84.54.85.26 1.49zm-7.56-1.44c-.28.65-.83 1-1.26.85s-.54-.85-.26-1.5.83-1 1.25-.84.55.87.27 1.49zm11-.14a.4.4 0 01-.31-.29 3.24 3.24 0 00-1.89-2.3.41.41 0 01-.26-.52.4.4 0 01.52-.26 4.12 4.12 0 012.42 2.87.41.41 0 01-.29.5zM213.29 125a.4.4 0 01-.3-.49.38.38 0 01.13-.22 4.11 4.11 0 013.62-1 .4.4 0 01.29.5.41.41 0 01-.5.28 3.31 3.31 0 00-2.87.81.37.37 0 01-.37.12z" fill="#263238"/>
  <path d="M216.73 130.24a21.28 21.28 0 01-4.41 3.9 3.45 3.45 0 002.53 1.46z" fill="#ba4d3c"/>
  <path d="M213.07 137.77s3-.35 11 .34c-1.19 2.11-3.17 3.74-7.31 3.36s-3.69-3.7-3.69-3.7z" fill="#263238"/>
  <path d="M218.9 139.92a8.29 8.29 0 00-4.63.66 4.59 4.59 0 002.51.88 8.23 8.23 0 004.62-.67 4.6 4.6 0 00-2.5-.87z" fill="#ff5652"/>
  <path d="M213.45 137.74a1.53 1.53 0 001.13 1.2 48.07 48.07 0 007.2.06 2.38 2.38 0 001.95-.92 75.11 75.11 0 00-10.28-.34z" fill="#fff"/>
  <path fill="#34a37e" d="M214.68 153l3.27 4.08 12.74-1.79 4.31 4.7-13.78 4.61-3.76-5.07-6.04 3.11-1.8-7.64 5.06-2z"/>
  <path opacity=".2" d="M214.68 153l3.27 4.08 12.74-1.79 4.31 4.7-13.78 4.61-3.76-5.07-6.04 3.11-1.8-7.64 5.06-2z"/>
  <path d="M187.67 226.79c3.69 0 18.07.3 44.41 4.05a1.16 1.16 0 011 .93l.46 2.45a.91.91 0 01-1 1.08 417.62 417.62 0 00-45.26-4.12 1.16 1.16 0 01-1.11-1.39l.4-2.06a1.17 1.17 0 011.1-.94z" fill="#263238"/>
  <path d="M221.22 234.18v-5.32a.65.65 0 00-.62-.65l-.91-.06a.66.66 0 00-.7.66v5.32a.62.62 0 00.59.62h1a.61.61 0 00.64-.57z" fill="#263238"/>
  <path d="M221.22 234.18v-5.32a.65.65 0 00-.62-.65l-.91-.06a.66.66 0 00-.7.66v5.32a.62.62 0 00.59.62h1a.61.61 0 00.64-.57z" fill="#fff" opacity=".2"/>
  <path d="M188.18 231.51l.75-5a.68.68 0 01.72-.58l.81.05a.67.67 0 01.63.78l-.74 5a.61.61 0 01-.67.52l-1-.1a.61.61 0 01-.5-.67z" fill="#263238"/>
  <path d="M188.18 231.51l.75-5a.68.68 0 01.72-.58l.81.05a.67.67 0 01.63.78l-.74 5a.61.61 0 01-.67.52l-1-.1a.61.61 0 01-.5-.67z" fill="#fff" opacity=".2"/>
  <path d="M196.81 232.36c3 .21 6.39.47 9.25.71v-5.74c-3.27-.3-6.22-.53-8.86-.72z" fill="#fff"/>
  <path d="M242.09 175.71h-2.34a110.2 110.2 0 00.9 22.84c1.31-7.87 2.12-14.91 2.62-20.53z" opacity=".3"/>
  <path d="M223.67 212.79l-5.66.81-2.92-4.12a3 3 0 00-2.45-1.27h-1.32a3 3 0 00-2.58 1.46 3 3 0 00-.06 3l2.61 4.7a3 3 0 001.85 1.45l4.49 1.21a3.47 3.47 0 00.78.1h7.38z" fill="#ce7a63"/>
  <path d="M244.11 163.94c3.75 4 12.93 16.43 11.57 42.1a12.87 12.87 0 01-7.4 11 48.35 48.35 0 01-25.71 3.77l-1.35-8.62 18.62-6.66a4.6 4.6 0 003-5c-.48-3.34-1.14-8-1.42-10-.91-6.4-3.58-13.87.45-26.16a1.33 1.33 0 012.24-.43z" fill="#34a37e"/>
  <path d="M244.11 163.94c3.75 4 12.93 16.43 11.57 42.1a12.87 12.87 0 01-7.4 11 48.35 48.35 0 01-25.71 3.77l-1.35-8.62 18.62-6.66a4.6 4.6 0 003-5c-.48-3.34-1.14-8-1.42-10-.91-6.4-3.58-13.87.45-26.16a1.33 1.33 0 012.24-.43z" fill="#fff" opacity=".5"/>
  <path d="M234.46 139.08s-2.23-4.9-.87-9.35a8 8 0 00-1.94-7.65s-10 1.55-14.44-2.18a1.74 1.74 0 011.68-3h.07a3.21 3.21 0 014.65-.8s3.2-2.17 5.26.61c0 0 3.26-.58 4.72 2.13a5.13 5.13 0 013.58 3.86 5 5 0 012.23 3.89s1.83 3.58 0 5.81c0 0 1.25 3.12-1.41 4.71 0 0-.49 3.65-2.16 3.54a1.34 1.34 0 01-1.37-1.57z" fill="#263238"/>
  <path d="M237.49 140.72a6.56 6.56 0 01-4.29 2c-2.06.05-2.26-2.06-1-3.93 1.11-1.64 3.5-3.65 5.22-2.83s1.58 3.23.07 4.76z" fill="#ce7a63"/>
  <path d="M275 339.37c0 3-12.36 8.57-27.61 8.57s-27.61-5.55-27.61-8.57 12.36-5.47 27.61-5.47 27.61 2.45 27.61 5.47z" fill="#263238"/>
  <ellipse cx="247.39" cy="339.37" rx="27.61" ry="5.47" fill="#fff" opacity=".2"/>
  <path d="M201.19 418a3 3 0 01-2.25-3.6l24-103.93a3 3 0 013.6-2.25 3 3 0 012.25 3.6l-24 103.93a3 3 0 01-3.6 2.25zm92.4 0a3 3 0 002.25-3.6l-24-103.93a3 3 0 00-3.6-2.25 3 3 0 00-2.25 3.6l24 103.93a3 3 0 003.6 2.25z" fill="#263238"/>
  <path d="M282.28 300.66c-17.17 21.16-52.61 21.16-69.78 0-4.65-5.73-16.13-24.73-16.13-24.73 0-5.58 22.84-10.1 51-10.1s51 4.52 51 10.1c.04 0-11.44 19-16.09 24.73z" fill="#263238"/>
  <ellipse cx="247.39" cy="275.93" rx="51.02" ry="10.1" fill="#263238"/>
  <ellipse cx="247.39" cy="275.93" rx="51.02" ry="10.1" fill="#fff" opacity=".2"/>
  <ellipse cx="247.39" cy="278.99" rx="48.65" ry="7.05" fill="#263238"/>
  <ellipse cx="247.39" cy="278.99" rx="48.65" ry="7.05" fill="#fff" opacity=".5"/>
  <path d="M233.88 272.3q-1.5.07-3 .18l-15.76 11.28 2.25.34zm14.38-.36h-2.72L227 285.2l2.45.19zm-7.04.06c-.95 0-1.9.05-2.83.09L221 284.57l2.35.27zm24.24.59L246.69 286h2.72l18.49-13.23zm-39.29.26l-3.16.31-13.36 9.57c.69.15 1.4.29 2.12.43zm-24.47 7.58l6.93-5q-2.38.55-4.35 1.17l-4.28 3.09c.53.25 1.09.5 1.7.74zm16.21-6.63c-1.19.16-2.35.34-3.46.53l-9.9 7.09c.61.19 1.27.37 1.94.55zm43.68-1.47l-2.53-.13-19.16 13.72 2.63.07zm28.76 4.26c-.61-.19-1.26-.37-1.94-.56l-11.33 8.11c1.2-.17 2.36-.34 3.48-.53zm4.51 1.74c-.51-.25-1.07-.5-1.67-.75l-6.79 4.86c1.62-.38 3.08-.78 4.41-1.2zm-9.6-3.06a79 79 0 00-2.12-.43l-14.33 10.26c1.07-.1 2.13-.2 3.16-.32zM274 273.42c-.76-.1-1.55-.19-2.34-.27L253.73 286l2.84-.09zm-18.95-1.37c-.87 0-1.75-.05-2.63-.06l-19.07 13.65 2.54.13zm24.71 2.18l-2.23-.34-16.45 11.77c1-.05 2-.11 3-.18zm-31.4 145.96a3 3 0 01-3-3V310.53a3 3 0 013-3 3 3 0 013 3v106.66a3 3 0 01-3 3z" fill="#263238"/>
  <path d="M245.18 276.54c0-1.94-7.73-3.5-17.26-3.5-3.56 0-5.87 1.22-8.62 1.59-4.61.63-8.64.7-8.64 1.91v3c0 1.93 7.72 3.5 17.26 3.5s17.26-1.57 17.26-3.5z" fill="#34a37e"/>
  <path d="M245.18 276.54c0-1.94-7.73-3.5-17.26-3.5-3.56 0-5.87 1.22-8.62 1.59-4.61.63-8.64.7-8.64 1.91v3c0 1.93 7.72 3.5 17.26 3.5s17.26-1.57 17.26-3.5z" opacity=".2"/>
  <path d="M245.18 276.54c0 1.93-7.73 3.5-17.26 3.5s-17.26-1.57-17.26-3.5c0-1.21 4-1.28 8.64-1.91 2.75-.37 5.06-1.59 8.62-1.59 9.53-.04 17.26 1.56 17.26 3.5z" fill="#34a37e"/>
  <path d="M233.18 276.16c0 .49-1.44.88-3.22.88s-3.22-.39-3.22-.88 1.44-.87 3.22-.87 3.22.39 3.22.87z" fill="#fff"/>
  <path d="M253.31 277.4c0-1.72 6.9-3.12 15.41-3.12 3.18 0 5.24 1.09 7.69 1.42 4.11.56 7.71.62 7.71 1.7v2.67c0 1.73-6.89 3.13-15.4 3.13s-15.41-1.4-15.41-3.13z" fill="#34a37e"/>
  <path d="M253.31 277.4c0-1.72 6.9-3.12 15.41-3.12 3.18 0 5.24 1.09 7.69 1.42 4.11.56 7.71.62 7.71 1.7v2.67c0 1.73-6.89 3.13-15.4 3.13s-15.41-1.4-15.41-3.13z" opacity=".2"/>
  <path d="M253.31 277.4c0 1.73 6.9 3.12 15.41 3.12s15.4-1.39 15.4-3.12c0-1.08-3.6-1.14-7.71-1.7-2.45-.33-4.51-1.42-7.69-1.42-8.51 0-15.41 1.4-15.41 3.12z" fill="#34a37e"/>
  <path d="M264 277.07c0 .43 1.29.78 2.87.78s2.88-.35 2.88-.78-1.29-.78-2.88-.78-2.87.35-2.87.78z" fill="#fff"/>
  <path d="M245.21 271l12.56-8.06a.8.8 0 011.1.21.81.81 0 01-.14 1.11l-11.59 9.4.2.28 12.56-9.09a2 2 0 00.8-1.83l21.15-15.3-1.13-1.56-21.15 15.29a2 2 0 00-2 .19L245 270.7z" fill="#34a37e"/>
  <path d="M245.21 271l12.56-8.06a.8.8 0 011.1.21.81.81 0 01-.14 1.11l-11.59 9.4.2.28 12.56-9.09a2 2 0 00.8-1.83l21.15-15.3-1.13-1.56-21.15 15.29a2 2 0 00-2 .19L245 270.7z" fill="#fff" opacity=".5"/>
  <path d="M294 236.49l1.18 1.63a1.85 1.85 0 01-.49 2.64l-13.62 9a1.44 1.44 0 01-1.95-.36l-.83-1.14a1.43 1.43 0 01.27-2l12.78-10.14a1.86 1.86 0 012.66.37zm95.06.6l-1.41 1.59c3.8 11.4.16 18.41.16 18.41l2.69 1.22c1.65-4.28-.95-17.83-.95-17.83s4 15.61 6.49 9.44-6.98-12.83-6.98-12.83zm5.58 10c-.48 2.49-3.51-6.3-3.51-6.3s3.98 3.82 3.51 6.32z" fill="#34a37e"/>
  <path d="M389.06 237.09l-1.41 1.59c3.8 11.4.16 18.41.16 18.41l2.69 1.22c1.65-4.28-.95-17.83-.95-17.83s4 15.61 6.49 9.44-6.98-12.83-6.98-12.83zm5.58 10c-.48 2.49-3.51-6.3-3.51-6.3s3.98 3.82 3.51 6.32z" fill="#fff" opacity=".5"/>
  <path d="M321.3 187.05l-3.08 14.48-20.9 26.84-10.15 6.23a3.68 3.68 0 00-1.5 4.48l.63 1.58a3.67 3.67 0 004.21 2.24l5.88-1.3a3.66 3.66 0 002.56-2.11l3.49-7.91s18.86-16.86 24.09-25.53a83.93 83.93 0 007.36-15.12z" fill="#ebb376"/>
  <path d="M326.51 172.41s-5.81-.67-12.94 33.21l14.25 4.55s7.13-12.47 7.6-21.26-8.91-16.5-8.91-16.5z" fill="#34a37e"/>
  <path d="M326.51 172.41s-5.81-.67-12.94 33.21l14.25 4.55s7.13-12.47 7.6-21.26-8.91-16.5-8.91-16.5z" fill="#fff" opacity=".5"/>
  <path d="M328.11 179.89v1.46c-.55-1.12 3.09 12.61 1.71 25 1.95-4.33 5.35-12.71 5.6-17.42a16.57 16.57 0 00-2.89-9.53l-2.49-2z" opacity=".1"/>
  <path d="M337.93 326.55l6.89 79 8 .3s5.23-44.16.76-68.77l.75-11.62zm34.2-3.09l12.35 82.42h8.16s1.1-53.92-4.12-71.57l-.95-14.38z" fill="#ebb376"/>
  <path d="M344.58 241.53s-8.55 57.79-7.83 89.93h19.16s2.69-33.79 6.72-46.66 9.2-28.5 7.57-44.32z" fill="#263238"/>
  <path d="M369.33 259.6l-2.44-4.3-4.26 2.14s-3.77 13.74-2.69 39.76a99.24 99.24 0 012.69-12.4c2.37-7.61 5.16-16.19 6.7-25.2z" opacity=".1"/>
  <path fill="#34a37e" d="M335.56 328.29l.32 6.02h20.9l.57-6.02h-21.79z"/>
  <path fill="#fff" opacity=".5" d="M335.56 328.29l.32 6.02h20.9l.57-6.02h-21.79z"/>
  <path d="M360.1 245s5.07 48.77 11.72 86.45l18.68-2.85s-2.22-44.65-1.9-56.84.95-26.13-1-33.09l-27.55 2.85z" fill="#263238"/>
  <path fill="#34a37e" d="M370.17 328.29l1.13 6.02 20.44-3.4-.06-6.09-21.51 3.47z"/>
  <path fill="#fff" opacity=".5" d="M370.17 328.29l1.13 6.02 20.44-3.4-.06-6.09-21.51 3.47z"/>
  <path d="M341.36 404.49a3.59 3.59 0 01-2.47-.69.74.74 0 010-.87 1 1 0 01.64-.46c1.42-.36 4.34 1.38 4.47 1.46a.19.19 0 01.09.21.2.2 0 01-.16.16 15.1 15.1 0 01-2.57.19zm-1.31-1.67a1.29 1.29 0 00-.39 0 .56.56 0 00-.39.28c-.16.24-.11.36 0 .43.38.56 2.52.61 4.09.45a9.3 9.3 0 00-3.31-1.16z" fill="#34a37e"/>
  <path d="M343.93 404.29h-.09c-1-.47-3-2.34-2.8-3.29 0-.23.2-.51.75-.55a1.44 1.44 0 011.11.36c1.07.9 1.25 3.19 1.26 3.3a.21.21 0 01-.09.18.17.17 0 01-.14 0zm-2-3.46h-.11c-.37 0-.39.16-.41.22-.06.57 1.25 2 2.29 2.67a4.77 4.77 0 00-1.08-2.62 1 1 0 00-.69-.26z" fill="#34a37e"/>
  <path d="M344.85 403.13l9.24.17a.73.73 0 01.71.59l1.54 7.55a1.24 1.24 0 01-1 1.47.74.74 0 01-.26 0c-3.33-.11-6.29-.35-10.44-.42-4.89-.09-3.66.52-9.42.5-3.47 0-4-4-2.56-4.14 6.75-.73 7.49-2.74 10.13-5.11a3 3 0 012.06-.61z" fill="#263238"/>
  <path d="M380.55 404.49a3.62 3.62 0 01-2.48-.69.75.75 0 010-.87 1 1 0 01.64-.46c1.42-.36 4.34 1.38 4.47 1.46a.19.19 0 01.09.21.22.22 0 01-.16.16 15.1 15.1 0 01-2.56.19zm-1.31-1.67a1.29 1.29 0 00-.39 0 .58.58 0 00-.4.28c-.15.24-.1.36-.05.43.39.56 2.52.61 4.1.45a9.3 9.3 0 00-3.26-1.16z" fill="#34a37e"/>
  <path d="M383.12 404.29H383c-1-.47-3-2.34-2.81-3.29 0-.23.21-.51.76-.55a1.45 1.45 0 011.11.36c1.06.9 1.25 3.19 1.26 3.3a.22.22 0 01-.1.18.15.15 0 01-.1 0zm-2-3.46H381c-.36 0-.38.16-.4.22-.06.57 1.24 2 2.28 2.67a4.76 4.76 0 00-1.07-2.62 1 1 0 00-.69-.26z" fill="#34a37e"/>
  <path d="M384 403.13l9.25.17a.74.74 0 01.71.59l1.54 7.55a1.24 1.24 0 01-1 1.47.76.76 0 01-.26 0c-3.33-.11-6.29-.35-10.44-.42-4.9-.09-3.66.52-9.42.5-3.47 0-4-4-2.56-4.14 6.75-.73 7.48-2.74 10.12-5.11a3 3 0 012.06-.61z" fill="#263238"/>
  <path d="M322.73 176s20.67 31.58 19.95 68.16c0 0 16.15 5.27 46.87-3.66 0 0-7.12-53.34-20.22-72.82 0-.02-28.55-11.42-46.6 8.32z" fill="#34a37e"/>
  <path d="M322.73 176s20.67 31.58 19.95 68.16c0 0 16.15 5.27 46.87-3.66 0 0-7.12-53.34-20.22-72.82 0-.02-28.55-11.42-46.6 8.32z" fill="#fff" opacity=".5"/>
  <path d="M374.44 177.52l-5.11-2.73-4.8 5.83s1.72 12.49 17.67 21.47a173.45 173.45 0 00-7.76-24.57z" opacity=".1"/>
  <path d="M340.19 176.21c7.81-.39 8.51-8 8.37-11.77a39 39 0 00-15.68 3.88c-.41 3.09 0 8.26 7.31 7.89z" fill="#ebb376"/>
  <path d="M334.13 174.09l2.87 1.81h4.4l4.56-2.46 2.07-5c-4.06-3.9-5.9-13.21-6.56-18.78l-3.47 5.81-4.66 7.88a24.35 24.35 0 011.38 2.5c1.28 2.76 1.73 5.6-.59 8.24z" fill="#ebb376"/>
  <path d="M335.35 181.57l4.71-4.79 9.53 1.66s3.75-7.92.63-14.6a1.09 1.09 0 00-1.36-.57l-1.08.39a1.1 1.1 0 00-.69 1.14c.91 9.58-7.19 10.51-7.19 10.51-7.44-.9-6.24-5.8-5.49-7.67a.36.36 0 00-.45-.47l-1.47.49a.34.34 0 00-.22.2c-.46 1.2-3.15 9.92 3.08 13.71z" fill="#34a37e"/>
  <path d="M338 155.47l-4.66 7.88a24.35 24.35 0 011.38 2.5c.16.34.31.69.44 1 7-2 7.19-9.54 7-12.69-.3-1.63-.53-3.18-.69-4.51z" opacity=".1"/>
  <path d="M340.43 142c1.52 8.12 2.83 12.78-.13 18a10.73 10.73 0 01-19-.36c-3.51-6.67-5.41-18.83 1.52-24.24a10.86 10.86 0 0117.61 6.6z" fill="#ebb376"/>
  <path d="M329 147.7c.17.64 0 1.27-.47 1.35s-.89-.3-1.06-1 0-1.28.48-1.36.9.36 1.05 1.01zm-7.25 2.1c.17.65 0 1.26-.48 1.36s-.89-.31-1.07-1 .05-1.27.49-1.36.89.34 1.06 1z" fill="#2e353a"/>
  <path d="M324.14 149.46a25.54 25.54 0 01-1.66 6.44c1.4.75 3.22-.28 3.22-.28z" fill="#d58745"/>
  <path d="M328.75 156.58a5.7 5.7 0 003.16-3.21.19.19 0 00-.11-.25.2.2 0 00-.26.11 5.44 5.44 0 01-3.64 3.21.2.2 0 00-.18.22.2.2 0 00.21.18h.08a6.44 6.44 0 00.74-.26z" fill="#2e353a"/>
  <path d="M331.54 157.73a5.7 5.7 0 00.52-4.49.2.2 0 00-.25-.12.18.18 0 00-.12.23 5.56 5.56 0 01-.88 4.79.19.19 0 000 .27.18.18 0 00.27 0 5.12 5.12 0 00.46-.68zm-.88-13.06a.36.36 0 00.18-.07.4.4 0 000-.55 3.82 3.82 0 00-3.5-.74.39.39 0 00-.24.49.38.38 0 00.49.24 3 3 0 012.73.57.35.35 0 00.34.06zM318 148.18a.38.38 0 00.23-.29 3.28 3.28 0 011.71-2.35.4.4 0 00-.32-.72 4.07 4.07 0 00-2.15 2.91.39.39 0 00.3.46.33.33 0 00.23-.01z" fill="#2e353a"/>
  <path d="M340 148.82s-2.49.22-4.51-5.67-5.71-2.21-8-6.24c0 0-13 12.39-15.73 6.24-2.14-4.74 5.19-6.72 5.19-6.72s-3.05-1.19-1.15-4.27c2.34-3.81 7.41-.95 7.41-.95s-.66-3.33 2.56-3.21a10.49 10.49 0 014.49 1.08 8.45 8.45 0 004 1c3.9-.06 11.22 1.86 8.83 17.8z" fill="#263238"/>
  <path d="M345.13 147.87a7.31 7.31 0 01-2.19 4.87c-1.75 1.67-3.65.32-4-2-.33-2.07.18-5.42 2.35-6.21s3.94 1.06 3.84 3.34z" fill="#ebb376"/>
  <path d="M333.72 185.85l25.07-5.75 16.51 22 7.14 28.78 8.06 5v2.85l-7.56 5.22S375.57 274 377.42 305s-43.51 9.85-43.51 9.85 9.69-66 8.16-76.2c0 0 0-20.26-8.71-39.9z" fill="#34a37e"/>
  <path d="M333.72 185.85l25.07-5.75 16.51 22 7.14 28.78 8.06 5v2.85l-7.56 5.22S375.57 274 377.42 305s-43.51 9.85-43.51 9.85 9.69-66 8.16-76.2c0 0 0-20.26-8.71-39.9z" opacity=".2"/>
  <path d="M358.72 181.57s-3.27-8.92.7-15.6a1.24 1.24 0 00-.87-1.84l-1-.16a1.24 1.24 0 00-1.23.55c-1 1.59-3 6.31-.16 17zm-21.85 4.62s-7.15-5.29-7.76-14.47a.83.83 0 00-1.26-.66l-.83.5a.84.84 0 00-.41.78c.16 1.76 1.25 7.79 8.71 15.15z" fill="#34a37e"/>
  <path d="M346.11 238.68l23.49-3.17s3.48 17.41-12.35 17.25-11.14-14.08-11.14-14.08z" fill="#fff" opacity=".5"/>
  <path d="M388.52 184.53s13.78 10.92 11.64 16.15c-2 4.85-17.29 22-19.46 24.41a1.73 1.73 0 01-.6.44l-11.43 5.18a1.83 1.83 0 01-1.6-.05l-4-2.1a1.84 1.84 0 01-.09-3.21l6.38-3.77 8.09-.48 10.63-20.9-10.63-6.89z" fill="#ebb376"/>
  <path d="M384 218.65c.09.95-9.49 5.51-21.74 6.7s-22.52-1.45-22.62-2.39 9.77-2.68 22-3.86 22.24-1.39 22.36-.45z" fill="#34a37e"/>
  <path d="M384 218.65c.09.95-9.49 5.51-21.74 6.7s-22.52-1.45-22.62-2.39 9.77-2.68 22-3.86 22.24-1.39 22.36-.45z" fill="#fff" opacity=".8"/>
  <path d="M384 218.65c.09.95-9.77 2.68-22 3.87s-22.25 1.38-22.35.44 9.77-2.68 22-3.86 22.23-1.39 22.35-.45z" fill="#263238" opacity=".3"/>
  <path d="M373.49 216.7c-.1-1.5-6.21-2.32-13.65-1.82-2.78.19-4.52 1.27-6.64 1.7-3.57.74-6.71 1-6.65 1.95 0 .52.13 1.86.16 2.33.1 1.51 6.22 2.33 13.65 1.82s13.39-2.13 13.29-3.64c-.03-.42-.13-1.92-.16-2.34z" fill="#34a37e"/>
  <path d="M373.49 216.7c-.1-1.5-6.21-2.32-13.65-1.82-2.78.19-4.52 1.27-6.64 1.7-3.57.74-6.71 1-6.65 1.95 0 .52.13 1.86.16 2.33.1 1.51 6.22 2.33 13.65 1.82s13.39-2.13 13.29-3.64c-.03-.42-.13-1.92-.16-2.34z" opacity=".2"/>
  <path d="M373.49 216.7c.1 1.51-5.84 3.14-13.28 3.65s-13.55-.31-13.66-1.82c-.06-.95 3.08-1.21 6.65-1.95 2.12-.43 3.86-1.51 6.64-1.7 7.44-.5 13.55.32 13.65 1.82z" fill="#34a37e"/>
  <path d="M364.11 217.05c0 .37-1.08.75-2.47.85s-2.53-.14-2.55-.51 1.07-.76 2.46-.86 2.53.14 2.56.52z" fill="#fff"/>
  <path d="M362.41 170.25c-1.75 5.64-1.08 16.48 20.89 28.53l9.7-11.88s-13-16.61-24.09-20.1a5.23 5.23 0 00-6.5 3.45z" fill="#34a37e"/>
  <path d="M362.41 170.25c-1.75 5.64-1.08 16.48 20.89 28.53l9.7-11.88s-13-16.61-24.09-20.1a5.23 5.23 0 00-6.5 3.45z" fill="#fff" opacity=".5"/>
  <path d="M111 160.71c-4-5.44-1.67-9.73-4.18-13.12s-13.45-8-19.54 0c0 0-6.77 3.7-4.63 15.33s-3 12.1 1.47 17.17c3.91 4.39 13.91-.92 21.13-1.89a3.65 3.65 0 001.79-.74 15.78 15.78 0 003.93-4.37 7.23 7.23 0 01-2.46 5c6.95.7 6.49-11.97 2.49-17.38z" fill="#263238"/>
  <path d="M125.05 156.77a30.51 30.51 0 00-.57 6c0 7 2.15 9.32 4.8 9.32s4.8-2.32 4.8-9.32a29.77 29.77 0 00-.57-6z" fill="#34a37e"/>
  <path d="M125.05 156.77a30.51 30.51 0 00-.57 6c0 7 2.15 9.32 4.8 9.32s4.8-2.32 4.8-9.32a29.77 29.77 0 00-.57-6z" fill="#fff" opacity=".5"/>
  <path d="M132.82 156.77h-7.07c-.16 2.13-.24 5.12-.24 6.34 0 5.5 1.69 7.33 3.77 7.33s3.78-1.83 3.78-7.33c0-1.22-.06-4.21-.24-6.34z" fill="#fff" opacity=".5"/>
  <path d="M125.51 163.11c0 5.5 1.69 7.33 3.77 7.33s3.78-1.83 3.78-7.33v-.85h-7.53c-.02.33-.02.63-.02.85z" fill="#34a37e"/>
  <path fill="#eec1bb" d="M70.33 231.98l-6.92 21.05-1.95 10.23 2.41 4.67 6.46-3.01-1.35-12.64 7.67-18.05-6.32-2.25zm66.56-48.06l-5.24-8.09a1.31 1.31 0 01-.21-.57l-.84-6.69a1.23 1.23 0 010-.43l1.15-5.93a1.36 1.36 0 012.08-.88l4.84 3.13a1.52 1.52 0 01.54 1.95l-3.58 7.36 9.14 10.15z"/>
  <path d="M145 176.47s11 20.76 1.35 24.15-27.08-4.52-27.08-4.52-4.06-9.4-1.12-15.42l20.08 9.11-6.1-7.45z" fill="#34a37e"/>
  <path d="M145 176.47s11 20.76 1.35 24.15-27.08-4.52-27.08-4.52-4.06-9.4-1.12-15.42l20.08 9.11-6.1-7.45z" opacity=".2"/>
  <path d="M119.34 185.79l-1.84 2.57 1.79 7.74a75.86 75.86 0 0012.39 4.17 36.48 36.48 0 01-12.34-14.48z" opacity=".5"/>
  <path d="M106.43 321.32s5.1-5.94 19.82-4.66l-1.74-14.06-23.94 4.28z" fill="#263238"/>
  <path d="M109.14 264.24l.23 133.35h-7s-9.25-56.41-5.64-66.68a339.52 339.52 0 01-10.83-48.62l-1.13-20.08 2-18.95 22.57-1.13z" fill="#eec1bb"/>
  <path d="M121.78 242.13L154 397.59h-6.32s-22.56-55.28-20.53-67.92a187.23 187.23 0 01-22.79-55.5s-11.73-6.05-9-31.34z" fill="#eec1bb"/>
  <path d="M118.17 181.59s4.56 15.89 5.11 21.36c.66 6.51-.9 26.17-.9 26.17l3 24.87 10.53 53.95C110 320 92 318.17 92 318.17c-17.14-59.27-3.91-83.94-3.91-83.94L77 187.9c18.45-9.77 41.17-6.31 41.17-6.31z" fill="#34a37e"/>
  <path d="M118.17 181.59s4.56 15.89 5.11 21.36c.66 6.51-.9 26.17-.9 26.17l3 24.87 10.53 53.95C110 320 92 318.17 92 318.17c-17.14-59.27-3.91-83.94-3.91-83.94L77 187.9c18.45-9.77 41.17-6.31 41.17-6.31z" fill="#fff" opacity=".5"/>
  <path d="M165.36 403.27a12.18 12.18 0 01-7.66-5.27l-4.18-5.74-.07-3.18s-2.45-1.86-4.5-.13a11.7 11.7 0 01-4.33 2.28l.93 3.52c-1.15 1.43.79 10.24 1.89 14l1.07-.16a42.29 42.29 0 00-.21-6.89c4.58 8.33 19.19 5 19.18 3.06-.01-.76-.95-1.2-2.12-1.49zm-45.22 2.15a12.2 12.2 0 01-7-6.15l-3.46-6.19.3-3.16s-2.22-2.15-4.45-.66A11.69 11.69 0 01101 391l.52 3.61c-1.31 1.28-.42 10.25.23 14.09h1.08a42 42 0 00.6-6.86c3.56 8.81 18.47 7.19 18.68 5.3.04-.73-.84-1.29-1.97-1.72z" fill="#263238"/>
  <path d="M91.6 166.85c1.66 4.67 3.89 13.35 1 17.06a56.21 56.21 0 0013.47 5.47c4.7-5.2 1.49-7.66 1.49-7.66-5.56-.53-6-4.5-5.66-8.37z" fill="#eec1bb"/>
  <path d="M102.22 178.06a12 12 0 01-.33-4.71l-5-3.17h-3l-.89 1.48a10.83 10.83 0 009.22 6.4z" opacity=".1"/>
  <path d="M86.56 161c3.1 7.53 4.24 10.78 9.47 13.4 7.87 3.94 16.43-1.51 15.65-9.81-.71-7.47-5.65-18.52-14.21-19A11.09 11.09 0 0086.56 161z" fill="#eec1bb"/>
  <path d="M104.5 158.5a17.54 17.54 0 003.6 3.23 2.84 2.84 0 01-2.08 1.19z" fill="#d4827d"/>
  <path d="M97.54 157.07a.29.29 0 01-.16 0 .32.32 0 01-.17-.42 3.77 3.77 0 012.64-2.27.34.34 0 01.37.27.32.32 0 01-.26.37 3.15 3.15 0 00-2.16 1.89.32.32 0 01-.26.16zm11.13-3.85a.33.33 0 01-.17 0 3.15 3.15 0 00-2.85.2.33.33 0 01-.45-.07.32.32 0 01.09-.45 3.8 3.8 0 013.47-.27.31.31 0 01.19.41.3.3 0 01-.27.21zM99.73 159c.21.63.72 1 1.13.88s.57-.75.35-1.38-.72-1-1.13-.88-.56.72-.35 1.38zm7.08-2.44c.21.62.71 1 1.12.88s.57-.76.35-1.39-.71-1-1.12-.88-.57.76-.35 1.39z" fill="#263238"/>
  <path d="M107 155.27l1.36-1s-.36 1.49-1.36 1zm-7.08 2.41l1.35-.94s-.37 1.43-1.35.94z" fill="#263238"/>
  <path d="M118.17 180.68s5 12.94 6 20.27-1.1 27.27-1.1 27.27l20.09 85.53-8.16 2.91c-9-58.66-25.64-136.57-25.64-136.57z" fill="#34a37e"/>
  <path d="M118.17 180.68s5 12.94 6 20.27-1.1 27.27-1.1 27.27l20.09 85.53-8.16 2.91c-9-58.66-25.64-136.57-25.64-136.57z" opacity=".2"/>
  <path d="M115.53 209.69l-1.11-29.26-5-.34s2.48 11.78 6.11 29.6z" fill="#263238"/>
  <path d="M108 181a79.12 79.12 0 00-17.3 1.9c3.39 3.88 10.82 11.58 14.49 10.57 3.54-.96 4.17-7.95 2.81-12.47z" fill="#eec1bb"/>
  <path d="M119.23 232.69c-2 4.23-7.9 11.85-22.74 3.14a.75.75 0 01.49-1.38c4.28.66 11.51.71 20.92-3.17a1 1 0 011.33 1.41z" opacity=".1"/>
  <path d="M77 187l-6.52 36-5.56 13.24 11.28 3.86S92 212.27 77 187z" fill="#34a37e"/>
  <path d="M77 187l-6.52 36-5.56 13.24 11.28 3.86S92 212.27 77 187z" opacity=".2"/>
  <path d="M82.38 200.91l-2-1.72s1.77 17.27.83 28.12a56.31 56.31 0 001.17-26.4z" opacity=".5"/>
  <path d="M90.74 182s6.89 39.15 2.16 71.19 7.67 72.65 7.67 72.65H92s-17.82-62.73-5-93.19L77 187z" fill="#34a37e"/>
  <path d="M90.74 182s6.89 39.15 2.16 71.19 7.67 72.65 7.67 72.65H92s-17.82-62.73-5-93.19L77 187z" opacity=".2"/>
  <path d="M85.67 183.84l8.2 25.34c-1.1-15.66-3.13-27.18-3.13-27.18zm3.96-16.62s3.91-3.84 2.45-10.57l.45-1.32a6.3 6.3 0 01.51 6s5.36-6.22 1.62-10.53a4 4 0 012.54 4s5.49-3.76 1.53-6.16c0 0 3-.26 3.21 3.33 0 0 5.11.05 3.61-3s-10-7.82-16.79-1.2c0 .05-10.08 7.93.87 19.45z" fill="#263238"/>
  <path d="M86.82 167.73a5.94 5.94 0 003.85 2.41c2.06.32 2.85-1.57 2.08-3.39-.69-1.64-2.6-3.78-4.58-3.28a2.7 2.7 0 00-1.84 3.33 2.52 2.52 0 00.49.93z" fill="#eec1bb"/>
  <path d="M107.76 165.46a37.76 37.76 0 00-6.53.2c.71 1.25 1.88 2.21 4.33 2s2.2-2.2 2.2-2.2z" fill="#263238"/>
  <path d="M104.31 166.73a4.88 4.88 0 012.74.39 2.66 2.66 0 01-1.49.52 4.75 4.75 0 01-2.73-.4 2.69 2.69 0 011.48-.51z" fill="#ff5652"/>
  <path d="M107.54 165.44a.92.92 0 01-.67.71 27.67 27.67 0 01-4.27 0 1.36 1.36 0 01-1.15-.54 44.22 44.22 0 016.09-.17z" fill="#fff"/>
</svg>
