<svg xmlns="http://www.w3.org/2000/svg" viewBox="0 0 500 500">
  <path d="M80.1 454.76c-93.84-54.18-93.84-142 0-196.19s246-54.18 339.8 0 93.84 142 0 196.19-245.97 54.17-339.8 0z" fill="#f5f5f5"/>
  <g fill="#e0e0e0">
    <path d="M102.2 436.4l19.45-11.18c1.26-.72 1.26-1.9 0-2.63l-72.37-41.78a5.08 5.08 0 00-4.56 0L25.27 392c-1.26.73-1.26 1.9 0 2.63l72.37 41.77a5 5 0 004.56 0zm-36.85-76.34l-46.61-26.87a1.2 1.2 0 010-2.27l115.21-66.75a4.33 4.33 0 013.92 0L184.48 291a1.2 1.2 0 010 2.27L69.27 360.05a4.33 4.33 0 01-3.92.01zM318.15 227c10.7 6.25 10.7 16.38 0 22.62s-28 6.25-38.74 0-10.7-16.37 0-22.62 28.04-6.27 38.74 0zm155.99 121.3l-58.84 33.98-96.21-55.54 58.85-33.98 96.2 55.54z"/>
    <path d="M396.18 396.53l-160.55 92.82a2.37 2.37 0 01-2.11 0L114.89 420.8a.65.65 0 010-1.23l160.55-92.81a2.33 2.33 0 012.12 0l118.62 68.55a.65.65 0 010 1.22z"/>
  </g>
  <path fill="#fafafa" d="M464.91 206.34l-2.29 1.37-78.06-45.07 2.29-1.37 78.06 45.07z"/>
  <path fill="#fff" d="M386.85 161.27l75.77 43.74V72.32L386.85 28.6v132.67z"/>
  <path d="M380.22 165.14L467 215.21V69.82l-86.78-50.07zm4.34-137.89l78.06 45.07v135.39l-78.06-45.07z" fill="#f0f0f0"/>
  <path fill="#e0e0e0" d="M384.56 162.64l2.29-1.37V28.6l-2.29-1.35v135.39z"/>
  <path fill="#fafafa" d="M462.62 160.31v2.7l-78.06-45.07 2.29-1.37 75.77 43.74zm0-50.97v2.69l-78.06-45.06 2.29-1.37 75.77 43.74zm-82.4-89.59l2.34-1.33 86.72 50.06-2.33 1.34-86.73-50.07z"/>
  <path fill="#e0e0e0" d="M469.28 68.48l-2.33 1.34v145.39l2.33-1.34V68.48zm-40.05-15.44l-2.33-1.34v135.39l2.33-1.33V53.04z"/>
  <path fill="#f0f0f0" d="M422.57 49.21l4.33 2.49v135.39l-4.33-2.5V49.21z"/>
  <path fill="#f0f0f0" d="M380.22 64.47v4.99l86.73 50.07v-5l-86.73-50.06zm0 50.96v4.99l86.73 50.07v-4.99l-86.73-50.07z"/>
  <path fill="#fafafa" d="M426.9 91.41l2.33-1.35 33.39 19.28v2.69L426.9 91.41zm0 50.95l2.33-1.35 33.39 19.28v2.69l-35.72-20.62z"/>
  <path fill="#ebebeb" d="M119.04 126.15l-28.23-16.3-74.34 42.88v3.1l28.23 16.3 74.34-42.88v-3.1z"/>
  <path fill="#fafafa" d="M44.7 169.03l74.34-42.88-28.23-16.3-74.34 42.88 28.23 16.3z"/>
  <path fill="#e6e6e6" d="M44.7 169.03v3.1l-28.23-16.3v-3.1l28.23 16.3z"/>
  <path fill="#ebebeb" d="M99.3 82.98l16.57 9.57v31.51L99.3 114.5V82.98z"/>
  <path d="M115.33 93.08l-16-9.2a6.73 6.73 0 01-3.66 2L111.53 95a16 16 0 003.8-1.92z" fill="#fff"/>
  <path d="M110 95a3.47 3.47 0 003.08 0l2.7-1.55a.93.93 0 000-1.77L100 82.6l-.7.4 15.54 9a.56.56 0 010 1.06l-2.51 1.42a2.08 2.08 0 01-1.85 0l-15.48-9-.76.44z" fill="#fafafa"/>
  <path d="M94.19 85.92v31.51l15.8 9.06a3.41 3.41 0 003.08 0l2.7-1.54a1.11 1.11 0 00.64-.89V92.55a1.11 1.11 0 01-.64.89l-2.7 1.56a3.41 3.41 0 01-3.07 0z" fill="#e0e0e0"/>
  <path d="M111.53 95.35a3.18 3.18 0 001.54-.36l2.7-1.55a1.11 1.11 0 00.64-.89v31.51a1.11 1.11 0 01-.64.89l-2.7 1.54a3.08 3.08 0 01-1.54.37z" fill="#f0f0f0"/>
  <path fill="#ebebeb" d="M92.36 87.76l16.56 9.56-5.14 32.47-16.57-9.57 5.15-32.46z"/>
  <path d="M108.27 97.78l-16-9.21A8.73 8.73 0 0188 90.23l15.9 9.16a21.29 21.29 0 004.37-1.61z" fill="#fff"/>
  <path d="M102.2 99.27a4.37 4.37 0 003.34.15l3.15-1.29c1-.41 1.11-1.13.26-1.62l-15.81-9.07-.78.32 15.54 9c.51.29.44.73-.16 1l-2.93 1.18a2.61 2.61 0 01-2-.09l-15.53-9-.89.37z" fill="#fafafa"/>
  <path d="M86.39 90.19l-5.14 32.47 15.8 9.07a4.33 4.33 0 003.34.15l3.15-1.29c.5-.2.78-.48.82-.78l5.15-32.46c-.05.29-.33.57-.82.78l-3.15 1.29a4.32 4.32 0 01-3.34-.15z" fill="#e0e0e0"/>
  <path d="M103.81 99.68a4.23 4.23 0 001.73-.26l3.15-1.29c.49-.21.77-.49.82-.78l-5.15 32.46c0 .3-.32.58-.82.78l-3.15 1.29a4.35 4.35 0 01-1.72.26z" fill="#f0f0f0"/>
  <path d="M86.31 129.26c3.9 2.25 3.9 5.89 0 8.14a15.59 15.59 0 01-14.11 0c-3.9-2.25-3.9-5.89 0-8.14a15.59 15.59 0 0114.11 0z" opacity=".05"/>
  <path d="M72.91 134.93c-3.39-3.46-5.38-12.11-2.07-14.86h16.84c3.31 2.75 1.32 11.39-2.07 14.86l-.1.09-.11.12-.31.27-.08.06-.26.2a4.08 4.08 0 01-.44.28 11.18 11.18 0 01-10.11 0c-.15-.09-.29-.18-.44-.29a1.88 1.88 0 01-.24-.18l-.1-.07-.29-.27L73 135a.6.6 0 00-.09-.07z" fill="#f5f5f5"/>
  <path d="M86.22 118.76c3.84 2.22 3.84 5.81 0 8a15.38 15.38 0 01-13.92 0c-3.84-2.22-3.84-5.81 0-8a15.38 15.38 0 0113.92 0z" fill="#fff"/>
  <path d="M83.49 120.33c2.34 1.35 2.34 3.54 0 4.89a9.36 9.36 0 01-8.47 0c-2.33-1.35-2.33-3.54 0-4.89a9.36 9.36 0 018.47 0z" fill="#ebebeb"/>
  <path d="M75 122.65a9.36 9.36 0 018.47 0 3.91 3.91 0 011.4 1.28 3.93 3.93 0 01-1.4 1.29 9.36 9.36 0 01-8.47 0 3.93 3.93 0 01-1.4-1.29 3.91 3.91 0 011.4-1.28z" fill="#e0e0e0"/>
  <path d="M83 123.93a19.47 19.47 0 003-4.07c1.41-2.5 1.67-5.85.94-6.26s-3.7 2.93-3.7 2.93a18.53 18.53 0 00.31-4.27c-.13-2.23-.67-4.25-1.31-4.66s-2.02 2.4-2.63 4.4-1 3.71-1 3.71a31.49 31.49 0 00-1.1-4.69c-.74-2.11-1.41-2.59-1.94-2.38s-.86 1.19-1 4a28.76 28.76 0 00.13 4s-1-1.16-2.21-2.28-1.83-1.39-2.2-1.16-.46 2.15 1.52 5.73a20.05 20.05 0 003.74 4.92s2.74 1.85 7.45.08z" fill="#ebebeb"/>
  <path fill="#e0e0e0" d="M52.98 106.89l16.56 9.57v31.51l-16.56-9.57v-31.51z"/>
  <path d="M69 117l-16-9.2a6.76 6.76 0 01-3.67 2l15.9 9.16A16.23 16.23 0 0069 117z" fill="#fff"/>
  <path d="M63.67 118.89a3.41 3.41 0 003.08 0l2.7-1.55a.93.93 0 000-1.77l-15.8-9.06-.67.38 15.54 9a.56.56 0 010 1.06L66 118.34a2 2 0 01-1.85 0l-15.53-9-.76.43z" fill="#fafafa"/>
  <path d="M47.87 109.82v31.51l15.8 9.07a3.47 3.47 0 003.08 0l2.7-1.55a1.08 1.08 0 00.63-.89v-31.51a1.08 1.08 0 01-.63.89l-2.7 1.55a3.41 3.41 0 01-3.08 0z" fill="#e0e0e0"/>
  <path d="M65.21 119.26a3.25 3.25 0 001.54-.37l2.7-1.55a1.08 1.08 0 00.63-.89V148a1.08 1.08 0 01-.63.89l-2.7 1.55a3.24 3.24 0 01-1.54.36z" fill="#f0f0f0"/>
  <path fill="#ebebeb" d="M46.2 110.78l16.57 9.56v31.51l-16.57-9.56v-31.51z"/>
  <path d="M62.24 120.87l-16-9.2a6.69 6.69 0 01-3.66 2l15.89 9.16a16.11 16.11 0 003.77-1.96z" fill="#fff"/>
  <path d="M56.89 122.78a3.41 3.41 0 003.08 0l2.7-1.55a.93.93 0 000-1.77l-15.8-9.07-.67.39 15.54 9a.56.56 0 010 1.06l-2.51 1.42a2.05 2.05 0 01-1.84 0l-15.54-9-.75.43z" fill="#fafafa"/>
  <path d="M41.1 113.71v31.51l15.79 9.06a3.41 3.41 0 003.08 0l2.7-1.54a1.08 1.08 0 00.64-.89v-31.51a1.08 1.08 0 01-.64.89L60 122.78a3.41 3.41 0 01-3.08 0z" fill="#e0e0e0"/>
  <path d="M58.43 123.14a3.18 3.18 0 001.54-.36l2.7-1.55a1.08 1.08 0 00.64-.89v31.51a1.08 1.08 0 01-.64.89L60 154.28a3.08 3.08 0 01-1.54.37z" fill="#f0f0f0"/>
  <path fill="#ebebeb" d="M39.52 117.46l16.56 9.57-5.15 32.46-16.56-9.57 5.15-32.46z"/>
  <path d="M55.42 127.48l-16-9.2a8.82 8.82 0 01-4.27 1.65L51 129.1a21.21 21.21 0 004.42-1.62z" fill="#fff"/>
  <path d="M49.35 129a4.29 4.29 0 003.34.15l3.16-1.29c1-.4 1.11-1.13.25-1.62l-15.8-9.07-.78.32 15.53 9c.51.3.44.73-.15 1l-2.9 1.1a2.56 2.56 0 01-2-.1l-15.54-9-.88.36z" fill="#fafafa"/>
  <path d="M33.55 119.9l-5.14 32.46 15.8 9.07a4.28 4.28 0 003.34.15l3.15-1.29c.5-.2.78-.48.82-.77l5.15-32.47c-.05.3-.33.58-.82.78l-3.16 1.29a4.28 4.28 0 01-3.34-.15z" fill="#e0e0e0"/>
  <path d="M51 129.38a4.15 4.15 0 001.72-.26l3.16-1.29c.49-.2.77-.48.82-.78l-5.15 32.47c0 .29-.32.57-.82.77l-3.15 1.29a4.2 4.2 0 01-1.72.26z" fill="#f0f0f0"/>
  <path fill="#ebebeb" d="M119.04 65L90.81 48.7 16.47 91.58v3.1l28.23 16.29 74.34-42.87V65z"/>
  <path fill="#fafafa" d="M44.7 107.88L119.04 65 90.81 48.7 16.47 91.58l28.23 16.3z"/>
  <path fill="#e6e6e6" d="M44.7 107.88v3.09L16.47 94.68v-3.1l28.23 16.3z"/>
  <path fill="#ebebeb" d="M95.15 18.84l18.3 10.57v34.83l-18.3-10.57V18.84z"/>
  <path d="M112.87 30L95.15 19.82A7.41 7.41 0 0191.1 22l17.56 10.12a17.42 17.42 0 004.21-2.12z" fill="#fff"/>
  <path d="M107 32.1a3.79 3.79 0 003.41 0l3-1.71a1 1 0 000-1.95l-17.46-10-.74.42 17.17 9.92c.57.32.57.84 0 1.17l-2.77 1.57a2.29 2.29 0 01-2 0L90.34 21.6l-.84.48z" fill="#fafafa"/>
  <path d="M89.5 22.08v34.83l17.46 10a3.79 3.79 0 003.41 0l3-1.71a1.18 1.18 0 00.7-1V29.41a1.18 1.18 0 01-.7 1l-3 1.71a3.79 3.79 0 01-3.41 0z" fill="#e0e0e0"/>
  <path d="M108.66 32.51a3.52 3.52 0 001.71-.41l3-1.71a1.18 1.18 0 00.7-1v34.85a1.18 1.18 0 01-.7 1l-3 1.71a3.51 3.51 0 01-1.71.4z" fill="#f0f0f0"/>
  <path fill="#ebebeb" d="M88.04 24.89l18.3 10.57-5.68 35.88-18.31-10.57 5.69-35.88z"/>
  <path d="M105.62 36L87.9 25.79a9.75 9.75 0 01-4.72 1.83l17.57 10.13a23.48 23.48 0 004.87-1.75z" fill="#fff"/>
  <path d="M98.91 37.61a4.8 4.8 0 003.69.17l3.49-1.43c1.1-.45 1.22-1.25.28-1.79l-17.47-10-.86.35 17.17 9.92c.57.32.49.8-.17 1.07l-3.23 1.3a2.84 2.84 0 01-2.22-.1l-17.17-9.9-1 .4z" fill="#fafafa"/>
  <path d="M81.44 27.58l-5.68 35.88 17.47 10a4.75 4.75 0 003.69.16l3.48-1.42c.55-.22.86-.53.91-.86L107 35.49c0 .33-.35.64-.9.86l-3.49 1.43a4.75 4.75 0 01-3.69-.17z" fill="#e0e0e0"/>
  <path d="M100.7 38.06a4.66 4.66 0 001.9-.28l3.49-1.43c.55-.22.85-.53.9-.86l-5.68 35.88c0 .33-.36.64-.91.86l-3.48 1.42a4.57 4.57 0 01-1.91.29z" fill="#f0f0f0"/>
  <path fill="#fafafa" d="M57.62 90.06l1.3.63 24.02-13.87-1.3-.62-24.02 13.86z"/>
  <path fill="#fff" d="M81.64 76.2L58.79 89.39l-3.32-34.18 22.85-13.18 3.32 34.17z"/>
  <path d="M81.46 37.65L53 54.07l3.92 40.31L85.38 78zm1.48 39.17l-24 13.87-3.47-35.48 24-13.87z" fill="#f0f0f0"/>
  <path fill="#e0e0e0" d="M82.94 76.82l-1.3-.62-3.32-34.17 1.16-.69 3.46 35.48z"/>
  <path fill="#fafafa" d="M81.46 37.65l-1.32-.6-28.43 16.41 1.31.61 28.44-16.42z"/>
  <path fill="#e0e0e0" d="M51.71 53.46l1.31.61 3.92 40.31-1.31-.61-3.92-40.31z"/>
  <path d="M80.63 75.55L59.57 87.71l-.56-5.76 3.92-16.91 3.73 5.77-.77 4.86 6.23-17.94 7.95 12.06.56 5.76zM62.6 57.92a3 3 0 00-1.39 2.6c.09.94.86 1.3 1.72.8a2.94 2.94 0 001.4-2.6c-.09-.94-.87-1.3-1.73-.8z" fill="#f0f0f0"/>
  <path d="M45.79 87.69c3.89 2.25 3.89 5.9 0 8.15a15.61 15.61 0 01-14.12 0c-3.89-2.25-3.89-5.9 0-8.15a15.59 15.59 0 0114.12 0z" opacity=".05"/>
  <path d="M32.39 93.37C29 89.9 27 81.26 30.31 78.51h16.84c3.31 2.75 1.32 11.39-2.07 14.85l-.09.1-.12.11-.31.28-.08.06a1.74 1.74 0 01-.26.19 3.49 3.49 0 01-.43.28 11.12 11.12 0 01-10.11 0 3.68 3.68 0 01-.45-.28l-.23-.18a.39.39 0 01-.1-.08 2.55 2.55 0 01-.3-.26l-.14-.13z" fill="#f5f5f5"/>
  <path d="M45.69 77.19c3.84 2.22 3.84 5.82 0 8a15.38 15.38 0 01-13.92 0c-3.84-2.22-3.84-5.82 0-8a15.44 15.44 0 0113.92 0z" fill="#fff"/>
  <path d="M43 78.77c2.34 1.35 2.34 3.54 0 4.89a9.34 9.34 0 01-8.46 0c-2.34-1.35-2.34-3.54 0-4.89a9.34 9.34 0 018.46 0z" fill="#ebebeb"/>
  <path d="M34.5 81.09a9.34 9.34 0 018.46 0 3.86 3.86 0 011.41 1.28A4 4 0 0143 83.66a9.34 9.34 0 01-8.46 0 3.93 3.93 0 01-1.4-1.29 3.82 3.82 0 011.36-1.28z" fill="#e0e0e0"/>
  <path d="M42.45 82.37a19.08 19.08 0 003.06-4.07c1.42-2.5 1.68-5.85 1-6.26S42.75 75 42.75 75a17.85 17.85 0 00.31-4.26c-.12-2.23-.67-4.26-1.3-4.66s-2.07 2.4-2.68 4.43-1 3.71-1 3.71A31.49 31.49 0 0037 69.5c-.74-2.12-1.41-2.59-1.93-2.39s-.87 1.2-1 4a27.88 27.88 0 00.12 4S33.12 74 32 72.88s-1.83-1.4-2.19-1.16-.47 2.14 1.51 5.73A20.05 20.05 0 0035 82.37s2.76 1.77 7.45 0z" fill="#ebebeb"/>
  <path fill="#fafafa" d="M361.7 136.96l-1.6.96-32.88-18.98 1.6-.96 32.88 18.98z"/>
  <path fill="#fff" d="M328.82 117.98l31.28 18.05v-32.75l-31.28-18.04v32.74z"/>
  <path d="M324.2 120.68l38.92 22.47v-41.61L324.2 79.06zm3-36.38l32.88 19v34.64l-32.88-19z" fill="#f0f0f0"/>
  <path fill="#e0e0e0" d="M327.22 118.94l1.6-.96V85.24l-1.6-.94v34.64z"/>
  <path fill="#fafafa" d="M324.2 79.06l1.62-.93 38.93 22.48-1.63.93-38.92-22.48z"/>
  <path fill="#e0e0e0" d="M364.75 100.61l-1.63.93v41.61l1.63-.93v-41.61z"/>
  <g fill="#f0f0f0">
    <path d="M330.04 117l28.84 16.65v-8.33l-7.21-16.64-4.49 4.16 1.61 6.98-9.95-21.29-8.8 10.15V117z"/>
    <path d="M347.45 100.64a4.7 4.7 0 012.13 3.69c0 1.36-.95 1.91-2.13 1.23a4.7 4.7 0 01-2.13-3.69c0-1.36.95-1.87 2.13-1.23z"/>
  </g>
  <path fill="#fafafa" d="M361.7 82.1l-1.6.95-32.88-18.98 1.6-.95L361.7 82.1z"/>
  <path fill="#fff" d="M328.82 63.12l31.28 18.05V48.42l-31.28-18.04v32.74z"/>
  <path d="M324.2 65.82l38.92 22.47V46.67L324.2 24.2zm3-36.38l32.88 19v34.61l-32.88-19z" fill="#f0f0f0"/>
  <path fill="#e0e0e0" d="M327.22 64.07l1.6-.95V30.38l-1.6-.94v34.63z"/>
  <path fill="#fafafa" d="M324.2 24.2l1.62-.93 38.93 22.47-1.63.93L324.2 24.2z"/>
  <path fill="#e0e0e0" d="M364.75 45.74l-1.63.93v41.62l1.63-.93V45.74z"/>
  <g fill="#f0f0f0">
    <path d="M330.04 62.14l28.84 16.64v-8.32l-7.21-16.65-4.49 4.17 1.61 6.97-9.95-21.29-8.8 10.15v8.33z"/>
    <path d="M347.45 45.78a4.7 4.7 0 012.13 3.69c0 1.36-.95 1.91-2.13 1.23a4.7 4.7 0 01-2.13-3.7c0-1.35.95-1.9 2.13-1.22z"/>
  </g>
  <path d="M282.34 242c-8.79-9.07-14-32-5.38-39.19h43.64c8.57 7.19 3.4 30.09-5.38 39.19l-.24.25-.3.29c-.25.25-.51.49-.79.72l-.21.17c-.22.17-.43.34-.67.5a12.86 12.86 0 01-1.13.74c-7.24 4.22-19 4.22-26.2 0a13 13 0 01-1.14-.74l-.62-.47-.26-.21c-.27-.23-.53-.46-.77-.69l-.35-.35c-.06-.09-.14-.15-.2-.21z" fill="#ebebeb"/>
  <path d="M316.81 199.89c9.95 5.81 9.95 15.24 0 21.05s-26.1 5.81-36.06 0-10-15.24 0-21.05 26.1-5.81 36.06 0z" fill="#fafafa"/>
  <path d="M312 202.68c7.31 4.27 7.31 11.2 0 15.46s-19.17 4.27-26.48 0-7.31-11.19 0-15.46 19.19-4.26 26.48 0z" fill="#ebebeb"/>
  <path d="M285.54 210c7.31-4.27 19.17-4.27 26.48 0a12.23 12.23 0 014.38 4.06 12.14 12.14 0 01-4.38 4.06c-7.31 4.27-19.17 4.27-26.48 0a12.14 12.14 0 01-4.38-4.06 12.23 12.23 0 014.38-4.06z" fill="#fff"/>
  <path d="M292.81 155.82c-2.95 3.72-11.8 5.36-16.21-3.76-4.14-8.55-8.51-16.62-9.83-19.77a3.34 3.34 0 011.81-4.47s-.12-4.86 8.34-2.2 14.63 7.19 18.82 15 2.48 13.7-2.93 15.2z" fill="#f0f0f0"/>
  <path d="M297.31 168a44.18 44.18 0 00-1.09-4.85 68.92 68.92 0 00-3.44-9.25 70.09 70.09 0 00-10.85-16.83 60.7 60.7 0 00-8.12-7.91c-.09-.07-.15.12-.08.18a75.1 75.1 0 0112.94 15.28 75.86 75.86 0 018.17 17.82c.54 1.76 1.06 3.52 1.52 5.3s.81 3.64 1.26 5.45c0 .18.33.27.33 0a35.14 35.14 0 00-.64-5.19z" fill="#e0e0e0"/>
  <path d="M297.31 168a44.18 44.18 0 00-1.09-4.85 68.92 68.92 0 00-3.44-9.25 70.09 70.09 0 00-10.85-16.83 60.7 60.7 0 00-8.12-7.91c-.09-.07-.15.12-.08.18a75.1 75.1 0 0112.94 15.28 75.86 75.86 0 018.17 17.82c.54 1.76 1.06 3.52 1.52 5.3s.81 3.64 1.26 5.45c0 .18.33.27.33 0a35.14 35.14 0 00-.64-5.19z" opacity=".1"/>
  <path d="M302.4 149.29c-7.68 2.37-13.38-3.62-11.41-13s11.85-19.83 15.58-17c2.33-2.33 7.46-1.49 9.87 6.14s.22 27.19-14.04 23.86z" fill="#e0e0e0"/>
  <path d="M306.91 125a103.28 103.28 0 00-5.11 16.88 165.25 165.25 0 00-3 17.69 274.62 274.62 0 00-1.54 34.65q0 4.8.12 9.6c.07 3.29 0 6.62.3 9.89.11 1.26 1.89.93 1.92-.23.11-5.75-.21-11.53-.27-17.29s0-11.39.11-17.08a240.24 240.24 0 013.11-34.61c.55-3.19 1.15-6.37 1.9-9.52.78-3.31 1.74-6.57 2.61-9.86.07-.12-.06-.34-.15-.12z" fill="#e0e0e0"/>
  <path d="M306.91 125a103.28 103.28 0 00-5.11 16.88 165.25 165.25 0 00-3 17.69 274.62 274.62 0 00-1.54 34.65q0 4.8.12 9.6c.07 3.29 0 6.62.3 9.89.11 1.26 1.89.93 1.92-.23.11-5.75-.21-11.53-.27-17.29s0-11.39.11-17.08a240.24 240.24 0 013.11-34.61c.55-3.19 1.15-6.37 1.9-9.52.78-3.31 1.74-6.57 2.61-9.86.07-.12-.06-.34-.15-.12z" opacity=".1"/>
  <path d="M288.12 175c-2.22 4.56-9.72 6.3-16.5 1.14s-16.62-28.86-9.16-29.24c.57-3.69 22.08-1.18 29 14.15 5.05 11.15-3.34 13.95-3.34 13.95z" fill="#e0e0e0"/>
  <path d="M297.12 185a35.84 35.84 0 00-2.2-4.21 94.16 94.16 0 00-5.34-8.09 96.73 96.73 0 00-13.34-14.54 86.31 86.31 0 00-8.53-7c-.08-.05-.09.13 0 .18 2.42 2 4.86 4 7.14 6.23a97.34 97.34 0 016.72 7.21 121.15 121.15 0 0111.13 15.32c.93 1.53 1.79 3.11 2.74 4.63s2.1 3.09 3 4.71c.13.24.48.24.35-.09-.58-1.35-1.05-2.9-1.67-4.35z" fill="#e0e0e0"/>
  <path d="M297.12 185a35.84 35.84 0 00-2.2-4.21 94.16 94.16 0 00-5.34-8.09 96.73 96.73 0 00-13.34-14.54 86.31 86.31 0 00-8.53-7c-.08-.05-.09.13 0 .18 2.42 2 4.86 4 7.14 6.23a97.34 97.34 0 016.72 7.21 121.15 121.15 0 0111.13 15.32c.93 1.53 1.79 3.11 2.74 4.63s2.1 3.09 3 4.71c.13.24.48.24.35-.09-.58-1.35-1.05-2.9-1.67-4.35z" opacity=".1"/>
  <path d="M302.18 173.09c-4.39-1-4.61-6.28.88-12.74s19.31-9.29 20-6.57c3.07 0 3.07 9.62-3.73 18.46s-16.74 6.76-17.15.85z" fill="#e0e0e0"/>
  <path d="M310.78 163.68a34.53 34.53 0 00-12.7 16.4c-.15.37.5.92.66.51a40.22 40.22 0 0112.07-16.82s.03-.13-.03-.09z" fill="#e0e0e0"/>
  <path d="M310.78 163.68a34.53 34.53 0 00-12.7 16.4c-.15.37.5.92.66.51a40.22 40.22 0 0112.07-16.82s.03-.13-.03-.09z" opacity=".1"/>
  <path d="M307.2 205.2c-6.08 2.46-3.48 9.7 2.46 15.2s14.42 6.94 18.5 6.65 5.12-.84 5.12-.84.65-6.26 0-10.07a19.44 19.44 0 00-14.33-15.43c-9.48-2.56-11.75.87-11.75 4.49z" fill="#f0f0f0"/>
  <path d="M324 215.89a49.42 49.42 0 00-9.31-8.62c-3.46-2.27-8.08-4.22-12.23-2.8-1.61.55-4.11 2.15-3.81 4.15 0 .19.38.69.62.41a16.66 16.66 0 012.19-2.55 6.52 6.52 0 013.26-1.24 15.11 15.11 0 018.53 1.94c4.11 2.18 7.43 5.56 10.7 8.8.05.02.1-.06.05-.09z" fill="#e0e0e0"/>
  <path d="M324 215.89a49.42 49.42 0 00-9.31-8.62c-3.46-2.27-8.08-4.22-12.23-2.8-1.61.55-4.11 2.15-3.81 4.15 0 .19.38.69.62.41a16.66 16.66 0 012.19-2.55 6.52 6.52 0 013.26-1.24 15.11 15.11 0 018.53 1.94c4.11 2.18 7.43 5.56 10.7 8.8.05.02.1-.06.05-.09z" opacity=".1"/>
  <path d="M284.09 181.43c.06-2.58-4.61-7.87-16-7-5.2.42-10 1.82-13.79 5.5a7.88 7.88 0 00-2.52 4.58 3.45 3.45 0 00.27 2 3.54 3.54 0 001 1.12c2.72 2.2 6.27 1.62 9.48 2.44 5 1.27 15.44 5.8 21.47 2.78s3.7-9.53.09-11.42z" fill="#f0f0f0"/>
  <path d="M294.18 188.53c-6.51-8.88-19.21-9.63-29.14-7.75a39.85 39.85 0 00-9.46 3v.11a52.48 52.48 0 0116.16-3.13 34.08 34.08 0 0115.84 3 20.42 20.42 0 016.37 5c.22.24.36-.05.23-.23z" fill="#e0e0e0"/>
  <path d="M294.18 188.53c-6.51-8.88-19.21-9.63-29.14-7.75a39.85 39.85 0 00-9.46 3v.11a52.48 52.48 0 0116.16-3.13 34.08 34.08 0 0115.84 3 20.42 20.42 0 016.37 5c.22.24.36-.05.23-.23z" opacity=".1"/>
  <path d="M313.09 159.52c-.16 4.36 6 6.89 11.91 3.12s12.16-7.44 17.66-8.86 8.11-5.91 6.37-8.08-4.5-7.65-19-5.86-19.59 8.31-21.57 12.91 2.45 8.03 4.63 6.77z" fill="#f0f0f0"/>
  <path d="M336.63 145.68a15.76 15.76 0 00-6.21.65 30.59 30.59 0 00-5.31 1.91 29.23 29.23 0 00-9 6.55 23.87 23.87 0 00-2 2.45 10.49 10.49 0 00-1.55 2.53c-.09.29.32.76.58.46.71-.82 1.25-1.83 1.92-2.7a29.56 29.56 0 012.33-2.66 29.12 29.12 0 015.57-4.39 34.61 34.61 0 016.18-3 37.27 37.27 0 013.6-1.08 12.79 12.79 0 013.93-.55c-.01 0 .02-.16-.04-.17z" fill="#e0e0e0"/>
  <path d="M336.63 145.68a15.76 15.76 0 00-6.21.65 30.59 30.59 0 00-5.31 1.91 29.23 29.23 0 00-9 6.55 23.87 23.87 0 00-2 2.45 10.49 10.49 0 00-1.55 2.53c-.09.29.32.76.58.46.71-.82 1.25-1.83 1.92-2.7a29.56 29.56 0 012.33-2.66 29.12 29.12 0 015.57-4.39 34.61 34.61 0 016.18-3 37.27 37.27 0 013.6-1.08 12.79 12.79 0 013.93-.55c-.01 0 .02-.16-.04-.17z" opacity=".1"/>
  <path d="M302.71 183.05c-2-2-7.53-1.56-10.13 4.43s2.86 12.54 3.47 14.39c2.51-1.45 4.47-.59 8.89-1.45a11 11 0 008.48-11c-.29-5.5-2.6-9.12-10.71-6.37z" fill="#f0f0f0"/>
  <path d="M302.63 182.45a8.26 8.26 0 00-2.68 2.77 14.89 14.89 0 00-1.74 3.36 14.31 14.31 0 00-.77 7.63c0 .1.1 0 .1-.05a15.58 15.58 0 011.28-7.54 15.23 15.23 0 011.82-3 15 15 0 011.23-1.41A8 8 0 00303 183c.17-.21-.06-.7-.37-.55z" fill="#e0e0e0"/>
  <path d="M302.63 182.45a8.26 8.26 0 00-2.68 2.77 14.89 14.89 0 00-1.74 3.36 14.31 14.31 0 00-.77 7.63c0 .1.1 0 .1-.05a15.58 15.58 0 011.28-7.54 15.23 15.23 0 011.82-3 15 15 0 011.23-1.41A8 8 0 00303 183c.17-.21-.06-.7-.37-.55z" opacity=".1"/>
  <path d="M294.35 199.14c-1.13-4.32-6.6-6.74-13.75-7.27a18.68 18.68 0 00-17.79 9.13c-3.74 6.39-5.29 11.48-3 12.32s11.88 2.17 18.08 2.72 13.95-.57 19-5.28 3.38-10.63-2.54-11.62z" fill="#e0e0e0"/>
  <path d="M294.62 198.57a19 19 0 00-7.73-.36 34.43 34.43 0 00-7.29 1.68 47.19 47.19 0 00-7.22 3.25c-1.21.66-2.4 1.36-3.56 2.11a25.26 25.26 0 00-3.2 2.21v.15c1.17-.53 2.27-1.27 3.39-1.9s2.43-1.35 3.67-2a51.62 51.62 0 017.15-3 34.6 34.6 0 017.59-1.63 46.1 46.1 0 017.24.19c.54.02.25-.6-.04-.7z" fill="#e0e0e0"/>
  <path d="M294.62 198.57a19 19 0 00-7.73-.36 34.43 34.43 0 00-7.29 1.68 47.19 47.19 0 00-7.22 3.25c-1.21.66-2.4 1.36-3.56 2.11a25.26 25.26 0 00-3.2 2.21v.15c1.17-.53 2.27-1.27 3.39-1.9s2.43-1.35 3.67-2a51.62 51.62 0 017.15-3 34.6 34.6 0 017.59-1.63 46.1 46.1 0 017.24.19c.54.02.25-.6-.04-.7z" opacity=".1"/>
  <path d="M307.35 188.55c-4.91-3.91-3.27-13.27 13.93-13.77s29.47 4 28.93 9.52c2.76 2.76 1.36 10.52-12.56 12.94s-33.84 1.21-30.3-8.69z" fill="#e0e0e0"/>
  <path d="M342.12 184.36a73.84 73.84 0 00-15.36-.9 59.43 59.43 0 00-14.19 1.63 20.48 20.48 0 00-3.45 1.29 15.48 15.48 0 00-1.51.8c-.39.24-.83.45-1 .9a.47.47 0 00.51.55 18.3 18.3 0 003-1.49 23.5 23.5 0 013-1.08 36.87 36.87 0 016-1.18 105.15 105.15 0 0114.52-.8c2.82 0 5.64.25 8.45.48.08 0 .11-.19.03-.2z" fill="#e0e0e0"/>
  <path d="M342.12 184.36a73.84 73.84 0 00-15.36-.9 59.43 59.43 0 00-14.19 1.63 20.48 20.48 0 00-3.45 1.29 15.48 15.48 0 00-1.51.8c-.39.24-.83.45-1 .9a.47.47 0 00.51.55 18.3 18.3 0 003-1.49 23.5 23.5 0 013-1.08 36.87 36.87 0 016-1.18 105.15 105.15 0 0114.52-.8c2.82 0 5.64.25 8.45.48.08 0 .11-.19.03-.2z" opacity=".1"/>
  <path fill="#e0e0e0" d="M75.21 334.07l-4 19.86-3.89 2.25-3.86-2.23-4.04-19.88 7.9-4.56 7.89 4.56z"/>
  <path opacity=".05" d="M75.21 334.07l-4 19.86-3.89 2.25-3.86-2.23-4.04-19.88 7.9-4.56 7.89 4.56z"/>
  <path fill="#ebebeb" d="M67.32 356.18v-17.55l7.89-4.56-4 19.86-3.89 2.25z"/>
  <path opacity=".05" d="M75.21 334.07l-2.58 12.83-5.31 3.06-5.29-3.05-2.61-12.84 7.9-4.56 7.89 4.56z"/>
  <path fill="#e0e0e0" d="M40.5 314.03l-4.01 19.86-3.89 2.25-3.86-2.23-4.03-19.88 7.89-4.56 7.9 4.56z"/>
  <path opacity=".05" d="M40.5 314.03l-4.01 19.86-3.89 2.25-3.86-2.23-4.03-19.88 7.89-4.56 7.9 4.56z"/>
  <path fill="#ebebeb" d="M32.6 336.14v-17.55l7.9-4.56-4.01 19.86-3.89 2.25z"/>
  <path opacity=".05" d="M40.5 314.03l-2.59 12.83-5.31 3.06-5.29-3.05-2.6-12.84 7.89-4.56 7.9 4.56zm137.4-39.25l-4 19.86-3.89 2.25-3.86-2.23-4.04-19.88 7.9-4.56 7.89 4.56z"/>
  <path fill="#ebebeb" d="M170.01 296.89v-17.55l7.89-4.56-4 19.86-3.89 2.25z"/>
  <path opacity=".05" d="M177.9 274.78l-2.58 12.83-5.31 3.06-5.29-3.05-2.61-12.84 7.9-4.56 7.89 4.56z"/>
  <path fill="#e0e0e0" d="M67.32 346.76l-43.03-24.84v-93.11l43.02 24.84.01 93.11z"/>
  <path fill="#ebebeb" d="M67.31 253.65l112.83-65.15v93.12L67.32 346.76l-.01-93.11z"/>
  <path fill="#f5f5f5" d="M180.14 188.5L67.31 253.65l-43.02-24.84 112.83-65.14 43.02 24.83z"/>
  <path fill="#e0e0e0" d="M73.46 299.77l100.53-58.04v34.17l1.13.66L74.59 334.6l-1.13-.66v-34.17z"/>
  <path fill="#f5f5f5" d="M74.59 300.43l100.53-58.05v34.18L74.59 334.6v-34.17z"/>
  <path d="M122.92 279l8.36-4.83c1.09-.63 2-.34 2 .64a3.94 3.94 0 01-2 2.91l-8.36 4.83c-1.08.62-2 .34-2-.64a3.93 3.93 0 012-2.91zm-49.46-20.49l100.53-58.04v34.17l1.13.65-100.53 58.04-1.13-.65v-34.17z" fill="#e0e0e0"/>
  <path fill="#f5f5f5" d="M74.59 259.16l100.53-58.04v34.17L74.59 293.33v-34.17z"/>
  <path d="M122.92 237.72l8.36-4.83c1.09-.63 2-.34 2 .64a3.94 3.94 0 01-2 2.91l-8.36 4.82c-1.08.63-2 .34-2-.63a3.93 3.93 0 012-2.91zm10.97-46.42c5.22 3 5.22 7.89 0 10.9s-13.67 3-18.89 0-5.21-7.89 0-10.9 13.67-3.01 18.89 0z" fill="#e0e0e0"/>
  <path d="M116.14 197.42c-4.54-4.63-7.21-16.2-2.78-19.88h22.54c4.43 3.68 1.77 15.24-2.77 19.88a1.59 1.59 0 00-.13.13l-.15.15c-.13.12-.27.25-.41.36l-.11.09-.35.26a6.24 6.24 0 01-.58.37 14.94 14.94 0 01-13.53 0c-.2-.11-.4-.24-.59-.37s-.22-.16-.32-.24l-.14-.11c-.14-.12-.27-.23-.39-.35l-.18-.18a.57.57 0 01-.11-.11z" fill="#ebebeb"/>
  <path d="M133.94 176.06c5.15 3 5.15 7.78 0 10.75s-13.48 3-18.62 0-5.14-7.78 0-10.75 13.48-2.97 18.62 0z" fill="#fafafa"/>
  <path d="M130.3 178.17c3.13 1.8 3.13 4.73 0 6.54a12.5 12.5 0 01-11.33 0c-3.13-1.81-3.13-4.74 0-6.54a12.5 12.5 0 0111.33 0z" fill="#f5f5f5"/>
  <path d="M119 181.27a12.56 12.56 0 0111.33 0 5.08 5.08 0 011.87 1.72 5.08 5.08 0 01-1.87 1.72 12.5 12.5 0 01-11.33 0 5.2 5.2 0 01-1.88-1.72 5.2 5.2 0 011.88-1.72z" fill="#ebebeb"/>
  <path d="M129.61 183a25.9 25.9 0 004.1-5.45c1.89-3.34 2.24-7.83 1.26-8.38s-5 3.92-5 3.92a24.69 24.69 0 00.42-5.72c-.17-3-.9-5.68-1.75-6.23s-2.76 3.21-3.58 5.94-1.31 5-1.31 5a42.23 42.23 0 00-1.47-6.27c-1-2.83-1.89-3.47-2.59-3.19s-1.16 1.6-1.37 5.37a37.66 37.66 0 00.17 5.39s-1.4-1.54-3-3-2.45-1.87-2.94-1.56-.62 2.88 2 7.67a26.8 26.8 0 005 6.59s3.79 2.28 10.06-.08z" fill="#e0e0e0"/>
  <path fill="#fafafa" d="M64.25 234.83l1.68.8 31.03-17.91-1.68-.81-31.03 17.92z"/>
  <path fill="#fff" d="M95.28 216.91l-29.51 17.04-4.3-44.15 29.52-17.03 4.29 44.14z"/>
  <path d="M95.05 167.12l-36.73 21.21 5.06 52.07 36.74-21.21zm1.95 50.6l-31 17.91-4.53-45.83 31-17.91z" fill="#f0f0f0"/>
  <path fill="#e0e0e0" d="M96.96 217.72l-1.68-.81-4.29-44.14 1.51-.88 4.46 45.83z"/>
  <path fill="#fafafa" d="M95.05 167.12l-1.7-.78-36.73 21.2 1.7.79 36.73-21.21z"/>
  <path fill="#e0e0e0" d="M56.62 187.54l1.7.79 5.06 52.07-1.7-.78-5.06-52.08z"/>
  <path d="M93.98 216.07l-27.21 15.71-.72-7.43 5.06-21.85 4.83 7.45-1 6.28 8.04-23.18 10.28 15.59.72 7.43zM70.69 193.3a3.84 3.84 0 00-1.8 3.36c.12 1.22 1.12 1.68 2.23 1a3.83 3.83 0 001.8-3.36c-.12-1.18-1.12-1.64-2.23-1z" fill="#f0f0f0"/>
  <path fill="#f5f5f5" d="M469.11 325.32l-53.95 31.14-89.92-51.91 53.95-31.15 89.92 51.92z"/>
  <path fill="#ebebeb" d="M415.16 356.46v4.16l-89.92-51.92v-4.15l89.92 51.91z"/>
  <path fill="#e0e0e0" d="M469.11 325.32l-53.95 31.14v4.16l53.95-31.15v-4.15z"/>
  <path fill="#ebebeb" d="M410.68 308.04l4.48 2.58v50l-4.48-2.59v-49.99z"/>
  <path fill="#e0e0e0" d="M419.63 308.04l-4.47 2.58v50l4.47-2.59v-49.99z"/>
  <path fill="#f0f0f0" d="M374.75 226.02l4.48 2.58v50l-4.48-2.58v-50z"/>
  <path fill="#e0e0e0" d="M383.7 226.02l-4.47 2.58v50l4.47-2.58v-50zm85.41 53.46l-4.48 2.59v49.99l4.48-2.58v-50z"/>
  <path fill="#f0f0f0" d="M460.16 284.64l4.47-2.57v45.83l-4.47-2.58v-40.68z"/>
  <path fill="#ebebeb" d="M325.25 258.71l4.47 2.59v50l-4.47-2.59v-50z"/>
  <path fill="#e0e0e0" d="M334.2 263.87l-4.48-2.57v45.83l4.48-2.58v-40.68z"/>
  <path fill="#f5f5f5" d="M469.11 275.33l-53.95 31.14-89.92-51.91 53.95-31.15 89.92 51.92z"/>
  <path fill="#ebebeb" d="M415.16 306.47v4.16l-89.92-51.92v-4.15l89.92 51.91z"/>
  <path fill="#e0e0e0" d="M469.11 275.33l-53.95 31.14v4.16l53.95-31.15v-4.15z"/>
  <path fill="#fafafa" d="M469.11 234l-53.95 31.14-89.91-51.91 53.94-31.15L469.11 234z"/>
  <path d="M379.2 183.36L466.91 234l-51.75 29.87-87.71-50.64 51.75-29.87m0-1.28l-53.95 31.15 89.91 51.91L469.11 234l-89.91-51.92z" fill="#e0e0e0"/>
  <path fill="#ebebeb" d="M415.16 265.14v4.16l-89.91-51.92v-4.15l89.91 51.91z"/>
  <path fill="#e0e0e0" d="M469.11 234l-53.95 31.14v4.16l53.95-31.15V234z"/>
  <path fill="#ebebeb" d="M410.68 266.7l4.48 2.59v41.34l-4.48-2.59V266.7z"/>
  <path fill="#e0e0e0" d="M419.63 266.7l-4.47 2.59v41.34l4.47-2.59V266.7zm49.48-28.55l-4.48 2.59v41.33l4.48-2.58v-41.34z"/>
  <path fill="#f0f0f0" d="M460.16 243.31l4.47-2.57v37.17l-4.47-2.58v-32.02z"/>
  <path fill="#ebebeb" d="M325.25 217.38l4.47 2.59v41.34l-4.47-2.59v-41.34z"/>
  <path fill="#e0e0e0" d="M334.2 222.54l-4.48-2.57v37.17l4.48-2.58v-32.02z"/>
  <path fill="#ebebeb" d="M410.68 358.03l4.48 2.58V378l-4.48-2.58v-17.39z"/>
  <path fill="#e0e0e0" d="M419.63 358.03l-4.47 2.58V378l4.47-2.58v-17.39zm49.48-28.55l-4.48 2.58v17.39l4.48-2.58v-17.39z"/>
  <path fill="#f0f0f0" d="M460.16 334.63l4.47-2.57v17.39l-4.47-2.58v-12.24z"/>
  <path fill="#ebebeb" d="M325.25 308.71l4.47 2.58v17.4l-4.47-2.58v-17.4z"/>
  <path fill="#e0e0e0" d="M334.2 313.87l-4.48-2.58v17.4l4.48-2.59v-12.23zm117.58-83.24l-43.33 24.75a.84.84 0 01-.49.13 1 1 0 01-.51-.11l-53.76-31a.33.33 0 010-.61L397 199z"/>
  <path d="M356.89 223.67a1 1 0 00.49.75l50.19 29a1 1 0 00.9 0L447.64 231l-.05-1-51.1-29.5-39.19 22.41a1 1 0 00-.41.76z" fill="#455a64"/>
  <path d="M447.59 230l-39.17 22.37a.75.75 0 01-.44.12.87.87 0 01-.46-.1l-50.19-29a.3.3 0 010-.55l39.19-22.37z" fill="#37474f"/>
  <path d="M447.59 230l.05 1-39.17 22.37a.93.93 0 01-.44.12v-.95a.75.75 0 00.44-.12z" fill="#263238"/>
  <path fill="#455a64" d="M447 230.43l-51.12-29.49-.64-12.51 51.12 29.64.64 12.36z"/>
  <path d="M357.1 216.93a1.31 1.31 0 00-.5 1l.13 2.53a1.37 1.37 0 00.61 1l50 28.83a1.17 1.17 0 001.12 0l33.14-20.23-.2-3.91-51.1-29.5z" fill="#ebebeb"/>
  <path d="M390.26 196.69l-33.16 20.24a.38.38 0 000 .69l50 28.83a1.2 1.2 0 001.12 0l33.14-20.24z" fill="#fafafa"/>
  <path d="M437 226.59a1.22 1.22 0 00.38.13 1.14 1.14 0 00.61 0 .49.49 0 00.18-.08c.3-.18.25-.51-.12-.72a1.35 1.35 0 00-.54-.15 1.05 1.05 0 00-.63.12.1.1 0 00-.06 0c-.2.23-.14.5.18.7z" fill="#263238"/>
  <path d="M407.67 246.57l.2 3.91a1.2 1.2 0 01-.57-.13l-50-28.82a1.43 1.43 0 01-.6-1l-.1-2.53a1.29 1.29 0 01.4-1c-.16.19-.11.42.16.58l50 28.82a1 1 0 00.51.17z" fill="#e6e6e6"/>
  <path d="M442.73 221.07a2.12 2.12 0 00-2.31.18 8.17 8.17 0 00-2.91 5l.77.11a7.4 7.4 0 012.56-4.45 1.92 1.92 0 01.94-.33 1.13 1.13 0 01.6.16 3.25 3.25 0 011.05 2.75c.06 2.59-1.19 5.55-2.78 6.59a1.7 1.7 0 01-1.14.32l-.8.52h.05a1.81 1.81 0 001 .27 2.52 2.52 0 001.32-.45c1.82-1.19 3.2-4.38 3.13-7.27-.06-1.61-.59-2.87-1.48-3.4z" fill="#263238"/>
  <path d="M356.49 215.73a1 1 0 00.48.74l50.2 29a.94.94 0 00.89 0L447 218.54l-.05-.95-51.1-29.5L356.9 215a1 1 0 00-.41.73z" fill="#37474f"/>
  <path d="M447 217.59l-39 26.88a1 1 0 01-.45.12.83.83 0 01-.45-.1l-50.19-29c-.26-.15-.27-.4 0-.55l39-26.88z" fill="#455a64"/>
  <path d="M447 217.59l.05.95-38.93 26.88a.86.86 0 01-.45.11l-.05-.94a1 1 0 00.45-.12z" fill="#263238"/>
  <path fill="#263238" d="M447.59 230.04l-.63-12.43-.6.46.64 12.36.59-.39z"/>
  <path d="M445.49 217.43a.71.71 0 00.39-.64v-1l-49.39-27.93a2.15 2.15 0 00-2.06 0L355.92 213 407 242.49z" fill="#34a37e"/>
  <path d="M445.49 217.43a.71.71 0 00.39-.64v-1l-49.39-27.93a2.15 2.15 0 00-2.06 0L355.92 213 407 242.49z" opacity=".2"/>
  <path d="M445.44 216.48a.68.68 0 00-.06-1.26l-49-28.28a2.18 2.18 0 00-2.06 0l-38.47 25.07L407 241.55z" fill="#34a37e"/>
  <path d="M445.44 216.48a.68.68 0 00-.06-1.26l-49-28.28a2.18 2.18 0 00-2.06 0l-38.47 25.07L407 241.55z" opacity=".5"/>
  <path d="M364.69 205.52L393.17 187a2.18 2.18 0 012.06 0l45.47 26.26 3.71-2.44.24 4.81-.07.05a.65.65 0 01-.31.86l-32.61 21.25-51.12-29.49-.27-5.26z" fill="#ebebeb"/>
  <path d="M444 211.22a.68.68 0 00-.06-1.26l-49-28.28a2.18 2.18 0 00-2.06 0L360.27 203l51.12 29.5z" fill="#fafafa"/>
  <path fill="#e6e6e6" d="M411.39 232.47l.26 5.25-51.11-29.49-.27-5.26 51.12 29.5z"/>
  <path d="M410.74 230.42a1.21 1.21 0 00.39.14 1.1 1.1 0 00.6 0 .46.46 0 00.19-.08c.3-.18.24-.51-.12-.71a1.3 1.3 0 00-.55-.16 1 1 0 00-.63.13h-.06c-.23.26-.16.49.18.68z" fill="#263238"/>
  <path d="M405.76 234.63a3.13 3.13 0 00.61 1.81 1.84 1.84 0 001.51.71 2.51 2.51 0 001.4-.48l.25-.16-.6-.35c-1.36.86-2.51.17-2.6-1.54a5.88 5.88 0 012.31-4.73 1.59 1.59 0 011.9-.13 1.5 1.5 0 01.57.8 1.1 1.1 0 00.6 0 2.37 2.37 0 00-.48-.95 1.86 1.86 0 00-1.51-.7 2.62 2.62 0 00-1.41.48 6.41 6.41 0 00-2.55 5.24z" fill="#263238"/>
  <path d="M407 229.64l38.48-21.24v.69a1.19 1.19 0 01-.46 1l-38 20.54z" fill="#34a37e"/>
  <path d="M407 229.64l38.48-21.24v.69a1.19 1.19 0 01-.46 1l-38 20.54z" opacity=".2"/>
  <path d="M445.06 209a.68.68 0 00-.06-1.26l-49-28.24a2.15 2.15 0 00-2.06 0l-38.67 21L406.4 230z" fill="#34a37e"/>
  <path fill="#34a37e" d="M407.04 242.49L355.92 213l-.63-12.51L406.4 230l.64 12.49z"/>
  <path opacity=".1" d="M407.04 242.49L355.92 213l-.63-12.51L406.4 230l.64 12.49z"/>
  <path d="M397.59 234.63a1.73 1.73 0 001.44-.77 2.9 2.9 0 00.43-1.83 7 7 0 00-3.11-5.17 2.74 2.74 0 00-1.46-.43c-1.19 0-1.95 1.06-1.87 2.6a6.94 6.94 0 003.11 5.17 2.77 2.77 0 001.46.43z" fill="#455a64"/>
  <path d="M398.87 232.05c.09 1.72-1 2.44-2.47 1.6a6.26 6.26 0 01-2.78-4.63c-.09-1.73 1-2.45 2.46-1.61a6.32 6.32 0 012.79 4.64zm-9.56-6.12l.05.95c.09 1.89-1.12 2.68-2.71 1.76l-24.34-14a7 7 0 01-3.06-5.09v-.95c-.1-1.89 1.11-2.68 2.7-1.76l24.34 14.05a7 7 0 013.02 5.04z" fill="#f5f5f5"/>
  <path fill="#34a37e" d="M407.63 242.11l-.63-12.43-.6.32.64 12.49.59-.38z"/>
  <path opacity=".2" d="M407.63 242.11l-.63-12.43-.6.32.64 12.49.59-.38z"/>
  <path d="M87.07 354.8h3.25v-10a12 12 0 00-5.51-9.54l-17.46-10.05a4.38 4.38 0 00-7 4.15l.31 10.21 3.25-.07-.3-10.21c0-.8.17-1.41.5-1.6s1-.07 1.64.33l17.44 10.08a8.75 8.75 0 013.88 6.73z" fill="#37474f"/>
  <path d="M32.36 391.47l3.49-64.32a5.67 5.67 0 012.54-4.15l2-1.16a1.7 1.7 0 011.77-.14l67.21 38.81-9.25 71.25L33 393a1.59 1.59 0 01-.64-1.53z" fill="#37474f"/>
  <path d="M111.87 425.74l-10.14 5.86c-1.32.76-2.32.15-2.23-1.37l3.5-64.32a5.66 5.66 0 012.53-4.12l2-1.16a1.54 1.54 0 012.52 1.37l4.07 59.62a4.91 4.91 0 01-2.25 4.12z" fill="#263238"/>
  <path d="M76.5 412.24a.93.93 0 00.92-.86l1.78-30.14a.92.92 0 00-1.84-.11l-1.78 30.14a.92.92 0 00.87 1zm-25.74-14.79a.93.93 0 00.92-.86l1.77-30.14a.92.92 0 00-.86-1 .94.94 0 00-1 .87l-1.78 30.13a.92.92 0 00.87 1z" fill="#34a37e"/>
  <path d="M94.3 395.6a4.88 4.88 0 007.3-4l1.4-25.7a5.68 5.68 0 012.55-4.11l2-1.15a1.78 1.78 0 011.64-.23l-67-38.69a1.65 1.65 0 00-1.76.13l-2 1.16a5.7 5.7 0 00-2.53 4.13l-1.36 25.41A13.44 13.44 0 0041.19 365z" fill="#455a64"/>
  <path fill="#34a37e" d="M70.78 379.09l-9.74-5.61-.41 5.39 9.76 5.63.39-5.41z"/>
  <path d="M259.58 357.16l-13.42-77.41-8.49-.43 17.64 77.83a1.13 1.13 0 00.56.76 3.37 3.37 0 003 .15 1 1 0 00.66-.9z" fill="#263238"/>
  <path d="M133.34 267h-8.5l-20 80.41a1 1 0 00.62.93 3.31 3.31 0 003 0 1.12 1.12 0 00.6-.73zm58.8 127.05l-.38-86.7-8.49-.43 4.59 87.08a1.16 1.16 0 00.57.77 3.35 3.35 0 003 .15 1 1 0 00.67-.9z" fill="#37474f"/>
  <path d="M179.74 240.06h-8.5l-13.61 85.43a1 1 0 00.62.93 3.31 3.31 0 003 0 1.12 1.12 0 00.6-.73z" fill="#263238"/>
  <path d="M108.87 173.13a48.14 48.14 0 00-3.4 14.93c-1 11.44 2.91 48.49 5.23 65.05 3.37 27.68 7.49 27.73 13.49 32.37 10.32 8 40 23.59 49.79 27.45 17.76 7 32.28-3.79 43.1-9.14a249 249 0 0028.67-17c2.71-2 4.11-4 4.08-6.05v-5.11c0-2.67-2.36-5.54-7.33-8.76-9.17-5.95-42.32-25.29-55.17-32.4a.13.13 0 00-.1-.11c-9.89-6-15.84-46.79-22.68-68.49-.15-.46-.29-.91-.44-1.34s-.24-.69-.36-1a34.66 34.66 0 00-1.35-3.25" fill="#34a37e"/>
  <path d="M249.83 275.64c0-2.67-2.36-5.54-7.33-8.76-9.17-5.95-42.32-25.29-55.17-32.4a.13.13 0 00-.1-.11c-9.89-6-15.84-46.79-22.68-68.49-.07-.2-.55-1.87-1.44-4l-.12-.29c-.12-.29-.25-.58-.39-.88-.07-.15-.13-.3-.2-.44a21 21 0 00-4.57-6.6 10.35 10.35 0 00-2.24-1.57c-1.11-.63-3.45-1.93-4-2.27-6.72-4-15.52.8-26.5 6.81-6.82 3.75-12.65 8.19-16.19 16.48a48.14 48.14 0 00-3.4 14.93c-1 11.44 2.91 48.49 5.23 65.05 3.37 27.68 7.49 27.73 13.49 32.37 10.32 8 40 23.59 49.79 27.45 17.76 7 32.28-3.79 43.1-9.14a249 249 0 0028.67-17c2.71-2 4.11-4 4.08-6.05-.05-.81-.03-4.21-.03-5.09z" fill="#34a37e"/>
  <path d="M249.83 275.64c0-2.67-2.36-5.54-7.33-8.76-9.17-5.95-42.32-25.29-55.17-32.4a.13.13 0 00-.1-.11c-9.89-6-15.84-46.79-22.68-68.49-.07-.2-.55-1.87-1.44-4l-.12-.29c-.12-.29-.25-.58-.39-.88-.07-.15-.13-.3-.2-.44a21 21 0 00-4.57-6.6 10.35 10.35 0 00-2.24-1.57c-1.11-.63-3.45-1.93-4-2.27-6.72-4-15.52.8-26.5 6.81-6.82 3.75-12.65 8.19-16.19 16.48a48.14 48.14 0 00-3.4 14.93c-1 11.44 2.91 48.49 5.23 65.05 3.37 27.68 7.49 27.73 13.49 32.37 10.32 8 40 23.59 49.79 27.45 17.76 7 32.28-3.79 43.1-9.14a249 249 0 0028.67-17c2.71-2 4.11-4 4.08-6.05-.05-.81-.03-4.21-.03-5.09z" fill="#fff" opacity=".25"/>
  <path d="M217.07 298.64a251.71 251.71 0 0028.67-17c6.16-4.47 5.59-9-3.23-14.77-12.26-7.95-62.23-36.3-62.23-36.3s-63.17 37.28-60.45 44.16 41.82 28.18 54.14 33c17.76 7.03 32.28-3.73 43.1-9.09z" fill="#34a37e"/>
  <path d="M217.07 298.64a251.71 251.71 0 0028.67-17c6.16-4.47 5.59-9-3.23-14.77-12.26-7.95-62.23-36.3-62.23-36.3s-63.17 37.28-60.45 44.16 41.82 28.18 54.14 33c17.76 7.03 32.28-3.73 43.1-9.09z" fill="#fff" opacity=".6"/>
  <path d="M155.59 152.11c-6.65-3.49-15.29 1.25-26 7.11-6.85 3.75-12.68 8.2-16.23 16.52l-4.51-2.61c3.54-8.29 9.37-12.73 16.19-16.48 11-6 19.78-10.83 26.5-6.81.6.34 2.94 1.64 4.05 2.27z" fill="#34a37e"/>
  <path d="M155.59 152.11c-6.65-3.49-15.29 1.25-26 7.11-6.85 3.75-12.68 8.2-16.23 16.52l-4.51-2.61c3.54-8.29 9.37-12.73 16.19-16.48 11-6 19.78-10.83 26.5-6.81.6.34 2.94 1.64 4.05 2.27z" fill="#fff" opacity=".5"/>
  <path d="M164.55 165.88c-.15-.46-2.43-8.42-6.72-12.2a10.84 10.84 0 00-7.27-2.77c-5.81 0-12.78 3.84-20.95 8.31-.69.38-1.36.76-2 1.15l-.76.46c-.31.18-.61.37-.91.56s-.44.28-.66.44a38 38 0 00-4.11 3.12 8.37 8.37 0 00-.62.57 28.22 28.22 0 00-2.34 2.42l-.39.46c-.15.2-.32.39-.46.58s-.3.39-.45.6-.29.39-.44.6a30.6 30.6 0 00-1.63 2.62c-.07.11-.13.23-.19.34s-.26.49-.39.74l-.53 1.1a47.36 47.36 0 00-3.7 15.64c-1.58 18.8 4.86 80.91 11.32 86.27 0 0-1-6.08 12-14.26 8.83-5.56 15-10.23 24.47-14.85 23-11.29 29.42-13.41 29.42-13.41-9.9-6-15.85-46.79-22.69-68.49z" fill="#34a37e"/>
  <path d="M164.55 165.88c-.15-.46-2.43-8.42-6.72-12.2a10.84 10.84 0 00-7.27-2.77c-5.81 0-12.78 3.84-20.95 8.31-.69.38-1.36.76-2 1.15l-.76.46c-.31.18-.61.37-.91.56s-.44.28-.66.44a38 38 0 00-4.11 3.12 8.37 8.37 0 00-.62.57 28.22 28.22 0 00-2.34 2.42l-.39.46c-.15.2-.32.39-.46.58s-.3.39-.45.6-.29.39-.44.6a30.6 30.6 0 00-1.63 2.62c-.07.11-.13.23-.19.34s-.26.49-.39.74l-.53 1.1a47.36 47.36 0 00-3.7 15.64c-1.58 18.8 4.86 80.91 11.32 86.27 0 0-1-6.08 12-14.26 8.83-5.56 15-10.23 24.47-14.85 23-11.29 29.42-13.41 29.42-13.41-9.9-6-15.85-46.79-22.69-68.49z" fill="#fff" opacity=".4"/>
  <path d="M203.81 331c-2.43 5.56-5.11 11.64-5.11 11.64a6.36 6.36 0 002.18 5.45l7.5-11z" fill="#263238"/>
  <path d="M200.88 348.05l15.45 4.83 4.71-7.65-12.66-8.19-7.5 11.01z"/>
  <path d="M213.46 316.81a1.33 1.33 0 011.92-.72l-.56 1.28a16.43 16.43 0 006.77 6.89c7.31 4.24 9.58 2.46 10.08 2.05 0 0 .43-.85.67-1.43.74.26 1.2.6.42 2.27-.19.4-1.55 4.69-1.71 5.52a41.81 41.81 0 00-2 10.19 45.46 45.46 0 00.58 12.29c2 11.43 3.72 14.22 4.08 17.94.54 5.64-6.49 7-16.69.65-6.73-4.21-12-11.36-12.34-15.63s2.92-12.91 2.48-16.14-3.41-6-3.38-11c3-6.74 5-7.15 7.26-10.08a14.11 14.11 0 002.42-4.08z" fill="#37474f"/>
  <path d="M232.34 324.88l5.51-14-19.06-9.79-3.41 15-.56 1.28s-.89 4.73 5.11 8.66 11.14 1.32 11.74.28z" fill="#c8856a"/>
  <path d="M199.84 211.36c5 3.47 10.3 6.6 22.81 14.76 12.23 8 29.65 18.21 34.06 26 4 7 3.22 14-.92 25.73s-21.55 46.76-21.55 46.76c-8.23-3-14.65-7.24-18.48-13.12 0 0 2.84-21.66 5.6-28.89 2.16-5.67 4.32-7.53 4.32-7.53L181.79 260l-10.72-22.83c1.93-12.81 16.46-21.94 28.77-25.81z" fill="#37474f"/>
  <path d="M234.24 324.64c-8.12-2.91-14.47-7.14-18.48-13.12 0 0 2.84-21.66 5.6-28.89a28.1 28.1 0 012.65-5.4c4 4.39 6.37 6.82 9.38 18.38 1.36 5.23 3.16 13.57 4.71 21.12-3.85 7.94-3.86 7.91-3.86 7.91zm-35.64-97c2.7 12-1.06 20.82-1.06 20.82l24.07 25.24-39.82-13.7zm18.72 7.02c5.56 2.78 18.54 12.35 21.46 14.64a65.38 65.38 0 018.64 7.7 17 17 0 012.57 3.56 5.88 5.88 0 01.64 1.89 12.79 12.79 0 010 2.15 47 47 0 01-1.71 8.93c-.79 3-1.73 5.91-2.69 8.85q-3 8.81-6.19 17.56a162.59 162.59 0 007.65-17q1.68-4.36 3-8.87a45 45 0 001.85-9.33 14 14 0 00-.07-2.5 7.78 7.78 0 00-.85-2.5 17 17 0 00-2.93-3.93 63.94 63.94 0 00-8.88-7.64c-5.13-3.93-16.64-11.39-22.49-13.51z" fill="#263238"/>
  <path d="M272.7 403.23c-.94-1-8-7.22-9.11-8.42-5.26-5.51-11.75-18.59-14-25.15-1.18-3.44-2.75-9-5.46-18.66s-15-58.23-18.39-66.9-35.53-33.75-35.53-33.75 8.34-12.15 6.83-36.25c-22.17 8.35-43.49 11.88-64.12 10.67a71 71 0 004.39 31.14c3.92 10.23 15.43 18.19 30.13 25.84 12.17 6.34 28.57 15.14 32 17 3 1.6 4.91 3.67 5.63 10.18.74 6.74 1.1 18 13.8 38.65 4.47 8.17 9.19 21.87 10.75 26.47l.34 2.4a6.57 6.57 0 001.82 4.12c1.11 1.24 2.28 2.4 3.52 3.54 3.29 3 9.6 9.93 13.94 14.88 6.25 7.13 13.64 8.42 20.31 7.94s3.98-2.83 3.15-3.7z" fill="#c8856a"/>
  <path d="M230.26 394.18c1.8 6.23 3.76 13.08 3.76 13.08a6.81 6.81 0 005.52 3l-1.36-14.2z" fill="#263238"/>
  <path d="M239.54 410.26l16.03-6.59-1.36-9.53-16.03 1.92 1.36 14.2z"/>
  <path d="M228.53 375.93c-.51-1.38.77-1.77 1.09-1.91l.42 1.44a17.62 17.62 0 0010.28 1c8.91-1.51 9.57-4.53 9.7-5.21 0 0-.23-1-.42-1.63.78-.29 1.39-.33 1.89 1.58.12.45 1.93 4.92 2.37 5.71a44.76 44.76 0 005.35 9.75 48.9 48.9 0 008.88 9.72c9.46 8.05 12.8 9.16 15.63 12 4.31 4.28-.53 10.23-13.29 12-8.43 1.13-17.64-1.16-20.86-4.43s-6.43-12.63-9-15-6.93-2.64-10.31-6.75c-2.14-7.61-.78-9.3-.92-13.27a14.93 14.93 0 00-.81-5zM130.9 223.35c-1.33 4.31-3.41 14.33-2.36 22.74s2.13 18 19.56 29.47c14.49 9.53 47.67 29.09 49.39 32.06s5.7 20.82 9.48 27.73c7 12.83 19.64 31.14 19.64 31.14 8.53 1.15 16.13-1 20.6-5.45 0 0-8.45-32.62-11.88-46.41-5.88-23.59-7.08-31-12.3-36.51s-7-7.21-7-7.21l-23.86-21.73s4.08-6.75 6-18.19a60.71 60.71 0 00.12-17.79s-41.15 15.15-67.39 10.15z" fill="#37474f"/>
  <path d="M146.26 251.83l-.21-.41c-5.38-6.67-4.77-13.67-4-22.81.14-1.54.27-3.15.38-4.8l1 .08c-.11 1.66-.24 3.26-.38 4.81-.76 8.74-1.33 15.46 3.53 21.78 6.22-4.13 3.75-14.72 2.23-21.15-.25-1.07-.48-2-.64-2.83l1-.18c.16.79.38 1.73.63 2.78 1.57 6.68 4.16 17.66-2.56 22.17a26.17 26.17 0 003 3c5.84 5 20.35 15.39 33.15 24.55 10.11 7.23 18.84 13.47 20.82 15.32 2.49 2.33 4.55 9.92 7.15 19.53 2.13 7.88 4.55 16.81 7.72 24.63a132.54 132.54 0 0016 27.91c-.38 0-.77.05-1.16.06a132.31 132.31 0 01-15.76-27.61c-3.2-7.87-5.62-16.83-7.76-24.74-2.46-9.08-4.58-16.93-6.88-19.07-1.93-1.8-10.64-8-20.72-15.24-12.82-9.17-27.34-19.56-33.22-24.6a28.31 28.31 0 01-3.19-3.21z" fill="#263238"/>
  <path d="M160 228.14a32.51 32.51 0 001.37 9.27 46.72 46.72 0 003.51 8.73A49.91 49.91 0 00170 254a41.88 41.88 0 006.58 6.66c-1.86-2.51-3.66-5-5.35-7.55s-3.24-5.18-4.64-7.88a80.9 80.9 0 01-3.8-8.31 78.22 78.22 0 01-2.79-8.78zm-2.12.29a30.86 30.86 0 00-1.07 7.88 51.54 51.54 0 00.51 7.95A55.7 55.7 0 00159 252a31.43 31.43 0 003.09 7.32c-.63-2.57-1.14-5.12-1.61-7.68s-.92-5.11-1.27-7.68-.68-5.14-.92-7.72-.35-5.15-.41-7.81zm43.85 39.36c3.65 3.91 7.44 7.69 11.05 11.57a78.48 78.48 0 015.13 6 26.74 26.74 0 013.83 6.68c.85 2.45 1.7 5 2.5 7.54l2.48 7.6q2.46 7.62 5.2 15.16-1.57-7.87-3.69-15.61c-1.42-5.16-2.88-10.26-4.69-15.37a26.22 26.22 0 00-4.22-7.09 62.11 62.11 0 00-5.49-6c-3.83-3.67-7.97-7.09-12.1-10.48zm44.63 89.97c-2.7 3.5-16.64 7.94-21.91 6.3l3.29 6.25s3.6 1.23 11.74-.63 8.65-5.24 8.65-5.24z" fill="#263238"/>
  <path d="M246.35 120.19c1.27-1.66 1.9-3.07 1.52-4.44a15.52 15.52 0 01-3-1.74s-.56.12-2.62.37-2.93-.18-3.7-1-.27-1.76 1.1-2.27 4.22-1.67 4.93-1.85 7.44 3.19 8.17 4.22.54 8-1.14 11.25-15.05 11.1-15.05 11.1-4.64 7-3.71 4.65c1.28-3.21-.31-8.5.39-15.29.31-3 1.42-8.6 1.55-10.79.15-2.48.67-2.93 1.89-2.44s2.33 1 2.25 6.31c-.08 4.78 1 4.75 2.05 4.64 1.48-.13 5.37-2.72 5.37-2.72z" fill="#c8856a"/>
  <path d="M251.66 112.63c-.07 1.34-.61 5.94-1.47 7.88a36.41 36.41 0 00.48-8.47z" fill="#af6152"/>
  <path d="M250 121c.54-1.43 1.34-4 1.35-9.15 0-6.49-.26-8.35.61-11.27 1-3.26 3.3-3.45 3.86-2.6s1.12 8.83 1.12 8.83 1.18 8.16-1 12.06A4.54 4.54 0 01250 121z" fill="#c8856a"/>
  <path d="M256.9 105.89s-.19-2.37-.35-3.8c-1.49 1.11-2.14 4-2.41 8-.25 3.71 0 8-2.45 12.18 0 0 1 1.18 2.54-4.4 1.2-4.28 1.68-9.29 2.67-11.98z" fill="#af6152"/>
  <path d="M259.67 110.41a38.87 38.87 0 01.8-6.84c.16-1.29-2.27-1.15-4 1.6s-1.79 5.73-2 9a14.23 14.23 0 01-5 10.25s4.14 2.07 6.62-1.86a20 20 0 003.58-12.15z" fill="#c8856a"/>
  <path d="M259.67 110.51v-.1a14.59 14.59 0 01.1-2.35c-1.84.55-3.07 3.26-3.38 6s-.21 4-.7 5.19-4 5.22-4 5.22a9.68 9.68 0 003.76-2c1.25-1.3 3.35-9.46 3.35-9.46z" fill="#af6152"/>
  <path d="M220.12 189.51c13 6.94 16.38 2.73 20.66-14.31 3.24-12.85 5.55-29 7-32.88a22.29 22.29 0 014-7.22c2.19-2.8 5.76-8.24 7.59-10.69a10.51 10.51 0 002.14-7.13c-.06-1.12.13-7.72-.45-7.77-1.17-.1-2.92-.08-3.84 3.74-.47 1.93-.41 4.81-.9 6.22a17.81 17.81 0 01-5.41 5.19c-3.07 2-6.16-1.62-10.29 2.14a18.42 18.42 0 00-5.1 7.17c-1.45 4.38-13.26 28.52-13.26 28.52s-1.34-1.47-11.86-11.69c-7.95-7.73-10.77-10.63-16-14.63s-13.4-3.92-13.4-3.92l.83 31.51s6.25 4.33 13.53 9.17c10.42 6.88 15.83 11.81 24.76 16.58z" fill="#c8856a"/>
  <path d="M222.21 162.49a44.59 44.59 0 00-3 18.84s-4-8.84 1-20.93zm25.87-38.77l-1.9.34a19.3 19.3 0 00-2.34.64 12.45 12.45 0 00-3.47 1.75 7 7 0 00-2.26 2.92 15.74 15.74 0 00-.75 4.15c0 .06.06.12.09 0a33.05 33.05 0 011.69-3.68 7.43 7.43 0 012.31-2.87 18.13 18.13 0 013.48-1.78 20.39 20.39 0 003.37-1.34c.08-.06.18-.16.13-.25z" fill="#af6152"/>
  <path d="M129.58 178.1c-2.84-13.87-1.12-29 5.23-39.61 5.75-1.73 13.2-4 13.2-4s12.27-1.88 22.37-2.29l10.66.09c6.31 5.44 20.83 18.62 24.19 28.86a20.26 20.26 0 01-8.13 22.66 78.94 78.94 0 00.74 15.51s5.51 6.88 6.12 14.36c-2.25 11.5-13 21.79-40.62 23.75-23 1.64-33.7-8.78-33.7-8.78-3.4-4 3.46-19.89 3-28.22a142.55 142.55 0 00-3.06-22.33z" fill="#f0f0f0"/>
  <path d="M174.62 186.89s-6.32 7-18 5c-12.05-2-13.85-12.21-13.85-12.21s-1.25 13.14 13.15 15.57c13.27 2.24 18.7-8.36 18.7-8.36z" fill="#e0e0e0"/>
  <path d="M138.83 77.1a12.3 12.3 0 016.47-4c2.42-.59 3.91-.55 6.22-1.48s4.09-2.41 6.28-3.33c4.82-2 10.62-.72 14.74 2.48 1.83 1.42 3.53 3.25 5.81 3.6a23 23 0 003.42 0c3.6 0 6.93 2.36 8.82 5.43a18.55 18.55 0 012.49 8c.28 2.79-.7 5.39-.54 8.16.12 2 1.38 3.84 2.62 5.38 1.66 2.07 3 3.66 3.84 6.29a12.74 12.74 0 01.59 6.26 6.33 6.33 0 01-3.76 4.77c.75-2-.36-4.72-1.61-6.42.46 1.86.73 6.48-4 10.47-3.32 2.8-8.12 3.85-12.52 3.84-4.61 0-9.27-1.6-13.85-.42a38 38 0 00-3.7 1.33 33.13 33.13 0 01-6.5 1.72c-2.12.34-4.28.17-6.38.46a13.79 13.79 0 01-9.87-2.37 15.49 15.49 0 01-5.92-12.14 7.14 7.14 0 00-1.43 3.45 10.08 10.08 0 01-2-8.91c.65-2.41 2.2-4.57 2.39-7 .17-2.15-.71-4.24-.93-6.38a11 11 0 017.86-11.38 10.16 10.16 0 011.46-7.81z" fill="#263238"/>
  <path d="M139.47 103.5c2.94-1.22 5.5-.19 7.18 2.89 1.47 2.68 4.36 1.63 3.54-2.57 6.51-6.57-1.39-10.41 3.95-16.73 3.32-3.94 10.7-3.13 13.71-.81a7.2 7.2 0 018.23-3.58c3.12 1 5.14 2.78 6.74 7 1.68 4.42.11 5.31 1 8.43.33 1.22 1.62 3.58 1.77 6.69.68 14.75-2.28 18.57-5.46 21.09-2.19 1.73-5 2.7-9.88 2.89l.35 6.91a46.68 46.68 0 018.67 23.29 142.68 142.68 0 01-18.14-11.41 68.88 68.88 0 01-13-12.17l-1-19c-.63 1.7-4 3.65-7.54.93-4.51-3.43-5.32-11.69-.12-13.85z" fill="#c8856a"/>
  <path d="M181.18 95.94l-4.79-1.79a2.44 2.44 0 013.2-1.55 2.69 2.69 0 011.59 3.34zm-17.35-.74l-4.5 2.41a2.45 2.45 0 01.95-3.43 2.68 2.68 0 013.55 1.02z" fill="#263238"/>
  <path fill="#af6152" d="M169.14 98.29l3.37 13.85 7.01-4.09-10.38-9.76z"/>
  <path d="M172.26 115.66c-.44-.25-1-.1-1.53-.13a8.42 8.42 0 01-1.2-.22 5.77 5.77 0 01-2-1 .61.61 0 00-.67-.09.37.37 0 00-.18.21v.11a.29.29 0 000 .1v.09a.46.46 0 00.11.22 1.87 1.87 0 00.32.31 4.32 4.32 0 00.58.36 7.37 7.37 0 001.34.54 5.61 5.61 0 003.22 0 .3.3 0 00.16-.22v.06a.32.32 0 00-.15-.34z" fill="#874c4c"/>
  <path d="M169.31 117.62h-.59a2.09 2.09 0 01-.43-.11c-.14 0-.27-.12-.4-.18a.88.88 0 00-.26-.12c-.2 0-.2.2-.13.33a1 1 0 00.31.27l.2.12a4.22 4.22 0 00.45.18 3.2 3.2 0 00.42.1.88.88 0 00.28 0 .5.5 0 00.27 0c.17-.21.02-.54-.12-.59z" fill="#af6152"/>
  <path d="M165.34 102.34c.07 1.17-1.07-.25-2.41-.17s-2.37 1.64-2.44.46a2.45 2.45 0 014.85-.29zM181 100.9c.07 1.18-1.07-.25-2.41-.16s-2.37 1.64-2.44.46a2.45 2.45 0 014.85-.3z" fill="#263238"/>
  <path d="M170.2 128.81c-4.74-.15-15.1-1.89-19.15-7.09 0 0 .53 3.84 7.81 7.18 4.81 2.21 11.47 2.44 11.47 2.44z" fill="#af6152"/>
  <path d="M85.87 144.47c-1.25-1.68-1.86-3.09-1.45-4.46a15.4 15.4 0 003-1.68s.56.13 2.62.42 2.93-.14 3.72-.92.3-1.76-1.06-2.3-4.19-1.73-4.9-1.92-7.5 3.06-8.25 4.07-.67 8 1 11.27 14.85 11.36 14.85 11.36 4.52 7.06 3.6 4.69c-1.22-3.23.46-8.49-.12-15.3-.26-3-1.27-8.62-1.37-10.81-.11-2.49-.62-2.95-1.85-2.47s-2.35 1-2.35 6.27c0 4.78-1 4.73-2.14 4.6-1.46-.15-5.3-2.82-5.3-2.82z" fill="#c8856a"/>
  <path d="M80.68 136.83c0 1.34.51 5.95 1.33 7.91a36.46 36.46 0 01-.33-8.48z" fill="#af6152"/>
  <path d="M82.17 145.19c-.52-1.43-1.27-4-1.19-9.16.09-6.49.4-8.35-.43-11.29-.91-3.27-3.24-3.5-3.81-2.66s-1.26 8.81-1.26 8.81-1.33 8.11.78 12.11a4.53 4.53 0 005.91 2.19z" fill="#c8856a"/>
  <path d="M75.56 130s.23-2.36.41-3.8c1.48 1.15 2.07 4 2.27 8.1.19 3.72-.17 8 2.25 12.22 0 0-1 1.16-2.47-4.45-1.12-4.35-1.52-9.36-2.46-12.07z" fill="#af6152"/>
  <path d="M72.71 134.47a38.76 38.76 0 00-.68-6.85c-.14-1.3 2.29-1.11 3.92 1.66s1.69 5.77 1.84 9a14.24 14.24 0 004.78 10.34s-4.18 2-6.59-2a20 20 0 01-3.27-12.15z" fill="#c8856a"/>
  <path d="M72.71 134.57v-.1a15.63 15.63 0 00-.06-2.35c1.83.58 3 3.31 3.28 6.06s.14 3.95.61 5.2 3.87 5.28 3.87 5.28a9.67 9.67 0 01-3.72-2c-1.23-1.32-3.19-9.51-3.19-9.51z" fill="#af6152"/>
  <path d="M139.19 160.51c0-13.39-4.38-22-4.38-22-7.39 2.56-11.77 3.41-15.48 12.42-2.5 6.06-12.58 27.22-13.4 29.6-3.33-7.17-8.41-18.82-9.43-22.06a18.38 18.38 0 00-5-7.26c-4.07-3.84-7.22-.26-10.26-2.32a17.94 17.94 0 01-5.24-5.3c-.46-1.42-.35-4.3-.78-6.24-.86-3.83-2.61-3.88-3.78-3.8-.58 0-.51 6.64-.59 7.76a10.51 10.51 0 002 7.17c1.79 2.48 4.56 7.43 6.7 11.11a44.09 44.09 0 013.56 8.07c1.35 3.9 3.21 17.44 6.65 30.23 3.66 13.67 7.85 18.26 11 19.78 6.43 3.16 13.15-3.56 17.16-9.6 5.35-8.06 9.64-14.24 14.44-22.29a52.16 52.16 0 006.83-25.27z" fill="#c8856a"/>
  <path d="M105.93 180.51c3.95 8.21 6 14.4 5.24 22.54 3.51-7.71-.29-19.7-4.11-25.17zM84.07 148l1.89.38a19 19 0 012.34.68 12.25 12.25 0 013.43 1.81 7.14 7.14 0 012.22 3 15.8 15.8 0 01.68 4.16c0 .06-.06.12-.09 0a37.22 37.22 0 00-1.63-3.71 7.34 7.34 0 00-2.27-2.9 17.35 17.35 0 00-3.45-1.85 20.34 20.34 0 01-3.34-1.4c-.08-.05-.18-.16-.12-.24z" fill="#af6152"/>
  <path d="M200.88 96.84a2.08 2.08 0 01-.93-.22 2.08 2.08 0 01-.92-2.8 2.08 2.08 0 012.8-.92 2.17 2.17 0 011 1.21 2.09 2.09 0 01-2 2.73zm0-3.48a1.31 1.31 0 00-.44.07 1.35 1.35 0 00-.82.7 1.37 1.37 0 00-.08 1.07 1.4 1.4 0 002.59.2 1.4 1.4 0 00.08-1.08 1.36 1.36 0 00-.7-.81 1.39 1.39 0 00-.62-.15zm9.56 4.64a4 4 0 01-4-3.48 3.93 3.93 0 01.78-3 4 4 0 015.62-.76 4 4 0 01-2.43 7.2zm0-7.35a3.4 3.4 0 00-.45 0 3.34 3.34 0 00-2.86 3.75 3.26 3.26 0 001.28 2.21 3.33 3.33 0 004-5.3 3.28 3.28 0 00-1.96-.63zM221.73 93a5.52 5.52 0 115.47-6.25 5.51 5.51 0 01-5.47 6.25zm0-10.36a4.85 4.85 0 103.85 7.78 4.84 4.84 0 00-3.85-7.78zm30 6.78A32.4 32.4 0 11284.13 57a32.43 32.43 0 01-32.4 32.42zm0-64.11A31.72 31.72 0 10283.45 57a31.76 31.76 0 00-31.72-31.69z" fill="#455a64"/>
  <path d="M251.73 65.68l-.25-.15c-.29-.17-7.21-4.25-7.82-12.31-.47-6.25 2.3-11.84 7.78-15.73l.29-.21.29.21c5.49 3.89 8.25 9.48 7.78 15.73-.6 8.06-7.52 12.14-7.82 12.31zm0-27.17c-5 3.68-7.5 8.86-7.07 14.63.5 6.71 5.84 10.57 7.07 11.37 1.23-.8 6.58-4.67 7.08-11.37.43-5.77-2.08-10.95-7.08-14.63z" fill="#34a37e"/>
  <path d="M246.67 66.39a14.43 14.43 0 01-8.53-2.65c-4.84-3.48-7.22-8.91-6.7-15.29v-.35l.34-.09C238 46.39 243.76 47.79 248 52c5.51 5.38 4.25 12.92 4.19 13.24l-.05.28-.27.1a16.47 16.47 0 01-5.2.77zm-14.26-17.5c-.37 5.86 1.86 10.83 6.32 14 5.14 3.7 11.19 2.2 12.55 1.79.16-1.41.59-7.62-3.95-12-3.93-3.84-9.21-5.18-14.92-3.79z" fill="#34a37e"/>
  <path d="M239.33 74.15a15.14 15.14 0 01-10.72-4.68l-.25-.25.15-.32c2.46-5.19 6.75-8.34 12.08-8.88 6.88-.69 11.34 4.54 11.52 4.76l.19.22-.1.27c-.1.27-2.5 6.71-9.2 8.41a14.55 14.55 0 01-3.67.47zM229.57 69a13.72 13.72 0 0013.18 3.7c5.42-1.38 7.87-6.29 8.4-7.51-.92-1-4.88-4.75-10.46-4.18A13.74 13.74 0 00229.57 69z" fill="#34a37e"/>
  <path d="M264.13 74.15a14.47 14.47 0 01-3.66-.47c-6.7-1.7-9.11-8.14-9.21-8.41l-.1-.27.19-.22c.19-.22 4.66-5.44 11.53-4.76 5.32.54 9.61 3.69 12.08 8.88l.15.32-.26.25a15.12 15.12 0 01-10.72 4.68zm-11.82-9c.53 1.22 3 6.13 8.4 7.51A13.73 13.73 0 00273.9 69a13.75 13.75 0 00-11.12-8c-5.59-.55-9.55 3.24-10.47 4.2z" fill="#34a37e"/>
  <path d="M256.79 66.39a16.47 16.47 0 01-5.23-.82l-.27-.1v-.28c-.06-.32-1.32-7.86 4.19-13.24 4.27-4.16 10-5.56 16.22-3.94l.35.09v.35c.51 6.38-1.87 11.81-6.71 15.29a14.43 14.43 0 01-8.55 2.65zm-4.61-1.67c1.37.41 7.41 1.91 12.56-1.79a15.43 15.43 0 006.32-14c-5.71-1.39-11 0-14.93 3.78-4.54 4.39-4.13 10.6-3.95 12.01z" fill="#34a37e"/>
  <path fill="#455a64" d="M240.65 361.65l-4.53-2.61-7.5 119.54 4.53 2.61 7.5-119.54z"/>
  <path fill="#37474f" d="M240.65 361.65l6.77-3.91-9.75 120.84-4.52 2.61 7.5-119.54z"/>
  <path fill="#455a64" d="M369.61 287.23l-4.53-2.61 9.75 109.58 4.53 2.61-9.75-109.58z"/>
  <path fill="#37474f" d="M369.61 287.23l6.77-3.91 7.5 110.88-4.53 2.61-9.74-109.58z"/>
  <path fill="#455a64" d="M140.96 304.09l-4.52-2.61-7.5 119.54 4.52 2.61 7.5-119.54z"/>
  <path fill="#37474f" d="M140.96 304.09l6.77-3.91-9.75 120.84-4.52 2.61 7.5-119.54z"/>
  <path fill="#455a64" d="M269.92 229.67l-4.53-2.61 9.75 109.58 4.53 2.61-9.75-109.58z"/>
  <path fill="#37474f" d="M269.92 229.67l6.77-3.91 7.5 110.88-4.52 2.61-9.75-109.58z"/>
  <path d="M114.27 315.43v-6.19a2.45 2.45 0 011.11-1.92l169-97.62a2.46 2.46 0 012.21 0L394 271.84a2.45 2.45 0 011.11 1.92v6.18a2.45 2.45 0 01-1.11 1.92l-169 97.62a2.46 2.46 0 01-2.21 0l-107.41-62.14a2.44 2.44 0 01-1.11-1.91z" fill="#34a37e"/>
  <path d="M114.27 315.43v-6.19a2.45 2.45 0 011.11-1.92l169-97.62a2.46 2.46 0 012.21 0L394 271.84a2.45 2.45 0 011.11 1.92v6.18a2.45 2.45 0 01-1.11 1.92l-169 97.62a2.46 2.46 0 01-2.21 0l-107.41-62.14a2.44 2.44 0 01-1.11-1.91z" opacity=".2"/>
  <path d="M223.88 371v8.74a2.36 2.36 0 01-1.11-.26l-107.39-62.14a2.44 2.44 0 01-1.11-1.91v-6.19a2.44 2.44 0 01.9-1.77c-.4.34-.33.81.21 1.13l107.39 62.14a2.36 2.36 0 001.11.26z" fill="#34a37e"/>
  <path d="M223.88 371v8.74a2.36 2.36 0 01-1.11-.26l-107.39-62.14a2.44 2.44 0 01-1.11-1.91v-6.19a2.44 2.44 0 01.9-1.77c-.4.34-.33.81.21 1.13l107.39 62.14a2.36 2.36 0 001.11.26z" opacity=".4"/>
  <path d="M115.38 308.6l107.39 62.13a2.4 2.4 0 002.21 0l169-97.61a.68.68 0 000-1.28L286.62 209.7a2.46 2.46 0 00-2.21 0l-169 97.62a.68.68 0 00-.03 1.28z" fill="#34a37e"/>
  <ellipse cx="200.12" cy="318.75" rx="24.1" ry="13.91" opacity=".2"/>
  <path d="M216.49 307.05c-9-5.22-23.71-5.22-32.75 0-4.52 2.62-6.78 6-6.78 9.46v1c0 3.42 2.26 6.84 6.78 9.45 9 5.22 23.71 5.22 32.75 0 4.52-2.61 6.78-6 6.78-9.45v-1c.01-3.42-2.27-6.84-6.78-9.46z" fill="#f0f0f0"/>
  <path d="M192.43 329.12v-25.23a29.25 29.25 0 00-8.69 3.16c-4.52 2.62-6.78 6-6.78 9.46v1c0 3.42 2.26 6.84 6.78 9.45a30.15 30.15 0 0010.62 3.5c-1.83-.35-1.93-1.34-1.93-1.34z" opacity=".1"/>
  <path d="M216.49 307.05c-9-5.22-23.71-5.22-32.75 0s-9 13.69 0 18.91 23.71 5.22 32.75 0 9.05-13.68 0-18.91z" fill="#fff"/>
  <path d="M212.11 310.07c-6.62-3.83-17.36-3.83-24 0s-6.62 10 0 13.85 17.37 3.82 24 0 6.62-10.03 0-13.85z" fill="#f0f0f0"/>
  <path d="M210.62 311.59c-5.8-3.36-15.21-3.36-21 0s-5.81 8.78 0 12.13 15.21 3.35 21 0 5.81-8.78 0-12.13z" fill="#fff"/>
  <path d="M183.6 325.19a26.79 26.79 0 006.08 2.3 37.57 37.57 0 006.41 1 43.8 43.8 0 006.48 0 39.23 39.23 0 006.39-1 28.18 28.18 0 006-2.24 16.34 16.34 0 005.08-3.86 9.84 9.84 0 001.63-2.73 7.24 7.24 0 00.47-3.13 8 8 0 00-.86-3.08 9.26 9.26 0 00-.86-1.37 10.38 10.38 0 00-1-1.26 11.53 11.53 0 011.12 1.2 9.83 9.83 0 01.92 1.36 8 8 0 011 3.13 7.69 7.69 0 01-.39 3.29 10 10 0 01-1.64 2.89 13.69 13.69 0 01-2.39 2.3 20 20 0 01-2.79 1.78 28.48 28.48 0 01-6.17 2.3 39.08 39.08 0 01-13.06.94 34.36 34.36 0 01-6.44-1.22 28.38 28.38 0 01-3.09-1.1 22.85 22.85 0 01-2.89-1.5z" fill="#fff"/>
  <path d="M208.45 311.85c-4.6-2.66-12.07-2.66-16.67 0s-4.61 7 0 9.63 12.07 2.66 16.68 0 4.6-6.97-.01-9.63z" fill="#f0f0f0"/>
  <path d="M208.43 319.82l-15.18-8.41-16.25 5.13c0 3.41 2.27 6.82 6.78 9.42a28.7 28.7 0 008.69 3.16z" opacity=".1"/>
  <path d="M214.45 315.35a8.23 8.23 0 003.23-.45c1.43-.53 2.68-2.07 3.81-4.71 1-2.23 2.49-7.12 1.41-9.64-1.37-3.2-5.25-3.31-7.82-3.39h-.89l-.14 3.06c.31 0 .79.11 1.12.12 1.45 0 4.64.54 5 1.36 1.2 2-1.86 9.61-3.2 10.43a11.7 11.7 0 01-5 0l-1 2.56a11.69 11.69 0 003.48.66z" fill="#e0e0e0"/>
  <path d="M187.44 293.47c.29-1.31 1.57-2.59 3.86-3.61 5.28-2.36 13.87-2.45 19.2-.2 2.3 1 3.62 2.22 3.94 3.52h.07c1 8.56-.43 18.52-3.42 24.05l-.06.11a.36.36 0 000 .09 6.65 6.65 0 01-2.48 2.39 16.1 16.1 0 01-14.56.15 6.44 6.44 0 01-2.53-2.34.25.25 0 000-.07l-.07-.13c-3.11-5.46-4.74-15.38-3.93-24z" fill="#ebebeb"/>
  <path d="M194.36 318.3c-3.76-3.08-4.13-13.32-4-19.36l1.63-9.35-.67.27c-2.29 1-3.57 2.3-3.86 3.61h-.08c-.81 8.58.82 18.5 3.93 24l.07.13a.25.25 0 010 .07 6.44 6.44 0 002.53 2.34c3.78 2.13 9.71 2.21 13.74.28a14 14 0 01-13.29-1.99z" fill="#e0e0e0"/>
  <path d="M191.28 288.44c-5.27 3.15-5.21 8.15.12 11.18s13.93 2.94 19.2-.2 5.22-8.15-.12-11.18-13.93-2.94-19.2.2z" fill="#fafafa"/>
  <path d="M192.44 289.63c-4.64 2.48-4.6 6.4.1 8.78s12.26 2.29 16.9-.18 4.61-6.4-.09-8.78-12.26-2.29-16.91.18z" fill="#e0e0e0"/>
  <path d="M192.5 294.93a8.23 8.23 0 00-2.33 1.77 8.46 8.46 0 002.36 1.71c4.7 2.37 12.27 2.29 16.91-.18a8.4 8.4 0 002.33-1.76 8.27 8.27 0 00-2.36-1.71c-4.7-2.38-12.27-2.3-16.91.17z" fill="#34a37e"/>
  <path d="M192.5 294.93a8.23 8.23 0 00-2.33 1.77 8.46 8.46 0 002.36 1.71c4.7 2.37 12.27 2.29 16.91-.18a8.4 8.4 0 002.33-1.76 8.27 8.27 0 00-2.36-1.71c-4.7-2.38-12.27-2.3-16.91.17z" opacity=".5"/>
  <path d="M202.43 331.25h-.06L181 319.26a3.06 3.06 0 00.55-1.54v-.13c0-.69-.53-1.44-1.65-2.21-2.34-1.61-7.72-3-10-1.7a1.62 1.62 0 00-.85 1.89 6.28 6.28 0 001.77 3l.22.22.27.26a8.53 8.53 0 002.05 1.44 6.91 6.91 0 00.68.28 7.52 7.52 0 001.11.3 9.4 9.4 0 001.74.15 5.32 5.32 0 002.79-.78L200 332.69c.64.37 2.45-.57 2.45-1.11v-.32z" opacity=".1"/>
  <path d="M176.9 320.44c2.54 0 4.63-1.76 4.63-3.66l-12.51-2a7 7 0 002.3 3.51 7.56 7.56 0 005.58 2.15z" fill="#ebebeb"/>
  <path d="M176.9 320.44c2.54 0 4.63-1.76 4.63-3.66l-12.51-2a7 7 0 002.3 3.51 7.56 7.56 0 005.58 2.15z" opacity=".15"/>
  <path d="M180.89 317.06c0 1.37-1.6 3.06-4.14 3.05a8.92 8.92 0 01-6.39-2.85 11 11 0 001 1 7.56 7.56 0 005.58 2.17c2.54 0 4.63-1.76 4.63-3.66l-.65-.11c-.03.15-.03.34-.03.4z" opacity=".15"/>
  <path d="M179.88 314.57c-2.34-1.61-7.72-3-10-1.7s.16 4.43 2.95 5.78a7.62 7.62 0 007.21.09c1.87-1.09 2.15-2.58-.16-4.17z" fill="#e6e6e6"/>
  <path d="M172.36 312.48a15.1 15.1 0 017.44 2.2q1.63 1.13 1.59 2.19c0 .62-.52 1.23-1.43 1.75a6.42 6.42 0 01-3.26.85 8.85 8.85 0 01-3.83-.94c-2.06-1-3.72-2.83-3.77-4.16a1.47 1.47 0 01.84-1.38 4.81 4.81 0 012.42-.51m0-.13a5.16 5.16 0 00-2.49.52c-2.29 1.32.16 4.43 2.95 5.78a8.84 8.84 0 003.88 1 6.62 6.62 0 003.33-.86c1.88-1.09 2.16-2.58-.15-4.17a15.33 15.33 0 00-7.52-2.22z" fill="#e0e0e0"/>
  <path d="M178.56 314.91c-2.28-1.52-7.05-3-8.68-1.84s1 4 3.64 5.28 4.68 1.22 6 .3 1.29-2.24-.96-3.74z" fill="#f0f0f0"/>
  <path d="M176 314.35c-1.61-1.07-5-2.09-6.16-1.3s.75 2.83 2.59 3.75 3.32.86 4.27.21.9-1.59-.7-2.66z" fill="#fafafa"/>
  <path d="M202.29 330.25l-21.62-11.95a6.33 6.33 0 01-1.38.8v.32L200 331.9c.64.37 2.45-.57 2.45-1.11v-.32a.24.24 0 00-.16-.22z" fill="#e0e0e0"/>
  <path d="M202.29 330.25l-21.62-11.95a6.1 6.1 0 01-1.38.8v.32L200 331.9c.64.37 2.45-.57 2.45-1.11v-.32a.24.24 0 00-.16-.22z" opacity=".25"/>
  <path d="M200 331.58c.74.43 3.05-.9 2.31-1.33l-21.64-11.95a6.68 6.68 0 01-1.38.8z" fill="#f0f0f0"/>
  <path d="M180.8 318.64l19.39 10.66c1.48.81 2.37 1.18 1.44 1.72-1.1.63-1.37.35-1.37.35a2.37 2.37 0 001-.35c.55-.35.07-.83-1-1.35s-19.46-11.03-19.46-11.03z" fill="#fafafa"/>
  <path d="M205.84 272.65c-1.53-5-7.26-8.26-7.26-8.26s3.52 4.56 3.37 8.5-3.3 6.71-4.53 10.77a12.05 12.05 0 003.58 12.92s-2.39-6.24.21-10.88c1.5-2.7 6.15-7.99 4.63-13.05zm2.34 1.37a9.43 9.43 0 01-.84 5.88 36.23 36.23 0 01-4.5 6.67c-2 2.58-1.73 7.26.24 10a16.13 16.13 0 012.52-7.91c1.16-1.75 4.45-4.91 5-8.44a6.06 6.06 0 00-2.42-6.22zm-8.94 2.8a14.54 14.54 0 00-4.94 4.09c-1.81 2.6-1.06 5.62 1.22 8.89-1.2-4.89.74-9.29 3.72-12.98z" fill="#fff" opacity=".5"/>
  <path d="M336 257l-41.85-24.16a2.41 2.41 0 00-2.41 0l-72.59 41.92a.54.54 0 000 .93l42.24 24.39z" opacity=".2"/>
  <path d="M332.89 251.89v.94a3.86 3.86 0 01-1.93 3.35l-67.62 39a3.93 3.93 0 01-3.87 0L222.61 274a3.88 3.88 0 01-1.93-3.35v-1.3a.46.46 0 00.24.42l40.48 23.38z" fill="#37474f"/>
  <path d="M332.9 251.89l-40.1-23.15a2.3 2.3 0 00-2.3 0l-69.57 40.17a.52.52 0 000 .89l40.48 23.37z" fill="#455a64"/>
  <path fill="#37474f" d="M261.04 289.76l-21.63-12.47 63.24-36.51 21.74 12.41-63.35 36.57z"/>
  <path fill="#263238" d="M324.38 253.19l-.82.47-20.92-11.93-62.4 36.04-.83-.48 63.23-36.51 21.74 12.41zm-73.97 1.87l.4.23 10.6 6.12 18.85-10.88.39-.22-11-6.35-19.24 11.1z"/>
  <path fill="#37474f" d="M250.81 255.29l10.6 6.12 18.85-10.88-10.61-6.12-18.84 10.88z"/>
  <path d="M261.41 293.16v2.58a3.83 3.83 0 001.93-.52l67.62-39a3.87 3.87 0 001.94-3.35v-.94z" fill="#263238"/>
  <path d="M262.5 293.73a4.56 4.56 0 003.94-.3l67.33-38.87a4.6 4.6 0 002.23-3.2l7.37-44a4.74 4.74 0 00.06-.75 4.57 4.57 0 00-1.36-3.25l-70 40.4a3.39 3.39 0 00-1.65 2.37z" fill="#37474f"/>
  <path d="M261.41 293.17l.46.26a3.64 3.64 0 00.63.3l8-47.56a3.39 3.39 0 011.65-2.37l70-40.4a4.32 4.32 0 00-.93-.71L271 243.16a3.4 3.4 0 00-1.64 2.37z" fill="#455a64"/>
  <path d="M271.11 244.69l-1.08-.62a3.32 3.32 0 00-.64 1.46l-8 47.64.46.26a3.64 3.64 0 00.63.3l8-47.56a3.53 3.53 0 01.63-1.48z" fill="#263238"/>
  <path d="M300.42 253.16c.49-2.94 3.53-6.85 6.78-8.73s5.49-1 5 1.92-3.53 6.86-6.79 8.74-5.49 1.01-4.99-1.93z" fill="#34a37e"/>
</svg>
