<svg xmlns="http://www.w3.org/2000/svg" viewBox="0 0 500 500">
  <path fill="#ebebeb" d="M0 382.4h500v.25H0zm394.67 16.09h55.23v.25h-55.23zm-72.86-5.24h8.69v.25h-8.69zm50.66-4.04h19.19v.25h-19.19zm-320.01 1.68h43.19v.25H52.46zm162.87 6.46h45.72v.25h-45.72zm-74.87-4.23h93.68v.25h-93.68zm102.26-61.03a5.71 5.71 0 01-5.72 5.71H43.91a5.71 5.71 0 01-5.7-5.71V60.66a5.71 5.71 0 015.7-5.66H237a5.71 5.71 0 015.71 5.71m-.25 0A5.47 5.47 0 00237 55.2H43.91a5.46 5.46 0 00-5.45 5.46v271.43a5.46 5.46 0 005.45 5.46H237a5.47 5.47 0 005.46-5.46m210.85 5.71h-193.1a5.72 5.72 0 01-5.71-5.71V60.66a5.72 5.72 0 015.71-5.66h193.1a5.71 5.71 0 015.69 5.66v271.43a5.71 5.71 0 01-5.69 5.71zM260.21 55.2a5.47 5.47 0 00-5.46 5.46v271.43a5.47 5.47 0 005.46 5.46h193.1a5.47 5.47 0 005.46-5.46V60.66a5.47 5.47 0 00-5.46-5.46z"/>
  <path fill="#f0f0f0" d="M108.33 70.84h247.48v144H108.33z"/>
  <path fill="#f5f5f5" d="M115.2 70.84h276.47v144H115.2z"/>
  <path fill="#fff" d="M131.29 203.5V82.2h244.29v121.3z"/>
  <path fill="#fafafa" d="M131.29 120.88V82.19h244.29v38.69z"/>
  <path fill="#f0f0f0" d="M131.29 203.5v-51.16h244.29v51.16z"/>
  <path d="M72.52 226C63.92 255 70 334.62 70 334.62h9.74c4.74-25.92-3.22-90.91-7.22-108.62z" fill="#e6e6e6"/>
  <path d="M69.1 333.49h7.18s-9.13-69.44-18.59-92.27c-2.61 30.33 11.41 92.27 11.41 92.27z" fill="#f0f0f0"/>
  <path d="M121.79 237.47c3.39 25.82-17.13 96.85-17.13 96.85h-9.8c-.11-23.11 19.69-81.08 26.93-96.85z" fill="#e6e6e6"/>
  <path d="M105.71 333.32H98.5s21.79-61.94 35.44-82.3c-2.88 27.05-28.23 82.3-28.23 82.3z" fill="#f0f0f0"/>
  <path d="M106.62 230.45c6.19 27.73-12.8 104-12.8 104H82.01c-2.01-24.81 17.16-87.07 24.61-104z" fill="#e6e6e6"/>
  <path d="M85.81 333.49h-7.17s1.42-69.44 8.34-92.27c6.02 30.33-1.17 92.27-1.17 92.27z" fill="#f0f0f0"/>
  <path d="M57.69 324.69c0 31.87 13.36 57.71 29.84 57.71s29.83-25.84 29.83-57.71z" fill="#f0f0f0"/>
  <path fill="#e0e0e0" d="M376.17 382.4h55.18V261.46l-55.18 19.41V382.4z"/>
  <path fill="#e6e6e6" d="M236.19 382.4h184.77l13.49-137.76H249.69l-13.5 137.76z"/>
  <path fill="#f0f0f0" d="M214.07 382.4h204.38l13.49-137.76H227.56L214.07 382.4z"/>
  <path fill="#fff" d="M404.95 365.58l13.5-104.12H241.07l-13.51 104.12h177.39z"/>
  <path fill="#fafafa" d="M328.73 365.58l55.82-104.12h-18.92l-55.82 104.12h18.92zm-26.93 0l55.82-104.12h-32.26l-55.82 104.12h32.26z"/>
  <ellipse cx="250" cy="416.24" rx="193.89" ry="11.32" fill="#f5f5f5"/>
  <path d="M203.75 280.22s-23.81 12.46-61.65.73c2.64-18.32 7.15-74.6 7.15-74.6H194z"/>
  <path d="M188.23 140.29c1.74 3.38 3.32 6.71 4.88 10.11s3 6.82 4.46 10.3l2.1 5.24c.66 1.77 1.33 3.53 2 5.34a111.63 111.63 0 013.43 11.25l.13.54a4.94 4.94 0 01.1 1.75c-.31 2.61-.7 5.2-1.15 7.78s-1 5.14-1.57 7.69-1.27 5.07-2 7.57-1.56 5-2.59 7.5a3.86 3.86 0 01-7.44-1.59v-.12l.29-7.45c.09-2.5.2-5 .27-7.47s.15-5 .22-7.43.07-4.93.12-7.39l.23 2.29c-1-3.08-2.37-6.36-3.73-9.62s-2.86-6.54-4.35-9.82l-4.63-9.85-4.58-9.82a7.69 7.69 0 0113.81-6.78z"/>
  <path d="M149.35 149.73c-1 2.72-2 5.69-3 8.56s-1.81 5.83-2.63 8.75a123.47 123.47 0 00-3.68 17.38c-.17 1.41-.3 2.8-.34 4.11v.4a.9.9 0 000-.19v.15a6.37 6.37 0 00.43 1.19 27.56 27.56 0 001.82 3.31c.73 1.17 1.55 2.35 2.4 3.53A137.82 137.82 0 00156 210.65a6.43 6.43 0 01-9.22 9c-2.36-2.4-4.48-4.74-6.68-7.18s-4.31-4.93-6.37-7.59c-1-1.33-2-2.71-3-4.18a39.36 39.36 0 01-2.85-4.87 21.54 21.54 0 01-1.27-3.2 13.54 13.54 0 01-.6-3.52v-.78c0-1.83.1-3.57.24-5.3a137.26 137.26 0 013.4-19.62c.75-3.16 1.58-6.29 2.43-9.41s1.75-6.17 2.79-9.4a7.7 7.7 0 0114.66 4.73l-.12.32z" fill="#263238"/>
  <path d="M147.8 138.41c1.21-.23 2.44-.43 3.67-.61A170.32 170.32 0 01171 136h2.38c1.66.06 3.25.17 4.69.3a9.14 9.14 0 018 6.92c2.48 10.2 6.69 33.15 5.76 68.81l-46 2.45a337.39 337.39 0 00-7.53-64.66 9.15 9.15 0 017-10.95c.83-.14 1.7-.31 2.5-.46z" fill="#fff"/>
  <path d="M151.36 115.68c1.81 6.16 4.11 17.53.11 22.12 3.53 3 6 5.54 13.05 4.74 5.38-.62 7.83-4.58 6.43-6.55-7.14-1-7.45-6.22-6.68-11.21z" fill="#b55b52"/>
  <path d="M163.45 142.69a6.94 6.94 0 00-1.64 6.1c-5.73-1-12-6.58-12.9-8.95l2.55-3.17a1 1 0 011.4-.18c2.98 2.32 4.7 4.69 10.59 6.2zm2.09-.32a13.94 13.94 0 013.92 5.23c3.76-1.47 4.33-8.31 3.81-11.42l-3.34-.94a.82.82 0 00-1.05.71c-.17 1.58-1.24 5.49-3.34 6.42z" fill="#e0e0e0"/>
  <path d="M156.62 119.4l7.64 5.38a21.1 21.1 0 00-.28 3.51c-2.7-.14-6.64-2.73-7.19-5.5a9.57 9.57 0 01-.17-3.39z" opacity=".2"/>
  <path d="M169.37 109.06a8.13 8.13 0 00.17 6.19c1.18 2.6 3.94 2.06 5.43-.19 1.34-2 2.34-5.81.28-7.67s-4.91-.78-5.88 1.67z" fill="#b55b52"/>
  <path d="M169.37 109.06a8.13 8.13 0 00.17 6.19c1.18 2.6 3.94 2.06 5.43-.19 1.34-2 2.34-5.81.28-7.67s-4.91-.78-5.88 1.67z" opacity=".2"/>
  <path d="M149.73 106.32c1.32 8.44 1.65 13.45 6.35 17.4 7.06 6 17.17 1.09 18.41-7.57 1.11-7.79-1.22-20.29-9.85-22.89a11.65 11.65 0 00-14.91 13.06z" fill="#b55b52"/>
  <path d="M153.87 115.35c1-1.71 4.42-6.48.76-10.75 2.14.33 11.1-4.52 11.05-6.72 2.08 1.34 6.95 1.53 7.3-1.65.45-4.06-3.39-8-8.72-8.55s-7.86 1.56-10.91 1.13a4 4 0 002.65 1.25s-9.43 1.47-13.4 6.57c-3.09 4 .49 4.85.49 4.85s-8.16 8.31 10.78 13.87z" fill="#263238"/>
  <path d="M154.29 113h-.19a11.51 11.51 0 01-4.18-2.46.55.55 0 01.79-.76 10.55 10.55 0 003.77 2.18.56.56 0 01.33.71.55.55 0 01-.52.33zm1.88 10h-.18a9.58 9.58 0 01-4.13-3.08.55.55 0 01.89-.64 8.7 8.7 0 003.6 2.69.54.54 0 01-.18 1.06z" fill="#34a37e"/>
  <path d="M144.18 99.67s-4.11 1.6-5.49-.44c.13 3.28 5.51 2.14 5.51 2.14z" fill="#263238"/>
  <path d="M145.91 103.68s-3.66-2.45-5.45-.76c.84-3.17 5.84-.89 5.84-.89z" fill="#263238"/>
  <path d="M147.21 116a7.27 7.27 0 004.93 3.13c2.83.35 2.89-2 1.94-4.54-.86-2.27-3-5.22-5.65-4.44s-2.81 3.75-1.22 5.85z" fill="#b55b52"/>
  <path d="M162.83 107.49c.06.7.48 1.22.93 1.18s.77-.64.71-1.33-.49-1.22-.94-1.17-.76.63-.7 1.32zm7.81-.72c.07.69.48 1.21.94 1.17s.76-.63.7-1.33-.49-1.21-.94-1.17-.76.64-.7 1.33z" fill="#263238"/>
  <path d="M168.19 107.34A24.93 24.93 0 00172 113c-1.11 1.25-3.24.92-3.24.92z" fill="#a02724"/>
  <path d="M166.06 116a6.87 6.87 0 00.9 0 .21.21 0 100-.41 5.51 5.51 0 01-4.66-1.72.2.2 0 10-.32.25 5.74 5.74 0 004.08 1.88zm-5.87-10.8a.42.42 0 00.36-.2 3.25 3.25 0 012.47-1.59.41.41 0 00.4-.42.41.41 0 00-.42-.4 4 4 0 00-3.14 2 .42.42 0 00.13.57.66.66 0 00.2.04zm13.57-1.43a.46.46 0 00.22-.06.4.4 0 00.14-.56 4.1 4.1 0 00-3.13-2 .42.42 0 00-.42.4.41.41 0 00.39.42 3.17 3.17 0 012.46 1.62.45.45 0 00.34.18z" fill="#263238"/>
  <path fill="#b55b52" d="M204.61 408.82l7.96-1.07-4.78-20.92-7.95 1.07 4.77 20.92z"/>
  <path d="M213.24 403.31l-10.18 2.51a.56.56 0 00-.43.71l2 7.38a1.7 1.7 0 002 1.1c3.25-.86 5.55-1.63 9.67-2.65 2.54-.62 6.26-1.76 9.77-2.62s2.25-4.23.66-4.17c-7.13.26-8.87-.88-11.85-2.11a2.66 2.66 0 00-1.64-.15z" fill="#263238"/>
  <path opacity=".2" d="M199.84 387.9l7.96-1.06 2.45 10.78-7.96 1.07-2.45-10.79z"/>
  <path d="M191.82 212.06s6.88 70.53 9.78 95.58c3.17 27.43 10 83.85 10 83.85l-13.32 1.31s-12.18-52.91-16.7-79.45c-5.14-30.23-19.47-99.71-19.47-99.71z" fill="#34a37e"/>
  <path d="M172.3 242.51c6.53 8.37 7.32 36.1 5.89 52.22-2.6-13.88-5.81-30.16-8.67-44.47z" opacity=".2"/>
  <path fill="#263238" d="M213.9 394l-15.43 2.46-1.94-5.31 16.37-2.97 1 5.82z"/>
  <path d="M215.5 404.31a2.64 2.64 0 001.5-.82 1.22 1.22 0 00.15-1.15.64.64 0 00-.47-.48c-1-.25-3.33 2.07-3.59 2.34a.2.2 0 000 .22.2.2 0 00.19.13 10.68 10.68 0 002.22-.24zm.81-2a.63.63 0 01.27 0c.06 0 .14.05.18.2a.83.83 0 01-.09.79c-.36.49-1.44.81-2.93.88a8.29 8.29 0 012.57-1.91z" fill="#34a37e"/>
  <path d="M213.28 404.54a.13.13 0 00.09-.05c.75-.68 2-2.92 1.57-3.81a.67.67 0 00-.76-.36 1.1 1.1 0 00-.78.46c-.78 1-.38 3.49-.37 3.6a.21.21 0 00.14.15.14.14 0 00.11.01zm.86-3.8h.09c.26 0 .31.08.34.13.24.52-.49 2.17-1.19 3a5 5 0 01.34-2.86.73.73 0 01.42-.27z" fill="#34a37e"/>
  <path fill="#b55b52" d="M144.3 408.64h8.61l1.62-19.93h-8.6l-1.63 19.93z"/>
  <path d="M154 406.45h-10.5a.77.77 0 00-.74.59l-1.7 7.65a1.27 1.27 0 001.26 1.53c3.38-.06 5.84-.26 10.09-.26 2.62 0 9.13.27 12.75.27s4.08-3.57 2.6-3.89c-6.63-1.45-10.25-3.45-12.37-5.36a2.14 2.14 0 00-1.39-.53z" fill="#263238"/>
  <path opacity=".2" d="M145.93 388.72h8.6l-.84 10.27h-8.61l.85-10.27z"/>
  <path d="M175.52 212.93s-5.78 73.54-8.84 98.57c-3.34 27.4-10.27 81.16-10.27 81.16l-13.41.54s1-54 2.83-80.85c2.08-30.59 0-97.84 0-97.84z" fill="#34a37e"/>
  <path fill="#263238" d="M157.17 396.15h-15.04v-5.54l16.71-.37-1.67 5.91z"/>
  <path d="M156.83 408a2.65 2.65 0 001.66-.44 1.22 1.22 0 00.42-1.08.65.65 0 00-.35-.58c-.95-.49-3.72 1.22-4 1.42a.2.2 0 00-.09.2.2.2 0 00.15.17 10.44 10.44 0 002.21.31zm1.28-1.79a.54.54 0 01.27.06.24.24 0 01.13.23.82.82 0 01-.28.74c-.47.4-1.6.45-3.06.16a8.36 8.36 0 012.94-1.23z" fill="#34a37e"/>
  <path d="M154.63 407.65h.1c.89-.49 2.61-2.37 2.43-3.33a.67.67 0 00-.65-.54 1.13 1.13 0 00-.87.27c-1 .81-1.2 3.3-1.21 3.4a.2.2 0 00.09.19.2.2 0 00.11.01zm1.74-3.49h.09c.26 0 .29.15.3.21.11.56-1 2-1.88 2.66a4.93 4.93 0 011-2.7.73.73 0 01.49-.17z" fill="#34a37e"/>
  <path d="M151.14 135.49a.77.77 0 011 .49c1.27 3.85 7.7 19.25 11.15 54 3 29.86 3.95 81.9 1.63 99.89-16.4-2.42-25.89-8-25.89-8s5.74-69.32 3.31-89.5c-2.14-17.84-5.64-37.17-7.26-46a6.42 6.42 0 014.49-7.34zm18.61-.7a.77.77 0 00-.83 1c1.31 5.52 9.37 31.87 12.41 58.4 3.42 29.81 4.54 73.81 7.88 91.81 11.15-.74 16.37-7.07 16.37-7.07s-6.59-70.19-9.06-90.37c-2.27-18.55-6.15-38.17-8-47.07a6.9 6.9 0 00-6.06-5.42z" fill="#263238"/>
  <path d="M155.28 111.72c-.8-.14-1.2.32-1.25.74-.29 2.43-.82 9.86 5.06 13.1 3.48 1.93 10.89 1.93 13.54.4 2.46-1.41 3.06-9.25 3.19-13.3a.89.89 0 00-.9-.94 9.57 9.57 0 01-4.45-.82c-1.63-.51-2.37.72-3.9 1.25-2.57.85-7.43.27-11.29-.43z" fill="#fff"/>
  <path d="M166.57 127.34a16.88 16.88 0 01-7.57-1.54c-5.54-3.06-5.63-9.69-5.19-13.37a1.16 1.16 0 01.45-.77 1.39 1.39 0 011.12-.21c5.48 1 9.13 1.13 11.15.44a6.2 6.2 0 001.31-.67 3.07 3.07 0 012.77-.58l.67.23a8.06 8.06 0 003.67.58 1.08 1.08 0 01.83.31 1.21 1.21 0 01.37.91c-.14 4.41-.76 12-3.33 13.53a13.81 13.81 0 01-6.25 1.14zM155 112a.74.74 0 00-.46.13.6.6 0 00-.24.4c-.42 3.54-.34 9.92 4.92 12.82 3.44 1.91 10.74 1.86 13.28.4 1.68-1 2.82-5.85 3.05-13.07a.63.63 0 00-.2-.49.54.54 0 00-.42-.17 8.5 8.5 0 01-3.89-.6l-.65-.23a2.54 2.54 0 00-2.31.53 7.24 7.24 0 01-1.42.72c-2.11.72-5.85.58-11.43-.42z" fill="#34a37e"/>
  <path fill="#7f3e3b" d="M355.48 391.05l-8.05 4.69-19.84-22.68 10.53-8.49 17.36 26.48z"/>
  <path d="M345.35 393.69l7.23-7.57a.72.72 0 01.94-.13l6.33 4.51a1.45 1.45 0 01.07 2.16c-2.56 2.6-3.92 3.73-7.1 7.06-2 2-5.81 6.48-8.51 9.31s-5.42.47-4.53-.93c4-6.3 4.55-9.79 4.87-12.91a2.59 2.59 0 01.7-1.5z" fill="#263238"/>
  <path d="M344 397.28a3.61 3.61 0 01-1.94 1.26 1.07 1.07 0 01-1-.4.69.69 0 01-.13-.66c.37-1.23 4.2-2.69 4.64-2.85a.2.2 0 01.23.31 16.48 16.48 0 01-1.8 2.34zm-2.43 0a1.23 1.23 0 00-.23.35.25.25 0 00.06.26.69.69 0 00.65.28c.73-.08 1.84-1.13 3-2.85a12.63 12.63 0 00-3.47 1.91z" fill="#34a37e"/>
  <path d="M345.79 395h-.07c-1.11.48-4 .76-4.54 0-.14-.19-.23-.52.16-1a1.67 1.67 0 011.09-.64c1.46-.21 3.28 1.26 3.35 1.32a.19.19 0 01.07.2.34.34 0 01-.06.12zm-4-.85l-.09.1c-.25.32-.16.45-.14.49.36.48 2.44.43 3.68 0a4.6 4.6 0 00-2.74-1 1.19 1.19 0 00-.75.39z" fill="#34a37e"/>
  <path d="M328.51 166.49a118.74 118.74 0 01-4.89 16.62 76 76 0 01-3.5 8.09 39.81 39.81 0 01-5 7.86l-.4.47c-.15.18-.44.47-.67.69a7.23 7.23 0 01-2 1.32 6.77 6.77 0 01-2.58.61 7.31 7.31 0 01-2.34-.33 9.62 9.62 0 01-3-1.67 16.33 16.33 0 01-2-1.87 39.27 39.27 0 01-5.15-7.61 100.38 100.38 0 01-6.68-15.85 2.28 2.28 0 014.17-1.81v.05c1.31 2.38 2.66 4.81 4.06 7.15s2.82 4.67 4.35 6.85a36.8 36.8 0 004.75 5.83 8.86 8.86 0 001.14.91c.33.22.64.33.62.28a.47.47 0 00-.28-.06 1.51 1.51 0 00-.56.11c-.17.08-.23.1-.25.13s0 0 0-.08l.25-.34a35.84 35.84 0 003.59-6.44c1.05-2.37 2-4.85 2.88-7.37s1.65-5.11 2.4-7.71 1.43-5.27 2-7.78v-.12a4.59 4.59 0 018.95 2.07z" fill="#803e3c"/>
  <path fill="#7f3e3b" d="M351.83 408.55l-9 .31-1.73-31.43 12.5.18-1.77 30.94z"/>
  <path d="M342.21 406l10.1-.07a.65.65 0 01.68.61l.6 8a1.57 1.57 0 01-1.55 1.61c-3.51 0-5.19-.23-9.63-.2-2.74 0-6.75.33-10.52.36s-3.72-3.7-2.12-4c7.14-1.56 8.4-3.66 10.9-5.67a2.54 2.54 0 011.54-.64zM320 162.54c-1.26 5.94-2.72 19.37-2.76 49.67l36.1 3.19c1.66-13.66 3-22.47 12.57-47a6.49 6.49 0 00-4.59-8.68c-2.32-.53-5-1.07-7.74-1.45a114 114 0 00-16.4-1.45c-4 0-8.35.32-11.4.58a6.46 6.46 0 00-5.78 5.14z" fill="#263238"/>
  <path d="M358.59 167.07c-.16 4.39.75 11 2.73 13.74.63-1.81 1.32-3.72 2.07-5.75z" opacity=".2"/>
  <path d="M355 139.59c-1.9 5.22-4.52 14.85-1.4 18.72a69.83 69.83 0 01-17.9 10.86c-3.77-8.8 1.5-12.31 1.5-12.31 6.11-.89 6.68-5.3 6.33-9.51z" fill="#7f3e3b"/>
  <path d="M351.71 143.54l-8.19 3.8a16.51 16.51 0 010 3c1.71.15 6.14-1.15 7.81-3.9a4.19 4.19 0 00.38-2.9z" opacity=".2"/>
  <path d="M362.53 131.34c-3 8.41-4 12-9.61 15.19-8.38 4.75-18.06-.73-17.67-9.85.35-8.21 5.14-20.58 14.49-21.6a12.15 12.15 0 0112.79 16.26z" fill="#7f3e3b"/>
  <path d="M361.63 114.64c-1.24-4.41 4.44-7.41 9-5.19 1.49-3.4 8.63-2.39 8.86 1.94 5.15.39 3.88 10-.95 9.87 4.27 3-2.66 8.1-9.81 3.94a76.46 76.46 0 01-7.1-10.56z" fill="#263238"/>
  <circle cx="364.38" cy="120.1" r="6.81" fill="#34a37e"/>
  <path d="M342.19 118.78c1.55 2.22 9 3.32 13 2.88-.62.87.07 4.81 1.82 5.71-1.47 1.69-1.32 9.59 1.78 10.13s10.92-.93 12-8.34a14 14 0 00-3.43-11.23s-.89-5-8.32-7.08c-6-1.65-12 .61-12.24 1.69-3.63.46-6.4 3.66-4.61 6.24z" fill="#263238"/>
  <path d="M356.22 136.4a.55.55 0 01-.54-.5.54.54 0 01.5-.58c2.87-.24 5.45-.7 5.47-.71a.54.54 0 11.19 1.07s-2.65.47-5.57.71zm-2.22 6.98a.54.54 0 01-.54-.5.55.55 0 01.5-.58 9.08 9.08 0 004.29-1.59.55.55 0 01.76.1.54.54 0 01-.11.76 10 10 0 01-4.86 1.81z" fill="#fff"/>
  <path d="M317.25 212.21s-19.05 80.68-17.39 101c1.95 23.82 28 62.2 28 62.2l12-10.85s-11.88-31.45-20.66-51.93c2.81-20.48 27.68-78.35 27.68-97.84z" fill="#34a37e"/>
  <path d="M317.25 212.21s-19.05 80.68-17.39 101c1.95 23.82 28 62.2 28 62.2l12-10.85s-11.88-31.45-20.66-51.93c2.81-20.48 27.68-78.35 27.68-97.84z" fill="#fff" opacity=".4"/>
  <path fill="#34a37e" d="M342.02 366.21l-14.13 10.54-3.63-2.75 15.51-12.24 2.25 4.45z"/>
  <path d="M331.34 247.69C320.85 262.23 320.34 289 321 304c3.6-13.8 11.16-34.41 17.17-53-.17-7.12-1.92-10.11-6.83-3.31z" fill="#34a37e" opacity=".4"/>
  <path d="M324 212.27s5.25 68.2 7.58 91.72c2.77 27.92 8.56 74.18 8.56 74.18l13.44-.56s1.23-39.45-1-64.46c.4-33.21 7-76.86.71-97.75z" fill="#34a37e"/>
  <path d="M324 212.27s5.25 68.2 7.58 91.72c2.77 27.92 8.56 74.18 8.56 74.18l13.44-.56s1.23-39.45-1-64.46c.4-33.21 7-76.86.71-97.75z" fill="#fff" opacity=".4"/>
  <path fill="#34a37e" d="M354.61 380.06l-15.41-.43-1.08-4.85 17.44-.48-.95 5.76z"/>
  <path d="M347.58 129.39c-.2.7-.73 1.16-1.19 1s-.66-.8-.46-1.5.72-1.15 1.18-1 .66.81.47 1.5zm-7.88-2.24c-.2.69-.73 1.15-1.18 1s-.67-.8-.47-1.49.73-1.16 1.18-1 .67.79.47 1.49z" fill="#263238"/>
  <path d="M339.42 125.75l-1.53-1s.48 1.59 1.53 1z" fill="#263238"/>
  <path d="M342.19 129.52a19 19 0 01-3.75 3.74 3.14 3.14 0 002.35 1.18z" fill="#630f0f"/>
  <path d="M344.2 138.17a7.17 7.17 0 01-1.19-.24.21.21 0 01-.15-.26.22.22 0 01.26-.15 5.71 5.71 0 005.12-.87.21.21 0 01.28.32 6 6 0 01-4.32 1.2z" fill="#263238"/>
  <path d="M363.24 139.9a6.49 6.49 0 01-4.67 1.72c-2.28-.11-2.81-1.65-1.57-3.43 1.11-1.6 3.33-3.61 5.74-3.17 2.16.4 2.04 3.43.5 4.88z" fill="#7f3e3b"/>
  <path d="M353.15 127.53a.44.44 0 01-.27-.2 3.37 3.37 0 00-2.54-1.72.44.44 0 01-.41-.45.43.43 0 01.45-.4 4.21 4.21 0 013.24 2.14.42.42 0 01-.15.58.45.45 0 01-.32.05zm-14.96-4.05a.43.43 0 01-.28-.15.43.43 0 010-.6 4.2 4.2 0 013.76-1 .41.41 0 01.29.52.42.42 0 01-.53.29 3.39 3.39 0 00-3 .8.42.42 0 01-.24.14z" fill="#263238"/>
  <path d="M366.34 163.87a145.77 145.77 0 016.9 13.67c1 2.35 2 4.73 2.91 7.21a49.89 49.89 0 012.16 7.89 18.05 18.05 0 01.24 4.89 9.25 9.25 0 01-.29 1.57 8 8 0 01-.28.87l-.3.67c-.21.46-.44.8-.66 1.2s-.46.71-.7 1a32.18 32.18 0 01-6.08 5.84 74.21 74.21 0 01-13.24 7.94 2.28 2.28 0 01-2.43-3.83h.06c3.76-3.07 7.56-6.25 10.89-9.53a28.54 28.54 0 004.16-5c.13-.19.2-.36.31-.54a3.79 3.79 0 00.19-.46l.06-.19v-.27a11.16 11.16 0 00-.34-2.52 43 43 0 00-2.09-6.38c-.87-2.18-1.82-4.38-2.85-6.55-2.06-4.34-4.31-8.73-6.58-12.93v-.07a4.59 4.59 0 018-4.46z" fill="#803e3c"/>
  <path d="M337.26 407a1.22 1.22 0 01-.19-1 .84.84 0 01.47-.61c1.08-.48 3.69 1.27 4 1.47a.19.19 0 01.08.21.24.24 0 01-.17.17c-1.19.28-3.29.65-4.08-.12zm3.58-.09c-1.06-.66-2.59-1.41-3.15-1.16a.34.34 0 00-.2.27.77.77 0 00.17.76c.42.44 1.6.48 3.18.16z" fill="#34a37e"/>
  <path d="M340.21 406.23a3.46 3.46 0 01-1-2.43.82.82 0 01.75-.6 1.07 1.07 0 01.89.28c.91.85.75 3.44.74 3.55a.22.22 0 01-.12.19.2.2 0 01-.21 0 4.89 4.89 0 01-1.05-.99zm.43-2.33l-.09-.1a.66.66 0 00-.55-.18c-.28 0-.34.16-.37.26-.17.62.75 2.07 1.56 2.74a5 5 0 00-.55-2.72z" fill="#34a37e"/>
  <path d="M354.24 213.32l.39 3.33c.09.26-.25.5-.67.46l-37.16-3.29c-.32 0-.56-.21-.55-.42l.2-3.28c0-.23.33-.39.69-.36L353.7 213a.63.63 0 01.54.32z" fill="#fff"/>
  <path d="M348.66 217l1 .08c.19 0 .36-.07.36-.19l.23-4.27c0-.12-.14-.24-.34-.26l-1-.08c-.19 0-.36.07-.36.19l-.23 4.27c-.01.12.14.26.34.26z" fill="#34a37e"/>
  <path d="M348.66 217l1 .08c.19 0 .36-.07.36-.19l.23-4.27c0-.12-.14-.24-.34-.26l-1-.08c-.19 0-.36.07-.36.19l-.23 4.27c-.01.12.14.26.34.26z" fill="#fff" opacity=".4"/>
  <path d="M319.5 214.42l1 .08c.19 0 .36-.07.37-.19l.22-4.27c0-.12-.14-.24-.34-.26l-1-.08c-.19 0-.36.07-.36.19l-.23 4.27c-.01.12.14.24.34.26z" fill="#34a37e"/>
  <path d="M319.5 214.42l1 .08c.19 0 .36-.07.37-.19l.22-4.27c0-.12-.14-.24-.34-.26l-1-.08c-.19 0-.36.07-.36.19l-.23 4.27c-.01.12.14.24.34.26z" fill="#fff" opacity=".4"/>
  <path d="M334.08 215.71l1 .08c.19 0 .36-.07.36-.19l.23-4.27c0-.12-.14-.24-.34-.26l-1-.08c-.19 0-.36.07-.36.19l-.23 4.27c-.01.12.14.24.34.26z" fill="#34a37e"/>
  <path d="M334.08 215.71l1 .08c.19 0 .36-.07.36-.19l.23-4.27c0-.12-.14-.24-.34-.26l-1-.08c-.19 0-.36.07-.36.19l-.23 4.27c-.01.12.14.24.34.26z" fill="#fff" opacity=".4"/>
  <path d="M357.75 211.28l-7.62-.77a4.56 4.56 0 00-3.08.8l-2.49 1.69a2.66 2.66 0 00-.64 3.74l1.74 2.39a2.66 2.66 0 003.15.9l4.68-1.93s5.52-.62 6.87-4.2zm-65.69-42.54l-2.83-4.19a2.65 2.65 0 00-3.12-1l-2.78 1a2.65 2.65 0 00-1.53 3.46L283 171a4.26 4.26 0 002 2.21l6.87 3.63 3.64-.76c.81-3.77-3.45-7.34-3.45-7.34z" fill="#7f3e3b"/>
  <path d="M347.3 128l-1.54-1s.49 1.58 1.54 1z" fill="#263238"/>
  <path d="M355.44 134.93c.84.06 1.1.59 1 1-.35 2.3-1.33 10.66-8 12.21-4 .91-9.86-.27-12.86-3.3-2-2-2.05-9.33-1.11-13.08a.91.91 0 011.14-.63 10.63 10.63 0 004.61.32c1.75-.07 2.16 1.24 3.54 2.09 2.39 1.46 7.68 1.09 11.68 1.39z" fill="#34a37e"/>
  <path d="M345.65 148.68c-3.55 0-7.76-1.18-10.23-3.67-2.05-2.08-2.13-9.52-1.17-13.33a1.17 1.17 0 01.56-.73 1.14 1.14 0 01.92-.1 8.92 8.92 0 003.79.36l.73-.05a3.21 3.21 0 012.57 1.21 6.12 6.12 0 001.12.92c1.66 1 4.94 1.13 8.1 1.22 1.15 0 2.35.07 3.42.15a1.41 1.41 0 011.07.5 1 1 0 01.22.8v.28c-.39 2.62-1.57 10.61-8.17 12.14a13 13 0 01-2.93.3zm-10.26-17.34a.71.71 0 00-.31.08.63.63 0 00-.31.39c-.93 3.71-.83 10.93 1 12.82 3.06 3.09 8.92 4.08 12.61 3.22 6.24-1.44 7.38-9.16 7.75-11.69l.05-.29a.53.53 0 00-.11-.38 1 1 0 00-.69-.29c-1.06-.08-2.25-.12-3.39-.15-3.24-.09-6.59-.19-8.37-1.3a6.66 6.66 0 01-1.22-1 2.66 2.66 0 00-2.17-1.05l-.7.05a9.35 9.35 0 01-4-.39z" fill="#fff"/>
</svg>
