<svg xmlns="http://www.w3.org/2000/svg" viewBox="0 0 500 500">
  <path fill="#e0e0e0" d="M48.12 42.39h97.84v101.99H48.12z"/>
  <path fill="#ebebeb" d="M41.49 42.39h97.84v101.99H41.49z"/>
  <path fill="#fff" d="M54.64 56.1h71.53v74.57H54.64z"/>
  <path d="M54.64 131.16a13.48 13.48 0 01-1.78 2c-1.15 1.2-2.76 2.83-4.56 4.6s-3.45 3.35-4.67 4.48a13.57 13.57 0 01-2 1.75 13.62 13.62 0 011.78-2c1.15-1.2 2.76-2.83 4.57-4.61s3.45-3.36 4.67-4.49a13.16 13.16 0 011.99-1.73zm71.54-.16a14.17 14.17 0 012 1.79c1.2 1.14 2.83 2.75 4.6 4.55s3.36 3.45 4.49 4.67a12.38 12.38 0 011.74 2 13.62 13.62 0 01-2-1.78c-1.19-1.15-2.83-2.76-4.6-4.56s-3.37-3.46-4.49-4.68a12.62 12.62 0 01-1.74-1.99zM126 56.3a13.27 13.27 0 011.79-2c1.15-1.2 2.76-2.83 4.56-4.6s3.45-3.36 4.66-4.48a13.57 13.57 0 012-1.75 12.91 12.91 0 01-1.78 2c-1.14 1.2-2.76 2.83-4.56 4.61s-3.46 3.36-4.67 4.49a13.63 13.63 0 01-2 1.73zm-71.55.18a13.27 13.27 0 01-2-1.79c-1.2-1.15-2.83-2.75-4.6-4.55s-3.36-3.46-4.48-4.67a13.57 13.57 0 01-1.75-2 13.62 13.62 0 012 1.78c1.2 1.14 2.83 2.76 4.61 4.56s3.36 3.46 4.49 4.67a13.63 13.63 0 011.73 2z" fill="#e0e0e0"/>
  <path d="M126 130.67v-5.36c0-3.53 0-8.67-.06-15.2 0-13-.07-31.67-.12-53.95l.23.23H54.72l.27-.27v74.57l-.23-.23 51.67.11 14.5.06h5.18-5.2l-14.45.06-51.82.12h-.23V55.74h71.85v.24c0 22.35-.09 41-.11 54.1 0 6.51 0 11.63-.07 15.14v5c0 .23-.08.45-.08.45z" fill="#e0e0e0"/>
  <path d="M73.52 87.25S72 105.71 92 105.71c0-9.85-8.14-17.63-18.48-18.46z" fill="#ebebeb"/>
  <path d="M110.11 87.26s-18.46-1.53-18.46 18.47c9.85 0 17.63-8.13 18.46-18.47z" fill="#ebebeb"/>
  <path d="M91.1 77.16s-15.1 13.54.82 28.55c7.4-7.84 6.78-20.13-.82-28.55zm338.34-33.48v98.9H287.39l-5.12-98.21 147.17-.69z" fill="#e0e0e0"/>
  <path fill="#fff" d="M282.28 142.37v-98h142.05v98z"/>
  <path d="M425 143.05H281.6V43.7H425zm-142-1.35h140.7V45.05H283z" fill="#e0e0e0"/>
  <path fill="#fff" d="M297.66 56.55h111.28v73.65H297.66z"/>
  <path d="M408.94 56.55h-8.24l-22.94.09-80.1.16.32-.32v73.64l-.35-.35 111.28.07-.28.28c.06-22.42.11-40.79.15-53.59 0-6.4.05-11.39.07-14.82v-5.24 5.13c0 3.41 0 8.39.07 14.76 0 12.84.09 31.27.15 53.76v.28h-.28l-111.28.07h-.35V56.15h.32l80.32.15 22.85.09h7.6a4.9 4.9 0 01.69.16z" fill="#e0e0e0"/>
  <path d="M282.27 44.1a11.75 11.75 0 012.45 1.58c1.45 1 3.43 2.54 5.56 4.25s4 3.32 5.34 4.54a11.54 11.54 0 012 2.08c-.13.15-3.55-2.67-7.81-6.08s-7.66-6.21-7.54-6.37zm142.05.27c.12.15-3.22 3-7.47 6.36s-7.79 6-7.91 5.82 3.22-3 7.47-6.37 7.79-5.96 7.91-5.81z" fill="#e0e0e0"/>
  <path d="M424.21 142.39l-15.84-12.84" fill="#fff"/>
  <path d="M408.37 129.55c.13-.15 3.77 2.6 8.14 6.15s7.82 6.54 7.7 6.69-3.76-2.6-8.14-6.15-7.82-6.54-7.7-6.69zm-126.1 12.82c-.12-.15 3.2-3 7.4-6.29s7.71-5.9 7.83-5.75-3.19 3-7.39 6.3-7.72 5.9-7.84 5.74zm37.98-38.21V79.5h70.02v24.66z" fill="#e0e0e0"/>
  <path d="M45.17 424.36S27.35 332 27.31 313c-.06-26.29 20.07-36.75 20.07-36.75L39.56 254h43l-6.8 22.14s22.65 12 19.49 39.27c-5.9 51-15.31 109-15.31 109z" fill="#f5f5f5"/>
  <path d="M86.19 286.75h-.48a12 12 0 00-1.4-.06 13.4 13.4 0 00-5.22 1.14 18.41 18.41 0 00-6.7 5.12 33.12 33.12 0 00-3.08 4.33 38.34 38.34 0 00-2.7 5.32 15.84 15.84 0 00-1.25 6.34 9.9 9.9 0 002.54 6.34 7 7 0 003 1.91 6 6 0 003.66-.1 8.6 8.6 0 005.15-5.57 8.31 8.31 0 00-1.71-7.75 12.63 12.63 0 00-7.38-4.28 16.86 16.86 0 00-8.89 1.07A29 29 0 0044.31 321a19.47 19.47 0 00.18 8.7 12.8 12.8 0 004.24 7 7.21 7.21 0 003.56 1.63 5.44 5.44 0 003.67-.72 7.57 7.57 0 003.28-6.3 7.78 7.78 0 00-.69-3.43 8.67 8.67 0 00-2-2.7 12 12 0 00-5.8-2.7 16.57 16.57 0 00-10.84 1.88 19.6 19.6 0 00-6.4 5.51 17.88 17.88 0 00-2.58 4.7c-.43 1.16-.57 1.8-.61 1.79a12.71 12.71 0 01.49-1.83 17.56 17.56 0 012.51-4.81 19.57 19.57 0 016.42-5.67 17 17 0 0111.08-2 12.42 12.42 0 016 2.77 9.09 9.09 0 012.18 2.9 8.24 8.24 0 01.75 3.65 8 8 0 01-3.51 6.75 6 6 0 01-4 .81 7.75 7.75 0 01-3.84-1.74 13.33 13.33 0 01-4.45-7.32 19.94 19.94 0 01-.2-9A28.64 28.64 0 0153.31 305a28.24 28.24 0 018.17-5 17.4 17.4 0 019.22-1.09 13.16 13.16 0 017.72 4.49 10.16 10.16 0 012 3.94 7.88 7.88 0 01-.11 4.31 9.14 9.14 0 01-5.52 5.92 6.48 6.48 0 01-4 .09 7.41 7.41 0 01-3.27-2.06 10.34 10.34 0 01-2.65-6.68 16.31 16.31 0 011.32-6.51A37.4 37.4 0 0169 297a31.94 31.94 0 013.15-4.36 18.46 18.46 0 016.85-5.07 13.27 13.27 0 015.31-1.05 8.11 8.11 0 011.88.23zm1.12 69.74a15.75 15.75 0 01-.4 4.7A20.4 20.4 0 0185 366.4a20 20 0 01-4.51 5.79 18.64 18.64 0 01-7.87 4.14 19.2 19.2 0 01-10.19-.15 17.84 17.84 0 01-9.18-6.47 17.11 17.11 0 01-3.52-11.5 8.47 8.47 0 012.54-5.66 6.17 6.17 0 015.87-1.16 7.32 7.32 0 014.57 3.61 8.33 8.33 0 01.6 5.56 10.37 10.37 0 01-2.46 4.71 11.86 11.86 0 01-4.13 2.84 17.24 17.24 0 01-8.82 1.11 21 21 0 01-11.57-5.31 15.47 15.47 0 01-3-3.6 2 2 0 01.21.23c.15.19.33.43.56.71a22.22 22.22 0 002.43 2.48A21.08 21.08 0 0048 368.82a16.83 16.83 0 008.57-1.15 11.41 11.41 0 003.93-2.74 9.86 9.86 0 002.3-4.47 7.73 7.73 0 00-.56-5.17A6.79 6.79 0 0058 352a5.54 5.54 0 00-5.29 1 7.92 7.92 0 00-2.34 5.26 16.59 16.59 0 003.4 11.08 17.24 17.24 0 008.85 6.28 18.69 18.69 0 009.91.2 18.36 18.36 0 007.71-4 19.53 19.53 0 004.48-5.62 20.4 20.4 0 002-5.11 22.8 22.8 0 00.54-3.43v-.9a1.61 1.61 0 01.05-.27zM79.3 400c-.06.12-1.93-.89-5.19-1.84a25.45 25.45 0 00-2.69-.64c-1-.22-2-.33-3.13-.47a37.54 37.54 0 00-7.26 0 37.65 37.65 0 00-7.03 1.6c-1.05.39-2.06.73-3 1.16a23.92 23.92 0 00-2.49 1.19c-3 1.64-4.57 3-4.65 2.93a6.38 6.38 0 011.1-1 12.71 12.71 0 011.39-1.06 19.58 19.58 0 011.95-1.25 24.61 24.61 0 012.48-1.31 29.75 29.75 0 013-1.22 35.83 35.83 0 017.22-1.61 35.62 35.62 0 017.38 0 30.91 30.91 0 013.18.54 23.47 23.47 0 012.71.73 20.33 20.33 0 012.17.79 13.9 13.9 0 011.59.72 6.55 6.55 0 011.27.74zm-3-122.56a10 10 0 01-1.43 1c-.93.62-2.33 1.44-4.09 2.37a70.5 70.5 0 01-30 8c-2 .08-3.62.07-4.73 0a8.91 8.91 0 01-1.73-.15 10 10 0 011.73-.09c1.11 0 2.72-.06 4.71-.19a78.15 78.15 0 0029.79-8c1.78-.89 3.2-1.64 4.17-2.19a7.92 7.92 0 011.58-.75zM81.71 255c0 .06-1.06-.1-3-.11a25.4 25.4 0 00-7.91 1.29 25.85 25.85 0 00-5 2.3 23.43 23.43 0 00-2.53 1.75 13 13 0 00-2.27 2.29 6.89 6.89 0 00-1.42 3 3.4 3.4 0 001 3.05 7.33 7.33 0 003.18 1.61 7.93 7.93 0 003.64.42 2.77 2.77 0 002-2.61 6.5 6.5 0 00-.72-3.46 11 11 0 00-4.8-4.82 13.9 13.9 0 00-6-1.63 16.61 16.61 0 00-5.43.8 25.07 25.07 0 00-7.08 3.73c-.77.57-1.34 1-1.73 1.36a2.9 2.9 0 01-.62.46 4.32 4.32 0 01.53-.56c.37-.35.92-.84 1.67-1.45a23.68 23.68 0 017.1-3.95 16.68 16.68 0 015.57-.9 14.37 14.37 0 016.28 1.64 11.48 11.48 0 015.07 5.06 7 7 0 01.79 3.79 4.14 4.14 0 01-.67 1.94 3 3 0 01-1.75 1.2 8.53 8.53 0 01-4-.43 7.77 7.77 0 01-3.5-1.77 4 4 0 01-1.11-3.6 7.37 7.37 0 011.55-3.23 13.25 13.25 0 012.43-2.32 23.1 23.1 0 012.61-1.77 25.11 25.11 0 015.16-2.27 24.16 24.16 0 018-1.12 17.2 17.2 0 012.2.2 2.68 2.68 0 01.76.11z" fill="#e0e0e0"/>
  <path d="M467 423c0 .14-98.78.26-220.61.26S25.73 423.1 25.73 423s98.76-.26 220.63-.26S467 422.81 467 423zm-64.08-86.61c-.09.12-.84-.34-1.68-1s-1.44-1.31-1.35-1.42.84.34 1.68 1 1.43 1.31 1.35 1.42z" fill="#263238"/>
  <path d="M425.72 302.32c.14-3.19.23-6.45-.78-9.48s-3.34-5.8-6.46-6.45c-3.56-.74-7.21 1.51-9.2 4.55s-2.69 6.73-3.28 10.32a364.33 364.33 0 00-4.46 74.93l14.57 2c6.4-26.11 8.45-48.97 9.61-75.87z" fill="#455a64"/>
  <path d="M416.46 286.28s0 .08-.07.23-.14.39-.24.66c-.23.62-.56 1.46-1 2.52-.2.55-.47 1.14-.69 1.82s-.45 1.42-.71 2.21-.52 1.64-.81 2.53l-.75 2.89a125.79 125.79 0 00-2.82 14.43c-.79 5.48-1.31 11.55-1.71 17.93-.75 12.77-.86 24.36-1.19 32.74-.16 4.19-.3 7.58-.46 9.92l-.19 2.7c0 .28 0 .51-.06.7a1.48 1.48 0 010 .24.68.68 0 010-.24v-.71c0-.66.05-1.56.08-2.7.1-2.34.19-5.73.3-9.92.23-8.38.29-20 1-32.77.4-6.38.94-12.47 1.76-18a120 120 0 012.93-14.45c.28-1 .54-2 .79-2.89s.59-1.74.86-2.53l.75-2.21c.23-.67.52-1.26.73-1.81l1.07-2.48.29-.64c.09-.11.13-.18.14-.17zm1.35 0a10.56 10.56 0 011.78 3 22.32 22.32 0 011.33 9.43c-.39 8-1.11 19.15-2.07 31.4s-2 23.34-2.89 31.34c-.43 4-.8 7.24-1.08 9.48-.13 1.08-.24 1.94-.33 2.57l-.09.67a.79.79 0 01-.06.23.75.75 0 010-.24c0-.18 0-.4.05-.67.06-.63.14-1.5.23-2.58.22-2.29.53-5.52.92-9.49.76-8 1.77-19.1 2.73-31.35s1.74-23.35 2.22-31.37a22.68 22.68 0 00-1.15-9.34 18.8 18.8 0 00-1.59-3.08zM427.92 324a8.24 8.24 0 01-2.77-.72 8.16 8.16 0 01-2.58-1.2 7.79 7.79 0 012.76.71 7.93 7.93 0 012.59 1.21zm1.75-14.85a17.57 17.57 0 01-5.47 2.45 17.57 17.57 0 015.47-2.45zm-.91-12.15a4.79 4.79 0 01-2.17.11 4.58 4.58 0 01-2.14-.41 4.79 4.79 0 012.17-.11 4.73 4.73 0 012.14.41zm-15.04-7.74c-.12.08-.76-.72-1.42-1.77a5.15 5.15 0 01-1-2.06c.12-.08.76.72 1.43 1.78s1.11 1.97.99 2.05zm-4.97 7.33c0 .15-.93.24-2.07.22s-2.06-.16-2.06-.31a8.49 8.49 0 014.13.09zm-3.57 14.67a5 5 0 01-2.18-.6c-1.15-.46-2-1-2-1.08a5.22 5.22 0 012.18.6c1.17.46 2.06.95 2 1.08zm-.38 12.34c0 .14-.8.43-1.85.65s-1.94.29-2 .15.8-.44 1.85-.66 1.97-.29 2-.14zm-1.68 20.17c0 .14-.85.42-2 .62s-2 .25-2.06.1.86-.41 2-.61a4.3 4.3 0 012.06-.11zM402 354.91c.06.13-.67.65-1.64 1.16s-1.82.83-1.89.71.67-.65 1.64-1.17 1.83-.83 1.89-.7zm9.1 12.64c-.12.07-.76-.81-1.43-2a6 6 0 01-1-2.24c.13-.07.77.82 1.43 2a5.7 5.7 0 011 2.24zm2.63-21.01c.1.11-.62 1-1.6 1.93s-1.85 1.66-2 1.56.62-1 1.6-1.93 1.9-1.66 2-1.56z" fill="#263238"/>
  <path d="M413.15 335.52c-.11.1-.77-.44-1.48-1.21s-1.2-1.47-1.1-1.57.77.45 1.48 1.21 1.2 1.47 1.1 1.57zm1.85-14.08c.11.09-.49.93-1.33 1.87s-1.61 1.62-1.71 1.52.48-.93 1.32-1.87 1.56-1.62 1.72-1.52zm1-10.23c-.11.11-.94-.54-1.86-1.45s-1.59-1.73-1.49-1.83.93.55 1.86 1.46 1.56 1.72 1.49 1.82zm2-13.81a5.14 5.14 0 01-.93 2.07c-.64 1.06-1.25 1.87-1.38 1.8a5.25 5.25 0 01.93-2.07c.6-1.07 1.22-1.88 1.38-1.8zm3.71-12.81c.13.07-.24 1-.82 2.07s-1.15 1.89-1.28 1.83.24-1 .82-2.07 1.16-1.9 1.28-1.83zm4.29 5.82c.07.13-.52.54-1.3.91s-1.46.57-1.53.44.53-.54 1.31-.91 1.43-.57 1.52-.44zm.08 45.98a5.75 5.75 0 01-2.85-.69 5.84 5.84 0 01-2.48-1.58 145.29 145.29 0 015.33 2.27zm-1.74 9.75c0 .14-.86.42-2 .64a4.27 4.27 0 01-2.05.13c0-.14.85-.43 2-.64s2.02-.27 2.05-.13zm-2.14 16.7a8.31 8.31 0 01-3.62-4.56 16.36 16.36 0 011.8 2.28 17.16 17.16 0 011.82 2.28zm-23.43 7.63c-.1-.11.5-.77 1.32-1.47s1.57-1.19 1.66-1.08-.5.77-1.32 1.48-1.57 1.18-1.66 1.07z" fill="#263238"/>
  <path d="M392 334c-.95-3-2.73-6.41-5.84-6.46a5.19 5.19 0 00-4.37 2.93 10.82 10.82 0 00-1.18 5.36 140.06 140.06 0 006.68 38.82h11.41A135.08 135.08 0 00392 334zm-20.55-18.62c-1.59-6.37-6.33-9.8-11.84-10.12-5 .88-7 5.83-7.58 10.9s1 10.12 2.53 15q7.49 23.43 15 46.85l14.16-1.55c-4.5-20.93-7.08-40.32-12.27-61.08z" fill="#455a64"/>
  <path d="M386.19 327.56a12.86 12.86 0 00-1 1.61 10.64 10.64 0 00-.53 5c.22 2.17.47 4.77.83 7.63s.88 6 1.52 9.26c1.29 6.53 2.74 12.4 3.66 16.68.47 2.13.82 3.87 1 5.07.09.55.17 1 .24 1.39a2.26 2.26 0 01.05.49 1.9 1.9 0 01-.16-.47c-.09-.37-.2-.82-.33-1.37l-1.2-5c-1-4.25-2.52-10.11-3.81-16.66-.64-3.28-1.14-6.43-1.49-9.3-.18-1.44-.3-2.81-.42-4.09s-.24-2.47-.3-3.57a10.35 10.35 0 01.72-5.14 4.57 4.57 0 011.22-1.53zm-26.38-22.7a18.66 18.66 0 00-1.71 2.29 16.19 16.19 0 00-2.16 7.41A34.26 34.26 0 00357.7 326c1.24 4.21 2.6 8.84 4 13.69 2.82 9.7 5.37 18.49 7.24 24.91l2.14 7.56.56 2.07a5 5 0 01.16.73 3.75 3.75 0 01-.26-.7c-.17-.52-.38-1.19-.65-2l-2.3-7.52c-1.91-6.41-4.51-15.18-7.39-24.86-1.42-4.86-2.77-9.49-4-13.71a33.9 33.9 0 01-1.65-11.55 15.79 15.79 0 012.35-7.49 8.41 8.41 0 011.91-2.27z" fill="#263238"/>
  <path d="M380.61 374.94a3.08 3.08 0 01-.32-.68c-.19-.45-.49-1.11-.81-2-.67-1.74-1.54-4.3-2.43-7.52s-1.79-7.09-2.64-11.41-1.72-9.09-2.67-14.09-2.08-9.7-3.35-13.9a76.51 76.51 0 00-4.13-10.91 57.41 57.41 0 00-3.81-6.88c-.49-.79-.93-1.37-1.2-1.78a3.6 3.6 0 01-.39-.64 4.54 4.54 0 01.48.58c.29.39.76.95 1.27 1.73a50.11 50.11 0 014 6.83 72.89 72.89 0 014.26 10.93 139 139 0 013.4 13.94c.94 5 1.82 9.76 2.63 14.09s1.67 8.2 2.52 11.42 1.66 5.79 2.27 7.54c.29.89.56 1.56.72 2a3.89 3.89 0 01.2.75zm-25.8-46.13c0 .14-.73.45-1.72.69s-1.81.32-1.84.18.74-.45 1.72-.69 1.81-.32 1.84-.18zm-1.5-9.66a7.35 7.35 0 01-2.39.26 7.15 7.15 0 01-2.4-.07 4.9 4.9 0 012.38-.45 4.84 4.84 0 012.41.26zm1.6-8.83c-.1.11-.86-.39-1.72-1.11s-1.47-1.4-1.38-1.51.86.39 1.72 1.11 1.47 1.4 1.38 1.51zm4.32-8.17c.14 0 .1.72.08 1.56s0 1.52-.17 1.54-.38-.67-.35-1.56.3-1.57.44-1.54zm8.82 3.85c.12.09-.23.78-.77 1.56s-1.08 1.34-1.2 1.26.23-.78.77-1.56 1.08-1.34 1.2-1.26zm5.73 10c.05.14-.68.56-1.64.95s-1.78.6-1.83.47.68-.56 1.63-.95 1.78-.65 1.84-.47zm3.47 10.19a4.23 4.23 0 01-2.24 1 4.3 4.3 0 01-2.45.08 9.13 9.13 0 012.33-.59 9.4 9.4 0 012.36-.49zm-15.95-2.91c-.14 0 0-.75.22-1.58s.59-1.46.72-1.42 0 .75-.22 1.58-.58 1.47-.72 1.42zm2.23 12.85c-.14-.05.15-1 .64-2.12s1-2 1.11-1.92-.15 1-.64 2.12-.98 1.98-1.11 1.92zm-5.53 3.52c-.06.14-.95-.11-2-.45s-2-.65-1.93-.79a3.83 3.83 0 012.09.3c1.1.34 1.92.81 1.84.94zm3.2 10.48c.08.12-.52.69-1.36 1.29s-1.57 1-1.65.86.52-.69 1.35-1.29 1.57-.99 1.66-.86zm2.54 10.45c0 .14-.72.44-1.68.67s-1.76.31-1.79.17.71-.44 1.67-.67 1.77-.31 1.8-.17zm13.79-25.66c.08.12-.57.63-1.5 1s-1.75.39-1.78.25.71-.4 1.6-.74 1.61-.64 1.68-.51zm1.97 16.25c-.06.13-.82-.1-1.7-.51s-1.55-.86-1.49-1 .83.1 1.71.51 1.54.83 1.48 1zm3.5 11.63a10.44 10.44 0 01-4.32-1.69 5.36 5.36 0 012.26.6c1.17.47 2.06.96 2.06 1.09zm-18.7 9.11c-.07-.13.85-.75 1.93-1.6a10.37 10.37 0 012-1.5c.11.1-.57 1-1.69 1.91a4.56 4.56 0 01-2.24 1.19zm9.19-5.91c-.14 0-.34-.77-.7-1.67s-.72-1.63-.6-1.71.71.54 1.09 1.52.35 1.86.21 1.86zm-2.43-14c-.09.12-.68-.17-1.33-.63s-1.11-.94-1-1.06.67.17 1.32.64 1.09.94 1.01 1.05zm21.43-21.91c.09.12-.49.69-1.29 1.28s-1.52 1-1.6.85.49-.68 1.29-1.27 1.52-.95 1.6-.86zm3.23 8.83c0 .14-.89.33-2 .21s-2-.5-1.92-.63.91 0 2 .11a6 6 0 011.92.31zm-13.88 1.98c0 .14-.81.44-1.9.51s-1.95-.11-1.94-.25.87-.2 1.91-.27 1.9-.13 1.93.01zm1.16-8.35c0 .14-.86.16-1.79-.27s-1.46-1.08-1.36-1.18.73.33 1.58.71 1.62.59 1.57.74zm13.92 15.85c-.08.13-.95-.28-1.94-.91s-1.74-1.23-1.66-1.35.94.28 1.93.91 1.75 1.23 1.67 1.35z" fill="#263238"/>
  <path fill="#34a37e" d="M356.71 373.19h74.09v13.13h-74.09z"/>
  <path fill="#34a37e" d="M362.24 383.72l9.01 39.24h44.16l9.86-39.24h-63.03z"/>
  <path d="M430.76 386.34c0 .14-16.71.26-37.32.26s-37.33-.12-37.33-.26 16.71-.26 37.33-.26 37.32.11 37.32.26zm-41.2-45.15c-.13.08-.63-.51-1.14-1.32s-.81-1.52-.68-1.59.62.51 1.13 1.32.81 1.51.69 1.59zm.02 10.57a4.26 4.26 0 01.39-2c.35-1.05.75-1.87.88-1.83s0 .94-.39 2-.74 1.87-.88 1.83zm3.62 11.09c-.13.06-.68-.83-1.24-2a5.41 5.41 0 01-.76-2.21c.13-.06.68.83 1.23 2a5.3 5.3 0 01.77 2.21zm-7.83 8.92c-.1-.09.34-.78 1-1.53s1.27-1.29 1.38-1.2-.33.78-1 1.54-1.27 1.28-1.38 1.19zm-1.64-16.2c0 .14-.74.13-1.59 0s-1.53-.39-1.5-.53.74-.13 1.59 0 1.53.39 1.5.53z" fill="#263238"/>
  <path d="M284.72 409.77l24.69 22.54s31.4-17.54 36.17-13.81L303.63 466l-38.32-33.52z" fill="#34a37e"/>
  <path d="M295 444.13a2.59 2.59 0 001 3.29 2.49 2.49 0 003.28-1 2.72 2.72 0 00-1.11-3.48c-1.17-.48-3 .17-3.29 1.41" fill="#e0e0e0"/>
  <path d="M303.63 466l-3.73-3.53 41.62-44.18s2.79-1.3 4.06.26zm6.81-34.88c.22.21-.7 1.47-1 3.27s.17 3.26-.11 3.39-1.31-1.39-.95-3.56 1.89-3.34 2.06-3.1zm6.46-3.99c.27.15-.23 1.5.06 3.15s1.12 2.8.9 3-1.65-.79-2-2.85.81-3.49 1.04-3.3zm8.45 2.44c-.13.25-1.58-.45-2.32-2.16s-.29-3.25 0-3.18.36 1.34 1 2.74 1.5 2.35 1.32 2.6z" fill="#263238"/>
  <path d="M254.53 433.93c-1.81-1.5-4.25-1.94-6.58-2.33 1.77-12.62-7-24.14-16.19-33-11.48-11.15-24.74-21-40.12-25.48-13.89-4-28.64-3.31-43.08-2.58l-59.22 3c-20.2 7.07-37.24 28-40.77 49.13a6.93 6.93 0 00-10 1.1 7.39 7.39 0 002.17 10.05 7.91 7.91 0 0010.22-2.11 128.28 128.28 0 0090.17 13.92c9.51-2.07 18.78-5.23 28.34-7.06a207.14 207.14 0 0121.47-2.57l40.68-3.46 15.9 7.58c2.65 1.26 6.25 2.35 8.15.11 1.52-1.85.68-4.79-1.14-6.3z" fill="#455a64"/>
  <path d="M207.87 426.78a2 2 0 01-.38.06l-1.15.14-4.4.46c-1.9.24-4.23.58-6.93 1s-5.76.94-9.13 1.63c-6.75 1.29-14.72 3.12-23.59 5.12s-18.65 4.13-29.07 5.5a125.47 125.47 0 01-29.56.49 134.18 134.18 0 01-23.6-5.18c-6.57-2.05-11.78-4-15.36-5.42-1.79-.7-3.17-1.26-4.11-1.65l-1.06-.45a2 2 0 01-.35-.17 1.8 1.8 0 01.37.12l1.08.4 4.14 1.56c3.61 1.34 8.83 3.26 15.4 5.25a135.58 135.58 0 0023.55 5 126.2 126.2 0 0029.44-.53c10.38-1.36 20.15-3.49 29-5.44s16.87-3.78 23.63-5c3.38-.67 6.46-1.11 9.15-1.55s5-.67 7-.88l4.41-.37 1.15-.08a1.64 1.64 0 01.37-.01z" fill="#263238"/>
  <path d="M106.51 447.88c-.05 0-.34-.31-.56-1a4.61 4.61 0 010-2.77 4.68 4.68 0 011.57-2.28c.57-.44 1-.56 1-.51s-.32.31-.79.78a5.22 5.22 0 00-1.45 4.69c.14.66.3 1.06.23 1.09zm-5.06-2.71a2.85 2.85 0 01.09-2.62c.61-1.43 1.82-2 1.86-1.85s-.86.8-1.39 2.06a15.31 15.31 0 00-.56 2.41zm-17-41.59c.1 0-.86 1.78-1.84 4.8a25 25 0 00-.71 2.49c-.25.9-.41 1.89-.6 2.92a36.37 36.37 0 00.39 13.53c.25 1 .47 2 .77 2.88s.56 1.71.84 2.45c1.17 3 2.22 4.63 2.12 4.69a7.81 7.81 0 01-.76-1.17 12.65 12.65 0 01-.78-1.43c-.28-.57-.63-1.21-.92-2a24.41 24.41 0 01-.91-2.45c-.33-.89-.56-1.87-.83-2.9a34.71 34.71 0 01-.39-13.72c.21-1 .38-2 .65-2.94s.51-1.75.78-2.51.55-1.42.79-2a12.8 12.8 0 01.71-1.47 6.61 6.61 0 01.69-1.17zm22.74-2.9a17.37 17.37 0 00-4.54 2.14 17.38 17.38 0 00-3.39 3.69 3.39 3.39 0 01.59-1.4 9.57 9.57 0 015.82-4.28 3.3 3.3 0 011.52-.15zm2.93 24.66a3.91 3.91 0 01-.44-.91 7.83 7.83 0 01-.4-1.12 14.61 14.61 0 01-.42-1.52 20.74 20.74 0 01-.5-4.07 23.43 23.43 0 01.46-5 23.83 23.83 0 011.59-4.77 20.69 20.69 0 012.1-3.52 14 14 0 011-1.22 8.79 8.79 0 01.82-.86c.47-.45.74-.69.77-.66s-1 1.06-2.28 2.95a22.78 22.78 0 00-2 3.51 23 23 0 00-2 9.57 22.84 22.84 0 00.38 4c.46 2.28 1.02 3.58.92 3.62zm-59.07-3.91c.14-.05.68 1.26 1.75 2.6s2.22 2.18 2.13 2.31a6.89 6.89 0 01-3.88-4.91zM188.63 436c0-.08.42-.24 1-.72a3.87 3.87 0 001.33-2.39 3.94 3.94 0 00-.68-2.65c-.41-.61-.81-.88-.76-.95s.51.12 1 .72a3.83 3.83 0 01.91 2.94 3.78 3.78 0 01-1.63 2.62c-.65.43-1.16.5-1.17.43zm9.17-1.73a15.32 15.32 0 00-.42-2.82A15.1 15.1 0 00196 429a3.55 3.55 0 011.88 2.33 3.46 3.46 0 01-.08 2.94zm-18.4-44.64a10.42 10.42 0 011.08 1.34 14.58 14.58 0 011.14 1.66 22.21 22.21 0 011.34 2.31c.23.44.47.9.71 1.38s.44 1 .67 1.55a36.32 36.32 0 011.27 3.5 41.61 41.61 0 011.53 8.39 41.09 41.09 0 01-.39 8.51 34.83 34.83 0 01-.78 3.65c-.16.56-.28 1.11-.45 1.62s-.35 1-.52 1.47a25.47 25.47 0 01-1 2.47 14.91 14.91 0 01-.91 1.8 9.53 9.53 0 01-.89 1.47c-.11-.06 1.19-2.15 2.47-5.86q.24-.7.48-1.47c.17-.51.28-1.06.42-1.61.32-1.11.5-2.33.73-3.61a43.22 43.22 0 00.34-8.41 42.28 42.28 0 00-1.47-8.28c-.4-1.23-.74-2.42-1.21-3.48-.22-.53-.4-1.06-.63-1.54l-.67-1.38c-1.8-3.51-3.37-5.41-3.26-5.48z" fill="#263238"/>
  <path d="M63.93 430c0 .08-.32.31-.78.79a5.4 5.4 0 00-1.36 4.77c.14.65.33 1 .25 1.08s-.36-.3-.61-1a4.68 4.68 0 010-2.8 4.61 4.61 0 011.51-2.34c.53-.45.97-.56.99-.5zm15.47-51.61s-.12.16-.37.43L77.88 380c-.51.48-1.12 1.08-1.78 1.82s-1.47 1.54-2.24 2.52c-.39.49-.81 1-1.24 1.51s-.83 1.12-1.27 1.71c-.89 1.16-1.72 2.5-2.61 3.88a60.19 60.19 0 00-7.82 19.87c-.29 1.63-.59 3.17-.73 4.63-.08.73-.19 1.43-.23 2.11l-.12 2c-.11 1.24-.07 2.37-.08 3.36a24.74 24.74 0 00.06 2.55c0 .65 0 1.18.07 1.61a3.2 3.2 0 010 .57 2.33 2.33 0 01-.1-.56c0-.42-.1-1-.16-1.61a22.16 22.16 0 01-.15-2.55c0-1-.08-2.13 0-3.39 0-.63.06-1.29.09-2s.13-1.39.2-2.13c.12-1.48.41-3 .69-4.67a58.47 58.47 0 017.88-20c.91-1.39 1.76-2.73 2.68-3.89.45-.58.85-1.17 1.29-1.7l1.29-1.5c.79-1 1.61-1.76 2.3-2.48a23.75 23.75 0 011.85-1.77l1.25-1.15a2.91 2.91 0 01.4-.35zm35.73-5.9a5.36 5.36 0 01-.66.4c-.43.26-1.11.57-1.91 1.09a40 40 0 00-6.46 4.85 45.44 45.44 0 00-7.61 9.17 52.44 52.44 0 00-5.94 13.37 72.77 72.77 0 00-2 26.49c.33 3.41.75 6.15 1.07 8l.36 2.18a4.25 4.25 0 01.1.76 3.67 3.67 0 01-.2-.74c-.11-.5-.29-1.22-.46-2.16-.38-1.89-.85-4.63-1.23-8a79.27 79.27 0 01-.44-12.06 63.71 63.71 0 012.26-14.61 51.24 51.24 0 016-13.48 44 44 0 017.78-9.23 36.4 36.4 0 016.6-4.76c.82-.49 1.52-.77 2-1a4.28 4.28 0 01.74-.27zm-34.24 63.78c.06.06-.28.41-.66 1.06a6.31 6.31 0 00-.82 2.78 6.46 6.46 0 00.53 2.86c.31.68.62 1.06.55 1.12s-.45-.26-.87-.95a5.46 5.46 0 01-.73-3.05 5.54 5.54 0 011-3c.53-.61.97-.86 1-.82zm40.71 11.97c0 .06-.5.08-1.21-.25a3.93 3.93 0 01-1.91-5.2c.33-.72.72-1 .77-1a11.45 11.45 0 01-.43 1.11 4.3 4.3 0 000 2.68 4.24 4.24 0 001.72 2.07c.63.4 1.08.51 1.06.59zm18.5-78.01c.14 0-.65 15.56-1.78 34.74s-2.15 34.71-2.29 34.71.65-15.56 1.77-34.74 2.2-34.72 2.3-34.71zm20.23 70.65c-.15 0-.22-1.31-.78-2.79s-1.34-2.53-1.22-2.62a4.44 4.44 0 011.71 2.44 4.37 4.37 0 01.29 2.97zm3.76-68.79s.2.12.54.39.84.65 1.44 1.21a45.27 45.27 0 014.83 5 48.72 48.72 0 019.94 43.13 46.31 46.31 0 01-2.16 6.6c-.3.76-.59 1.33-.77 1.72a2.83 2.83 0 01-.31.58 3.3 3.3 0 01.21-.62c.15-.41.41-1 .68-1.75a51.81 51.81 0 002-6.61 49.66 49.66 0 00-9.86-42.81 52.78 52.78 0 00-4.68-5.07c-.58-.58-1.07-1-1.38-1.28a3.94 3.94 0 01-.48-.49zM209 434.32a38 38 0 00-1.48-4 36.11 36.11 0 00-2.37-3.51 9.19 9.19 0 013.85 7.48zM229 422s.59.23 1.25 1a7.1 7.1 0 011.24 7.24c-.38.91-.81 1.36-.86 1.32s.24-.55.51-1.44a7.83 7.83 0 00.22-3.58 8 8 0 00-1.39-3.31c-.54-.75-.97-1.13-.97-1.23zm-12.59-35.5a6.75 6.75 0 01.52 1.32c.32.86.71 2.12 1.14 3.7a69.47 69.47 0 012 25.35c-.18 1.63-.37 2.94-.54 3.83a6.75 6.75 0 01-.32 1.39 8.56 8.56 0 01.11-1.41c.12-.91.25-2.22.39-3.84a79.55 79.55 0 00-2-25.23c-.38-1.58-.72-2.85-1-3.73a8.58 8.58 0 01-.3-1.38z" fill="#fff"/>
  <path d="M219.15 382.15C181.09 355.93 121.6 357 81 377.39c-.92 12.18 7.49 24.44 19.19 27.95 9 2.69 19.36.77 27.25 5.81 4.91 3.13 8.29 8.67 13.83 10.46 5.38 1.74 11.28-.64 15.85-4s8.42-7.65 13.27-10.58c11.71-7.11 26.51-4.87 40.19-4 6.7.44 15.35-.9 16.87-7.45 1.25-5.44-3.68-10.25-8.3-13.43z" opacity=".3"/>
  <path d="M216.13 281.8l6 25L234 318.38l-19.36 4s-13.69-1.62-16.16-5-6-30.27-6-30.27z" fill="#ba7f72"/>
  <path d="M171.41 210.08l20.08 7.11.78 95s-28.64 25-30.37 24.78-71.14 21.78-73 25.86c0 0-8.58-1.32-8.58-6.41 0-8.36 8-13.1 8-13.1 1.26-9.39 9.24-20.33 9.24-20.88 0-3.9-3.68-28.38-3.68-28.38s-.38-61.39 11.89-74.33c15.23-16.1 65.64-9.65 65.64-9.65z" fill="#34a37e"/>
  <path d="M222.1 280.08s-17.41-62.65-32.22-63.18l1.63 74.88s26.49-4.56 30.59-11.7z" fill="#34a37e"/>
  <path d="M256 285.53l3.83-5.57a1.69 1.69 0 01.44-.48 1.37 1.37 0 01.8-.17A11 11 0 01266 281l4.07 2.15a1 1 0 01.32.22.8.8 0 01-.19 1.11 2.26 2.26 0 01-1.18.37c-4.08.51-8.19.85-12.3 1-.27 0-.62 0-.7-.29" fill="#ba7f72"/>
  <path d="M280.55 285.83l-27.22 27.41-58.82 13.39L210.68 295a8.06 8.06 0 016.09-4.34c11.94-1.61 46.35-6.29 61.65-8.83a2.39 2.39 0 012.13 4z" fill="#e0e0e0"/>
  <path d="M280.55 285.83s.12-.14.3-.45a2.23 2.23 0 00.27-1.51 2.36 2.36 0 00-1.52-1.87 2.77 2.77 0 00-1.59 0l-1.86.31c-5.26.88-12.88 2-22.3 3.41s-20.65 3-33.13 4.66c-1.54.23-3.17.39-4.7.69a7.69 7.69 0 00-4 2.4 8.44 8.44 0 00-1.32 2l-1.14 2.23-2.31 4.53c-3.12 6.1-6.35 12.42-9.65 18.89l-2.87 5.6-.29-.37 58.83-13.33-.1.05 19.95-20c2.36-2.35 4.2-4.18 5.48-5.44l1.4-1.33c.33-.32.51-.47.51-.47s-.15.18-.46.51l-1.4 1.45-5.4 5.52-19.82 20.07h-.06l-58.8 13.44-.57.18.25-.5c.94-1.84 1.9-3.71 2.86-5.6l9.69-18.9c.78-1.52 1.56-3 2.32-4.53l1.15-2.23a8.94 8.94 0 011.38-2.13 8.28 8.28 0 014.26-2.55c1.63-.31 3.18-.45 4.75-.68l33.14-4.55c9.43-1.33 17.05-2.43 22.31-3.25l1.87-.29a2.87 2.87 0 011.67.05 2.46 2.46 0 011.57 2 2.23 2.23 0 01-.33 1.55 1.81 1.81 0 01-.34.44z" fill="#263238"/>
  <path d="M236.31 304.71c.17 1.24 2 2 4 1.76s3.6-1.5 3.44-2.74-2-2-4-1.76-3.6 1.49-3.44 2.74z" fill="#fff"/>
  <path d="M239.55 306.55c-1.73 0-3.12-.75-3.26-1.84a2 2 0 01.89-1.76 5.3 5.3 0 012.57-1 5.21 5.21 0 012.74.32 1.74 1.74 0 01.43 3.22 5.3 5.3 0 01-2.57 1 5.49 5.49 0 01-.8.06zm1-4.61a7.34 7.34 0 00-.81.05 5.19 5.19 0 00-2.54 1 1.91 1.91 0 00-.88 1.71c.16 1.23 2 2 4 1.74a5.17 5.17 0 002.55-1 1.7 1.7 0 00-.42-3.14 4.73 4.73 0 00-1.88-.36z" fill="#fff"/>
  <path d="M212.09 299.93a2.91 2.91 0 01.22-.71c.18-.46.45-1.13.86-2a10.84 10.84 0 011.9-2.83c1-1 2.6-1.3 4.21-1.57 6.54-1.12 15.57-2.69 25.59-4.2l7.3-1.12c2.37-.3 4.66-.53 6.84-.78l11.59-1.27c3.28-.37 5.9-1 7.74-1.27.91-.15 1.63-.24 2.12-.29a4.11 4.11 0 01.74 0 4.17 4.17 0 01-.73.14c-.48.08-1.19.21-2.1.39-1.82.33-4.42 1-7.73 1.43l-11.57 1.38c-2.18.26-4.46.51-6.83.81l-7.3 1.14c-10 1.51-19 3-25.6 4a7.63 7.63 0 00-4.08 1.42 11.21 11.21 0 00-1.91 2.71c-.44.82-.74 1.47-.94 1.92a4.45 4.45 0 01-.32.7z" fill="#263238"/>
  <path d="M182.08 303.73s10.84-6.71 14.34-8.11 10-.7 11.5-2.1l5-4.63s2.8 2.94 1 5.61-8.69 6.16-8.69 6.16l24.11-1.6s1.82 1.32.84 2.86c0 0 1.7 1.83.29 3.65s-18.55 16.35-23.93 16.79-20.95-2.42-20.95-2.42zM128 293.55l2 21.38s44.52-8.22 52-11.2l3.53 16.21s-59.32 27.87-72.73 27S95.23 295 95.23 295z" fill="#ba7f72"/>
  <path d="M204.69 306a38.86 38.86 0 013.88.37 27.57 27.57 0 009.27-.33 39.58 39.58 0 004.84-1.71l3.95-1.53c1.12-.43 2-.77 2.67-1a4.74 4.74 0 011-.3 3.76 3.76 0 01-.93.49c-.61.28-1.51.67-2.62 1.14l-3.9 1.64a37.5 37.5 0 01-4.9 1.77 25.24 25.24 0 01-9.44.18c-1.19-.16-2.15-.33-2.81-.47a3.52 3.52 0 01-1.01-.25zm2.69 7.86c0-.1 1.51.08 3.92 0a13.29 13.29 0 004.13-.73 26.44 26.44 0 004.64-2.28c1.59-.94 3.1-1.89 4.55-2.62s2.75-1.33 3.79-1.94a14.13 14.13 0 003.05-2.41 2.72 2.72 0 01-.61.88 11 11 0 01-2.25 1.84c-1 .67-2.35 1.31-3.76 2.05s-2.9 1.7-4.51 2.65a23.87 23.87 0 01-4.75 2.28 12.62 12.62 0 01-4.27.65 22.61 22.61 0 01-2.89-.22 4.38 4.38 0 01-1.04-.15zm-10.62-8.42c-.06 0-.28-.28-.37-.87a4.24 4.24 0 01.35-2.24 6.59 6.59 0 011.28-1.84c.39-.4.68-.61.73-.56s-.84 1.14-1.53 2.62a5.11 5.11 0 00-.46 2c-.01.53.07.87 0 .89zm1.69 6.72c0 .06-.26 0-.53-.21a2.27 2.27 0 01-.66-2.5c.13-.32.3-.47.35-.44s-.15.8.09 1.66.82 1.33.75 1.49z" fill="#8b5d54"/>
  <path d="M185.61 319.94h.27l.79.12 3 .47c2.66.39 6.51 1 11.36 1.46 1.21.09 2.49.2 3.81.21h1a3.74 3.74 0 001-.1 9.24 9.24 0 002-.64 50.33 50.33 0 007.87-4.83c2.66-1.92 5.4-4.05 8.18-6.36 1.38-1.17 2.8-2.36 4.17-3.63.65-.67 1.45-1.25 1.64-2.1a2.8 2.8 0 00-.71-2.44l-.13-.15.1-.16a1.44 1.44 0 00.15-1.32 2.9 2.9 0 00-.92-1.2l.16.05-9.1.6-15 1-1.18.08 1-.56a41 41 0 007.29-4.68 8 8 0 001.37-1.48 3.1 3.1 0 00.52-1.81 5.74 5.74 0 00-1.52-3.41h.32l-2.85 2.6-1.38 1.25a5.69 5.69 0 01-1.48 1.15 13 13 0 01-3.5.62c-1.13.1-2.23.17-3.29.27a21.54 21.54 0 00-3 .49 13.17 13.17 0 00-2.65 1c-1.65.83-3.14 1.66-4.48 2.41-2.67 1.51-4.76 2.74-6.18 3.58l-1.63.95-.42.24-.15.07.13-.11.4-.26 1.59-1c1.41-.87 3.47-2.14 6.13-3.69 1.33-.77 2.81-1.61 4.46-2.46a13.12 13.12 0 012.71-1.09 20.2 20.2 0 013.08-.52c1.07-.12 2.17-.19 3.3-.29a12.78 12.78 0 003.36-.62 5.13 5.13 0 001.36-1.08l1.37-1.26 2.84-2.61.17-.16.15.17a6.16 6.16 0 011.66 3.72 3.62 3.62 0 01-.59 2.08 8.12 8.12 0 01-1.45 1.59 40.92 40.92 0 01-7.38 4.76l-.13-.48 15-1 9.1-.6h.1l.07.05a3.42 3.42 0 011.11 1.44 2 2 0 01-.21 1.77v-.31a3.29 3.29 0 01.84 2.91 2.92 2.92 0 01-.78 1.33c-.33.37-.68.67-1 1-1.39 1.29-2.81 2.48-4.2 3.64-2.8 2.31-5.55 4.44-8.23 6.35a50.45 50.45 0 01-8 4.83 8.92 8.92 0 01-2.07.66 4.67 4.67 0 01-1 .1h-1c-1.35 0-2.62-.13-3.84-.24-4.86-.5-8.71-1.17-11.36-1.61l-3-.56-.78-.16z" fill="#8b5d54"/>
  <path d="M273.51 292.93c-6.05 2.32-13.48 4.64-19.53 6.52a4.84 4.84 0 00-2.19 1.13 1.66 1.66 0 00-.14 2.24 2.42 2.42 0 001.89.39l4.45-.31a32.35 32.35 0 00-9.51 4.56c-.77.54-1.59 1.26-1.57 2.2a2.06 2.06 0 001.69 1.78 6 6 0 002.61-.18q8.25-1.83 16.42-4.07a4.85 4.85 0 003.59-2.8l2.53-4a6.67 6.67 0 001.21-2.79 5.69 5.69 0 00-1.45-4.63" fill="#ba7f72"/>
  <path d="M129.72 260.31l-18-43.41-.41-1.32c-1.58.95-16.5 10.24-19.55 26s-2 53.28-2 53.28l40.3-1.3z" fill="#34a37e"/>
  <path d="M90.85 247.5a1.08 1.08 0 010 .24c0 .18 0 .4-.08.68-.07.6-.21 1.49-.33 2.64-.24 2.31-.55 5.67-.72 9.9-.35 8.44-.34 20.31.28 33.88l-.25-.24c4.39 0 9 0 13.79-.09 9.83-.22 19.12-.75 27.2-1.4l-.22.22c.47-10.08-.51-18.55-.84-24.51-.19-3-.29-5.33-.33-6.94v-1.84a4.27 4.27 0 010-.63 5.05 5.05 0 01.06.63q0 .68.09 1.83c.09 1.61.23 4 .46 6.93.4 5.94 1.45 14.42 1 24.55v.21h-.2c-8.09.69-17.38 1.24-27.23 1.46-4.77.11-9.41.13-13.81.08h-.24v-.24c-.6-13.6-.53-25.47-.09-33.93.21-4.23.57-7.59.86-9.9.15-1.15.32-2 .42-2.63 0-.28.09-.5.12-.68a.79.79 0 01.06-.22zm22.89-30.77a4.06 4.06 0 011 .32 9.61 9.61 0 011.12.49 14.31 14.31 0 011.42.75 23.94 23.94 0 013.44 2.42 24.82 24.82 0 016.27 8.11 23.63 23.63 0 011.47 3.94 15.75 15.75 0 01.37 1.57 8.33 8.33 0 01.19 1.2 4.28 4.28 0 01.07 1c-.1 0-.28-1.46-1-3.71a26.52 26.52 0 00-1.55-3.83 29.12 29.12 0 00-2.69-4.27 28 28 0 00-3.46-3.68 25 25 0 00-3.32-2.47c-2-1.21-3.37-1.75-3.33-1.84zm74.79 21.91s.13.15.31.48.47.8.79 1.43a53.78 53.78 0 012.43 5.5 69.83 69.83 0 014.34 19.32 48.67 48.67 0 01-.4 10.93 76.62 76.62 0 01-2.1 8.7c-.68 2.44-1.18 4.43-1.49 5.81l-.37 1.59a2.54 2.54 0 01-.16.55 2 2 0 01.06-.57c.06-.37.13-.92.27-1.61.25-1.4.7-3.41 1.34-5.86a86.76 86.76 0 001.95-8.66 50.27 50.27 0 00.38-10.82 73.92 73.92 0 00-4.16-19.23c-.86-2.38-1.68-4.26-2.27-5.54-.28-.6-.52-1.09-.7-1.47a2.77 2.77 0 01-.22-.55zM174.8 265a6.31 6.31 0 01.17 1.32c0 .43.08.95.08 1.57v2.07a32.85 32.85 0 01-.72 5.37 38.37 38.37 0 01-2 6.31 37.22 37.22 0 01-3.21 5.8 32.58 32.58 0 01-3.43 4.19 19.74 19.74 0 01-1.49 1.45 14.08 14.08 0 01-1.19 1 6.46 6.46 0 01-1.09.78c-.07-.08 1.45-1.24 3.5-3.49a36.25 36.25 0 003.3-4.21 40 40 0 003.13-5.74 40.53 40.53 0 002-6.21 35.34 35.34 0 00.82-5.28c.21-3 .02-4.93.13-4.93z" fill="#263238"/>
  <path d="M129.84 293.44s-.17-.1-.46-.34l-1.25-1.05c-1.08-.92-2.62-2.27-4.51-4-3.77-3.39-8.92-8.15-14.46-13.55s-10.42-10.43-13.9-14.12a271.89 271.89 0 01-4.08-4.41l-1.08-1.22a2.64 2.64 0 01-.35-.45 2.78 2.78 0 01.43.38l1.15 1.15 4.2 4.3c3.54 3.62 8.46 8.6 14 14s10.63 10.19 14.34 13.64l4.4 4.09 1.18 1.12a2.92 2.92 0 01.39.46zm64.68-73.08c.1.1-14.25 13.51-32 29.93s-32.33 29.71-32.43 29.55 14.24-13.5 32-29.93 32.34-29.66 32.43-29.55zm26.8 55.64a5.41 5.41 0 01-1.07-.42c-.68-.3-1.65-.75-2.84-1.33-2.39-1.15-5.65-2.82-9.18-4.78s-6.68-3.84-8.92-5.25c-1.12-.71-2-1.29-2.64-1.71a4.62 4.62 0 01-.92-.69 5.34 5.34 0 011 .52l2.72 1.56c2.29 1.33 5.45 3.15 9 5.11s6.76 3.68 9.09 4.91l2.77 1.48a4.42 4.42 0 01.99.6z" fill="#fff"/>
  <path d="M142.5 119.61c-3.89-2.47-4.83-8.19-2.72-12.28s6.57-6.58 11.12-7.32a21.21 21.21 0 0118.26 6c2.5 2.59 4.54 6 7.94 7.14 3 1 6.3.1 9.44.51 4.2.54 7.81 3.53 10 7.19s3.05 7.91 3.55 12.13c.45 3.87.75 8.11 3.44 10.93s6.75 3.34 10 5.3c6.13 3.68 8.11 12.81 4.07 18.7-1.29 1.88-3.14 3.6-3.29 5.88-.13 2.07 1.21 3.92 1.84 5.9 1.61 5.11-2.57 11.17-7.91 11.48-2.7.16-5.59-.9-8 .31s-3.3 4.1-4.84 6.3a11.55 11.55 0 01-14.09 3.64c-2-1-3.86-2.58-6.07-2.43s-3.93 2-6.1 2.44c-2.83.55-5.53-1.54-7.21-3.88s-2.86-5.11-5-7c-2.83-2.51-6.8-3.13-10.38-4.37a29.25 29.25 0 01-16.52-41" fill="#263238"/>
  <path d="M183.62 170.44a8 8 0 013.16-2.08h-.24a5.24 5.24 0 01.67-.12 3.16 3.16 0 012.47.31 5.78 5.78 0 013.19 2.78 6.9 6.9 0 01-.82 7.11 5.27 5.27 0 01-9.68-1.81 6.55 6.55 0 011.25-6.19z" fill="#455a64"/>
  <path d="M187.23 142.41c-1-10.95-8.65-24.21-19.56-22.75l-33.9 9.6a6.45 6.45 0 00-5.57 6.74l3.68 73.81 37.41 26.81c-.11-6.65 2.41-36.91 2.41-36.85s14-2.72 16.34-21.1c1.19-9.19.31-24.09-.81-36.26z" fill="#ba7f72"/>
  <path d="M185.48 158a2.34 2.34 0 01-2.2 2.43 2.24 2.24 0 01-2.48-2A2.34 2.34 0 01183 156a2.24 2.24 0 012.48 2zm-1.26-7.74c-.29.32-2.1-.95-4.62-.87s-4.34 1.39-4.63 1.09c-.13-.13.15-.69.94-1.3a6.39 6.39 0 013.68-1.26 6.2 6.2 0 013.69 1.08c.8.57 1.08 1.12.94 1.26zM161.18 158a2.34 2.34 0 01-2.19 2.43 2.24 2.24 0 01-2.48-2 2.34 2.34 0 012.19-2.43 2.24 2.24 0 012.48 2zm-1.76-6.56c-.29.31-2.1-.95-4.63-.87s-4.34 1.39-4.62 1.09c-.14-.14.14-.7.93-1.31a6.53 6.53 0 013.69-1.25 6.16 6.16 0 013.69 1.08c.79.57 1.07 1.12.94 1.26zm9.69 18.46c0-.14 1.54-.46 4.08-.86.64-.08 1.25-.23 1.34-.67a3.29 3.29 0 00-.48-1.9q-1-2.31-2.05-4.85c-2.84-6.92-4.92-12.61-4.64-12.72s2.81 5.4 5.66 12.31c.68 1.71 1.34 3.33 2 4.89a3.7 3.7 0 01.41 2.52 1.59 1.59 0 01-1 1 4.46 4.46 0 01-1.1.19c-2.62.19-4.21.19-4.22.09z" fill="#263238"/>
  <path d="M171.7 199.72a46.46 46.46 0 01-24.7-5.84s6.3 12.4 24.56 10.17zm-2.79-23.81a6.26 6.26 0 00-5.2-2.57 4.07 4.07 0 00-3.27 1.91 3.91 3.91 0 00.18 4.07 3.86 3.86 0 004.14 1.36 9.12 9.12 0 003.65-2.4 2.81 2.81 0 00.77-1 1.28 1.28 0 00-.13-1.28" fill="#8b5d54"/>
  <path d="M161.73 171.86c.41 0 .49 2.7 2.89 4.58s5.31 1.49 5.34 1.88c0 .17-.63.55-1.86.62a6.88 6.88 0 01-4.46-1.42 6 6 0 01-2.25-3.84c-.14-1.15.15-1.83.34-1.82zM160.24 141c-.23.7-2.76.44-5.72.88s-5.32 1.32-5.73.72c-.18-.29.21-1 1.16-1.64a10 10 0 018.72-1.22c1.1.42 1.66.94 1.57 1.26zm22.84.6c-.43.58-2.18 0-4.27.07s-3.86.49-4.28-.09c-.19-.29.08-.87.83-1.44a6.23 6.23 0 016.89 0c.75.59 1.02 1.17.83 1.46z" fill="#263238"/>
  <path d="M199.56 138.57a12.6 12.6 0 00-4.82-6.93 43.19 43.19 0 01-4.07-2.37c-2.65-2.13-3.26-5.84-4.89-8.82a13.85 13.85 0 00-10.53-7c-3.62-.37-7.36.72-10.89-.17-2.61-.66-4.89-2.35-7.54-2.86-5.15-1-9.94 2.72-13.68 6.4 0 3.69 2.93 6.16 5.75 8.53a12.83 12.83 0 0010.36 2.73c2.82-.51 5.9-1.94 8.34-.44s2.67 5.44 4.94 7.42c3.25 2.82 8.42.17 12.54 1.39 3.18.95 5.17 4 7.29 6.55s5.28 5 8.47 4.05a37.31 37.31 0 00-1.27-8.48z" fill="#263238"/>
  <path d="M160.87 123c-2.31-.67-7-2.16-8.27-4.16-2.69-4.36-7.44-7.33-12.29-7.06a11.65 11.65 0 00-10.49 9.22 16.75 16.75 0 00-14.4 9.27 17.82 17.82 0 00-.92 2.15 12.75 12.75 0 00-.85 10.7c.8 2.09 2.16 4.41 1.09 6.37s-3.86 2.06-6 2.8a8.47 8.47 0 00-5.33 9.45c.3 1.39 1 2.78.67 4.17s-1.53 2.47-2.49 3.6a10.54 10.54 0 006.18 17.15c1.65.29 3.43.23 4.85 1.1 1.63 1 2.34 3 3.5 4.5a9.09 9.09 0 009.84 3.08 8 8 0 002-1c1.1 1.52 2.83 2.56 5.78 2.56l-.74-38.6a3.18 3.18 0 002.33 1.84c6.19 1.4 7.1-11.36 5.72-14.82a35.94 35.94 0 006.21-6.53c1.71-2.53 3.21-9.41 2.85-12.52 2.27.13 11.78-3 10.76-3.27z" fill="#263238"/>
  <path d="M134.74 161.44c-.19-3.92-5-4.76-8.39-2.79-1.87 1.08-3.29 3.24-3.12 7.41.46 11.1 11.5 8.35 11.51 8s.26-8.06 0-12.62z" fill="#ba7f72"/>
  <path d="M131.18 170c-.05 0-.19.15-.51.31a2 2 0 01-1.45.09c-1.19-.38-2.25-2.2-2.39-4.2a6.46 6.46 0 01.43-2.79 2.26 2.26 0 011.39-1.55 1 1 0 011.17.49c.16.3.1.52.16.54s.23-.19.12-.65a1.3 1.3 0 00-.47-.68 1.49 1.49 0 00-1.08-.24 2.75 2.75 0 00-2 1.81 6.59 6.59 0 00-.54 3.12c.16 2.23 1.4 4.28 3 4.68a2.08 2.08 0 001.76-.37c.4-.27.45-.56.41-.56z" fill="#8b5d54"/>
  <path d="M145.59 120a6.72 6.72 0 00-2.22 1.85c-1.09 1.51-1.51 4.41-.81 7.68l.06.28-.28.07a10.73 10.73 0 00-7.15 6.3 8.51 8.51 0 00-.57 2.7 15.38 15.38 0 00.35 2.94 22.31 22.31 0 01.42 3.16 5.28 5.28 0 01-.88 3.27c-1.38 2.1-3.6 3.14-5.51 4.14a18.75 18.75 0 00-5.15 3.37 13.89 13.89 0 00-4.15 9.3 14.48 14.48 0 001.47 6.86c.73 1.52 1.35 2.24 1.29 2.29a2.82 2.82 0 01-.47-.5 11.38 11.38 0 01-1.09-1.71 14 14 0 01-1.75-7 14.27 14.27 0 014.19-9.8 19 19 0 015.31-3.54c1.91-1 4-2 5.2-3.89 1.23-1.68.68-3.88.36-5.87a16.6 16.6 0 01-.34-3.08 8.75 8.75 0 01.65-3 11.25 11.25 0 017.69-6.6l-.22.35c-.65-3.42-.13-6.42 1.12-8a4.75 4.75 0 011.74-1.41 2.66 2.66 0 01.74-.16zM127 174.18a7.94 7.94 0 013.16-2.08h-.25a5.39 5.39 0 01.68-.12 3.16 3.16 0 012.47.31 5.8 5.8 0 013.19 2.77 6.89 6.89 0 01-.81 7.12 5.28 5.28 0 01-9.69-1.81 6.58 6.58 0 011.25-6.19zm57.32-8.69c2.09-.24 4.68-.66 5.45-1.4 1.15-1.08 2.34-5.11 3.36-8.91.13-.49.21-.82.25-.91l-.8-.31a9.76 9.76 0 00-.29 1c-.54 2-2 7.46-3.12 8.54-1.34 1.26-12.5 1.91-13.54 1.19-.64-.52-2.15-5.37-3-8.65l-.08-.3-4.44-.12-.11.28c-.87 2.21-3.57 8.21-5.52 9.33-2.45 1.39-12 .72-12.69-.23s-2.27-6.48-3.24-10.08l-.08-.32-13.55.55v.82l12.86-.52c.49 1.79 2.45 8.91 3.29 10 1.15 1.53 11.36 1.86 13.83.45s5.18-8 5.78-9.47l3.17.08c.5 1.86 2.2 8 3.23 8.78s6.55.38 7.18.33 1.26-.05 2.06-.13z" fill="#455a64"/>
  <path d="M167.83 157.07l.87-1.42c-5.86-3.22-16.3-4.56-22.93-1.1l.81 1.44c5.91-3.08 15.76-1.93 21.25 1.08zm25.01-1.96l.65-1.52c-7.11-2.7-16.28-1.82-21.8 2.1l1 1.31c5.01-3.54 13.66-4.35 20.15-1.89z" fill="#455a64"/>
  <path d="M246.63 414.94l-12.1 30s26.4 25.7 24.33 31.53l-59.45-25.3 20.09-47.88z" fill="#34a37e"/>
  <path d="M217.74 435.77a2.65 2.65 0 00-2.86 2.06 2.55 2.55 0 002 2.85 2.77 2.77 0 003-2.19c.08-1.3-1.13-2.85-2.42-2.74" fill="#e0e0e0"/>
  <path d="M199.41 451.19l2.22-4.75 56.17 26s2.15 2.28 1.06 4zm36.71-4.91c-.13.29-1.64-.2-3.47.13s-3.1 1.22-3.32 1 .93-1.72 3.14-2.08 3.83.67 3.65.95zm5.14 5.23c-.06.31-1.52.27-3 1.08s-2.35 2-2.63 1.85.23-1.86 2.12-2.83 3.62-.38 3.51-.1zm.36 8.97c-.29-.05-.07-1.67 1.35-2.94s3.05-1.33 3.07-1-1.19.79-2.34 1.85-1.78 2.18-2.08 2.09zM198.3 326.45s65.08-16.6 72.16-16.16 29.88 4.65 21 31.21-48.7 94.08-48.7 94.08l-33.5-14.09 20-48.56s-41.9 12.6-59.14 13.61-31.4-23.35-31.4-23.35z" fill="#263238"/>
  <path d="M253.86 335a11.91 11.91 0 012.14-2 30.38 30.38 0 016.12-3.81 32.44 32.44 0 016.83-2.31c1.79-.41 2.81-.87 2.85-.81a7.91 7.91 0 01-2.75 1.17 40.37 40.37 0 00-6.71 2.42 38.41 38.41 0 00-6.12 3.63c-1.45 1.07-2.31 1.81-2.36 1.71z" fill="#455a64"/>
  <path d="M241.34 356.39a4 4 0 01.35-1c.26-.61.65-1.47 1.15-2.54a88 88 0 014.35-8.11 89 89 0 015.24-7.56c.72-.93 1.32-1.67 1.74-2.18a3.93 3.93 0 01.7-.75 3.64 3.64 0 01-.54.87c-.44.64-1 1.39-1.6 2.28-1.35 1.92-3.23 4.56-5.1 7.61s-3.37 5.93-4.46 8l-1.3 2.46a3.65 3.65 0 01-.53.92z" fill="#455a64"/>
  <path d="M178.24 321.39c2.64-1.07 10.81-3.81 13.66-3.95 4.43-.23 10.83 0 15 2.8 6.88 4.59 94.87 97.46 94.87 97.46l-24.69 30.35s-45.29-32.84-57.41-45.94-25.87-33.73-25.87-33.73-16.42 17.36-31.7 24.94c-9.51 4.72-32.79 10-52.82 8.24a30.6 30.6 0 01-27.78-33.83v-.34a82.37 82.37 0 011.87-8.85z" fill="#263238"/>
  <path d="M160.33 394.12l.61-.4 1.82-1.14c1.6-1 4-2.49 7-4.49s6.71-4.53 10.83-7.72a90.58 90.58 0 0013.06-12.1l.17-.19.1.24a67 67 0 005.5 9.65c2.21 3.22 4.73 6.44 7.48 9.7s5.78 6.49 9 9.77 6.65 6.57 10.26 9.89c7.22 6.62 15.15 13.34 23.66 20.09S267.39 441 277 447.69h-.34l23.75-28.48 1.31-1.57v.36c-18.53-19.31-36.16-37.69-52.2-54.39L226.68 340c-3.6-3.67-7.07-7.23-10.46-10.59-1.69-1.67-3.38-3.29-5.05-4.85a37.51 37.51 0 00-5.13-4.26 24.55 24.55 0 00-8.83-3 17.16 17.16 0 00-3 .06 63.18 63.18 0 00-10.83 2.35c-6.64 2-12.24 4.1-16.79 5.87s-8 3.25-10.41 4.25l-2.65 1.17c-.6.26-.92.38-.92.38l.9-.43 2.67-1.2c2.35-1 5.84-2.53 10.38-4.34s10.13-3.94 16.78-6a62.89 62.89 0 0110.88-2.39 17.7 17.7 0 013-.08 18.69 18.69 0 013.05.6 19.39 19.39 0 016 2.4 38.61 38.61 0 015.19 4.29c1.68 1.56 3.37 3.17 5.08 4.85 3.4 3.35 6.87 6.9 10.48 10.57l22.89 23.58 52.23 54.36.16.16-.15.18-1.31 1.57c-8.13 9.76-16.09 19.29-23.76 28.48l-.15.18-.19-.13c-9.62-6.71-18.69-13.55-27.2-20.31s-16.44-13.5-23.66-20.14c-3.61-3.33-7-6.65-10.26-9.92s-6.21-6.58-9-9.82-5.27-6.51-7.48-9.75a66 66 0 01-5.49-9.73l.27.05a91.06 91.06 0 01-13.15 12.08c-4.15 3.18-7.85 5.68-10.89 7.66s-5.44 3.44-7.05 4.43l-1.84 1.1z" fill="#455a64"/>
  <path d="M450.13 130.15H234.92a3.71 3.71 0 00-3.65 3.75V244a3.71 3.71 0 003.65 3.76h7.26v20.31l19.76-20.31h188.19a3.7 3.7 0 003.65-3.76V133.9a3.7 3.7 0 00-3.65-3.75z" fill="#fff"/>
  <path d="M235.63 130.15h213.79a4.37 4.37 0 014.37 4.37v16.11H231.27v-16.12a4.37 4.37 0 014.36-4.36z" fill="#e0e0e0"/>
  <path d="M245 140.72a2.81 2.81 0 11-2.8-2.88 2.85 2.85 0 012.8 2.88zm9 0a2.81 2.81 0 11-2.8-2.88 2.85 2.85 0 012.8 2.88zm9.35 0a2.81 2.81 0 11-2.8-2.88 2.84 2.84 0 012.8 2.88z" fill="#fff"/>
  <path d="M330.55 139.89c0 1.3-.95 2.1-2.46 2.1H327v1.61h-1.31v-5.82h2.45c1.46 0 2.41.81 2.41 2.11zm-1.33 0c0-.64-.4-1-1.2-1H327v2h1c.82.01 1.22-.37 1.22-1zm4.87-.83v1.2h-.29c-.69 0-1.15.39-1.15 1.25v2.11h-1.27v-4.47h1.21v.59a1.74 1.74 0 011.5-.68zm.38 2.3a2.39 2.39 0 112.39 2.3 2.27 2.27 0 01-2.39-2.3zm3.5 0a1.12 1.12 0 10-2.22 0 1.12 1.12 0 102.22 0zm1.79 0a2.28 2.28 0 012.43-2.3 2 2 0 011.95 1.14l-1 .54a1.08 1.08 0 00-1-.61 1.24 1.24 0 000 2.47 1.06 1.06 0 001-.61l1 .54a2 2 0 01-1.95 1.13 2.27 2.27 0 01-2.43-2.3zm9.24.37h-3.29a1.16 1.16 0 001.25.89 1.45 1.45 0 001.09-.43l.67.75a2.25 2.25 0 01-1.8.72 2.28 2.28 0 01-2.48-2.3 2.25 2.25 0 012.32-2.3 2.19 2.19 0 012.27 2.32c.04.1.02.24-.03.35zm-3.3-.76h2.14a1 1 0 00-1.07-.93 1 1 0 00-1.03.96zm3.78 2.21l.42-.93a2.91 2.91 0 001.52.43c.58 0 .8-.16.8-.4 0-.73-2.63 0-2.63-1.77 0-.85.74-1.45 2-1.45a3.53 3.53 0 011.68.39l-.42.92a2.55 2.55 0 00-1.26-.33c-.56 0-.81.19-.81.42 0 .76 2.63 0 2.63 1.78 0 .83-.75 1.42-2.05 1.42a3.73 3.73 0 01-1.88-.48zm4.29 0l.42-.93a2.91 2.91 0 001.52.43c.58 0 .8-.16.8-.4 0-.73-2.63 0-2.63-1.77 0-.85.74-1.45 2-1.45a3.53 3.53 0 011.68.39l-.42.92a2.55 2.55 0 00-1.26-.33c-.56 0-.81.19-.81.42 0 .76 2.63 0 2.63 1.78 0 .83-.75 1.42-2 1.42a3.73 3.73 0 01-1.93-.48zm4.41-.33a.78.78 0 111.56 0 .78.78 0 11-1.56 0zm2.11 0a.79.79 0 111.57 0 .79.79 0 11-1.57 0zm2.12 0a.79.79 0 111.57 0 .79.79 0 11-1.57 0z" fill="#263238"/>
  <rect x="392.73" y="217.23" width="47.64" height="16.23" rx="7.49" fill="#e0e0e0"/>
  <path d="M406.09 225a2.39 2.39 0 012.46-2.46 2.23 2.23 0 011.72.71l-.31.32a1.86 1.86 0 00-1.39-.57 2 2 0 000 4 1.87 1.87 0 001.39-.58l.31.32a2.23 2.23 0 01-1.72.71 2.39 2.39 0 01-2.46-2.45zm7.75.12v2.25h-.45v-.56a1.34 1.34 0 01-1.22.6c-.8 0-1.29-.43-1.29-1.06s.35-1 1.36-1h1.12v-.22a.88.88 0 00-1-1 1.78 1.78 0 00-1.17.43l-.22-.36a2.22 2.22 0 011.44-.49 1.27 1.27 0 011.43 1.41zm-.48 1.16v-.59h-1.1c-.69 0-.91.27-.91.65s.33.68.89.68a1.11 1.11 0 001.12-.74zm5.02-1.01v2.1h-.47v-2.05c0-.77-.39-1.16-1.06-1.16a1.18 1.18 0 00-1.24 1.31v1.9h-.47v-3.63h.45v.67a1.47 1.47 0 011.34-.69 1.37 1.37 0 011.45 1.55zm.96.29a1.75 1.75 0 011.81-1.84 1.54 1.54 0 011.39.71l-.36.25a1.2 1.2 0 00-1-.54 1.42 1.42 0 000 2.83 1.16 1.16 0 001-.53l.36.25a1.55 1.55 0 01-1.39.72 1.77 1.77 0 01-1.81-1.85zm7.14.15h-3a1.32 1.32 0 001.39 1.26 1.39 1.39 0 001.08-.47l.27.31a1.72 1.72 0 01-1.36.6 1.78 1.78 0 01-1.86-1.85 1.72 1.72 0 113.44 0s.04.09.04.15zm-3-.37H426a1.25 1.25 0 00-2.5 0zm3.98-3.09h.48v5.12h-.48z" fill="#fff"/>
  <path d="M450.13 247.75a3.87 3.87 0 001.72-.48 3.71 3.71 0 001.87-3v-1.65c0-4.69 0-11.59-.05-20.47 0-17.79-.05-43.52-.08-75.31v-12.2a8.38 8.38 0 00-.07-1.52 3.61 3.61 0 00-.6-1.36 3.41 3.41 0 00-2.51-1.45H236.33a11.1 11.1 0 00-2.18.09 3.48 3.48 0 00-2.59 3c-.06 2.95 0 6 0 9v101.05a3.7 3.7 0 001 2.93 3.36 3.36 0 001.33.83 4.14 4.14 0 001.59.18h7v20.56l-.42-.17 19.78-20.3.06-.07h.1l136.2.09 38.37.07h13.62-13.62l-38.37.06-136.2.1.17-.07-19.76 20.31-.41.43v-20.9l.25.24h-6.72a5 5 0 01-1.75-.2 4 4 0 01-1.52-1 4.2 4.2 0 01-1.17-3.28V133.41a4 4 0 013-3.41 10.64 10.64 0 012.3-.11h180.68L444 130h6.45a3.78 3.78 0 012.8 1.62 4 4 0 01.66 1.5 8.75 8.75 0 01.08 1.6v12.2c0 31.79-.07 57.52-.09 75.31v22.13a3.76 3.76 0 01-.39 1.39 3.84 3.84 0 01-1.54 1.6 3.62 3.62 0 01-1.29.41 3.19 3.19 0 01-.55-.01z" fill="#263238"/>
  <rect x="246.09" y="181.45" width="195.4" height="19.2" rx="8.86" fill="#fff"/>
  <path d="M432.62 200.65h.27c.18 0 .45 0 .79-.07a9 9 0 003-.94 8.64 8.64 0 001.87-1.31 8.7 8.7 0 002.76-5.18 4.93 4.93 0 00.09-.87v-.91c0-.62 0-1.25-.05-1.9a8.83 8.83 0 00-4.62-6.85 9.44 9.44 0 00-2.25-.82 11.42 11.42 0 00-2.5-.19h-30.66l-146.32.1a8.59 8.59 0 00-4.88 1.52 8.65 8.65 0 00-3.14 4 11.93 11.93 0 00-.56 5.09 8.42 8.42 0 001.73 4.7 8.71 8.71 0 004 2.92 14.46 14.46 0 005 .48h49l65.79.06 44.36.08h16.26-16.26l-44.36.08H254.57a8.31 8.31 0 01-2.6-.49 9.09 9.09 0 01-6.11-8.07 26.22 26.22 0 010-2.66 9 9 0 01.59-2.65 9.17 9.17 0 013.34-4.22 10.2 10.2 0 012.46-1.2 10.34 10.34 0 012.71-.41l146.35.08H432a11.41 11.41 0 012.55.21 9.87 9.87 0 012.32.85 9 9 0 014.7 7.05v2.84a5.27 5.27 0 01-.09.89 8.74 8.74 0 01-1.09 3.07 8.47 8.47 0 01-1.76 2.17 8.58 8.58 0 01-1.92 1.32 8.8 8.8 0 01-3 .89 8.58 8.58 0 01-1.09.34z" fill="#263238"/>
  <path d="M422.08 192.41a1.91 1.91 0 01-2.08 1.89c-1.54 0-2.45-1-2.45-2.89s1.14-3.09 2.78-3.09a2.82 2.82 0 011.49.37l-.39.82a1.88 1.88 0 00-1.08-.29c-1.07 0-1.74.68-1.74 2a1.93 1.93 0 011.52-.6 1.78 1.78 0 011.95 1.79zm-1 .05c0-.61-.45-1-1.14-1a1 1 0 00-1.15 1c0 .55.42 1 1.18 1a1 1 0 001.1-1zm1.55-1.15c0-1.91 1-3 2.36-3s2.37 1.08 2.37 3-1 3-2.37 3-2.36-1.09-2.36-3zm3.67 0c0-1.41-.53-2.05-1.31-2.05s-1.3.64-1.3 2.05.53 2.05 1.3 2.05 1.31-.65 1.31-2.05zm1.7-1.37c0-1 .54-1.6 1.35-1.6s1.36.63 1.36 1.6a1.37 1.37 0 11-2.71 0zm2 0c0-.65-.26-1-.69-1s-.7.38-.7 1 .28 1 .7 1 .69-.36.69-1zm2.7-1.54h.8l-3.87 5.81h-.79zm-1 4.28c0-1 .54-1.6 1.35-1.6a1.62 1.62 0 11-1.35 1.6zm2.05 0c0-.64-.27-1-.7-1s-.7.37-.7 1 .27 1 .7 1 .69-.36.69-1z" fill="#263238"/>
  <rect x="248.57" y="183.76" width="101.49" height="14.64" rx="6.76" fill="#34a37e"/>
  <path fill="#fff" d="M254.46 198.4l8.72-14.64h4.66l-8.6 14.64h-4.78zm11.53 0l8.71-14.64h4.66l-8.59 14.64h-4.78zm11.52 0l8.72-14.64h4.66l-8.59 14.64h-4.79zm11.53 0l8.72-14.64h4.65l-8.59 14.64h-4.78zm11.52 0l8.72-14.64h4.66l-8.59 14.64h-4.79zm11.53 0l8.72-14.64h4.65l-8.59 14.64h-4.78zm11.53 0l8.71-14.64h4.66l-8.59 14.64h-4.78zm11.52 0l8.67-14.58a6.72 6.72 0 013.7 1.66l-7.59 12.92z" opacity=".2"/>
  <path d="M405.62 208.58c0 .14-27.11.26-60.55.26s-60.56-.12-60.56-.26 27.1-.26 60.56-.26 60.55.12 60.55.26z" fill="#e0e0e0"/>
</svg>
