<svg xmlns="http://www.w3.org/2000/svg" viewBox="0 0 500 500">
  <ellipse cx="250" cy="349.69" rx="236.64" ry="134.42" fill="#f5f5f5"/>
  <g fill="#e0e0e0">
    <ellipse cx="122.62" cy="331.38" rx="72.14" ry="41.41"/>
    <ellipse cx="205.36" cy="436.11" rx="40.78" ry="23.41"/>
    <path d="M269.23 438.1h25.34l182.19-105.09-179.52-109.74-82.35 51.55 123.5 72.36-112.65 65.54 43.49 25.38z"/>
  </g>
  <path d="M91.35 305.71l-12.08 6.91s6.28-19.47 3.15-39.17c-1.18-7.44-3.81-11.15-4.73-13.15s-8-14.33-1.58-19.91 21.26 5.84 20.24 36.11a118.77 118.77 0 01-5 29.21z" fill="#455a64"/>
  <path d="M85.73 309.4a.45.45 0 01-.16 0 .49.49 0 01-.29-.62c0-.12 4.67-12.65 4.67-32.88s-10.27-30.92-10.37-31a.48.48 0 010-.68.49.49 0 01.68 0c.11.11 10.65 11.18 10.65 31.7s-4.69 33.1-4.74 33.22a.46.46 0 01-.44.26z" fill="#fff"/>
  <path d="M88.68 307.14l-20 11.55s-9.06-1.46-8.27-10.09 4.5-10.62 0-14.47-5.74-4.12-5.47-7.84 2.76-5.31 3.94-6.77 4.47-4.51 2.23-9-5.28-8.88-.65-10.88c2.75-1.2 7.35.39 10.38 3.71s5.51 5.71 8.4 6.51 8.94.93 8.68 6-1.58 6.78-.4 9c2.21 4.22 11.94 6.61 1.16 22.28z" fill="#37474f"/>
  <path d="M80.55 312.32a.48.48 0 01-.44-.52c0-.3 2.49-29.68-17.47-49.2a.48.48 0 11.67-.68c20.29 19.84 17.79 49.67 17.76 50a.47.47 0 01-.52.4z" fill="#fff"/>
  <path d="M77.29 286.67a.49.49 0 01-.44-.52 17.78 17.78 0 016.6-12.6.48.48 0 01.67.12.47.47 0 01-.11.67 17.12 17.12 0 00-6.2 11.89.48.48 0 01-.52.44zm1.41 5.12a.48.48 0 01-.36-.17c0-.05-5-5.54-16.4-4.09a.48.48 0 01-.12-1c11.94-1.51 17 4.18 17.24 4.42a.48.48 0 010 .68.47.47 0 01-.36.16z" fill="#fff"/>
  <ellipse cx="123.91" cy="315.85" rx="60.9" ry="34.96" fill="#37474f"/>
  <path d="M184.81 315.85c0 19.31-27.26 35-60.9 35S63 335.16 63 315.85v9.77c0 19.3 27.26 34.95 60.89 34.95s60.9-15.65 60.9-34.95v-9.77z" fill="#253239"/>
  <path d="M123.91 346.64c-31.23 0-56.64-13.81-56.64-30.79s25.41-30.79 56.64-30.79 56.65 13.81 56.65 30.79-25.41 30.79-56.65 30.79zm0-60.52c-30.65 0-55.59 13.33-55.59 29.73s24.94 29.73 55.59 29.73 55.59-13.34 55.59-29.73-24.93-29.73-55.59-29.73zm0-124.69c-31.23 0-56.64-13.82-56.64-30.8s25.41-30.79 56.64-30.79 56.65 13.81 56.65 30.79-25.41 30.8-56.65 30.8zm0-60.53c-30.65 0-55.59 13.34-55.59 29.73s24.94 29.74 55.59 29.74S179.5 147 179.5 130.63s-24.93-29.73-55.59-29.73z" fill="#34a37e"/>
  <path fill="#34a37e" d="M179.5 315.86v-.01h1.06l-1.06.01zm-112.23 0v-.01h1.06l-1.06.01zm113.29-.01h-1.06c0-16.4-24.93-29.73-55.59-29.73s-55.59 13.33-55.59 29.73h-1v-32.43A49 49 0 0193 240.17l15.47-8.33a8.71 8.71 0 000-15.31L93 208.2A49 49 0 0167.27 165v-33h1.12v.47c1.79 15.65 26.15 27.91 55.47 27.91s53.69-12.26 55.48-27.91l.05-.47h1.12v33a49 49 0 01-25.69 43.24l-15.48 8.33a8.72 8.72 0 000 15.31l15.48 8.33c15.69 9.23 25.53 25.79 25.69 43.25zm-56.65-30.79c27.5 0 50.48 10.7 55.59 24.84v-26.48c-.15-17.08-9.79-33.3-25.15-42.32l-15.46-8.32a9.78 9.78 0 010-17.18l15.48-8.33A47.93 47.93 0 00179.5 165v-28.4c-5.1 14.23-28.23 24.87-55.59 24.87s-50.48-10.64-55.59-24.87V165a47.94 47.94 0 0025.14 42.31l15.48 8.33a9.78 9.78 0 010 17.18l-15.48 8.33a47.93 47.93 0 00-25.14 42.31v26.44c5.11-14.14 28.1-24.84 55.59-24.84z"/>
  <path d="M128.68 260.23a9.59 9.59 0 00-9.53 0c-12.6 7.21-45.84 27.36-45.84 39.57 0 15.07 22.65 27.29 50.6 27.29s50.61-12.22 50.61-27.29c0-12.21-33.24-32.36-45.84-39.57z" fill="#34a37e"/>
  <path d="M128.68 260.23a9.59 9.59 0 00-9.53 0c-12.6 7.21-45.84 27.36-45.84 39.57 0 15.07 22.65 27.29 50.6 27.29s50.61-12.22 50.61-27.29c0-12.21-33.24-32.36-45.84-39.57z" fill="#fff" opacity=".3"/>
  <path d="M123.91 327.09c-27.95 0-50.6-12.22-50.6-27.29v13.83c0 15.07 22.66 27.29 50.6 27.29s50.61-12.22 50.61-27.29V299.8c0 15.07-22.66 27.29-50.61 27.29zm-50.6-194.57v30a43.77 43.77 0 0022.92 38.58l14 7.51c.21.12.42.24.61.37.5.32 1 .63 1.52.92a19.89 19.89 0 019.34 16.89v13a2.28 2.28 0 002.26 2.29 2.29 2.29 0 002.27-2.29v-13a19.9 19.9 0 019.33-16.89c.52-.29 1-.6 1.53-.92.19-.13.4-.25.61-.37l13.95-7.51a43.77 43.77 0 0022.92-38.58v-30zm52.87 116.59a2.27 2.27 0 10-2.27 2.28 2.29 2.29 0 002.27-2.28z" fill="#34a37e"/>
  <path d="M73.31 132.52v30a43.77 43.77 0 0022.92 38.58l14 7.51c.21.12.42.24.61.37.5.32 1 .63 1.52.92a19.89 19.89 0 019.34 16.89v13a2.28 2.28 0 002.26 2.29 2.29 2.29 0 002.27-2.29v-13a19.9 19.9 0 019.33-16.89c.52-.29 1-.6 1.53-.92.19-.13.4-.25.61-.37l13.95-7.51a43.77 43.77 0 0022.92-38.58v-30zm52.87 116.59a2.27 2.27 0 10-2.27 2.28 2.29 2.29 0 002.27-2.28z" fill="#fff" opacity=".3"/>
  <ellipse cx="123.91" cy="132.52" rx="50.61" ry="27.29" fill="#34a37e"/>
  <path d="M119.75 232.31l-9.84 8.33c-10 8.42-16.16 24.87-16.16 42.78v57.06a65.42 65.42 0 01-8.9-3.8v-53.26c0-17.91 7.11-34.36 18.51-42.78l11.25-8.33c4.69-3.47 4.69-12.79 0-16.24l-11.25-8.33C92 199.32 84.85 182.86 84.85 165v-32.48h8.9V165c0 17.91 6.21 34.37 16.16 42.79l9.84 8.33c4.09 3.4 4.09 12.72 0 16.19z" fill="#fff" opacity=".5"/>
  <ellipse cx="123.91" cy="130.63" rx="60.9" ry="34.96" fill="#37474f"/>
  <path d="M184.81 130.63c0 19.31-27.26 35-60.9 35S63 149.94 63 130.63v9.77c0 19.31 27.26 35 60.89 35s60.9-15.65 60.9-35v-9.77z" fill="#253239"/>
  <path fill="#34a37e" d="M323.19 227.96v-38.58l-53.94-31.46v-38.58l-53.93-31.47v192.89l53.93 31.47 53.94 31.46 53.93 31.47V259.43l-53.93-31.47z"/>
  <path fill="#fff" opacity=".3" d="M323.19 227.96v38.58l53.93 31.47v-38.58l-53.93-31.47z"/>
  <path fill="#34a37e" d="M377.12 259.43v38.58l-53.93 31.47v38.57l-53.94 31.47v38.58l53.94-31.47 53.93-31.47 53.94-31.47V227.96l-53.94 31.47z"/>
  <path fill="#fff" opacity=".1" d="M377.12 259.43v38.58l-53.93 31.47v38.57l-53.94 31.47v38.58l53.94-31.47 53.93-31.47 53.94-31.47V227.96l-53.94 31.47z"/>
  <path fill="#34a37e" d="M269.25 119.34l-53.93-31.47 53.93-31.47 53.94 31.47-53.94 31.47z"/>
  <path fill="#fff" opacity=".7" d="M269.25 119.34l-53.93-31.47 53.93-31.47 53.94 31.47-53.94 31.47z"/>
  <path fill="#34a37e" d="M269.25 157.92v-38.58l53.94-31.47v38.58l-53.94 31.47z"/>
  <path opacity=".1" d="M269.25 157.92v-38.58l53.94-31.47v38.58l-53.94 31.47z"/>
  <path fill="#34a37e" d="M323.19 189.38l-53.94-31.46 53.94-31.47 53.93 31.47-53.93 31.46z"/>
  <path fill="#34a37e" d="M323.19 227.96v-38.58l53.93-31.46v38.57l-53.93 31.47z"/>
  <path fill="#fff" opacity=".7" d="M323.19 189.38l-53.94-31.46 53.94-31.47 53.93 31.47-53.93 31.46z"/>
  <path opacity=".1" d="M323.19 227.96v-38.58l53.93-31.46v38.57l-53.93 31.47z"/>
  <path fill="#34a37e" d="M377.12 259.43l-53.93-31.47 53.93-31.47 53.94 31.47-53.94 31.47z"/>
  <path fill="#fff" d="M377.12 259.43l-53.93-31.47 53.93-31.47 53.94 31.47-53.94 31.47z" opacity=".7"/>
  <path fill="#34a37e" d="M323.19 329.48l53.93-31.47-53.93-31.47-53.94 31.47 53.94 31.47z"/>
  <path fill="#fff" opacity=".7" d="M323.19 329.48l53.93-31.47-53.93-31.47-53.94 31.47 53.94 31.47z"/>
  <path fill="#34a37e" d="M323.19 368.05v-38.57l-53.94-31.47v38.58l53.94 31.46z"/>
  <path fill="#fff" opacity=".3" d="M323.19 368.05v-38.57l-53.94-31.47v38.58l53.94 31.46z"/>
  <path fill="#34a37e" d="M269.25 399.52l53.94-31.47-53.94-31.46-53.93 31.46 53.93 31.47zm0 38.58v-38.58l-53.93-31.47v38.58l53.93 31.47z"/>
  <path fill="#fff" opacity=".7" d="M269.25 399.52l53.94-31.47-53.94-31.46-53.93 31.46 53.93 31.47z"/>
  <path fill="#fff" opacity=".3" d="M269.25 438.1v-38.58l-53.93-31.47v38.58l53.93 31.47z"/>
  <path fill="#34a37e" d="M312.76 361.97l-53.93 31.47-33.08-19.3 53.94-31.47 33.07 19.3z"/>
  <path fill="#fff" opacity=".4" d="M312.76 361.97l-53.93 31.47-33.08-19.3 53.94-31.47 33.07 19.3z"/>
  <path fill="#34a37e" d="M258.83 393.44v38.57l-33.09-19.29v-38.58h.01l33.08 19.3zM366.7 291.92l-53.94 31.47-33.07-19.29 53.93-31.47 33.08 19.29z"/>
  <path fill="#fff" opacity=".4" d="M366.7 291.92l-53.94 31.47-33.07-19.29 53.93-31.47 33.08 19.29z"/>
  <path fill="#34a37e" d="M312.76 323.39v38.58l-33.08-19.3V304.1h.01l33.07 19.29zm53.94-70.04v38.57l-33.09-19.29v-38.58h.01l33.08 19.3z"/>
  <path fill="#34a37e" d="M366.7 253.35v38.57l-33.09-19.29v-38.58h.01l33.08 19.3zm-87.02-101.52l53.93 31.47 33.08-19.29-53.94-31.48-33.07 19.3z"/>
  <path style="mix-blend-mode:overlay" fill="#fff" opacity=".5" d="M279.68 151.83l53.93 31.47 33.08-19.29-53.94-31.48-33.07 19.3z"/>
  <path fill="#34a37e" d="M333.61 183.3v38.58l33.09-19.3v-38.57h-.01l-33.08 19.29z"/>
  <path opacity=".3" d="M333.61 183.3v38.58l33.09-19.3v-38.57h-.01l-33.08 19.29z"/>
  <path fill="#34a37e" d="M225.74 81.78l53.94 31.48 33.07-19.3-53.93-31.47-33.08 19.29z"/>
  <path style="mix-blend-mode:overlay" fill="#fff" opacity=".5" d="M225.74 81.78l53.94 31.48 33.07-19.3-53.93-31.47-33.08 19.29z"/>
  <path fill="#34a37e" d="M279.68 113.26v38.57l33.08-19.3V93.96h-.01l-33.07 19.3z"/>
  <path opacity=".3" d="M279.68 113.26v38.57l33.08-19.3V93.96h-.01l-33.07 19.3z"/>
  <path fill="#34a37e" d="M377.12 208.67l-10.43-6.1-33.08 19.3 10.44 6.09-10.43 6.09 33.08 19.29 10.42-6.08 33.08-19.3-33.08-19.29z"/>
  <path fill="#fff" opacity=".4" d="M377.12 208.67l-10.43-6.1-33.08 19.3 10.44 6.09-10.43 6.09 33.08 19.29 10.42-6.08 33.08-19.3-33.08-19.29z"/>
  <path d="M247.77 75.82a.53.53 0 01-.24-.06l-2-1.18a.48.48 0 01-.17-.66.48.48 0 01.65-.18l2 1.18a.49.49 0 01.18.66.47.47 0 01-.42.24zm39.61 23.12a.44.44 0 01-.24-.07l-4-2.31a.48.48 0 01.48-.84l4 2.31a.48.48 0 01.17.66.46.46 0 01-.41.25zm-7.92-4.63a.53.53 0 01-.24-.06l-4-2.31a.48.48 0 01.48-.84l4 2.31a.48.48 0 01.17.66.45.45 0 01-.41.24zm-7.92-4.62a.5.5 0 01-.24-.06l-4-2.31a.5.5 0 01-.18-.67.48.48 0 01.66-.17l4 2.31a.48.48 0 01-.24.9zm-7.92-4.62a.4.4 0 01-.24-.07l-4-2.31a.49.49 0 01-.18-.66.47.47 0 01.65-.17l4 2.31a.49.49 0 01.17.66.49.49 0 01-.4.24zm-7.93-4.62a.44.44 0 01-.24-.07l-4-2.31a.49.49 0 01-.17-.66.48.48 0 01.65-.18l4 2.31a.49.49 0 01.18.66.48.48 0 01-.42.25zm37.67 21.98a.44.44 0 01-.24-.07l-2-1.18a.48.48 0 01-.17-.66.46.46 0 01.65-.17l2 1.17a.49.49 0 01.18.66.48.48 0 01-.42.25z" fill="#34a37e"/>
  <path d="M247.77 75.82a.53.53 0 01-.24-.06l-2-1.18a.48.48 0 01-.17-.66.48.48 0 01.65-.18l2 1.18a.49.49 0 01.18.66.47.47 0 01-.42.24zm39.61 23.12a.44.44 0 01-.24-.07l-4-2.31a.48.48 0 01.48-.84l4 2.31a.48.48 0 01.17.66.46.46 0 01-.41.25zm-7.92-4.63a.53.53 0 01-.24-.06l-4-2.31a.48.48 0 01.48-.84l4 2.31a.48.48 0 01.17.66.45.45 0 01-.41.24zm-7.92-4.62a.5.5 0 01-.24-.06l-4-2.31a.5.5 0 01-.18-.67.48.48 0 01.66-.17l4 2.31a.48.48 0 01-.24.9zm-7.92-4.62a.4.4 0 01-.24-.07l-4-2.31a.49.49 0 01-.18-.66.47.47 0 01.65-.17l4 2.31a.49.49 0 01.17.66.49.49 0 01-.4.24zm-7.93-4.62a.44.44 0 01-.24-.07l-4-2.31a.49.49 0 01-.17-.66.48.48 0 01.65-.18l4 2.31a.49.49 0 01.18.66.48.48 0 01-.42.25zm37.67 21.98a.44.44 0 01-.24-.07l-2-1.18a.48.48 0 01-.17-.66.46.46 0 01.65-.17l2 1.17a.49.49 0 01.18.66.48.48 0 01-.42.25z" opacity=".3"/>
  <path d="M301.42 145.7a.44.44 0 01-.24-.07l-2-1.18a.48.48 0 01-.17-.66.47.47 0 01.65-.17l2 1.18a.48.48 0 01-.24.9zm39.65 23.14a.39.39 0 01-.23-.07l-4-2.31a.48.48 0 01.48-.84l4 2.32a.49.49 0 01.18.66.49.49 0 01-.43.24zm-7.93-4.63a.53.53 0 01-.24-.06l-4-2.32a.48.48 0 01.48-.84l4 2.32a.48.48 0 01-.24.9zm-7.93-4.63a.53.53 0 01-.24-.06l-4-2.32a.49.49 0 01-.18-.66.48.48 0 01.66-.17l4 2.31a.49.49 0 01.18.66.47.47 0 01-.42.24zm-7.93-4.58a.53.53 0 01-.24-.06l-4-2.31a.49.49 0 01-.18-.66.48.48 0 01.66-.18l4 2.31a.49.49 0 01.18.66.47.47 0 01-.42.24zm-7.93-4.62a.44.44 0 01-.24-.07l-4-2.31a.48.48 0 11.48-.84l4 2.31a.5.5 0 01.18.67.49.49 0 01-.42.19zm37.71 21.95a.53.53 0 01-.24-.06l-2-1.18a.48.48 0 01-.17-.66.47.47 0 01.65-.18l2 1.18a.48.48 0 01.17.66.49.49 0 01-.41.24z" fill="#34a37e"/>
  <path d="M301.42 145.7a.44.44 0 01-.24-.07l-2-1.18a.48.48 0 01-.17-.66.47.47 0 01.65-.17l2 1.18a.48.48 0 01-.24.9zm39.65 23.14a.39.39 0 01-.23-.07l-4-2.31a.48.48 0 01.48-.84l4 2.32a.49.49 0 01.18.66.49.49 0 01-.43.24zm-7.93-4.63a.53.53 0 01-.24-.06l-4-2.32a.48.48 0 01.48-.84l4 2.32a.48.48 0 01-.24.9zm-7.93-4.63a.53.53 0 01-.24-.06l-4-2.32a.49.49 0 01-.18-.66.48.48 0 01.66-.17l4 2.31a.49.49 0 01.18.66.47.47 0 01-.42.24zm-7.93-4.58a.53.53 0 01-.24-.06l-4-2.31a.49.49 0 01-.18-.66.48.48 0 01.66-.18l4 2.31a.49.49 0 01.18.66.47.47 0 01-.42.24zm-7.93-4.62a.44.44 0 01-.24-.07l-4-2.31a.48.48 0 11.48-.84l4 2.31a.5.5 0 01.18.67.49.49 0 01-.42.19zm37.71 21.95a.53.53 0 01-.24-.06l-2-1.18a.48.48 0 01-.17-.66.47.47 0 01.65-.18l2 1.18a.48.48 0 01.17.66.49.49 0 01-.41.24z" opacity=".3"/>
  <path d="M350.16 244.17a.49.49 0 01-.41-.24.49.49 0 01.17-.66l2-1.18a.48.48 0 01.65.18.49.49 0 01-.18.66l-2 1.18a.48.48 0 01-.23.06zm6.61-3.85a.46.46 0 01-.41-.24.47.47 0 01.17-.66l4.58-2.68a.48.48 0 01.66.18.49.49 0 01-.18.66l-4.59 2.67a.44.44 0 01-.23.07zm9.17-5.35a.49.49 0 01-.42-.24.49.49 0 01.18-.66l4.58-2.68a.48.48 0 01.48.84l-4.58 2.67a.44.44 0 01-.24.1zm9.17-5.35a.49.49 0 01-.42-.24.49.49 0 01.18-.66l1.29-.76-1.29-.76a.48.48 0 11.48-.84l2 1.18a.5.5 0 01.22.55.49.49 0 01-.3.33l-2 1.13a.39.39 0 01-.16.07zm-3.98-4.68a.48.48 0 01-.24-.06l-4-2.32a.49.49 0 01-.18-.66.47.47 0 01.65-.18l4 2.32a.49.49 0 01.17.66.47.47 0 01-.4.24zm-8-4.64a.39.39 0 01-.23-.07l-4-2.32a.49.49 0 01-.17-.66.48.48 0 01.65-.18l4 2.32a.5.5 0 01.18.67.49.49 0 01-.4.24zm-7.93-4.65a.53.53 0 01-.24-.06l-2-1.18a.49.49 0 01-.17-.66.48.48 0 01.65-.18l2 1.18a.48.48 0 01-.24.9zm-7.07 68.27a.47.47 0 01-.41-.24.49.49 0 01.18-.66l2-1.18a.48.48 0 01.65.18.49.49 0 01-.18.66l-2 1.18a.48.48 0 01-.24.06zm-46.04 26.87a.47.47 0 01-.41-.24.48.48 0 01.17-.66l3.84-2.24a.48.48 0 01.65.18.48.48 0 01-.17.66l-3.84 2.24a.5.5 0 01-.24.06zm7.68-4.48a.47.47 0 01-.42-.24.49.49 0 01.18-.66l3.83-2.24a.48.48 0 11.48.84l-3.84 2.24a.46.46 0 01-.23.06zm7.67-4.47a.46.46 0 01-.41-.24.49.49 0 01.17-.67l3.8-2.23a.47.47 0 01.65.17.49.49 0 01-.17.66l-3.84 2.24a.44.44 0 01-.2.07zm7.67-4.48a.49.49 0 01-.41-.24.49.49 0 01.17-.66l3.84-2.24a.46.46 0 01.65.17.47.47 0 01-.17.66l-3.84 2.24a.42.42 0 01-.24.07zm7.68-4.48a.48.48 0 01-.24-.9l3.84-2.24a.47.47 0 01.65.18.49.49 0 01-.18.66l-3.86 2.24a.53.53 0 01-.21.06zm7.67-4.48a.45.45 0 01-.41-.24.48.48 0 01.17-.66l3.84-2.24a.48.48 0 01.65.18.48.48 0 01-.17.66l-3.84 2.24a.53.53 0 01-.24.06zm-44.23 25.81a.49.49 0 01-.41-.24.49.49 0 01.17-.66l2-1.18a.47.47 0 01.65.18.49.49 0 01-.18.66l-2 1.18a.48.48 0 01-.23.06zM294.2 354a.47.47 0 01-.41-.24.5.5 0 01.17-.66l2-1.18a.48.48 0 01.65.18.49.49 0 01-.18.66l-2 1.18a.48.48 0 01-.23.06zm-46.04 26.83a.45.45 0 01-.41-.24.48.48 0 01.17-.66l3.84-2.24a.48.48 0 01.65.18.48.48 0 01-.17.66l-3.84 2.24a.53.53 0 01-.24.06zm7.67-4.48a.47.47 0 01-.41-.24.5.5 0 01.17-.66l3.84-2.24a.48.48 0 11.48.84l-3.84 2.24a.48.48 0 01-.24.06zm7.68-4.47a.48.48 0 01-.42-.25.49.49 0 01.18-.66l3.84-2.23a.47.47 0 01.65.17.49.49 0 01-.18.66l-3.83 2.24a.44.44 0 01-.24.07zm7.67-4.48a.48.48 0 01-.24-.9l3.84-2.24a.46.46 0 01.65.17.47.47 0 01-.17.66l-3.84 2.24a.42.42 0 01-.24.07zm7.68-4.48a.48.48 0 01-.24-.9l3.83-2.24a.48.48 0 01.66.18.49.49 0 01-.18.66l-3.84 2.24a.46.46 0 01-.23.06zm7.67-4.48a.45.45 0 01-.41-.24.48.48 0 01.17-.66l3.84-2.24a.48.48 0 01.65.18.5.5 0 01-.17.66l-3.84 2.24a.53.53 0 01-.24.06zm-44.23 25.81a.49.49 0 01-.41-.24.49.49 0 01.17-.66l2-1.18a.48.48 0 01.66.18.49.49 0 01-.18.66l-2 1.18a.5.5 0 01-.24.06z" fill="#34a37e"/>
  <path d="M273.86 90.56a10.09 10.09 0 01-9.23 0c-2.54-1.48-2.54-3.89 0-5.38a10.09 10.09 0 019.23 0c2.55 1.49 2.55 3.9 0 5.38z" fill="#455a64"/>
  <path fill="#34a37e" d="M269.25 61.96V40.3l27.99 10.83-27.99 10.83z"/>
  <path d="M269.25 88.84a1 1 0 01-1-1V36.05a1 1 0 111.92 0v51.82a1 1 0 01-.92.97z" fill="#263238"/>
  <text transform="matrix(.86 -.5 0 1 285.63 131.83)" font-size="9.431" fill="#f4f4f4" font-family="Montserrat-Black,Montserrat" font-weight="800">
    2060
  </text>
  <text transform="matrix(.86 -.5 0 1 339.74 201.77)" font-size="9.431" fill="#f4f4f4" font-family="Montserrat-Black,Montserrat" font-weight="800">
    2050
  </text>
  <text transform="matrix(.86 .5 0 1 339.33 259.4)" font-size="9.431" fill="#f4f4f4" font-family="Montserrat-Black,Montserrat" font-weight="800">
    2040
  </text>
  <text transform="matrix(.86 .5 0 1 285.83 329.7)" font-size="9.431" fill="#f4f4f4" font-family="Montserrat-Black,Montserrat" font-weight="800">
    2<tspan x="5.73" y="0" letter-spacing="-.01em">0</tspan><tspan x="12.17" y="0">30</tspan>
  </text>
  <text transform="matrix(.86 .5 0 1 231.92 402.37)" font-size="9.431" fill="#f4f4f4" font-family="Montserrat-Black,Montserrat" font-weight="800">
    2<tspan x="5.73" y="0" letter-spacing="-.01em">0</tspan><tspan x="12.17" y="0" letter-spacing="0em">20</tspan>
  </text>
  <path fill="#ffa8a7" d="M209.91 254.92h11.7v18.86h-11.7z"/>
  <path d="M228.6 250.6l2.78 4a.88.88 0 01-.11 1.14 4.24 4.24 0 01-2.67 1.35z" fill="#f28f8f"/>
  <path d="M216.88 235.81s9.11-6.46 12 16c2.38 18.67-9.21 14.39-13.52 11.81s-12.55-10.36-7.13-21.3c2.45-4.97 8.65-6.51 8.65-6.51z" fill="#ffa8a7"/>
  <path d="M225.28 243s.07 4.09-3.67 4.29a5.44 5.44 0 011.31 3.88c0 2.66-.91 2.15-1.31 1.64s-4.55 0-4.55 0l2.12 4a9 9 0 01-2.93 8.28s-5.56 1.53-8.09 0c0 0-7-7.77-8.29-13.28s-1.31-10.32 1.92-12.57c0 0 1-6.95 8.39-6.95s9.56 1.9 13.55 1c1.62-.36 4.05-1.53 4.05.1s-2 3-2 3 2-.11 3.08-.21 3.49-.46 3.08 2.66-3.2 4.7-6.66 4.16z" fill="#263238"/>
  <path d="M202.77 239.49s-1.94-3.92-4.36-1.66a.18.18 0 000 .27l4.33 2.61z" fill="#263238"/>
  <path d="M221.61 252.84v6.07s-6.28-.12-6.28-4.77c0-4.28 5.05-3.32 6.28-1.3z" fill="#ffa8a7"/>
  <path d="M175.72 410.37s-.29 8.07 10.91 11.38c0 0 1.67-11.38-10.91-11.38z" fill="#253239"/>
  <path d="M184.45 428.53v-4.86a6.73 6.73 0 012.6-5.32s-1.66-7.09-8.38-6.67a11.63 11.63 0 00-5.37 4.22 5.68 5.68 0 00-1 4.62 1 1 0 011.36-1.16l1.62.67a6.67 6.67 0 014 4.82l2 9.45a4.36 4.36 0 003.58 3.49h.14a5.07 5.07 0 00.55 0h.15a4.93 4.93 0 00.54-.05h.15a5.41 5.41 0 00.55-.12h.12a4 4 0 00.65-.25 4.63 4.63 0 00.65-.36l1.7-1.11a1.69 1.69 0 00.77-1.49c-.13-1.92-.98-5.88-6.38-5.88z" fill="#37474f"/>
  <path d="M190 435.88l-1.7 1.11a4.63 4.63 0 01-.65.36 4 4 0 01-.65.25h-.12a5.41 5.41 0 01-.55.12h-1.5a4.36 4.36 0 01-3.56-3.4.29.29 0 000-.09l-2-9.45a6.67 6.67 0 00-4-4.82l-1.62-.67c-.71-.32-1.17.23-1.46.51a1.85 1.85 0 00-.54 1.94l2 8.79a8.15 8.15 0 003.33 4.94l4.27 2.93a5.62 5.62 0 004.73.61h.12a6.87 6.87 0 00.88-.38l1.83-1a3 3 0 001.52-2.1 1.34 1.34 0 01-.33.35z" fill="#263238"/>
  <path d="M177.28 412.32s7.68.74 7.65 8.86l4.77-7.45-7.83-8.18z" fill="#ffa8a7"/>
  <path d="M194.36 318.32v12.94q0 7.73.7 15.42l1.57 17.32a14.51 14.51 0 01-4.12 11.57 32.57 32.57 0 00-5.88 8.3c-4.75 9.35-10.91 26.49-10.91 26.49s10.91 0 10.91 11.38l24.85-41.48a23.83 23.83 0 003.24-9.63l5.28-47.41z" fill="#455a64"/>
  <path d="M249.06 392.93a4.31 4.31 0 002.05 1.86h.1a7.63 7.63 0 005.71.19l15.82-5.75c1.12-.49 1.14-2.16 1.07-2.85h-24.75z" fill="#263238"/>
  <path d="M250 383.56s-2.23 2.32-1.41 6.71a4.35 4.35 0 002.53 3.16l.1.05a7.63 7.63 0 005.71.18l15.82-5.75a1.66 1.66 0 001-2c-.73-2.57-3.31-5.16-9.29-3.59a22.63 22.63 0 01-4.65 1L259 382z" fill="#37474f"/>
  <path d="M259.81 383.27c-.83 2.22-4 3-7.66 1.77a7.51 7.51 0 01-2.3-1.27V375h10z" fill="#ffa8a7"/>
  <path d="M205.68 321.63v1.48a20.27 20.27 0 0015 19.63l25.48 6.74a1.69 1.69 0 011.26 1.64v30.42s12.3 6.18 15.86-3.4v-32.86a13.33 13.33 0 00-8.42-12.44l-26.45-10.38z" fill="#455a64"/>
  <path d="M216.82 351.61l1-10.06s-8.2-2.75-9.46-6.52c-.42 3.91 5.07 7.49 6.45 8.29.51 3.03 2.01 8.29 2.01 8.29zm-9.08-78.24s.23-4.83 1.89-4.83c1.33 0 8.07 1.91 10.67 2.67a2.92 2.92 0 011.71 1.27 10.15 10.15 0 011.77 5.1z" fill="#37474f"/>
  <path d="M237.52 289.94s7.53-7.66 8.59-7c1.3.82-.27 3.77-1.46 5l5.91-3.86a1.59 1.59 0 012.27.57c1.65 3 3.43 10-12.36 14.64z" fill="#ffa8a7"/>
  <path d="M242.7 300.2s-3.92 1.8-9 4c-8.52 3.72-20.31 8.63-22.47 8.28a121.89 121.89 0 01-16.74-3.92l1.09-15.16 16.32 4.8 24.46-9.59 1-.4c6.9 2.54 5.34 11.99 5.34 11.99z" fill="#263238"/>
  <path d="M205.7 270.86l-6.09-1.67a6.63 6.63 0 00-8.36 6.46v2.17a18.09 18.09 0 007.24 14.51l7.09 5.3z" fill="#37474f"/>
  <path d="M231.78 312.65l4.77 21.46s-13.21 6.63-27.52 2.45-16-7.77-16-7.77l1.46-20.21 1.09-15.16 1.28-17.67a5.91 5.91 0 017.29-5.36l20.06 5a16.46 16.46 0 0112.37 16l-2.88 12.85z" fill="#263238"/>
  <path d="M241.33 338.1s7.87 7.14 7.37 8.29-3.75-.08-5-1.2l4.13 5.75a1.62 1.62 0 01-.45 2.32c-2.86 1.83-9.71 4-15.12-11.69z" fill="#ffa8a7"/>
  <path d="M227.26 276.49s-7.29 14-9.62 36.25c-.37 3.51 13.83 31.13 13.83 31.13s9.42 1.07 11.55-6l-11.24-25.19 4.71-20.34a10.85 10.85 0 00-.1-5.4c-.97-3.49-3.39-8.79-9.13-10.45z" fill="#37474f"/>
  <path d="M375.67 100.17l10.09 5.8v-5.19c.37-4.78 3.95-6.62 8.33-4.06a16.23 16.23 0 015 4.82c1-6.5 6.23-8.84 12.57-5.14 7.05 4.11 12.76 14.1 12.76 22.32v7.74a3.55 3.55 0 001.72 3l5.94 3.52a8.66 8.66 0 014.23 7.46 3.52 3.52 0 01-5.29 3.08l-55.17-32.2a9.77 9.77 0 01-4.82-8.44 3.12 3.12 0 014.64-2.71zm-7.2-47.04l6.53 3.75v-3.3c.24-3.09 2.55-4.27 5.38-2.62a10.52 10.52 0 013.2 3.04c.64-4.2 4-5.71 8.12-3.32 4.55 2.65 8.24 9.11 8.24 14.42v5a2.29 2.29 0 001.11 2l3.84 2.27a5.6 5.6 0 012.73 4.82 2.28 2.28 0 01-3.42 2l-35.63-20.8a6.31 6.31 0 01-3.11-5.44 2 2 0 013.01-1.82z" fill="#e6e6e6"/>
</svg>
