<svg xmlns="http://www.w3.org/2000/svg" viewBox="0 0 500 500">
  <path d="M444.71 349.14H264a5.87 5.87 0 01-5.86-5.86V80a5.87 5.87 0 015.86-5.85h180.71a5.87 5.87 0 015.86 5.85v263.28a5.87 5.87 0 01-5.86 5.86zM264 74.4a5.61 5.61 0 00-5.65 5.6v263.28a5.61 5.61 0 005.61 5.61h180.75a5.61 5.61 0 005.61-5.61V80a5.61 5.61 0 00-5.61-5.61zm-27.72 274.74H55.53a5.87 5.87 0 01-5.86-5.86V80a5.87 5.87 0 015.86-5.86h180.75a5.87 5.87 0 015.86 5.86v263.28a5.87 5.87 0 01-5.86 5.86zM55.53 74.4a5.61 5.61 0 00-5.61 5.6v263.28a5.61 5.61 0 005.61 5.61h180.75a5.61 5.61 0 005.61-5.61V80a5.61 5.61 0 00-5.61-5.61zM0 410.21h500v.25H0z" fill="#f0f0f0"/>
  <path d="M87 384.7s-9.45 2.09-8-4.5 1.3-9-2.54-12-7.71-4.47-4.77-9.22-2.64-8.44-5.52-11 .37-4.48 1.13-9.31-4.43-4.1-4.84-10.19 5.77-13.19.46-21.56c0 0 7.14 3.7 9.48 10.2s.45 11.52 4.67 14 6.85 6.75 5.42 11.13.6 6.71 4.06 9.91 2.53 4.47 2.1 8.38.44 3 4.39 8.33S97 382.94 87 384.7z" fill="#f0f0f0"/>
  <path d="M88.31 384.4a.31.31 0 010-.1l-18.96-57.4a.46.46 0 01.3-.59.47.47 0 01.58.31L89.16 384a.59.59 0 010 .14z" fill="#e0e0e0"/>
  <path d="M104 384.58s9.4 2.08 8-4.48-1.29-9 2.53-12 7.67-4.45 4.74-9.17 2.63-8.39 5.49-10.93-.36-4.46-1.12-9.27 4.4-4.08 4.81-10.13-5.74-13.12-.46-21.45c0 0-7.1 3.68-9.43 10.15s-.45 11.46-4.64 13.92-6.82 6.71-5.39 11.07-.6 6.68-4 9.86-2.52 4.44-2.09 8.33-.44 3-4.37 8.29S94 382.83 104 384.58z" fill="#f0f0f0"/>
  <path d="M101.81 384a.7.7 0 010-.14l18.81-57.1a.47.47 0 01.58-.3.46.46 0 01.3.59l-18.81 57.1v.1z" fill="#e0e0e0"/>
  <path d="M93.58 383.38s-10.82-.89-7.13-7.49 4.4-9.23 1.28-13.72-6.77-7.36-2-11.46 0-9.91-2.27-13.61 1.88-4.67 4.31-9.59-3.39-5.87-1.8-12.52 10.56-12.21 7.65-22.94c0 0 6.41 6.33 6.76 14.07s-3.34 12.49.36 16.54 5.1 9.5 2.11 13.72-1.59 7.39 1 12 1.23 5.63-.53 9.68-.52 3.34 1.94 10.38-.33 16.41-11.68 14.94z" fill="#f5f5f5"/>
  <path d="M95.12 383.52a.51.51 0 010-.13l-1.19-67.76a.53.53 0 01.51-.54.52.52 0 01.53.52l1.2 67.76a.41.41 0 010 .16z" fill="#e0e0e0"/>
  <path d="M123 378.15H70.12a2.17 2.17 0 00-2 2.94l.78 2.08.49 1.32 1.42 3.77.5 1.31 1.46 3.88.49 1.31 5.83 15.45h35.05l5.82-15.45.49-1.31 1.46-3.88.5-1.31 1.42-3.77.49-1.32.78-2.08a2.17 2.17 0 00-2.1-2.94z" fill="#e6e6e6"/>
  <rect x="76.75" y="185.64" width="34.57" height="10.13" rx="1.5" transform="rotate(180 94.04 190.7)" fill="#f5f5f5"/>
  <rect x="57.9" y="198.55" width="34.57" height="10.13" rx="1.5" transform="rotate(180 75.185 203.62)" fill="#f5f5f5"/>
  <rect x="281.13" y="84.85" width="34.57" height="10.13" rx="1.5" fill="#f5f5f5"/>
  <rect x="299.98" y="97.77" width="34.57" height="10.13" rx="1.5" fill="#f5f5f5"/>
  <rect x="287.72" y="242.27" width="34.57" height="10.13" rx="1.5" fill="#f5f5f5"/>
  <rect x="325.43" y="242.27" width="34.57" height="10.13" rx="1.5" fill="#f5f5f5"/>
  <rect x="306.57" y="255.19" width="34.57" height="10.13" rx="1.5" fill="#f5f5f5"/>
  <path fill="#e6e6e6" d="M358.37 95.85h79.02v79.02h-79.02z"/>
  <path fill="#fafafa" d="M433.38 99.86v71.02h-71.02V99.86z"/>
  <path d="M393.12 154.75s13-26.74 40.27-27.28v43.41h-35.51z" fill="#f0f0f0"/>
  <path d="M362.37 147.24s11.72-6.15 23.64-1.63c15 5.66 23.65 25.27 23.65 25.27h-47.29z" fill="#f5f5f5"/>
  <path d="M399.26 122.37a12.53 12.53 0 11-12.53-12.53 12.53 12.53 0 0112.53 12.53z" fill="#fff"/>
  <path fill="#e6e6e6" d="M165.04 96.37h69.33v134.21h-69.33z"/>
  <path fill="#fafafa" d="M230.37 100.37v126.21h-61.33V100.37z"/>
  <circle cx="190.27" cy="139.48" r="12.53" fill="#fff"/>
  <path d="M180.5 226.59S196 152 230.36 145.25v81.34H180.5z" fill="#f0f0f0"/>
  <path d="M169 182.29s7.9-7.61 20.42-3.06c23.52 8.56 36.65 47.36 36.65 47.36H169z" fill="#f5f5f5"/>
  <ellipse cx="253.61" cy="453.47" rx="198.87" ry="5.45" fill="#f5f5f5"/>
  <path fill="#34a37e" d="M336.81 277.42h91.72V449.5h-91.72z"/>
  <path fill="#263238" d="M331.64 329.93h5.17v5.17h-5.17zm0-43.31h5.17v5.17h-5.17z"/>
  <path opacity=".2" d="M336.81 335.1h79.99v.89h-79.99z"/>
  <path fill="#263238" d="M415.91 277.42h.89V449.5h-.89z"/>
  <path d="M428.53 238.45v39H416.8v-27.27a11.73 11.73 0 0111.73-11.73z" fill="#34a37e"/>
  <path d="M428.53 238.45v39H416.8v-27.27a11.73 11.73 0 0111.73-11.73z" fill="#fff" opacity=".5"/>
  <path fill="#263238" d="M346.64 274.44h25.96v2.98h-25.96zm37 0h25.96v2.98h-25.96zm-35 175.06h11.03v3.97h-11.03zm54 0h11.03v3.97h-11.03zM114.51 276.75h52a1.82 1.82 0 001.73-2.39L156.91 240a1.83 1.83 0 00-1.73-1.26h-51.95a1.82 1.82 0 00-1.73 2.39l11.28 34.37a1.84 1.84 0 001.73 1.25z"/>
  <path d="M136.08 259.53c.36 2.37-1 4.28-2.94 4.28s-3.89-1.91-4.26-4.28 1-4.27 2.94-4.27 3.89 1.91 4.26 4.27z" fill="#fff" opacity=".3"/>
  <path d="M185 276l1.1 3.31a1.55 1.55 0 01-1.48 2h-68.84a1.54 1.54 0 01-1.47-1.06l-1.43-4.25z" fill="#263238"/>
  <g opacity=".3">
    <path d="M185 276l1.1 3.31a1.55 1.55 0 01-1.48 2h-68.84a1.54 1.54 0 01-1.47-1.06l-1.43-4.25z" fill="#fff" opacity=".4"/>
  </g>
  <path fill="#34a37e" d="M83.31 281.33h127.13v10.46H83.31z"/>
  <path fill="#263238" d="M144.25 291.79h5.26V449.5h-5.26z"/>
  <path d="M183.66 453.42h-73.54a14.2 14.2 0 0112.08-6.75h49.36a14.22 14.22 0 0112.1 6.76zM66.82 149.26h92.12v9.59H66.82zm7.35 9.59l4.22 9.51h6.22v-9.51H74.17z" fill="#34a37e"/>
  <path fill="#34a37e" d="M74.17 158.85l4.22 9.51h6.22v-9.51H74.17z"/>
  <path opacity=".3" d="M74.17 158.85l4.22 9.51h6.22v-9.51H74.17z"/>
  <path fill="#34a37e" d="M151.59 158.85l-4.22 9.51h-6.22v-9.51h10.44z"/>
  <path opacity=".3" d="M151.59 158.85l-4.22 9.51h-6.22v-9.51h10.44z"/>
  <path d="M95.38 125.38v-17.89a.44.44 0 10-.87 0v17.89z" fill="#34a37e"/>
  <path d="M95.38 125.38v-17.89a.44.44 0 10-.87 0v17.89z" opacity=".3"/>
  <path fill="#263238" d="M87.7 145.94l.44 1.62.09.34.37 1.35h12.69l.37-1.35.09-.34.44-1.62.09-.35 4.35-16.11.09-.34.44-1.62.09-.35.48-1.79H82.16l.48 1.79.09.35.44 1.62.09.34 4.35 16.11.09.35z"/>
  <path d="M93.4 113.65a1.23 1.23 0 001.31-.49 1.06 1.06 0 00.2-.46.77.77 0 000-.27 1.25 1.25 0 00-.28-.79c-1.66-2-10-11.67-13.94-7.63-4.69 4.89 8.14 8.53 12.71 9.64z" fill="#34a37e"/>
  <path d="M86 108l8.71 5.15a1.06 1.06 0 00.2-.46l-8.65-5.12a.25.25 0 00-.34.09.24.24 0 00.08.34z" opacity=".3"/>
  <path d="M94.94 117.22a1.24 1.24 0 000 .27 1.28 1.28 0 00.21.46 1.27 1.27 0 001.31.49c4.57-1.12 17.41-4.76 12.67-9.64-3.91-4-12.27 5.62-13.93 7.62a1.31 1.31 0 00-.26.8z" fill="#34a37e"/>
  <path d="M95 117.49a1.28 1.28 0 00.21.46l8.71-5.15a.27.27 0 00.08-.35.24.24 0 00-.34-.08z" opacity=".3"/>
  <path d="M94 107.41a1.29 1.29 0 00.38.76 1.57 1.57 0 00.21.17 1.45 1.45 0 00.48.17 1.28 1.28 0 001.26-.62c2.34-4.07 8.56-15.88 1.76-15.82-5.64.04-4.41 12.77-4.09 15.34z" fill="#34a37e"/>
  <path d="M94.58 108.34a1.45 1.45 0 00.48.17l2.28-9.86a.26.26 0 00-.19-.3.25.25 0 00-.3.19z" opacity=".3"/>
  <path d="M93.4 123.92a1.23 1.23 0 001.31-.49 1.06 1.06 0 00.2-.46.77.77 0 000-.27 1.25 1.25 0 00-.28-.79c-1.66-2-10-11.67-13.94-7.63-4.69 4.89 8.14 8.53 12.71 9.64z" fill="#34a37e"/>
  <path d="M86 118.28l8.71 5.15a1.06 1.06 0 00.2-.46l-8.65-5.12a.25.25 0 00-.34.09.24.24 0 00.08.34z" opacity=".3"/>
  <path d="M112.78 142.27h-.92v-1.38h34.85a4.19 4.19 0 010 8.37h-34.85v-1.19h.92z" fill="#34a37e"/>
  <path d="M112.54 142.27v5.8h32a2.86 2.86 0 002.82-2.9 2.94 2.94 0 00-.82-2.06 2.81 2.81 0 00-2-.84z" fill="#fff"/>
  <path d="M112.54 143.73v.89h31.15a.44.44 0 00.44-.44.45.45 0 00-.44-.45zm0 2.19v.88h31.15a.44.44 0 00.44-.44.44.44 0 00-.44-.44z" fill="#e6e6e6"/>
  <path d="M112.78 133.9h-.92v-1.38h34.85a4.19 4.19 0 010 8.37h-34.85v-1.19h.92z" fill="#34a37e"/>
  <path d="M112.78 133.9h-.92v-1.38h34.85a4.19 4.19 0 010 8.37h-34.85v-1.19h.92z" opacity=".3"/>
  <path d="M112.54 133.9v5.8h32a2.86 2.86 0 002.82-2.9 2.92 2.92 0 00-.82-2.05 2.78 2.78 0 00-2-.85z" fill="#fff"/>
  <path d="M112.54 135.37v.88h31.15a.44.44 0 00.44-.44.44.44 0 00-.44-.44zm0 2.18v.89h31.15a.45.45 0 00.44-.45.44.44 0 00-.44-.44z" fill="#e6e6e6"/>
  <path d="M323.86 129.9a16 16 0 01-23.49 14.18l-6 4 2.21-6.81a16 16 0 1127.27-11.4z" fill="#34a37e"/>
  <path d="M323.86 129.9a16 16 0 01-23.49 14.18l-6 4 2.21-6.81a16 16 0 1127.27-11.4z" fill="#fff" opacity=".5"/>
  <circle cx="307.84" cy="129.9" r="2" fill="#fff"/>
  <circle cx="301.09" cy="129.9" r="2" fill="#fff"/>
  <circle cx="314.59" cy="129.9" r="2" fill="#fff"/>
  <path d="M240.44 174.2l-.15.29-6.66 13.07c-3.91-1.87-7.71-3.88-11.45-6-2.18-1.24-4.34-2.52-6.5-3.85-2.94-1.81-5.82-3.7-8.78-5.87l-1.12-.82-1.16-.94-.59-.49-.71-.62c-.47-.42-.8-.77-1.2-1.17-1.41-1.48-2.54-2.87-3.65-4.27-4.36-5.6-8.08-11.23-11.77-16.95s-7.12-11.58-10.45-17.48l6.13-4.2 12.84 15.42c4.26 5.09 8.56 10.24 12.91 14.87 1.07 1.14 2.18 2.26 3.17 3.12.22.17.49.42.66.53l.26.18.42.26.88.54 1 .58c2.64 1.53 5.55 3 8.44 4.56 4.48 2.35 9.06 4.68 13.56 7.09 1.19.64 2.38 1.28 3.55 1.93z" fill="#34a37e"/>
  <path d="M240.05 174l.24.51-6.66 13.07c-3.91-1.87-7.71-3.88-11.45-6 1.69-7.68 10-9.21 14.32-9.48z" opacity=".2"/>
  <path d="M177.33 131s-6.31-3.07-9.43-4.39c-2.84-1.2-6.35-4-5.93-5.83 1.64-7 10.35-1.33 10.35-1.33l10 5.32c.21 2.11-2.24 4.99-4.99 6.23z" fill="#ffb573"/>
  <path d="M137.34 114.89l-.9-.26-.39 1.34 34 9.83a4.25 4.25 0 002.35-8.17l-34-9.82-.34 1.16.9.26z" fill="#34a37e"/>
  <path d="M137.1 114.82l1.64-5.66 31.19 9a2.9 2.9 0 011.94 3.62 3 3 0 01-1.38 1.77 2.82 2.82 0 01-2.19.27z" fill="#fff"/>
  <path d="M137.52 113.39l.25-.86 30.39 8.78a.44.44 0 01.3.55.45.45 0 01-.55.31zm.61-2.13l.25-.86 30.39 8.78a.44.44 0 01.31.55.45.45 0 01-.56.31z" fill="#d6d6d6"/>
  <path d="M182.33 124.77s-5.21-5.77-6.69-6.23-9.18.39-8.43 1.42 6.69 2.54 6.69 2.54l2.84 2.29z" fill="#ffb573"/>
  <path d="M277.19 179.91l-1.07-.46c-1.73-.71-3.46-1.48-5.18-2.23l-1.5-.66-2.05-.89-5.88 12.52-.07.15c4.62 2.24 9.23 4.27 14 6.11l1.74.66c.53.21 1.07.4 1.61.6l1.17.42c2.64 1 5.33 1.83 8.12 2.63h.06l.23.06zm.52-12.93c.11.18.22.36.34.54a1.81 1.81 0 00.31 0c1.48.94 5.26-2.52 5.48-4.8-.46-.49-.92-1-1.39-1.46-.16-.17-.32-.35-.49-.52l-3.89 3-1.57 1.23a.41.41 0 00.07.11z" fill="#34a37e"/>
  <path d="M307.84 194.24v.7l-.05.37a5.59 5.59 0 01-.12.56c-.05.18-.11.37-.17.54s-.14.37-.27.66a6.5 6.5 0 01-1 1.45 6.58 6.58 0 01-1.57 1.28 6.7 6.7 0 01-1.62.65l-.52.12-.35.06a16 16 0 01-4 .15c-1.1-.08-2.09-.22-3-.38-1.9-.32-3.65-.73-5.35-1.17-.47-.13-.93-.25-1.39-.39l-11.15-18.93c2.57 1.11 5.13 2.2 7.69 3.25 1.4.57 2.8 1.13 4.19 1.66l-2.16-3.29q-4.48-6.94-8.91-14a1.81 1.81 0 00.31 0c1.48.94 5.26-2.52 5.48-4.8q5.84 6.18 11.35 12.64c2.15 2.49 4.25 5 6.33 7.65 1.05 1.31 2.07 2.64 3.09 4.07.52.72 1 1.45 1.58 2.32a15.51 15.51 0 01.9 1.64c.1.2.19.41.31.72a7.35 7.35 0 01.38 1.54 5.93 5.93 0 01.02.93z" fill="#34a37e"/>
  <path d="M288.85 199.71l-.1-.12-.7-.83-12.47-14.88-3.31-3.95-2.83-3.37 1.5.66c1.72.75 3.45 1.52 5.18 2.23l1.07.46 11.15 18.93z" opacity=".2"/>
  <path d="M283.84 162.77c-.22 2.28-4 5.74-5.48 4.8a1.81 1.81 0 01-.31 0 2.76 2.76 0 01-.65-.18 6.58 6.58 0 01-1.3-.65 8.06 8.06 0 01-3-3.08 1.49 1.49 0 01-.13-.37c-.3-1.46-.45-3.1-.75-4.38a.57.57 0 01.19-.63 1.17 1.17 0 011.09 0 2 2 0 01.57.33.13.13 0 01.07.06.64.64 0 01.17.16A2.56 2.56 0 01275 160c.44 2.21 3.92 1.75 3.92 1.75l1.42-4.07.49-1.42.91-2.62a.45.45 0 01.07.07c0 .07.07.14.1.2.56 1.31 1.51 6.85 1.87 8.17a1.56 1.56 0 01.06.69z" fill="#ffb573"/>
  <path d="M282.3 161.55l-5 5.95a.49.49 0 01-.89-.16L270.64 154a1.51 1.51 0 01.19-1.44l5-6c.3-.35.7-.27.89.17l5.75 13.31a1.51 1.51 0 01-.17 1.51z" fill="#263238"/>
  <path d="M281.05 160.3l-4.05 4.84c-.16.18-.36.14-.46-.09l-5.05-11.7a.78.78 0 01.1-.74l4.1-4.84c.15-.18.36-.14.46.09l5 11.69a.77.77 0 01-.1.75z" fill="#fff" opacity=".3"/>
  <path d="M281.84 153.75a3.05 3.05 0 00-2.51-2c-.84 0-1.17 3.73-.93 4.61.49 1.82 1.8-1.57 1.8-1.57l.73 1.67c.76-.85 1.49-1.62.91-2.71z" fill="#ffb573"/>
  <path d="M280.48 150.41a3.62 3.62 0 00-2.25-1.41c-.84 0-1.24 3.51-1 4.38.49 1.82 1.88-1.34 1.88-1.34l1.76 1.91c.76-.86.42-2.06-.39-3.54z" fill="#ffb573"/>
  <path d="M279.11 148.64c-.11-.3-.79-1.77-1.63-1.75s-1.53 2.77-1.29 3.65c.49 1.82 1.88-1.34 1.88-1.34l1.76 1.91c.3-.48.09-.99-.72-2.47z" fill="#ffb573"/>
  <path d="M336.8 226.09l-2.14 6.71q-10.43-2.6-20.8-5.35c-3.46-.93-6.92-1.87-10.4-2.86s-6.92-2-10.56-3.25c-.48-.18-.92-.33-1.42-.53l-.75-.3-.85-.39a12.35 12.35 0 01-2.33-1.44l-.8-.65c-.21-.19-.43-.37-.64-.57-1.56-1.48-2.75-2.84-4-4.22l-1.41-1.58-1.1-1.27c-1.34-1.54-2.65-3.08-4-4.62l-.6-.77c-4.63-5.51-9.14-11-13.62-16.67l11.9-9.13c4.21 5.64 8.48 11.33 12.77 16.9 2.15 2.78 4.31 5.55 6.49 8.19 1.07 1.31 2.21 2.63 3.15 3.69.11.11.2.24.31.37l.42.47.46.26c.3.18.68.37 1 .55 2.93 1.48 6.19 2.92 9.4 4.32s6.49 2.78 9.77 4.15c6.54 2.71 13.15 5.38 19.75 7.99z" fill="#34a37e"/>
  <path d="M280.69 211.66l-1.1-1.27c-1.34-1.54-2.65-3.08-4-4.62l-.4-20.39c.22.6 1.68 7.11 4 11.19 3.2 5.59 3.72 12.02 1.5 15.09z" opacity=".2"/>
  <path d="M334.66 232.8a117.67 117.67 0 0011.82 1.2c3.33 0 10.27-3.62 9.45-4.87s-9.49-2.67-9.49-2.67l-11.11-1c-1.33 1.66-2.28 4.84-.67 7.34z" fill="#ffb573"/>
  <path fill="#263238" d="M339.924 228.082l22.553.539-.053 2.24-22.554-.54z"/>
  <path d="M361.081 227.22l32.5.65-.023 1.17a7.001 7.001 0 01-7.14 6.86l-18.5-.37a7.001 7.001 0 01-6.86-7.14l.023-1.17z" fill="#263238"/>
  <path d="M374.73 226.8s-7.17-5.75-1.5-11 5.83-9.33 1.5-13.33c0 0 6.5 3 8.83 9.15s-9 10.97-8.83 15.18z" fill="#34a37e"/>
  <path d="M374.73 226.8s-7.17-5.75-1.5-11 5.83-9.33 1.5-13.33c0 0 6.5 3 8.83 9.15s-9 10.97-8.83 15.18z" fill="#fff" opacity=".8"/>
  <path d="M335.33 225.49s7.39-2 8.87-1.55 7.36 5.25 6.19 5.7-6.88-1.5-6.88-1.5l-3.58.37zm-66.07 208.32l2.41 11.51h6.06l.66-11.51h-9.13z" fill="#ffb573"/>
  <path d="M295.05 453.47c-.2-3.76-1.81-4.88-3.84-5s-9.58-2.67-9.58-2.67-1.49-2.38-2.87-2.86-2.76.93-2.76.93l-3.79-.46s-1.08-1.72-1.92-.22c-1.29 2.33-1.36 8.77-1.3 10.28z" fill="#34a37e"/>
  <path d="M294.59 452.49h-4.72l-20.67-.1c-.26 0-.2-.41.06-.4h1.4v-.06a3.76 3.76 0 00-1.23-5.45c-.21-.12.06-.47.26-.34a4.09 4.09 0 011.36 5.85H274l20.66.11c.26-.01.19.39-.07.39z"/>
  <path d="M280.44 447.43c1.12-1.27 2.7-1.63 3.81-.67.18.15.44-.2.26-.35-1.28-1.09-3.12-.62-4.38.81-.19.21.12.41.31.21z" fill="#fff"/>
  <path d="M282.55 448.1c1.12-1.27 2.7-1.62 3.81-.67.18.15.44-.19.27-.35-1.28-1.09-3.12-.61-4.39.82-.18.21.13.41.31.2z" fill="#fff"/>
  <path d="M284.74 448.77c1.12-1.26 2.7-1.62 3.81-.67.18.15.44-.19.26-.34-1.27-1.1-3.12-.62-4.38.81-.19.21.12.41.31.2z" fill="#fff"/>
  <path fill="#ffb573" d="M205.81 423.36l-3.63 11.6 5.89 2.94 5.71-10.09-7.97-4.45z"/>
  <path d="M219.24 453.47c1.65-3.38.79-5.14-.92-6.24s-7.06-7-7.06-7-.15-2.8-1.11-3.9-2.88-.53-2.88-.53l-3.87-2.48s0-2.5-1.22-1.12c-1.74 2-4.39 7.47-5.07 8.82z" fill="#34a37e"/>
  <path d="M219.56 452.09l-4.07-2.23-17.77-9.72c-.23-.12 0-.46.24-.34l1.2.66h.05a4.06 4.06 0 001.47-5.59c-.13-.21.26-.41.38-.2a4.42 4.42 0 01-1.54 6L202 442l17.77 9.72c.23.15.01.49-.21.37z"/>
  <path d="M209.42 441.07c1.59-.56 3.15-.1 3.66 1.27.08.22.47.05.39-.17-.58-1.58-2.42-2.06-4.22-1.43-.27.09-.09.42.17.33z" fill="#fff"/>
  <path d="M210.94 442.69c1.59-.56 3.15-.1 3.65 1.27.09.22.48.05.4-.17-.58-1.58-2.42-2.06-4.22-1.43-.27.09-.09.42.17.33z" fill="#fff"/>
  <path d="M212.52 444.34c1.59-.56 3.15-.1 3.66 1.27.08.22.47.05.39-.17-.58-1.58-2.42-2.06-4.22-1.43-.27.09-.09.42.17.33z" fill="#fff"/>
  <path d="M249.28 283a393.94 393.94 0 006.5 45.92q1.62 8.41 3.74 18c-5.71 36.85 10 90.09 10 90.09l9.36-.21s3.18-59.5 3.13-90.65c-.08-51-4.66-99.65-4.66-99.65l-25.46-.1s-4.7 7.6-2.61 36.6z" fill="#263238"/>
  <path d="M249.28 283a393.94 393.94 0 006.5 45.92c6-20.41-2.18-64-2.18-64z" opacity=".2"/>
  <path fill="#263238" d="M279.83 438.96l.43-4h-12.47l.57 4h11.47zm-54.9-193.56l-.54 102.17c-6.74 7.3-20.87 77.68-20.87 77.68l10.88 5.94s29.73-67.93 33.82-78.42S258 265 258 265l-6.91-16.76z"/>
  <path fill="#263238" d="M215.13 433.61l1.94-3.52-14.41-7.37-1.5 3.74 13.97 7.15z"/>
  <path d="M278.25 250c0 4.65-34.13 6.85-54.44.15.34-1.26.83-3.46 1.12-4.73.15-.59.28-1.2.41-1.83q.63-3 1.06-6.65v-.33a136.1 136.1 0 00.83-14.08v-4.1c0-1.73-.08-3.5-.17-5.33a204.61 204.61 0 00-2.95-26.44 10.91 10.91 0 0110-12.79c1.74-.13 3.57-.21 5.44-.24s3.67-.06 5.41-.06a108.32 108.32 0 0114.19.67l1.08.14c1.77.23 3.56.52 5.3.81 7.51 1.3 10.75 6.5 11 15.5.29 10 7.88 16.23-1.72 23-1.2 8.46 3.44 23.19 3.44 36.31z" fill="#34a37e"/>
  <path d="M227.28 222.51v-4.1c0-1.73-.08-3.5-.17-5.33l7.89-15.92zm9.4-32.98l-10.13 15.26c-.16-1.83-.34-3.7-.57-5.59z" opacity=".2"/>
  <path d="M245 173.55c4.81 8.45 16.12 13.51 16.12 13.51 1.53-3.78 1-9.85-.85-12.7l-1.08-.14a108.32 108.32 0 00-14.19-.67z" fill="#ffb573"/>
  <path d="M274.17 158.61s5.69-7.81.74-15.19-13-4.31-13-4.31z" fill="#263238"/>
  <path d="M260.38 176.87a1.36 1.36 0 00.18.39c1.63 2.58-.14 4.94-3 4.73a5.63 5.63 0 01-.81-.11 4.89 4.89 0 01-2.64-1.48 62.45 62.45 0 00-7-6.43c4.23-2.27 5.77-10.32 6.16-15.35l6.57 8.36 1.23 1.82a15.22 15.22 0 00-1.42 3.23 5.19 5.19 0 00.73 4.84z" fill="#ffb573"/>
  <path d="M259.68 172a15.22 15.22 0 011.42-3.23l-1.23-1.77-4.13.09a9.74 9.74 0 003.94 4.91z" opacity=".2"/>
  <path d="M252.1 149.64c-.66 8.27-1.11 11.75 2.36 16.53 5.22 7.19 15.32 6.15 18.39-1.76 2.76-7.13 3.37-19.45-4-23.81s-16.05.78-16.71 9z" fill="#ffb573"/>
  <path d="M253.92 155.05c-4.15-1.1-2.52-5.38-2.52-5.38l6.11 1s.55 5.48-3.59 4.38z" fill="#263238"/>
  <path d="M270.65 141.36s-.11 4.58-5.71 4.82-5.19 8.82-11.4 7.22c-7.67-2-4.76-8.52-2.91-11.36 1.17-1.81 13.72-12.64 20.02-.68z" fill="#263238"/>
  <path d="M262.19 138s.12-10.25-8.85-11.56c-8.25-1.21-11.42 6.46-11.13 15.9.36 11.4-8 8.43-8 8.43a10.55 10.55 0 009 6.21c15.26 1.43 18.98-18.98 18.98-18.98z" fill="#263238"/>
  <path d="M251.57 140.92a.23.23 0 01-.14 0 .24.24 0 01-.07-.34 12.44 12.44 0 0110.6-5.08.25.25 0 01.24.26.23.23 0 01-.26.24 11.92 11.92 0 00-10.16 4.85.26.26 0 01-.21.07z" fill="#34a37e"/>
  <path d="M269.4 162.38s-4-1.82-4.91-3.57c0 0-.59 3.14 1.52 4.29a2.54 2.54 0 003.39-.72z" fill="#fff"/>
  <path d="M265.7 153.33c-.09.67.19 1.26.62 1.32s.87-.43 1-1.1-.18-1.26-.62-1.32-.86.43-1 1.1zm6.78 1.1c-.09.67.19 1.26.62 1.32s.87-.43 1-1.09-.18-1.26-.62-1.32-.86.43-1 1.09z" fill="#263238"/>
  <path d="M273.25 153.35l1.66-.24s-1 1.14-1.66.24z" fill="#263238"/>
  <path d="M270 154.3s.91 1.93 1.94 3.64a1 1 0 01-.54 1.49 10.21 10.21 0 01-2.17.41z" fill="#ed893e"/>
  <path d="M248.39 154.91a5.34 5.34 0 002.82 3.35c1.75.76 2.94-1.11 2.71-3.21-.2-1.89-1.36-4.56-3.24-4.42s-2.88 2.37-2.29 4.28z" fill="#ffb573"/>
  <path d="M252.76 157.07a1.12 1.12 0 11-1.12-1.12 1.12 1.12 0 011.12 1.12z" fill="#fff"/>
  <path d="M263.88 150.66a.38.38 0 00.28-.12 3.12 3.12 0 012.67-1 .41.41 0 00.46-.32.4.4 0 00-.32-.46 3.9 3.9 0 00-3.38 1.27.4.4 0 000 .56.43.43 0 00.28.11zm11.72 1.2a.4.4 0 00.34-.64 3.91 3.91 0 00-3.27-1.54.4.4 0 00-.36.43.41.41 0 00.44.36 3.12 3.12 0 012.57 1.24.39.39 0 00.28.15zm-9.13.38l1.66-.23s-1 1.13-1.66.23z" fill="#263238"/>
  <path d="M240 185.56c-2.86 7.08-6 13.92-9.37 20.75-1.68 3.42-3.44 6.8-5.3 10.18s-3.81 6.71-6.13 10.17l-.92 1.31c-.31.43-.65.89-1 1.35s-.78 1-1.21 1.43c-.18.23-.52.55-.78.82l-.42.41-.27.24c-1.35 1.15-2.74 2.38-4.12 3.62l-8.39 7.42c-5.62 5-11.31 9.87-17.18 14.6l-4.9-4.72c4.53-6.06 9.26-11.9 14.11-17.67 2.43-2.88 4.88-5.74 7.4-8.58 1.27-1.42 2.53-2.83 3.88-4.27.08-.09.19-.2.23-.26l.06-.09a2.63 2.63 0 00.16-.23c.17-.24.32-.45.53-.78s.39-.59.59-.94.41-.68.62-1c1.67-2.89 3.24-6.2 4.83-9.45s3.1-6.63 4.64-10c3-6.71 6.08-13.53 9.17-20.2z" fill="#34a37e"/>
  <path d="M181 251.77s6 2.88 3.85 6.11-6.85 4.7-8.54 7.36-5.07 9.63-5.82 9.58 1.54-10.38 2.32-12.18 4.38-6 4.38-6z" fill="#ffb573"/>
  <path d="M172.3 264.06s-2.3 3.36-2.43 4.85a29.4 29.4 0 01-1.12 5.89c-.44.88 1.6.27 2.31-2.6a77.44 77.44 0 001.24-8.14zm12.14-7.6a9.44 9.44 0 01-1.48 4 29.37 29.37 0 00-3.1 5.87c-.64 1.74-2.35 2.37-2.82 1.6s1.15-3.91 1.75-6.49 5.65-4.98 5.65-4.98z" fill="#ffb573"/>
</svg>
