<svg xmlns="http://www.w3.org/2000/svg" viewBox="0 0 500 500">
  <ellipse cx="251.12" cy="316.8" rx="238.53" ry="140.13" fill="#f5f5f5"/>
  <g fill="#e0e0e0">
    <path d="M93.46 371.25c5.9 1.17 12.09.86 18 2.05a70.68 70.68 0 0111.83 3.83q5.2 2 10.38 4.08c.69.27 9 3.13 9 3.52 14 5.22 28.22 12.73 43.64 11.83a13.74 13.74 0 0012.89-14.78c-.22-2.93-1.39-5.83-1-8.75 1.15-7.82 8.33-7 14.1-5.67 3.37.78 6.69 1.73 10 2.79 8.66 2.78 17.78 5.38 24.67 11.65 4.43 4 8.7 5.63 14.69 6.3 4.17.47 8.29.73 12.29 2.12s7.38 4 11 6a30.83 30.83 0 0032.11-1.83c1.55-1.1 3.14-2.71 2.84-4.59-.74-4.52-8.31-5.44-11.52-7.34-5.79-3.44-11.61-6.85-17.47-10.18q-17.6-10-35.6-19.2c-12.82-6.57-25.83-12.86-39.38-17.77-6.67-2.42-14.28-4.46-20.66-1.34-5.15 2.51-7.18 7.28-10.52 11.52-3.11 3.94-7.14 8-11.71 10.23-3.64 1.76-7.77 2.18-11.81 2.36-13.41.6-26.83-1-40-3.46-5.58-1-11.22-2.23-16.89-1.88-6.08.37-16 1.93-19.37 7.8a8.09 8.09 0 00-1.13 3 5.64 5.64 0 002 4.61 11.72 11.72 0 004.6 2.36 29.13 29.13 0 003.02.74z"/>
    <ellipse cx="396.43" cy="309.25" rx="21.59" ry="12.47"/>
    <path d="M379.71 388.55l-3.53-2c-2.39-1.38-2.39-3.62 0-5L384 377l-28.4-16.44-7.85 4.54a9.57 9.57 0 01-8.66 0l-3.53-2c-2.39-1.38-2.39-3.62 0-5l23.84-13.8a9.57 9.57 0 018.66 0l3.52 2c2.4 1.38 2.4 3.62 0 5l-8.67 5 28.43 16.42 8.68-5a9.57 9.57 0 018.66 0l3.53 2c2.39 1.38 2.39 3.62 0 5l-23.84 13.76a9.57 9.57 0 01-8.66.07z"/>
  </g>
  <path d="M440.07 249.23l-9.53-5.5s-2.33-20.4-.78-36.2c2.18-22.21 16.52-48.92 33.63-42.65s-7.85 28.89-13.4 47.72-9.92 36.63-9.92 36.63z" fill="#34a37e"/>
  <path d="M440.07 249.23l-9.53-5.5s-2.33-20.4-.78-36.2c2.18-22.21 16.52-48.92 33.63-42.65s-7.85 28.89-13.4 47.72-9.92 36.63-9.92 36.63z" opacity=".15"/>
  <path d="M435.06 246.91a.58.58 0 00.55-.59c-1.67-49.34 22.89-74.15 23.14-74.4a.58.58 0 00-.81-.82c-.26.25-25.17 25.42-23.48 75.26a.57.57 0 00.6.55z" fill="#fff"/>
  <path d="M446.06 252.66l-6.78-3.92s-1.16-14 5.71-31c6-14.81 20.8-27.09 28.26-24.51s7.27 7.87 3.63 13.41-25.75 18.77-30.82 46.02z" fill="#34a37e"/>
  <path d="M442.48 251.17a.58.58 0 00.58-.58c-.14-31.19 29.15-52.27 29.45-52.48a.58.58 0 00.13-.81.56.56 0 00-.8-.13c-.3.21-30.07 21.64-29.94 53.43a.59.59 0 00.58.57z" fill="#fff"/>
  <path d="M76.21 240.41l8-4.64S89 215.91 87.12 198c-2.68-25.13-19.23-34.58-25.52-32.42s-8.11 9.48 2.3 24.45c6.1 8.86 13.69 27.26 12.31 50.38z" fill="#34a37e"/>
  <path d="M76.21 240.41l8-4.64S89 215.91 87.12 198c-2.68-25.13-19.23-34.58-25.52-32.42s-8.11 9.48 2.3 24.45c6.1 8.86 13.69 27.26 12.31 50.38z" opacity=".15"/>
  <path d="M79.54 230.65h-.08A.55.55 0 0179 230c4.4-23.18-3.7-49.22-13.73-60.06a.56.56 0 01.82-.76c10.21 11 18.47 37.51 14 61a.54.54 0 01-.55.47z" fill="#fff"/>
  <path d="M55.17 252.56c-1.27.65-4.65-2.24-5.59-2.94a11.78 11.78 0 01-3.69-4.69 11.13 11.13 0 01-.64-6.67 26.15 26.15 0 011-3.48c.39-1.13.77-2.25 1.16-3.37a8.7 8.7 0 00.67-3.43c-.18-2.35-2.17-4.09-4-5.6-2-1.67-4.07-3.84-3.92-6.66A9.9 9.9 0 0143 210c1.43-1.64 3.1-3.07 4.41-4.8a7 7 0 001.59-4.35 7.25 7.25 0 00-.82-2.78 39.33 39.33 0 01-2.71-5.63c-.59-2-.37-4.45 1.24-5.78 1.32-1.09 3.2-1.16 4.91-1a11.17 11.17 0 014.42 1.81c4.35 2.71 6.63 8.14 11.27 10.29a48 48 0 005.69 1.73c1.89.6 3.78 1.67 4.57 3.48 1.57 3.56-1.88 7.69-.84 11.44.92 3.32 4 4.73 5.66 7.76a7 7 0 01.62 4.32 20.6 20.6 0 01-2.17 7.14 63.68 63.68 0 01-4.29 6.59z" fill="#34a37e"/>
  <path d="M67.46 246.16a.57.57 0 01-.52-.61c2-22.05-7.14-47-14.35-54.43a.56.56 0 010-.79.56.56 0 01.79 0C60.73 198 70.11 223.29 68 245.65a.55.55 0 01-.54.51z" fill="#fff"/>
  <path d="M65.27 219a.45.45 0 01-.16 0 74.45 74.45 0 00-15.9-3.39.56.56 0 01-.51-.61.53.53 0 01.61-.5 75.52 75.52 0 0116.18 3.45.56.56 0 01-.22 1.08z" fill="#fff"/>
  <path d="M365.22 331.33c-1.88-6.13-9.53-11.2-16.69-9.2a13.64 13.64 0 00-3.22 1.37c-6.95 4-12.57 13.75-12.57 21.77a13 13 0 00.56 4c1.87 6.13 9.53 11.17 16.69 9.16a13.64 13.64 0 003.22-1.37c6.94-4 12.57-13.76 12.57-21.78a13.11 13.11 0 00-.56-3.95z" fill="#455a64"/>
  <path d="M353.2 357.05c6.94-4 12.57-13.76 12.57-21.78S360.14 324 353.2 328s-12.57 13.75-12.57 21.77 5.63 11.29 12.57 7.28z" fill="#37474f"/>
  <path d="M353.2 336.9c2.67-1.54 4.83-.29 4.83 2.8a10.68 10.68 0 01-4.83 8.37c-2.67 1.54-4.83.29-4.83-2.79a10.7 10.7 0 014.83-8.38z" fill="#455a64"/>
  <path d="M354.85 341.53a3.66 3.66 0 01-1.65 2.87 1.19 1.19 0 01-1.11.15l-.12-.07a1.21 1.21 0 01-.43-1 3.69 3.69 0 011.66-2.87 1.18 1.18 0 011.11-.14l.12.06a1.2 1.2 0 01.42 1z" fill="#37474f"/>
  <path d="M381.41 356.86a3.67 3.67 0 01-1.65 2.87 1.38 1.38 0 01-.72.22 1.1 1.1 0 01-.55-.16l-26.4-15.24-.12-.07a1.21 1.21 0 01-.43-1 3.69 3.69 0 011.66-2.87 1.18 1.18 0 011.11-.14l.12.06 26.4 15.24a1.16 1.16 0 01.58 1.09z" fill="#fafafa"/>
  <path d="M407.32 355.63c-1.87-6.13-9.53-11.2-16.69-9.19a13.87 13.87 0 00-3.23 1.37c-6.94 4-12.57 13.76-12.57 21.78a13.32 13.32 0 00.56 4c1.88 6.13 9.53 11.17 16.69 9.17a13.4 13.4 0 003.22-1.37c6.94-4 12.57-13.76 12.57-21.77a13.12 13.12 0 00-.55-3.99z" fill="#455a64"/>
  <path d="M395.31 381.35c6.94-4 12.57-13.76 12.57-21.77s-5.63-11.27-12.57-7.27-12.58 13.76-12.57 21.78 5.62 11.27 12.57 7.26z" fill="#37474f"/>
  <path d="M395.31 361.21c2.67-1.54 4.83-.3 4.83 2.79a10.68 10.68 0 01-4.83 8.37c-2.67 1.54-4.84.29-4.84-2.79a10.69 10.69 0 014.84-8.37z" fill="#455a64"/>
  <path d="M397 365.83a3.67 3.67 0 01-1.65 2.87 1.19 1.19 0 01-1.11.15.35.35 0 01-.12-.07 1.21 1.21 0 01-.43-1 3.68 3.68 0 011.66-2.88 1.19 1.19 0 011.1-.14l.12.07a1.18 1.18 0 01.43 1z" fill="#37474f"/>
  <path d="M401 368.15a3.64 3.64 0 01-1.65 2.86 1.38 1.38 0 01-.72.22 1 1 0 01-.55-.16l-3.84-2.22a.35.35 0 01-.12-.07 1.21 1.21 0 01-.43-1 3.68 3.68 0 011.66-2.88 1.19 1.19 0 011.1-.14l.12.07 3.85 2.21a1.17 1.17 0 01.58 1.11z" fill="#fafafa"/>
  <path d="M401 368.13a3.67 3.67 0 01-1.65 2.88 1.21 1.21 0 01-1.11.14l-.12-.07a1.19 1.19 0 01-.43-1 3.68 3.68 0 011.66-2.87 1.19 1.19 0 011.11-.15l.12.07a1.2 1.2 0 01.42 1z" fill="#e0e0e0"/>
  <path d="M411.62 282.61a35.42 35.42 0 00-2.52-6.52 15.6 15.6 0 00-.35-.71 13.42 13.42 0 01.18-12.6l.23-.4a14.26 14.26 0 001.95-7.42 8.74 8.74 0 00-4.23-7 15.62 15.62 0 00-2-1 3.36 3.36 0 01-2.13-3.11v-3.84h-12.29v3.84a3.34 3.34 0 01-2.15 3.09 13.75 13.75 0 00-2 .94 8.75 8.75 0 00-4.29 7 14.29 14.29 0 001.89 7.43l.21.37a13.39 13.39 0 01.1 12.63c-.12.24-.24.47-.35.71a34.47 34.47 0 00-2.57 6.5 30.61 30.61 0 00-.6 6.62l-.01 17.86c0 2.32 1.51 4.65 4.56 6.42a21.52 21.52 0 008.89 2.6 27.43 27.43 0 004.44 0 21.54 21.54 0 008.84-2.52c3.07-1.75 4.61-4.06 4.62-6.38v-12.94c0-1.61.07-3.29.08-5a30.45 30.45 0 00-.5-6.57z" fill="#34a37e"/>
  <path d="M411.62 282.61a35.42 35.42 0 00-2.52-6.52 15.6 15.6 0 00-.35-.71 13.42 13.42 0 01.18-12.6l.23-.4a14.26 14.26 0 001.95-7.42 8.74 8.74 0 00-4.23-7 15.62 15.62 0 00-2-1 3.36 3.36 0 01-2.13-3.11v-3.84h-12.29v3.84a3.34 3.34 0 01-2.15 3.09 13.75 13.75 0 00-2 .94 8.75 8.75 0 00-4.29 7 14.29 14.29 0 001.89 7.43l.21.37a13.39 13.39 0 01.1 12.63c-.12.24-.24.47-.35.71a34.47 34.47 0 00-2.57 6.5 30.61 30.61 0 00-.6 6.62l-.01 17.86c0 2.32 1.51 4.65 4.56 6.42a21.52 21.52 0 008.89 2.6 27.43 27.43 0 004.44 0 21.54 21.54 0 008.84-2.52c3.07-1.75 4.61-4.06 4.62-6.38v-12.94c0-1.61.07-3.29.08-5a30.45 30.45 0 00-.5-6.57z" opacity=".3"/>
  <path d="M408.93 262.78l.23-.4a14.27 14.27 0 001.91-6.28 11.25 11.25 0 01-1.17 2.54 24.26 24.26 0 01-5.53 5.78c-2.11 1.72-4.45 3.67-4.71 6.38s1.59 5 3.69 6.58 4.56 2.7 6.45 4.53a16.17 16.17 0 012.14 2.67 18.38 18.38 0 00-.32-2 35.15 35.15 0 00-2.52-6.52 15.6 15.6 0 00-.35-.71 13.42 13.42 0 01.18-12.57z" opacity=".1"/>
  <path d="M388.43 244.28v2.07c0 1.23.8 2.47 2.44 3.43a13 13 0 0011.8 0 5.42 5.42 0 001.84-1.59 3.13 3.13 0 00.62-1.8v-2.1a2.14 2.14 0 00-.06-.56 4.49 4.49 0 00-2.36-2.86l-.12-.07a13.13 13.13 0 00-11.69 0 4.46 4.46 0 00-2.39 2.84 2.3 2.3 0 00-.08.64z" fill="#34a37e"/>
  <path d="M388.43 244.28v2.07c0 1.23.8 2.47 2.44 3.43a13 13 0 0011.8 0 5.42 5.42 0 001.84-1.59 3.13 3.13 0 00.62-1.8v-2.1a2.14 2.14 0 00-.06-.56 4.49 4.49 0 00-2.36-2.86l-.12-.07a13.13 13.13 0 00-11.69 0 4.46 4.46 0 00-2.39 2.84 2.3 2.3 0 00-.08.64z" opacity=".1"/>
  <path d="M402.67 247.73c3.26-1.87 3.28-4.92 0-6.82a13 13 0 00-11.8 0c-3.27 1.87-3.28 4.92 0 6.81a13 13 0 0011.8.01z" opacity=".2"/>
  <path d="M388.44 241.87v1.25a2.36 2.36 0 00.07.58 4.46 4.46 0 002.37 2.85 11.59 11.59 0 005.21 1.41 12.38 12.38 0 006.6-1.37 5.69 5.69 0 001.83-1.58 3.1 3.1 0 00.55-1.24 2.17 2.17 0 00.07-.57v-1.28c0-1.24-.8-2.47-2.42-3.42l-.45-.24a13.15 13.15 0 00-11.36.19c-1.65.95-2.47 2.18-2.47 3.42z" fill="#34a37e"/>
  <path d="M388.44 241.87v1.25a2.36 2.36 0 00.07.58 4.46 4.46 0 002.37 2.85 11.59 11.59 0 005.21 1.41 12.38 12.38 0 006.6-1.37 5.69 5.69 0 001.83-1.58 3.1 3.1 0 00.55-1.24 2.17 2.17 0 00.07-.57v-1.28c0-1.24-.8-2.47-2.42-3.42l-.45-.24a13.15 13.15 0 00-11.36.19c-1.65.95-2.47 2.18-2.47 3.42z" opacity=".1"/>
  <path d="M388.44 241.83c0 2.65 3.72 4.81 8.33 4.83s8.35-2.11 8.36-4.76-3.72-4.82-8.33-4.84-8.35 2.12-8.36 4.77z" fill="#34a37e"/>
  <path d="M393.91 236.91v4.32a.68.68 0 000 .2 1.55 1.55 0 00.82 1 3.93 3.93 0 001.81.49 4.3 4.3 0 002.28-.48 2.06 2.06 0 00.64-.54 1.16 1.16 0 00.19-.43 1.36 1.36 0 000-.2v-4.34a1.44 1.44 0 00-.84-1.18l-.16-.08a4.51 4.51 0 00-3.93.06 1.46 1.46 0 00-.81 1.18z" fill="#34a37e"/>
  <path d="M393.91 236.91v4.32a.68.68 0 000 .2 1.55 1.55 0 00.82 1 3.93 3.93 0 001.81.49 4.3 4.3 0 002.28-.48 2.06 2.06 0 00.64-.54 1.16 1.16 0 00.19-.43 1.36 1.36 0 000-.2v-4.34a1.44 1.44 0 00-.84-1.18l-.16-.08a4.51 4.51 0 00-3.93.06 1.46 1.46 0 00-.81 1.18z" opacity=".1"/>
  <path d="M393.91 236.89c0 .92 1.29 1.67 2.89 1.68s2.89-.74 2.9-1.65-1.29-1.67-2.89-1.68-2.89.76-2.9 1.65z" fill="#34a37e"/>
  <path d="M395.78 236.9c0 .33.46.59 1 .59s1-.26 1-.58-.46-.59-1-.6-1 .26-1 .59z" fill="#34a37e" opacity=".5"/>
  <path d="M395.78 236.9c0 .33.46.59 1 .59s1-.26 1-.58-.46-.59-1-.6-1 .26-1 .59z" opacity=".3"/>
  <path d="M339.78 68.6l-72.54 41.89a2.48 2.48 0 00-1.12 1.94v30.16a2.44 2.44 0 001.13 1.93l4 2.25a2.52 2.52 0 002.24 0L346 104.86a2.45 2.45 0 001.12-1.93V72.76a2.45 2.45 0 00-1.12-1.93l-4-2.24a2.51 2.51 0 00-2.22.01z" fill="#34a37e"/>
  <path d="M272.38 146.11V116a2.47 2.47 0 011.12-2L346 72.12c.62-.36 1.12-.07 1.12.64v30.17a2.45 2.45 0 01-1.12 1.93l-72.54 41.9c-.58.35-1.08.07-1.08-.65z" fill="#34a37e"/>
  <path d="M273.5 146.76a2.55 2.55 0 01-2.24 0l-4-2.25a2.44 2.44 0 01-1.13-1.92v-30.16a2.28 2.28 0 01.36-1.14l6.23 3.56a2.26 2.26 0 00-.33 1.1v30.16c-.01.65.45 1.03 1.11.65z" opacity=".2"/>
  <path d="M347.15 72.56c-.09-.57-.55-.77-1.11-.45L273.5 114a2.21 2.21 0 00-.79.84l-6.24-3.56a2.28 2.28 0 01.77-.8l72.55-41.88a2.46 2.46 0 012.24 0l4 2.24a2.49 2.49 0 011.12 1.72z" fill="#fff" opacity=".4"/>
  <path d="M263.06 136c-.71-.42-6-3.38-6.14-3.48a1 1 0 01-.22-1.6l9.52-7.88 6.16 3.5-9.51 7.89a1.05 1.05 0 00.19 1.57z" fill="#34a37e"/>
  <path d="M263.06 136c-.71-.42-6-3.38-6.14-3.48a1 1 0 01-.22-1.6l9.52-7.88 6.16 3.5-9.51 7.89a1.05 1.05 0 00.19 1.57z" opacity=".1"/>
  <path d="M272.38 126.5l-9.52 7.88a1 1 0 00.64 1.71l8.88-1z" fill="#34a37e"/>
  <path d="M278.08 123.7a.8.8 0 01-.07-.43 1.45 1.45 0 01.15-.5l2.79-5.42.25-.47a1 1 0 01.35-.38l1.58-.91a.17.17 0 01.25 0 .58.58 0 01.1.38v14.91a1.27 1.27 0 01-.1.5.61.61 0 01-.25.32l-1.7 1a.18.18 0 01-.25 0 .58.58 0 01-.1-.38v-10.1l-1.55 3a.46.46 0 01-.26.27c-.09 0-.17 0-.23-.1zm9.97 4.58a1.27 1.27 0 01-.1.5.61.61 0 01-.25.32l-1.7 1a.18.18 0 01-.25-.05.56.56 0 01-.1-.37v-3a1.27 1.27 0 01.1-.5.61.61 0 01.25-.32l1.7-1a.18.18 0 01.25 0 .58.58 0 01.1.38zm4.38-2.53a1.25 1.25 0 01-.11.5.74.74 0 01-.24.33l-1.71 1a.17.17 0 01-.24 0 .57.57 0 01-.11-.38v-3a1.25 1.25 0 01.11-.5.64.64 0 01.24-.33l1.71-1a.17.17 0 01.24 0 .57.57 0 01.11.38zm4.37-2.52a1.27 1.27 0 01-.1.5.61.61 0 01-.25.32l-1.7 1a.18.18 0 01-.25 0 .58.58 0 01-.1-.38v-3a1.24 1.24 0 01.1-.5.69.69 0 01.25-.33l1.7-1a.19.19 0 01.25 0 .59.59 0 01.1.38zm9.2-15.64a11.87 11.87 0 01-.08 1.33 10 10 0 01-.26 1.37 12.53 12.53 0 01-.5 1.45c-.2.5-.45 1-.74 1.59l-1.82 3.49 3.26-1.88a.17.17 0 01.24 0 .59.59 0 01.11.38v2.45a1.29 1.29 0 01-.11.5.65.65 0 01-.24.32l-6.86 4a.18.18 0 01-.25 0 .64.64 0 01-.1-.38v-2a3.74 3.74 0 01.09-.78 2.42 2.42 0 01.29-.79l3.88-7.19a5.94 5.94 0 00.57-1.42 5 5 0 00.12-1 4.22 4.22 0 000-.43 1.87 1.87 0 00-.15-.49.6.6 0 00-.33-.3.68.68 0 00-.58.12 1.67 1.67 0 00-.59.56 3.52 3.52 0 00-.35.7 3.79 3.79 0 00-.19.67c0 .22-.06.37-.08.48a1.25 1.25 0 01-.2.54 1.1 1.1 0 01-.32.29l-1.6.92a.15.15 0 01-.2 0 .52.52 0 01-.08-.31 11.11 11.11 0 01.23-2.07 10.86 10.86 0 01.67-2.12 8.7 8.7 0 011.12-1.92 5.32 5.32 0 011.57-1.39 2.57 2.57 0 011.52-.43 1.67 1.67 0 011.09.57 3.19 3.19 0 01.67 1.34 7.54 7.54 0 01.2 1.83zm4.47 7.74a1.24 1.24 0 01-.1.5.64.64 0 01-.25.33l-1.7 1a.18.18 0 01-.25 0 .58.58 0 01-.1-.38v-3a1.24 1.24 0 01.1-.5.75.75 0 01.25-.33l1.7-1a.18.18 0 01.25 0 .58.58 0 01.1.38zm4.38-2.52a1.29 1.29 0 01-.11.5.65.65 0 01-.24.32l-1.7 1a.18.18 0 01-.25-.05.58.58 0 01-.1-.38v-3a1.27 1.27 0 01.1-.5.69.69 0 01.25-.33l1.7-1a.17.17 0 01.24 0 .59.59 0 01.11.38zm4.37-2.53a1.24 1.24 0 01-.1.5.69.69 0 01-.25.33l-1.7 1a.17.17 0 01-.24 0 .59.59 0 01-.11-.38v-3a1.21 1.21 0 01.11-.49.59.59 0 01.24-.33l1.7-1a.18.18 0 01.25 0 .58.58 0 01.1.38zm8.72-20.56a.17.17 0 01.24 0 .58.58 0 01.1.38v2.45a1.57 1.57 0 01-.09.51c-.06.17-.11.32-.16.44l-1.58 3.73a1.76 1.76 0 011.65.6 3.85 3.85 0 01.64 2.53 9.53 9.53 0 01-1 4.51 7.31 7.31 0 01-2.83 3 3.62 3.62 0 01-1.66.56 1.86 1.86 0 01-1.21-.33 2.3 2.3 0 01-.76-1 4.23 4.23 0 01-.28-1.51 1.15 1.15 0 01.08-.41.68.68 0 01.2-.27l1.64-.94c.18-.11.32-.11.42 0l.31.29a1 1 0 00.46.21 1.27 1.27 0 00.8-.24 3.08 3.08 0 001-1 2.46 2.46 0 00.41-1.41c0-.54-.14-.85-.41-.94a1.29 1.29 0 00-1 .22l-1.08.63a.18.18 0 01-.25 0 .58.58 0 01-.1-.38v-2a1.52 1.52 0 01.09-.51q.09-.27.18-.48l1.37-3.36-3.39 2a.18.18 0 01-.25 0 .58.58 0 01-.1-.38v-2.49a1.24 1.24 0 01.1-.5.64.64 0 01.25-.33zm5.06 12.59a1.24 1.24 0 01-.1.5.69.69 0 01-.25.33l-1.7 1a.17.17 0 01-.24 0 .57.57 0 01-.11-.38v-3a1.25 1.25 0 01.11-.5.64.64 0 01.24-.33l1.7-1a.18.18 0 01.25 0 .58.58 0 01.1.38zm4.4-2.52a1.48 1.48 0 01-.1.5.66.66 0 01-.25.32l-1.7 1a.17.17 0 01-.25 0 .58.58 0 01-.1-.38v-3a1.24 1.24 0 01.1-.5.69.69 0 01.25-.33l1.7-1a.19.19 0 01.25 0 .66.66 0 01.1.38zm4.37-2.53a1.24 1.24 0 01-.1.5.74.74 0 01-.24.33l-1.71 1a.17.17 0 01-.24 0 .59.59 0 01-.11-.38v-3a1.29 1.29 0 01.11-.5.65.65 0 01.24-.32l1.71-1a.17.17 0 01.24 0 .58.58 0 01.1.38z" fill="#fafafa"/>
  <path d="M149.81 277.71a.32.32 0 01-.14 0l-5.73-1.62a.78.78 0 01-.54-1 .8.8 0 011-.55l5.73 1.62a.79.79 0 01-.29 1.55zm-5.87 4.44a.8.8 0 01-.12-1.56l5.76-1.45a.78.78 0 011 .57.79.79 0 01-.57 1l-5.77 1.46a1.14 1.14 0 01-.3-.02zm2.9 5.32a.84.84 0 01-.5-.24.8.8 0 010-1.12l4.27-4.14a.78.78 0 011.11 0 .79.79 0 010 1.12l-4.27 4.15a.81.81 0 01-.61.23zm5.16 3.15h-.14a.8.8 0 01-.55-1l1.62-5.72a.79.79 0 111.52.43l-1.62 5.72a.78.78 0 01-.83.57z" opacity=".3"/>
  <path d="M308.23 201.82l-14.29 8.25-31.39 4.54s-22.94-34.42-26.45-39.83-7.61-8.88-17.13-8.87l1.8 27.46c.3.88 19.27 24.26 31.78 37 4.42 4.49 7.14 5.63 14.05 3.72 17.63-4.89 39-19.38 40.72-23 2.26-4.73.74-9.18.91-9.27z" fill="#ffa8a7"/>
  <path d="M302.34 184.41c1.88-6.12 9.53-11.19 16.69-9.19a13.93 13.93 0 013.23 1.38c6.94 4 12.57 13.75 12.57 21.77a13 13 0 01-.57 4c-1.88 6.13-9.53 11.17-16.69 9.16a13.29 13.29 0 01-3.22-1.38c-6.94-4-12.57-13.75-12.57-21.77a13.18 13.18 0 01.56-3.97z" fill="#455a64"/>
  <path d="M314.36 210.13c-6.94-4-12.57-13.75-12.57-21.77s5.63-11.27 12.57-7.26 12.57 13.75 12.57 21.77-5.63 11.27-12.57 7.26z" fill="#37474f"/>
  <path d="M314.36 190c-2.67-1.54-4.83-.29-4.83 2.79a10.7 10.7 0 004.83 8.38c2.67 1.54 4.84.29 4.84-2.79a10.69 10.69 0 00-4.84-8.38z" fill="#455a64"/>
  <path d="M312.71 194.62a3.66 3.66 0 001.65 2.87 1.22 1.22 0 001.11.15l.12-.07a1.23 1.23 0 00.43-1 3.69 3.69 0 00-1.66-2.87 1.19 1.19 0 00-1.11-.15l-.12.07a1.22 1.22 0 00-.42 1z" fill="#37474f"/>
  <path d="M286.15 210a3.68 3.68 0 001.65 2.87 1.48 1.48 0 00.72.22 1.07 1.07 0 00.55-.16l26.4-15.24.12-.07a1.23 1.23 0 00.43-1 3.69 3.69 0 00-1.66-2.87 1.19 1.19 0 00-1.11-.15l-.12.07-26.39 15.24a1.15 1.15 0 00-.59 1.09z" fill="#fafafa"/>
  <path d="M260.24 208.71c1.87-6.12 9.53-11.19 16.69-9.19a13.64 13.64 0 013.22 1.37c6.94 4 12.57 13.75 12.57 21.77a13.32 13.32 0 01-.56 4c-1.87 6.13-9.53 11.17-16.69 9.16a13.75 13.75 0 01-3.21-1.37c-6.95-4-12.57-13.76-12.57-21.78a13.23 13.23 0 01.55-3.96z" fill="#455a64"/>
  <path d="M272.26 234.44c-6.95-4-12.57-13.76-12.57-21.78s5.62-11.26 12.57-7.26 12.57 13.75 12.57 21.77-5.63 11.27-12.57 7.27z" fill="#37474f"/>
  <path d="M272.26 214.29c-2.67-1.54-4.84-.29-4.84 2.8a10.69 10.69 0 004.84 8.37c2.67 1.54 4.83.29 4.83-2.79a10.7 10.7 0 00-4.83-8.38z" fill="#455a64"/>
  <path d="M270.6 218.92a3.68 3.68 0 001.65 2.87 1.21 1.21 0 001.12.15l.12-.07a1.24 1.24 0 00.42-1 3.67 3.67 0 00-1.66-2.87 1.17 1.17 0 00-1.1-.15l-.12.07a1.2 1.2 0 00-.43 1z" fill="#37474f"/>
  <path d="M266.6 221.23a3.67 3.67 0 001.65 2.87 1.38 1.38 0 00.72.22 1.1 1.1 0 00.55-.16l3.85-2.22.12-.07a1.24 1.24 0 00.42-1 3.67 3.67 0 00-1.66-2.87 1.17 1.17 0 00-1.1-.15l-.12.07-3.85 2.22a1.16 1.16 0 00-.58 1.09z" fill="#fafafa"/>
  <path d="M266.6 221.22a3.67 3.67 0 001.65 2.87 1.19 1.19 0 001.11.15l.12-.07a1.21 1.21 0 00.43-1 3.68 3.68 0 00-1.66-2.87 1.16 1.16 0 00-1.1-.14l-.13.07a1.2 1.2 0 00-.42.99z" fill="#e0e0e0"/>
  <path d="M299.08 218.13c6.06-4.64 11.88-4.6 10.83-15.93-.89-5-2.12-5.35-7-7.25-2.15-.83-5-1.46-6.71.5a5.83 5.83 0 01-.63.68 3.38 3.38 0 01-1.68.54 4.87 4.87 0 00-3.06 1.3c-.57.64-.79 1.54-1.35 2.19a13.58 13.58 0 01-1.72 1.39 4.16 4.16 0 00-1.44 3.06 4.59 4.59 0 001.85 3.39l3-1.76c1.26-.87 3.84 2.2 2.73 3.83-1.72 2.58 5.18 8.06 5.18 8.06zm-70.71 22.76c1.94-7.85 2.5-27.44 2.5-27.44l-56.78 1.71 3.09 12.37A50.15 50.15 0 01178 236s5.51 10.21 21.84 12a44.23 44.23 0 0028.53-7.11z" fill="#ffa8a7"/>
  <path d="M230.87 213.45c.07.63-.32 6.56-.32 6.56-7.27 6.11-30.56 9.2-55 1.07l-5.18-20s17.58-7.72 5.71-33.62l12.76-1 22.67-.57H219a83.23 83.23 0 0115.33 20.28c2.94 5.56 6.73 13.67-3.46 27.28z" fill="#455a64"/>
  <path d="M198.77 213.63c-10.22-2.61-12.79-9-13.52-13.7 0 0-1.93 13.7 12.69 16.9 15.42 3.36 21.76-8.85 21.76-8.85s-8.58 8.8-20.93 5.65z" fill="#37474f"/>
  <path d="M111.69 366.09c-3 2.19-9.91 2.72-16-.14s-8.64-11-7.5-17.29c1.38-7.67 5.17-11.87 6.14-16.48s0-11 1.45-15.12a11.8 11.8 0 017-6.88 7.13 7.13 0 016.26.55l1.81 1.06z" fill="#263238"/>
  <path d="M118.85 336.84l-4.74 14.21s3 10.15 1.31 12.84c-2.5 4-6.88 4.71-14.27 2.45-8.46-2.57-10.45-10.22-10-16.16.59-8.47 8.42-14.84 7.52-23-.43-4 .11-8.48 2.3-11.91 2.45-3.85 6.47-4.57 10.65-3.31 3.57 1.08 6.71 3.33 9.74 5.44a10.73 10.73 0 012.34 2 7.31 7.31 0 011.2 2.4 12.7 12.7 0 01.48 5.41c-.22 1.7-1.3 2.69-2.31 4z" fill="#37474f"/>
  <path d="M139.28 330.11c-.3-.12-14.78-9.38-16.34-10.07s-5.39-1.69-9.11 6.89c-2.65 6.12 1.16 8.38 1.16 8.38l17 10.1z" fill="#ffa8a7"/>
  <path d="M114.11 351.05a21.09 21.09 0 00-9.88-2.2 1.56 1.56 0 01-1.65-2 1.56 1.56 0 011.36-1.07c2.29-.17 7.85-.24 11.54 2.8.98 1.98-1.37 2.47-1.37 2.47zm1.73-6.49a20.93 20.93 0 00-9.75-2.71 1.57 1.57 0 01-1.54-2.11 1.54 1.54 0 011.4-1c2.3-.06 7.86.16 11.39 3.39.88 2.05-1.5 2.43-1.5 2.43z" fill="#34a37e"/>
  <path d="M114.11 351.05a21.09 21.09 0 00-9.88-2.2 1.56 1.56 0 01-1.65-2 1.56 1.56 0 011.36-1.07c2.29-.17 7.85-.24 11.54 2.8.98 1.98-1.37 2.47-1.37 2.47zm1.73-6.49a20.93 20.93 0 00-9.75-2.71 1.57 1.57 0 01-1.54-2.11 1.54 1.54 0 011.4-1c2.3-.06 7.86.16 11.39 3.39.88 2.05-1.5 2.43-1.5 2.43z" opacity=".3"/>
  <path d="M263.42 367.63l18.8-7.46c-.32-4.85-1.51-11.31-.27-24l-21.33-4.07v21.37z" fill="#ffa8a7"/>
  <path d="M317.08 384.14a6.28 6.28 0 01-.26 4.62c-.64 1.35-7.69 5.32-17.2 4.68a39.54 39.54 0 01-19.62-6.87c-3.63-2.4-7.4-2.85-12.11-3.12s-10.89-2.62-11.93-4.82.16-6 .16-6z" fill="#263238"/>
  <path d="M278.71 354.47l.75-.16a3.11 3.11 0 011.25-.07 2.43 2.43 0 011.18.8 23.47 23.47 0 012.43 3.81c2 3.25 6.17 5.94 10.74 8.4 3.11 1.67 6.15 3 9.36 4.41s7.61 2.37 10.17 4.09c3.74 2.52 4.22 8.84 0 11.33-3.67 2.15-13.32 4.49-23.44 1.62-5.51-1.56-11.63-7.45-18.87-8-4.6-.36-13.3-1.65-16.27-5.14-1.09-1.55.37-6.47 1.57-10.71 1.31-4.63 1.8-12.79 3.33-12.38 0 0-.42 1.15.18 1.77s2.72 1.85 3.33 2.38a12.22 12.22 0 012.55 3.66 2.76 2.76 0 001.31 1.42c.77.29 1.35-.2 2-.51A4 4 0 01273 361a17.89 17.89 0 00-.48-2.71 1.57 1.57 0 01-.07-.88 1.35 1.35 0 01.59-.66 14.74 14.74 0 015.67-2.28z" fill="#37474f"/>
  <path d="M290.77 364.75a4.29 4.29 0 00-3.4-2.28c-2.1-.39-5.79 1.16-8.09 3a1.72 1.72 0 00.25 2.84 1.71 1.71 0 002-.22 13.08 13.08 0 019.24-3.34zm6.49 3.63a4.94 4.94 0 00-4-2.07s-5.47.15-8.85 3.31a1.67 1.67 0 00.23 2.74 1.64 1.64 0 001.89-.22 13.16 13.16 0 0110.73-3.76zm7.16 3.28a5.51 5.51 0 00-4.18-1.88s-5.1.19-8.48 3.35a1.68 1.68 0 00.23 2.74 1.63 1.63 0 001.89-.22 12.57 12.57 0 0110.54-3.99z" fill="#34a37e"/>
  <path d="M290.77 364.75a4.29 4.29 0 00-3.4-2.28c-2.1-.39-5.79 1.16-8.09 3a1.72 1.72 0 00.25 2.84 1.71 1.71 0 002-.22 13.08 13.08 0 019.24-3.34zm6.49 3.63a4.94 4.94 0 00-4-2.07s-5.47.15-8.85 3.31a1.67 1.67 0 00.23 2.74 1.64 1.64 0 001.89-.22 13.16 13.16 0 0110.73-3.76zm7.16 3.28a5.51 5.51 0 00-4.18-1.88s-5.1.19-8.48 3.35a1.68 1.68 0 00.23 2.74 1.63 1.63 0 001.89-.22 12.57 12.57 0 0110.54-3.99z" opacity=".3"/>
  <path d="M276.27 260.36C262 257.15 227.82 250 227.82 250l.55-9.12C216 247.29 190 245.48 178 236l-1.9 9.67a97 97 0 00-11.74 17.68c-2.75 5.43-7.33 13.9-2.77 33.63 2.68 11.58 6.26 42.09 6.26 42.09l-35-12.89s-3 .51-5.54 7.06c-1.49 3.89-2 7.62-.48 9.55 12.8 10.1 33.54 26.62 54.5 35.88 14 5.36 21.44-6.41 22.13-10.77 2.62-16.7 5.66-70.36 5.66-70.36l46.74-1.54c-1.54 8.86 4.76 43.48 4.76 43.48s11.51 5 21.05-.12c0 0 6.38-39.84 7-53.13.67-14.79 1.43-22.77-12.4-25.87z" fill="#34a37e"/>
  <path d="M255.86 296c0-2.39 1.59-10.75 7-15.19 0 0-7.42 1.33-10.81 15.31zm-88.01 43.05s1 13.18 3.51 19.59c0 0-6.31-11.4-7-20.88zM227.81 250l.56-9.11C216 247.29 190 245.48 178 236l-1.9 9.67c.09.1 7.79 8 27.81 9.09s23.9-4.76 23.9-4.76zm-18.66 47.52a36.55 36.55 0 00-12.25-26.08s10.76 5 14.36 20.83c0 0 8-3.73 12.18-14.91 0 0-1.28 11.18-7.72 17.53l19.42 1.8z" opacity=".15"/>
  <path d="M202.85 95.27a31.25 31.25 0 00-31.25 31.25 31.26 31.26 0 0031.25 31.26 31.27 31.27 0 0031.26-31.26 31.26 31.26 0 00-31.26-31.25z" fill="#263238"/>
  <path d="M170.25 114.31a16.64 16.64 0 013.38.19 1.53 1.53 0 011 .45 1.61 1.61 0 01.26.77 11.32 11.32 0 01-.47 5.17c-.45 1.15-1.82 1.75-2.69 2.59-3.38 3.27-3.65 8.71-2.32 13.22s4 8.53 5.73 12.88 2.65 9.62.2 14c-1 1.69-2.68 3-2.47 5 .24 2.45 2.38 4.8 3.3 7a17.12 17.12 0 011 8.24 17.45 17.45 0 01-3.74 9.46 14.31 14.31 0 01-13.58 4.72 6.9 6.9 0 01-2.89-1.23c-1.47-1.18-2.05-3.11-2.85-4.82-2.58-5.53-8-9.55-9.66-15.42-1.74-6.21 1.24-12.75 4.9-18.06 1.71-2.48 3.62-4.92 4.46-7.81 1.13-3.91.14-8.08-.12-12.14a33.73 33.73 0 011.31-11.79c.83-2.76 2.09-5.94 4.25-7.92a17.48 17.48 0 0111-4.5z" fill="#263238"/>
  <path d="M222.44 109.57c3.43 2.05 7.63 10.7 7.14 28.8-.42 15.34-5.41 19.11-7.91 20.19s-7.31.4-12-.4v9.21s6.44 7.54 6 11.76-9.36 5.19-15.4 1S189.15 168 189.15 168l.19-21.18s-2.77 2.67-7.42-1.44c-3.85-3.39-5.12-9.08-2.1-12.12s8.57-2.18 10.68 2.18c0 0 7.46.3 17.43-5.12a27.91 27.91 0 0014.51-20.75z" fill="#ffa8a7"/>
  <path d="M212.47 134.45a1.93 1.93 0 11-2-1.92 2 2 0 012 1.92z" fill="#263238"/>
  <path d="M212.93 147.45l4.47 1.45a2.31 2.31 0 01-2.92 1.6 2.47 2.47 0 01-1.55-3.05z" fill="#f28f8f" opacity=".5"/>
  <path d="M228.31 128.59l-3.89-2.73a2.28 2.28 0 013.24-.65 2.49 2.49 0 01.65 3.38zm-.92 4.52a1.93 1.93 0 11-2-1.92 2 2 0 012 1.92z" fill="#263238"/>
  <path fill="#f28f8f" d="M218.29 131.97l.26 11.62 6.12-1.87-6.38-9.75zm-8.61 26.19c-4.93-.67-15.07-3.62-16.64-7.64a10.41 10.41 0 003.54 5.13c3 2.61 13.08 5.58 13.08 5.58z" opacity=".5"/>
  <path d="M176.1 167.47c-9.68.68-13.68 1.92-19.07 13.88-4.84 10.75-16.45 38.56-19.35 44.77s-3.45 8.69-1 15.18c2 5.29 18.33 35.68 20.12 40.11s2.58 8.91 5.63 14.07 7.87 10.2 11.68 11.39c5.65 1.77 13-.69 13.22-4.1s-8.29-9.1-10.61-16.67a33 33 0 004.84 2.63c2.3.94 4.85.73 5.61-.57s-1.53-2.1-3.57-4.12c-1.22-1.21-3.38-3.93-6.14-6.33-1.86-1.62-4.93-2.1-6.3-3.88-.75-.95-4.11-9.18-6.63-16.52-3.13-9.08-7.24-21.18-7.24-21.18l16.82-35s13.2-13.13 1.99-33.66z" fill="#ffa8a7"/>
  <path d="M156.78 281.41s3.87-7.83 14.36-7.58l-2.77-6.16s-10.24.72-14.55 7.64z" fill="#37474f"/>
  <path d="M155.65 274.76l2.28 3.19a2.1 2.1 0 003 .46l4-3a2.31 2.31 0 00.51-3.11l-2.09-3.08a2.08 2.08 0 00-3-.53l-4.25 3a2.2 2.2 0 00-.45 3.07z" fill="#263238"/>
  <path d="M154.9 274.68l2.28 3.19a2.11 2.11 0 003 .47l4-3a2.31 2.31 0 00.52-3.11l-2.09-3.08a2.11 2.11 0 00-3-.53l-4.24 3.05a2.18 2.18 0 00-.47 3.01z" fill="#455a64"/>
  <path d="M164.28 273.63a1.45 1.45 0 01-.57 1l-4 3a1.35 1.35 0 01-1 .25 1.26 1.26 0 01-.85-.53l-2.28-3.2a1.35 1.35 0 01-.25-.93 1.38 1.38 0 01.56-1l4.24-3a1.28 1.28 0 011-.23 1.26 1.26 0 01.85.55l2.09 3.08a1.49 1.49 0 01.24 1z" fill="#34a37e"/>
</svg>
